<svg id="svg" version="1.1" xmlns="http://www.w3.org/2000/svg" xmlns:xlink="http://www.w3.org/1999/xlink" width="400" height="400" viewBox="0, 0, 400,400"><g id="svgg"><path id="path0" d="M158.400 88.067 C 150.456 89.702,145.872 91.127,140.400 93.661 C 137.282 95.105,131.677 98.244,131.200 98.814 C 131.090 98.945,130.100 99.657,129.000 100.396 C 127.040 101.712,122.675 105.406,120.232 107.816 C 118.127 109.892,112.400 116.888,112.400 117.383 C 112.400 117.480,111.828 118.407,111.129 119.443 C 108.849 122.822,105.907 129.284,104.775 133.400 C 104.594 134.060,104.248 135.320,104.008 136.200 C 101.460 145.520,101.619 159.754,104.381 169.800 C 105.471 173.761,111.477 191.945,112.010 192.895 C 112.225 193.277,112.400 193.941,112.400 194.371 C 112.400 194.801,112.580 195.264,112.800 195.400 C 113.020 195.536,113.200 195.999,113.200 196.429 C 113.200 196.859,113.361 197.523,113.559 197.905 C 113.756 198.287,114.675 201.030,115.600 204.000 C 116.525 206.970,117.444 209.713,117.641 210.095 C 117.839 210.477,118.000 211.064,118.000 211.400 C 118.000 211.736,118.161 212.323,118.359 212.705 C 118.659 213.288,119.470 215.812,121.602 222.800 C 121.770 223.350,122.104 224.520,122.345 225.400 C 122.586 226.280,123.133 228.260,123.561 229.800 C 125.205 235.726,127.522 246.193,128.429 251.800 C 128.678 253.340,129.075 255.500,129.311 256.600 C 129.593 257.919,129.818 274.199,129.970 304.400 C 130.149 339.960,130.312 350.395,130.700 351.074 C 130.975 351.554,131.200 352.401,131.200 352.955 C 131.200 353.509,131.402 354.466,131.650 355.081 C 131.897 355.697,132.281 356.650,132.503 357.200 C 132.725 357.750,133.084 358.650,133.300 359.200 C 133.516 359.750,133.884 360.560,134.117 361.000 C 134.350 361.440,135.061 362.786,135.697 363.992 C 144.137 379.982,167.531 395.292,188.800 398.744 C 195.699 399.863,196.918 400.000,200.000 400.000 C 203.082 400.000,204.301 399.863,211.200 398.744 C 230.611 395.593,250.725 383.483,261.469 368.478 C 263.986 364.963,267.200 359.018,267.200 357.878 C 267.200 357.531,267.359 357.149,267.552 357.030 C 267.901 356.814,268.063 356.285,268.849 352.800 C 269.793 348.607,269.939 342.693,269.992 306.400 C 270.044 270.672,270.290 259.788,271.168 254.400 C 271.889 249.973,272.994 244.066,273.525 241.800 C 273.731 240.920,274.211 238.850,274.591 237.200 C 276.024 230.979,281.187 213.164,282.416 210.200 C 282.598 209.760,282.961 208.680,283.223 207.800 C 283.484 206.920,283.856 205.887,284.049 205.505 C 284.242 205.123,284.400 204.536,284.400 204.200 C 284.400 203.864,284.562 203.277,284.760 202.895 C 284.958 202.513,286.332 198.510,287.814 194.000 C 289.296 189.490,291.391 183.190,292.471 180.000 C 295.104 172.215,296.139 168.447,297.247 162.600 C 297.909 159.107,297.958 144.560,297.316 142.000 C 297.068 141.010,296.646 139.120,296.379 137.800 C 293.534 123.738,283.527 108.981,271.000 100.374 C 269.900 99.618,268.910 98.904,268.800 98.788 C 266.436 96.277,253.142 90.540,246.200 89.033 C 244.440 88.651,242.245 88.172,241.323 87.969 C 238.980 87.453,225.215 87.507,222.906 88.041 C 218.300 89.105,214.030 90.403,211.740 91.433 C 211.046 91.745,210.352 92.000,210.197 92.000 C 209.939 92.000,202.325 96.576,200.700 97.708 C 200.154 98.089,199.846 98.090,199.300 97.715 C 196.494 95.785,190.559 92.277,189.494 91.919 C 188.782 91.680,188.020 91.354,187.800 91.196 C 187.124 90.709,181.616 89.086,177.094 88.041 C 174.821 87.515,160.985 87.535,158.400 88.067 M266.863 169.433 C 271.080 171.613,271.151 174.366,267.295 186.000 C 266.529 188.310,265.764 190.740,265.593 191.400 C 265.423 192.060,264.627 194.825,263.824 197.544 C 263.020 200.264,261.840 204.494,261.201 206.944 C 259.547 213.289,258.525 217.143,257.554 220.700 C 257.089 222.405,256.612 224.338,256.495 224.995 C 255.227 232.098,246.384 233.917,242.913 227.788 C 241.842 225.899,241.780 224.436,242.639 221.320 C 242.990 220.044,243.422 218.370,243.600 217.600 C 243.778 216.830,244.223 215.120,244.591 213.800 C 244.959 212.480,245.710 209.690,246.260 207.600 C 249.113 196.767,249.376 195.818,251.525 188.600 C 256.275 172.643,257.614 169.820,260.903 168.832 C 262.451 168.367,265.371 168.661,266.863 169.433 M246.162 254.377 C 249.160 256.229,249.302 256.940,249.651 271.800 C 249.822 279.060,250.150 287.610,250.381 290.800 C 251.721 309.355,250.627 313.200,244.006 313.200 C 238.187 313.200,237.053 310.870,236.408 297.600 C 236.179 292.870,235.794 285.400,235.553 281.000 C 234.801 267.264,235.148 258.519,236.526 256.438 C 238.635 253.255,242.879 252.347,246.162 254.377 M58.893 309.600 C 58.893 310.370,58.975 310.685,59.076 310.300 C 59.176 309.915,59.176 309.285,59.076 308.900 C 58.975 308.515,58.893 308.830,58.893 309.600 M245.116 337.557 C 249.386 339.737,250.108 343.128,247.642 349.423 C 240.885 366.672,226.207 376.758,204.922 378.779 C 199.141 379.328,197.489 379.021,195.224 376.974 C 190.137 372.378,193.823 364.931,201.233 364.830 C 205.117 364.778,214.704 362.866,215.780 361.930 C 215.989 361.749,216.428 361.600,216.756 361.600 C 219.489 361.600,229.462 353.893,231.508 350.200 C 232.943 347.609,234.284 344.756,235.198 342.350 C 236.984 337.646,241.251 335.585,245.116 337.557 " stroke="none" fill="#dc342c" fill-rule="evenodd"></path><path id="path1" d="M161.147 2.653 C 159.746 4.112,157.649 6.227,156.486 7.353 C 153.596 10.152,143.545 20.219,140.573 23.291 C 139.238 24.671,137.753 26.065,137.273 26.388 C 136.104 27.176,136.052 29.200,137.200 29.200 C 137.640 29.200,138.000 29.380,138.000 29.600 C 138.000 29.820,138.278 30.000,138.617 30.000 C 138.956 30.000,139.620 30.360,140.092 30.800 C 140.564 31.240,141.187 31.600,141.475 31.600 C 141.764 31.600,142.000 31.780,142.000 32.000 C 142.000 32.220,142.270 32.400,142.600 32.400 C 142.930 32.400,143.200 32.580,143.200 32.800 C 143.200 33.020,143.470 33.200,143.800 33.200 C 144.130 33.200,144.400 33.380,144.400 33.600 C 144.400 33.820,144.670 34.000,145.000 34.000 C 145.330 34.000,145.600 34.138,145.600 34.306 C 145.600 34.474,146.320 35.056,147.200 35.600 C 148.080 36.144,148.800 36.714,148.800 36.867 C 148.800 37.021,149.151 37.257,149.580 37.394 C 150.009 37.530,151.314 38.529,152.480 39.614 C 153.646 40.698,154.803 41.589,155.052 41.593 C 155.552 41.601,156.990 42.974,161.900 48.135 C 163.715 50.042,165.201 51.738,165.202 51.902 C 165.203 52.066,165.743 52.775,166.402 53.478 C 167.061 54.181,167.600 54.854,167.600 54.974 C 167.600 55.191,168.562 56.428,169.500 57.416 C 169.775 57.706,170.000 58.136,170.000 58.371 C 170.000 58.607,170.180 58.800,170.400 58.800 C 170.620 58.800,170.800 59.036,170.800 59.325 C 170.800 59.613,171.160 60.236,171.600 60.708 C 172.040 61.180,172.400 61.844,172.400 62.183 C 172.400 62.522,172.580 62.800,172.800 62.800 C 173.020 62.800,173.200 63.160,173.200 63.600 C 173.200 64.040,173.380 64.400,173.600 64.400 C 173.820 64.400,174.000 64.760,174.000 65.200 C 174.000 65.640,174.180 66.000,174.400 66.000 C 174.620 66.000,174.799 66.315,174.798 66.700 C 174.796 67.345,175.671 70.297,176.427 72.200 C 176.845 73.250,177.213 75.286,177.473 77.991 C 177.713 80.477,178.509 81.739,180.760 83.200 C 187.582 87.628,195.095 93.341,195.523 94.426 C 195.591 94.598,196.625 95.493,197.821 96.416 C 200.410 98.414,199.973 98.581,205.600 93.434 C 207.690 91.523,211.727 88.393,214.572 86.479 C 221.468 81.841,223.170 79.817,221.200 78.600 C 220.980 78.464,220.800 77.654,220.800 76.800 C 220.800 75.946,220.620 75.136,220.400 75.000 C 220.180 74.864,220.000 74.223,220.000 73.576 C 220.000 72.929,219.820 72.400,219.600 72.400 C 219.380 72.400,219.200 71.871,219.200 71.224 C 219.200 70.577,219.020 69.936,218.800 69.800 C 218.580 69.664,218.400 69.113,218.400 68.576 C 218.400 68.039,218.220 67.600,218.000 67.600 C 217.780 67.600,217.600 67.328,217.600 66.995 C 217.600 66.662,217.392 65.987,217.138 65.495 C 216.167 63.618,216.000 63.193,216.000 62.605 C 216.000 62.272,215.820 62.000,215.600 62.000 C 215.380 62.000,215.200 61.640,215.200 61.200 C 215.200 60.760,215.020 60.400,214.800 60.400 C 214.580 60.400,214.400 60.130,214.400 59.800 C 214.400 59.470,214.220 59.200,214.000 59.200 C 213.780 59.200,213.600 58.840,213.600 58.400 C 213.600 57.960,213.420 57.600,213.200 57.600 C 212.980 57.600,212.800 57.240,212.800 56.800 C 212.800 56.360,212.620 56.000,212.400 56.000 C 212.180 56.000,212.000 55.680,212.000 55.288 C 212.000 54.897,211.640 54.317,211.200 54.000 C 210.760 53.683,210.400 53.103,210.400 52.712 C 210.400 52.320,210.264 52.000,210.098 52.000 C 209.931 52.000,209.555 51.457,209.261 50.793 C 208.967 50.129,207.933 48.427,206.963 47.011 C 205.994 45.594,205.200 44.275,205.200 44.080 C 205.200 43.884,204.840 43.398,204.400 43.000 C 203.960 42.602,203.600 42.106,203.600 41.898 C 203.600 41.691,203.060 41.017,202.400 40.400 C 201.740 39.783,201.200 39.119,201.200 38.924 C 201.200 38.728,200.480 37.772,199.600 36.800 C 198.720 35.828,198.000 34.888,198.000 34.712 C 198.000 34.537,197.460 33.828,196.800 33.137 C 196.140 32.446,195.600 31.710,195.600 31.501 C 195.600 31.292,195.060 30.617,194.400 30.000 C 193.740 29.383,193.200 28.773,193.200 28.643 C 193.200 28.324,191.765 26.645,189.700 24.548 C 188.765 23.598,188.000 22.676,188.000 22.499 C 188.000 22.180,187.215 21.322,178.076 11.653 C 165.276 -1.890,165.431 -1.808,161.147 2.653 " stroke="none" fill="#24a34b" fill-rule="evenodd"></path><path id="path2" d="M120.000 68.800 C 120.000 69.040,118.400 69.200,116.000 69.200 C 113.600 69.200,112.000 69.360,112.000 69.600 C 112.000 69.826,110.867 70.000,109.400 70.000 C 107.933 70.000,106.800 70.174,106.800 70.400 C 106.800 70.620,105.900 70.800,104.800 70.800 C 103.700 70.800,102.800 70.980,102.800 71.200 C 102.800 71.420,102.080 71.600,101.200 71.600 C 100.320 71.600,99.600 71.780,99.600 72.000 C 99.600 72.220,98.700 72.400,97.600 72.400 C 96.500 72.400,95.600 72.580,95.600 72.800 C 95.600 73.020,95.071 73.200,94.424 73.200 C 93.777 73.200,93.136 73.380,93.000 73.600 C 92.864 73.820,92.223 74.000,91.576 74.000 C 90.929 74.000,90.400 74.180,90.400 74.400 C 90.400 74.620,89.905 74.808,89.300 74.817 C 88.695 74.826,86.940 75.283,85.400 75.833 C 83.860 76.382,82.420 76.887,82.200 76.955 C 81.223 77.258,80.146 77.687,79.505 78.029 C 79.123 78.233,78.538 78.400,78.205 78.400 C 77.872 78.400,77.600 78.580,77.600 78.800 C 77.600 79.020,77.240 79.200,76.800 79.200 C 76.360 79.200,76.000 79.380,76.000 79.600 C 76.000 79.820,75.550 80.000,75.000 80.000 C 74.450 80.000,74.000 80.180,74.000 80.400 C 74.000 80.620,73.640 80.800,73.200 80.800 C 72.760 80.800,72.400 80.980,72.400 81.200 C 72.400 81.420,72.080 81.600,71.688 81.600 C 71.297 81.600,70.717 81.960,70.400 82.400 C 70.083 82.840,69.503 83.200,69.112 83.200 C 68.720 83.200,68.400 83.380,68.400 83.600 C 68.400 83.820,68.040 84.000,67.600 84.000 C 67.160 84.000,66.800 84.180,66.800 84.400 C 66.800 84.620,66.480 84.800,66.088 84.800 C 65.697 84.800,65.117 85.160,64.800 85.600 C 64.483 86.040,63.943 86.400,63.600 86.400 C 63.257 86.400,62.717 86.760,62.400 87.200 C 62.083 87.640,61.593 88.000,61.312 88.000 C 61.030 88.000,60.800 88.180,60.800 88.400 C 60.800 88.620,60.570 88.800,60.288 88.800 C 60.007 88.800,59.517 89.160,59.200 89.600 C 58.883 90.040,58.475 90.400,58.294 90.400 C 58.112 90.400,57.524 90.805,56.986 91.300 C 54.414 93.668,54.000 94.000,53.618 94.000 C 53.113 94.000,45.600 101.553,45.600 102.061 C 45.600 102.262,44.970 103.057,44.200 103.827 C 43.430 104.597,42.800 105.401,42.800 105.613 C 42.800 105.826,42.799 106.089,42.798 106.198 C 42.797 106.307,42.257 106.912,41.598 107.541 C 40.939 108.171,40.400 108.852,40.400 109.055 C 40.400 109.258,40.040 109.683,39.600 110.000 C 39.160 110.317,38.800 110.857,38.800 111.200 C 38.800 111.543,38.440 112.083,38.000 112.400 C 37.560 112.717,37.200 113.282,37.200 113.655 C 37.200 114.028,37.065 114.393,36.900 114.467 C 36.524 114.634,35.225 116.764,34.929 117.700 C 34.807 118.085,34.548 118.400,34.353 118.400 C 34.159 118.400,34.000 118.760,34.000 119.200 C 34.000 119.640,33.820 120.000,33.600 120.000 C 33.380 120.000,33.200 120.360,33.200 120.800 C 33.200 121.240,33.020 121.600,32.800 121.600 C 32.580 121.600,32.400 121.960,32.400 122.400 C 32.400 122.840,32.220 123.200,32.000 123.200 C 31.780 123.200,31.600 123.555,31.600 123.988 C 31.600 124.421,31.240 125.417,30.800 126.200 C 30.360 126.983,30.000 127.979,30.000 128.412 C 30.000 128.845,29.820 129.200,29.600 129.200 C 29.380 129.200,29.200 129.549,29.200 129.976 C 29.200 130.403,29.020 130.864,28.800 131.000 C 28.580 131.136,28.400 131.867,28.400 132.624 C 28.400 133.381,28.220 134.000,28.000 134.000 C 27.780 134.000,27.600 134.540,27.600 135.200 C 27.600 135.860,27.440 136.400,27.244 136.400 C 26.908 136.400,26.706 137.258,26.171 140.978 C 26.047 141.846,25.764 142.894,25.543 143.307 C 25.322 143.719,25.038 146.024,24.911 148.428 C 24.784 150.833,24.527 152.800,24.340 152.800 C 23.897 152.800,23.895 170.288,24.338 170.562 C 24.524 170.677,24.794 172.823,24.937 175.331 C 25.080 177.840,25.441 180.591,25.739 181.446 C 26.037 182.301,26.208 183.209,26.119 183.463 C 26.030 183.718,26.147 184.044,26.379 184.187 C 26.610 184.330,26.800 185.067,26.800 185.824 C 26.800 186.581,26.980 187.200,27.200 187.200 C 27.420 187.200,27.600 187.819,27.600 188.576 C 27.600 189.333,27.780 190.064,28.000 190.200 C 28.220 190.336,28.400 190.887,28.400 191.424 C 28.400 191.961,28.580 192.400,28.800 192.400 C 29.020 192.400,29.200 192.760,29.200 193.200 C 29.200 193.640,29.380 194.000,29.600 194.000 C 29.820 194.000,30.000 194.540,30.000 195.200 C 30.000 195.860,30.180 196.400,30.400 196.400 C 30.620 196.400,30.800 196.940,30.800 197.600 C 30.800 198.260,30.980 198.800,31.200 198.800 C 31.420 198.800,31.600 199.160,31.600 199.600 C 31.600 200.040,31.780 200.400,32.000 200.400 C 32.220 200.400,32.400 200.940,32.400 201.600 C 32.400 202.260,32.580 202.800,32.800 202.800 C 33.020 202.800,33.200 203.160,33.200 203.600 C 33.200 204.040,33.380 204.400,33.600 204.400 C 33.820 204.400,34.000 204.850,34.000 205.400 C 34.000 205.950,34.180 206.400,34.400 206.400 C 34.620 206.400,34.800 206.749,34.800 207.176 C 34.800 207.603,34.980 208.064,35.200 208.200 C 35.420 208.336,35.600 208.887,35.600 209.424 C 35.600 209.961,35.780 210.400,36.000 210.400 C 36.220 210.400,36.400 210.760,36.400 211.200 C 36.400 211.640,36.580 212.000,36.800 212.000 C 37.020 212.000,37.200 212.439,37.200 212.976 C 37.200 213.513,37.380 214.064,37.600 214.200 C 37.820 214.336,38.000 214.797,38.000 215.224 C 38.000 215.651,38.180 216.000,38.400 216.000 C 38.620 216.000,38.800 216.360,38.800 216.800 C 38.800 217.240,38.980 217.600,39.200 217.600 C 39.420 217.600,39.600 218.140,39.600 218.800 C 39.600 219.460,39.780 220.000,40.000 220.000 C 40.220 220.000,40.400 220.439,40.400 220.976 C 40.400 221.513,40.580 222.064,40.800 222.200 C 41.020 222.336,41.200 222.715,41.200 223.043 C 41.200 223.371,41.555 224.374,41.990 225.274 C 42.424 226.173,42.679 227.072,42.556 227.272 C 42.432 227.472,42.500 227.852,42.707 228.118 C 42.914 228.383,43.329 229.455,43.629 230.500 C 43.929 231.545,44.315 232.400,44.487 232.400 C 44.659 232.400,44.800 232.929,44.800 233.576 C 44.800 234.223,44.980 234.864,45.200 235.000 C 45.420 235.136,45.600 235.766,45.600 236.400 C 45.600 237.034,45.780 237.664,46.000 237.800 C 46.220 237.936,46.400 238.487,46.400 239.024 C 46.400 239.561,46.580 240.000,46.800 240.000 C 47.020 240.000,47.200 240.540,47.200 241.200 C 47.200 241.860,47.380 242.400,47.600 242.400 C 47.820 242.400,48.000 242.940,48.000 243.600 C 48.000 244.260,48.180 244.800,48.400 244.800 C 48.620 244.800,48.800 245.340,48.800 246.000 C 48.800 246.660,48.980 247.200,49.200 247.200 C 49.420 247.200,49.600 247.920,49.600 248.800 C 49.600 249.680,49.780 250.400,50.000 250.400 C 50.220 250.400,50.400 251.120,50.400 252.000 C 50.400 252.880,50.580 253.600,50.800 253.600 C 51.020 253.600,51.200 254.230,51.200 255.000 C 51.200 255.770,51.380 256.400,51.600 256.400 C 51.820 256.400,52.000 256.940,52.000 257.600 C 52.000 258.260,52.180 258.800,52.400 258.800 C 52.620 258.800,52.800 259.700,52.800 260.800 C 52.800 261.900,52.980 262.800,53.200 262.800 C 53.420 262.800,53.600 263.610,53.600 264.600 C 53.600 265.590,53.780 266.400,54.000 266.400 C 54.220 266.400,54.400 267.210,54.400 268.200 C 54.400 269.190,54.580 270.000,54.800 270.000 C 55.020 270.000,55.200 270.900,55.200 272.000 C 55.200 273.100,55.380 274.000,55.600 274.000 C 55.820 274.000,56.000 274.990,56.000 276.200 C 56.000 277.410,56.180 278.400,56.400 278.400 C 56.633 278.400,56.800 279.733,56.800 281.600 C 56.800 283.467,56.967 284.800,57.200 284.800 C 57.429 284.800,57.600 286.000,57.600 287.600 C 57.600 289.140,57.752 290.400,57.938 290.400 C 58.245 290.400,58.722 300.688,58.986 313.000 C 59.110 318.752,59.551 323.259,60.042 323.780 C 60.239 323.989,60.400 325.114,60.400 326.280 C 60.400 327.446,60.580 328.400,60.800 328.400 C 61.020 328.400,61.200 329.120,61.200 330.000 C 61.200 330.880,61.380 331.600,61.600 331.600 C 61.820 331.600,62.000 332.320,62.000 333.200 C 62.000 334.080,62.180 334.800,62.400 334.800 C 62.620 334.800,62.800 335.340,62.800 336.000 C 62.800 336.660,62.980 337.200,63.200 337.200 C 63.420 337.200,63.600 337.740,63.600 338.400 C 63.600 339.060,63.780 339.600,64.000 339.600 C 64.220 339.600,64.400 340.050,64.400 340.600 C 64.400 341.150,64.580 341.600,64.800 341.600 C 65.020 341.600,65.200 342.140,65.200 342.800 C 65.200 343.460,65.380 344.000,65.600 344.000 C 65.820 344.000,66.000 344.360,66.000 344.800 C 66.000 345.240,66.180 345.600,66.400 345.600 C 66.620 345.600,66.800 345.960,66.800 346.400 C 66.800 346.840,66.980 347.200,67.200 347.200 C 67.420 347.200,67.600 347.560,67.600 348.000 C 67.600 348.440,67.780 348.800,68.000 348.800 C 68.220 348.800,68.400 349.160,68.400 349.600 C 68.400 350.040,68.580 350.400,68.800 350.400 C 69.020 350.400,69.200 350.760,69.200 351.200 C 69.200 351.640,69.380 352.000,69.600 352.000 C 69.820 352.000,70.000 352.360,70.000 352.800 C 70.000 353.240,70.180 353.600,70.400 353.600 C 70.620 353.600,70.800 353.878,70.800 354.217 C 70.800 354.556,71.160 355.220,71.600 355.692 C 72.040 356.164,72.400 356.787,72.400 357.075 C 72.400 357.364,72.580 357.600,72.800 357.600 C 73.020 357.600,73.200 357.830,73.200 358.112 C 73.200 358.393,73.560 358.883,74.000 359.200 C 74.440 359.517,74.800 360.069,74.800 360.427 C 74.800 360.785,75.160 361.493,75.600 362.000 C 76.040 362.507,76.400 363.067,76.400 363.243 C 76.400 363.419,76.850 364.014,77.400 364.564 C 77.950 365.114,78.400 365.733,78.400 365.941 C 78.400 366.148,79.705 367.668,81.300 369.317 C 82.895 370.967,84.740 372.962,85.400 373.750 C 86.060 374.538,86.834 375.187,87.119 375.191 C 87.405 375.196,88.881 376.460,90.400 378.000 C 91.919 379.540,93.278 380.800,93.420 380.800 C 93.563 380.800,94.183 381.340,94.800 382.000 C 95.417 382.660,96.120 383.200,96.364 383.200 C 96.608 383.200,97.372 383.740,98.063 384.400 C 98.754 385.060,99.562 385.600,99.859 385.600 C 100.157 385.600,100.400 385.780,100.400 386.000 C 100.400 386.220,100.720 386.400,101.112 386.400 C 101.503 386.400,102.083 386.760,102.400 387.200 C 102.717 387.640,103.297 388.000,103.688 388.000 C 104.080 388.000,104.400 388.180,104.400 388.400 C 104.400 388.620,104.760 388.800,105.200 388.800 C 105.640 388.800,106.000 388.959,106.000 389.153 C 106.000 389.570,110.157 391.600,111.011 391.600 C 111.335 391.600,111.600 391.780,111.600 392.000 C 111.600 392.220,112.050 392.400,112.600 392.400 C 113.150 392.400,113.600 392.580,113.600 392.800 C 113.600 393.020,113.960 393.200,114.400 393.200 C 114.840 393.200,115.200 393.380,115.200 393.600 C 115.200 393.820,115.650 394.000,116.200 394.000 C 116.750 394.000,117.200 394.180,117.200 394.400 C 117.200 394.620,117.650 394.800,118.200 394.800 C 118.750 394.800,119.200 394.980,119.200 395.200 C 119.200 395.420,119.740 395.600,120.400 395.600 C 121.060 395.600,121.600 395.780,121.600 396.000 C 121.600 396.220,122.140 396.400,122.800 396.400 C 123.460 396.400,124.000 396.580,124.000 396.800 C 124.000 397.020,124.630 397.200,125.400 397.200 C 126.170 397.200,126.800 397.380,126.800 397.600 C 126.800 397.820,127.520 398.000,128.400 398.000 C 129.280 398.000,130.000 398.180,130.000 398.400 C 130.000 398.620,130.885 398.800,131.967 398.800 C 133.185 398.800,133.997 398.990,134.100 399.300 C 134.231 399.694,140.819 399.813,165.033 399.861 C 185.064 399.901,195.032 399.793,193.600 399.551 C 192.390 399.347,190.230 398.987,188.800 398.751 C 167.417 395.222,144.138 379.984,135.697 363.992 C 135.061 362.786,134.350 361.440,134.117 361.000 C 133.678 360.171,132.911 358.387,132.396 357.000 C 132.233 356.560,131.897 355.697,131.650 355.081 C 131.402 354.466,131.200 353.509,131.200 352.955 C 131.200 352.401,130.975 351.554,130.700 351.074 C 130.312 350.395,130.149 339.960,129.970 304.400 C 129.818 274.199,129.593 257.919,129.311 256.600 C 129.075 255.500,128.678 253.340,128.429 251.800 C 127.522 246.193,125.205 235.726,123.561 229.800 C 123.133 228.260,122.586 226.280,122.345 225.400 C 122.104 224.520,121.770 223.350,121.602 222.800 C 119.470 215.812,118.659 213.288,118.359 212.705 C 118.161 212.323,118.000 211.736,118.000 211.400 C 118.000 211.064,117.839 210.477,117.641 210.095 C 117.444 209.713,116.525 206.970,115.600 204.000 C 114.675 201.030,113.756 198.287,113.559 197.905 C 113.361 197.523,113.200 196.859,113.200 196.429 C 113.200 195.999,113.020 195.536,112.800 195.400 C 112.580 195.264,112.400 194.801,112.400 194.371 C 112.400 193.941,112.225 193.277,112.010 192.895 C 111.477 191.945,105.471 173.761,104.381 169.800 C 101.619 159.754,101.460 145.520,104.008 136.200 C 104.248 135.320,104.594 134.060,104.775 133.400 C 105.907 129.284,108.849 122.822,111.129 119.443 C 111.828 118.407,112.400 117.480,112.400 117.383 C 112.400 116.888,118.127 109.892,120.232 107.816 C 122.675 105.406,127.040 101.712,129.000 100.396 C 130.100 99.657,131.090 98.945,131.200 98.814 C 131.677 98.244,137.282 95.105,140.400 93.661 C 145.991 91.072,150.659 89.637,158.731 88.025 C 161.529 87.467,174.658 87.477,177.094 88.041 C 181.616 89.086,187.124 90.709,187.800 91.196 C 188.020 91.354,188.791 91.683,189.513 91.926 C 190.235 92.168,192.485 93.385,194.513 94.629 C 198.037 96.791,198.129 96.823,196.600 95.368 C 191.863 90.859,188.061 87.939,180.760 83.200 C 179.912 82.650,178.842 81.705,178.381 81.100 C 177.919 80.495,177.195 80.000,176.771 80.000 C 176.347 80.000,176.000 79.854,176.000 79.675 C 176.000 79.496,175.370 79.102,174.600 78.800 C 173.830 78.498,173.200 78.148,173.200 78.023 C 173.200 77.898,172.615 77.560,171.900 77.271 C 171.185 76.983,170.287 76.579,169.905 76.374 C 169.523 76.168,168.959 76.000,168.651 76.000 C 168.343 76.000,167.576 75.731,166.946 75.402 C 166.316 75.074,165.305 74.804,164.700 74.802 C 164.095 74.801,163.600 74.620,163.600 74.400 C 163.600 74.180,163.240 74.000,162.800 74.000 C 162.360 74.000,162.000 73.820,162.000 73.600 C 162.000 73.380,161.280 73.200,160.400 73.200 C 159.520 73.200,158.800 73.020,158.800 72.800 C 158.800 72.580,158.170 72.400,157.400 72.400 C 156.630 72.400,156.000 72.220,156.000 72.000 C 156.000 71.780,155.280 71.600,154.400 71.600 C 153.520 71.600,152.800 71.420,152.800 71.200 C 152.800 70.980,151.900 70.800,150.800 70.800 C 149.700 70.800,148.800 70.620,148.800 70.400 C 148.800 70.178,147.733 70.000,146.400 70.000 C 145.067 70.000,144.000 69.822,144.000 69.600 C 144.000 69.361,142.467 69.200,140.200 69.200 C 137.933 69.200,136.400 69.039,136.400 68.800 C 136.400 68.546,133.400 68.400,128.200 68.400 C 123.000 68.400,120.000 68.546,120.000 68.800 M263.600 68.800 C 263.600 69.039,262.067 69.200,259.800 69.200 C 257.533 69.200,256.000 69.361,256.000 69.600 C 256.000 69.822,254.933 70.000,253.600 70.000 C 252.267 70.000,251.200 70.178,251.200 70.400 C 251.200 70.620,250.300 70.800,249.200 70.800 C 248.100 70.800,247.200 70.980,247.200 71.200 C 247.200 71.420,246.480 71.600,245.600 71.600 C 244.720 71.600,244.000 71.780,244.000 72.000 C 244.000 72.220,243.370 72.400,242.600 72.400 C 241.830 72.400,241.200 72.580,241.200 72.800 C 241.200 73.020,240.480 73.200,239.600 73.200 C 238.720 73.200,238.000 73.380,238.000 73.600 C 238.000 73.820,237.640 74.000,237.200 74.000 C 236.760 74.000,236.400 74.180,236.400 74.400 C 236.400 74.620,235.905 74.801,235.300 74.802 C 234.695 74.804,233.684 75.074,233.054 75.402 C 232.424 75.731,231.657 76.000,231.349 76.000 C 231.041 76.000,230.477 76.168,230.095 76.374 C 229.713 76.579,228.815 76.983,228.100 77.271 C 227.385 77.560,226.800 77.898,226.800 78.023 C 226.800 78.148,226.170 78.498,225.400 78.800 C 224.630 79.102,224.000 79.496,224.000 79.675 C 224.000 79.854,223.716 80.000,223.369 80.000 C 223.021 80.000,222.067 80.675,221.248 81.500 C 220.428 82.325,217.419 84.568,214.560 86.484 C 210.101 89.473,201.146 97.130,204.000 95.513 C 204.550 95.202,206.104 94.284,207.452 93.473 C 208.801 92.663,210.034 92.000,210.192 92.000 C 210.350 92.000,211.046 91.745,211.740 91.433 C 214.030 90.403,218.300 89.105,222.906 88.041 C 225.215 87.507,238.980 87.453,241.323 87.969 C 242.245 88.172,244.440 88.651,246.200 89.033 C 253.142 90.540,266.436 96.277,268.800 98.788 C 268.910 98.904,269.900 99.618,271.000 100.374 C 283.527 108.981,293.534 123.738,296.379 137.800 C 296.646 139.120,297.068 141.010,297.316 142.000 C 299.378 150.229,297.464 165.240,292.471 180.000 C 291.391 183.190,289.296 189.490,287.814 194.000 C 286.332 198.510,284.958 202.513,284.760 202.895 C 284.562 203.277,284.400 203.864,284.400 204.200 C 284.400 204.536,284.242 205.123,284.049 205.505 C 283.856 205.887,283.484 206.920,283.223 207.800 C 282.961 208.680,282.598 209.760,282.416 210.200 C 281.187 213.164,276.024 230.979,274.591 237.200 C 274.211 238.850,273.731 240.920,273.525 241.800 C 272.994 244.066,271.889 249.973,271.168 254.400 C 270.290 259.788,270.044 270.672,269.992 306.400 C 269.939 342.693,269.793 348.607,268.849 352.800 C 268.063 356.285,267.901 356.814,267.552 357.030 C 267.359 357.149,267.200 357.531,267.200 357.878 C 267.200 363.452,254.305 378.331,242.641 386.216 C 234.141 391.963,221.292 397.085,211.200 398.751 C 209.770 398.987,207.610 399.347,206.400 399.551 C 204.968 399.793,214.936 399.901,234.967 399.861 C 259.181 399.813,265.769 399.694,265.900 399.300 C 266.003 398.990,266.815 398.800,268.033 398.800 C 269.115 398.800,270.000 398.620,270.000 398.400 C 270.000 398.180,270.720 398.000,271.600 398.000 C 272.480 398.000,273.200 397.820,273.200 397.600 C 273.200 397.380,273.830 397.200,274.600 397.200 C 275.370 397.200,276.000 397.020,276.000 396.800 C 276.000 396.580,276.540 396.400,277.200 396.400 C 277.860 396.400,278.400 396.220,278.400 396.000 C 278.400 395.780,278.940 395.600,279.600 395.600 C 280.260 395.600,280.800 395.420,280.800 395.200 C 280.800 394.980,281.250 394.800,281.800 394.800 C 282.350 394.800,282.800 394.620,282.800 394.400 C 282.800 394.180,283.250 394.000,283.800 394.000 C 284.350 394.000,284.800 393.820,284.800 393.600 C 284.800 393.380,285.160 393.200,285.600 393.200 C 286.040 393.200,286.400 393.020,286.400 392.800 C 286.400 392.580,286.850 392.400,287.400 392.400 C 287.950 392.400,288.400 392.220,288.400 392.000 C 288.400 391.780,288.697 391.600,289.060 391.600 C 289.953 391.600,294.000 389.595,294.000 389.153 C 294.000 388.959,294.360 388.800,294.800 388.800 C 295.240 388.800,295.600 388.620,295.600 388.400 C 295.600 388.180,295.920 388.000,296.312 388.000 C 296.703 388.000,297.283 387.640,297.600 387.200 C 297.917 386.760,298.497 386.400,298.888 386.400 C 299.280 386.400,299.600 386.220,299.600 386.000 C 299.600 385.780,299.843 385.600,300.141 385.600 C 300.438 385.600,301.246 385.060,301.937 384.400 C 302.628 383.740,303.392 383.200,303.636 383.200 C 303.880 383.200,304.583 382.660,305.200 382.000 C 305.817 381.340,306.519 380.800,306.760 380.800 C 307.002 380.800,307.200 380.620,307.200 380.400 C 307.200 380.180,307.470 380.000,307.800 380.000 C 308.130 380.000,308.400 379.832,308.400 379.627 C 308.400 379.049,312.281 375.201,312.874 375.191 C 313.163 375.187,313.940 374.538,314.600 373.750 C 315.260 372.962,317.105 370.967,318.700 369.317 C 320.295 367.668,321.600 366.148,321.600 365.941 C 321.600 365.733,322.050 365.114,322.600 364.564 C 323.150 364.014,323.600 363.419,323.600 363.243 C 323.600 363.067,323.960 362.507,324.400 362.000 C 324.840 361.493,325.200 360.785,325.200 360.427 C 325.200 360.069,325.560 359.517,326.000 359.200 C 326.440 358.883,326.800 358.393,326.800 358.112 C 326.800 357.830,326.980 357.600,327.200 357.600 C 327.420 357.600,327.600 357.364,327.600 357.075 C 327.600 356.787,327.960 356.164,328.400 355.692 C 328.840 355.220,329.200 354.556,329.200 354.217 C 329.200 353.878,329.380 353.600,329.600 353.600 C 329.820 353.600,330.000 353.240,330.000 352.800 C 330.000 352.360,330.180 352.000,330.400 352.000 C 330.620 352.000,330.800 351.640,330.800 351.200 C 330.800 350.760,330.980 350.400,331.200 350.400 C 331.420 350.400,331.600 350.040,331.600 349.600 C 331.600 349.160,331.780 348.800,332.000 348.800 C 332.220 348.800,332.400 348.440,332.400 348.000 C 332.400 347.560,332.580 347.200,332.800 347.200 C 333.020 347.200,333.200 346.840,333.200 346.400 C 333.200 345.960,333.380 345.600,333.600 345.600 C 333.820 345.600,334.000 345.240,334.000 344.800 C 334.000 344.360,334.180 344.000,334.400 344.000 C 334.620 344.000,334.800 343.460,334.800 342.800 C 334.800 342.140,334.980 341.600,335.200 341.600 C 335.420 341.600,335.600 341.150,335.600 340.600 C 335.600 340.050,335.780 339.600,336.000 339.600 C 336.220 339.600,336.400 339.060,336.400 338.400 C 336.400 337.740,336.580 337.200,336.800 337.200 C 337.020 337.200,337.200 336.660,337.200 336.000 C 337.200 335.340,337.380 334.800,337.600 334.800 C 337.820 334.800,338.000 334.080,338.000 333.200 C 338.000 332.320,338.180 331.600,338.400 331.600 C 338.620 331.600,338.800 330.880,338.800 330.000 C 338.800 329.120,338.980 328.400,339.200 328.400 C 339.420 328.400,339.600 327.446,339.600 326.280 C 339.600 325.114,339.764 323.989,339.965 323.780 C 340.549 323.171,340.796 319.491,341.253 304.600 C 341.490 296.900,341.844 290.540,342.042 290.467 C 342.239 290.393,342.400 289.088,342.400 287.567 C 342.400 285.989,342.572 284.800,342.800 284.800 C 343.033 284.800,343.200 283.467,343.200 281.600 C 343.200 279.733,343.367 278.400,343.600 278.400 C 343.820 278.400,344.000 277.410,344.000 276.200 C 344.000 274.990,344.180 274.000,344.400 274.000 C 344.620 274.000,344.800 273.100,344.800 272.000 C 344.800 270.900,344.980 270.000,345.200 270.000 C 345.420 270.000,345.600 269.190,345.600 268.200 C 345.600 267.210,345.780 266.400,346.000 266.400 C 346.220 266.400,346.400 265.590,346.400 264.600 C 346.400 263.610,346.580 262.800,346.800 262.800 C 347.020 262.800,347.200 261.900,347.200 260.800 C 347.200 259.700,347.380 258.800,347.600 258.800 C 347.820 258.800,348.000 258.260,348.000 257.600 C 348.000 256.940,348.180 256.400,348.400 256.400 C 348.620 256.400,348.800 255.770,348.800 255.000 C 348.800 254.230,348.980 253.600,349.200 253.600 C 349.420 253.600,349.600 252.880,349.600 252.000 C 349.600 251.120,349.780 250.400,350.000 250.400 C 350.220 250.400,350.400 249.680,350.400 248.800 C 350.400 247.920,350.580 247.200,350.800 247.200 C 351.020 247.200,351.200 246.660,351.200 246.000 C 351.200 245.340,351.380 244.800,351.600 244.800 C 351.820 244.800,352.000 244.260,352.000 243.600 C 352.000 242.940,352.180 242.400,352.400 242.400 C 352.620 242.400,352.800 241.860,352.800 241.200 C 352.800 240.540,352.980 240.000,353.200 240.000 C 353.420 240.000,353.600 239.561,353.600 239.024 C 353.600 238.487,353.780 237.936,354.000 237.800 C 354.220 237.664,354.400 237.034,354.400 236.400 C 354.400 235.766,354.580 235.136,354.800 235.000 C 355.020 234.864,355.200 234.223,355.200 233.576 C 355.200 232.929,355.347 232.400,355.528 232.400 C 355.708 232.400,356.104 231.489,356.407 230.375 C 356.710 229.261,357.103 228.260,357.279 228.151 C 357.456 228.042,357.600 227.513,357.600 226.976 C 357.600 226.439,357.760 226.000,357.955 226.000 C 358.150 226.000,358.430 225.194,358.578 224.209 C 358.725 223.224,359.016 222.314,359.223 222.186 C 359.430 222.058,359.600 221.513,359.600 220.976 C 359.600 220.439,359.780 220.000,360.000 220.000 C 360.220 220.000,360.400 219.460,360.400 218.800 C 360.400 218.140,360.580 217.600,360.800 217.600 C 361.020 217.600,361.200 217.240,361.200 216.800 C 361.200 216.360,361.380 216.000,361.600 216.000 C 361.820 216.000,362.000 215.651,362.000 215.224 C 362.000 214.797,362.180 214.336,362.400 214.200 C 362.620 214.064,362.800 213.513,362.800 212.976 C 362.800 212.439,362.980 212.000,363.200 212.000 C 363.420 212.000,363.600 211.640,363.600 211.200 C 363.600 210.760,363.780 210.400,364.000 210.400 C 364.220 210.400,364.400 209.950,364.400 209.400 C 364.400 208.850,364.580 208.400,364.800 208.400 C 365.020 208.400,365.200 207.950,365.200 207.400 C 365.200 206.850,365.380 206.400,365.600 206.400 C 365.820 206.400,366.000 205.950,366.000 205.400 C 366.000 204.850,366.180 204.400,366.400 204.400 C 366.620 204.400,366.800 204.040,366.800 203.600 C 366.800 203.160,366.980 202.800,367.200 202.800 C 367.420 202.800,367.600 202.260,367.600 201.600 C 367.600 200.940,367.780 200.400,368.000 200.400 C 368.220 200.400,368.400 200.040,368.400 199.600 C 368.400 199.160,368.580 198.800,368.800 198.800 C 369.020 198.800,369.200 198.260,369.200 197.600 C 369.200 196.940,369.380 196.400,369.600 196.400 C 369.820 196.400,370.000 195.860,370.000 195.200 C 370.000 194.540,370.180 194.000,370.400 194.000 C 370.620 194.000,370.800 193.640,370.800 193.200 C 370.800 192.760,370.980 192.400,371.200 192.400 C 371.420 192.400,371.600 191.961,371.600 191.424 C 371.600 190.887,371.780 190.336,372.000 190.200 C 372.220 190.064,372.400 189.333,372.400 188.576 C 372.400 187.819,372.580 187.200,372.800 187.200 C 373.020 187.200,373.200 186.581,373.200 185.824 C 373.200 185.067,373.360 184.348,373.556 184.227 C 374.137 183.868,375.148 177.074,375.179 173.324 C 375.191 171.962,375.380 170.736,375.600 170.600 C 376.093 170.295,376.153 152.800,375.661 152.800 C 375.475 152.800,375.210 150.710,375.073 148.156 C 374.937 145.602,374.659 143.307,374.457 143.056 C 374.255 142.805,373.987 141.880,373.860 141.000 C 373.354 137.473,373.097 136.400,372.756 136.400 C 372.560 136.400,372.400 135.871,372.400 135.224 C 372.400 134.577,372.220 133.936,372.000 133.800 C 371.780 133.664,371.600 133.034,371.600 132.400 C 371.600 131.766,371.420 131.136,371.200 131.000 C 370.980 130.864,370.800 130.403,370.800 129.976 C 370.800 129.549,370.620 129.200,370.400 129.200 C 370.180 129.200,370.000 128.845,370.000 128.412 C 370.000 127.979,369.640 126.983,369.200 126.200 C 368.760 125.417,368.400 124.421,368.400 123.988 C 368.400 123.555,368.220 123.200,368.000 123.200 C 367.780 123.200,367.600 122.840,367.600 122.400 C 367.600 121.960,367.420 121.600,367.200 121.600 C 366.980 121.600,366.800 121.240,366.800 120.800 C 366.800 120.360,366.620 120.000,366.400 120.000 C 366.180 120.000,366.000 119.655,366.000 119.233 C 366.000 118.812,365.865 118.407,365.700 118.333 C 365.324 118.166,364.025 116.036,363.729 115.100 C 363.607 114.715,363.348 114.400,363.153 114.400 C 362.959 114.400,362.800 114.080,362.800 113.688 C 362.800 113.297,362.440 112.717,362.000 112.400 C 361.560 112.083,361.200 111.543,361.200 111.200 C 361.200 110.857,360.840 110.317,360.400 110.000 C 359.960 109.683,359.600 109.276,359.600 109.095 C 359.600 108.914,359.417 108.549,359.193 108.283 C 357.645 106.448,357.200 105.838,357.200 105.552 C 357.200 105.373,356.570 104.597,355.800 103.827 C 355.030 103.057,354.400 102.262,354.400 102.061 C 354.400 101.550,346.886 94.000,346.378 94.000 C 346.150 94.000,345.536 93.595,345.012 93.100 C 344.489 92.605,343.462 91.710,342.731 91.112 C 341.999 90.513,340.860 89.569,340.200 89.012 C 339.540 88.456,338.815 88.001,338.588 88.000 C 338.362 88.000,337.917 87.640,337.600 87.200 C 337.283 86.760,336.743 86.400,336.400 86.400 C 336.057 86.400,335.517 86.040,335.200 85.600 C 334.883 85.160,334.303 84.800,333.912 84.800 C 333.520 84.800,333.200 84.620,333.200 84.400 C 333.200 84.180,332.840 84.000,332.400 84.000 C 331.960 84.000,331.600 83.820,331.600 83.600 C 331.600 83.380,331.280 83.200,330.888 83.200 C 330.497 83.200,329.917 82.840,329.600 82.400 C 329.283 81.960,328.703 81.600,328.312 81.600 C 327.920 81.600,327.600 81.420,327.600 81.200 C 327.600 80.980,327.240 80.800,326.800 80.800 C 326.360 80.800,326.000 80.620,326.000 80.400 C 326.000 80.180,325.550 80.000,325.000 80.000 C 324.450 80.000,324.000 79.820,324.000 79.600 C 324.000 79.380,323.640 79.200,323.200 79.200 C 322.760 79.200,322.400 79.020,322.400 78.800 C 322.400 78.580,322.128 78.400,321.795 78.400 C 321.462 78.400,320.877 78.233,320.495 78.029 C 319.854 77.687,318.777 77.258,317.800 76.955 C 317.580 76.887,316.140 76.382,314.600 75.833 C 313.060 75.283,311.305 74.826,310.700 74.817 C 310.095 74.808,309.600 74.620,309.600 74.400 C 309.600 74.180,309.071 74.000,308.424 74.000 C 307.777 74.000,307.136 73.820,307.000 73.600 C 306.864 73.380,306.223 73.200,305.576 73.200 C 304.929 73.200,304.400 73.020,304.400 72.800 C 304.400 72.580,303.500 72.400,302.400 72.400 C 301.300 72.400,300.400 72.220,300.400 72.000 C 300.400 71.780,299.680 71.600,298.800 71.600 C 297.920 71.600,297.200 71.420,297.200 71.200 C 297.200 70.980,296.300 70.800,295.200 70.800 C 294.100 70.800,293.200 70.620,293.200 70.400 C 293.200 70.174,292.067 70.000,290.600 70.000 C 289.133 70.000,288.000 69.826,288.000 69.600 C 288.000 69.360,286.400 69.200,284.000 69.200 C 281.600 69.200,280.000 69.040,280.000 68.800 C 280.000 68.546,277.000 68.400,271.800 68.400 C 266.600 68.400,263.600 68.546,263.600 68.800 " stroke="none" fill="#b42424" fill-rule="evenodd"></path><path id="path3" d="M259.780 170.227 C 257.862 171.475,256.944 173.298,254.964 179.800 C 254.159 182.440,253.164 185.665,252.751 186.966 C 252.338 188.267,252.000 189.575,252.000 189.871 C 252.000 190.168,251.838 190.723,251.639 191.105 C 251.440 191.487,251.056 192.610,250.785 193.600 C 249.856 196.990,249.497 198.201,249.149 199.119 C 248.957 199.624,248.800 200.469,248.800 200.995 C 248.800 201.522,248.620 202.064,248.400 202.200 C 248.180 202.336,248.000 203.056,248.000 203.800 C 248.000 204.544,247.820 205.264,247.600 205.400 C 247.380 205.536,247.200 206.166,247.200 206.800 C 247.200 207.434,247.020 208.064,246.800 208.200 C 246.580 208.336,246.400 208.966,246.400 209.600 C 246.400 210.234,246.220 210.864,246.000 211.000 C 245.780 211.136,245.600 211.856,245.600 212.600 C 245.600 213.344,245.420 214.064,245.200 214.200 C 244.980 214.336,244.800 215.067,244.800 215.824 C 244.800 216.581,244.620 217.200,244.400 217.200 C 244.180 217.200,244.000 217.819,244.000 218.576 C 244.000 219.333,243.820 220.064,243.600 220.200 C 243.380 220.336,243.200 220.950,243.200 221.564 C 243.200 222.178,242.998 223.261,242.750 223.971 C 242.417 224.926,242.417 225.377,242.750 225.710 C 242.998 225.958,243.200 226.502,243.200 226.920 C 243.200 227.337,243.780 228.221,244.489 228.883 C 247.906 232.075,252.949 231.345,254.747 227.400 C 255.047 226.740,255.452 225.887,255.647 225.505 C 255.841 225.123,256.000 224.369,256.000 223.829 C 256.000 223.289,256.180 222.736,256.400 222.600 C 256.620 222.464,256.800 221.744,256.800 221.000 C 256.800 220.256,256.980 219.536,257.200 219.400 C 257.420 219.264,257.600 218.634,257.600 218.000 C 257.600 217.366,257.780 216.736,258.000 216.600 C 258.220 216.464,258.400 215.744,258.400 215.000 C 258.400 214.256,258.580 213.536,258.800 213.400 C 259.020 213.264,259.200 212.634,259.200 212.000 C 259.200 211.366,259.360 210.748,259.556 210.627 C 259.751 210.506,260.021 209.776,260.156 209.004 C 260.290 208.232,260.510 206.968,260.644 206.196 C 260.779 205.424,261.049 204.694,261.244 204.573 C 261.440 204.452,261.600 203.922,261.600 203.395 C 261.600 202.869,261.764 202.024,261.965 201.519 C 262.166 201.013,262.806 198.800,263.389 196.600 C 263.971 194.400,264.595 192.150,264.775 191.600 C 264.955 191.050,265.683 188.710,266.393 186.400 C 267.102 184.090,267.844 181.887,268.041 181.505 C 268.239 181.123,268.400 180.459,268.400 180.029 C 268.400 179.599,268.580 179.136,268.800 179.000 C 269.742 178.418,269.261 172.934,268.152 171.616 C 265.926 168.971,262.569 168.414,259.780 170.227 M239.794 254.378 C 235.901 255.957,235.345 260.569,236.417 282.400 C 236.628 286.690,236.973 294.085,237.184 298.833 C 237.664 309.617,238.559 311.867,242.633 312.528 C 248.204 313.432,250.686 310.082,250.243 302.252 C 249.405 287.417,249.116 280.669,248.871 270.200 C 248.569 257.279,248.472 256.824,245.619 254.901 C 244.230 253.965,241.432 253.713,239.794 254.378 M239.695 338.014 C 237.876 338.745,236.437 340.652,235.413 343.689 C 233.976 347.948,230.100 353.968,227.763 355.569 C 227.034 356.068,225.923 356.955,225.293 357.539 C 223.976 358.758,222.440 359.733,220.300 360.706 C 219.475 361.082,218.800 361.526,218.800 361.694 C 218.800 361.862,218.361 362.000,217.824 362.000 C 217.287 362.000,216.736 362.180,216.600 362.400 C 216.464 362.620,215.913 362.800,215.376 362.800 C 214.839 362.800,214.400 362.960,214.400 363.156 C 214.400 363.352,213.815 363.612,213.100 363.734 C 212.385 363.856,210.900 364.157,209.800 364.404 C 208.700 364.650,206.000 365.006,203.800 365.194 C 198.156 365.678,197.366 365.907,195.565 367.587 C 193.276 369.722,193.190 374.390,195.400 376.600 C 196.387 377.587,200.607 378.969,201.298 378.532 C 201.574 378.357,203.600 378.084,205.800 377.925 C 210.935 377.555,213.304 377.208,213.780 376.759 C 213.989 376.562,214.756 376.400,215.485 376.400 C 216.214 376.400,217.168 376.220,217.605 376.000 C 218.042 375.780,218.758 375.420,219.195 375.200 C 219.632 374.980,220.352 374.800,220.795 374.800 C 221.238 374.800,221.600 374.620,221.600 374.400 C 221.600 374.180,221.955 374.000,222.388 374.000 C 222.821 374.000,223.856 373.622,224.688 373.160 C 225.520 372.698,226.920 371.933,227.800 371.460 C 228.680 370.987,229.490 370.510,229.600 370.400 C 229.710 370.290,230.272 369.930,230.848 369.600 C 233.326 368.182,238.711 363.211,240.800 360.413 C 241.350 359.676,242.025 358.845,242.300 358.565 C 242.575 358.286,242.800 357.964,242.800 357.850 C 242.800 357.736,243.471 356.508,244.291 355.121 C 246.901 350.707,248.614 345.231,248.208 342.600 C 247.642 338.932,243.271 336.578,239.695 338.014 " stroke="none" fill="#ec5c5b" fill-rule="evenodd"></path><path id="path4" d="M260.903 168.832 C 257.614 169.820,256.275 172.643,251.525 188.600 C 249.376 195.818,249.113 196.767,246.260 207.600 C 245.710 209.690,244.959 212.480,244.591 213.800 C 244.223 215.120,243.778 216.830,243.600 217.600 C 243.422 218.370,242.990 220.044,242.639 221.320 C 241.780 224.436,241.842 225.899,242.913 227.788 C 246.384 233.917,255.227 232.098,256.495 224.995 C 256.612 224.338,257.089 222.405,257.554 220.700 C 258.525 217.143,259.547 213.289,261.201 206.944 C 261.840 204.494,263.020 200.264,263.824 197.544 C 264.627 194.825,265.423 192.060,265.593 191.400 C 265.764 190.740,266.529 188.310,267.295 186.000 C 270.921 175.061,270.982 174.410,268.699 171.094 C 267.309 169.075,263.637 168.010,260.903 168.832 M265.972 169.786 C 268.702 171.197,270.731 177.807,268.800 179.000 C 268.580 179.136,268.400 179.599,268.400 180.029 C 268.400 180.459,268.239 181.123,268.041 181.505 C 267.844 181.887,267.102 184.090,266.393 186.400 C 265.683 188.710,264.955 191.050,264.775 191.600 C 264.595 192.150,263.971 194.400,263.389 196.600 C 262.806 198.800,262.166 201.013,261.965 201.519 C 261.764 202.024,261.600 202.869,261.600 203.395 C 261.600 203.922,261.440 204.452,261.244 204.573 C 261.049 204.694,260.779 205.424,260.644 206.196 C 260.510 206.968,260.290 208.232,260.156 209.004 C 260.021 209.776,259.751 210.506,259.556 210.627 C 259.360 210.748,259.200 211.366,259.200 212.000 C 259.200 212.634,259.020 213.264,258.800 213.400 C 258.580 213.536,258.400 214.256,258.400 215.000 C 258.400 215.744,258.220 216.464,258.000 216.600 C 257.780 216.736,257.600 217.366,257.600 218.000 C 257.600 218.634,257.420 219.264,257.200 219.400 C 256.980 219.536,256.800 220.256,256.800 221.000 C 256.800 221.744,256.620 222.464,256.400 222.600 C 256.180 222.736,256.000 223.289,256.000 223.829 C 256.000 224.369,255.841 225.123,255.647 225.505 C 255.452 225.887,255.047 226.740,254.747 227.400 C 252.949 231.345,247.906 232.075,244.489 228.883 C 243.780 228.221,243.200 227.337,243.200 226.920 C 243.200 226.502,242.998 225.958,242.750 225.710 C 242.417 225.377,242.417 224.926,242.750 223.971 C 242.998 223.261,243.200 222.178,243.200 221.564 C 243.200 220.950,243.380 220.336,243.600 220.200 C 243.820 220.064,244.000 219.333,244.000 218.576 C 244.000 217.819,244.180 217.200,244.400 217.200 C 244.620 217.200,244.800 216.581,244.800 215.824 C 244.800 215.067,244.980 214.336,245.200 214.200 C 245.420 214.064,245.600 213.344,245.600 212.600 C 245.600 211.856,245.780 211.136,246.000 211.000 C 246.220 210.864,246.400 210.234,246.400 209.600 C 246.400 208.966,246.580 208.336,246.800 208.200 C 247.020 208.064,247.200 207.434,247.200 206.800 C 247.200 206.166,247.380 205.536,247.600 205.400 C 247.820 205.264,248.000 204.544,248.000 203.800 C 248.000 203.056,248.180 202.336,248.400 202.200 C 248.620 202.064,248.800 201.522,248.800 200.995 C 248.800 200.469,248.957 199.624,249.149 199.119 C 249.497 198.201,249.856 196.990,250.785 193.600 C 251.056 192.610,251.440 191.487,251.639 191.105 C 251.838 190.723,252.000 190.168,252.000 189.871 C 252.000 189.575,252.338 188.267,252.751 186.966 C 253.164 185.665,254.159 182.440,254.964 179.800 C 257.898 170.167,261.092 167.262,265.972 169.786 M239.326 253.955 C 235.218 255.875,234.471 261.233,235.553 281.000 C 235.794 285.400,236.179 292.870,236.408 297.600 C 237.053 310.870,238.187 313.200,244.006 313.200 C 250.627 313.200,251.721 309.355,250.381 290.800 C 250.150 287.610,249.822 279.060,249.651 271.800 C 249.360 259.418,249.288 258.497,248.483 256.940 C 246.826 253.735,242.685 252.385,239.326 253.955 M245.619 254.901 C 248.472 256.824,248.569 257.279,248.871 270.200 C 249.116 280.669,249.405 287.417,250.243 302.252 C 250.686 310.082,248.204 313.432,242.633 312.528 C 238.559 311.867,237.664 309.617,237.184 298.833 C 236.973 294.085,236.628 286.690,236.417 282.400 C 235.980 273.489,235.892 260.906,236.252 258.727 C 236.900 254.809,242.244 252.627,245.619 254.901 M239.509 337.349 C 237.669 338.165,236.093 339.992,235.198 342.350 C 234.284 344.756,232.943 347.609,231.508 350.200 C 229.462 353.893,219.489 361.600,216.756 361.600 C 216.428 361.600,215.989 361.749,215.780 361.930 C 214.704 362.866,205.117 364.778,201.233 364.830 C 193.823 364.931,190.137 372.378,195.224 376.974 C 200.078 381.360,218.476 378.090,230.331 370.734 C 241.325 363.913,251.307 347.817,248.585 341.302 C 247.047 337.621,242.934 335.830,239.509 337.349 M245.161 338.433 C 249.483 341.067,249.181 346.850,244.291 355.121 C 243.471 356.508,242.800 357.736,242.800 357.850 C 242.800 357.964,242.575 358.286,242.300 358.565 C 242.025 358.845,241.350 359.676,240.800 360.413 C 238.711 363.211,233.326 368.182,230.848 369.600 C 230.272 369.930,229.710 370.290,229.600 370.400 C 229.490 370.510,228.680 370.987,227.800 371.460 C 226.920 371.933,225.520 372.698,224.688 373.160 C 223.856 373.622,222.821 374.000,222.388 374.000 C 221.955 374.000,221.600 374.180,221.600 374.400 C 221.600 374.620,221.238 374.800,220.795 374.800 C 220.352 374.800,219.632 374.980,219.195 375.200 C 218.758 375.420,218.042 375.780,217.605 376.000 C 217.168 376.220,216.214 376.400,215.485 376.400 C 214.756 376.400,213.989 376.562,213.780 376.759 C 213.304 377.208,210.935 377.555,205.800 377.925 C 203.600 378.084,201.574 378.357,201.298 378.532 C 200.607 378.969,196.387 377.587,195.400 376.600 C 193.190 374.390,193.276 369.722,195.565 367.587 C 197.366 365.907,198.156 365.678,203.800 365.194 C 206.000 365.006,208.700 364.650,209.800 364.404 C 210.900 364.157,212.385 363.856,213.100 363.734 C 213.815 363.612,214.400 363.352,214.400 363.156 C 214.400 362.960,214.839 362.800,215.376 362.800 C 215.913 362.800,216.464 362.620,216.600 362.400 C 216.736 362.180,217.287 362.000,217.824 362.000 C 218.361 362.000,218.800 361.862,218.800 361.694 C 218.800 361.526,219.475 361.082,220.300 360.706 C 222.440 359.733,223.976 358.758,225.293 357.539 C 225.923 356.955,227.034 356.068,227.763 355.569 C 230.100 353.968,233.976 347.948,235.413 343.689 C 237.242 338.267,241.300 336.079,245.161 338.433 " stroke="none" fill="#eb5150" fill-rule="evenodd"></path></g></svg>