<svg id="Layer_1" enable-background="new 0 0 512 512" height="512" viewBox="0 0 512 512" width="512" xmlns="http://www.w3.org/2000/svg"><g><g><g><path d="m364.334 81.933c-14.309-9.835-29.987-19.119-47.112-27.661-17.368-8.664-34.414-15.687-51.038-21.254-27.505 81.663-12.11 148.966-12.11 148.966s59.924-26.776 110.26-100.051z" fill="#cf7a15"/><path d="m462.379 190.017c.298-.242.609-.452.92-.661-7.442-13.798-16.535-27.692-27.398-41.354l-35.293 71.379c25.211-4.044 46.363-16.841 61.771-29.364z" fill="#cf7a15"/><path d="m481.537 194.496c-3.418-7.197-12.955-9.519-19.158-4.478-15.409 12.523-36.56 25.32-61.772 29.364l35.293-71.379c4.161-5.606 6.65-14.52 1.556-20.385-15.18-17.476-33.199-34.374-54.305-50.054-6.793-5.046-14.492-1.927-18.818 4.37-50.335 73.275-110.26 100.05-110.26 100.05s-15.396-67.303 12.11-148.966c2.438-7.24.202-15.316-7.867-17.694-3.097-.913-38.417-15.383-55.682-2.513-16.742 12.48-40.087 38.509-65.726 92.076-25.793 53.887-33.651 97.78-30.577 112.06 5.002 23.239 70.595 53.177 97.52 66.608 140.702 70.187 267.127 102.082 290.812 54.181 15.577-31.503 13.965-86.202-13.126-143.24z" fill="#a1550a"/><g fill="#914c09"><path d="m481.537 194.496c-3.418-7.197-12.955-9.519-19.158-4.478-5.143 4.18-10.94 8.383-17.301 12.289 23.643 54.182 24.449 105.368 9.586 135.427-5.851 11.833-17.98 18.789-35.036 21.509 38.249 4.367 65.31-1.838 75.036-21.509 15.576-31.501 13.964-86.2-13.127-143.238z"/><path d="m397.456 127.617c5.095 5.865 2.605 14.779-1.556 20.385l-35.293 71.379c6.476 2.622 24.976 4.122 40 0l35.294-71.379c4.161-5.606 6.65-14.52 1.556-20.385-15.18-17.476-33.199-34.374-54.305-50.054-6.793-5.046-14.492-1.927-18.818 4.37-1.852 2.696-3.718 5.321-5.592 7.891 14.544 12.102 27.417 24.787 38.714 37.793z"/><path d="m218.316 15.323c8.069 2.378 10.305 10.455 7.867 17.694-18.786 55.777-17.559 104.855-14.894 130.364 2.103 20.126 25.053 31.038 41.632 19.436.383-.268.767-.546 1.152-.834-7.99-33.48-5.66-96.208 12.11-148.966 2.438-7.24.202-15.316-7.867-17.694-2.944-.868-35.008-13.974-52.997-4.201 6.85 1.892 11.911 3.881 12.997 4.201z"/></g></g><g><g><path d="m117.187 368.109-31.877-74.307c-11.83 13.064-21.839 26.47-30.175 39.88.302.231.604.464.89.728 14.786 13.642 35.603 28.135 61.162 33.699z" fill="#cf7a15"/><path d="m142.497 226.729c-15.461 10.431-49.052 38.124-57.511 46.69-3.562 3.607-4.55 9.02-2.56 13.658l2.885 6.724 31.877 74.307c-25.559-5.564-46.376-20.056-61.162-33.699-.286-.264-.588-.497-.89-.728-5.979-4.577-14.835-2.762-18.577 4.015-30.964 56.083-35.409 111.398-21.375 144.113 15.701 36.599 128.884 25.734 235.847-9.826-1.414-2.375-106.888-241.184-108.534-245.254z" fill="#a1550a"/></g><path d="m230.824 466.518c-13.565-7.497-41.46-33.749-71.251-103.193-24.922-58.095-28.665-93.572-27.508-115.818 1.199-23.052 26.466-47.731 74.81 17.275 71.805 96.553 84.414 235.153 23.949 201.736z" fill="#cf7a15"/><path d="m206.875 264.782c-37.355-50.23-60.927-46.909-70.269-32.17 8.805 6.555 18.898 16.881 30.269 32.17 53.151 71.469 73.865 165.972 56.519 196.7 2.799 2.207 5.293 3.855 7.43 5.036 60.465 33.417 47.856-105.183-23.949-201.736z" fill="#c4710e"/></g></g><path d="m504.768 288.479c-4.133-.2-7.655 2.989-7.856 7.126-.731 14.998-3.833 28.417-8.97 38.805-18.084 36.573-121.004 18.22-256.195-45.647-5.888-9.961-12.2-19.511-18.852-28.456-17.725-23.833-43.813-50.746-67.454-43.594-7.465 2.258-14.06 8.635-20.154 13.289-8.923-7.607-11.135-12.375-11.622-14.634-2.667-12.392 5.026-55.046 30.01-107.244 25.836-53.978 48.761-78.355 63.443-89.3 4.661-3.476 16.977-7.705 47.083 3.013 4.114 1.464 6.739 3.254 4.876 8.787-27.86 82.717-12.961 150.2-12.313 153.032 1.629 7.122 8.04 6.355 12.539 4.149 45.04-22.083 83.11-60.714 111.214-101.625 2.226-3.637 4.947-4.503 8.163-2.596 19.822 14.726 37.692 31.196 53.115 48.952 3.314 3.815-1.009 8.892-2.617 12.143l-35.293 71.379c-2.997 6.061 2.516 11.601 7.911 10.729 24.183-3.879 46.442-15.613 65.307-30.943 2.418-1.867 6.276-1.046 7.66 1.87 8.599 18.104 14.829 36.498 18.517 54.671 1.894 9.332 16.641 6.583 14.7-2.983-3.93-19.365-10.547-38.921-19.667-58.123-3.811-8.024-12.784-12.667-21.582-11.188-6.381-11.177-13.685-22.124-21.778-32.667 3.702-7.745 4.443-17.499-1.833-24.725-16.133-18.573-34.804-35.785-55.494-51.156-7.476-5.555-17.212-4.995-24.341.639-13.429-8.896-27.768-17.165-42.715-24.621-15.174-7.57-30.614-14.139-45.982-19.576.21-10.058-6.319-17.064-15.356-20.279-27.978-9.96-48.527-10.265-61.079-.908-29.053 21.658-53.02 63.534-68.009 94.851-15.003 31.345-22.763 56.632-26.63 72.326-4.854 19.697-6.458 35.519-4.514 44.55 1.426 6.623 6.117 13.495 14.264 20.883-13.929 11.131-28.221 23.281-33.614 28.742-6.399 6.48-6.897 16.343-3.107 24.239-8.913 10.169-17.049 20.831-24.253 31.82-8.781-2.106-17.986 2.055-22.297 9.863-29.518 53.465-38.036 112.616-21.702 150.694 7.694 17.933 32.818 27.234 73.094 27.234 5.68 0 11.667-.186 17.943-.558 43.918-2.604 100.074-14.392 154.069-32.342.991-.33 1.867-.847 2.602-1.498 4.663-1.713 8.003-4.595 10.183-7.09 12.762-14.607 14.237-46.866 4.046-88.506-5.807-23.726-14.943-48.116-26.46-71.157 60.103 27.182 114.022 45.477 156.877 53.165 15.244 2.735 28.874 4.1 40.873 4.1 30.889 0 50.963-9.045 59.868-27.056 6.042-12.219 9.675-27.684 10.506-44.723.203-4.137-2.987-7.654-7.124-7.856zm-51.154-101.114c-11.834 9.028-24.984 16.49-39.205 21.024l22.855-46.222c5.982 8.203 11.452 16.633 16.35 25.198zm-186.933-129.439c1.297-5.139 2.734-10.245 4.297-15.309 29.05 10.41 57.009 24.322 82.803 41.262-24.893 34.525-56.849 65.542-94.037 86.661-2.554-18.523-5.939-61.474 6.937-112.614zm-183.55 249.821 20.856 48.617c-14.369-5.47-27.522-13.974-39.068-24.068 5.52-8.406 11.613-16.619 18.212-24.549zm172.528 77.825c10.469 42.776 6.127 67.174-.772 75.07-1.546 1.768-6.25 7.15-20.435-.688-3.738-2.065-13.927-8.841-27.781-27.109-5.86-7.727-17.812 1.337-11.952 9.064 13.7 18.065 24.694 26.493 30.833 30.219-45.357 13.449-90.649 22.18-127.111 24.341-60.561 3.593-73.579-11.124-76.364-17.617-11.07-25.805-12.201-77.308 21.048-137.53 1.418-2.568 5.608-3.368 7.815-1.399 8.83 8.146 17.96 15.016 27.34 20.581 12.06 7.155 24.534 12.152 37.312 14.934 5.335 1.158 11.163-4.05 8.488-10.286l-31.877-74.307c-1.402-3.037-5.144-8.85-1.88-12.156 4.876-4.938 19.866-17.685 34.15-29.044-1.082 31.703 8.157 69.895 28.209 116.638 6.458 15.055 13.23 29.01 20.127 41.476 4.695 8.484 17.82 1.224 13.125-7.262-6.656-12.03-13.205-25.531-19.467-40.127-19.661-45.832-28.463-82.622-26.91-112.472.331-6.366 3.527-14.801 10.228-16.827 17.171-5.195 43.435 27.916 51.074 38.188 24.943 33.541 44.917 75.936 54.8 116.313z"/></g></svg>