<svg id="svg" version="1.1" xmlns="http://www.w3.org/2000/svg" xmlns:xlink="http://www.w3.org/1999/xlink" width="400" height="400" viewBox="0, 0, 400,400"><g id="svgg"><path id="path0" d="M272.918 191.300 C 271.607 194.130,270.803 195.961,266.990 204.800 C 265.519 208.210,263.955 211.810,263.515 212.800 C 263.076 213.790,262.446 215.230,262.116 216.000 C 261.787 216.770,261.176 218.165,260.758 219.100 C 260.341 220.035,259.620 221.655,259.156 222.700 C 258.692 223.745,258.152 224.913,257.956 225.295 C 257.760 225.677,257.600 226.262,257.600 226.595 C 257.600 226.928,257.420 227.200,257.200 227.200 C 256.980 227.200,256.800 227.442,256.800 227.739 C 256.800 228.035,256.547 228.800,256.238 229.439 C 255.929 230.077,255.320 231.410,254.884 232.400 C 254.448 233.390,253.732 235.010,253.293 236.000 C 252.853 236.990,251.920 239.150,251.219 240.800 C 250.517 242.450,249.416 244.933,248.772 246.318 C 248.127 247.703,247.600 248.991,247.600 249.180 C 247.600 249.369,247.261 250.216,246.847 251.062 C 246.433 251.908,245.694 253.500,245.204 254.600 C 244.713 255.700,244.152 256.913,243.956 257.295 C 243.760 257.677,243.600 258.262,243.600 258.595 C 243.600 258.928,243.420 259.200,243.200 259.200 C 242.980 259.200,242.800 259.442,242.800 259.739 C 242.800 260.035,242.550 260.800,242.244 261.439 C 241.938 262.077,241.379 263.320,241.002 264.200 C 240.625 265.080,239.979 266.520,239.566 267.400 C 239.153 268.280,237.840 271.250,236.649 274.000 C 234.820 278.221,233.667 280.875,230.830 287.400 C 230.638 287.840,230.212 288.830,229.883 289.600 C 229.554 290.370,228.886 291.900,228.400 293.000 C 227.914 294.100,227.243 295.630,226.910 296.400 C 221.101 309.830,213.928 311.605,211.959 300.100 C 211.762 298.945,211.420 297.010,211.200 295.800 C 210.980 294.590,210.632 292.655,210.428 291.500 C 210.223 290.345,209.928 288.887,209.773 288.260 C 209.567 287.424,209.791 286.463,210.613 284.660 C 211.230 283.307,212.267 281.030,212.917 279.600 C 213.567 278.170,214.437 276.308,214.850 275.462 C 215.262 274.616,215.600 273.671,215.600 273.362 C 215.600 273.053,215.780 272.800,216.000 272.800 C 216.220 272.800,216.400 272.548,216.400 272.241 C 216.400 271.933,216.947 270.641,217.616 269.370 C 218.775 267.167,218.912 266.000,218.013 266.000 C 217.786 266.000,217.600 266.253,217.600 266.562 C 217.600 266.871,217.255 267.816,216.833 268.662 C 216.411 269.508,215.623 271.137,215.081 272.282 C 214.540 273.427,213.956 274.237,213.784 274.082 C 213.612 273.927,213.585 273.998,213.723 274.241 C 213.861 274.484,213.716 275.024,213.400 275.441 C 213.084 275.858,212.820 276.616,212.813 277.124 C 212.805 277.695,212.631 277.943,212.357 277.774 C 212.059 277.589,212.003 277.778,212.184 278.350 C 212.388 278.994,212.286 279.200,211.760 279.200 C 211.379 279.200,211.171 279.305,211.299 279.433 C 211.596 279.730,210.513 282.344,209.796 283.061 C 209.044 283.813,208.942 283.506,208.576 279.400 C 208.400 277.420,208.228 275.710,208.193 275.600 C 208.159 275.490,208.016 275.130,207.875 274.800 C 207.734 274.470,207.543 273.390,207.451 272.400 C 207.359 271.410,207.182 270.330,207.059 270.000 C 206.937 269.670,206.736 268.590,206.614 267.600 C 206.198 264.230,205.769 261.797,205.520 261.395 C 205.384 261.174,205.222 260.095,205.160 258.997 C 205.098 257.899,204.913 256.906,204.748 256.791 C 204.583 256.676,204.404 255.632,204.351 254.470 C 204.298 253.308,204.108 252.267,203.928 252.155 C 203.747 252.044,203.600 251.164,203.600 250.200 C 203.600 249.236,203.420 248.336,203.200 248.200 C 202.980 248.064,202.800 247.074,202.800 246.000 C 202.800 244.926,202.620 243.936,202.400 243.800 C 202.180 243.664,202.000 242.573,202.000 241.376 C 202.000 240.179,201.837 239.200,201.637 239.200 C 201.437 239.200,201.178 238.255,201.061 237.100 C 200.944 235.945,200.649 233.920,200.405 232.600 C 200.162 231.280,199.863 229.390,199.742 228.400 C 199.621 227.410,199.360 226.429,199.161 226.220 C 198.963 226.011,198.800 225.308,198.800 224.659 C 198.800 224.009,198.374 222.560,197.853 221.439 C 197.333 220.317,196.771 218.500,196.605 217.400 C 196.211 214.782,195.694 211.706,195.211 209.100 C 194.997 207.945,194.709 206.341,194.571 205.536 C 194.332 204.139,194.235 204.062,192.460 203.851 C 188.678 203.403,187.189 203.107,186.974 202.758 C 186.852 202.561,186.371 202.400,185.905 202.400 C 185.101 202.400,183.155 201.869,181.400 201.171 C 179.482 200.408,175.703 199.200,175.234 199.200 C 174.684 199.200,174.747 201.263,175.595 211.000 C 175.824 213.640,176.190 217.915,176.406 220.500 C 176.623 223.085,176.977 227.315,177.194 229.900 C 177.410 232.485,177.763 236.670,177.979 239.200 C 178.194 241.730,178.560 246.050,178.792 248.800 C 179.868 261.555,179.769 266.186,178.361 268.895 C 178.162 269.277,178.000 269.862,178.000 270.195 C 178.000 270.528,177.820 270.800,177.600 270.800 C 177.380 270.800,177.200 271.035,177.200 271.322 C 177.200 272.579,172.731 276.400,171.262 276.400 C 170.814 276.400,170.336 276.580,170.200 276.800 C 169.623 277.733,166.003 277.261,165.600 276.200 C 165.184 275.105,164.400 274.844,164.400 275.800 C 164.400 276.130,164.220 276.400,164.000 276.400 C 163.780 276.400,163.600 276.670,163.600 277.000 C 163.600 277.330,163.420 277.600,163.200 277.600 C 162.980 277.600,162.800 277.794,162.800 278.031 C 162.800 278.861,159.552 281.600,158.567 281.600 C 158.035 281.600,157.600 281.780,157.600 282.000 C 157.600 282.229,156.392 282.400,154.776 282.400 C 152.996 282.400,152.044 282.252,152.200 282.000 C 152.340 281.773,152.004 281.600,151.424 281.600 C 150.861 281.600,150.400 281.420,150.400 281.200 C 150.400 280.980,150.146 280.800,149.836 280.800 C 149.089 280.800,144.000 276.042,144.000 275.344 C 144.000 275.045,143.865 274.799,143.700 274.797 C 143.386 274.794,142.400 272.894,142.400 272.292 C 142.400 272.100,142.128 271.671,141.796 271.339 C 141.464 271.007,141.295 270.570,141.420 270.368 C 141.545 270.165,141.469 270.000,141.251 270.000 C 141.032 270.000,140.716 269.595,140.547 269.100 C 140.378 268.605,140.206 268.110,140.166 268.000 C 140.125 267.890,139.961 267.395,139.800 266.900 C 139.638 266.405,139.348 266.000,139.153 266.000 C 138.959 266.000,138.800 265.640,138.800 265.200 C 138.800 264.760,138.620 264.400,138.400 264.400 C 138.180 264.400,138.000 264.040,138.000 263.600 C 138.000 263.160,137.820 262.800,137.600 262.800 C 137.380 262.800,137.200 262.440,137.200 262.000 C 137.200 261.560,137.054 261.200,136.875 261.200 C 136.696 261.200,136.302 260.570,136.000 259.800 C 135.698 259.030,135.304 258.400,135.125 258.400 C 134.946 258.400,134.800 258.055,134.800 257.633 C 134.800 257.212,134.665 256.807,134.500 256.733 C 134.068 256.541,132.400 253.228,132.400 252.562 C 132.400 252.253,132.220 252.000,132.000 252.000 C 131.780 252.000,131.600 251.610,131.600 251.133 C 131.600 250.657,131.483 250.384,131.339 250.527 C 131.035 250.831,130.000 248.979,130.000 248.131 C 130.000 247.813,129.820 247.664,129.600 247.800 C 129.380 247.936,129.200 247.784,129.200 247.461 C 129.200 246.778,127.540 243.462,127.100 243.267 C 126.935 243.193,126.800 242.878,126.800 242.567 C 126.800 242.255,126.620 242.000,126.400 242.000 C 126.180 242.000,126.000 241.640,126.000 241.200 C 126.000 240.760,125.843 240.400,125.650 240.400 C 125.458 240.400,125.185 239.827,125.045 239.126 C 124.905 238.426,124.535 237.571,124.224 237.226 C 123.912 236.882,123.642 236.466,123.623 236.303 C 123.566 235.802,122.218 233.013,121.925 232.792 C 121.774 232.678,121.275 231.778,120.816 230.792 C 119.913 228.852,118.644 226.390,117.727 224.800 C 117.410 224.250,117.051 223.485,116.929 223.100 C 116.807 222.715,116.548 222.400,116.353 222.400 C 116.159 222.400,116.000 222.040,116.000 221.600 C 116.000 221.160,115.820 220.800,115.600 220.800 C 115.380 220.800,115.200 220.440,115.200 220.000 C 115.200 219.560,115.020 219.200,114.800 219.200 C 114.580 219.200,114.400 218.840,114.400 218.400 C 114.400 217.960,114.265 217.599,114.100 217.597 C 113.796 217.594,112.800 215.702,112.800 215.127 C 112.800 214.955,112.022 214.002,111.072 213.010 C 109.939 211.828,108.198 208.963,106.023 204.703 C 101.900 196.627,102.618 197.360,98.501 197.026 C 92.146 196.510,86.876 195.167,81.743 192.755 C 78.914 191.426,78.673 191.389,78.005 192.194 C 77.419 192.901,77.324 192.706,90.816 218.600 C 91.847 220.580,94.176 225.080,95.991 228.600 C 97.805 232.120,100.649 237.610,102.311 240.800 C 103.972 243.990,106.246 248.400,107.364 250.600 C 108.482 252.800,109.533 254.660,109.699 254.733 C 109.864 254.807,110.000 255.197,110.000 255.600 C 110.000 256.003,110.135 256.393,110.300 256.467 C 110.465 256.540,112.202 259.750,114.160 263.600 C 117.548 270.264,120.066 275.147,125.195 285.000 C 126.455 287.420,129.155 292.640,131.196 296.600 C 133.237 300.560,135.814 305.510,136.922 307.600 C 138.030 309.690,139.850 313.200,140.967 315.400 C 142.084 317.600,143.133 319.460,143.299 319.533 C 143.464 319.607,143.600 319.924,143.600 320.239 C 143.600 320.767,144.334 322.334,144.800 322.800 C 144.910 322.910,146.374 325.700,148.054 329.000 C 150.972 334.733,153.165 338.980,159.053 350.300 C 160.512 353.105,162.921 357.830,164.408 360.801 C 168.098 368.176,171.398 372.332,176.124 375.556 C 176.606 375.885,177.090 376.254,177.200 376.377 C 177.613 376.838,181.698 378.972,183.400 379.616 C 189.204 381.813,189.017 381.800,213.883 381.800 L 237.166 381.800 235.683 382.698 C 234.867 383.192,233.975 383.597,233.700 383.598 C 233.425 383.599,233.200 383.767,233.200 383.972 C 233.200 384.177,232.809 384.402,232.331 384.472 C 231.421 384.606,230.785 385.600,231.609 385.600 C 231.870 385.600,232.950 385.165,234.009 384.633 C 235.067 384.102,236.067 383.787,236.231 383.933 C 236.394 384.080,236.399 383.975,236.241 383.700 C 236.063 383.391,236.191 383.200,236.576 383.200 C 236.919 383.200,237.200 383.049,237.200 382.864 C 237.200 382.680,237.643 382.327,238.184 382.080 C 238.726 381.833,239.531 381.309,239.975 380.916 C 242.583 378.600,244.671 376.415,245.160 375.488 C 245.468 374.905,245.873 374.522,246.060 374.637 C 246.247 374.753,246.400 374.601,246.400 374.299 C 246.400 373.998,246.715 373.402,247.100 372.975 C 247.485 372.549,248.055 371.705,248.368 371.100 C 248.680 370.495,249.085 370.000,249.268 370.000 C 249.450 370.000,249.600 369.640,249.600 369.200 C 249.600 368.760,249.780 368.400,250.000 368.400 C 250.220 368.400,250.400 368.051,250.400 367.624 C 250.400 367.197,250.580 366.736,250.800 366.600 C 251.020 366.464,251.200 365.913,251.200 365.376 C 251.200 364.839,251.380 364.400,251.600 364.400 C 251.820 364.400,252.000 363.860,252.000 363.200 C 252.000 362.540,252.180 362.000,252.400 362.000 C 252.620 362.000,252.800 361.471,252.800 360.824 C 252.800 360.177,252.944 359.558,253.121 359.449 C 253.297 359.340,253.693 358.328,254.000 357.200 C 254.307 356.072,254.703 355.060,254.879 354.951 C 255.056 354.842,255.200 354.313,255.200 353.776 C 255.200 353.239,255.343 352.800,255.517 352.800 C 255.692 352.800,256.075 351.720,256.367 350.400 C 256.660 349.080,257.068 348.000,257.274 348.000 C 257.479 348.000,257.531 347.812,257.389 347.582 C 257.247 347.353,257.349 346.903,257.615 346.582 C 257.880 346.262,257.964 346.000,257.800 346.000 C 257.636 346.000,257.683 345.775,257.905 345.500 C 258.126 345.225,258.429 344.370,258.577 343.600 C 258.836 342.258,259.288 340.997,260.047 339.505 C 260.241 339.123,260.400 338.348,260.400 337.782 C 260.400 337.198,260.573 336.860,260.800 337.000 C 261.033 337.144,261.200 336.745,261.200 336.047 C 261.200 335.387,261.380 334.736,261.600 334.600 C 261.820 334.464,262.000 333.913,262.000 333.376 C 262.000 332.839,262.180 332.400,262.400 332.400 C 262.620 332.400,262.800 332.051,262.800 331.624 C 262.800 331.197,262.980 330.736,263.200 330.600 C 263.420 330.464,263.600 329.913,263.600 329.376 C 263.600 328.839,263.780 328.400,264.000 328.400 C 264.220 328.400,264.400 327.948,264.400 327.395 C 264.400 326.842,264.580 326.032,264.800 325.595 C 265.020 325.158,265.380 324.442,265.600 324.005 C 265.820 323.568,266.000 322.972,266.000 322.681 C 266.000 322.389,266.360 321.405,266.800 320.494 C 267.240 319.584,267.600 318.571,267.600 318.243 C 267.600 317.915,267.780 317.536,268.000 317.400 C 268.220 317.264,268.400 316.713,268.400 316.176 C 268.400 315.639,268.580 315.200,268.800 315.200 C 269.020 315.200,269.200 314.855,269.200 314.433 C 269.200 314.012,269.378 313.607,269.597 313.533 C 269.815 313.460,270.034 312.905,270.084 312.300 C 270.134 311.695,270.315 311.200,270.487 311.200 C 270.659 311.200,270.800 310.840,270.800 310.400 C 270.800 309.960,270.991 309.600,271.224 309.600 C 271.457 309.600,271.556 309.452,271.444 309.271 C 271.332 309.091,271.502 308.440,271.820 307.826 C 272.139 307.211,272.400 306.459,272.400 306.154 C 272.400 305.849,272.580 305.600,272.800 305.600 C 273.020 305.600,273.169 305.465,273.130 305.300 C 273.092 305.135,273.291 304.460,273.572 303.800 C 273.854 303.140,274.335 302.009,274.642 301.286 C 274.949 300.564,275.200 299.709,275.200 299.386 C 275.200 299.064,275.380 298.800,275.600 298.800 C 275.820 298.800,276.000 298.260,276.000 297.600 C 276.000 296.940,276.180 296.400,276.400 296.400 C 276.620 296.400,276.800 296.040,276.800 295.600 C 276.800 295.160,276.980 294.800,277.200 294.800 C 277.420 294.800,277.600 294.440,277.600 294.000 C 277.600 293.560,277.780 293.200,278.000 293.200 C 278.220 293.200,278.400 292.840,278.400 292.400 C 278.400 291.960,278.580 291.600,278.800 291.600 C 279.020 291.600,279.200 291.276,279.200 290.880 C 279.200 290.484,279.379 289.981,279.597 289.763 C 280.397 288.963,282.755 283.850,282.517 283.432 C 282.382 283.194,282.424 283.138,282.610 283.307 C 282.940 283.607,284.731 280.295,284.777 279.300 C 284.790 279.025,284.946 278.800,285.125 278.800 C 285.304 278.800,285.698 278.170,286.000 277.400 C 286.302 276.630,286.726 276.000,286.941 276.000 C 287.157 276.000,287.224 275.890,287.090 275.756 C 286.828 275.495,289.896 269.563,290.504 269.155 C 290.704 269.021,290.840 268.790,290.806 268.643 C 290.702 268.195,291.775 266.000,292.098 266.000 C 292.264 266.000,292.400 265.640,292.400 265.200 C 292.400 264.760,292.558 264.400,292.751 264.400 C 292.945 264.400,293.327 263.860,293.600 263.200 C 293.873 262.540,294.255 262.000,294.449 262.000 C 294.642 262.000,294.800 261.640,294.800 261.200 C 294.800 260.760,294.980 260.400,295.200 260.400 C 295.420 260.400,295.600 260.164,295.600 259.875 C 295.600 259.587,295.960 258.964,296.400 258.492 C 296.840 258.020,297.200 257.345,297.200 256.993 C 297.200 256.641,297.380 256.464,297.600 256.600 C 297.820 256.736,298.000 256.567,298.000 256.224 C 298.000 255.881,298.180 255.600,298.400 255.600 C 298.620 255.600,298.800 255.240,298.800 254.800 C 298.800 254.360,298.980 254.000,299.200 254.000 C 299.420 254.000,299.600 253.730,299.600 253.400 C 299.600 253.070,299.780 252.800,300.000 252.800 C 300.220 252.800,300.400 252.564,300.400 252.275 C 300.400 251.987,300.760 251.364,301.200 250.892 C 301.640 250.420,302.000 249.756,302.000 249.417 C 302.000 249.078,302.138 248.800,302.306 248.800 C 302.474 248.800,303.056 248.080,303.600 247.200 C 304.144 246.320,304.756 245.600,304.961 245.600 C 305.166 245.600,305.221 245.488,305.084 245.351 C 304.947 245.213,305.267 244.535,305.795 243.843 C 306.323 243.150,306.917 241.859,307.117 240.973 C 307.448 239.500,310.942 233.994,317.889 224.000 C 319.188 222.130,321.495 218.800,323.013 216.600 C 324.532 214.400,325.915 212.540,326.087 212.467 C 326.259 212.393,326.400 212.123,326.401 211.867 C 326.401 211.610,326.941 210.770,327.600 210.000 C 329.077 208.274,329.099 208.585,327.290 205.541 C 325.721 202.901,325.201 201.855,324.415 199.756 L 323.949 198.511 322.274 199.105 C 314.477 201.868,303.378 202.594,295.600 200.847 C 294.610 200.625,293.260 200.330,292.600 200.191 C 291.940 200.053,291.040 199.786,290.600 199.598 C 290.160 199.411,288.720 198.870,287.400 198.398 C 283.633 197.049,278.280 193.982,275.069 191.333 C 273.668 190.177,273.440 190.173,272.918 191.300 M161.025 194.600 C 160.570 196.056,160.484 200.216,160.900 200.633 C 161.498 201.231,161.631 200.437,161.516 196.950 C 161.421 194.045,161.332 193.618,161.025 194.600 M161.530 203.500 C 161.184 204.970,161.476 210.399,161.900 210.400 C 162.263 210.400,162.400 209.414,162.400 206.800 C 162.400 203.853,161.896 201.941,161.530 203.500 M162.212 216.284 C 162.357 220.366,162.333 220.227,162.819 219.741 C 163.377 219.183,163.140 213.510,162.551 213.316 C 162.238 213.212,162.135 214.115,162.212 216.284 M163.059 222.704 C 162.572 223.492,162.911 228.800,163.448 228.800 C 163.871 228.800,164.000 228.055,164.000 225.600 C 164.000 222.786,163.659 221.734,163.059 222.704 M163.812 232.363 C 163.320 233.914,163.715 239.142,164.282 238.575 C 164.620 238.237,164.800 236.938,164.800 234.829 C 164.800 231.783,164.351 230.664,163.812 232.363 M164.594 241.273 C 164.205 242.284,164.540 247.595,165.000 247.705 C 165.534 247.832,165.749 242.194,165.245 241.296 C 164.882 240.649,164.835 240.648,164.594 241.273 M227.733 244.638 C 227.733 244.947,227.973 245.200,228.267 245.200 C 228.560 245.200,228.800 245.039,228.800 244.843 C 228.800 244.646,228.560 244.393,228.267 244.281 C 227.973 244.168,227.733 244.329,227.733 244.638 M89.444 246.729 C 89.332 246.909,89.502 247.560,89.820 248.174 C 90.139 248.789,90.400 249.541,90.400 249.846 C 90.400 250.151,90.535 250.401,90.700 250.403 C 91.059 250.407,92.000 252.344,92.000 253.080 C 92.000 253.366,92.172 253.600,92.382 253.600 C 92.592 253.600,92.881 254.224,93.024 254.986 C 93.167 255.748,93.533 256.578,93.837 256.831 C 94.142 257.084,94.275 257.478,94.134 257.707 C 93.984 257.949,94.070 258.004,94.338 257.838 C 94.606 257.673,94.800 257.796,94.800 258.131 C 94.800 259.164,95.800 260.667,96.362 260.479 C 96.694 260.369,96.801 260.475,96.632 260.748 C 96.478 260.997,96.493 261.425,96.665 261.700 C 96.837 261.975,97.011 262.419,97.051 262.686 C 97.092 262.953,97.466 263.673,97.882 264.286 C 98.299 264.899,99.260 266.660,100.018 268.200 C 100.776 269.740,101.532 271.060,101.698 271.133 C 101.864 271.207,102.000 271.612,102.000 272.033 C 102.000 272.455,102.180 272.800,102.400 272.800 C 102.620 272.800,102.800 273.160,102.800 273.600 C 102.800 274.040,102.980 274.400,103.200 274.400 C 103.420 274.400,103.600 274.745,103.600 275.167 C 103.600 275.588,103.735 275.993,103.900 276.067 C 104.065 276.140,104.828 277.415,105.596 278.900 C 106.363 280.385,107.106 281.600,107.246 281.600 C 107.386 281.600,107.604 282.118,107.730 282.752 C 107.857 283.385,108.216 284.159,108.528 284.470 C 108.839 284.782,109.229 285.479,109.395 286.019 C 109.560 286.558,109.898 287.270,110.147 287.600 C 111.093 288.854,111.618 290.047,111.388 290.419 C 111.257 290.632,111.426 290.912,111.764 291.041 C 112.102 291.171,112.493 291.890,112.634 292.639 C 112.774 293.387,113.015 294.000,113.170 294.000 C 113.324 294.000,113.698 294.630,114.000 295.400 C 114.302 296.170,114.696 296.800,114.875 296.800 C 115.054 296.800,115.200 297.160,115.200 297.600 C 115.200 298.040,115.380 298.400,115.600 298.400 C 115.820 298.400,116.000 298.861,116.000 299.424 C 116.000 300.004,116.173 300.340,116.400 300.200 C 116.620 300.064,116.800 300.310,116.800 300.747 C 116.800 301.184,117.210 301.870,117.712 302.271 C 118.213 302.672,118.561 303.309,118.485 303.688 C 118.408 304.066,118.718 304.775,119.173 305.263 C 119.628 305.751,120.000 306.387,120.000 306.675 C 120.000 306.964,120.180 307.200,120.400 307.200 C 120.620 307.200,120.800 307.560,120.800 308.000 C 120.800 308.440,120.980 308.800,121.200 308.800 C 121.420 308.800,121.600 309.160,121.600 309.600 C 121.600 310.040,121.780 310.400,122.000 310.400 C 122.220 310.400,122.400 310.760,122.400 311.200 C 122.400 311.640,122.580 312.000,122.800 312.000 C 123.020 312.000,123.200 312.360,123.200 312.800 C 123.200 313.240,123.335 313.601,123.500 313.603 C 123.859 313.607,124.800 315.544,124.800 316.280 C 124.800 316.566,124.980 316.800,125.200 316.800 C 125.420 316.800,125.555 317.002,125.500 317.250 C 125.445 317.497,125.625 317.782,125.900 317.883 C 126.199 317.993,126.400 317.731,126.400 317.233 C 126.400 316.775,126.220 316.400,126.000 316.400 C 125.780 316.400,125.600 316.055,125.600 315.633 C 125.600 315.212,125.461 314.807,125.291 314.733 C 124.888 314.559,120.400 305.526,120.400 304.889 C 120.400 304.620,120.265 304.399,120.100 304.399 C 119.935 304.398,119.350 303.408,118.800 302.200 C 118.250 300.992,117.665 300.002,117.500 300.001 C 117.335 300.001,117.200 299.640,117.200 299.200 C 117.200 298.760,117.020 298.400,116.800 298.400 C 116.580 298.400,116.400 298.055,116.400 297.633 C 116.400 297.212,116.264 296.807,116.098 296.733 C 115.932 296.660,115.168 295.340,114.400 293.800 C 113.632 292.260,112.868 290.940,112.702 290.867 C 112.536 290.793,112.400 290.514,112.400 290.246 C 112.400 289.537,111.451 287.607,111.100 287.603 C 110.935 287.601,110.800 287.240,110.800 286.800 C 110.800 286.360,110.656 286.000,110.480 286.000 C 110.305 286.000,109.933 285.370,109.654 284.600 C 109.376 283.830,108.950 283.200,108.707 283.200 C 108.465 283.200,108.375 283.092,108.507 282.960 C 108.825 282.642,106.009 277.200,105.527 277.200 C 105.321 277.200,105.281 276.993,105.438 276.739 C 105.594 276.486,105.470 276.081,105.161 275.839 C 104.852 275.598,104.580 275.220,104.557 275.000 C 104.454 274.061,103.880 272.800,103.553 272.800 C 103.359 272.800,103.200 272.455,103.200 272.033 C 103.200 271.612,103.064 271.207,102.899 271.133 C 102.733 271.060,101.680 269.200,100.559 267.000 C 97.486 260.968,96.629 259.413,96.300 259.267 C 96.135 259.193,96.000 258.788,96.000 258.367 C 96.000 257.945,95.865 257.599,95.700 257.599 C 95.535 257.598,94.950 256.608,94.400 255.400 C 93.850 254.192,93.265 253.202,93.100 253.201 C 92.935 253.201,92.800 252.840,92.800 252.400 C 92.800 251.960,92.620 251.600,92.400 251.600 C 92.180 251.600,92.000 251.365,92.000 251.079 C 92.000 250.544,90.041 246.400,89.788 246.400 C 89.710 246.400,89.556 246.548,89.444 246.729 M226.392 247.864 C 226.619 247.976,226.711 248.221,226.596 248.407 C 226.481 248.593,226.587 248.868,226.832 249.020 C 227.109 249.191,227.225 249.025,227.138 248.581 C 227.062 248.188,226.770 247.820,226.490 247.763 C 226.210 247.706,226.166 247.752,226.392 247.864 M225.455 250.200 C 225.582 250.530,225.846 250.800,226.043 250.800 C 226.239 250.800,226.400 250.530,226.400 250.200 C 226.400 249.870,226.136 249.600,225.813 249.600 C 225.455 249.600,225.315 249.835,225.455 250.200 M165.232 254.232 C 165.296 257.704,165.368 258.058,165.867 257.376 C 166.605 256.367,166.451 250.747,165.679 250.492 C 165.272 250.357,165.175 251.174,165.232 254.232 M224.800 251.800 C 224.800 252.130,224.980 252.400,225.200 252.400 C 225.420 252.400,225.600 252.130,225.600 251.800 C 225.600 251.470,225.420 251.200,225.200 251.200 C 224.980 251.200,224.800 251.470,224.800 251.800 M223.650 254.032 C 223.247 254.941,223.222 255.382,223.552 255.712 C 223.883 256.043,224.000 255.877,224.000 255.080 C 224.000 254.486,224.180 254.000,224.400 254.000 C 224.620 254.000,224.800 253.730,224.800 253.400 C 224.800 252.408,224.230 252.721,223.650 254.032 M222.400 256.767 C 222.400 257.188,222.236 257.593,222.037 257.667 C 221.837 257.740,221.612 258.160,221.537 258.600 C 221.461 259.040,221.310 259.490,221.200 259.600 C 220.195 260.605,219.551 262.468,220.255 262.333 C 220.665 262.254,220.957 262.058,220.905 261.897 C 220.853 261.737,221.168 260.969,221.605 260.191 C 222.042 259.412,222.400 258.511,222.400 258.188 C 222.400 257.865,222.580 257.600,222.800 257.600 C 223.020 257.600,223.200 257.240,223.200 256.800 C 223.200 256.360,223.020 256.000,222.800 256.000 C 222.580 256.000,222.400 256.345,222.400 256.767 M166.272 260.207 C 165.767 261.869,166.047 272.400,166.596 272.400 C 166.996 272.400,167.117 271.107,167.123 266.741 C 167.130 261.089,166.793 258.493,166.272 260.207 M219.185 263.505 C 218.483 264.340,218.190 266.000,218.746 266.000 C 219.311 266.000,220.476 263.516,220.091 263.131 C 219.914 262.954,219.506 263.122,219.185 263.505 M165.335 273.706 C 165.371 274.418,165.580 274.965,165.800 274.921 C 166.461 274.791,166.499 273.642,165.864 273.007 C 165.339 272.482,165.278 272.562,165.335 273.706 M126.237 318.339 C 126.122 318.526,126.606 319.871,127.314 321.328 C 128.580 323.934,129.600 324.770,129.600 323.200 C 129.600 322.760,129.465 322.399,129.300 322.399 C 129.135 322.398,128.550 321.408,128.000 320.200 C 127.019 318.044,126.656 317.661,126.237 318.339 M129.499 324.234 C 129.098 324.635,130.049 326.800,130.627 326.800 C 130.965 326.800,131.081 327.045,130.929 327.440 C 130.794 327.793,130.845 328.198,131.042 328.340 C 131.563 328.718,133.200 331.978,133.200 332.638 C 133.200 332.947,133.380 333.200,133.600 333.200 C 133.820 333.200,134.000 333.483,134.000 333.829 C 134.000 334.174,134.270 334.727,134.599 335.057 C 134.929 335.386,135.318 336.132,135.464 336.715 C 135.611 337.297,136.061 338.128,136.465 338.562 C 136.869 338.996,137.200 339.677,137.200 340.075 C 137.200 340.474,137.350 340.800,137.532 340.800 C 137.837 340.800,138.124 341.298,139.321 343.900 C 139.549 344.395,139.975 344.800,140.268 344.800 C 140.992 344.800,140.943 344.030,140.200 343.745 C 139.870 343.618,139.600 343.174,139.600 342.757 C 139.600 342.341,139.420 342.000,139.200 342.000 C 138.980 342.000,138.830 341.865,138.866 341.700 C 139.020 340.993,138.280 339.239,137.739 339.032 C 137.414 338.907,137.274 338.604,137.426 338.358 C 137.578 338.112,137.540 337.796,137.342 337.655 C 137.143 337.515,136.177 335.780,135.194 333.800 C 134.211 331.820,133.271 330.140,133.104 330.067 C 132.937 329.993,132.800 329.588,132.800 329.167 C 132.800 328.745,132.665 328.399,132.500 328.399 C 132.335 328.398,131.750 327.408,131.200 326.200 C 130.221 324.048,129.972 323.761,129.499 324.234 M140.409 345.900 C 140.414 346.285,140.770 347.050,141.200 347.600 C 141.630 348.150,141.986 348.825,141.991 349.100 C 141.996 349.375,142.199 349.600,142.443 349.600 C 142.686 349.600,142.779 349.877,142.650 350.215 C 142.518 350.558,142.664 350.926,142.978 351.047 C 143.288 351.166,143.476 351.605,143.395 352.023 C 143.312 352.456,143.454 352.744,143.725 352.692 C 143.987 352.641,144.179 352.999,144.153 353.491 C 144.127 353.981,144.267 354.282,144.463 354.161 C 144.660 354.039,145.010 354.482,145.241 355.145 C 145.472 355.808,146.007 357.030,146.431 357.860 C 146.854 358.690,147.200 359.601,147.200 359.885 C 147.200 360.168,147.351 360.400,147.536 360.400 C 147.847 360.400,148.907 362.236,148.971 362.887 C 148.987 363.045,149.270 363.497,149.600 363.893 C 149.930 364.288,150.446 365.149,150.747 365.806 C 151.047 366.463,151.452 367.313,151.647 367.695 C 151.841 368.077,152.000 368.647,152.000 368.961 C 152.000 369.276,152.188 369.596,152.418 369.673 C 152.648 369.749,152.865 370.202,152.901 370.678 C 152.937 371.155,153.109 371.456,153.283 371.349 C 153.457 371.241,153.600 371.453,153.600 371.819 C 153.600 372.237,153.816 372.403,154.180 372.263 C 154.571 372.113,154.686 372.233,154.532 372.632 C 154.406 372.961,154.681 373.550,155.153 373.959 C 155.619 374.363,156.000 374.858,156.000 375.059 C 156.000 375.259,156.360 375.683,156.800 376.000 C 157.240 376.317,157.609 376.762,157.620 376.988 C 157.630 377.215,158.371 378.120,159.266 379.000 C 160.160 379.880,160.756 380.330,160.588 380.000 C 160.421 379.670,161.086 380.169,162.067 381.109 C 163.047 382.049,163.973 382.694,164.124 382.542 C 164.276 382.391,164.400 382.477,164.400 382.733 C 164.400 382.990,164.655 383.200,164.967 383.200 C 165.278 383.200,165.593 383.335,165.667 383.500 C 165.862 383.940,169.178 385.600,169.861 385.600 C 170.184 385.600,170.364 385.735,170.263 385.900 C 170.161 386.065,170.600 386.238,171.239 386.284 C 172.065 386.344,172.400 386.186,172.400 385.737 C 172.400 385.280,172.125 385.159,171.400 385.298 C 170.850 385.403,170.400 385.347,170.400 385.174 C 170.400 385.001,169.365 384.357,168.100 383.743 C 166.835 383.129,165.562 382.396,165.271 382.113 C 164.981 381.831,164.595 381.600,164.414 381.600 C 164.233 381.600,163.507 381.060,162.800 380.400 C 162.093 379.740,161.309 379.187,161.058 379.170 C 160.529 379.136,155.200 373.070,155.200 372.502 C 155.200 372.294,154.844 371.802,154.409 371.409 C 153.975 371.015,153.703 370.558,153.805 370.392 C 153.907 370.226,153.725 369.870,153.400 369.600 C 153.075 369.330,152.895 368.970,153.000 368.800 C 153.105 368.630,152.925 368.270,152.600 368.000 C 152.275 367.730,152.103 367.357,152.218 367.171 C 152.405 366.869,151.732 365.317,151.190 364.800 C 151.075 364.690,150.177 362.980,149.194 361.000 C 148.211 359.020,147.271 357.340,147.104 357.267 C 146.937 357.193,146.800 356.788,146.800 356.367 C 146.800 355.945,146.620 355.600,146.400 355.600 C 146.180 355.600,146.000 355.240,146.000 354.800 C 146.000 354.360,145.820 354.000,145.600 354.000 C 145.380 354.000,145.200 353.640,145.200 353.200 C 145.200 352.760,145.065 352.399,144.900 352.399 C 144.735 352.398,144.150 351.408,143.600 350.200 C 143.050 348.992,142.465 348.002,142.300 348.001 C 142.135 348.001,141.994 347.685,141.987 347.300 C 141.974 346.573,141.103 345.200,140.656 345.200 C 140.515 345.200,140.404 345.515,140.409 345.900 M229.200 385.600 C 229.200 385.820,228.570 386.000,227.800 386.000 C 226.809 386.000,226.400 386.179,226.400 386.613 C 226.400 387.062,226.767 387.200,227.774 387.133 C 228.530 387.082,229.059 386.896,228.951 386.720 C 228.773 386.433,230.431 386.197,231.368 386.375 C 231.570 386.414,231.503 386.165,231.219 385.823 C 230.646 385.132,229.200 384.973,229.200 385.600 M173.078 386.256 C 172.624 386.709,173.220 387.200,174.224 387.200 C 174.825 387.200,175.200 386.969,175.200 386.600 C 175.200 386.001,173.593 385.741,173.078 386.256 M176.058 387.330 C 175.659 387.810,175.914 387.891,177.693 387.849 C 180.343 387.787,180.859 387.043,178.365 386.881 C 177.145 386.801,176.372 386.952,176.058 387.330 M221.417 387.172 C 221.100 387.685,221.522 387.845,223.490 387.960 C 225.425 388.074,226.393 387.695,225.543 387.156 C 224.813 386.693,221.705 386.706,221.417 387.172 " stroke="none" fill="#c3d371" fill-rule="evenodd"></path><path id="path1" d="M193.773 12.385 C 193.568 12.588,192.455 12.797,191.300 12.849 C 190.145 12.901,189.200 13.091,189.200 13.271 C 189.200 13.452,188.390 13.600,187.400 13.600 C 186.410 13.600,185.600 13.742,185.600 13.915 C 185.600 14.088,185.018 14.274,184.307 14.328 C 183.595 14.383,182.839 14.601,182.627 14.813 C 182.414 15.026,181.646 15.200,180.920 15.200 C 180.194 15.200,179.600 15.380,179.600 15.600 C 179.600 15.820,179.150 16.000,178.600 16.000 C 178.050 16.000,177.600 16.180,177.600 16.400 C 177.600 16.620,177.261 16.800,176.846 16.800 C 176.431 16.800,175.589 17.061,174.974 17.380 C 174.360 17.698,173.682 17.850,173.467 17.718 C 173.250 17.584,173.204 17.682,173.362 17.938 C 173.549 18.241,173.295 18.400,172.624 18.400 C 172.061 18.400,171.600 18.580,171.600 18.800 C 171.600 19.020,171.240 19.200,170.800 19.200 C 170.360 19.200,170.000 19.380,170.000 19.600 C 170.000 19.820,169.640 20.000,169.200 20.000 C 168.760 20.000,168.400 20.180,168.400 20.400 C 168.400 20.620,168.040 20.800,167.600 20.800 C 167.160 20.800,166.800 20.980,166.800 21.200 C 166.800 21.420,166.480 21.600,166.088 21.600 C 165.697 21.600,165.117 21.960,164.800 22.400 C 164.483 22.840,163.903 23.200,163.512 23.200 C 163.120 23.200,162.800 23.338,162.800 23.506 C 162.800 23.674,162.080 24.256,161.200 24.800 C 160.320 25.344,159.600 25.937,159.600 26.118 C 159.600 26.299,159.431 26.343,159.225 26.215 C 159.018 26.088,158.664 26.302,158.437 26.692 C 158.210 27.081,158.019 27.252,158.012 27.071 C 158.005 26.891,157.737 26.981,157.415 27.271 C 157.094 27.562,155.413 29.060,153.680 30.600 C 151.947 32.140,150.139 33.940,149.662 34.600 C 148.893 35.664,147.276 37.609,145.421 39.700 C 145.079 40.085,144.800 40.552,144.800 40.738 C 144.800 40.924,144.444 41.398,144.009 41.791 C 143.575 42.185,143.316 42.664,143.435 42.856 C 143.554 43.048,143.370 43.313,143.028 43.445 C 142.685 43.576,142.504 43.845,142.626 44.042 C 142.748 44.239,142.690 44.400,142.498 44.400 C 142.306 44.400,141.905 45.022,141.607 45.782 C 141.309 46.542,140.915 47.071,140.732 46.958 C 140.550 46.845,140.400 47.123,140.400 47.576 C 140.400 48.029,140.220 48.400,140.000 48.400 C 139.780 48.400,139.600 48.670,139.600 49.000 C 139.600 49.330,139.420 49.600,139.200 49.600 C 138.980 49.600,138.800 49.834,138.800 50.120 C 138.800 50.856,137.859 52.793,137.500 52.797 C 137.335 52.799,137.200 53.149,137.200 53.576 C 137.200 54.003,137.020 54.464,136.800 54.600 C 136.580 54.736,136.400 55.287,136.400 55.824 C 136.400 56.361,136.220 56.800,136.000 56.800 C 135.780 56.800,135.600 57.160,135.600 57.600 C 135.600 58.040,135.420 58.400,135.200 58.400 C 134.980 58.400,134.800 58.220,134.800 58.000 C 134.800 57.780,134.440 57.600,134.000 57.600 C 133.560 57.600,133.200 57.420,133.200 57.200 C 133.200 56.980,132.851 56.800,132.424 56.800 C 131.997 56.800,131.536 56.620,131.400 56.400 C 131.264 56.180,130.713 56.000,130.176 56.000 C 129.639 56.000,129.200 55.820,129.200 55.600 C 129.200 55.380,128.840 55.200,128.400 55.200 C 127.960 55.200,127.600 55.020,127.600 54.800 C 127.600 54.580,127.060 54.400,126.400 54.400 C 125.740 54.400,125.200 54.220,125.200 54.000 C 125.200 53.780,124.671 53.600,124.024 53.600 C 123.377 53.600,122.736 53.420,122.600 53.200 C 122.464 52.980,121.769 52.800,121.056 52.800 C 120.343 52.800,119.589 52.635,119.380 52.434 C 118.590 51.672,104.000 50.903,104.000 51.623 C 104.000 51.830,103.010 52.000,101.800 52.000 C 100.590 52.000,99.600 52.180,99.600 52.400 C 99.600 52.620,98.880 52.800,98.000 52.800 C 97.120 52.800,96.400 52.980,96.400 53.200 C 96.400 53.420,96.038 53.600,95.595 53.600 C 95.152 53.600,94.432 53.780,93.995 54.000 C 93.558 54.220,92.842 54.580,92.405 54.800 C 91.968 55.020,91.338 55.200,91.005 55.200 C 90.672 55.200,90.400 55.380,90.400 55.600 C 90.400 55.820,90.040 56.000,89.600 56.000 C 89.160 56.000,88.800 56.180,88.800 56.400 C 88.800 56.620,88.480 56.800,88.088 56.800 C 87.697 56.800,87.117 57.160,86.800 57.600 C 86.483 58.040,85.931 58.400,85.574 58.400 C 85.216 58.400,84.598 58.760,84.200 59.200 C 83.802 59.640,83.300 60.000,83.085 60.000 C 82.870 60.000,82.358 60.388,81.947 60.861 C 81.536 61.335,81.200 61.638,81.200 61.535 C 81.200 61.266,76.045 66.429,74.500 68.245 C 73.785 69.085,73.200 69.964,73.200 70.198 C 73.200 70.432,72.840 70.883,72.400 71.200 C 71.960 71.517,71.600 72.057,71.600 72.400 C 71.600 72.743,71.240 73.283,70.800 73.600 C 70.360 73.917,70.000 74.497,70.000 74.888 C 70.000 75.280,69.865 75.601,69.700 75.603 C 69.341 75.607,68.400 77.544,68.400 78.280 C 68.400 78.566,68.220 78.800,68.000 78.800 C 67.780 78.800,67.600 79.160,67.600 79.600 C 67.600 80.040,67.420 80.400,67.200 80.400 C 66.980 80.400,66.800 80.814,66.800 81.320 C 66.800 81.826,66.651 82.411,66.470 82.620 C 66.288 82.829,65.907 83.810,65.623 84.800 C 65.339 85.790,64.950 87.050,64.758 87.600 C 64.566 88.150,64.368 89.185,64.319 89.900 C 64.270 90.615,64.088 91.200,63.915 91.200 C 63.742 91.200,63.600 92.449,63.600 93.976 C 63.600 95.503,63.449 96.846,63.265 96.960 C 62.671 97.327,63.411 109.436,64.051 109.831 C 64.243 109.950,64.400 110.476,64.400 111.000 C 64.400 111.524,64.554 112.048,64.742 112.164 C 64.930 112.280,65.488 113.572,65.982 115.034 C 66.476 116.497,67.305 118.611,67.825 119.733 L 68.770 121.772 67.799 122.986 C 64.659 126.910,61.621 132.106,59.545 137.100 C 59.248 137.815,58.869 138.400,58.702 138.400 C 58.536 138.400,58.400 139.030,58.400 139.800 C 58.400 140.570,58.220 141.200,58.000 141.200 C 57.780 141.200,57.600 141.909,57.600 142.776 C 57.600 143.643,57.446 144.448,57.257 144.565 C 56.037 145.319,56.762 164.235,58.042 165.026 C 58.239 165.148,58.400 165.676,58.400 166.200 C 58.400 166.724,58.580 167.264,58.800 167.400 C 59.020 167.536,59.200 168.087,59.200 168.624 C 59.200 169.161,59.380 169.600,59.600 169.600 C 59.820 169.600,60.000 169.846,60.000 170.146 C 60.000 170.984,62.584 175.959,64.183 178.200 C 65.693 180.316,65.283 181.115,63.247 180.025 C 62.810 179.791,62.001 179.600,61.450 179.600 C 60.898 179.600,60.336 179.420,60.200 179.200 C 60.064 178.980,59.637 178.800,59.252 178.800 C 57.754 178.800,50.530 175.058,47.450 172.688 C 31.538 160.439,26.009 137.984,34.655 120.713 C 36.294 117.440,35.475 116.195,33.124 118.385 C 32.718 118.763,31.949 119.306,31.413 119.593 C 29.968 120.366,24.800 125.244,24.800 125.835 C 24.800 126.116,24.440 126.460,24.000 126.600 C 23.560 126.740,23.200 127.020,23.200 127.222 C 23.200 127.559,22.461 128.581,21.375 129.745 C 21.142 129.995,20.699 130.772,20.391 131.471 C 20.082 132.170,19.688 132.655,19.515 132.548 C 19.342 132.440,19.200 132.598,19.200 132.897 C 19.200 133.651,18.265 135.593,17.900 135.597 C 17.735 135.599,17.600 135.836,17.600 136.125 C 17.600 136.414,17.240 137.395,16.800 138.306 C 16.360 139.216,16.000 140.431,16.000 141.004 C 16.000 141.578,15.839 141.948,15.642 141.826 C 15.285 141.605,14.952 143.205,14.565 147.000 C 14.453 148.100,14.173 149.380,13.943 149.845 C 13.313 151.114,14.078 163.391,14.835 164.180 C 15.036 164.389,15.200 165.053,15.200 165.656 C 15.200 166.259,15.380 166.864,15.600 167.000 C 15.820 167.136,16.000 167.676,16.000 168.200 C 16.000 168.724,16.180 169.264,16.400 169.400 C 16.620 169.536,16.800 169.997,16.800 170.424 C 16.800 170.851,16.980 171.200,17.200 171.200 C 17.420 171.200,17.600 171.453,17.600 171.762 C 17.600 172.428,19.268 175.741,19.700 175.933 C 19.865 176.007,20.000 176.412,20.000 176.833 C 20.000 177.255,20.150 177.600,20.332 177.600 C 20.515 177.600,20.920 178.089,21.232 178.688 C 22.658 181.419,30.710 189.392,33.456 190.790 C 34.525 191.335,35.490 191.875,35.600 191.990 C 36.052 192.464,37.630 193.200,38.195 193.200 C 38.528 193.200,38.800 193.380,38.800 193.600 C 38.800 193.820,39.160 194.000,39.600 194.000 C 40.040 194.000,40.400 194.180,40.400 194.400 C 40.400 194.620,40.951 194.800,41.624 194.800 C 42.337 194.800,42.744 194.967,42.600 195.200 C 42.463 195.422,42.765 195.606,43.276 195.613 C 45.640 195.645,46.003 196.782,44.504 199.450 C 43.110 201.930,42.000 205.049,42.000 206.485 C 42.000 207.098,41.820 207.600,41.600 207.600 C 41.374 207.600,41.200 208.741,41.200 210.224 C 41.200 211.871,41.051 212.755,40.800 212.600 C 40.548 212.444,40.400 213.388,40.400 215.153 C 40.400 216.693,40.580 218.064,40.800 218.200 C 41.020 218.336,41.200 219.506,41.200 220.800 C 41.200 222.094,41.356 223.249,41.547 223.367 C 41.738 223.485,42.015 224.493,42.163 225.607 C 42.311 226.721,42.785 228.261,43.216 229.028 C 43.647 229.796,44.000 230.606,44.000 230.829 C 44.000 231.052,44.184 231.451,44.408 231.717 C 44.633 231.983,45.529 233.326,46.401 234.702 C 48.061 237.323,52.801 242.400,53.589 242.400 C 53.841 242.400,53.919 242.608,53.762 242.862 C 53.598 243.127,53.651 243.216,53.886 243.070 C 54.111 242.931,54.814 243.263,55.448 243.808 C 56.082 244.353,56.825 244.799,57.100 244.800 C 57.375 244.800,57.601 244.935,57.603 245.100 C 57.607 245.459,59.544 246.400,60.280 246.400 C 60.566 246.400,60.800 246.580,60.800 246.800 C 60.800 247.020,61.171 247.200,61.624 247.200 C 62.077 247.200,62.336 247.380,62.200 247.600 C 62.053 247.838,62.521 248.000,63.353 248.000 C 64.123 248.000,64.852 248.160,64.973 248.356 C 65.540 249.274,82.000 250.107,82.000 249.218 C 82.000 248.988,82.630 248.800,83.400 248.800 C 84.170 248.800,84.800 248.620,84.800 248.400 C 84.800 248.180,85.430 248.000,86.200 248.000 C 86.970 248.000,87.600 247.820,87.600 247.600 C 87.600 247.380,87.870 247.200,88.200 247.200 C 89.066 247.200,88.950 246.085,87.846 243.800 C 87.314 242.700,86.280 240.540,85.548 239.000 C 84.815 237.460,84.119 236.110,84.001 236.000 C 83.883 235.890,82.715 233.669,81.405 231.065 C 80.095 228.460,78.960 226.519,78.883 226.750 C 78.806 226.982,79.777 229.113,81.041 231.486 C 86.656 242.027,86.461 241.200,83.324 241.200 C 73.317 241.200,62.298 235.836,56.589 228.187 C 55.937 227.314,55.291 226.510,55.153 226.400 C 54.511 225.890,51.224 218.321,50.636 216.000 C 49.321 210.807,49.391 203.753,50.806 198.732 L 51.220 197.264 57.310 197.266 L 63.400 197.268 65.181 200.934 C 66.161 202.950,67.065 204.690,67.191 204.800 C 67.317 204.910,68.221 206.620,69.200 208.600 C 70.179 210.580,71.077 212.290,71.196 212.400 C 71.314 212.510,71.858 213.500,72.405 214.600 C 72.952 215.700,73.535 216.660,73.700 216.733 C 73.865 216.807,74.000 217.212,74.000 217.633 C 74.000 218.055,74.174 218.400,74.387 218.400 C 74.970 218.400,75.216 218.923,69.501 208.000 C 63.147 195.855,63.722 197.192,64.584 196.562 C 65.007 196.253,65.938 196.000,66.653 196.000 C 67.368 196.000,68.064 195.820,68.200 195.600 C 68.336 195.380,68.977 195.200,69.624 195.200 C 70.271 195.200,70.800 195.020,70.800 194.800 C 70.800 194.580,71.239 194.400,71.776 194.400 C 72.313 194.400,72.864 194.220,73.000 194.000 C 73.136 193.780,73.597 193.600,74.024 193.600 C 74.451 193.600,74.800 193.420,74.800 193.200 C 74.800 192.980,75.160 192.800,75.600 192.800 C 76.040 192.800,76.400 192.620,76.400 192.400 C 76.400 192.180,76.625 191.994,76.900 191.987 C 79.186 191.929,78.834 190.847,75.878 188.852 C 69.211 184.354,62.886 176.428,60.196 169.200 C 59.827 168.210,59.383 167.040,59.208 166.600 C 58.806 165.586,58.191 163.221,57.595 160.400 C 56.753 156.415,57.394 145.436,58.740 140.800 C 59.758 137.293,59.589 137.316,61.114 140.478 C 70.857 160.691,93.843 170.280,115.400 163.124 C 124.637 160.057,133.787 153.171,139.184 145.224 L 140.892 142.709 144.146 145.894 C 156.331 157.822,168.027 165.221,181.655 169.624 C 184.616 170.580,186.366 171.048,191.400 172.225 C 198.713 173.936,215.526 173.939,223.000 172.230 C 239.318 168.499,251.413 162.795,263.166 153.289 L 266.131 150.890 270.566 155.361 C 275.463 160.297,279.526 163.276,284.509 165.585 C 289.567 167.928,291.646 168.555,299.120 169.992 C 304.748 171.075,314.955 170.087,321.200 167.855 C 323.916 166.884,324.210 166.981,324.997 169.100 C 333.796 192.798,364.867 198.128,379.230 178.404 C 380.195 177.079,381.303 175.894,381.692 175.771 C 382.611 175.479,382.587 175.111,381.600 174.400 C 381.160 174.083,380.800 173.620,380.800 173.371 C 380.800 173.122,380.260 172.354,379.600 171.663 C 378.185 170.182,378.135 169.697,379.200 167.800 C 379.640 167.017,380.000 166.111,380.000 165.788 C 380.000 165.465,380.180 165.200,380.400 165.200 C 380.620 165.200,380.800 164.750,380.800 164.200 C 380.800 163.650,380.980 163.200,381.200 163.200 C 381.420 163.200,381.600 162.838,381.600 162.395 C 381.600 161.952,381.758 161.277,381.951 160.895 C 382.580 159.649,383.200 157.366,383.200 156.295 C 383.200 155.719,383.357 155.150,383.549 155.031 C 384.660 154.345,384.678 137.363,383.569 136.220 C 383.366 136.011,383.200 135.167,383.200 134.344 C 383.200 133.521,383.020 132.736,382.800 132.600 C 382.580 132.464,382.400 131.834,382.400 131.200 C 382.400 130.566,382.220 129.936,382.000 129.800 C 381.780 129.664,381.600 129.113,381.600 128.576 C 381.600 128.039,381.420 127.600,381.200 127.600 C 380.980 127.600,380.800 127.251,380.800 126.824 C 380.800 126.397,380.620 125.936,380.400 125.800 C 380.180 125.664,380.000 125.203,380.000 124.776 C 380.000 124.349,379.820 124.000,379.600 124.000 C 379.380 124.000,379.200 123.640,379.200 123.200 C 379.200 122.760,379.020 122.400,378.800 122.400 C 378.580 122.400,378.400 122.122,378.400 121.783 C 378.400 121.444,378.040 120.780,377.600 120.308 C 377.160 119.836,376.800 119.213,376.800 118.925 C 376.800 118.636,376.620 118.400,376.400 118.400 C 376.180 118.400,376.000 118.040,376.000 117.600 C 376.000 117.160,375.859 116.800,375.686 116.800 C 375.514 116.800,375.063 116.276,374.685 115.637 C 373.772 114.090,366.662 106.800,366.067 106.800 C 365.810 106.800,365.600 106.620,365.600 106.400 C 365.600 106.180,365.370 106.000,365.088 106.000 C 364.807 106.000,364.317 105.640,364.000 105.200 C 363.683 104.760,363.227 104.400,362.987 104.400 C 362.747 104.400,362.202 104.085,361.775 103.700 C 361.349 103.315,359.740 102.370,358.200 101.600 C 356.660 100.830,355.340 100.065,355.267 99.900 C 355.193 99.735,354.782 99.600,354.353 99.600 C 353.923 99.600,353.132 99.312,352.595 98.960 C 352.058 98.608,350.939 98.146,350.109 97.933 C 346.248 96.944,345.254 96.719,343.200 96.369 C 341.990 96.162,340.640 95.920,340.200 95.830 C 339.760 95.740,338.365 95.652,337.100 95.633 C 334.842 95.601,333.844 94.638,335.200 93.800 C 335.420 93.664,335.600 93.034,335.600 92.400 C 335.600 91.766,335.780 91.136,336.000 91.000 C 336.237 90.854,336.400 88.404,336.400 85.000 C 336.400 81.596,336.237 79.146,336.000 79.000 C 335.780 78.864,335.600 78.234,335.600 77.600 C 335.600 76.966,335.420 76.336,335.200 76.200 C 334.980 76.064,334.800 75.513,334.800 74.976 C 334.800 74.439,334.620 74.000,334.400 74.000 C 334.180 74.000,334.000 73.550,334.000 73.000 C 334.000 72.450,333.854 72.000,333.675 72.000 C 333.496 72.000,333.102 71.370,332.800 70.600 C 332.498 69.830,332.104 69.200,331.925 69.200 C 331.746 69.200,331.600 68.964,331.600 68.675 C 331.600 68.387,331.240 67.764,330.800 67.292 C 330.360 66.820,330.000 66.246,330.000 66.017 C 330.000 65.788,329.820 65.600,329.600 65.600 C 329.380 65.600,329.200 65.407,329.200 65.170 C 329.200 64.504,321.266 56.800,320.580 56.800 C 320.463 56.800,319.980 56.440,319.508 56.000 C 319.036 55.560,318.413 55.200,318.125 55.200 C 317.836 55.200,317.600 55.020,317.600 54.800 C 317.600 54.580,317.345 54.400,317.033 54.400 C 316.722 54.400,316.407 54.265,316.333 54.100 C 316.112 53.601,312.778 52.000,311.962 52.000 C 311.543 52.000,311.200 51.820,311.200 51.600 C 311.200 51.380,310.928 51.200,310.595 51.200 C 310.262 51.200,309.677 51.042,309.295 50.849 C 308.049 50.220,305.766 49.600,304.695 49.600 C 304.119 49.600,303.536 49.420,303.400 49.200 C 303.065 48.657,288.000 48.657,288.000 49.200 C 288.000 49.420,287.291 49.600,286.424 49.600 C 285.557 49.600,284.736 49.780,284.600 50.000 C 284.464 50.220,283.995 50.400,283.557 50.400 C 283.119 50.400,282.016 50.760,281.106 51.200 C 278.468 52.474,277.939 52.302,276.800 49.800 C 276.250 48.592,275.665 47.602,275.500 47.601 C 275.335 47.601,275.200 47.330,275.200 47.000 C 275.200 46.670,275.020 46.400,274.800 46.400 C 274.580 46.400,274.400 46.216,274.400 45.991 C 274.400 45.482,272.472 42.492,271.400 41.340 C 270.960 40.868,270.150 39.885,269.600 39.156 C 268.294 37.427,263.797 32.983,262.007 31.654 C 261.233 31.079,260.309 30.292,259.953 29.904 C 259.597 29.517,259.092 29.200,258.829 29.200 C 258.567 29.200,258.464 29.020,258.600 28.800 C 258.736 28.580,258.601 28.400,258.299 28.400 C 257.998 28.400,257.357 28.033,256.875 27.584 C 256.394 27.136,256.000 26.878,256.000 27.012 C 256.000 27.145,255.477 26.882,254.838 26.427 C 254.199 25.972,253.479 25.600,253.238 25.600 C 252.997 25.600,252.800 25.420,252.800 25.200 C 252.800 24.980,252.530 24.800,252.200 24.800 C 251.870 24.800,251.600 24.654,251.600 24.475 C 251.600 24.296,250.970 23.902,250.200 23.600 C 249.430 23.298,248.800 22.904,248.800 22.725 C 248.800 22.546,248.440 22.400,248.000 22.400 C 247.560 22.400,247.200 22.220,247.200 22.000 C 247.200 21.780,246.840 21.600,246.400 21.600 C 245.960 21.600,245.600 21.420,245.600 21.200 C 245.600 20.980,245.240 20.800,244.800 20.800 C 244.360 20.800,244.000 20.620,244.000 20.400 C 244.000 20.180,243.640 20.000,243.200 20.000 C 242.760 20.000,242.400 19.820,242.400 19.600 C 242.400 19.380,241.939 19.200,241.376 19.200 C 240.796 19.200,240.460 19.027,240.600 18.800 C 240.744 18.567,240.337 18.400,239.624 18.400 C 238.951 18.400,238.400 18.220,238.400 18.000 C 238.400 17.780,238.051 17.600,237.624 17.600 C 237.197 17.600,236.736 17.420,236.600 17.200 C 236.464 16.980,235.924 16.800,235.400 16.800 C 234.876 16.800,234.336 16.620,234.200 16.400 C 234.064 16.180,233.434 16.000,232.800 16.000 C 232.166 16.000,231.536 15.820,231.400 15.600 C 231.264 15.380,230.623 15.200,229.976 15.200 C 229.329 15.200,228.800 15.020,228.800 14.800 C 228.800 14.580,228.181 14.400,227.424 14.400 C 226.667 14.400,225.936 14.220,225.800 14.000 C 225.664 13.780,224.699 13.600,223.656 13.600 C 222.613 13.600,221.589 13.435,221.380 13.234 C 220.499 12.385,194.576 11.587,193.773 12.385 M138.250 177.500 C 135.660 181.027,131.955 184.839,129.000 187.016 C 128.120 187.665,127.310 188.295,127.200 188.416 C 126.931 188.711,124.256 190.279,121.800 191.579 C 117.238 193.995,111.494 195.754,106.703 196.203 C 102.394 196.607,102.428 196.544,104.391 200.581 C 105.320 202.491,106.163 203.970,106.265 203.868 C 106.367 203.766,105.717 202.224,104.821 200.441 L 103.191 197.200 105.516 197.200 C 106.794 197.200,108.011 197.038,108.220 196.841 C 108.429 196.644,109.320 196.380,110.200 196.256 C 113.589 195.778,114.815 195.499,115.027 195.156 C 115.148 194.960,115.687 194.800,116.224 194.800 C 116.761 194.800,117.200 194.620,117.200 194.400 C 117.200 194.180,117.472 194.000,117.805 194.000 C 118.138 194.000,118.723 193.839,119.105 193.642 C 119.487 193.445,121.015 192.698,122.500 191.982 C 123.985 191.266,125.200 190.527,125.200 190.340 C 125.200 190.153,125.390 190.000,125.622 190.000 C 127.651 190.000,136.247 181.965,139.694 176.846 L 141.126 174.721 144.463 178.062 C 146.298 179.900,149.150 182.473,150.800 183.781 C 152.450 185.089,153.890 186.267,154.000 186.400 C 154.110 186.533,155.092 187.262,156.182 188.021 C 158.414 189.574,159.426 190.349,160.264 191.148 C 160.580 191.449,160.953 191.581,161.092 191.441 C 161.407 191.126,161.466 191.177,156.600 187.584 C 152.256 184.377,147.119 179.947,143.522 176.306 C 140.728 173.478,141.299 173.348,138.250 177.500 M384.000 180.600 C 384.000 180.930,384.180 181.200,384.400 181.200 C 384.620 181.200,384.800 180.930,384.800 180.600 C 384.800 180.270,384.620 180.000,384.400 180.000 C 384.180 180.000,384.000 180.270,384.000 180.600 M384.806 182.876 C 384.818 183.881,385.587 184.708,385.594 183.724 C 385.597 183.242,385.420 182.736,385.200 182.600 C 384.980 182.464,384.803 182.588,384.806 182.876 M385.640 187.300 C 385.734 189.415,386.286 190.239,386.310 188.300 C 386.323 187.255,386.168 186.400,385.967 186.400 C 385.765 186.400,385.618 186.805,385.640 187.300 M385.900 192.229 C 385.735 192.396,385.600 193.259,385.600 194.147 C 385.600 195.291,385.724 195.636,386.027 195.333 C 386.262 195.098,386.397 194.235,386.327 193.415 C 386.257 192.595,386.065 192.061,385.900 192.229 M248.800 194.134 C 247.150 195.060,244.630 196.330,243.200 196.957 C 241.770 197.584,240.060 198.339,239.400 198.636 C 228.855 203.374,210.197 205.969,198.031 204.390 C 194.485 203.930,194.705 203.773,195.148 206.439 L 195.506 208.600 195.553 206.866 L 195.600 205.133 197.244 206.435 C 199.434 208.169,202.982 210.412,205.200 211.463 C 209.934 213.708,210.321 213.847,216.800 215.631 C 223.760 217.547,234.756 217.617,240.700 215.784 C 241.765 215.456,241.787 215.579,240.995 217.474 C 240.662 218.271,240.463 218.996,240.552 219.086 C 240.642 219.175,241.026 218.383,241.407 217.324 C 242.097 215.402,242.942 213.472,245.398 208.200 C 246.115 206.660,247.161 204.410,247.721 203.200 C 248.282 201.990,249.564 199.228,250.570 197.063 C 253.119 191.579,253.178 191.678,248.800 194.134 M385.012 198.517 C 384.841 198.912,384.813 199.347,384.951 199.484 C 385.357 199.890,385.684 199.320,385.497 198.531 C 385.332 197.833,385.310 197.832,385.012 198.517 M382.400 205.400 C 382.400 205.730,382.580 206.000,382.800 206.000 C 383.020 206.000,383.200 205.730,383.200 205.400 C 383.200 205.070,383.020 204.800,382.800 204.800 C 382.580 204.800,382.400 205.070,382.400 205.400 M380.248 209.061 C 379.665 209.644,379.272 210.205,379.375 210.308 C 379.565 210.498,380.156 209.961,381.149 208.698 C 381.975 207.648,381.450 207.859,380.248 209.061 M328.744 209.081 C 328.272 209.661,328.288 209.717,328.870 209.499 C 329.315 209.332,329.751 209.571,330.171 210.212 C 331.809 212.712,336.984 217.005,340.500 218.780 C 341.105 219.085,341.600 219.468,341.600 219.631 C 341.600 220.013,338.310 224.011,337.331 224.818 C 335.805 226.078,332.842 228.000,332.428 228.000 C 332.193 228.000,332.000 228.180,332.000 228.400 C 332.000 228.620,331.758 228.800,331.461 228.800 C 331.165 228.800,330.334 229.094,329.615 229.453 C 328.895 229.812,327.652 230.293,326.853 230.523 C 325.254 230.982,314.400 231.392,314.400 230.993 C 314.400 230.680,316.784 227.181,317.481 226.471 C 317.766 226.181,318.000 225.803,318.000 225.633 C 318.000 225.462,318.341 224.929,318.758 224.449 C 319.175 223.968,320.479 222.096,321.657 220.287 C 322.835 218.479,324.114 216.651,324.499 216.225 C 324.885 215.798,325.200 215.296,325.200 215.108 C 325.200 214.920,325.560 214.380,326.000 213.908 C 326.440 213.436,326.796 212.858,326.791 212.625 C 326.776 211.886,314.628 229.319,313.225 232.093 C 312.921 232.695,312.372 233.508,312.006 233.901 C 310.876 235.114,307.600 240.163,307.600 240.691 C 307.600 240.966,308.324 241.306,309.209 241.448 C 310.094 241.589,310.914 241.861,311.032 242.053 C 311.151 242.244,311.877 242.400,312.647 242.400 C 313.417 242.400,313.947 242.562,313.824 242.761 C 313.697 242.967,315.980 243.145,319.167 243.177 C 322.654 243.212,324.828 243.078,324.990 242.817 C 325.131 242.587,325.957 242.400,326.824 242.400 C 327.691 242.400,328.400 242.254,328.400 242.076 C 328.400 241.897,329.300 241.521,330.400 241.239 C 331.500 240.957,332.400 240.563,332.400 240.363 C 332.400 240.163,332.656 240.000,332.969 240.000 C 333.282 240.000,334.073 239.550,334.727 239.000 C 335.381 238.450,336.090 238.000,336.303 238.000 C 336.516 238.000,337.532 237.100,338.561 236.000 C 339.590 234.900,340.615 234.000,340.840 234.000 C 341.064 234.000,341.136 233.820,341.000 233.600 C 340.864 233.380,340.943 233.200,341.176 233.200 C 341.409 233.200,341.600 232.930,341.600 232.600 C 341.600 232.270,341.780 232.000,342.000 232.000 C 342.220 232.000,342.400 231.745,342.400 231.433 C 342.400 231.122,342.535 230.807,342.700 230.733 C 343.132 230.541,344.800 227.228,344.800 226.562 C 344.800 226.253,344.980 226.000,345.200 226.000 C 345.420 226.000,345.600 225.586,345.600 225.080 C 345.600 224.574,345.765 223.989,345.966 223.780 C 346.618 223.102,346.641 221.113,346.000 220.769 C 345.670 220.592,344.252 219.888,342.848 219.204 C 338.874 217.266,335.669 214.925,332.344 211.531 C 329.587 208.717,329.235 208.477,328.744 209.081 M195.882 211.000 C 196.009 212.100,196.177 213.075,196.256 213.167 C 196.555 213.514,196.328 210.564,195.997 209.800 C 195.774 209.285,195.733 209.713,195.882 211.000 M327.445 210.988 C 327.080 211.544,326.922 212.000,327.095 212.000 C 327.484 212.000,328.519 210.386,328.282 210.149 C 328.186 210.053,327.810 210.431,327.445 210.988 M376.628 213.400 C 375.787 214.170,375.275 214.800,375.489 214.800 C 375.915 214.800,377.091 213.797,377.950 212.700 C 378.811 211.601,378.293 211.875,376.628 213.400 M196.893 216.400 C 196.893 217.170,196.975 217.485,197.076 217.100 C 197.176 216.715,197.176 216.085,197.076 215.700 C 196.975 215.315,196.893 215.630,196.893 216.400 M239.062 221.700 C 236.593 227.092,236.257 227.819,236.110 228.100 C 236.024 228.265,236.044 228.400,236.156 228.400 C 236.344 228.400,237.688 225.681,239.420 221.800 C 239.813 220.920,240.205 220.065,240.291 219.900 C 240.377 219.735,240.352 219.600,240.235 219.600 C 240.119 219.600,239.591 220.545,239.062 221.700 M75.766 220.900 C 75.895 221.175,76.111 221.715,76.246 222.100 C 76.382 222.485,76.657 222.800,76.857 222.800 C 77.057 222.800,76.941 222.260,76.600 221.600 C 76.011 220.462,75.273 219.842,75.766 220.900 M360.800 222.000 C 360.315 222.314,360.372 222.389,361.100 222.394 C 361.595 222.397,362.000 222.220,362.000 222.000 C 362.000 221.499,361.576 221.499,360.800 222.000 M353.705 222.687 C 354.314 222.779,355.214 222.777,355.705 222.682 C 356.197 222.587,355.700 222.511,354.600 222.514 C 353.500 222.517,353.097 222.595,353.705 222.687 M77.200 223.454 C 77.200 224.096,78.178 225.994,78.510 225.997 C 78.681 225.999,78.523 225.415,78.159 224.700 C 77.379 223.165,77.200 222.933,77.200 223.454 M235.265 229.817 C 234.595 231.288,234.723 231.602,235.447 230.265 C 235.786 229.640,235.988 229.054,235.896 228.963 C 235.805 228.871,235.521 229.256,235.265 229.817 " stroke="none" fill="#4a811c" fill-rule="evenodd"></path><path id="path2" d="M59.425 138.478 C 57.807 143.818,57.540 145.561,57.325 152.200 C 57.139 157.938,57.308 159.708,58.475 164.200 C 58.704 165.080,59.034 166.160,59.208 166.600 C 59.383 167.040,59.827 168.210,60.196 169.200 C 64.258 180.114,74.129 189.675,85.800 194.004 C 86.240 194.167,87.103 194.503,87.719 194.750 C 88.334 194.998,89.243 195.200,89.739 195.200 C 90.234 195.200,90.811 195.363,91.020 195.561 C 91.432 195.953,93.498 196.242,98.796 196.649 C 101.209 196.835,102.339 197.097,102.697 197.555 C 103.158 198.144,103.182 198.143,102.972 197.536 C 102.697 196.741,103.237 196.553,106.800 196.201 C 111.469 195.740,117.383 193.918,121.800 191.579 C 124.256 190.279,126.931 188.711,127.200 188.416 C 127.310 188.295,128.120 187.665,129.000 187.016 C 131.955 184.839,135.660 181.027,138.250 177.500 C 141.299 173.348,140.728 173.478,143.522 176.306 C 148.335 181.178,161.473 191.840,164.000 192.924 C 164.330 193.066,165.500 193.722,166.600 194.382 C 168.549 195.552,172.190 197.376,173.800 197.988 C 175.030 198.457,176.497 199.049,177.600 199.522 C 179.653 200.403,186.736 202.391,190.600 203.170 C 196.217 204.303,197.947 204.492,204.485 204.691 C 216.810 205.067,230.292 202.728,239.400 198.636 C 240.060 198.339,241.770 197.584,243.200 196.957 C 244.630 196.330,247.205 195.044,248.923 194.099 C 250.640 193.154,252.204 192.479,252.398 192.599 C 252.592 192.719,252.897 192.574,253.075 192.276 C 253.254 191.979,254.840 190.760,256.600 189.568 C 260.711 186.782,262.662 185.316,264.400 183.705 C 266.216 182.021,265.809 181.848,270.081 186.114 C 273.830 189.858,276.208 192.000,276.613 192.000 C 276.734 192.000,277.220 192.360,277.692 192.800 C 278.164 193.240,278.787 193.600,279.075 193.600 C 279.364 193.600,279.600 193.780,279.600 194.000 C 279.600 194.220,279.855 194.400,280.167 194.400 C 280.478 194.400,280.793 194.544,280.867 194.719 C 281.046 195.148,287.773 198.400,288.481 198.400 C 288.788 198.400,289.211 198.549,289.420 198.730 C 293.170 201.992,312.465 202.246,320.946 199.147 C 323.996 198.032,325.200 198.561,325.200 201.019 C 325.200 201.338,325.380 201.600,325.600 201.600 C 325.820 201.600,326.004 201.915,326.009 202.300 C 326.014 202.685,326.370 203.450,326.800 204.000 C 327.230 204.550,327.586 205.148,327.591 205.328 C 327.675 208.419,337.992 217.248,345.200 220.397 C 346.846 221.117,348.008 221.859,347.804 222.062 C 347.435 222.431,359.881 222.376,361.033 222.004 C 361.675 221.796,363.055 221.401,364.100 221.126 C 365.145 220.851,366.000 220.455,366.000 220.246 C 366.000 220.037,366.112 219.979,366.250 220.116 C 366.387 220.253,367.242 219.971,368.150 219.489 C 369.057 219.006,370.033 218.608,370.317 218.602 C 370.601 218.597,370.961 218.406,371.117 218.177 C 371.273 217.949,372.030 217.321,372.800 216.784 C 374.552 215.560,379.200 211.008,379.200 210.517 C 379.200 209.970,380.803 208.355,381.139 208.562 C 381.299 208.661,381.470 208.260,381.519 207.671 C 381.567 207.082,381.785 206.540,382.003 206.467 C 382.222 206.393,382.400 205.988,382.400 205.567 C 382.400 205.145,382.580 204.800,382.800 204.800 C 383.020 204.800,383.200 204.440,383.200 204.000 C 383.200 203.560,383.380 203.200,383.600 203.200 C 383.820 203.200,384.000 202.761,384.000 202.224 C 384.000 201.687,384.180 201.136,384.400 201.000 C 384.620 200.864,384.800 200.234,384.800 199.600 C 384.800 198.966,384.980 198.336,385.200 198.200 C 385.420 198.064,385.600 196.733,385.600 195.243 C 385.600 193.753,385.734 192.399,385.898 192.235 C 386.265 191.868,386.303 188.014,385.937 188.239 C 385.792 188.328,385.578 187.456,385.461 186.301 C 385.122 182.960,384.740 181.200,384.356 181.200 C 384.160 181.200,384.000 180.898,384.000 180.528 C 384.000 179.501,383.085 177.200,382.677 177.200 C 382.478 177.200,382.416 176.936,382.540 176.613 C 383.370 174.449,381.282 175.666,379.044 178.650 C 364.455 198.107,333.753 192.682,324.997 169.100 C 324.210 166.981,323.916 166.884,321.200 167.855 C 314.955 170.087,304.748 171.075,299.120 169.992 C 291.646 168.555,289.567 167.928,284.509 165.585 C 279.526 163.276,275.463 160.297,270.566 155.361 L 266.131 150.890 263.166 153.289 C 251.413 162.795,239.318 168.499,223.000 172.230 C 215.526 173.939,198.713 173.936,191.400 172.225 C 186.366 171.048,184.616 170.580,181.655 169.624 C 168.027 165.221,156.331 157.822,144.146 145.894 L 140.892 142.709 139.184 145.224 C 133.787 153.171,124.637 160.057,115.400 163.124 C 105.810 166.307,96.077 166.303,86.600 163.112 C 75.543 159.389,66.252 151.138,61.114 140.478 C 59.890 137.940,59.668 137.677,59.425 138.478 M312.304 232.844 C 311.701 233.700,311.341 234.398,311.504 234.395 C 311.835 234.390,313.731 231.591,313.529 231.406 C 313.458 231.341,312.907 231.988,312.304 232.844 M88.000 244.287 C 88.000 244.543,88.180 244.864,88.400 245.000 C 88.620 245.136,88.825 245.732,88.854 246.324 C 88.902 247.257,88.932 247.281,89.081 246.506 C 89.176 246.015,88.972 245.210,88.627 244.717 C 88.282 244.225,88.000 244.031,88.000 244.287 " stroke="none" fill="#63ab2b" fill-rule="evenodd"></path><path id="path3" d="M324.013 59.500 C 324.019 59.665,324.514 60.146,325.113 60.568 L 326.200 61.336 325.230 60.268 C 324.211 59.146,323.992 59.007,324.013 59.500 M79.035 63.003 C 78.395 63.553,77.958 64.091,78.065 64.198 C 78.171 64.304,78.774 63.854,79.404 63.196 C 80.799 61.739,80.616 61.643,79.035 63.003 M62.800 103.310 C 62.800 103.883,62.987 104.468,63.216 104.610 C 63.489 104.779,63.538 104.477,63.360 103.734 C 62.992 102.201,62.800 102.056,62.800 103.310 M49.400 111.600 C 49.264 111.820,48.454 112.000,47.600 112.000 C 46.746 112.000,45.936 112.180,45.800 112.400 C 45.664 112.620,45.034 112.800,44.400 112.800 C 43.766 112.800,43.136 112.980,43.000 113.200 C 42.864 113.420,42.403 113.600,41.976 113.600 C 41.549 113.600,41.200 113.780,41.200 114.000 C 41.200 114.220,40.660 114.400,40.000 114.400 C 39.340 114.400,38.799 114.535,38.797 114.700 C 38.794 115.014,36.894 116.000,36.292 116.000 C 36.100 116.000,35.673 116.270,35.343 116.600 C 35.013 116.930,34.936 117.200,35.171 117.200 C 35.880 117.200,35.658 118.711,34.655 120.713 C 26.009 137.984,31.538 160.439,47.450 172.688 C 50.530 175.058,57.754 178.800,59.252 178.800 C 59.637 178.800,60.064 178.980,60.200 179.200 C 60.336 179.420,60.898 179.600,61.450 179.600 C 62.001 179.600,62.810 179.791,63.247 180.025 C 65.283 181.115,65.693 180.316,64.183 178.200 C 62.584 175.959,60.000 170.984,60.000 170.146 C 60.000 169.846,59.820 169.600,59.600 169.600 C 59.380 169.600,59.200 169.161,59.200 168.624 C 59.200 168.087,59.020 167.536,58.800 167.400 C 58.580 167.264,58.400 166.724,58.400 166.200 C 58.400 165.676,58.239 165.148,58.042 165.026 C 56.762 164.235,56.037 145.319,57.257 144.565 C 57.446 144.448,57.600 143.643,57.600 142.776 C 57.600 141.909,57.780 141.200,58.000 141.200 C 58.220 141.200,58.400 140.570,58.400 139.800 C 58.400 139.030,58.536 138.400,58.702 138.400 C 58.869 138.400,59.248 137.815,59.545 137.100 C 61.679 131.966,64.653 126.870,67.636 123.235 C 68.730 121.903,68.742 121.837,68.131 120.435 C 67.787 119.646,67.066 117.830,66.529 116.400 C 65.992 114.970,65.265 113.215,64.913 112.500 L 64.274 111.200 56.961 111.200 C 52.516 111.200,49.550 111.357,49.400 111.600 M372.000 112.264 C 372.000 112.482,372.495 113.097,373.100 113.630 L 374.200 114.600 373.200 113.400 C 372.650 112.740,372.155 112.125,372.100 112.033 C 372.045 111.942,372.000 112.045,372.000 112.264 M26.778 123.099 L 25.400 124.598 26.800 123.402 C 27.570 122.744,28.371 122.070,28.580 121.903 C 28.816 121.715,28.808 121.600,28.558 121.600 C 28.338 121.600,27.537 122.275,26.778 123.099 M384.302 148.600 C 384.197 149.150,384.266 149.600,384.455 149.600 C 384.645 149.600,384.800 149.150,384.800 148.600 C 384.800 148.050,384.731 147.600,384.647 147.600 C 384.562 147.600,384.407 148.050,384.302 148.600 M13.628 159.300 C 13.613 159.905,13.780 160.400,14.000 160.400 C 14.469 160.400,14.469 160.093,14.000 159.000 C 13.695 158.291,13.653 158.325,13.628 159.300 M139.886 176.564 C 136.838 181.390,127.697 190.000,125.622 190.000 C 125.390 190.000,125.200 190.153,125.200 190.340 C 125.200 190.527,123.985 191.266,122.500 191.982 C 121.015 192.698,119.487 193.445,119.105 193.642 C 118.723 193.839,118.138 194.000,117.805 194.000 C 117.472 194.000,117.200 194.180,117.200 194.400 C 117.200 194.620,116.761 194.800,116.224 194.800 C 115.687 194.800,115.148 194.960,115.027 195.156 C 114.813 195.503,113.853 195.732,110.600 196.213 C 109.720 196.343,108.640 196.615,108.200 196.817 C 107.760 197.019,106.480 197.233,105.355 197.292 L 103.310 197.400 106.534 204.000 C 108.307 207.630,109.902 210.660,110.079 210.733 C 110.256 210.807,110.400 211.094,110.400 211.371 C 110.400 211.649,110.760 212.202,111.200 212.600 C 111.640 212.998,112.000 213.532,112.000 213.787 C 112.000 214.042,112.630 214.498,113.400 214.800 C 114.170 215.102,114.800 215.496,114.800 215.675 C 114.800 215.854,115.250 216.000,115.800 216.000 C 116.350 216.000,116.800 216.180,116.800 216.400 C 116.800 216.620,117.340 216.800,118.000 216.800 C 118.660 216.800,119.200 216.980,119.200 217.200 C 119.200 217.420,119.920 217.600,120.800 217.600 C 121.680 217.600,122.400 217.780,122.400 218.000 C 122.400 218.249,124.733 218.400,128.600 218.400 C 132.467 218.400,134.800 218.249,134.800 218.000 C 134.800 217.780,135.520 217.600,136.400 217.600 C 137.280 217.600,138.000 217.420,138.000 217.200 C 138.000 216.980,138.529 216.800,139.176 216.800 C 139.823 216.800,140.464 216.620,140.600 216.400 C 140.736 216.180,141.197 216.000,141.624 216.000 C 142.051 216.000,142.400 215.820,142.400 215.600 C 142.400 215.380,142.760 215.200,143.200 215.200 C 143.640 215.200,144.000 215.020,144.000 214.800 C 144.000 214.580,144.360 214.400,144.800 214.400 C 145.240 214.400,145.600 214.220,145.600 214.000 C 145.600 213.780,145.920 213.600,146.312 213.600 C 146.703 213.600,147.283 213.240,147.600 212.800 C 147.917 212.360,148.412 212.000,148.699 212.000 C 149.365 212.000,155.991 205.720,155.997 205.083 C 155.999 204.909,156.360 204.380,156.800 203.908 C 157.240 203.436,157.600 202.813,157.600 202.525 C 157.600 202.236,157.772 202.000,157.982 202.000 C 158.192 202.000,158.482 201.368,158.627 200.596 C 158.772 199.823,159.050 199.093,159.245 198.972 C 159.440 198.851,159.600 198.418,159.600 198.010 C 159.600 197.601,159.753 197.207,159.941 197.133 C 160.128 197.060,160.401 195.801,160.548 194.336 C 160.860 191.221,160.933 191.327,156.182 188.021 C 155.092 187.262,154.110 186.533,154.000 186.400 C 153.890 186.267,152.450 185.089,150.800 183.781 C 149.150 182.473,146.316 179.918,144.502 178.102 C 140.612 174.207,141.243 174.417,139.886 176.564 M25.401 184.368 C 26.835 186.106,29.707 188.800,30.125 188.800 C 30.349 188.800,30.458 188.747,30.367 188.682 C 30.275 188.617,28.940 187.402,27.401 185.982 C 25.861 184.562,24.961 183.836,25.401 184.368 M31.633 190.149 C 32.045 190.517,34.400 191.600,34.400 191.421 C 34.400 191.190,32.182 190.000,31.753 190.000 C 31.596 190.000,31.542 190.067,31.633 190.149 M50.806 198.732 C 49.391 203.753,49.321 210.807,50.636 216.000 C 51.224 218.321,54.511 225.890,55.153 226.400 C 55.291 226.510,55.937 227.314,56.589 228.187 C 62.298 235.836,73.317 241.200,83.324 241.200 C 86.460 241.200,86.651 242.018,81.069 231.539 C 79.821 229.196,78.800 226.991,78.800 226.639 C 78.800 226.288,78.665 225.999,78.500 225.997 C 78.141 225.993,77.200 224.056,77.200 223.320 C 77.200 223.034,77.054 222.800,76.875 222.800 C 76.696 222.800,76.302 222.170,76.000 221.400 C 75.698 220.630,75.304 220.000,75.125 220.000 C 74.946 220.000,74.800 219.640,74.800 219.200 C 74.800 218.760,74.620 218.400,74.400 218.400 C 74.180 218.400,74.000 218.055,74.000 217.633 C 74.000 217.212,73.865 216.807,73.700 216.733 C 73.535 216.660,72.952 215.700,72.405 214.600 C 71.858 213.500,71.314 212.510,71.196 212.400 C 71.077 212.290,70.179 210.580,69.200 208.600 C 68.221 206.620,67.317 204.910,67.191 204.800 C 67.065 204.690,66.161 202.950,65.181 200.934 L 63.400 197.268 57.310 197.266 L 51.220 197.264 50.806 198.732 M195.600 206.820 C 195.600 207.748,195.766 209.158,195.969 209.954 C 196.171 210.749,196.537 212.660,196.781 214.200 C 197.467 218.529,198.096 221.363,198.464 221.780 C 198.649 221.989,198.800 222.455,198.800 222.816 C 198.800 223.569,201.320 226.000,202.101 226.000 C 202.388 226.000,202.883 226.360,203.200 226.800 C 203.517 227.240,204.014 227.600,204.305 227.600 C 204.596 227.600,205.220 227.960,205.692 228.400 C 206.164 228.840,206.787 229.200,207.075 229.200 C 207.364 229.200,207.600 229.380,207.600 229.600 C 207.600 229.820,207.924 230.000,208.320 230.000 C 209.214 230.000,211.193 230.894,211.197 231.300 C 211.199 231.465,211.740 231.600,212.400 231.600 C 213.060 231.600,213.600 231.780,213.600 232.000 C 213.600 232.220,214.320 232.400,215.200 232.400 C 216.080 232.400,216.800 232.580,216.800 232.800 C 216.800 233.052,219.533 233.200,224.200 233.200 C 228.867 233.200,231.600 233.052,231.600 232.800 C 231.600 232.580,232.010 232.400,232.511 232.400 C 233.752 232.400,234.610 231.289,236.492 227.242 C 237.373 225.349,238.770 222.360,239.596 220.600 C 241.796 215.911,241.914 215.415,240.746 215.772 C 236.056 217.208,228.048 217.564,221.965 216.608 C 217.977 215.981,215.725 215.444,211.349 214.075 C 207.162 212.766,201.073 209.468,197.244 206.435 L 195.600 205.133 195.600 206.820 M328.900 209.480 C 328.625 209.582,328.400 209.888,328.400 210.158 C 328.400 210.428,328.085 210.998,327.700 211.425 C 327.315 211.851,326.745 212.695,326.432 213.300 C 326.120 213.905,325.715 214.400,325.532 214.400 C 325.350 214.400,325.200 214.636,325.200 214.925 C 325.200 215.213,324.885 215.798,324.499 216.225 C 324.114 216.651,322.835 218.479,321.657 220.287 C 320.479 222.096,319.175 223.968,318.758 224.449 C 318.341 224.929,318.000 225.462,318.000 225.633 C 318.000 225.803,317.766 226.181,317.481 226.471 C 316.784 227.181,314.400 230.680,314.400 230.993 C 314.400 231.392,325.254 230.982,326.853 230.523 C 327.652 230.293,328.895 229.812,329.615 229.453 C 330.334 229.094,331.165 228.800,331.461 228.800 C 331.758 228.800,332.000 228.620,332.000 228.400 C 332.000 228.180,332.193 228.000,332.428 228.000 C 332.842 228.000,335.805 226.078,337.331 224.818 C 338.310 224.011,341.600 220.013,341.600 219.631 C 341.600 219.468,341.105 219.085,340.500 218.780 C 337.093 217.059,332.403 213.212,330.187 210.320 C 329.754 209.755,329.175 209.377,328.900 209.480 M353.905 223.083 C 354.402 223.179,355.122 223.175,355.505 223.075 C 355.887 222.975,355.480 222.896,354.600 222.901 C 353.720 222.905,353.407 222.987,353.905 223.083 " stroke="none" fill="#304d14" fill-rule="evenodd"></path><path id="path4" d="M264.391 183.703 C 262.453 185.487,260.372 187.048,256.514 189.615 C 254.225 191.137,253.028 192.225,252.568 193.200 C 251.402 195.668,249.709 199.342,248.789 201.400 C 248.297 202.500,247.004 205.290,245.916 207.600 C 244.827 209.910,243.484 212.880,242.931 214.200 C 241.687 217.167,240.054 220.705,237.760 225.403 C 236.792 227.385,236.000 229.203,236.000 229.445 C 236.000 229.686,235.550 230.369,235.000 230.962 C 234.450 231.556,234.000 232.380,234.000 232.794 C 234.000 233.207,233.640 233.660,233.200 233.800 C 232.760 233.940,232.400 234.232,232.400 234.451 C 232.400 234.669,232.580 234.736,232.800 234.600 C 233.020 234.464,233.200 234.531,233.200 234.749 C 233.200 234.968,232.840 235.260,232.400 235.400 C 231.960 235.540,231.600 235.922,231.600 236.251 C 231.600 236.579,231.780 236.736,232.000 236.600 C 232.220 236.464,232.400 236.530,232.400 236.747 C 232.400 236.964,232.114 237.200,231.764 237.271 C 231.415 237.342,230.881 237.992,230.577 238.716 C 230.274 239.439,230.187 239.932,230.385 239.809 C 230.583 239.687,230.858 239.770,230.996 239.993 C 231.134 240.217,230.922 240.401,230.524 240.401 C 230.042 240.402,229.455 241.126,228.772 242.561 C 228.123 243.922,227.939 244.645,228.272 244.517 C 228.562 244.406,228.800 244.514,228.800 244.757 C 228.800 245.001,228.607 245.200,228.371 245.200 C 227.929 245.200,226.800 246.176,226.800 246.559 C 226.800 246.678,227.070 246.671,227.400 246.545 C 227.730 246.418,228.000 246.514,228.000 246.757 C 228.000 247.001,227.604 247.200,227.120 247.200 C 226.436 247.200,226.347 247.307,226.720 247.680 C 227.303 248.263,227.363 249.348,226.793 248.996 C 226.570 248.858,226.491 248.577,226.617 248.372 C 226.744 248.168,226.676 248.000,226.466 248.000 C 225.913 248.000,225.477 249.359,225.977 249.526 C 226.495 249.698,226.544 250.800,226.033 250.800 C 225.832 250.800,225.595 250.584,225.507 250.320 C 225.407 250.020,225.249 250.095,225.086 250.520 C 224.942 250.894,224.999 251.200,225.213 251.200 C 225.426 251.200,225.600 251.470,225.600 251.800 C 225.600 252.130,225.347 252.400,225.037 252.400 C 224.672 252.400,224.548 252.680,224.684 253.200 C 224.801 253.647,224.696 254.000,224.447 254.000 C 224.201 254.000,224.000 254.461,224.000 255.024 C 224.000 255.604,223.827 255.940,223.600 255.800 C 223.373 255.660,223.200 255.996,223.200 256.576 C 223.200 257.139,223.033 257.600,222.828 257.600 C 222.623 257.600,222.398 258.005,222.328 258.500 C 222.237 259.141,221.970 259.366,221.400 259.283 C 220.787 259.194,220.730 259.254,221.158 259.543 C 221.526 259.791,221.607 260.172,221.395 260.660 C 221.218 261.067,221.103 261.539,221.139 261.709 C 221.176 261.879,220.755 262.189,220.203 262.399 C 219.651 262.609,219.200 262.885,219.200 263.014 C 219.200 263.142,219.368 263.144,219.572 263.017 C 219.777 262.891,220.044 262.948,220.166 263.145 C 220.441 263.589,219.273 266.000,218.783 266.000 C 218.586 266.000,218.517 266.238,218.628 266.529 C 218.740 266.821,218.284 268.099,217.616 269.370 C 216.947 270.641,216.400 271.933,216.400 272.241 C 216.400 272.548,216.220 272.800,216.000 272.800 C 215.780 272.800,215.600 273.053,215.600 273.362 C 215.600 273.671,215.262 274.616,214.850 275.462 C 214.437 276.308,213.567 278.170,212.917 279.600 C 212.267 281.030,211.230 283.307,210.613 284.660 C 209.791 286.463,209.567 287.424,209.773 288.260 C 209.928 288.887,210.223 290.345,210.428 291.500 C 210.632 292.655,210.980 294.590,211.200 295.800 C 211.420 297.010,211.762 298.945,211.959 300.100 C 213.928 311.605,221.101 309.830,226.910 296.400 C 227.243 295.630,227.914 294.100,228.400 293.000 C 228.886 291.900,229.554 290.370,229.883 289.600 C 230.212 288.830,230.638 287.840,230.830 287.400 C 233.667 280.875,234.820 278.221,236.649 274.000 C 237.840 271.250,239.153 268.280,239.566 267.400 C 239.979 266.520,240.625 265.080,241.002 264.200 C 241.379 263.320,241.938 262.077,242.244 261.439 C 242.550 260.800,242.800 260.035,242.800 259.739 C 242.800 259.442,242.980 259.200,243.200 259.200 C 243.420 259.200,243.600 258.928,243.600 258.595 C 243.600 258.262,243.760 257.677,243.956 257.295 C 244.152 256.913,244.713 255.700,245.204 254.600 C 245.694 253.500,246.433 251.908,246.847 251.062 C 247.261 250.216,247.600 249.369,247.600 249.180 C 247.600 248.991,248.127 247.703,248.772 246.318 C 249.416 244.933,250.517 242.450,251.219 240.800 C 251.920 239.150,252.812 237.080,253.201 236.200 C 253.591 235.320,254.307 233.700,254.793 232.600 C 255.279 231.500,255.929 230.077,256.238 229.439 C 256.547 228.800,256.800 228.035,256.800 227.739 C 256.800 227.442,256.980 227.200,257.200 227.200 C 257.420 227.200,257.600 226.928,257.600 226.595 C 257.600 226.262,257.760 225.677,257.956 225.295 C 258.152 224.913,258.692 223.745,259.156 222.700 C 259.620 221.655,260.341 220.035,260.758 219.100 C 261.176 218.165,261.787 216.770,262.116 216.000 C 262.446 215.230,263.076 213.790,263.515 212.800 C 263.955 211.810,265.519 208.210,266.990 204.800 C 270.353 197.005,270.701 196.206,271.692 194.000 C 273.600 189.755,273.374 189.934,275.069 191.333 C 277.981 193.735,284.592 197.590,286.800 198.173 C 287.350 198.318,286.270 197.672,284.400 196.736 C 282.530 195.801,280.940 194.892,280.867 194.718 C 280.793 194.543,280.478 194.400,280.167 194.400 C 279.855 194.400,279.600 194.220,279.600 194.000 C 279.600 193.780,279.364 193.600,279.075 193.600 C 278.787 193.600,278.164 193.240,277.692 192.800 C 277.220 192.360,276.734 192.000,276.613 192.000 C 276.208 192.000,273.830 189.858,270.081 186.114 C 265.809 181.848,266.219 182.022,264.391 183.703 M77.200 192.200 C 76.430 192.725,75.653 193.164,75.474 193.177 C 75.295 193.190,74.215 193.624,73.074 194.143 C 71.933 194.661,70.010 195.310,68.800 195.585 C 67.590 195.859,66.008 196.335,65.285 196.643 L 63.969 197.202 66.836 202.701 C 71.221 211.114,75.191 218.807,78.447 225.200 C 80.071 228.390,81.495 231.090,81.611 231.200 C 81.727 231.310,82.805 233.380,84.007 235.800 C 85.209 238.220,86.869 241.440,87.696 242.955 C 88.523 244.471,89.200 245.966,89.200 246.279 C 89.200 246.592,89.364 246.746,89.564 246.622 C 89.940 246.390,92.000 250.157,92.000 251.079 C 92.000 251.365,92.180 251.600,92.400 251.600 C 92.620 251.600,92.800 251.960,92.800 252.400 C 92.800 252.840,92.935 253.201,93.100 253.201 C 93.265 253.202,93.850 254.192,94.400 255.400 C 94.950 256.608,95.535 257.598,95.700 257.599 C 95.865 257.599,96.000 257.960,96.000 258.400 C 96.000 258.840,96.180 259.200,96.400 259.200 C 96.975 259.200,96.894 260.292,96.300 260.555 C 96.025 260.677,96.111 260.737,96.492 260.688 C 97.252 260.591,97.707 261.301,100.667 267.200 C 101.716 269.290,102.715 271.060,102.887 271.133 C 103.059 271.207,103.200 271.612,103.200 272.033 C 103.200 272.455,103.359 272.800,103.553 272.800 C 103.880 272.800,104.454 274.061,104.557 275.000 C 104.580 275.220,104.852 275.598,105.161 275.839 C 105.470 276.081,105.594 276.486,105.438 276.739 C 105.281 276.993,105.321 277.200,105.527 277.200 C 106.009 277.200,108.825 282.642,108.507 282.960 C 108.375 283.092,108.465 283.200,108.707 283.200 C 108.950 283.200,109.376 283.830,109.654 284.600 C 109.933 285.370,110.305 286.000,110.480 286.000 C 110.656 286.000,110.800 286.360,110.800 286.800 C 110.800 287.240,110.935 287.601,111.100 287.603 C 111.451 287.607,112.400 289.537,112.400 290.246 C 112.400 290.514,112.536 290.793,112.702 290.867 C 112.868 290.940,113.632 292.260,114.400 293.800 C 115.168 295.340,115.932 296.660,116.098 296.733 C 116.264 296.807,116.400 297.212,116.400 297.633 C 116.400 298.055,116.580 298.400,116.800 298.400 C 117.020 298.400,117.200 298.760,117.200 299.200 C 117.200 299.640,117.335 300.001,117.500 300.003 C 117.818 300.006,118.800 301.909,118.800 302.523 C 118.800 302.722,118.521 302.778,118.179 302.647 C 117.801 302.502,117.661 302.575,117.820 302.832 C 117.963 303.064,118.349 303.152,118.677 303.026 C 119.056 302.880,119.351 303.090,119.484 303.598 C 119.599 304.039,119.852 304.400,120.047 304.400 C 120.241 304.400,120.400 304.620,120.400 304.889 C 120.400 305.526,124.888 314.559,125.291 314.733 C 125.461 314.807,125.600 315.212,125.600 315.633 C 125.600 316.055,125.780 316.400,126.000 316.400 C 126.578 316.400,126.493 317.891,125.900 318.163 C 125.625 318.289,125.760 318.307,126.200 318.202 C 126.850 318.047,127.188 318.423,128.000 320.204 C 128.550 321.410,129.156 322.398,129.347 322.399 C 129.537 322.399,129.610 322.834,129.509 323.363 C 129.395 323.959,129.492 324.263,129.763 324.159 C 130.327 323.943,131.351 326.232,130.968 326.852 C 130.779 327.157,130.849 327.217,131.165 327.022 C 131.476 326.829,131.734 327.025,131.874 327.560 C 131.994 328.022,132.252 328.400,132.447 328.400 C 132.641 328.400,132.800 328.745,132.800 329.167 C 132.800 329.588,132.937 329.993,133.104 330.067 C 133.271 330.140,134.211 331.820,135.194 333.800 C 136.177 335.780,137.143 337.515,137.342 337.655 C 137.540 337.796,137.578 338.112,137.426 338.358 C 137.274 338.604,137.414 338.907,137.739 339.032 C 138.591 339.359,139.190 341.930,138.360 341.700 C 138.162 341.645,138.000 341.792,138.000 342.027 C 138.000 342.272,138.341 342.346,138.800 342.200 C 139.387 342.014,139.600 342.128,139.600 342.629 C 139.600 343.005,139.915 343.553,140.300 343.848 C 140.912 344.317,140.925 344.435,140.400 344.786 C 139.919 345.108,139.910 345.189,140.356 345.194 C 141.057 345.202,141.971 346.381,141.987 347.300 C 141.994 347.685,142.135 348.001,142.300 348.001 C 142.465 348.002,143.050 348.992,143.600 350.200 C 144.150 351.408,144.735 352.398,144.900 352.399 C 145.065 352.399,145.200 352.760,145.200 353.200 C 145.200 353.640,145.380 354.000,145.600 354.000 C 145.820 354.000,146.000 354.360,146.000 354.800 C 146.000 355.240,146.180 355.600,146.400 355.600 C 146.620 355.600,146.800 355.945,146.800 356.367 C 146.800 356.788,146.937 357.193,147.104 357.267 C 147.271 357.340,148.211 359.020,149.194 361.000 C 150.177 362.980,151.075 364.690,151.190 364.800 C 151.732 365.317,152.405 366.869,152.218 367.171 C 152.103 367.357,152.275 367.730,152.600 368.000 C 152.925 368.270,153.105 368.630,153.000 368.800 C 152.895 368.970,153.075 369.330,153.400 369.600 C 153.725 369.870,153.907 370.226,153.805 370.392 C 153.703 370.558,153.975 371.015,154.409 371.409 C 154.844 371.802,155.200 372.294,155.200 372.502 C 155.200 373.070,160.529 379.136,161.058 379.170 C 161.309 379.187,162.093 379.740,162.800 380.400 C 163.507 381.060,164.233 381.600,164.414 381.600 C 164.595 381.600,164.981 381.831,165.271 382.113 C 165.562 382.396,166.847 383.135,168.127 383.756 C 169.906 384.619,170.394 385.039,170.203 385.542 C 170.002 386.069,170.053 386.101,170.456 385.700 C 171.240 384.922,172.400 385.087,172.400 385.976 C 172.400 386.403,172.584 386.867,172.810 387.006 C 173.035 387.145,173.170 387.021,173.110 386.730 C 172.903 385.735,175.066 385.846,175.327 386.844 C 175.519 387.575,175.664 387.645,176.150 387.241 C 176.923 386.600,180.237 386.817,180.100 387.500 C 180.021 387.895,184.373 388.000,200.800 388.000 C 217.227 388.000,221.579 387.895,221.500 387.500 C 221.428 387.139,222.097 387.011,223.900 387.039 C 225.748 387.067,226.400 386.937,226.400 386.539 C 226.400 386.190,226.893 386.000,227.800 386.000 C 228.570 386.000,229.200 385.820,229.200 385.600 C 229.200 385.061,230.531 385.091,231.083 385.643 C 231.406 385.966,231.508 385.886,231.463 385.343 C 231.421 384.853,231.706 384.557,232.300 384.472 C 232.795 384.402,233.200 384.177,233.200 383.972 C 233.200 383.767,233.425 383.599,233.700 383.598 C 233.975 383.597,234.867 383.192,235.683 382.698 L 237.166 381.800 213.883 381.800 C 189.017 381.800,189.204 381.813,183.400 379.616 C 181.698 378.972,177.613 376.838,177.200 376.377 C 177.090 376.254,176.606 375.885,176.124 375.556 C 171.398 372.332,168.098 368.176,164.408 360.801 C 162.921 357.830,160.512 353.105,159.053 350.300 C 153.165 338.980,150.972 334.733,148.054 329.000 C 146.374 325.700,144.910 322.910,144.800 322.800 C 144.334 322.334,143.600 320.767,143.600 320.239 C 143.600 319.924,143.464 319.607,143.299 319.533 C 143.133 319.460,142.084 317.600,140.967 315.400 C 139.850 313.200,138.030 309.690,136.922 307.600 C 135.814 305.510,133.237 300.560,131.196 296.600 C 129.155 292.640,126.455 287.420,125.195 285.000 C 120.066 275.147,117.548 270.264,114.160 263.600 C 112.202 259.750,110.465 256.540,110.300 256.467 C 110.135 256.393,110.000 256.003,110.000 255.600 C 110.000 255.197,109.864 254.807,109.699 254.733 C 109.533 254.660,108.482 252.800,107.364 250.600 C 106.246 248.400,103.972 243.990,102.311 240.800 C 100.649 237.610,97.805 232.120,95.991 228.600 C 94.176 225.080,91.847 220.580,90.816 218.600 C 77.324 192.706,77.419 192.901,78.005 192.194 C 78.673 191.389,78.914 191.426,81.743 192.755 C 85.852 194.686,91.516 196.435,91.010 195.616 C 90.868 195.387,90.322 195.200,89.795 195.200 C 89.269 195.200,88.334 194.998,87.719 194.750 C 86.492 194.257,85.284 193.785,83.900 193.257 C 83.405 193.068,82.218 192.528,81.262 192.057 C 79.129 191.005,78.944 191.012,77.200 192.200 M161.052 191.893 C 160.938 192.282,160.750 193.500,160.634 194.600 C 160.464 196.201,160.490 196.337,160.765 195.280 C 161.379 192.913,161.600 193.403,161.600 197.133 C 161.600 199.150,161.456 200.800,161.280 200.800 C 161.104 200.800,161.033 201.417,161.121 202.172 C 161.234 203.145,161.444 203.481,161.840 203.329 C 162.295 203.155,162.400 203.801,162.400 206.757 C 162.400 208.761,162.251 210.400,162.069 210.400 C 161.539 210.400,162.053 212.968,162.654 213.320 C 163.258 213.674,163.457 219.394,162.877 219.752 C 162.287 220.117,162.824 222.766,163.440 222.529 C 163.891 222.356,164.000 222.943,164.000 225.557 C 164.000 228.343,163.904 228.800,163.320 228.800 C 162.791 228.800,162.747 228.907,163.120 229.280 C 163.384 229.544,163.614 230.399,163.632 231.180 C 163.649 231.961,163.754 232.375,163.865 232.100 C 164.415 230.736,164.800 231.946,164.800 235.043 C 164.800 237.962,164.707 238.450,164.191 238.252 C 163.699 238.063,163.661 238.166,163.991 238.783 C 164.216 239.203,164.400 239.930,164.400 240.397 C 164.400 240.865,164.575 241.139,164.788 241.007 C 165.369 240.649,165.658 242.307,165.521 245.212 C 165.425 247.263,165.276 247.773,164.800 247.671 C 164.319 247.568,164.299 247.644,164.700 248.051 C 164.975 248.331,165.200 248.955,165.200 249.437 C 165.200 249.920,165.470 250.418,165.800 250.545 C 166.254 250.719,166.400 251.453,166.400 253.555 C 166.400 256.662,166.137 257.719,165.458 257.339 C 165.181 257.184,165.198 257.296,165.500 257.621 C 165.775 257.918,166.003 258.709,166.006 259.380 C 166.010 260.234,166.117 260.434,166.363 260.047 C 166.931 259.150,167.164 261.257,167.144 267.100 C 167.128 271.931,167.062 272.400,166.406 272.400 C 166.010 272.400,165.586 272.661,165.463 272.980 C 165.310 273.378,165.433 273.486,165.856 273.323 C 166.322 273.145,166.438 273.319,166.335 274.044 C 166.245 274.680,165.974 274.963,165.525 274.888 C 164.905 274.786,164.899 274.876,165.454 275.988 C 166.081 277.245,169.557 277.840,170.200 276.800 C 170.336 276.580,170.814 276.400,171.262 276.400 C 172.731 276.400,177.200 272.579,177.200 271.322 C 177.200 271.035,177.380 270.800,177.600 270.800 C 177.820 270.800,178.000 270.528,178.000 270.195 C 178.000 269.862,178.162 269.277,178.361 268.895 C 179.769 266.186,179.868 261.555,178.792 248.800 C 178.560 246.050,178.194 241.730,177.979 239.200 C 177.763 236.670,177.410 232.485,177.194 229.900 C 176.977 227.315,176.623 223.085,176.406 220.500 C 176.190 217.915,175.824 213.640,175.595 211.000 C 174.660 200.262,174.649 199.291,175.462 199.099 C 176.154 198.935,176.150 198.905,175.400 198.626 C 172.632 197.594,169.170 195.925,166.600 194.382 C 165.500 193.722,164.330 193.067,164.000 192.926 C 163.670 192.785,162.918 192.336,162.329 191.928 C 161.313 191.225,161.247 191.223,161.052 191.893 M93.400 196.400 C 94.060 196.568,95.050 196.709,95.600 196.713 L 96.600 196.720 95.600 196.400 C 95.050 196.224,94.060 196.083,93.400 196.087 L 92.200 196.095 93.400 196.400 M99.867 197.094 C 102.284 197.264,102.154 197.132,104.583 201.900 C 105.619 203.935,106.536 205.600,106.621 205.600 C 106.864 205.600,106.337 204.462,104.260 200.500 L 102.319 196.800 100.060 196.874 L 97.800 196.948 99.867 197.094 M322.000 198.800 C 321.467 199.145,321.467 199.188,322.000 199.188 C 322.330 199.188,322.870 199.013,323.200 198.800 C 323.733 198.455,323.733 198.412,323.200 198.412 C 322.870 198.412,322.330 198.587,322.000 198.800 M324.218 199.000 C 324.368 199.440,324.592 200.160,324.716 200.600 C 324.993 201.584,327.036 205.390,328.125 206.952 C 328.808 207.931,328.852 208.230,328.419 208.952 C 327.930 209.768,327.939 209.773,328.647 209.094 C 329.284 208.484,329.312 208.271,328.855 207.539 C 328.563 207.072,327.965 206.040,327.525 205.245 C 327.085 204.450,326.562 203.629,326.362 203.420 C 326.163 203.211,326.000 202.716,326.000 202.320 C 326.000 201.924,325.820 201.600,325.600 201.600 C 325.380 201.600,325.194 201.285,325.186 200.900 C 325.178 200.515,324.896 199.750,324.558 199.200 C 324.146 198.529,324.034 198.463,324.218 199.000 M319.600 199.600 C 319.067 199.945,319.067 199.988,319.600 199.988 C 319.930 199.988,320.470 199.813,320.800 199.600 C 321.333 199.255,321.333 199.212,320.800 199.212 C 320.470 199.212,319.930 199.387,319.600 199.600 M293.600 200.400 C 293.930 200.613,294.650 200.773,295.200 200.754 L 296.200 200.720 295.200 200.400 C 293.658 199.906,292.836 199.906,293.600 200.400 M316.400 200.400 L 315.400 200.720 316.400 200.754 C 316.950 200.773,317.670 200.613,318.000 200.400 C 318.764 199.906,317.942 199.906,316.400 200.400 M181.400 201.200 C 181.536 201.420,182.042 201.587,182.524 201.572 C 183.369 201.545,183.371 201.531,182.600 201.200 C 181.499 200.727,181.108 200.727,181.400 201.200 M297.200 201.177 C 297.739 201.546,301.168 201.810,300.767 201.451 C 300.675 201.369,299.700 201.182,298.600 201.035 C 297.180 200.845,296.774 200.886,297.200 201.177 M311.800 201.200 L 310.200 201.486 312.000 201.537 C 312.990 201.565,314.070 201.413,314.400 201.200 C 315.113 200.739,314.372 200.739,311.800 201.200 M184.000 201.982 C 184.330 202.205,185.084 202.391,185.676 202.394 C 186.268 202.397,186.852 202.561,186.974 202.758 C 187.191 203.108,188.701 203.408,192.500 203.854 C 194.231 204.057,194.401 204.172,194.406 205.139 C 194.409 205.722,194.596 206.470,194.821 206.800 C 195.114 207.230,195.154 206.947,194.962 205.800 C 194.607 203.671,194.547 203.600,193.123 203.600 C 192.446 203.600,191.152 203.406,190.246 203.168 C 184.855 201.755,183.200 201.440,184.000 201.982 M304.707 201.890 C 305.426 201.979,306.506 201.977,307.107 201.886 C 307.708 201.795,307.120 201.722,305.800 201.724 C 304.480 201.726,303.988 201.801,304.707 201.890 M106.800 206.159 C 106.800 206.611,109.338 211.083,109.887 211.600 C 110.312 212.000,110.265 211.800,109.745 211.000 C 109.315 210.340,108.539 208.945,108.019 207.900 C 107.178 206.209,106.800 205.669,106.800 206.159 M195.246 209.600 C 195.227 210.150,195.387 210.870,195.600 211.200 C 196.094 211.964,196.094 211.142,195.600 209.600 L 195.280 208.600 195.246 209.600 M326.869 210.839 C 326.110 212.054,326.566 212.216,327.355 211.012 C 327.720 210.456,327.878 210.000,327.705 210.000 C 327.533 210.000,327.157 210.378,326.869 210.839 M322.800 216.838 C 321.150 219.261,319.530 221.632,319.200 222.105 C 318.832 222.633,318.792 222.848,319.096 222.662 C 319.704 222.289,326.433 212.394,326.064 212.415 C 325.919 212.424,324.450 214.414,322.800 216.838 M196.068 214.200 C 196.074 214.640,196.224 215.450,196.400 216.000 L 196.720 217.000 196.732 216.000 C 196.738 215.450,196.589 214.640,196.400 214.200 L 196.056 213.400 196.068 214.200 M196.834 218.600 C 196.822 219.040,196.987 219.670,197.200 220.000 C 197.714 220.795,197.714 219.796,197.200 218.600 L 196.856 217.800 196.834 218.600 M315.077 228.100 C 308.437 237.780,307.200 239.786,307.241 240.796 C 307.278 241.708,307.308 241.689,307.573 240.584 C 307.734 239.915,310.190 235.967,313.032 231.810 C 318.847 223.306,318.916 223.200,318.639 223.200 C 318.528 223.200,316.926 225.405,315.077 228.100 M110.483 288.778 C 110.956 289.665,111.402 290.332,111.473 290.260 C 111.664 290.069,110.412 287.655,109.986 287.391 C 109.786 287.268,110.010 287.892,110.483 288.778 " stroke="none" fill="#98ac4e" fill-rule="evenodd"></path></g></svg>