<svg id="svg" version="1.1" xmlns="http://www.w3.org/2000/svg" xmlns:xlink="http://www.w3.org/1999/xlink" width="400" height="400" viewBox="0, 0, 400,400"><g id="svgg"><path id="path0" d="M395.117 129.110 C 393.972 131.610,389.767 140.876,388.814 143.000 C 388.321 144.100,387.415 146.080,386.801 147.400 C 386.187 148.720,385.216 150.835,384.642 152.100 C 384.069 153.365,383.129 155.435,382.554 156.700 C 380.966 160.193,379.779 162.819,376.722 169.600 C 365.755 193.930,355.691 210.608,340.834 229.074 C 337.416 233.321,336.936 233.094,337.969 227.720 C 338.171 226.664,338.530 224.450,338.766 222.800 C 339.002 221.150,339.556 217.412,339.997 214.494 C 341.362 205.474,340.933 203.164,337.586 201.519 C 332.583 199.061,329.406 202.070,328.210 210.400 C 327.846 212.930,326.747 220.490,325.768 227.200 C 324.788 233.910,323.685 241.524,323.316 244.120 L 322.645 248.841 319.422 251.966 C 315.909 255.374,311.577 259.178,306.615 263.211 C 304.864 264.635,303.154 266.025,302.815 266.301 C 300.797 267.943,294.151 272.780,293.900 272.789 C 293.408 272.807,293.542 271.908,294.776 266.938 C 295.422 264.332,296.510 259.860,297.192 257.000 C 298.630 250.973,299.111 249.071,299.627 247.372 C 301.340 241.727,296.765 236.980,291.603 239.045 C 288.996 240.089,288.392 241.275,286.633 248.800 C 285.097 255.372,282.813 264.858,282.397 266.400 C 282.188 267.170,281.278 270.950,280.374 274.800 C 278.341 283.455,278.436 283.222,276.553 284.238 C 275.699 284.700,274.325 285.465,273.500 285.938 C 272.675 286.412,271.325 287.185,270.500 287.655 C 268.527 288.779,254.145 296.000,253.878 296.000 C 252.830 296.000,247.471 299.058,246.754 300.064 C 243.996 303.938,246.757 309.600,251.404 309.600 C 255.371 309.600,277.380 298.484,291.120 289.541 C 292.726 288.496,294.256 287.715,294.520 287.806 C 294.784 287.896,297.430 288.164,300.400 288.401 C 303.370 288.638,310.030 289.180,315.200 289.607 C 338.022 291.491,335.768 291.398,337.470 290.520 C 342.694 287.824,341.649 280.363,335.892 279.249 C 334.741 279.027,331.280 278.647,328.200 278.407 C 325.120 278.166,320.710 277.793,318.400 277.577 C 316.090 277.362,313.300 277.144,312.200 277.093 C 309.392 276.962,309.609 276.464,314.000 272.959 C 322.040 266.542,329.977 259.104,340.461 248.159 L 343.123 245.381 350.461 243.319 C 361.773 240.141,370.359 237.681,373.000 236.861 C 374.320 236.451,376.210 235.878,377.200 235.589 C 383.148 233.849,384.717 228.018,380.171 224.551 C 378.048 222.932,376.224 223.133,366.100 226.104 C 361.205 227.540,357.200 228.553,357.200 228.354 C 357.200 228.156,358.337 226.420,359.727 224.497 C 362.871 220.148,368.800 211.310,368.800 210.974 C 368.800 210.836,369.167 210.208,369.616 209.577 C 371.684 206.673,377.665 195.791,381.585 187.800 C 385.681 179.451,386.419 177.900,389.016 172.200 C 389.617 170.880,390.692 168.540,391.406 167.000 C 393.896 161.625,395.209 158.781,396.437 156.100 C 397.117 154.615,398.197 152.323,398.837 151.006 L 400.000 148.612 399.995 139.806 C 399.988 129.528,399.996 129.570,398.013 128.456 C 396.023 127.337,395.919 127.361,395.117 129.110 M32.800 146.162 C 32.800 146.272,33.610 146.919,34.600 147.600 C 35.590 148.281,36.400 148.748,36.400 148.638 C 36.400 148.528,35.590 147.881,34.600 147.200 C 33.610 146.519,32.800 146.052,32.800 146.162 M48.000 156.046 C 48.000 156.241,48.180 156.400,48.400 156.400 C 48.663 156.400,48.800 166.140,48.800 184.819 C 48.800 212.060,48.832 213.305,49.571 214.834 C 50.321 216.387,54.218 222.012,55.555 223.472 C 55.922 223.872,56.665 224.828,57.206 225.596 C 57.748 226.363,58.595 227.443,59.089 227.996 C 59.583 228.548,60.548 229.630,61.234 230.400 C 61.919 231.170,62.332 231.530,62.150 231.200 C 61.968 230.870,61.669 229.340,61.485 227.800 C 61.301 226.260,60.973 223.830,60.756 222.400 C 60.540 220.970,60.266 218.720,60.148 217.400 C 60.029 216.080,59.768 214.829,59.566 214.620 C 59.365 214.411,59.200 213.117,59.200 211.744 C 59.200 210.371,59.020 209.136,58.800 209.000 C 57.262 208.049,59.951 201.200,61.862 201.200 C 62.158 201.200,62.400 201.020,62.400 200.800 C 62.400 199.903,67.154 200.358,68.737 201.406 C 71.115 202.979,71.819 205.018,72.817 213.218 C 73.044 215.078,73.391 217.680,73.590 219.000 C 73.788 220.320,74.152 222.750,74.400 224.400 C 74.647 226.050,74.942 228.570,75.057 230.000 C 75.171 231.430,75.430 232.771,75.632 232.980 C 75.835 233.189,76.000 234.393,76.000 235.656 C 76.000 236.919,76.180 238.064,76.400 238.200 C 76.620 238.336,76.800 239.596,76.800 241.000 C 76.800 242.404,76.980 243.664,77.200 243.800 C 77.420 243.936,77.600 244.999,77.600 246.162 L 77.600 248.277 81.886 252.239 C 84.244 254.417,86.683 256.650,87.307 257.200 C 87.931 257.750,89.017 258.720,89.721 259.355 C 90.424 259.990,91.810 261.160,92.799 261.955 C 93.789 262.750,94.818 263.580,95.086 263.800 C 95.353 264.020,95.803 264.388,96.086 264.618 C 96.369 264.847,98.400 266.373,100.600 268.009 C 102.800 269.645,104.846 271.220,105.148 271.510 C 105.888 272.224,106.164 271.854,105.632 270.861 C 105.395 270.416,105.200 269.511,105.200 268.850 C 105.200 268.188,105.020 267.536,104.800 267.400 C 104.580 267.264,104.400 266.544,104.400 265.800 C 104.400 265.056,104.220 264.336,104.000 264.200 C 103.780 264.064,103.600 263.344,103.600 262.600 C 103.600 261.856,103.420 261.136,103.200 261.000 C 102.980 260.864,102.800 260.144,102.800 259.400 C 102.800 258.656,102.639 257.948,102.442 257.826 C 102.245 257.705,101.990 256.929,101.875 256.103 C 101.760 255.276,101.479 253.880,101.251 253.000 C 99.378 245.766,99.207 243.409,100.401 241.283 C 102.375 237.771,108.395 236.852,110.715 239.708 C 111.679 240.895,112.800 243.304,112.800 244.189 C 112.800 244.719,112.961 245.252,113.158 245.374 C 113.355 245.495,113.625 246.316,113.758 247.197 C 113.891 248.079,114.109 249.521,114.242 250.403 C 114.375 251.284,114.645 252.105,114.842 252.226 C 115.039 252.348,115.200 253.056,115.200 253.800 C 115.200 254.544,115.380 255.264,115.600 255.400 C 115.820 255.536,116.000 256.256,116.000 257.000 C 116.000 257.744,116.180 258.464,116.400 258.600 C 116.620 258.736,116.800 259.319,116.800 259.895 C 116.800 260.472,116.968 261.496,117.173 262.172 C 117.685 263.857,118.215 265.966,119.194 270.200 C 119.652 272.180,120.183 274.340,120.376 275.000 C 120.568 275.660,121.024 277.591,121.388 279.291 C 122.167 282.924,122.030 282.793,129.000 286.540 C 129.880 287.013,130.690 287.494,130.800 287.608 C 130.910 287.723,132.260 288.439,133.800 289.200 C 135.340 289.961,136.690 290.677,136.800 290.792 C 137.256 291.267,138.831 292.000,139.395 292.000 C 139.728 292.000,140.000 292.180,140.000 292.400 C 140.000 292.620,140.360 292.800,140.800 292.800 C 141.240 292.800,141.600 292.980,141.600 293.200 C 141.600 293.420,141.852 293.600,142.159 293.600 C 142.467 293.600,143.682 294.095,144.859 294.700 C 146.037 295.305,147.540 296.009,148.200 296.264 C 148.860 296.519,150.345 297.103,151.500 297.562 C 153.575 298.387,153.936 298.249,153.247 296.895 C 152.897 296.208,152.327 294.849,151.654 293.100 C 151.463 292.605,151.111 291.750,150.872 291.200 C 148.384 285.482,151.094 280.400,156.630 280.400 C 159.024 280.400,162.800 283.032,162.800 284.701 C 162.800 284.981,162.959 285.523,163.153 285.905 C 163.348 286.287,163.729 287.140,164.000 287.800 C 164.271 288.460,164.652 289.313,164.847 289.695 C 165.041 290.077,165.200 290.752,165.200 291.195 C 165.200 291.638,165.341 292.000,165.513 292.000 C 165.685 292.000,166.075 292.855,166.380 293.900 C 166.685 294.945,167.071 296.070,167.238 296.400 C 167.405 296.730,167.675 297.360,167.838 297.800 C 170.293 304.434,170.590 304.999,171.700 305.127 C 172.305 305.196,172.800 305.421,172.800 305.627 C 172.800 305.832,173.239 306.000,173.776 306.000 C 174.313 306.000,174.864 306.180,175.000 306.400 C 175.136 306.620,175.766 306.800,176.400 306.800 C 177.034 306.800,177.664 306.980,177.800 307.200 C 177.936 307.420,178.566 307.600,179.200 307.600 C 179.834 307.600,180.464 307.780,180.600 308.000 C 180.736 308.220,181.276 308.400,181.800 308.400 C 182.324 308.400,182.864 308.580,183.000 308.800 C 183.136 309.020,183.676 309.200,184.200 309.200 C 184.724 309.200,185.264 309.380,185.400 309.600 C 185.536 309.820,185.999 310.000,186.429 310.000 C 190.212 310.000,192.730 315.543,190.650 319.289 C 188.687 322.824,185.885 323.572,180.542 321.986 C 176.349 320.741,168.697 318.350,167.800 318.004 C 167.360 317.834,165.685 317.280,164.077 316.772 C 162.470 316.265,161.064 315.703,160.954 315.525 C 160.843 315.346,160.324 315.200,159.800 315.200 C 159.276 315.200,158.736 315.020,158.600 314.800 C 158.464 314.580,157.913 314.400,157.376 314.400 C 156.839 314.400,156.400 314.220,156.400 314.000 C 156.400 313.780,155.950 313.600,155.400 313.600 C 154.850 313.600,154.400 313.420,154.400 313.200 C 154.400 312.980,154.038 312.800,153.595 312.800 C 153.152 312.800,152.432 312.620,151.995 312.400 C 151.558 312.180,150.842 311.820,150.405 311.600 C 149.968 311.380,149.338 311.200,149.005 311.200 C 148.672 311.200,148.400 311.020,148.400 310.800 C 148.400 310.580,148.128 310.400,147.795 310.400 C 147.462 310.400,146.877 310.240,146.495 310.044 C 146.113 309.848,144.990 309.326,144.000 308.884 C 137.655 306.050,127.472 301.160,127.200 300.815 C 127.090 300.676,126.010 300.072,124.800 299.472 C 123.590 298.873,121.700 297.842,120.600 297.182 C 119.500 296.522,118.330 295.864,118.000 295.720 C 117.670 295.576,117.310 295.355,117.200 295.229 C 116.863 294.843,114.642 293.564,113.900 293.329 C 113.515 293.207,113.200 292.948,113.200 292.753 C 113.200 292.559,113.033 292.400,112.828 292.400 C 112.624 292.400,111.040 291.498,109.309 290.396 L 106.161 288.393 96.381 289.184 C 91.001 289.620,85.340 290.064,83.800 290.173 C 79.267 290.492,76.663 290.866,77.064 291.142 C 77.270 291.284,77.877 292.030,78.412 292.800 C 78.947 293.570,79.770 294.650,80.240 295.200 C 80.710 295.750,82.603 298.000,84.446 300.200 C 89.840 306.638,95.541 312.116,105.000 319.949 C 105.440 320.313,106.430 321.053,107.200 321.592 C 107.970 322.132,108.832 322.798,109.115 323.073 C 109.398 323.347,110.163 323.887,110.815 324.272 C 111.467 324.657,112.000 325.114,112.000 325.286 C 112.000 325.459,112.270 325.600,112.600 325.600 C 112.930 325.600,113.200 325.780,113.200 326.000 C 113.200 326.220,113.470 326.400,113.800 326.400 C 114.130 326.400,114.400 326.580,114.400 326.800 C 114.400 327.020,114.636 327.200,114.925 327.200 C 115.213 327.200,115.836 327.560,116.308 328.000 C 116.780 328.440,117.257 328.800,117.368 328.800 C 117.478 328.800,119.151 329.746,121.084 330.902 C 124.189 332.758,136.869 339.192,139.000 339.993 C 139.440 340.158,140.295 340.497,140.900 340.746 C 141.505 340.996,142.495 341.401,143.100 341.647 C 143.705 341.892,144.513 342.252,144.895 342.447 C 145.277 342.641,145.952 342.800,146.395 342.800 C 146.838 342.800,147.200 342.980,147.200 343.200 C 147.200 343.420,147.502 343.600,147.872 343.600 C 148.624 343.600,151.033 344.313,152.095 344.849 C 152.477 345.042,153.154 345.200,153.600 345.200 C 154.046 345.200,154.723 345.369,155.105 345.575 C 155.696 345.893,160.188 346.996,166.600 348.397 C 169.981 349.136,177.026 350.202,181.200 350.606 C 182.410 350.724,190.445 350.957,199.056 351.124 C 209.681 351.331,214.887 351.574,215.256 351.881 C 215.944 352.452,215.606 278.866,214.903 275.200 C 210.649 253.011,197.118 236.430,176.400 228.019 C 174.090 227.082,171.250 225.884,170.088 225.357 C 168.927 224.831,167.799 224.400,167.583 224.400 C 167.366 224.400,166.877 224.241,166.495 224.047 C 166.113 223.852,165.350 223.514,164.800 223.294 C 162.687 222.451,156.510 219.395,154.600 218.248 C 147.059 213.720,142.795 209.481,128.400 192.200 C 126.751 190.220,125.306 188.510,125.189 188.400 C 125.072 188.290,123.610 186.577,121.940 184.593 C 109.695 170.047,95.151 162.937,75.716 161.995 C 68.694 161.655,62.346 160.872,59.000 159.934 C 55.155 158.855,52.052 157.747,50.100 156.757 C 48.945 156.172,48.000 155.852,48.000 156.046 M54.584 245.300 C 54.671 245.575,55.302 247.600,55.986 249.800 C 57.176 253.626,57.666 254.961,58.447 256.495 C 58.641 256.877,58.800 257.541,58.800 257.971 C 58.800 258.401,58.980 258.864,59.200 259.000 C 59.420 259.136,59.600 259.597,59.600 260.024 C 59.600 260.451,59.780 260.800,60.000 260.800 C 60.220 260.800,60.400 261.149,60.400 261.576 C 60.400 262.003,60.580 262.464,60.800 262.600 C 61.020 262.736,61.200 263.197,61.200 263.624 C 61.200 264.051,61.380 264.400,61.600 264.400 C 61.820 264.400,61.999 264.625,61.998 264.900 C 61.995 265.381,66.755 275.191,67.189 275.600 C 67.306 275.710,67.665 276.311,67.987 276.935 L 68.572 278.070 72.386 277.831 C 87.708 276.874,91.145 276.292,88.149 275.164 C 87.233 274.819,75.929 265.134,72.593 261.835 C 71.238 260.496,69.246 258.571,68.165 257.559 C 67.084 256.546,64.062 253.493,61.448 250.775 C 56.674 245.807,54.091 243.747,54.584 245.300 " stroke="none" fill="#94dc7c" fill-rule="evenodd"></path><path id="path1" d="M390.400 128.519 C 389.630 128.988,388.768 129.596,388.485 129.872 C 388.202 130.147,387.437 130.687,386.785 131.072 C 386.133 131.457,385.600 131.914,385.600 132.086 C 385.600 132.259,385.330 132.400,385.000 132.400 C 384.670 132.400,384.400 132.580,384.400 132.800 C 384.400 133.020,384.196 133.200,383.947 133.200 C 383.698 133.200,383.203 133.516,382.847 133.903 C 382.491 134.289,381.705 134.860,381.100 135.170 C 380.495 135.481,380.000 135.885,380.000 136.068 C 380.000 136.250,379.810 136.400,379.578 136.400 C 379.346 136.400,378.581 136.939,377.878 137.598 C 377.175 138.257,376.415 138.797,376.188 138.798 C 375.962 138.799,375.517 139.160,375.200 139.600 C 374.883 140.040,374.438 140.400,374.212 140.401 C 373.985 140.401,373.170 140.941,372.400 141.600 C 371.630 142.259,370.787 142.799,370.527 142.799 C 370.267 142.800,369.946 143.139,369.815 143.554 C 369.395 144.876,359.230 151.959,353.783 154.726 C 344.800 159.288,335.237 161.600,325.350 161.600 C 320.812 161.600,314.817 162.402,310.393 163.600 C 308.747 164.046,306.901 164.522,306.292 164.657 C 305.682 164.793,305.086 165.060,304.968 165.252 C 304.850 165.443,304.465 165.600,304.114 165.600 C 302.897 165.600,294.982 169.742,290.827 172.554 C 285.157 176.390,280.659 180.978,269.604 194.200 C 252.985 214.077,248.300 217.922,233.800 223.584 C 232.040 224.272,229.250 225.390,227.600 226.071 C 225.950 226.751,224.240 227.447,223.800 227.618 C 216.419 230.489,208.438 235.652,202.698 241.268 C 199.822 244.082,200.641 244.198,196.786 240.435 C 191.081 234.865,183.340 230.025,174.900 226.749 C 174.405 226.557,173.550 226.220,173.000 226.000 C 172.450 225.780,171.550 225.420,171.000 225.200 C 170.450 224.980,169.595 224.638,169.100 224.441 C 168.605 224.243,167.570 223.808,166.800 223.474 C 166.030 223.139,164.590 222.549,163.600 222.163 C 159.057 220.388,151.194 215.737,148.000 212.934 C 147.450 212.452,146.622 211.729,146.160 211.328 C 143.537 209.052,142.384 207.899,140.410 205.577 C 139.206 204.159,138.125 202.910,138.007 202.800 C 137.890 202.690,136.004 200.440,133.817 197.800 C 131.631 195.160,129.740 192.910,129.615 192.800 C 129.491 192.690,128.582 191.610,127.596 190.400 C 126.610 189.190,125.623 188.002,125.402 187.761 C 125.181 187.519,124.108 186.259,123.018 184.961 C 113.779 173.960,103.474 167.129,90.800 163.607 C 89.810 163.332,88.478 162.948,87.840 162.753 C 87.202 162.559,86.032 162.425,85.240 162.454 C 84.133 162.496,84.031 162.552,84.800 162.694 C 99.418 165.402,112.058 172.854,121.940 184.593 C 123.610 186.577,125.072 188.290,125.189 188.400 C 125.306 188.510,126.751 190.220,128.400 192.200 C 142.795 209.481,147.059 213.720,154.600 218.248 C 156.510 219.395,162.687 222.451,164.800 223.294 C 165.350 223.514,166.113 223.852,166.495 224.047 C 166.877 224.241,167.366 224.400,167.583 224.400 C 167.799 224.400,168.927 224.831,170.088 225.357 C 171.250 225.884,174.090 227.082,176.400 228.019 C 194.160 235.229,207.452 249.349,212.721 266.600 C 213.879 270.394,214.203 271.810,215.183 277.367 C 215.452 278.891,215.602 292.556,215.606 315.767 C 215.609 335.585,215.757 352.028,215.934 352.306 C 216.189 352.709,220.981 352.778,239.228 352.643 C 260.566 352.485,265.243 352.290,273.200 351.228 C 279.116 350.438,279.805 350.313,280.180 349.959 C 280.389 349.762,281.323 349.600,282.256 349.600 C 283.189 349.600,284.064 349.420,284.200 349.200 C 284.336 348.980,285.146 348.800,286.000 348.800 C 286.854 348.800,287.664 348.620,287.800 348.400 C 287.936 348.180,288.667 348.000,289.424 348.000 C 290.181 348.000,290.800 347.820,290.800 347.600 C 290.800 347.380,291.520 347.200,292.400 347.200 C 293.280 347.200,294.000 347.020,294.000 346.800 C 294.000 346.580,294.540 346.400,295.200 346.400 C 295.860 346.400,296.400 346.220,296.400 346.000 C 296.400 345.780,296.940 345.600,297.600 345.600 C 298.260 345.600,298.800 345.420,298.800 345.200 C 298.800 344.980,299.340 344.800,300.000 344.800 C 300.660 344.800,301.200 344.620,301.200 344.400 C 301.200 344.180,301.740 344.000,302.400 344.000 C 303.060 344.000,303.600 343.820,303.600 343.600 C 303.600 343.380,304.050 343.200,304.600 343.200 C 305.150 343.200,305.600 343.020,305.600 342.800 C 305.600 342.580,305.949 342.400,306.376 342.400 C 306.803 342.400,307.251 342.240,307.372 342.045 C 307.493 341.850,308.220 341.573,308.990 341.428 C 309.759 341.284,311.066 340.835,311.894 340.430 C 312.722 340.026,314.300 339.292,315.400 338.800 C 319.891 336.791,325.200 333.938,325.200 333.533 C 325.200 333.350,325.478 333.200,325.817 333.200 C 326.156 333.200,326.820 332.840,327.292 332.400 C 327.764 331.960,328.387 331.600,328.675 331.600 C 328.964 331.600,329.200 331.454,329.200 331.275 C 329.200 331.096,329.830 330.702,330.600 330.400 C 331.370 330.098,332.000 329.704,332.000 329.525 C 332.000 329.346,332.188 329.200,332.417 329.200 C 332.646 329.200,333.220 328.840,333.692 328.400 C 334.164 327.960,334.787 327.600,335.075 327.600 C 335.364 327.600,335.600 327.420,335.600 327.200 C 335.600 326.980,335.870 326.800,336.200 326.800 C 336.530 326.800,336.800 326.620,336.800 326.400 C 336.800 326.180,336.988 326.000,337.217 326.000 C 337.446 326.000,337.851 325.815,338.117 325.589 C 338.383 325.363,339.680 324.378,341.000 323.400 C 342.320 322.422,343.760 321.302,344.200 320.911 C 344.640 320.520,345.493 319.882,346.096 319.493 C 346.699 319.105,347.999 317.980,348.986 316.993 C 349.972 316.007,350.889 315.200,351.024 315.200 C 351.337 315.200,363.600 302.949,363.600 302.637 C 363.600 302.509,364.500 301.485,365.600 300.361 C 366.700 299.238,367.600 298.139,367.600 297.920 C 367.600 297.701,368.110 297.044,368.733 296.460 C 369.357 295.877,370.098 294.967,370.381 294.438 C 370.664 293.908,371.238 293.098,371.658 292.638 C 372.788 291.397,376.000 286.501,376.000 286.018 C 376.000 285.788,376.180 285.600,376.400 285.600 C 376.620 285.600,376.800 285.330,376.800 285.000 C 376.800 284.670,376.980 284.400,377.200 284.400 C 377.420 284.400,377.600 284.212,377.600 283.983 C 377.600 283.754,377.960 283.180,378.400 282.708 C 378.840 282.236,379.200 281.613,379.200 281.325 C 379.200 281.036,379.380 280.800,379.600 280.800 C 379.820 280.800,380.000 280.440,380.000 280.000 C 380.000 279.560,380.180 279.200,380.400 279.200 C 380.620 279.200,380.800 278.930,380.800 278.600 C 380.800 278.270,380.946 278.000,381.125 278.000 C 381.304 278.000,381.698 277.370,382.000 276.600 C 382.302 275.830,382.696 275.200,382.875 275.200 C 383.054 275.200,383.200 274.855,383.200 274.433 C 383.200 274.012,383.343 273.607,383.518 273.533 C 384.003 273.330,388.560 263.789,389.791 260.400 C 390.391 258.750,391.043 257.087,391.241 256.705 C 391.438 256.323,391.600 255.659,391.600 255.229 C 391.600 254.799,391.780 254.336,392.000 254.200 C 392.220 254.064,392.400 253.524,392.400 253.000 C 392.400 252.476,392.580 251.936,392.800 251.800 C 393.020 251.664,393.200 251.113,393.200 250.576 C 393.200 250.039,393.380 249.600,393.600 249.600 C 393.820 249.600,394.000 249.060,394.000 248.400 C 394.000 247.740,394.180 247.200,394.400 247.200 C 394.620 247.200,394.800 246.480,394.800 245.600 C 394.800 244.720,394.980 244.000,395.200 244.000 C 395.420 244.000,395.600 243.460,395.600 242.800 C 395.600 242.140,395.780 241.600,396.000 241.600 C 396.220 241.600,396.400 240.891,396.400 240.024 C 396.400 239.157,396.580 238.336,396.800 238.200 C 397.020 238.064,397.200 237.254,397.200 236.400 C 397.200 235.546,397.380 234.736,397.600 234.600 C 397.820 234.464,398.000 233.564,398.000 232.600 C 398.000 231.636,398.180 230.736,398.400 230.600 C 398.620 230.464,398.800 229.409,398.800 228.256 C 398.800 227.103,399.025 225.935,399.300 225.660 C 399.766 225.195,400.318 159.770,399.925 151.600 L 399.800 149.000 398.746 151.200 C 398.167 152.410,397.132 154.615,396.446 156.100 C 394.814 159.637,393.012 163.534,391.406 167.000 C 390.692 168.540,389.617 170.880,389.016 172.200 C 386.419 177.900,385.681 179.451,381.585 187.800 C 377.665 195.791,371.684 206.673,369.616 209.577 C 369.167 210.208,368.800 210.836,368.800 210.974 C 368.800 211.310,362.871 220.148,359.727 224.497 C 358.337 226.420,357.200 228.156,357.200 228.354 C 357.200 228.553,361.205 227.540,366.100 226.104 C 376.224 223.133,378.048 222.932,380.171 224.551 C 384.717 228.018,383.148 233.849,377.200 235.589 C 376.210 235.878,374.320 236.451,373.000 236.861 C 370.359 237.681,361.773 240.141,350.461 243.319 L 343.123 245.381 340.461 248.159 C 329.977 259.104,322.040 266.542,314.000 272.959 C 309.609 276.464,309.392 276.962,312.200 277.093 C 313.300 277.144,316.090 277.362,318.400 277.577 C 320.710 277.793,325.120 278.166,328.200 278.407 C 331.280 278.647,334.741 279.027,335.892 279.249 C 341.649 280.363,342.694 287.824,337.470 290.520 C 335.768 291.398,338.022 291.491,315.200 289.607 C 310.030 289.180,303.370 288.638,300.400 288.401 C 297.430 288.164,294.784 287.896,294.520 287.806 C 294.256 287.715,292.726 288.496,291.120 289.541 C 277.380 298.484,255.371 309.600,251.404 309.600 C 246.757 309.600,243.996 303.938,246.754 300.064 C 247.471 299.058,252.830 296.000,253.878 296.000 C 254.145 296.000,268.527 288.779,270.500 287.655 C 271.325 287.185,272.675 286.412,273.500 285.938 C 274.325 285.465,275.699 284.700,276.553 284.238 C 278.436 283.222,278.341 283.455,280.374 274.800 C 281.278 270.950,282.188 267.170,282.397 266.400 C 282.813 264.858,285.097 255.372,286.633 248.800 C 288.392 241.275,288.996 240.089,291.603 239.045 C 296.765 236.980,301.340 241.727,299.627 247.372 C 299.111 249.071,298.630 250.973,297.192 257.000 C 296.510 259.860,295.422 264.332,294.776 266.938 C 293.542 271.908,293.408 272.807,293.900 272.789 C 294.151 272.780,300.797 267.943,302.815 266.301 C 303.154 266.025,304.864 264.635,306.615 263.211 C 311.577 259.178,315.909 255.374,319.422 251.966 L 322.645 248.841 323.316 244.120 C 323.685 241.524,324.788 233.910,325.768 227.200 C 326.747 220.490,327.846 212.930,328.210 210.400 C 329.406 202.070,332.583 199.061,337.586 201.519 C 340.933 203.164,341.362 205.474,339.997 214.494 C 339.556 217.412,339.002 221.150,338.766 222.800 C 338.530 224.450,338.171 226.664,337.969 227.720 C 336.936 233.094,337.416 233.321,340.834 229.074 C 355.691 210.608,365.755 193.930,376.722 169.600 C 379.643 163.120,380.929 160.277,382.600 156.600 C 383.150 155.390,384.069 153.365,384.642 152.100 C 385.216 150.835,386.187 148.720,386.800 147.400 C 388.063 144.682,389.293 141.969,391.880 136.200 C 392.866 134.000,394.107 131.330,394.637 130.267 C 395.166 129.204,395.600 128.169,395.600 127.967 C 395.600 127.248,391.829 127.649,390.400 128.519 M30.234 144.011 C 31.031 144.809,32.291 145.714,39.528 150.695 C 47.715 156.328,55.576 159.574,64.516 161.013 C 68.173 161.601,83.200 162.533,83.541 162.193 C 83.858 161.875,81.632 161.641,76.200 161.419 C 70.420 161.184,65.822 160.721,62.000 159.988 C 60.790 159.756,59.213 159.464,58.496 159.339 C 57.779 159.214,57.094 158.951,56.973 158.756 C 56.852 158.560,56.324 158.400,55.800 158.400 C 55.276 158.400,54.736 158.220,54.600 158.000 C 54.464 157.780,54.037 157.600,53.652 157.600 C 52.988 157.600,50.349 156.511,48.600 155.515 C 48.160 155.265,46.810 154.526,45.600 153.874 C 44.390 153.221,42.950 152.443,42.400 152.143 C 41.850 151.843,40.140 150.699,38.600 149.600 C 37.060 148.500,34.720 146.846,33.400 145.922 C 32.080 144.999,30.762 144.009,30.471 143.722 C 30.181 143.435,29.826 143.200,29.683 143.200 C 29.539 143.200,29.787 143.565,30.234 144.011 " stroke="none" fill="#c3ebab" fill-rule="evenodd"></path><path id="path2" d="M1.068 128.901 L -0.065 130.171 0.068 177.952 C 0.172 215.727,0.305 225.768,0.700 225.900 C 1.003 226.001,1.202 226.800,1.206 227.933 C 1.211 229.286,1.319 229.635,1.600 229.200 C 1.868 228.786,1.990 229.622,1.994 231.900 C 1.997 233.829,2.166 235.200,2.400 235.200 C 2.620 235.200,2.800 235.560,2.800 236.000 C 2.800 236.440,2.980 236.800,3.200 236.800 C 3.420 236.800,3.600 236.991,3.600 237.224 C 3.600 237.457,3.420 237.536,3.200 237.400 C 2.980 237.264,2.800 237.523,2.800 237.976 C 2.800 238.429,2.980 238.800,3.200 238.800 C 3.420 238.800,3.600 239.261,3.600 239.824 C 3.600 240.404,3.773 240.740,4.000 240.600 C 4.248 240.447,4.400 241.196,4.400 242.576 C 4.400 243.799,4.580 244.800,4.800 244.800 C 5.020 244.800,5.200 245.070,5.200 245.400 C 5.200 245.730,5.380 246.000,5.600 246.000 C 5.820 246.000,6.000 246.191,6.000 246.424 C 6.000 246.657,5.820 246.736,5.600 246.600 C 5.380 246.464,5.200 246.543,5.200 246.776 C 5.200 247.009,5.380 247.200,5.600 247.200 C 5.820 247.200,6.000 247.830,6.000 248.600 C 6.000 249.370,6.180 250.000,6.400 250.000 C 6.620 250.000,6.800 250.450,6.800 251.000 C 6.800 251.550,6.980 252.000,7.200 252.000 C 7.420 252.000,7.600 252.255,7.600 252.567 C 7.600 252.878,7.825 253.225,8.100 253.336 C 8.484 253.492,8.468 253.631,8.035 253.933 C 7.557 254.267,7.576 254.433,8.158 255.015 C 8.536 255.394,8.751 255.950,8.636 256.252 C 8.520 256.553,8.594 256.800,8.800 256.800 C 9.006 256.800,9.080 257.047,8.964 257.348 C 8.849 257.650,9.002 258.145,9.306 258.448 C 9.609 258.752,9.875 259.090,9.896 259.200 C 10.219 260.871,10.517 261.926,10.824 262.495 C 11.031 262.877,11.200 263.462,11.200 263.795 C 11.200 264.128,11.380 264.400,11.600 264.400 C 11.820 264.400,12.000 264.760,12.000 265.200 C 12.000 265.640,12.180 266.000,12.400 266.000 C 12.620 266.000,12.803 266.405,12.806 266.900 C 12.811 267.628,12.886 267.685,13.200 267.200 C 13.494 266.745,13.589 266.914,13.594 267.900 C 13.597 268.615,13.780 269.200,14.000 269.200 C 14.220 269.200,14.400 269.560,14.400 270.000 C 14.400 270.440,14.580 270.800,14.800 270.800 C 15.020 270.800,15.200 271.160,15.200 271.600 C 15.200 272.040,15.380 272.400,15.600 272.400 C 15.820 272.400,16.000 272.760,16.000 273.200 C 16.000 273.640,16.180 274.000,16.400 274.000 C 16.620 274.000,16.803 274.315,16.806 274.700 C 16.811 275.298,16.869 275.313,17.200 274.800 C 17.494 274.345,17.589 274.514,17.594 275.500 C 17.597 276.215,17.780 276.800,18.000 276.800 C 18.220 276.800,18.400 277.160,18.400 277.600 C 18.400 278.040,18.580 278.400,18.800 278.400 C 19.020 278.400,19.200 278.687,19.200 279.037 C 19.200 279.388,19.575 279.773,20.034 279.893 C 20.668 280.059,20.740 280.192,20.334 280.449 C 19.934 280.703,19.926 280.789,20.300 280.794 C 20.575 280.797,20.800 281.120,20.800 281.512 C 20.800 281.903,21.160 282.483,21.600 282.800 C 22.040 283.117,22.400 283.697,22.400 284.088 C 22.400 284.480,22.580 284.800,22.800 284.800 C 23.020 284.800,23.200 285.036,23.200 285.325 C 23.200 285.613,23.560 286.236,24.000 286.708 C 24.440 287.180,24.800 287.754,24.800 287.983 C 24.800 288.212,24.980 288.400,25.200 288.400 C 25.420 288.400,25.600 288.642,25.600 288.938 C 25.600 289.234,25.956 289.798,26.391 290.191 C 26.825 290.585,27.068 291.091,26.929 291.315 C 26.784 291.549,26.874 291.602,27.138 291.438 C 27.422 291.263,27.602 291.432,27.606 291.876 C 27.611 292.424,27.694 292.471,27.950 292.068 C 28.189 291.690,28.357 291.885,28.528 292.739 C 28.660 293.400,29.405 294.579,30.184 295.357 C 30.963 296.136,31.600 296.968,31.600 297.205 C 31.600 297.837,33.598 299.740,33.609 299.118 C 33.614 298.833,33.907 299.185,34.259 299.900 C 34.612 300.615,35.057 301.200,35.250 301.200 C 35.442 301.200,35.600 301.487,35.600 301.837 C 35.600 302.188,35.975 302.573,36.434 302.693 C 36.892 302.813,37.110 303.021,36.918 303.155 C 36.725 303.290,38.683 305.490,41.269 308.045 C 43.855 310.599,46.053 312.489,46.154 312.245 C 46.254 312.000,46.351 312.136,46.368 312.546 C 46.400 313.301,49.034 316.000,49.738 316.000 C 49.948 316.000,50.993 316.911,52.060 318.024 C 53.676 319.709,54.761 320.338,53.700 318.974 C 53.535 318.762,53.850 319.088,54.400 319.698 C 54.950 320.308,55.655 320.806,55.967 320.804 C 56.278 320.802,56.424 320.909,56.291 321.042 C 55.989 321.344,57.804 323.200,58.400 323.200 C 58.640 323.200,59.286 323.650,59.836 324.200 C 60.386 324.750,61.058 325.200,61.330 325.200 C 61.601 325.200,62.076 325.550,62.385 325.979 C 62.693 326.407,63.081 326.673,63.247 326.571 C 63.413 326.469,64.004 326.840,64.561 327.397 C 65.117 327.954,65.714 328.386,65.886 328.357 C 66.996 328.174,67.600 328.487,67.600 329.247 C 67.600 329.896,67.786 330.045,68.400 329.884 C 68.862 329.763,69.200 329.872,69.200 330.141 C 69.200 330.750,70.722 331.695,71.213 331.392 C 71.422 331.263,72.053 331.617,72.615 332.178 C 73.177 332.740,73.888 333.200,74.196 333.200 C 74.503 333.200,74.990 333.517,75.277 333.903 C 75.565 334.290,76.700 335.055,77.800 335.603 C 78.900 336.152,79.860 336.735,79.933 336.900 C 80.007 337.065,80.367 337.197,80.733 337.194 C 81.310 337.189,81.319 337.135,80.800 336.800 C 80.344 336.506,80.329 336.411,80.737 336.406 C 81.033 336.403,81.369 336.760,81.484 337.200 C 81.600 337.643,82.030 338.000,82.447 338.000 C 82.861 338.000,83.200 338.180,83.200 338.400 C 83.200 338.620,83.436 338.800,83.725 338.800 C 84.014 338.800,84.995 339.160,85.906 339.600 C 86.816 340.040,87.840 340.400,88.181 340.400 C 88.521 340.400,88.800 340.560,88.800 340.755 C 88.800 340.951,89.475 341.232,90.300 341.380 C 92.106 341.705,94.000 342.481,94.000 342.898 C 94.000 343.064,94.191 343.200,94.424 343.200 C 94.657 343.200,94.720 342.975,94.565 342.700 C 94.339 342.300,94.390 342.300,94.821 342.700 C 95.118 342.975,95.909 343.213,96.580 343.228 C 97.624 343.252,97.684 343.306,97.000 343.600 C 96.330 343.888,96.411 343.948,97.500 343.972 C 98.215 343.987,98.800 344.180,98.800 344.400 C 98.800 344.620,99.149 344.800,99.576 344.800 C 100.003 344.800,100.464 344.980,100.600 345.200 C 100.736 345.420,101.467 345.600,102.224 345.600 C 103.055 345.600,103.602 345.798,103.606 346.100 C 103.610 346.433,103.742 346.400,104.000 346.000 C 104.258 345.600,104.390 345.567,104.394 345.900 C 104.397 346.175,104.760 346.400,105.200 346.400 C 105.640 346.400,106.000 346.580,106.000 346.800 C 106.000 347.020,106.619 347.200,107.376 347.200 C 108.133 347.200,108.864 347.380,109.000 347.600 C 109.136 347.820,109.867 348.000,110.624 348.000 C 111.381 348.000,112.000 348.180,112.000 348.400 C 112.000 348.620,112.720 348.800,113.600 348.800 C 114.480 348.800,115.200 348.980,115.200 349.200 C 115.200 349.420,116.100 349.600,117.200 349.600 C 118.300 349.600,119.200 349.780,119.200 350.000 C 119.200 350.220,119.391 350.400,119.624 350.400 C 119.857 350.400,119.920 350.175,119.765 349.900 C 119.539 349.500,119.590 349.500,120.021 349.900 C 120.318 350.175,121.154 350.400,121.880 350.400 C 122.606 350.400,123.200 350.580,123.200 350.800 C 123.200 351.025,124.325 351.200,125.776 351.200 C 127.193 351.200,128.453 351.362,128.575 351.560 C 128.697 351.757,130.639 351.927,132.891 351.937 C 135.397 351.947,137.039 352.118,137.126 352.377 C 137.203 352.610,137.927 352.782,138.733 352.760 C 140.054 352.724,140.101 352.688,139.200 352.400 C 138.332 352.122,138.412 352.075,139.800 352.046 C 141.013 352.020,141.255 352.112,140.800 352.424 C 140.320 352.753,140.400 352.823,141.200 352.774 C 141.750 352.739,151.245 352.731,162.300 352.756 L 182.400 352.800 182.400 366.400 C 182.400 375.200,182.541 380.000,182.800 380.000 C 183.020 380.000,183.200 380.540,183.200 381.200 C 183.200 381.860,183.380 382.400,183.600 382.400 C 183.820 382.400,184.000 382.678,184.000 383.018 C 184.000 383.850,185.788 385.592,186.682 385.632 C 187.095 385.650,187.189 385.748,186.904 385.864 C 186.251 386.127,187.268 387.200,188.171 387.200 C 188.517 387.200,188.800 387.351,188.800 387.536 C 188.800 388.018,190.667 388.800,191.819 388.800 C 192.358 388.800,192.800 388.980,192.800 389.200 C 192.800 389.450,195.192 389.600,199.176 389.600 C 202.996 389.600,205.652 389.440,205.800 389.200 C 205.936 388.980,206.667 388.800,207.424 388.800 C 208.340 388.800,208.800 388.612,208.800 388.237 C 208.800 387.871,209.114 387.733,209.700 387.842 C 210.195 387.934,210.374 387.902,210.098 387.770 C 209.405 387.442,209.885 386.781,210.613 387.060 C 210.936 387.184,211.200 387.086,211.200 386.843 C 211.200 386.599,211.449 386.400,211.754 386.400 C 212.059 386.400,212.629 385.905,213.021 385.300 C 213.413 384.695,214.064 383.909,214.467 383.553 C 214.870 383.197,215.200 382.612,215.200 382.253 C 215.200 381.894,215.380 381.600,215.600 381.600 C 215.820 381.600,216.000 380.700,216.000 379.600 C 216.000 378.500,216.180 377.600,216.400 377.600 C 216.658 377.600,216.800 373.206,216.800 365.218 L 216.800 352.836 215.500 352.644 C 214.785 352.538,206.829 352.251,197.820 352.005 C 188.811 351.759,180.621 351.404,179.620 351.217 C 178.619 351.030,176.270 350.667,174.400 350.410 C 137.639 345.350,103.715 325.628,79.435 295.200 C 75.257 289.964,75.098 290.218,82.900 289.655 C 89.143 289.204,94.267 288.766,102.376 287.992 L 106.152 287.631 110.376 290.284 C 122.073 297.630,135.537 304.705,146.400 309.214 C 149.150 310.355,151.940 311.519,152.600 311.801 C 154.412 312.573,157.188 313.607,159.200 314.258 C 160.190 314.578,161.360 315.003,161.800 315.201 C 163.496 315.966,176.235 320.031,182.462 321.794 C 188.222 323.425,192.947 318.127,190.018 313.322 C 188.716 311.187,188.603 311.140,174.538 306.820 C 169.976 305.419,170.067 305.493,168.826 302.200 C 168.329 300.880,167.776 299.440,167.598 299.000 C 167.420 298.560,166.161 295.320,164.800 291.800 C 160.954 281.849,160.438 281.200,156.386 281.200 C 151.016 281.200,149.392 285.313,152.044 292.200 C 153.521 296.036,153.768 296.671,154.342 298.100 C 154.829 299.314,153.966 299.643,152.495 298.804 C 152.113 298.586,150.180 297.707,148.200 296.850 C 142.229 294.267,132.030 289.161,127.000 286.235 C 126.560 285.980,125.173 285.179,123.918 284.457 C 122.663 283.735,121.557 282.842,121.461 282.472 C 121.364 282.102,121.075 280.900,120.818 279.800 C 120.560 278.700,120.188 277.170,119.990 276.400 C 119.593 274.856,117.019 264.200,115.159 256.400 C 114.504 253.650,113.804 250.770,113.605 250.000 C 113.406 249.230,112.870 247.100,112.415 245.268 C 110.890 239.123,107.247 236.943,102.916 239.585 C 100.192 241.247,99.609 243.620,100.780 248.290 C 101.209 250.000,102.295 254.460,103.195 258.200 C 104.890 265.249,105.241 266.673,105.968 269.446 C 106.449 271.281,106.531 272.800,106.149 272.800 C 104.888 272.800,87.760 258.764,80.200 251.536 L 77.400 248.858 76.099 240.129 C 75.383 235.328,74.433 228.880,73.987 225.800 C 70.601 202.415,71.044 204.649,69.440 202.865 C 65.985 199.021,59.200 201.494,59.200 206.598 C 59.200 207.417,61.632 225.225,62.543 231.074 C 62.954 233.714,61.290 231.991,53.240 221.436 C 47.751 214.239,48.282 217.966,48.023 184.828 L 47.800 156.255 43.541 153.782 C 41.198 152.422,38.072 150.429,36.593 149.354 C 29.596 144.266,29.200 143.930,29.197 143.066 C 29.195 142.535,28.808 142.021,28.196 141.737 C 27.648 141.483,27.300 141.438,27.423 141.637 C 27.779 142.214,27.201 142.058,26.543 141.400 C 26.176 141.033,26.121 140.800,26.400 140.800 C 26.679 140.800,26.624 140.567,26.257 140.200 C 25.927 139.870,25.295 139.600,24.852 139.600 C 24.409 139.600,23.937 139.422,23.803 139.205 C 23.658 138.970,23.852 138.911,24.279 139.058 C 24.896 139.272,24.884 139.215,24.200 138.667 C 23.760 138.314,23.215 138.020,22.988 138.013 C 22.762 138.006,22.317 137.640,22.000 137.200 C 21.683 136.760,21.193 136.400,20.912 136.400 C 20.630 136.400,20.400 136.220,20.400 136.000 C 20.400 135.780,20.130 135.600,19.800 135.600 C 19.470 135.600,19.200 135.409,19.200 135.176 C 19.200 134.943,19.020 134.864,18.800 135.000 C 18.580 135.136,18.400 134.967,18.400 134.624 C 18.400 134.281,18.106 134.000,17.747 134.000 C 17.388 134.000,16.803 133.673,16.447 133.272 C 15.854 132.606,14.639 131.920,13.900 131.835 C 13.735 131.816,13.645 131.697,13.700 131.571 C 13.863 131.199,12.503 130.000,11.917 130.000 C 11.620 130.000,11.117 129.640,10.800 129.200 C 10.483 128.760,9.803 128.400,9.288 128.400 C 8.766 128.400,8.462 128.223,8.600 128.000 C 9.364 126.763,2.211 127.619,1.068 128.901 M64.925 253.349 C 72.803 261.293,82.453 270.122,87.015 273.558 C 91.702 277.088,91.940 276.916,81.200 277.757 C 76.470 278.127,71.770 278.533,70.757 278.659 C 68.197 278.977,68.100 278.862,63.790 270.400 C 62.838 268.530,61.665 266.100,61.184 265.000 C 60.704 263.900,59.894 262.079,59.385 260.954 C 58.098 258.106,54.000 246.090,54.000 245.162 C 54.000 242.836,55.946 244.294,64.925 253.349 " stroke="none" fill="#81d360" fill-rule="evenodd"></path><path id="path3" d="M195.400 10.746 C 195.180 10.962,193.740 11.231,192.200 11.345 C 188.307 11.633,186.034 12.021,185.774 12.442 C 185.652 12.639,185.023 12.800,184.376 12.800 C 183.729 12.800,183.200 12.980,183.200 13.200 C 183.200 13.420,182.649 13.600,181.976 13.600 C 181.263 13.600,180.856 13.767,181.000 14.000 C 181.136 14.220,180.887 14.400,180.447 14.400 C 180.007 14.400,179.536 14.580,179.400 14.800 C 179.264 15.020,178.713 15.200,178.176 15.200 C 177.639 15.200,177.200 15.380,177.200 15.600 C 177.200 15.820,176.964 16.000,176.675 16.000 C 176.387 16.000,175.764 16.360,175.292 16.800 C 174.820 17.240,174.156 17.600,173.817 17.600 C 173.478 17.600,173.200 17.780,173.200 18.000 C 173.200 18.220,172.880 18.400,172.488 18.400 C 172.097 18.400,171.517 18.760,171.200 19.200 C 170.883 19.640,170.375 20.000,170.072 20.000 C 169.769 20.000,169.017 20.540,168.400 21.200 C 167.783 21.860,167.081 22.400,166.840 22.400 C 166.598 22.400,166.400 22.580,166.400 22.800 C 166.400 23.020,166.215 23.200,165.989 23.200 C 165.439 23.200,158.400 30.260,158.400 30.813 C 158.400 31.052,158.220 31.136,158.000 31.000 C 157.780 30.864,157.600 30.963,157.600 31.219 C 157.600 31.476,156.700 32.530,155.600 33.563 C 154.500 34.596,153.600 35.571,153.600 35.729 C 153.600 35.888,152.614 37.003,151.409 38.209 L 149.217 40.400 145.809 40.400 C 143.803 40.400,142.400 40.235,142.400 40.000 C 142.400 39.742,137.992 39.600,129.976 39.600 C 121.796 39.600,117.637 39.737,117.800 40.000 C 117.952 40.246,117.297 40.400,116.104 40.400 C 115.035 40.400,113.989 40.547,113.780 40.726 C 113.571 40.905,112.050 41.380,110.400 41.782 C 108.750 42.183,107.229 42.667,107.020 42.856 C 106.811 43.045,106.316 43.200,105.920 43.200 C 105.524 43.200,105.200 43.380,105.200 43.600 C 105.200 43.820,104.840 44.000,104.400 44.000 C 103.960 44.000,103.600 44.180,103.600 44.400 C 103.600 44.620,103.240 44.800,102.800 44.800 C 102.360 44.800,102.000 44.980,102.000 45.200 C 102.000 45.420,101.640 45.600,101.200 45.600 C 100.760 45.600,100.400 45.780,100.400 46.000 C 100.400 46.220,100.040 46.400,99.600 46.400 C 99.160 46.400,98.800 46.550,98.800 46.732 C 98.800 46.915,98.305 47.319,97.700 47.630 C 97.095 47.940,96.309 48.511,95.953 48.897 C 95.597 49.284,95.102 49.600,94.853 49.600 C 94.604 49.600,94.400 49.780,94.400 50.000 C 94.400 50.220,94.170 50.400,93.888 50.400 C 93.607 50.400,93.112 50.777,92.788 51.237 C 91.770 52.687,91.033 53.388,89.944 53.947 C 89.363 54.244,88.643 54.961,88.344 55.539 C 88.045 56.117,87.080 57.333,86.200 58.241 C 84.044 60.465,83.237 61.480,82.713 62.631 C 82.470 63.164,82.120 63.600,81.936 63.600 C 81.751 63.600,81.600 63.960,81.600 64.400 C 81.600 64.840,81.420 65.200,81.200 65.200 C 80.980 65.200,80.800 65.470,80.800 65.800 C 80.800 66.130,80.620 66.400,80.400 66.400 C 80.180 66.400,80.000 66.670,80.000 67.000 C 80.000 67.330,79.820 67.600,79.600 67.600 C 79.380 67.600,79.200 67.949,79.200 68.376 C 79.200 68.803,79.020 69.264,78.800 69.400 C 78.580 69.536,78.400 70.087,78.400 70.624 C 78.400 71.161,78.220 71.600,78.000 71.600 C 77.780 71.600,77.600 71.945,77.600 72.367 C 77.600 72.788,77.465 73.193,77.300 73.267 C 76.936 73.429,75.168 78.168,74.901 79.700 C 74.796 80.305,74.582 80.800,74.427 80.800 C 74.272 80.800,73.900 81.700,73.600 82.800 C 73.300 83.900,72.908 84.800,72.728 84.800 C 72.547 84.800,72.400 85.239,72.400 85.776 C 72.400 86.313,72.220 86.864,72.000 87.000 C 71.780 87.136,71.600 87.519,71.600 87.852 C 71.600 88.872,70.529 89.600,69.029 89.600 C 68.243 89.600,67.600 89.780,67.600 90.000 C 67.600 90.220,67.060 90.400,66.400 90.400 C 65.740 90.400,65.200 90.580,65.200 90.800 C 65.200 91.020,64.660 91.200,64.000 91.200 C 63.340 91.200,62.800 91.366,62.800 91.568 C 62.800 91.771,62.215 92.065,61.500 92.222 C 59.866 92.581,56.800 94.054,56.800 94.480 C 56.800 94.656,56.440 94.800,56.000 94.800 C 55.560 94.800,55.200 94.980,55.200 95.200 C 55.200 95.420,54.964 95.600,54.675 95.600 C 54.387 95.600,53.764 95.960,53.292 96.400 C 52.820 96.840,52.246 97.200,52.017 97.200 C 51.788 97.200,51.600 97.380,51.600 97.600 C 51.600 97.820,51.402 98.000,51.160 98.000 C 50.919 98.000,50.217 98.540,49.600 99.200 C 48.983 99.860,48.316 100.400,48.118 100.400 C 47.542 100.400,44.794 103.061,45.077 103.344 C 45.218 103.485,45.078 103.600,44.767 103.601 C 44.455 103.601,43.666 104.456,43.014 105.501 C 42.362 106.545,41.327 107.877,40.714 108.460 C 40.101 109.044,39.600 109.636,39.600 109.777 C 39.600 109.918,39.240 110.420,38.800 110.892 C 38.360 111.364,38.000 111.987,38.000 112.275 C 38.000 112.564,37.820 112.800,37.600 112.800 C 37.380 112.800,37.200 113.160,37.200 113.600 C 37.200 114.040,37.020 114.400,36.800 114.400 C 36.580 114.400,36.400 114.760,36.400 115.200 C 36.400 115.640,36.265 116.001,36.100 116.003 C 35.741 116.007,34.800 117.944,34.800 118.680 C 34.800 118.966,34.620 119.200,34.400 119.200 C 34.180 119.200,34.000 119.560,34.000 120.000 C 34.000 120.440,33.820 120.800,33.600 120.800 C 33.380 120.800,33.200 121.340,33.200 122.000 C 33.200 122.660,33.020 123.200,32.800 123.200 C 32.580 123.200,32.400 123.740,32.400 124.400 C 32.400 125.060,32.220 125.600,32.000 125.600 C 31.780 125.600,31.600 126.219,31.600 126.976 C 31.600 127.733,31.420 128.464,31.200 128.600 C 30.980 128.736,30.800 129.827,30.800 131.024 C 30.800 132.221,30.620 133.200,30.400 133.200 C 30.171 133.200,30.000 134.400,30.000 136.000 C 30.000 137.600,29.829 138.800,29.600 138.800 C 29.380 138.800,29.200 139.668,29.200 140.728 C 29.200 142.881,29.367 143.087,33.436 145.942 C 34.736 146.854,37.060 148.500,38.600 149.600 C 40.140 150.699,41.850 151.843,42.400 152.143 C 42.950 152.443,44.390 153.221,45.600 153.874 C 46.810 154.526,48.160 155.265,48.600 155.515 C 50.349 156.511,52.988 157.600,53.652 157.600 C 54.037 157.600,54.464 157.780,54.600 158.000 C 54.736 158.220,55.276 158.400,55.800 158.400 C 56.324 158.400,56.852 158.560,56.973 158.756 C 57.094 158.951,57.779 159.214,58.496 159.339 C 59.213 159.464,60.790 159.756,62.000 159.987 C 65.557 160.666,70.589 161.203,77.000 161.587 C 82.972 161.946,86.532 162.404,89.200 163.159 C 89.970 163.377,91.230 163.724,92.000 163.930 C 103.080 166.899,114.156 174.408,123.018 184.961 C 124.108 186.259,125.181 187.519,125.402 187.761 C 125.623 188.002,126.610 189.190,127.596 190.400 C 128.582 191.610,129.491 192.690,129.615 192.800 C 129.740 192.910,131.631 195.160,133.817 197.800 C 136.004 200.440,137.890 202.690,138.007 202.800 C 138.125 202.910,139.206 204.159,140.410 205.577 C 142.384 207.899,143.537 209.052,146.160 211.328 C 146.622 211.729,147.450 212.452,148.000 212.934 C 151.194 215.737,159.057 220.388,163.600 222.163 C 164.590 222.549,166.030 223.139,166.800 223.474 C 167.570 223.808,168.560 224.219,169.000 224.387 C 169.440 224.555,170.340 224.921,171.000 225.200 C 172.487 225.828,173.952 226.415,175.000 226.803 C 182.746 229.667,191.129 234.912,196.786 240.435 C 200.641 244.198,199.822 244.082,202.698 241.268 C 208.438 235.652,216.419 230.489,223.800 227.618 C 224.240 227.447,225.950 226.751,227.600 226.071 C 229.250 225.390,232.040 224.272,233.800 223.584 C 248.300 217.922,252.985 214.077,269.604 194.200 C 280.659 180.978,285.157 176.390,290.827 172.554 C 294.982 169.742,302.897 165.600,304.114 165.600 C 304.465 165.600,304.850 165.443,304.968 165.252 C 305.086 165.060,305.682 164.793,306.292 164.657 C 306.901 164.522,308.747 164.046,310.393 163.600 C 314.817 162.402,320.812 161.600,325.350 161.600 C 340.117 161.600,352.826 156.893,367.168 146.114 C 369.876 144.079,371.210 140.395,369.600 139.400 C 369.380 139.264,369.200 137.939,369.200 136.456 C 369.200 134.973,369.037 133.589,368.837 133.380 C 368.637 133.171,368.374 132.100,368.252 131.000 C 367.825 127.142,367.513 125.600,367.158 125.600 C 366.961 125.600,366.800 125.161,366.800 124.624 C 366.800 124.087,366.620 123.536,366.400 123.400 C 366.180 123.264,366.000 122.724,366.000 122.200 C 366.000 121.676,365.820 121.136,365.600 121.000 C 365.380 120.864,365.200 120.403,365.200 119.976 C 365.200 119.549,365.020 119.200,364.800 119.200 C 364.580 119.200,364.400 118.840,364.400 118.400 C 364.400 117.960,364.220 117.600,364.000 117.600 C 363.780 117.600,363.600 117.240,363.600 116.800 C 363.600 116.360,363.420 116.000,363.200 116.000 C 362.980 116.000,362.800 115.640,362.800 115.200 C 362.800 114.760,362.620 114.400,362.400 114.400 C 362.180 114.400,362.000 114.040,362.000 113.600 C 362.000 113.160,361.820 112.800,361.600 112.800 C 361.380 112.800,361.200 112.530,361.200 112.200 C 361.200 111.870,361.020 111.600,360.800 111.600 C 360.580 111.600,360.400 111.330,360.400 111.000 C 360.400 110.670,360.259 110.400,360.086 110.400 C 359.914 110.400,359.445 109.846,359.045 109.169 C 357.530 106.604,349.095 98.001,348.093 98.000 C 347.932 97.999,347.264 97.538,346.610 96.975 C 345.955 96.413,344.785 95.657,344.010 95.297 C 343.234 94.936,342.510 94.530,342.400 94.394 C 341.995 93.894,337.820 92.000,337.121 92.000 C 336.725 92.000,336.400 91.820,336.400 91.600 C 336.400 91.380,335.860 91.200,335.200 91.200 C 334.540 91.200,334.000 91.020,334.000 90.800 C 334.000 90.580,333.460 90.400,332.800 90.400 C 332.140 90.400,331.600 90.220,331.600 90.000 C 331.600 89.780,330.957 89.600,330.171 89.600 C 328.671 89.600,327.600 88.872,327.600 87.852 C 327.600 87.519,327.420 87.136,327.200 87.000 C 326.980 86.864,326.800 86.313,326.800 85.776 C 326.800 85.239,326.620 84.800,326.400 84.800 C 326.180 84.800,326.000 84.451,326.000 84.024 C 326.000 83.597,325.840 83.149,325.645 83.028 C 325.450 82.907,325.168 82.155,325.018 81.355 C 324.868 80.556,324.578 79.564,324.373 79.151 C 324.168 78.738,323.820 78.042,323.600 77.605 C 323.380 77.168,323.200 76.538,323.200 76.205 C 323.200 75.872,323.020 75.600,322.800 75.600 C 322.580 75.600,322.400 75.161,322.400 74.624 C 322.400 74.087,322.220 73.536,322.000 73.400 C 321.780 73.264,321.600 72.803,321.600 72.376 C 321.600 71.949,321.420 71.600,321.200 71.600 C 320.980 71.600,320.800 71.346,320.800 71.034 C 320.800 70.495,318.475 65.619,318.018 65.200 C 317.898 65.090,317.575 64.595,317.300 64.100 C 317.025 63.605,316.575 62.797,316.300 62.304 C 316.025 61.812,315.485 61.116,315.100 60.757 C 314.715 60.399,314.400 59.992,314.400 59.853 C 314.400 59.377,305.190 50.006,304.718 50.002 C 304.563 50.001,303.986 49.550,303.436 49.000 C 302.886 48.450,302.198 48.000,301.906 48.000 C 301.615 48.000,301.117 47.640,300.800 47.200 C 300.483 46.760,299.918 46.400,299.545 46.400 C 299.172 46.400,298.807 46.265,298.733 46.100 C 298.554 45.697,295.130 43.997,294.500 43.999 C 294.225 44.000,294.000 43.860,294.000 43.689 C 294.000 43.517,292.875 43.059,291.500 42.669 C 290.125 42.280,288.587 41.790,288.081 41.581 C 287.576 41.371,286.620 41.200,285.958 41.200 C 285.256 41.200,284.856 41.033,285.000 40.800 C 285.151 40.556,284.545 40.400,283.447 40.400 C 282.457 40.400,281.536 40.220,281.400 40.000 C 281.244 39.748,276.663 39.600,268.976 39.600 C 261.125 39.600,256.800 39.742,256.800 40.000 C 256.800 40.235,255.398 40.400,253.394 40.400 L 249.987 40.400 246.994 37.406 C 245.347 35.760,244.000 34.294,244.000 34.150 C 244.000 34.005,243.460 33.371,242.800 32.740 C 242.140 32.109,241.600 31.492,241.600 31.368 C 241.600 30.929,240.491 30.042,240.248 30.286 C 240.111 30.422,240.000 30.304,240.000 30.023 C 240.000 29.423,233.751 23.200,233.148 23.200 C 232.922 23.200,232.046 22.480,231.200 21.600 C 230.354 20.720,229.418 20.000,229.120 20.000 C 228.821 20.000,228.317 19.640,228.000 19.200 C 227.683 18.760,227.103 18.400,226.712 18.400 C 226.320 18.400,226.000 18.220,226.000 18.000 C 226.000 17.780,225.730 17.600,225.400 17.600 C 225.070 17.600,224.800 17.420,224.800 17.200 C 224.800 16.980,224.530 16.800,224.200 16.800 C 223.870 16.800,223.600 16.620,223.600 16.400 C 223.600 16.180,223.251 16.000,222.824 16.000 C 222.397 16.000,221.936 15.820,221.800 15.600 C 221.664 15.380,221.203 15.200,220.776 15.200 C 220.349 15.200,220.000 15.020,220.000 14.800 C 220.000 14.580,219.640 14.400,219.200 14.400 C 218.760 14.400,218.400 14.220,218.400 14.000 C 218.400 13.780,217.860 13.600,217.200 13.600 C 216.540 13.600,216.000 13.420,216.000 13.200 C 216.000 12.980,215.471 12.800,214.824 12.800 C 214.177 12.800,213.548 12.639,213.426 12.442 C 212.824 11.468,196.256 9.909,195.400 10.746 " stroke="none" fill="#fbf8bf" fill-rule="evenodd"></path><path id="path4" d="M30.944 145.109 C 31.260 145.621,33.600 147.353,33.600 147.075 C 33.600 146.976,32.939 146.391,32.132 145.775 C 31.324 145.159,30.789 144.859,30.944 145.109 M37.470 149.883 C 38.168 150.497,39.338 151.341,40.070 151.757 C 41.877 152.785,41.074 152.062,38.400 150.254 C 36.810 149.179,36.552 149.076,37.470 149.883 M47.508 156.100 C 47.771 156.423,47.973 166.627,48.080 185.000 C 48.271 217.949,47.745 214.231,53.240 221.436 C 59.416 229.533,62.173 232.766,62.481 232.272 C 62.642 232.012,62.619 231.746,62.430 231.681 C 62.240 231.615,62.169 231.240,62.272 230.848 C 62.374 230.455,61.725 225.080,60.829 218.904 C 58.976 206.131,58.968 206.010,59.852 204.147 C 61.562 200.543,66.732 199.852,69.440 202.865 C 70.928 204.520,70.867 204.275,72.393 214.800 C 72.824 217.770,73.541 222.720,73.987 225.800 C 74.433 228.880,75.383 235.328,76.099 240.129 L 77.400 248.858 80.200 251.536 C 87.760 258.764,104.888 272.800,106.149 272.800 C 106.531 272.800,106.449 271.281,105.968 269.446 C 105.241 266.673,104.890 265.249,103.195 258.200 C 102.295 254.460,101.209 250.000,100.780 248.290 C 99.609 243.620,100.192 241.247,102.916 239.585 C 107.247 236.943,110.890 239.123,112.415 245.268 C 112.870 247.100,113.406 249.230,113.605 250.000 C 113.804 250.770,114.504 253.650,115.159 256.400 C 117.019 264.200,119.593 274.856,119.990 276.400 C 120.188 277.170,120.560 278.700,120.818 279.800 C 121.075 280.900,121.364 282.102,121.461 282.472 C 121.557 282.842,122.663 283.735,123.918 284.457 C 125.173 285.179,126.560 285.980,127.000 286.235 C 132.030 289.161,142.229 294.267,148.200 296.850 C 150.180 297.707,152.113 298.586,152.495 298.804 C 153.966 299.643,154.829 299.314,154.342 298.100 C 153.768 296.671,153.521 296.036,152.044 292.200 C 149.392 285.313,151.016 281.200,156.386 281.200 C 160.438 281.200,160.954 281.849,164.800 291.800 C 166.161 295.320,167.420 298.560,167.598 299.000 C 167.776 299.440,168.329 300.880,168.826 302.200 C 170.067 305.493,169.976 305.419,174.538 306.820 C 188.603 311.140,188.716 311.187,190.018 313.322 C 192.947 318.127,188.222 323.425,182.462 321.794 C 176.235 320.031,163.496 315.966,161.800 315.201 C 161.360 315.003,160.190 314.578,159.200 314.258 C 157.188 313.607,154.412 312.573,152.600 311.801 C 151.940 311.519,149.150 310.355,146.400 309.214 C 135.537 304.705,122.073 297.630,110.376 290.284 L 106.152 287.631 102.376 287.992 C 94.267 288.766,89.143 289.204,82.900 289.655 C 75.098 290.218,75.257 289.964,79.435 295.200 C 103.767 325.693,136.928 344.973,174.400 350.414 C 176.050 350.654,178.390 351.012,179.600 351.210 C 180.810 351.408,188.370 351.762,196.400 351.996 C 204.430 352.231,212.119 352.463,213.487 352.511 C 215.671 352.589,215.903 352.529,215.388 352.015 C 214.904 351.532,212.050 351.376,199.101 351.125 C 190.465 350.957,182.410 350.724,181.200 350.606 C 177.026 350.202,169.981 349.136,166.600 348.397 C 160.188 346.996,155.696 345.893,155.105 345.575 C 154.723 345.369,154.046 345.200,153.600 345.200 C 153.154 345.200,152.477 345.042,152.095 344.849 C 151.033 344.313,148.624 343.600,147.872 343.600 C 147.502 343.600,147.200 343.420,147.200 343.200 C 147.200 342.980,146.838 342.800,146.395 342.800 C 145.952 342.800,145.277 342.641,144.895 342.447 C 143.969 341.976,141.095 340.779,139.000 339.993 C 136.869 339.192,124.189 332.758,121.084 330.902 C 119.151 329.746,117.478 328.800,117.368 328.800 C 117.257 328.800,116.780 328.440,116.308 328.000 C 115.836 327.560,115.213 327.200,114.925 327.200 C 114.636 327.200,114.400 327.020,114.400 326.800 C 114.400 326.580,114.130 326.400,113.800 326.400 C 113.470 326.400,113.200 326.220,113.200 326.000 C 113.200 325.780,112.930 325.600,112.600 325.600 C 112.270 325.600,112.000 325.459,112.000 325.286 C 112.000 325.114,111.467 324.657,110.815 324.272 C 110.163 323.887,109.398 323.347,109.115 323.073 C 108.832 322.798,107.970 322.132,107.200 321.592 C 106.430 321.053,105.440 320.313,105.000 319.949 C 95.541 312.116,89.840 306.638,84.446 300.200 C 82.603 298.000,80.710 295.750,80.240 295.200 C 79.770 294.650,78.947 293.570,78.412 292.800 C 77.877 292.030,77.270 291.284,77.064 291.142 C 76.663 290.866,79.267 290.492,83.800 290.173 C 85.340 290.064,91.001 289.620,96.381 289.184 L 106.161 288.393 109.309 290.396 C 111.040 291.498,112.624 292.400,112.828 292.400 C 113.033 292.400,113.200 292.559,113.200 292.753 C 113.200 292.948,113.515 293.207,113.900 293.329 C 114.642 293.564,116.863 294.843,117.200 295.229 C 117.310 295.355,117.670 295.576,118.000 295.720 C 118.330 295.864,119.500 296.522,120.600 297.182 C 121.700 297.842,123.590 298.873,124.800 299.472 C 126.010 300.072,127.090 300.676,127.200 300.815 C 127.472 301.160,137.655 306.050,144.000 308.884 C 144.990 309.326,146.113 309.848,146.495 310.044 C 146.877 310.240,147.462 310.400,147.795 310.400 C 148.128 310.400,148.400 310.580,148.400 310.800 C 148.400 311.020,148.672 311.200,149.005 311.200 C 149.338 311.200,149.968 311.380,150.405 311.600 C 150.842 311.820,151.558 312.180,151.995 312.400 C 152.432 312.620,153.152 312.800,153.595 312.800 C 154.038 312.800,154.400 312.980,154.400 313.200 C 154.400 313.420,154.850 313.600,155.400 313.600 C 155.950 313.600,156.400 313.780,156.400 314.000 C 156.400 314.220,156.839 314.400,157.376 314.400 C 157.913 314.400,158.464 314.580,158.600 314.800 C 158.736 315.020,159.276 315.200,159.800 315.200 C 160.324 315.200,160.843 315.346,160.954 315.525 C 161.064 315.703,162.470 316.265,164.077 316.772 C 165.685 317.280,167.360 317.834,167.800 318.004 C 168.697 318.350,176.349 320.741,180.542 321.986 C 185.885 323.572,188.687 322.824,190.650 319.289 C 192.730 315.543,190.212 310.000,186.429 310.000 C 185.999 310.000,185.536 309.820,185.400 309.600 C 185.264 309.380,184.724 309.200,184.200 309.200 C 183.676 309.200,183.136 309.020,183.000 308.800 C 182.864 308.580,182.324 308.400,181.800 308.400 C 181.276 308.400,180.736 308.220,180.600 308.000 C 180.464 307.780,179.834 307.600,179.200 307.600 C 178.566 307.600,177.936 307.420,177.800 307.200 C 177.664 306.980,177.034 306.800,176.400 306.800 C 175.766 306.800,175.136 306.620,175.000 306.400 C 174.864 306.180,174.313 306.000,173.776 306.000 C 173.239 306.000,172.800 305.832,172.800 305.627 C 172.800 305.421,172.305 305.196,171.700 305.127 C 170.590 304.999,170.293 304.434,167.838 297.800 C 167.675 297.360,167.405 296.730,167.238 296.400 C 167.071 296.070,166.685 294.945,166.380 293.900 C 166.075 292.855,165.685 292.000,165.513 292.000 C 165.341 292.000,165.200 291.638,165.200 291.195 C 165.200 290.752,165.041 290.077,164.847 289.695 C 164.652 289.313,164.271 288.460,164.000 287.800 C 163.729 287.140,163.348 286.287,163.153 285.905 C 162.959 285.523,162.800 284.981,162.800 284.701 C 162.800 283.032,159.024 280.400,156.630 280.400 C 151.119 280.400,148.444 285.334,150.828 291.100 C 151.033 291.595,151.356 292.405,151.546 292.900 C 152.124 294.401,152.873 296.160,153.247 296.895 C 153.936 298.249,153.575 298.387,151.500 297.562 C 150.345 297.103,148.860 296.519,148.200 296.264 C 147.540 296.009,146.037 295.305,144.859 294.700 C 143.682 294.095,142.467 293.600,142.159 293.600 C 141.852 293.600,141.600 293.420,141.600 293.200 C 141.600 292.980,141.240 292.800,140.800 292.800 C 140.360 292.800,140.000 292.620,140.000 292.400 C 140.000 292.180,139.728 292.000,139.395 292.000 C 138.831 292.000,137.256 291.267,136.800 290.792 C 136.690 290.677,135.340 289.961,133.800 289.200 C 132.260 288.439,130.910 287.723,130.800 287.608 C 130.690 287.494,129.880 287.013,129.000 286.540 C 122.030 282.793,122.167 282.924,121.388 279.291 C 121.024 277.591,120.568 275.660,120.376 275.000 C 120.183 274.340,119.652 272.180,119.194 270.200 C 118.215 265.966,117.685 263.857,117.173 262.172 C 116.968 261.496,116.800 260.472,116.800 259.895 C 116.800 259.319,116.620 258.736,116.400 258.600 C 116.180 258.464,116.000 257.744,116.000 257.000 C 116.000 256.256,115.820 255.536,115.600 255.400 C 115.380 255.264,115.200 254.544,115.200 253.800 C 115.200 253.056,115.039 252.348,114.842 252.226 C 114.645 252.105,114.375 251.284,114.242 250.403 C 114.109 249.521,113.891 248.079,113.758 247.197 C 113.625 246.316,113.355 245.495,113.158 245.374 C 112.961 245.252,112.800 244.719,112.800 244.189 C 112.800 243.304,111.679 240.895,110.715 239.708 C 109.264 237.922,105.412 237.500,102.883 238.850 C 99.741 240.527,98.941 243.864,100.355 249.400 C 101.440 253.648,101.681 254.710,101.875 256.103 C 101.990 256.929,102.245 257.705,102.442 257.826 C 102.639 257.948,102.800 258.656,102.800 259.400 C 102.800 260.144,102.980 260.864,103.200 261.000 C 103.420 261.136,103.600 261.856,103.600 262.600 C 103.600 263.344,103.780 264.064,104.000 264.200 C 104.220 264.336,104.400 265.056,104.400 265.800 C 104.400 266.544,104.580 267.264,104.800 267.400 C 105.020 267.536,105.200 268.188,105.200 268.850 C 105.200 269.511,105.395 270.416,105.632 270.861 C 106.164 271.854,105.888 272.224,105.148 271.510 C 104.846 271.220,102.800 269.645,100.600 268.009 C 98.400 266.373,96.369 264.847,96.086 264.618 C 95.803 264.388,95.353 264.020,95.086 263.800 C 94.818 263.580,93.789 262.750,92.799 261.955 C 91.810 261.160,90.424 259.990,89.721 259.355 C 89.017 258.720,87.931 257.750,87.307 257.200 C 86.683 256.650,84.244 254.417,81.886 252.239 L 77.600 248.277 77.600 246.162 C 77.600 244.999,77.420 243.936,77.200 243.800 C 76.980 243.664,76.800 242.404,76.800 241.000 C 76.800 239.596,76.620 238.336,76.400 238.200 C 76.180 238.064,76.000 236.919,76.000 235.656 C 76.000 234.393,75.835 233.189,75.632 232.980 C 75.430 232.771,75.171 231.430,75.057 230.000 C 74.942 228.570,74.647 226.050,74.400 224.400 C 74.152 222.750,73.788 220.320,73.590 219.000 C 73.391 217.680,73.044 215.078,72.817 213.218 C 71.819 205.018,71.115 202.979,68.737 201.406 C 67.154 200.358,62.400 199.903,62.400 200.800 C 62.400 201.020,62.158 201.200,61.862 201.200 C 59.951 201.200,57.262 208.049,58.800 209.000 C 59.020 209.136,59.200 210.371,59.200 211.744 C 59.200 213.117,59.365 214.411,59.566 214.620 C 59.768 214.829,60.028 216.080,60.144 217.400 C 60.260 218.720,60.556 221.150,60.802 222.800 C 61.363 226.559,61.891 230.967,61.797 231.104 C 61.758 231.161,61.292 230.635,60.763 229.935 C 60.233 229.234,59.436 228.288,58.991 227.831 C 58.547 227.374,57.741 226.370,57.202 225.600 C 56.663 224.830,55.922 223.872,55.555 223.472 C 54.218 222.012,50.321 216.387,49.571 214.834 C 48.832 213.305,48.800 212.062,48.800 184.991 C 48.800 161.043,48.713 156.656,48.229 156.171 C 47.525 155.468,46.949 155.411,47.508 156.100 M0.109 218.000 C 0.109 218.990,0.187 219.395,0.282 218.900 C 0.378 218.405,0.378 217.595,0.282 217.100 C 0.187 216.605,0.109 217.010,0.109 218.000 M1.480 229.336 C 1.367 229.631,1.435 230.126,1.631 230.436 C 1.891 230.847,1.989 230.701,1.994 229.900 C 2.001 228.706,1.804 228.490,1.480 229.336 M54.000 245.162 C 54.000 246.090,58.098 258.106,59.385 260.954 C 59.894 262.079,60.704 263.900,61.184 265.000 C 61.665 266.100,62.838 268.530,63.790 270.400 C 68.100 278.862,68.197 278.977,70.757 278.659 C 71.770 278.533,76.470 278.127,81.200 277.757 C 91.940 276.916,91.702 277.088,87.015 273.558 C 82.453 270.122,72.803 261.293,64.925 253.349 C 55.946 244.294,54.000 242.836,54.000 245.162 M55.703 245.316 C 56.249 245.599,58.835 248.056,61.448 250.775 C 64.062 253.493,67.084 256.546,68.165 257.559 C 69.246 258.571,71.238 260.496,72.593 261.835 C 75.929 265.134,87.233 274.819,88.149 275.164 C 91.145 276.292,87.708 276.874,72.386 277.831 L 68.572 278.070 67.987 276.935 C 67.665 276.311,67.306 275.710,67.189 275.600 C 66.755 275.191,61.995 265.381,61.998 264.900 C 61.999 264.625,61.820 264.400,61.600 264.400 C 61.380 264.400,61.200 264.051,61.200 263.624 C 61.200 263.197,61.020 262.736,60.800 262.600 C 60.580 262.464,60.400 262.003,60.400 261.576 C 60.400 261.149,60.220 260.800,60.000 260.800 C 59.780 260.800,59.600 260.451,59.600 260.024 C 59.600 259.597,59.420 259.136,59.200 259.000 C 58.980 258.864,58.800 258.401,58.800 257.971 C 58.800 257.541,58.641 256.877,58.447 256.495 C 57.666 254.961,57.176 253.626,55.986 249.800 C 55.302 247.600,54.671 245.575,54.584 245.300 C 54.386 244.677,54.473 244.678,55.703 245.316 M138.400 352.153 C 138.400 352.500,140.387 352.654,140.874 352.346 C 141.209 352.133,140.856 352.010,139.900 352.006 C 139.075 352.003,138.400 352.069,138.400 352.153 " stroke="none" fill="#94d974" fill-rule="evenodd"></path></g></svg>