<svg height="512" viewBox="0 0 58 58" width="512" xmlns="http://www.w3.org/2000/svg"><g id="011---Cottage-Cheese" fill="none"><path id="Shape" d="m5 21c-1-3-1-3 1-5s.764-1.764 3-4c2-2 6 0 7-2s1-3 4-4 4 0 5-3c.5737747-1.73880722 2.1700881-2.93604228 4-3 1.8299119.06395772 3.4262253 1.26119278 4 3 1 3 2 2 5 3s3 2 4 4 5 0 7 2c2.236 2.236 1 2 3 4s2 2 1 5l-19 2h-11z" fill="#f9eab0"/><g fill="#e4c05c"><path id="Shape" d="m19.341 15.89c-.9552436-.0291749-1.8158977-.584597-2.236-1.443-.2472938-.491935-.0504023-1.0912264.4404573-1.340648.4908596-.2494217 1.0909979-.055127 1.3425427.434648.039.069.212.317.4.345.086.013.4.005 1-.593.3923789-.3789722 1.0160848-.3735524 1.4018186.0121814s.3911536 1.0094397.0121814 1.4018186c-.596804.6946201-1.4473256 1.1207815-2.361 1.183z"/><path id="Shape" d="m34 12c-.8026156.0234737-1.5793921-.2850527-2.1471697-.8528303s-.876304-1.34455412-.8528303-2.1471697c0-.55228475.4477153-1 1-1s1 .44771525 1 1c-.0282638.27290564.0679734.5440154.261979.73802098s.4651154.29024282.738021.26197902c.5522847 0 1 .4477153 1 1s-.4477153 1-1 1z"/><path id="Shape" d="m43 18c-3.711 0-4-1.531-4-2 .0001143-.4894125.3544334-.9068324.837327-.9864466s.9524573.2019729 1.109673.6654466c.6467865.276774 1.3525978.3871322 2.053.321.5522847 0 1 .4477153 1 1s-.4477153 1-1 1z"/></g><path id="Shape" d="m41 50.14v5.86c-.0032948 1.1032019-.8967981 1.9967052-2 2h-20c-1.1032019-.0032948-1.9967052-.8967981-2-2v-5.86z" fill="#2980ba"/><path id="Shape" d="m55.934 21c.5517925.0015671 1.0786499.2300225 1.4569249.6317506.378275.401728.5746634.9413596.5430751 1.4922494-.988 16.683-13.565 29.876-28.934 29.876s-27.946-13.193-28.937-29.876c-.03158828-.5508898.16480012-1.0905214.54307511-1.4922494.378275-.4017281.90513241-.6301835 1.45692489-.6317506z" fill="#3b97d3"/><path id="Shape" d="m6 26h-1c-.55228475 0-1-.4477153-1-1s.44771525-1 1-1h1c.55228475 0 1 .4477153 1 1s-.44771525 1-1 1z" fill="#9fc9d3"/><path id="Shape" d="m29 26h-19c-.55228475 0-1-.4477153-1-1s.44771525-1 1-1h19c.5522847 0 1 .4477153 1 1s-.4477153 1-1 1z" fill="#9fc9d3"/></g></svg>