<svg id="svg" version="1.1" xmlns="http://www.w3.org/2000/svg" xmlns:xlink="http://www.w3.org/1999/xlink" width="400" height="400" viewBox="0, 0, 400,400"><g id="svgg"><path id="path0" d="M231.413 60.778 C 231.270 61.010,230.634 61.200,230.000 61.200 C 229.366 61.200,228.736 61.380,228.600 61.600 C 228.464 61.820,228.003 62.000,227.576 62.000 C 227.149 62.000,226.800 62.180,226.800 62.400 C 226.800 62.620,226.365 62.800,225.833 62.800 C 225.302 62.800,224.807 62.966,224.733 63.170 C 224.660 63.373,224.334 63.598,224.010 63.670 C 223.685 63.742,223.175 64.027,222.877 64.304 C 222.579 64.581,222.170 64.705,221.968 64.580 C 221.765 64.455,221.600 64.543,221.600 64.776 C 221.600 65.009,221.240 65.200,220.800 65.200 C 220.360 65.200,219.999 65.335,219.997 65.500 C 219.995 65.665,219.590 65.998,219.097 66.240 C 217.119 67.212,214.589 68.614,214.400 68.844 C 214.290 68.978,213.480 69.334,212.600 69.635 C 211.720 69.937,210.410 70.502,209.688 70.892 C 208.966 71.281,207.841 71.600,207.188 71.600 C 206.535 71.600,206.000 71.797,206.000 72.038 C 206.000 72.469,198.667 72.387,181.300 71.763 C 176.740 71.599,174.800 71.660,174.800 71.965 C 174.800 72.204,174.260 72.400,173.600 72.400 C 172.940 72.400,172.400 72.580,172.400 72.800 C 172.400 73.020,172.055 73.200,171.633 73.200 C 171.212 73.200,170.807 73.367,170.733 73.570 C 170.660 73.774,170.330 73.999,170.000 74.070 C 169.670 74.142,169.310 74.300,169.200 74.421 C 169.090 74.543,168.280 75.164,167.400 75.801 C 165.469 77.200,162.011 80.477,162.005 80.914 C 162.002 81.087,161.632 81.627,161.182 82.114 C 159.653 83.771,158.401 85.399,158.400 85.731 C 158.400 85.914,157.680 86.754,156.800 87.600 C 155.920 88.446,155.196 89.376,155.191 89.669 C 155.186 89.961,154.439 90.830,153.531 91.600 C 152.623 92.370,151.418 93.505,150.854 94.122 C 150.290 94.739,149.237 95.524,148.514 95.867 C 147.791 96.210,147.200 96.651,147.200 96.846 C 147.200 97.041,146.840 97.200,146.400 97.200 C 145.960 97.200,145.600 97.380,145.600 97.600 C 145.600 97.820,145.240 98.000,144.800 98.000 C 144.360 98.000,144.000 98.146,144.000 98.325 C 144.000 98.703,141.210 99.853,140.691 99.690 C 140.498 99.630,140.455 99.765,140.594 99.990 C 140.742 100.229,140.421 100.400,139.824 100.400 C 139.261 100.400,138.800 100.580,138.800 100.800 C 138.800 101.020,138.260 101.200,137.600 101.200 C 136.940 101.200,136.400 101.380,136.400 101.600 C 136.400 101.820,135.961 102.000,135.424 102.000 C 134.887 102.000,134.336 102.180,134.200 102.400 C 134.064 102.620,133.603 102.800,133.176 102.800 C 132.749 102.800,132.400 102.980,132.400 103.200 C 132.400 103.420,131.961 103.600,131.424 103.600 C 130.887 103.600,130.336 103.780,130.200 104.000 C 130.064 104.220,129.603 104.400,129.176 104.400 C 128.749 104.400,128.400 104.580,128.400 104.800 C 128.400 105.020,128.040 105.200,127.600 105.200 C 127.160 105.200,126.800 105.380,126.800 105.600 C 126.800 105.820,126.530 106.000,126.200 106.000 C 125.870 106.000,125.600 106.180,125.600 106.400 C 125.600 106.620,125.280 106.800,124.888 106.800 C 124.497 106.800,123.917 107.160,123.600 107.600 C 123.283 108.040,122.809 108.400,122.546 108.400 C 122.072 108.400,119.200 110.982,119.200 111.409 C 119.200 111.740,117.449 114.178,117.100 114.333 C 116.935 114.407,116.800 114.801,116.800 115.210 C 116.800 115.618,116.620 116.064,116.400 116.200 C 116.180 116.336,116.000 116.887,116.000 117.424 C 116.000 117.961,115.857 118.400,115.682 118.400 C 115.507 118.400,115.318 119.075,115.263 119.899 C 115.207 120.724,114.990 121.570,114.781 121.779 C 114.571 121.989,114.400 123.114,114.400 124.280 C 114.400 125.446,114.239 126.400,114.042 126.400 C 113.846 126.400,113.575 127.795,113.441 129.500 C 112.969 135.518,112.722 137.200,112.309 137.200 C 112.042 137.200,111.984 137.874,112.147 139.067 C 112.567 142.127,110.871 145.794,104.663 155.253 C 100.869 161.033,98.543 165.315,98.320 166.929 L 98.200 167.800 236.600 167.902 C 312.720 167.959,375.224 167.920,375.498 167.816 C 376.052 167.605,375.906 167.140,373.981 163.000 C 373.368 161.680,372.758 160.105,372.625 159.500 C 372.493 158.895,372.208 158.400,371.992 158.400 C 371.777 158.400,371.600 158.040,371.600 157.600 C 371.600 157.160,371.450 156.800,371.268 156.800 C 371.085 156.800,370.680 156.305,370.368 155.700 C 370.055 155.095,369.485 154.251,369.100 153.825 C 368.715 153.398,368.400 152.896,368.400 152.708 C 368.400 152.520,368.040 151.980,367.600 151.508 C 367.160 151.036,366.800 150.413,366.800 150.125 C 366.800 149.836,366.620 149.600,366.400 149.600 C 366.180 149.600,366.000 149.322,366.000 148.983 C 366.000 148.644,365.640 147.980,365.200 147.508 C 364.760 147.036,364.400 146.413,364.400 146.125 C 364.400 145.836,364.220 145.600,364.000 145.600 C 363.780 145.600,363.600 145.251,363.600 144.824 C 363.600 144.397,363.420 143.936,363.200 143.800 C 362.980 143.664,362.800 143.203,362.800 142.776 C 362.800 142.349,362.620 142.000,362.400 142.000 C 362.180 142.000,362.000 141.280,362.000 140.400 C 362.000 139.520,361.820 138.800,361.600 138.800 C 361.380 138.800,361.200 137.821,361.200 136.624 C 361.200 135.427,361.020 134.336,360.800 134.200 C 360.580 134.064,360.400 132.703,360.400 131.176 C 360.400 129.592,360.228 128.400,360.000 128.400 C 359.778 128.400,359.600 127.341,359.600 126.024 C 359.600 124.717,359.420 123.536,359.200 123.400 C 358.980 123.264,358.800 122.533,358.800 121.776 C 358.800 121.019,358.659 120.400,358.487 120.400 C 358.315 120.400,357.924 119.545,357.618 118.500 C 356.645 115.175,352.631 108.861,350.937 107.990 C 350.312 107.669,349.509 107.089,349.153 106.703 C 348.797 106.316,348.212 106.000,347.853 106.000 C 347.494 106.000,347.200 105.820,347.200 105.600 C 347.200 105.380,346.851 105.200,346.424 105.200 C 345.997 105.200,345.536 105.020,345.400 104.800 C 345.264 104.580,344.713 104.400,344.176 104.400 C 343.639 104.400,343.200 104.220,343.200 104.000 C 343.200 103.780,342.840 103.600,342.400 103.600 C 341.960 103.600,341.600 103.420,341.600 103.200 C 341.600 102.980,341.150 102.800,340.600 102.800 C 340.050 102.800,339.600 102.620,339.600 102.400 C 339.600 102.180,339.161 102.000,338.624 102.000 C 338.087 102.000,337.536 101.820,337.400 101.600 C 337.264 101.380,336.803 101.200,336.376 101.200 C 335.949 101.200,335.600 101.020,335.600 100.800 C 335.600 100.580,335.060 100.400,334.400 100.400 C 333.740 100.400,333.200 100.220,333.200 100.000 C 333.200 99.780,332.840 99.600,332.400 99.600 C 331.960 99.600,331.600 99.420,331.600 99.200 C 331.600 98.980,331.240 98.800,330.800 98.800 C 330.360 98.800,330.000 98.609,330.000 98.376 C 330.000 98.143,329.835 98.055,329.632 98.180 C 329.430 98.305,328.993 98.136,328.661 97.804 C 328.329 97.472,327.774 97.200,327.429 97.200 C 327.083 97.200,326.800 97.020,326.800 96.800 C 326.800 96.580,326.575 96.396,326.300 96.391 C 326.025 96.386,325.148 95.801,324.350 95.091 C 323.553 94.381,322.456 93.421,321.913 92.957 C 321.370 92.494,320.672 91.771,320.363 91.350 C 320.053 90.930,319.313 90.275,318.718 89.896 C 317.492 89.113,312.668 83.280,311.712 81.424 C 310.937 79.920,305.712 74.800,304.952 74.800 C 304.648 74.800,304.400 74.632,304.400 74.426 C 304.400 74.220,303.770 73.824,303.000 73.546 C 302.230 73.267,301.600 72.895,301.600 72.720 C 301.600 72.544,300.970 72.400,300.200 72.400 C 299.430 72.400,298.800 72.220,298.800 72.000 C 298.800 71.746,295.667 71.600,290.200 71.600 C 284.733 71.600,281.600 71.746,281.600 72.000 C 281.600 72.251,279.067 72.400,274.800 72.400 C 270.533 72.400,268.000 72.251,268.000 72.000 C 268.000 71.780,267.145 71.597,266.100 71.594 C 263.962 71.588,256.814 68.414,255.438 66.860 C 255.019 66.387,254.434 66.000,254.138 66.000 C 253.842 66.000,253.600 65.820,253.600 65.600 C 253.600 65.380,253.240 65.200,252.800 65.200 C 252.360 65.200,252.000 65.020,252.000 64.800 C 252.000 64.580,251.640 64.400,251.200 64.400 C 250.760 64.400,250.399 64.265,250.397 64.100 C 250.393 63.741,248.456 62.800,247.720 62.800 C 247.434 62.800,247.200 62.650,247.200 62.467 C 247.200 61.221,232.136 59.610,231.413 60.778 M241.387 98.759 C 242.946 103.670,235.761 115.178,229.200 118.277 C 225.136 120.198,224.550 120.380,221.569 120.658 L 218.770 120.918 218.885 116.961 L 219.000 113.005 221.400 112.573 C 227.500 111.475,231.701 107.282,233.198 100.800 C 233.477 99.590,233.782 98.465,233.876 98.300 C 234.301 97.555,241.137 97.973,241.387 98.759 M307.102 119.700 C 306.284 129.523,297.362 138.547,287.567 139.458 C 284.352 139.757,284.278 139.651,284.480 135.016 L 284.600 132.248 287.200 131.592 C 293.737 129.942,299.200 124.517,299.200 119.676 C 299.200 117.280,299.340 117.200,303.498 117.200 L 307.310 117.200 307.102 119.700 M169.210 127.426 C 169.424 127.990,169.600 128.885,169.600 129.414 C 169.600 134.091,175.681 139.863,181.800 140.995 L 184.200 141.439 184.315 145.126 C 184.452 149.524,184.405 149.567,180.230 148.859 C 170.581 147.224,161.600 137.555,161.600 128.801 C 161.600 126.379,161.567 126.400,165.477 126.400 C 168.697 126.400,168.834 126.438,169.210 127.426 M117.200 259.731 C 117.200 262.421,102.756 263.886,95.000 261.983 C 92.740 261.429,86.400 261.107,86.400 261.547 C 86.400 261.705,85.275 262.059,83.900 262.334 C 82.525 262.608,80.847 263.005,80.172 263.216 C 79.496 263.427,78.137 263.600,77.152 263.600 C 76.166 263.600,75.134 263.825,74.857 264.100 C 74.477 264.478,71.069 264.612,60.877 264.650 C 47.707 264.699,44.000 264.917,44.000 265.642 C 44.000 265.839,43.550 266.000,43.000 266.000 C 42.450 266.000,42.000 266.180,42.000 266.400 C 42.000 266.620,41.716 266.800,41.369 266.800 C 40.654 266.800,35.600 271.845,35.600 272.558 C 35.600 272.814,35.240 273.283,34.800 273.600 C 34.360 273.917,34.000 274.497,34.000 274.888 C 34.000 275.280,33.820 275.600,33.600 275.600 C 33.380 275.600,33.200 276.050,33.200 276.600 C 33.200 277.150,33.020 277.600,32.800 277.600 C 32.580 277.600,32.400 278.140,32.400 278.800 C 32.400 279.460,32.220 280.000,32.000 280.000 C 31.780 280.000,31.600 280.900,31.600 282.000 C 31.600 283.118,31.417 284.000,31.184 284.000 C 30.920 284.000,30.810 285.207,30.884 287.300 L 31.000 290.600 112.200 290.694 C 156.860 290.746,193.204 290.656,192.964 290.494 C 192.724 290.332,192.213 288.130,191.829 285.600 C 190.203 274.886,185.951 268.607,178.720 266.241 C 175.806 265.288,172.640 265.076,160.200 265.002 C 146.798 264.922,144.098 264.612,135.600 262.177 C 129.307 260.374,124.274 259.318,120.300 258.965 L 117.200 258.690 117.200 259.731 M219.600 290.971 C 219.600 291.065,220.185 291.423,220.900 291.766 L 222.200 292.392 221.256 291.596 C 220.382 290.860,219.600 290.564,219.600 290.971 M222.675 293.000 C 222.854 293.440,223.052 297.265,223.116 301.500 C 223.193 306.558,223.377 309.200,223.655 309.200 C 224.452 309.200,223.917 294.820,223.067 293.400 C 222.672 292.740,222.496 292.560,222.675 293.000 M223.500 326.533 C 223.335 326.936,223.218 329.096,223.240 331.333 C 223.274 334.786,223.337 335.159,223.655 333.800 C 224.092 331.930,223.954 325.425,223.500 326.533 M221.800 336.800 C 220.677 337.972,220.559 338.000,216.775 338.000 C 210.946 338.000,209.179 338.549,214.200 338.800 C 219.053 339.043,221.797 338.274,222.805 336.391 C 223.390 335.298,223.142 335.399,221.800 336.800 M118.700 338.276 C 118.315 338.376,118.000 338.715,118.000 339.029 C 118.000 339.685,118.634 339.793,119.000 339.200 C 119.136 338.980,120.542 338.782,122.124 338.760 C 124.174 338.732,124.713 338.628,124.000 338.400 C 122.917 338.053,119.829 337.981,118.700 338.276 M140.835 338.291 C 137.780 338.867,143.498 338.986,168.062 338.857 C 183.098 338.779,194.950 338.572,194.400 338.397 C 193.366 338.069,142.548 337.968,140.835 338.291 " stroke="none" fill="#fadec1" fill-rule="evenodd"></path><path id="path1" d="M73.200 168.900 C 73.200 169.505,73.380 170.000,73.600 170.000 C 73.820 170.000,74.000 170.630,74.000 171.400 C 74.000 172.170,74.180 172.800,74.400 172.800 C 74.620 172.800,74.800 173.520,74.800 174.400 C 74.800 175.280,74.980 176.000,75.200 176.000 C 75.420 176.000,75.600 176.349,75.600 176.776 C 75.600 177.203,75.760 177.652,75.956 177.773 C 76.151 177.894,76.408 178.579,76.527 179.296 C 76.645 180.013,76.927 181.320,77.153 182.200 C 77.379 183.080,77.676 184.340,77.812 185.000 C 77.949 185.660,78.207 186.560,78.387 187.000 C 78.567 187.440,78.899 189.060,79.125 190.600 C 79.622 193.999,79.950 195.485,80.494 196.800 L 80.907 197.800 236.465 197.698 C 374.665 197.607,392.049 197.663,392.255 198.198 C 392.691 199.335,393.200 198.798,393.200 197.200 C 393.200 196.320,393.380 195.600,393.600 195.600 C 393.820 195.600,394.000 194.880,394.000 194.000 C 394.000 193.120,394.180 192.400,394.400 192.400 C 394.620 192.400,394.800 191.770,394.800 191.000 C 394.800 190.230,394.980 189.600,395.200 189.600 C 395.420 189.600,395.600 188.981,395.600 188.224 C 395.600 187.467,395.780 186.736,396.000 186.600 C 396.220 186.464,396.400 185.834,396.400 185.200 C 396.400 184.566,396.580 183.936,396.800 183.800 C 397.020 183.664,397.200 182.944,397.200 182.200 C 397.200 181.456,397.380 180.736,397.600 180.600 C 397.820 180.464,398.000 179.733,398.000 178.976 C 398.000 178.219,398.180 177.600,398.400 177.600 C 398.620 177.600,398.800 177.006,398.800 176.280 C 398.800 175.554,398.972 174.788,399.183 174.577 C 399.393 174.367,399.685 172.756,399.832 170.997 L 400.098 167.800 236.649 167.800 L 73.200 167.800 73.200 168.900 M82.400 204.776 C 82.400 205.203,82.580 205.664,82.800 205.800 C 83.020 205.936,83.200 206.667,83.200 207.424 C 83.200 208.181,83.380 208.800,83.600 208.800 C 83.820 208.800,84.000 209.520,84.000 210.400 C 84.000 211.280,84.180 212.000,84.400 212.000 C 84.620 212.000,84.800 212.720,84.800 213.600 C 84.800 214.480,84.980 215.200,85.200 215.200 C 85.420 215.200,85.600 215.729,85.600 216.376 C 85.600 217.023,85.780 217.664,86.000 217.800 C 86.220 217.936,86.400 218.667,86.400 219.424 C 86.400 220.181,86.568 220.800,86.773 220.800 C 86.979 220.800,87.204 221.279,87.273 221.864 C 87.382 222.777,88.035 223.254,91.885 225.230 C 104.476 231.694,112.873 242.159,115.931 255.200 C 117.015 259.822,116.926 260.638,115.284 261.107 C 110.359 262.514,100.379 262.760,95.400 261.598 C 94.300 261.341,92.410 261.073,91.200 261.001 L 89.000 260.870 91.000 261.209 C 92.100 261.396,93.900 261.757,95.000 262.011 C 103.019 263.866,117.200 262.409,117.200 259.731 L 117.200 258.690 120.300 258.965 C 124.274 259.318,129.307 260.374,135.600 262.177 C 144.098 264.612,146.798 264.922,160.200 265.002 C 172.640 265.076,175.806 265.288,178.720 266.241 C 185.951 268.607,190.203 274.886,191.829 285.600 C 192.213 288.130,192.724 290.332,192.964 290.494 C 193.204 290.656,199.419 290.791,206.775 290.794 C 225.693 290.803,223.813 288.145,223.763 314.800 C 223.716 340.332,224.162 339.359,212.801 338.674 C 209.830 338.495,203.080 338.451,197.800 338.575 C 192.520 338.700,177.400 338.757,164.200 338.701 C 129.375 338.554,119.601 338.639,119.150 339.090 C 118.892 339.348,159.728 339.469,237.673 339.442 C 356.264 339.400,356.589 339.398,356.715 338.600 C 356.784 338.160,357.000 337.440,357.193 337.000 C 357.555 336.179,357.904 334.467,358.213 332.000 C 358.668 328.370,358.912 327.178,359.242 326.974 C 359.439 326.852,359.600 326.234,359.600 325.600 C 359.600 324.966,359.780 324.336,360.000 324.200 C 360.220 324.064,360.400 323.344,360.400 322.600 C 360.400 321.856,360.560 321.148,360.756 321.027 C 360.951 320.906,361.208 320.221,361.327 319.504 C 361.563 318.072,362.098 315.868,362.806 313.400 C 363.059 312.520,363.361 311.305,363.478 310.700 C 363.595 310.095,363.850 309.600,364.045 309.600 C 364.240 309.600,364.400 309.071,364.400 308.424 C 364.400 307.777,364.580 307.136,364.800 307.000 C 365.020 306.864,365.200 306.234,365.200 305.600 C 365.200 304.966,365.380 304.336,365.600 304.200 C 365.820 304.064,366.000 303.344,366.000 302.600 C 366.000 301.856,366.180 301.136,366.400 301.000 C 366.620 300.864,366.800 300.133,366.800 299.376 C 366.800 298.619,366.980 298.000,367.200 298.000 C 367.420 298.000,367.600 297.280,367.600 296.400 C 367.600 295.520,367.760 294.800,367.956 294.800 C 368.152 294.800,368.409 294.215,368.527 293.500 C 368.646 292.785,368.948 291.390,369.200 290.400 C 369.452 289.410,369.755 288.013,369.873 287.296 C 369.992 286.579,370.249 285.894,370.444 285.773 C 370.640 285.652,370.800 285.034,370.800 284.400 C 370.800 283.766,370.980 283.136,371.200 283.000 C 371.420 282.864,371.600 282.281,371.600 281.705 C 371.600 281.128,371.768 280.104,371.973 279.428 C 372.178 278.753,372.559 277.390,372.818 276.400 C 373.078 275.410,373.427 274.240,373.592 273.800 C 374.071 272.526,374.725 269.559,375.026 267.291 C 375.178 266.141,375.460 265.200,375.652 265.200 C 375.843 265.200,376.000 264.480,376.000 263.600 C 376.000 262.720,376.180 262.000,376.400 262.000 C 376.620 262.000,376.800 261.280,376.800 260.400 C 376.800 259.520,376.980 258.800,377.200 258.800 C 377.420 258.800,377.600 258.181,377.600 257.424 C 377.600 256.667,377.780 255.936,378.000 255.800 C 378.220 255.664,378.400 254.933,378.400 254.176 C 378.400 253.419,378.580 252.800,378.800 252.800 C 379.020 252.800,379.200 252.170,379.200 251.400 C 379.200 250.630,379.380 250.000,379.600 250.000 C 379.820 250.000,380.000 249.269,380.000 248.376 C 380.000 247.483,380.144 246.842,380.320 246.951 C 380.496 247.059,380.684 246.485,380.737 245.674 C 380.791 244.863,381.007 244.140,381.218 244.067 C 381.428 243.993,381.600 243.228,381.600 242.367 C 381.600 241.505,381.780 240.800,382.000 240.800 C 382.220 240.800,382.400 240.080,382.400 239.200 C 382.400 238.320,382.580 237.600,382.800 237.600 C 383.020 237.600,383.200 236.969,383.200 236.198 C 383.200 235.427,383.667 233.042,384.239 230.898 C 384.810 228.754,385.879 224.660,386.613 221.800 C 387.970 216.520,388.831 213.836,389.326 213.341 C 389.477 213.190,389.600 212.467,389.600 211.733 C 389.600 211.000,389.780 210.400,390.000 210.400 C 390.220 210.400,390.400 209.848,390.400 209.174 C 390.400 208.499,390.555 207.644,390.744 207.274 C 390.933 206.903,391.198 206.015,391.334 205.300 L 391.580 204.000 236.990 204.000 C 84.233 204.000,82.400 204.009,82.400 204.776 " stroke="none" fill="#a2c8d2" fill-rule="evenodd"></path><path id="path2" d="M81.867 198.267 C 81.336 198.797,81.593 202.450,82.204 203.061 C 82.767 203.624,215.390 203.890,368.900 203.637 L 391.600 203.600 391.628 202.100 C 391.651 200.897,391.724 200.758,392.000 201.400 C 392.252 201.988,392.351 201.642,392.372 200.100 L 392.400 198.000 237.267 198.000 C 151.943 198.000,82.013 198.120,81.867 198.267 " stroke="none" fill="#d74c62" fill-rule="evenodd"></path><path id="path3" d="M20.143 20.152 L 0.000 40.305 0.000 48.797 L 0.000 57.289 4.474 53.145 C 10.354 47.697,49.647 8.408,53.943 3.680 L 57.287 0.000 48.786 0.000 L 40.286 0.000 20.143 20.152 M97.138 13.500 C 89.642 20.925,82.011 28.530,80.181 30.400 C 78.351 32.270,67.815 42.800,56.767 53.800 C 45.719 64.800,36.122 74.413,35.440 75.161 C 34.758 75.910,33.673 76.990,33.029 77.561 C 32.385 78.133,31.575 78.890,31.229 79.245 C 30.883 79.600,23.715 86.834,15.300 95.322 L -0.000 110.753 -0.000 119.010 C -0.000 124.121,0.147 127.216,0.385 127.133 C 1.375 126.790,24.400 104.224,24.400 103.597 C 24.400 103.378,24.593 103.200,24.828 103.200 C 25.265 103.200,36.800 91.833,36.800 91.401 C 36.800 91.093,38.691 89.200,38.999 89.200 C 39.306 89.200,55.600 72.906,55.600 72.599 C 55.600 72.291,57.493 70.400,57.801 70.400 C 58.118 70.400,69.600 58.926,69.600 58.610 C 69.600 58.235,71.516 56.400,71.907 56.400 C 72.415 56.400,74.400 54.233,74.400 53.678 C 74.400 53.415,74.576 53.200,74.791 53.200 C 75.243 53.200,102.203 26.332,103.395 24.693 C 103.832 24.092,104.362 23.600,104.573 23.600 C 105.107 23.600,107.200 21.544,107.200 21.020 C 107.200 20.783,107.695 20.232,108.300 19.795 C 109.455 18.960,114.640 13.829,117.452 10.738 C 118.360 9.740,119.395 8.811,119.752 8.674 C 120.108 8.537,120.400 8.247,120.400 8.030 C 120.400 7.813,121.930 6.053,123.800 4.119 C 125.670 2.184,127.200 0.466,127.200 0.301 C 127.200 0.135,123.503 -0.000,118.984 -0.000 L 110.768 -0.000 97.138 13.500 M174.952 6.100 C 171.465 9.455,166.832 14.000,164.657 16.200 C 162.482 18.400,159.442 21.460,157.902 23.000 C 156.362 24.540,152.149 28.770,148.540 32.400 C 144.930 36.030,140.733 40.225,139.212 41.723 C 135.437 45.439,128.622 52.259,125.323 55.621 C 123.825 57.147,119.990 60.963,116.800 64.101 C 113.610 67.239,110.441 70.435,109.758 71.203 C 109.075 71.971,107.905 73.147,107.158 73.815 C 106.411 74.483,105.350 75.507,104.800 76.090 C 104.250 76.673,101.910 79.020,99.600 81.306 C 97.290 83.592,94.140 86.751,92.600 88.326 C 91.060 89.900,86.830 94.139,83.200 97.746 C 73.406 107.476,71.316 109.564,64.140 116.800 C 60.539 120.430,56.300 124.660,54.718 126.200 C 53.137 127.740,49.980 130.890,47.702 133.200 C 45.424 135.510,42.284 138.660,40.724 140.200 C 39.164 141.740,34.938 145.970,31.334 149.600 C 27.729 153.230,23.495 157.460,21.924 159.000 C 16.106 164.705,11.648 169.197,5.900 175.147 L -0.000 181.254 -0.000 189.427 C -0.000 193.922,0.140 197.600,0.310 197.600 C 0.481 197.600,3.101 195.170,6.134 192.200 C 9.166 189.230,11.805 186.800,11.997 186.800 C 12.189 186.800,12.457 186.485,12.592 186.100 C 12.728 185.715,13.921 184.509,15.244 183.419 C 16.568 182.329,17.931 180.979,18.274 180.419 C 18.616 179.859,19.624 178.860,20.512 178.200 C 21.400 177.540,22.323 176.651,22.564 176.224 C 23.151 175.179,24.682 173.600,25.107 173.600 C 25.520 173.600,27.600 171.480,27.600 171.060 C 27.600 170.710,29.458 168.800,29.799 168.800 C 30.106 168.800,36.800 162.106,36.800 161.799 C 36.800 161.458,38.710 159.600,39.060 159.600 C 39.480 159.600,41.600 157.520,41.600 157.107 C 41.600 156.716,43.435 154.800,43.810 154.800 C 44.143 154.800,50.800 148.030,51.795 146.679 C 52.232 146.086,52.783 145.600,53.020 145.600 C 53.496 145.600,55.600 143.529,55.600 143.060 C 55.600 142.648,57.487 140.800,57.907 140.800 C 58.320 140.800,60.400 138.680,60.400 138.260 C 60.400 137.910,62.258 136.000,62.599 136.000 C 62.906 136.000,69.600 129.306,69.600 128.999 C 69.600 128.632,71.522 126.800,71.907 126.800 C 72.320 126.800,74.400 124.680,74.400 124.260 C 74.400 123.873,76.034 122.319,77.024 121.766 C 77.451 121.527,78.160 120.789,78.600 120.127 C 79.040 119.464,80.153 118.343,81.074 117.635 C 81.994 116.927,83.327 115.594,84.035 114.674 C 84.743 113.753,85.864 112.640,86.527 112.200 C 87.189 111.760,87.927 111.051,88.166 110.624 C 88.749 109.582,90.281 108.000,90.707 108.000 C 91.120 108.000,93.200 105.880,93.200 105.460 C 93.200 105.110,95.058 103.200,95.399 103.200 C 95.706 103.200,102.400 96.506,102.400 96.199 C 102.400 95.832,104.322 94.000,104.707 94.000 C 105.120 94.000,107.200 91.880,107.200 91.460 C 107.200 91.106,109.059 89.200,109.404 89.200 C 109.702 89.200,121.200 77.678,121.200 77.380 C 121.200 77.053,123.121 75.200,123.460 75.200 C 123.880 75.200,126.000 73.120,126.000 72.707 C 126.000 72.316,127.835 70.400,128.210 70.400 C 128.543 70.400,135.200 63.630,136.195 62.279 C 136.632 61.686,137.183 61.200,137.420 61.200 C 137.896 61.200,140.000 59.129,140.000 58.660 C 140.000 58.248,141.887 56.400,142.307 56.400 C 142.767 56.400,144.800 54.257,144.800 53.773 C 144.800 53.562,145.286 53.032,145.879 52.595 C 147.230 51.600,154.000 44.943,154.000 44.610 C 154.000 44.261,155.903 42.400,156.260 42.400 C 156.680 42.400,158.800 40.320,158.800 39.907 C 158.800 39.516,160.635 37.600,161.010 37.600 C 161.343 37.600,168.000 30.830,168.995 29.479 C 169.432 28.886,169.983 28.400,170.220 28.400 C 170.696 28.400,172.800 26.329,172.800 25.860 C 172.800 25.474,174.674 23.600,175.060 23.600 C 175.480 23.600,177.600 21.520,177.600 21.107 C 177.600 20.709,179.439 18.800,179.822 18.800 C 180.109 18.800,186.000 12.851,186.000 12.562 C 186.000 12.191,189.450 8.943,190.113 8.689 C 190.491 8.544,190.800 8.247,190.800 8.030 C 190.800 7.813,192.330 6.053,194.200 4.119 C 196.070 2.184,197.600 0.466,197.600 0.301 C 197.600 0.135,193.931 0.000,189.447 0.000 L 181.294 0.000 174.952 6.100 M249.923 1.553 C 249.110 2.349,247.715 3.606,246.823 4.346 C 245.930 5.087,245.200 5.942,245.200 6.246 C 245.200 6.551,244.968 6.800,244.685 6.800 C 244.035 6.800,240.400 10.460,240.400 11.114 C 240.400 11.381,240.175 11.601,239.900 11.603 C 239.263 11.607,226.400 24.493,226.400 25.127 C 226.400 25.387,226.159 25.600,225.865 25.600 C 225.571 25.600,224.536 26.420,223.565 27.421 C 222.594 28.423,218.606 32.428,214.701 36.321 C 210.797 40.215,207.602 43.625,207.601 43.900 C 207.601 44.175,207.375 44.403,207.100 44.407 C 206.461 44.416,193.600 57.297,193.600 57.928 C 193.600 58.187,193.387 58.400,193.127 58.400 C 192.867 58.400,189.720 61.325,186.134 64.900 L 179.614 71.400 185.107 71.686 C 188.128 71.843,191.883 72.082,193.451 72.217 C 196.140 72.448,196.360 72.403,197.333 71.431 C 197.900 70.864,198.507 70.395,198.682 70.388 C 198.857 70.381,199.450 69.823,200.000 69.147 C 200.840 68.113,202.377 66.515,203.712 65.287 C 203.884 65.129,207.000 61.985,210.638 58.300 C 214.275 54.615,217.338 51.600,217.444 51.600 C 217.688 51.600,219.600 49.698,219.600 49.455 C 219.600 49.173,231.242 37.601,231.537 37.591 C 231.682 37.586,232.430 36.836,233.200 35.925 C 233.970 35.013,234.916 33.982,235.303 33.634 C 235.690 33.285,236.500 32.497,237.103 31.883 C 243.396 25.474,250.103 18.800,250.252 18.800 C 250.498 18.800,252.400 16.889,252.400 16.642 C 252.400 16.535,254.425 14.397,256.900 11.892 C 262.856 5.864,268.000 0.445,268.000 0.198 C 268.000 0.089,264.265 0.024,259.700 0.053 L 251.400 0.107 249.923 1.553 M321.400 0.388 C 321.037 0.703,294.963 26.355,293.866 27.476 C 287.867 33.603,258.073 63.411,256.727 64.631 L 254.853 66.329 256.327 67.275 C 257.137 67.796,258.700 68.642,259.800 69.155 C 260.900 69.668,262.113 70.248,262.495 70.444 C 262.877 70.640,263.462 70.800,263.795 70.800 C 264.128 70.800,264.400 70.980,264.400 71.200 C 264.400 71.420,265.134 71.600,266.031 71.600 C 267.660 71.600,267.713 71.549,300.131 39.085 C 317.989 21.202,333.924 5.092,335.542 3.285 L 338.485 0.000 330.142 0.020 C 325.554 0.031,321.620 0.197,321.400 0.388 M391.200 1.051 C 389.985 2.216,364.914 26.806,364.262 27.471 C 360.276 31.537,318.821 72.999,317.890 73.850 C 317.180 74.499,316.125 75.563,315.545 76.215 C 314.966 76.867,313.753 78.096,312.851 78.946 L 311.211 80.493 312.093 81.746 C 312.577 82.436,313.207 83.241,313.493 83.535 C 313.778 83.829,314.504 84.726,315.106 85.529 C 316.808 87.800,318.136 89.243,318.900 89.653 C 319.572 90.013,374.537 35.566,393.897 15.363 L 399.994 9.000 399.997 4.500 L 400.000 0.000 396.100 0.045 C 392.561 0.087,392.107 0.180,391.200 1.051 M382.093 80.100 C 372.736 89.395,364.635 97.450,364.092 98.000 C 363.549 98.550,360.756 101.373,357.886 104.272 L 352.668 109.545 353.960 111.015 C 354.670 111.824,355.714 113.501,356.279 114.743 C 356.845 115.984,357.464 117.313,357.654 117.695 C 357.844 118.077,358.000 118.752,358.000 119.195 C 358.000 119.638,358.180 120.000,358.400 120.000 C 358.620 120.000,358.800 120.266,358.800 120.592 C 358.800 120.918,361.230 118.771,364.200 115.822 C 367.170 112.872,369.600 110.364,369.600 110.248 C 369.600 109.944,371.586 108.000,371.896 108.000 C 372.290 108.000,374.400 105.899,374.400 105.507 C 374.400 105.119,376.234 103.200,376.605 103.200 C 376.879 103.200,387.600 92.435,387.600 92.159 C 387.600 91.791,391.052 88.542,391.713 88.289 C 392.091 88.144,392.400 87.848,392.400 87.633 C 392.400 87.417,394.110 85.479,396.200 83.327 L 400.000 79.414 400.000 71.307 C 400.000 65.605,399.868 63.200,399.553 63.200 C 399.308 63.200,391.451 70.805,382.093 80.100 M399.200 133.800 C 398.926 134.130,398.536 134.400,398.333 134.400 C 397.916 134.400,396.000 136.225,396.000 136.621 C 396.000 136.763,395.415 137.402,394.700 138.042 C 392.513 139.998,390.406 142.184,390.403 142.500 C 390.401 142.665,390.175 142.803,389.900 142.807 C 389.261 142.816,376.400 155.697,376.400 156.328 C 376.400 156.587,376.265 156.805,376.100 156.811 C 374.727 156.860,372.916 159.589,373.346 160.962 C 373.593 161.753,373.932 162.400,374.098 162.400 C 374.264 162.400,374.400 162.760,374.400 163.200 C 374.400 163.640,374.580 164.000,374.800 164.000 C 375.020 164.000,375.200 164.450,375.200 165.000 C 375.200 165.550,375.380 166.000,375.600 166.000 C 375.820 166.000,376.000 166.360,376.000 166.800 C 376.000 167.536,376.267 167.600,379.352 167.600 L 382.704 167.600 384.052 166.093 C 384.793 165.263,385.895 164.269,386.500 163.883 C 387.105 163.497,387.600 163.006,387.600 162.791 C 387.600 162.577,390.387 159.566,393.793 156.100 L 399.985 149.800 399.993 141.500 C 399.997 136.935,399.932 133.200,399.849 133.200 C 399.766 133.200,399.474 133.470,399.200 133.800 M110.478 140.519 C 109.775 141.245,109.200 142.055,109.200 142.319 C 109.200 142.584,108.959 142.800,108.665 142.800 C 108.371 142.800,107.336 143.623,106.365 144.629 C 105.394 145.635,102.485 148.552,99.900 151.111 C 97.315 153.670,95.200 155.997,95.200 156.282 C 95.200 156.567,94.968 156.800,94.685 156.800 C 94.035 156.800,90.400 160.460,90.400 161.114 C 90.400 161.381,90.170 161.600,89.889 161.600 C 89.607 161.600,88.049 162.950,86.426 164.600 L 83.476 167.600 90.550 167.600 C 96.937 167.600,97.647 167.532,97.846 166.900 C 98.151 165.937,100.499 161.046,100.776 160.800 C 100.899 160.690,101.225 160.195,101.500 159.700 C 102.741 157.465,103.043 156.992,103.700 156.245 C 104.085 155.807,104.400 155.213,104.400 154.925 C 104.400 154.636,104.550 154.400,104.732 154.400 C 104.915 154.400,105.320 153.908,105.632 153.306 C 105.945 152.704,106.470 151.888,106.800 151.494 C 107.560 150.586,109.397 147.428,110.230 145.600 C 110.580 144.830,111.017 143.911,111.200 143.559 C 111.577 142.833,112.180 139.200,111.924 139.200 C 111.832 139.200,111.182 139.794,110.478 140.519 M66.300 184.731 C 61.515 189.525,57.600 193.662,57.600 193.924 C 57.600 194.186,57.375 194.403,57.100 194.407 C 56.461 194.416,43.600 207.297,43.600 207.928 C 43.600 208.187,43.375 208.403,43.100 208.407 C 42.459 208.415,24.800 226.092,24.800 226.725 C 24.800 226.986,24.575 227.203,24.300 227.207 C 23.661 227.216,10.800 240.097,10.800 240.728 C 10.800 240.987,10.568 241.200,10.285 241.200 C 9.736 241.200,6.000 244.812,6.000 245.342 C 6.000 245.790,4.933 246.800,4.459 246.800 C 4.240 246.800,3.642 247.357,3.130 248.038 C 2.619 248.719,1.705 249.812,1.100 250.469 L 0.000 251.662 0.000 259.831 C 0.000 264.324,0.097 268.000,0.216 268.000 C 0.416 268.000,5.531 263.110,12.665 256.100 C 14.288 254.505,15.711 253.200,15.826 253.200 C 16.090 253.200,18.000 251.305,18.000 251.044 C 18.000 250.938,21.015 247.875,24.700 244.238 C 28.385 240.600,31.529 237.484,31.687 237.312 C 32.915 235.977,34.513 234.440,35.547 233.600 C 36.223 233.050,36.781 232.482,36.788 232.337 C 36.804 231.994,48.394 220.404,48.737 220.388 C 48.882 220.381,49.450 219.823,50.000 219.147 C 50.840 218.113,52.377 216.515,53.712 215.287 C 53.884 215.129,57.000 211.985,60.638 208.300 C 64.275 204.615,67.338 201.600,67.444 201.600 C 67.703 201.600,69.600 199.691,69.600 199.429 C 69.600 199.086,78.120 190.800,78.473 190.800 C 78.917 190.800,78.891 187.303,78.444 187.027 C 78.249 186.906,77.992 186.221,77.873 185.504 C 77.755 184.787,77.452 183.390,77.200 182.400 C 76.948 181.410,76.645 180.013,76.527 179.296 C 76.408 178.579,76.151 177.894,75.956 177.773 C 75.760 177.652,75.600 177.203,75.600 176.776 C 75.600 175.463,75.259 175.755,66.300 184.731 M399.000 204.016 C 398.780 204.223,398.015 204.860,397.300 205.432 C 396.585 206.003,396.000 206.643,396.000 206.854 C 396.000 207.338,394.157 209.200,393.677 209.200 C 392.995 209.200,389.005 213.804,388.478 215.200 C 388.187 215.970,387.348 218.940,386.613 221.800 C 385.879 224.660,384.801 228.787,384.219 230.972 C 382.259 238.329,383.374 237.668,396.300 223.815 L 400.000 219.849 400.000 211.725 C 400.000 203.940,399.900 203.170,399.000 204.016 M65.600 220.400 C 65.600 220.620,64.599 220.800,63.376 220.800 C 62.099 220.800,61.251 220.959,61.384 221.174 C 61.511 221.380,61.027 221.605,60.308 221.674 C 58.825 221.817,58.632 223.485,59.597 227.800 C 59.843 228.900,60.144 230.385,60.266 231.100 C 60.388 231.815,60.648 232.400,60.844 232.400 C 61.040 232.400,61.200 232.839,61.200 233.376 C 61.200 233.913,61.380 234.464,61.600 234.600 C 61.820 234.736,62.000 235.197,62.000 235.624 C 62.000 236.051,62.180 236.400,62.400 236.400 C 62.620 236.400,62.800 236.672,62.800 237.005 C 62.800 237.561,63.523 239.124,64.001 239.600 C 64.111 239.710,64.470 240.340,64.798 241.000 C 65.126 241.660,65.711 242.491,66.097 242.847 C 66.484 243.203,66.800 243.716,66.800 243.986 C 66.800 244.257,67.340 244.983,68.000 245.600 C 68.660 246.217,69.200 246.937,69.200 247.200 C 69.200 247.463,69.734 248.178,70.387 248.788 L 71.574 249.896 64.590 256.848 C 60.750 260.672,57.606 263.935,57.604 264.100 C 57.602 264.265,61.307 264.400,65.838 264.400 C 75.320 264.400,74.920 264.526,78.846 260.298 L 81.092 257.880 82.946 258.427 C 83.966 258.728,84.800 259.115,84.800 259.287 C 84.800 259.459,85.340 259.600,86.000 259.600 C 86.660 259.600,87.200 259.780,87.200 260.000 C 87.200 260.220,87.560 260.400,88.000 260.400 C 88.440 260.400,88.800 260.535,88.800 260.700 C 88.800 260.865,89.835 261.022,91.100 261.050 C 92.365 261.077,94.300 261.317,95.400 261.582 C 100.284 262.761,110.334 262.521,115.284 261.107 C 116.766 260.683,116.768 260.680,116.561 258.841 C 115.008 245.069,105.405 232.010,91.815 225.189 C 89.514 224.034,87.272 222.754,86.833 222.345 C 86.365 221.909,85.445 221.600,84.617 221.600 C 83.838 221.600,83.200 221.420,83.200 221.200 C 83.200 220.980,82.311 220.800,81.224 220.800 C 80.137 220.800,79.136 220.620,79.000 220.400 C 78.851 220.160,76.129 220.000,72.176 220.000 C 68.059 220.000,65.600 220.150,65.600 220.400 M399.200 274.400 C 399.200 274.620,399.000 274.800,398.755 274.800 C 398.137 274.800,364.401 308.483,364.400 309.100 C 364.400 309.375,364.240 309.600,364.045 309.600 C 363.850 309.600,363.595 310.095,363.478 310.700 C 363.361 311.305,363.059 312.520,362.806 313.400 C 362.098 315.868,361.563 318.072,361.327 319.504 C 361.208 320.221,360.951 320.906,360.756 321.027 C 360.560 321.148,360.400 321.856,360.400 322.600 C 360.400 323.344,360.220 324.064,360.000 324.200 C 359.780 324.336,359.600 324.966,359.600 325.600 C 359.600 326.234,359.420 326.864,359.200 327.000 C 358.980 327.136,358.800 327.788,358.800 328.450 C 358.800 329.111,358.606 330.015,358.369 330.458 C 358.132 330.900,358.043 331.535,358.171 331.868 C 358.388 332.434,385.801 305.339,396.300 294.181 L 400.000 290.249 400.000 282.125 C 400.000 276.975,399.854 274.000,399.600 274.000 C 399.380 274.000,399.200 274.180,399.200 274.400 M0.000 337.321 C 0.000 338.101,0.158 338.314,0.610 338.141 C 1.108 337.950,1.129 337.786,0.723 337.253 C 0.450 336.894,0.175 336.525,0.113 336.433 C 0.051 336.342,0.000 336.741,0.000 337.321 M53.580 339.471 C 52.359 339.615,51.180 340.624,45.112 346.719 C 41.235 350.614,37.464 354.347,36.732 355.015 C 35.999 355.683,34.934 356.763,34.365 357.415 C 33.795 358.067,32.805 359.076,32.165 359.658 C 30.114 361.519,3.058 389.010,1.500 390.814 L 0.000 392.552 0.000 396.276 L 0.000 400.000 4.500 399.996 L 9.000 399.992 14.956 394.296 C 26.717 383.048,69.687 339.953,69.414 339.680 C 69.109 339.374,55.877 339.200,53.580 339.471 M123.600 339.469 C 122.744 339.632,110.309 351.461,105.841 356.361 C 105.158 357.110,104.079 358.190,103.441 358.761 C 102.804 359.333,100.793 361.330,98.972 363.200 C 97.151 365.070,93.014 369.210,89.778 372.400 C 86.542 375.590,83.513 378.576,83.047 379.035 C 76.271 385.718,63.200 399.240,63.200 399.569 C 63.200 399.863,65.778 400.000,71.314 400.000 L 79.429 400.000 85.264 394.300 C 88.473 391.165,91.425 388.408,91.823 388.173 C 92.221 387.939,92.739 387.406,92.973 386.989 C 93.208 386.573,93.847 385.865,94.392 385.416 C 96.041 384.060,102.400 377.720,102.400 377.432 C 102.400 377.041,104.303 375.200,104.707 375.200 C 105.120 375.200,107.200 373.080,107.200 372.660 C 107.200 372.310,109.058 370.400,109.399 370.400 C 109.706 370.400,121.200 358.906,121.200 358.599 C 121.200 358.232,123.123 356.400,123.507 356.400 C 123.967 356.400,126.000 354.257,126.000 353.773 C 126.000 353.562,126.494 353.032,127.098 352.595 C 128.520 351.564,135.164 344.920,136.195 343.498 C 136.632 342.894,137.183 342.400,137.420 342.400 C 138.076 342.400,140.184 340.051,139.838 339.704 C 139.505 339.370,125.207 339.163,123.600 339.469 M193.980 339.547 C 192.769 339.847,188.800 343.182,188.800 343.900 C 188.800 344.175,188.575 344.403,188.300 344.406 C 188.025 344.410,185.028 347.245,181.640 350.706 C 174.125 358.386,174.786 357.725,167.106 365.240 C 163.645 368.628,160.810 371.625,160.806 371.900 C 160.803 372.175,160.575 372.416,160.300 372.436 C 160.025 372.455,158.900 373.519,157.800 374.800 C 156.700 376.081,155.620 377.146,155.400 377.166 C 155.040 377.200,143.521 388.731,141.958 390.623 C 141.605 391.050,140.615 392.050,139.758 392.845 C 138.901 393.639,137.775 394.854,137.255 395.545 C 136.735 396.235,136.142 396.800,135.937 396.800 C 135.427 396.800,133.823 398.442,133.493 399.301 C 133.243 399.953,133.787 399.999,141.513 399.992 L 149.800 399.984 155.667 394.192 C 158.893 391.006,161.724 388.400,161.957 388.400 C 162.191 388.400,162.694 387.905,163.076 387.300 C 163.457 386.695,164.223 385.840,164.777 385.400 C 165.774 384.608,167.192 383.210,169.276 380.961 C 169.869 380.323,170.904 379.381,171.576 378.870 C 172.249 378.358,172.804 377.728,172.809 377.470 C 172.813 377.211,173.473 376.460,174.274 375.800 C 175.995 374.382,177.038 373.335,178.400 371.656 C 178.950 370.979,179.543 370.419,179.717 370.412 C 180.131 370.396,186.796 363.731,186.812 363.317 C 186.819 363.143,187.379 362.550,188.056 362.000 C 189.735 360.638,190.782 359.595,192.200 357.874 C 192.860 357.073,193.611 356.413,193.870 356.409 C 194.128 356.404,194.758 355.849,195.270 355.176 C 195.781 354.504,196.723 353.469,197.361 352.876 C 198.842 351.503,200.703 349.642,202.076 348.161 C 202.669 347.523,203.704 346.581,204.376 346.070 C 205.049 345.558,205.600 344.955,205.600 344.730 C 205.600 344.335,206.392 343.527,209.239 341.016 L 210.582 339.832 209.591 339.556 C 208.354 339.211,195.366 339.204,193.980 339.547 M264.200 339.488 C 262.934 339.666,259.200 342.950,259.200 343.885 C 259.200 344.168,258.979 344.400,258.710 344.400 C 258.275 344.400,249.228 353.107,246.464 356.185 C 245.879 356.837,244.787 357.917,244.039 358.585 C 243.290 359.253,242.210 360.315,241.639 360.945 C 241.067 361.574,237.406 365.264,233.501 369.145 C 229.597 373.025,226.402 376.425,226.401 376.700 C 226.401 376.975,226.159 377.200,225.865 377.200 C 225.571 377.200,224.536 378.017,223.565 379.015 C 222.594 380.014,219.685 382.936,217.100 385.508 C 214.515 388.081,212.400 390.414,212.400 390.693 C 212.400 390.972,212.167 391.200,211.881 391.200 C 211.337 391.200,208.400 394.014,208.400 394.535 C 208.400 394.971,206.506 396.800,206.054 396.800 C 205.597 396.800,203.600 399.103,203.600 399.631 C 203.600 399.844,207.019 400.000,211.710 400.000 L 219.821 400.000 224.600 395.500 C 243.700 377.517,280.782 339.696,279.555 339.451 C 278.204 339.181,266.180 339.210,264.200 339.488 M334.395 339.466 C 333.748 339.575,330.857 342.175,326.276 346.768 C 322.363 350.692,318.675 354.345,318.081 354.886 C 317.486 355.427,316.443 356.484,315.762 357.235 C 315.081 357.986,314.001 359.079,313.362 359.664 C 312.723 360.249,308.478 364.483,303.929 369.072 C 299.380 373.662,295.150 377.885,294.529 378.457 C 291.323 381.411,277.200 396.019,277.200 396.380 C 277.200 396.611,276.964 396.800,276.675 396.800 C 276.029 396.800,274.000 398.865,274.000 399.522 C 274.000 399.877,276.092 400.000,282.135 400.000 L 290.269 400.000 296.216 394.300 C 308.108 382.902,350.883 339.950,350.613 339.679 C 350.312 339.376,336.040 339.189,334.395 339.466 M381.908 361.500 C 372.441 370.905,364.403 378.893,364.047 379.251 C 352.527 390.833,344.400 399.239,344.400 399.573 C 344.400 399.862,347.019 399.999,352.500 399.998 L 360.600 399.996 366.545 394.298 C 373.819 387.325,387.220 373.984,389.400 371.546 C 390.280 370.561,391.315 369.636,391.700 369.490 C 392.085 369.344,392.400 369.058,392.400 368.853 C 392.400 368.649,394.110 366.721,396.200 364.569 L 400.000 360.656 400.000 352.528 C 400.000 346.891,399.865 344.400,399.561 344.400 C 399.319 344.400,391.375 352.095,381.908 361.500 " stroke="none" fill="#246464" fill-rule="evenodd"></path><path id="path4" d="M188.033 71.747 C 188.125 71.828,188.920 72.014,189.800 72.162 C 190.946 72.354,191.230 72.314,190.800 72.021 C 190.260 71.653,187.632 71.393,188.033 71.747 M233.876 98.300 C 233.782 98.465,233.477 99.590,233.198 100.800 C 231.701 107.282,227.500 111.475,221.400 112.573 L 219.000 113.005 218.885 116.961 L 218.770 120.918 221.569 120.658 C 224.550 120.380,225.136 120.198,229.200 118.277 C 235.761 115.178,242.946 103.670,241.387 98.759 C 241.137 97.973,234.301 97.555,233.876 98.300 M299.443 117.833 C 299.309 118.181,299.200 119.010,299.200 119.676 C 299.200 124.517,293.737 129.942,287.200 131.592 L 284.600 132.248 284.480 135.016 C 284.278 139.651,284.352 139.757,287.567 139.458 C 291.577 139.085,295.665 137.310,299.105 134.447 C 303.505 130.785,306.664 124.960,307.102 119.700 L 307.310 117.200 303.498 117.200 C 300.391 117.200,299.641 117.317,299.443 117.833 M161.867 126.667 C 160.913 127.621,162.202 133.777,164.053 137.112 C 167.418 143.171,173.736 147.759,180.230 148.859 C 184.405 149.567,184.452 149.524,184.315 145.126 L 184.200 141.439 181.800 140.995 C 175.681 139.863,169.600 134.091,169.600 129.414 C 169.600 126.758,169.110 126.400,165.477 126.400 C 163.638 126.400,162.013 126.520,161.867 126.667 M81.527 197.871 C 81.156 197.968,80.880 198.397,80.912 198.824 C 80.988 199.834,81.449 199.820,81.716 198.801 C 81.924 198.003,82.337 198.001,237.062 197.900 L 392.200 197.799 237.200 197.746 C 151.950 197.717,81.897 197.773,81.527 197.871 M91.100 203.900 C 95.995 203.963,104.005 203.963,108.900 203.900 C 113.795 203.836,109.790 203.784,100.000 203.784 C 90.210 203.784,86.205 203.836,91.100 203.900 M148.300 203.900 C 155.615 203.961,167.585 203.961,174.900 203.900 C 182.215 203.839,176.230 203.789,161.600 203.789 C 146.970 203.789,140.985 203.839,148.300 203.900 M218.700 203.900 C 226.015 203.961,237.985 203.961,245.300 203.900 C 252.615 203.839,246.630 203.789,232.000 203.789 C 217.370 203.789,211.385 203.839,218.700 203.900 M289.100 203.900 C 296.415 203.961,308.385 203.961,315.700 203.900 C 323.015 203.839,317.030 203.789,302.400 203.789 C 287.770 203.789,281.785 203.839,289.100 203.900 M357.472 203.900 C 363.671 203.962,373.931 203.962,380.272 203.900 C 386.612 203.838,381.540 203.787,369.000 203.787 C 356.460 203.787,351.272 203.838,357.472 203.900 M62.080 264.698 C 63.994 264.771,67.234 264.771,69.280 264.698 C 71.326 264.626,69.760 264.566,65.800 264.565 C 61.840 264.565,60.166 264.624,62.080 264.698 M4.632 289.948 C 4.514 290.140,3.915 290.397,3.303 290.519 C 2.690 290.642,1.742 291.130,1.195 291.605 L 0.200 292.467 0.078 314.133 C -0.048 336.494,0.124 339.112,1.657 338.165 C 1.846 338.048,2.000 338.099,2.000 338.279 C 2.000 339.511,4.281 339.560,61.100 339.552 C 110.162 339.545,118.000 339.465,118.000 338.972 C 118.000 338.215,112.726 338.294,169.731 338.205 L 220.461 338.126 221.931 336.656 L 223.400 335.186 223.349 314.994 C 223.293 292.648,223.337 293.049,220.739 291.662 L 219.124 290.800 125.150 290.800 C 41.986 290.800,31.148 290.731,30.945 290.200 C 30.683 289.518,5.050 289.272,4.632 289.948 " stroke="none" fill="#f5b77e" fill-rule="evenodd"></path></g></svg>