<svg id="svg" version="1.1" xmlns="http://www.w3.org/2000/svg" xmlns:xlink="http://www.w3.org/1999/xlink" width="400" height="400" viewBox="0, 0, 400,400"><g id="svgg"><path id="path0" d="M309.590 96.097 C 307.564 98.646,300.021 102.756,294.400 104.373 C 293.410 104.658,292.240 105.030,291.800 105.200 C 290.827 105.575,288.232 106.275,286.600 106.603 C 285.940 106.735,284.590 107.021,283.600 107.238 C 279.112 108.222,273.494 109.135,269.000 109.611 C 258.530 110.719,259.408 109.789,258.530 120.700 C 258.419 122.075,258.165 123.200,257.964 123.200 C 257.764 123.200,257.600 123.830,257.600 124.600 C 257.600 125.370,257.420 126.000,257.200 126.000 C 256.980 126.000,256.800 126.619,256.800 127.376 C 256.800 128.133,256.620 128.864,256.400 129.000 C 256.180 129.136,256.000 129.766,256.000 130.400 C 256.000 131.034,255.820 131.664,255.600 131.800 C 255.380 131.936,255.200 132.667,255.200 133.424 C 255.200 134.181,255.020 134.800,254.800 134.800 C 254.580 134.800,254.400 135.520,254.400 136.400 C 254.400 137.280,254.220 138.000,254.000 138.000 C 253.780 138.000,253.600 138.720,253.600 139.600 C 253.600 140.480,253.420 141.200,253.200 141.200 C 252.980 141.200,252.800 141.920,252.800 142.800 C 252.800 143.680,252.620 144.400,252.400 144.400 C 252.180 144.400,252.000 145.030,252.000 145.800 C 252.000 146.570,251.820 147.200,251.600 147.200 C 251.380 147.200,251.200 147.729,251.200 148.376 C 251.200 149.023,251.020 149.664,250.800 149.800 C 250.580 149.936,250.400 150.667,250.400 151.424 C 250.400 152.181,250.220 152.800,250.000 152.800 C 249.780 152.800,249.600 153.340,249.600 154.000 C 249.600 154.660,249.420 155.200,249.200 155.200 C 248.980 155.200,248.800 155.740,248.800 156.400 C 248.800 157.060,248.620 157.600,248.400 157.600 C 248.180 157.600,248.000 158.140,248.000 158.800 C 248.000 159.460,247.820 160.000,247.600 160.000 C 247.380 160.000,247.200 160.439,247.200 160.976 C 247.200 161.513,247.020 162.064,246.800 162.200 C 246.580 162.336,246.400 162.876,246.400 163.400 C 246.400 163.924,246.220 164.464,246.000 164.600 C 245.780 164.736,245.600 165.287,245.600 165.824 C 245.600 166.361,245.420 166.800,245.200 166.800 C 244.980 166.800,244.800 167.340,244.800 168.000 C 244.800 168.660,244.653 169.200,244.472 169.200 C 244.292 169.200,243.900 170.100,243.600 171.200 C 243.300 172.300,242.900 173.200,242.710 173.200 C 242.520 173.200,242.401 173.425,242.446 173.700 C 242.525 174.192,242.334 174.827,241.510 176.800 C 241.281 177.350,240.916 178.250,240.700 178.800 C 240.484 179.350,240.148 180.113,239.953 180.495 C 239.759 180.877,239.600 181.462,239.600 181.795 C 239.600 182.128,239.420 182.400,239.200 182.400 C 238.980 182.400,238.800 182.760,238.800 183.200 C 238.800 183.640,238.620 184.000,238.400 184.000 C 238.180 184.000,238.000 184.360,238.000 184.800 C 238.000 185.240,237.820 185.600,237.600 185.600 C 237.380 185.600,237.200 186.140,237.200 186.800 C 237.200 187.460,237.020 188.000,236.800 188.000 C 236.580 188.000,236.400 188.360,236.400 188.800 C 236.400 189.240,236.220 189.600,236.000 189.600 C 235.780 189.600,235.600 189.960,235.600 190.400 C 235.600 190.840,235.454 191.200,235.275 191.200 C 235.096 191.200,234.702 191.830,234.400 192.600 C 234.098 193.370,233.704 194.000,233.525 194.000 C 233.346 194.000,233.200 194.360,233.200 194.800 C 233.200 195.240,233.020 195.600,232.800 195.600 C 232.580 195.600,232.400 195.960,232.400 196.400 C 232.400 196.840,232.220 197.200,232.000 197.200 C 231.780 197.200,231.600 197.560,231.600 198.000 C 231.600 198.440,231.420 198.800,231.200 198.800 C 230.980 198.800,230.800 199.160,230.800 199.600 C 230.800 200.040,230.655 200.400,230.479 200.400 C 230.302 200.400,229.717 201.297,229.179 202.394 C 228.640 203.490,228.065 204.390,227.900 204.394 C 227.735 204.397,227.600 204.760,227.600 205.200 C 227.600 205.640,227.420 206.000,227.200 206.000 C 226.980 206.000,226.800 206.360,226.800 206.800 C 226.800 207.240,226.632 207.600,226.427 207.600 C 226.047 207.600,225.377 209.154,225.521 209.700 C 225.564 209.865,225.420 210.000,225.200 210.000 C 224.980 210.000,224.800 210.270,224.800 210.600 C 224.800 210.930,224.620 211.200,224.400 211.200 C 224.180 211.200,224.000 211.470,224.000 211.800 C 224.000 212.130,223.820 212.400,223.600 212.400 C 223.380 212.400,223.200 212.670,223.200 213.000 C 223.200 213.330,223.020 213.600,222.800 213.600 C 222.580 213.600,222.400 213.878,222.400 214.217 C 222.400 214.556,222.040 215.220,221.600 215.692 C 221.160 216.164,220.800 216.787,220.800 217.075 C 220.800 217.364,220.620 217.600,220.400 217.600 C 220.180 217.600,220.000 217.920,220.000 218.312 C 220.000 218.703,219.640 219.283,219.200 219.600 C 218.760 219.917,218.400 220.457,218.400 220.800 C 218.400 221.143,218.040 221.683,217.600 222.000 C 217.160 222.317,216.800 222.857,216.800 223.200 C 216.800 223.543,216.440 224.083,216.000 224.400 C 215.560 224.717,215.200 225.207,215.200 225.488 C 215.200 225.770,215.050 226.000,214.868 226.000 C 214.685 226.000,214.280 226.492,213.968 227.093 C 213.655 227.694,212.905 228.711,212.300 229.352 C 211.695 229.994,211.200 230.670,211.200 230.855 C 211.200 231.040,210.885 231.559,210.500 232.008 C 210.115 232.458,209.845 232.910,209.900 233.013 C 209.955 233.116,209.685 233.547,209.300 233.971 C 208.012 235.390,207.600 235.964,207.600 236.335 C 207.600 236.538,206.880 237.445,206.000 238.352 C 205.120 239.259,204.400 240.198,204.400 240.440 C 204.400 240.681,203.860 241.383,203.200 242.000 C 202.540 242.617,202.000 243.228,202.000 243.358 C 202.000 243.489,201.100 244.515,200.000 245.639 C 198.900 246.762,198.000 247.848,198.000 248.051 C 198.000 248.255,197.235 249.216,196.300 250.187 C 194.054 252.520,193.600 253.089,193.600 253.563 C 193.600 253.782,193.285 254.144,192.900 254.368 C 192.515 254.592,192.341 254.781,192.514 254.788 C 192.686 254.795,190.841 256.732,188.414 259.094 C 185.986 261.456,184.000 263.532,184.000 263.708 C 184.000 263.884,182.212 265.804,180.026 267.974 C 177.841 270.144,176.161 272.028,176.293 272.160 C 176.425 272.292,176.233 272.400,175.867 272.400 C 175.500 272.400,175.200 272.572,175.200 272.782 C 175.200 273.192,174.010 274.390,172.004 276.000 C 169.573 277.952,166.609 280.638,163.730 283.500 C 162.126 285.095,160.710 286.400,160.584 286.400 C 160.459 286.400,159.315 287.460,158.043 288.756 C 156.771 290.052,155.190 291.391,154.529 291.733 C 153.868 292.075,152.398 293.265,151.262 294.377 C 150.126 295.490,149.039 296.400,148.846 296.400 C 148.654 296.400,147.755 297.120,146.848 298.000 C 145.941 298.880,145.081 299.600,144.937 299.600 C 144.793 299.600,143.969 300.320,143.107 301.200 C 142.244 302.080,141.354 302.800,141.130 302.800 C 140.905 302.800,140.217 303.340,139.600 304.000 C 138.983 304.660,138.303 305.200,138.088 305.200 C 137.873 305.200,136.955 305.920,136.048 306.800 C 135.141 307.680,134.212 308.400,133.983 308.400 C 133.547 308.400,133.003 308.800,131.399 310.300 C 130.870 310.795,130.275 311.200,130.078 311.200 C 129.880 311.200,129.154 311.740,128.463 312.400 C 127.772 313.060,127.054 313.600,126.866 313.600 C 126.678 313.600,126.198 313.960,125.800 314.400 C 125.402 314.840,124.922 315.200,124.734 315.200 C 124.546 315.200,123.828 315.740,123.137 316.400 C 122.446 317.060,121.678 317.600,121.429 317.600 C 121.180 317.600,120.717 317.960,120.400 318.400 C 120.083 318.840,119.575 319.200,119.272 319.200 C 118.969 319.200,118.217 319.740,117.600 320.400 C 116.983 321.060,116.231 321.600,115.928 321.600 C 115.625 321.600,115.117 321.960,114.800 322.400 C 114.483 322.840,114.038 323.200,113.812 323.201 C 113.585 323.201,112.819 323.698,112.110 324.305 C 111.400 324.911,110.140 325.763,109.310 326.198 C 108.479 326.633,107.509 327.306,107.153 327.694 C 106.797 328.083,106.252 328.400,105.941 328.400 C 105.631 328.400,105.117 328.760,104.800 329.200 C 104.483 329.640,103.943 330.000,103.600 330.000 C 103.257 330.000,102.717 330.360,102.400 330.800 C 102.083 331.240,101.543 331.600,101.200 331.600 C 100.857 331.600,100.317 331.960,100.000 332.400 C 99.683 332.840,99.143 333.200,98.800 333.200 C 98.457 333.200,97.917 333.560,97.600 334.000 C 97.283 334.440,96.769 334.800,96.459 334.800 C 96.148 334.800,95.603 335.116,95.247 335.503 C 94.891 335.889,94.105 336.460,93.500 336.770 C 92.895 337.081,92.400 337.485,92.400 337.668 C 92.400 337.850,92.170 338.000,91.888 338.000 C 91.607 338.000,91.117 338.360,90.800 338.800 C 90.483 339.240,89.903 339.600,89.512 339.600 C 89.120 339.600,88.800 339.780,88.800 340.000 C 88.800 340.220,88.480 340.400,88.088 340.400 C 87.697 340.400,87.117 340.760,86.800 341.200 C 86.483 341.640,85.910 342.000,85.527 342.000 C 85.144 342.000,84.464 342.394,84.016 342.875 C 83.567 343.357,83.200 343.615,83.200 343.448 C 83.200 343.282,82.677 343.518,82.038 343.973 C 81.399 344.428,80.679 344.800,80.438 344.800 C 80.197 344.800,80.000 344.980,80.000 345.200 C 80.000 345.420,79.764 345.600,79.475 345.600 C 79.187 345.600,78.564 345.960,78.092 346.400 C 77.620 346.840,77.074 347.200,76.879 347.200 C 76.684 347.200,76.198 347.560,75.800 348.000 C 75.402 348.440,74.834 348.800,74.538 348.800 C 74.242 348.800,74.000 348.980,74.000 349.200 C 74.000 349.420,73.680 349.600,73.288 349.600 C 72.897 349.600,72.317 349.960,72.000 350.400 C 71.683 350.840,71.103 351.200,70.712 351.200 C 70.320 351.200,70.000 351.380,70.000 351.600 C 70.000 351.820,69.764 352.000,69.475 352.000 C 69.187 352.000,68.564 352.360,68.092 352.800 C 67.620 353.240,66.956 353.600,66.617 353.600 C 66.278 353.600,66.000 353.780,66.000 354.000 C 66.000 354.220,65.764 354.400,65.475 354.400 C 65.187 354.400,64.564 354.760,64.092 355.200 C 63.620 355.640,62.956 356.000,62.617 356.000 C 62.278 356.000,62.000 356.180,62.000 356.400 C 62.000 356.620,61.730 356.800,61.400 356.800 C 61.070 356.800,60.800 356.980,60.800 357.200 C 60.800 357.420,60.530 357.600,60.200 357.600 C 59.870 357.600,59.600 357.780,59.600 358.000 C 59.600 358.220,59.330 358.400,59.000 358.400 C 58.670 358.400,58.400 358.580,58.400 358.800 C 58.400 359.020,58.265 359.164,58.100 359.121 C 57.554 358.977,56.000 359.647,56.000 360.027 C 56.000 360.232,55.640 360.400,55.200 360.400 C 54.760 360.400,54.400 360.580,54.400 360.800 C 54.400 361.020,54.164 361.200,53.875 361.200 C 53.587 361.200,52.964 361.560,52.492 362.000 C 52.020 362.440,51.371 362.800,51.050 362.800 C 50.729 362.800,50.407 362.935,50.333 363.100 C 50.166 363.476,48.036 364.775,47.100 365.071 C 46.715 365.193,46.400 365.452,46.400 365.647 C 46.400 365.841,46.040 366.000,45.600 366.000 C 45.160 366.000,44.800 366.136,44.800 366.302 C 44.800 366.469,44.294 366.829,43.675 367.103 C 43.056 367.376,42.164 367.960,41.692 368.400 C 41.220 368.840,40.556 369.200,40.217 369.200 C 39.878 369.200,39.600 369.380,39.600 369.600 C 39.600 369.820,39.240 370.000,38.800 370.000 C 38.360 370.000,38.000 370.180,38.000 370.400 C 38.000 370.620,37.680 370.800,37.288 370.800 C 36.897 370.800,36.317 371.160,36.000 371.600 C 35.683 372.040,35.103 372.400,34.712 372.400 C 34.320 372.400,34.000 372.580,34.000 372.800 C 34.000 373.020,33.640 373.200,33.200 373.200 C 32.760 373.200,32.400 373.380,32.400 373.600 C 32.400 373.820,32.040 374.000,31.600 374.000 C 31.160 374.000,30.800 374.153,30.800 374.339 C 30.800 374.526,30.035 375.012,29.100 375.420 C 28.165 375.828,26.648 376.665,25.728 377.281 C 24.808 377.896,23.863 378.400,23.628 378.400 C 23.393 378.400,23.200 378.580,23.200 378.800 C 23.200 379.020,22.840 379.200,22.400 379.200 C 21.960 379.200,21.600 379.380,21.600 379.600 C 21.600 379.820,21.240 380.000,20.800 380.000 C 20.360 380.000,20.000 380.158,20.000 380.351 C 20.000 380.545,19.460 380.927,18.800 381.200 C 18.140 381.473,17.600 381.855,17.600 382.049 C 17.600 382.242,17.240 382.400,16.800 382.400 C 16.360 382.400,16.000 382.580,16.000 382.800 C 16.000 383.020,15.640 383.200,15.200 383.200 C 14.760 383.200,14.400 383.380,14.400 383.600 C 14.400 383.820,14.164 384.000,13.875 384.000 C 13.587 384.000,12.964 384.360,12.492 384.800 C 12.020 385.240,11.356 385.600,11.017 385.600 C 10.678 385.600,10.400 385.780,10.400 386.000 C 10.400 386.220,10.130 386.400,9.800 386.400 C 9.470 386.400,9.200 386.580,9.200 386.800 C 9.200 387.020,8.880 387.200,8.488 387.200 C 8.097 387.200,7.517 387.560,7.200 388.000 C 6.883 388.440,6.387 388.800,6.099 388.800 C 5.811 388.800,5.458 389.115,5.315 389.500 C 5.172 389.885,4.773 390.472,4.428 390.804 C 2.379 392.776,1.963 399.375,3.856 399.850 C 5.370 400.230,19.774 399.626,19.933 399.176 C 20.007 398.969,21.841 398.800,24.010 398.800 C 26.207 398.800,28.062 398.623,28.200 398.400 C 28.340 398.173,30.330 398.000,32.800 398.000 C 35.270 398.000,37.260 397.827,37.400 397.600 C 37.541 397.371,39.596 397.200,42.200 397.200 C 44.804 397.200,46.859 397.029,47.000 396.800 C 47.141 396.571,49.196 396.400,51.800 396.400 C 54.404 396.400,56.459 396.229,56.600 396.000 C 56.740 395.773,58.737 395.600,61.224 395.600 C 63.875 395.600,65.600 395.442,65.600 395.200 C 65.600 394.960,67.200 394.800,69.600 394.800 C 72.000 394.800,73.600 394.640,73.600 394.400 C 73.600 394.160,75.192 394.000,77.576 394.000 C 79.796 394.000,81.662 393.823,81.800 393.600 C 81.936 393.380,83.477 393.200,85.224 393.200 C 87.075 393.200,88.400 393.033,88.400 392.800 C 88.400 392.572,89.592 392.400,91.176 392.400 C 92.703 392.400,94.050 392.243,94.168 392.052 C 94.286 391.860,96.952 391.572,100.092 391.412 C 103.231 391.252,105.980 390.978,106.200 390.802 C 106.420 390.626,107.545 390.374,108.700 390.241 C 109.855 390.109,111.745 389.893,112.900 389.763 C 114.055 389.633,115.171 389.363,115.380 389.163 C 115.589 388.963,116.613 388.800,117.656 388.800 C 118.699 388.800,119.664 388.620,119.800 388.400 C 119.936 388.180,121.027 388.000,122.224 388.000 C 123.421 388.000,124.400 387.820,124.400 387.600 C 124.400 387.380,125.379 387.200,126.576 387.200 C 127.773 387.200,128.864 387.020,129.000 386.800 C 129.136 386.580,130.137 386.400,131.224 386.400 C 132.311 386.400,133.200 386.220,133.200 386.000 C 133.200 385.780,133.909 385.600,134.776 385.600 C 135.643 385.600,136.464 385.420,136.600 385.200 C 136.736 384.980,137.546 384.800,138.400 384.800 C 139.254 384.800,140.064 384.620,140.200 384.400 C 140.336 384.180,141.247 384.000,142.224 384.000 C 143.201 384.000,144.000 383.820,144.000 383.600 C 144.000 383.380,144.720 383.200,145.600 383.200 C 146.480 383.200,147.200 383.020,147.200 382.800 C 147.200 382.580,147.920 382.400,148.800 382.400 C 149.680 382.400,150.400 382.220,150.400 382.000 C 150.400 381.780,151.120 381.600,152.000 381.600 C 152.880 381.600,153.600 381.420,153.600 381.200 C 153.600 380.980,154.219 380.800,154.976 380.800 C 155.733 380.800,156.464 380.620,156.600 380.400 C 156.736 380.180,157.287 380.000,157.824 380.000 C 158.361 380.000,158.800 379.820,158.800 379.600 C 158.800 379.380,159.520 379.200,160.400 379.200 C 161.280 379.200,162.000 379.020,162.000 378.800 C 162.000 378.580,162.540 378.400,163.200 378.400 C 163.860 378.400,164.400 378.220,164.400 378.000 C 164.400 377.780,165.120 377.600,166.000 377.600 C 166.880 377.600,167.600 377.420,167.600 377.200 C 167.600 376.980,168.140 376.800,168.800 376.800 C 169.460 376.800,170.000 376.620,170.000 376.400 C 170.000 376.180,170.540 376.000,171.200 376.000 C 171.860 376.000,172.400 375.841,172.400 375.646 C 172.400 375.451,173.390 375.168,174.600 375.017 C 175.810 374.866,176.800 374.575,176.800 374.371 C 176.800 374.167,177.340 374.000,178.000 374.000 C 178.660 374.000,179.200 373.820,179.200 373.600 C 179.200 373.380,179.740 373.200,180.400 373.200 C 181.060 373.200,181.600 373.020,181.600 372.800 C 181.600 372.580,182.140 372.400,182.800 372.400 C 183.460 372.400,184.000 372.220,184.000 372.000 C 184.000 371.780,184.362 371.600,184.805 371.600 C 185.248 371.600,185.923 371.441,186.305 371.247 C 186.687 371.052,187.540 370.671,188.200 370.400 C 188.860 370.129,189.713 369.748,190.095 369.553 C 190.477 369.359,191.152 369.200,191.595 369.200 C 192.038 369.200,192.400 369.020,192.400 368.800 C 192.400 368.580,192.839 368.400,193.376 368.400 C 193.913 368.400,194.464 368.220,194.600 368.000 C 194.736 367.780,195.197 367.600,195.624 367.600 C 196.051 367.600,196.400 367.420,196.400 367.200 C 196.400 366.980,196.839 366.800,197.376 366.800 C 197.913 366.800,198.464 366.620,198.600 366.400 C 198.736 366.180,199.197 366.000,199.624 366.000 C 200.051 366.000,200.400 365.820,200.400 365.600 C 200.400 365.380,200.760 365.200,201.200 365.200 C 201.640 365.200,202.000 365.020,202.000 364.800 C 202.000 364.580,202.439 364.400,202.976 364.400 C 203.513 364.400,204.064 364.220,204.200 364.000 C 204.336 363.780,204.797 363.600,205.224 363.600 C 205.651 363.600,206.000 363.420,206.000 363.200 C 206.000 362.980,206.360 362.800,206.800 362.800 C 207.240 362.800,207.600 362.620,207.600 362.400 C 207.600 362.180,208.050 362.000,208.600 362.000 C 209.150 362.000,209.600 361.820,209.600 361.600 C 209.600 361.380,209.960 361.200,210.400 361.200 C 210.840 361.200,211.200 361.020,211.200 360.800 C 211.200 360.580,211.560 360.400,212.000 360.400 C 212.440 360.400,212.800 360.220,212.800 360.000 C 212.800 359.780,213.160 359.600,213.600 359.600 C 214.040 359.600,214.400 359.420,214.400 359.200 C 214.400 358.980,214.706 358.800,215.080 358.800 C 215.857 358.800,224.930 354.389,225.133 353.913 C 225.207 353.741,225.612 353.600,226.033 353.600 C 226.455 353.600,226.800 353.420,226.800 353.200 C 226.800 352.980,227.160 352.800,227.600 352.800 C 228.040 352.800,228.400 352.620,228.400 352.400 C 228.400 352.180,228.636 352.000,228.925 352.000 C 229.213 352.000,229.836 351.640,230.308 351.200 C 230.780 350.760,231.444 350.400,231.783 350.400 C 232.122 350.400,232.400 350.220,232.400 350.000 C 232.400 349.780,232.760 349.600,233.200 349.600 C 233.640 349.600,234.000 349.420,234.000 349.200 C 234.000 348.980,234.360 348.800,234.800 348.800 C 235.240 348.800,235.600 348.620,235.600 348.400 C 235.600 348.180,235.836 348.000,236.125 348.000 C 236.413 348.000,237.036 347.640,237.508 347.200 C 237.980 346.760,238.644 346.400,238.983 346.400 C 239.322 346.400,239.600 346.220,239.600 346.000 C 239.600 345.780,239.830 345.600,240.112 345.600 C 240.393 345.600,240.883 345.240,241.200 344.800 C 241.517 344.360,242.097 344.000,242.488 344.000 C 242.880 344.000,243.200 343.820,243.200 343.600 C 243.200 343.380,243.436 343.200,243.725 343.200 C 244.013 343.200,244.636 342.840,245.108 342.400 C 245.580 341.960,246.231 341.600,246.555 341.600 C 246.878 341.600,247.381 341.375,247.671 341.100 C 247.962 340.825,248.695 340.345,249.300 340.032 C 249.905 339.720,250.400 339.315,250.400 339.132 C 250.400 338.950,250.636 338.800,250.925 338.800 C 251.213 338.800,251.798 338.485,252.225 338.100 C 252.651 337.715,253.495 337.145,254.100 336.832 C 254.705 336.520,255.200 336.115,255.200 335.932 C 255.200 335.750,255.470 335.600,255.800 335.600 C 256.130 335.600,256.400 335.450,256.400 335.268 C 256.400 335.085,256.895 334.681,257.500 334.370 C 258.105 334.060,258.891 333.489,259.247 333.103 C 259.603 332.716,260.071 332.400,260.288 332.400 C 260.504 332.400,261.246 331.860,261.937 331.200 C 262.628 330.540,263.392 330.000,263.636 330.000 C 263.880 330.000,264.583 329.460,265.200 328.800 C 265.817 328.140,266.492 327.600,266.701 327.600 C 266.910 327.600,267.634 327.072,268.309 326.426 C 268.985 325.781,270.047 324.989,270.670 324.667 C 271.292 324.345,272.144 323.703,272.563 323.241 C 272.982 322.778,273.488 322.400,273.688 322.400 C 273.888 322.400,274.929 321.500,276.000 320.400 C 277.071 319.300,278.124 318.400,278.339 318.400 C 278.554 318.400,279.827 317.320,281.168 316.000 C 282.508 314.680,283.782 313.600,283.998 313.600 C 284.214 313.600,286.792 311.215,289.726 308.300 C 292.661 305.385,295.912 302.305,296.951 301.457 C 299.055 299.738,301.195 297.551,301.198 297.117 C 301.199 296.961,303.450 294.572,306.200 291.808 C 308.950 289.044,311.200 286.595,311.200 286.365 C 311.200 286.136,312.100 285.071,313.200 284.000 C 314.300 282.929,315.200 281.861,315.200 281.628 C 315.200 281.395,316.100 280.285,317.200 279.161 C 318.300 278.038,319.200 276.950,319.200 276.743 C 319.200 276.537,319.879 275.700,320.708 274.884 C 322.421 273.199,325.200 269.639,325.200 269.131 C 325.200 268.945,325.740 268.228,326.400 267.537 C 327.060 266.846,327.600 266.078,327.600 265.829 C 327.600 265.580,327.960 265.117,328.400 264.800 C 328.840 264.483,329.200 264.020,329.200 263.771 C 329.200 263.522,329.740 262.754,330.400 262.063 C 331.060 261.372,331.600 260.608,331.600 260.364 C 331.600 260.120,332.140 259.417,332.800 258.800 C 333.460 258.183,334.000 257.564,334.000 257.423 C 334.000 257.282,334.360 256.780,334.800 256.308 C 335.240 255.836,335.600 255.213,335.600 254.925 C 335.600 254.636,335.750 254.400,335.932 254.400 C 336.115 254.400,336.520 253.905,336.832 253.300 C 337.145 252.695,337.715 251.851,338.100 251.425 C 338.485 250.998,338.800 250.413,338.800 250.125 C 338.800 249.836,338.968 249.600,339.173 249.600 C 339.378 249.600,339.654 249.261,339.785 248.848 C 339.916 248.434,340.378 247.686,340.812 247.186 C 341.245 246.687,341.600 245.985,341.600 245.627 C 341.600 245.269,341.960 244.717,342.400 244.400 C 342.840 244.083,343.200 243.543,343.200 243.200 C 343.200 242.857,343.560 242.317,344.000 242.000 C 344.440 241.683,344.800 241.193,344.800 240.912 C 344.800 240.630,344.980 240.400,345.200 240.400 C 345.420 240.400,345.600 240.040,345.600 239.600 C 345.600 239.160,345.780 238.800,346.000 238.800 C 346.220 238.800,346.400 238.530,346.400 238.200 C 346.400 237.870,346.580 237.600,346.800 237.600 C 347.020 237.600,347.200 237.330,347.200 237.000 C 347.200 236.670,347.380 236.400,347.600 236.400 C 347.820 236.400,348.000 236.040,348.000 235.600 C 348.000 235.160,348.180 234.800,348.400 234.800 C 348.620 234.800,348.800 234.564,348.800 234.275 C 348.800 233.987,349.160 233.364,349.600 232.892 C 350.040 232.420,350.400 231.756,350.400 231.417 C 350.400 231.078,350.580 230.800,350.800 230.800 C 351.020 230.800,351.200 230.480,351.200 230.088 C 351.200 229.697,351.560 229.117,352.000 228.800 C 352.440 228.483,352.800 227.903,352.800 227.512 C 352.800 227.120,352.980 226.800,353.200 226.800 C 353.420 226.800,353.600 226.522,353.600 226.183 C 353.600 225.844,353.950 225.191,354.377 224.732 C 355.355 223.683,358.800 216.784,358.800 215.876 C 358.800 215.504,358.980 215.200,359.200 215.200 C 359.420 215.200,359.600 214.840,359.600 214.400 C 359.600 213.960,359.780 213.600,360.000 213.600 C 360.220 213.600,360.400 213.240,360.400 212.800 C 360.400 212.360,360.580 212.000,360.800 212.000 C 361.020 212.000,361.200 211.640,361.200 211.200 C 361.200 210.760,361.380 210.400,361.600 210.400 C 361.820 210.400,362.000 210.040,362.000 209.600 C 362.000 209.160,362.180 208.800,362.400 208.800 C 362.620 208.800,362.800 208.530,362.800 208.200 C 362.800 207.870,362.980 207.600,363.200 207.600 C 363.420 207.600,363.600 207.330,363.600 207.000 C 363.600 206.670,363.780 206.400,364.000 206.400 C 364.220 206.400,364.400 206.040,364.400 205.600 C 364.400 205.160,364.580 204.800,364.800 204.800 C 365.020 204.800,365.200 204.451,365.200 204.024 C 365.200 203.597,365.380 203.136,365.600 203.000 C 365.820 202.864,366.000 202.403,366.000 201.976 C 366.000 201.549,366.180 201.200,366.400 201.200 C 366.620 201.200,366.800 200.840,366.800 200.400 C 366.800 199.960,366.980 199.600,367.200 199.600 C 367.420 199.600,367.600 199.240,367.600 198.800 C 367.600 198.360,367.780 198.000,368.000 198.000 C 368.220 198.000,368.400 197.640,368.400 197.200 C 368.400 196.760,368.541 196.400,368.713 196.400 C 368.885 196.400,369.274 195.545,369.578 194.500 C 369.882 193.455,370.247 192.510,370.389 192.400 C 370.530 192.290,371.228 190.940,371.939 189.400 C 372.650 187.860,373.405 186.287,373.616 185.905 C 373.827 185.523,374.000 184.938,374.000 184.605 C 374.000 184.272,374.164 184.000,374.365 184.000 C 374.566 184.000,374.851 183.280,375.000 182.400 C 375.149 181.520,375.434 180.800,375.635 180.800 C 375.836 180.800,376.000 180.440,376.000 180.000 C 376.000 179.560,376.180 179.200,376.400 179.200 C 376.620 179.200,376.800 178.660,376.800 178.000 C 376.800 177.340,376.980 176.800,377.200 176.800 C 377.420 176.800,377.600 176.440,377.600 176.000 C 377.600 175.560,377.780 175.200,378.000 175.200 C 378.220 175.200,378.400 174.750,378.400 174.200 C 378.400 173.650,378.580 173.200,378.800 173.200 C 379.020 173.200,379.200 172.750,379.200 172.200 C 379.200 171.650,379.380 171.200,379.600 171.200 C 379.820 171.200,380.000 170.750,380.000 170.200 C 380.000 169.650,380.180 169.200,380.400 169.200 C 380.620 169.200,380.800 168.838,380.800 168.395 C 380.800 167.952,380.980 167.232,381.200 166.795 C 381.420 166.358,381.780 165.642,382.000 165.205 C 382.220 164.768,382.400 164.048,382.400 163.605 C 382.400 163.162,382.580 162.800,382.800 162.800 C 383.020 162.800,383.200 162.260,383.200 161.600 C 383.200 160.940,383.380 160.400,383.600 160.400 C 383.820 160.400,384.000 159.860,384.000 159.200 C 384.000 158.540,384.180 158.000,384.400 158.000 C 384.620 158.000,384.800 157.370,384.800 156.600 C 384.800 155.830,384.980 155.200,385.200 155.200 C 385.420 155.200,385.600 154.660,385.600 154.000 C 385.600 153.340,385.780 152.800,386.000 152.800 C 386.220 152.800,386.400 152.271,386.400 151.624 C 386.400 150.977,386.580 150.336,386.800 150.200 C 387.440 149.804,387.296 147.200,386.633 147.200 C 386.321 147.200,384.658 148.032,382.938 149.049 C 380.136 150.706,375.332 153.092,372.287 154.339 C 370.815 154.942,370.645 154.452,371.178 151.163 C 372.460 143.260,370.794 130.778,367.495 123.573 C 366.948 122.378,366.083 120.500,365.574 119.400 C 364.469 117.013,359.585 109.607,357.839 107.670 C 353.743 103.126,354.133 103.083,353.902 108.100 C 353.238 122.505,341.963 132.917,322.600 137.008 C 321.060 137.333,319.735 137.599,319.656 137.600 C 319.440 137.600,319.825 135.342,320.576 132.200 C 323.239 121.051,320.338 107.314,313.359 98.030 C 310.843 94.683,310.751 94.636,309.590 96.097 M323.133 172.295 C 325.188 173.949,326.385 176.206,326.393 178.439 C 326.414 184.209,320.454 203.558,315.009 215.400 C 311.901 222.158,308.917 228.071,306.249 232.754 C 304.572 235.699,303.200 238.162,303.200 238.228 C 303.200 238.656,292.038 255.204,289.955 257.864 C 288.550 259.659,285.962 262.989,284.205 265.264 C 282.448 267.539,280.451 270.030,279.766 270.800 C 279.082 271.570,277.080 273.820,275.317 275.800 C 263.027 289.607,244.351 306.146,229.000 316.821 C 226.800 318.350,223.974 320.323,222.720 321.204 C 220.444 322.803,207.244 331.200,207.007 331.200 C 206.938 331.200,205.697 331.920,204.248 332.800 C 202.800 333.680,201.504 334.400,201.369 334.400 C 201.234 334.400,200.646 334.740,200.062 335.155 C 197.763 336.788,177.513 347.115,170.000 350.486 C 169.230 350.831,167.560 351.583,166.288 352.157 C 165.017 352.731,163.897 353.200,163.800 353.200 C 163.703 353.200,162.673 353.632,161.512 354.159 C 153.918 357.609,141.906 362.162,126.400 367.469 C 117.099 370.653,111.260 367.710,112.139 360.283 C 112.648 355.984,114.617 354.475,123.656 351.455 C 126.625 350.463,129.853 349.352,130.828 348.987 C 131.802 348.621,133.590 347.962,134.800 347.522 C 136.010 347.082,137.360 346.573,137.800 346.390 C 138.240 346.207,141.030 345.130,144.000 343.995 C 149.151 342.028,152.446 340.661,157.112 338.554 C 158.273 338.029,159.313 337.600,159.422 337.600 C 159.891 337.600,168.490 333.471,177.000 329.159 C 185.619 324.792,191.542 321.509,201.122 315.790 C 204.636 313.692,222.171 301.904,222.800 301.216 C 222.910 301.096,224.080 300.190,225.400 299.202 C 252.957 278.584,275.520 253.414,291.479 225.489 C 293.965 221.137,296.000 217.499,296.000 217.403 C 296.000 217.307,297.045 215.107,298.322 212.514 C 299.600 209.921,301.145 206.540,301.756 205.000 C 302.367 203.460,303.102 201.660,303.390 201.000 C 305.561 196.015,308.542 186.583,310.407 178.804 C 312.182 171.397,318.197 168.320,323.133 172.295 " stroke="none" fill="#d43c34" fill-rule="evenodd"></path><path id="path1" d="M315.011 50.782 C 314.865 51.019,313.302 51.200,311.400 51.200 C 309.556 51.200,307.936 51.380,307.800 51.600 C 307.664 51.820,307.023 52.000,306.376 52.000 C 305.729 52.000,305.200 52.180,305.200 52.400 C 305.200 52.620,304.491 52.800,303.624 52.800 C 302.757 52.800,301.936 52.980,301.800 53.200 C 301.664 53.420,301.023 53.600,300.376 53.600 C 299.729 53.600,299.200 53.780,299.200 54.000 C 299.200 54.220,298.559 54.400,297.776 54.400 C 296.929 54.400,296.453 54.562,296.600 54.800 C 296.736 55.020,296.494 55.200,296.061 55.200 C 295.342 55.200,292.072 56.688,291.600 57.230 C 291.490 57.356,290.275 57.986,288.900 58.629 C 287.525 59.272,286.400 59.934,286.400 60.099 C 286.400 60.265,286.059 60.400,285.643 60.400 C 285.226 60.400,284.797 60.631,284.688 60.914 C 284.580 61.197,283.719 61.962,282.775 62.614 C 280.424 64.238,272.400 72.355,272.400 73.108 C 272.400 73.271,271.680 74.169,270.800 75.103 C 269.920 76.037,269.200 77.071,269.200 77.401 C 269.200 77.730,269.020 78.000,268.800 78.000 C 268.580 78.000,268.400 78.281,268.400 78.624 C 268.400 78.967,268.220 79.136,268.000 79.000 C 267.780 78.864,267.600 79.009,267.600 79.322 C 267.600 79.636,267.266 80.321,266.857 80.846 C 266.448 81.371,265.869 82.483,265.570 83.318 C 265.271 84.152,264.706 85.180,264.313 85.601 C 263.921 86.022,263.600 86.520,263.600 86.708 C 263.600 86.896,263.240 87.795,262.800 88.706 C 262.360 89.616,262.000 90.550,262.000 90.781 C 262.000 91.011,261.809 91.200,261.576 91.200 C 261.343 91.200,261.264 91.380,261.400 91.600 C 261.536 91.820,261.504 92.225,261.330 92.500 C 261.155 92.775,261.009 93.096,261.006 93.213 C 261.003 93.330,260.700 94.140,260.334 95.013 C 259.176 97.773,259.081 98.078,258.565 100.700 C 258.424 101.415,258.150 102.000,257.955 102.000 C 257.760 102.000,257.600 102.720,257.600 103.600 C 257.600 104.480,257.420 105.200,257.200 105.200 C 256.980 105.200,256.800 105.920,256.800 106.800 C 256.800 107.680,256.620 108.400,256.400 108.400 C 256.180 108.400,256.000 109.030,256.000 109.800 L 256.000 111.200 257.951 111.200 C 259.129 111.200,260.085 110.980,260.364 110.644 C 260.919 109.975,262.244 109.688,267.000 109.209 C 271.681 108.738,278.204 107.745,282.400 106.865 C 283.390 106.657,285.100 106.301,286.200 106.073 C 287.300 105.845,289.010 105.401,290.000 105.087 C 290.990 104.773,292.610 104.289,293.600 104.012 C 294.590 103.735,295.760 103.349,296.200 103.155 C 296.640 102.960,297.990 102.394,299.200 101.899 C 303.109 100.296,306.426 98.295,308.438 96.325 C 309.519 95.266,310.554 94.400,310.738 94.400 C 311.835 94.400,315.539 99.711,317.802 104.529 C 321.101 111.551,321.598 113.734,321.876 122.400 C 322.058 128.106,321.872 129.811,320.548 134.573 C 320.247 135.658,320.000 136.611,320.000 136.691 C 320.000 137.911,338.348 131.631,339.600 129.983 C 339.710 129.838,340.219 129.499,340.732 129.229 C 348.019 125.389,353.959 114.487,353.551 105.699 C 353.407 102.580,354.134 102.519,356.643 105.442 C 357.720 106.696,358.786 107.919,359.013 108.161 C 359.240 108.402,359.866 109.230,360.402 110.000 C 360.939 110.770,361.522 111.580,361.697 111.800 C 365.023 115.970,369.486 125.897,370.779 132.000 C 371.036 133.210,371.415 134.968,371.623 135.906 C 372.109 138.104,372.114 150.608,371.629 152.297 C 371.426 153.008,371.386 153.668,371.541 153.764 C 372.000 154.047,377.754 151.366,382.216 148.791 C 384.494 147.476,386.783 146.400,387.304 146.400 C 387.824 146.400,388.636 146.040,389.108 145.600 C 389.580 145.160,390.061 144.800,390.176 144.800 C 391.310 144.800,394.000 141.174,394.000 139.645 C 394.000 138.619,394.157 138.050,394.400 138.200 C 394.646 138.352,394.800 137.679,394.800 136.447 C 394.800 135.347,394.980 134.336,395.200 134.200 C 395.420 134.064,395.600 133.074,395.600 132.000 C 395.600 130.926,395.780 129.936,396.000 129.800 C 396.223 129.662,396.400 127.796,396.400 125.576 C 396.400 123.108,396.557 121.600,396.813 121.600 C 397.091 121.600,397.166 118.300,397.042 111.500 C 396.846 100.712,396.531 96.000,396.006 96.000 C 395.827 96.000,395.581 95.235,395.459 94.300 C 395.020 90.937,394.706 89.600,394.356 89.600 C 394.160 89.600,394.000 89.060,394.000 88.400 C 394.000 87.740,393.820 87.200,393.600 87.200 C 393.380 87.200,393.200 86.660,393.200 86.000 C 393.200 85.340,393.020 84.800,392.800 84.800 C 392.580 84.800,392.400 84.440,392.400 84.000 C 392.400 83.560,392.220 83.200,392.000 83.200 C 391.780 83.200,391.600 82.901,391.600 82.535 C 391.600 81.786,388.075 75.600,387.648 75.600 C 387.497 75.600,387.047 75.049,386.649 74.376 C 385.385 72.235,377.213 64.890,377.194 65.877 C 377.191 66.054,377.053 65.988,376.888 65.728 C 376.627 65.318,373.753 63.644,370.903 62.241 C 370.410 61.999,370.005 61.654,370.003 61.476 C 370.001 61.298,369.853 61.243,369.674 61.354 C 369.186 61.656,365.200 60.401,365.200 59.946 C 365.200 59.730,365.022 59.663,364.805 59.797 C 364.587 59.932,363.574 59.672,362.554 59.221 C 361.533 58.769,360.372 58.400,359.973 58.400 C 359.574 58.400,359.136 58.220,359.000 58.000 C 358.864 57.780,358.153 57.600,357.421 57.600 C 356.688 57.600,354.134 56.988,351.745 56.240 C 349.355 55.491,345.780 54.480,343.800 53.993 C 341.820 53.505,340.012 52.874,339.783 52.590 C 339.553 52.306,338.563 52.025,337.583 51.966 C 336.602 51.907,335.620 51.726,335.399 51.563 C 334.436 50.851,315.419 50.122,315.011 50.782 " stroke="none" fill="#8bc353" fill-rule="evenodd"></path><path id="path2" d="M340.212 0.687 C 338.652 1.623,338.000 2.243,338.000 2.788 C 338.000 3.033,337.640 3.620,337.200 4.092 C 336.323 5.034,335.976 11.200,336.800 11.200 C 337.020 11.200,337.200 11.475,337.200 11.811 C 337.200 12.604,340.596 16.000,341.389 16.000 C 341.725 16.000,342.000 16.136,342.000 16.302 C 342.000 16.469,342.585 16.844,343.300 17.136 C 345.576 18.066,346.400 18.526,346.400 18.868 C 346.400 19.050,346.641 19.200,346.936 19.200 C 348.134 19.200,352.000 23.624,352.000 24.995 C 352.000 25.328,352.180 25.600,352.400 25.600 C 352.620 25.600,352.800 26.590,352.800 27.800 C 352.800 29.010,352.620 30.000,352.400 30.000 C 352.180 30.000,352.000 30.720,352.000 31.600 C 352.000 32.480,351.820 33.200,351.600 33.200 C 351.380 33.200,351.200 33.552,351.200 33.982 C 351.200 34.413,350.660 35.681,350.000 36.800 C 349.340 37.919,348.800 39.007,348.800 39.218 C 348.800 39.428,348.620 39.600,348.400 39.600 C 348.180 39.600,348.000 39.960,348.000 40.400 C 348.000 40.840,347.859 41.200,347.686 41.200 C 347.514 41.200,347.074 41.695,346.709 42.300 C 346.344 42.905,345.630 43.850,345.123 44.400 C 344.615 44.950,343.667 46.120,343.014 47.000 C 342.362 47.880,341.609 48.826,341.341 49.102 C 341.072 49.379,340.738 49.964,340.599 50.402 C 340.460 50.841,340.166 51.200,339.945 51.200 C 339.725 51.200,339.602 51.600,339.672 52.089 C 339.783 52.862,340.360 53.120,344.096 54.065 C 346.458 54.662,350.128 55.702,352.251 56.376 C 357.004 57.884,357.874 57.915,358.473 56.600 C 358.723 56.050,359.080 55.600,359.264 55.600 C 359.449 55.600,359.600 55.370,359.600 55.088 C 359.600 54.807,359.960 54.317,360.400 54.000 C 360.840 53.683,361.200 53.193,361.200 52.912 C 361.200 52.630,361.380 52.400,361.600 52.400 C 361.820 52.400,362.000 52.130,362.000 51.800 C 362.000 51.470,362.180 51.200,362.400 51.200 C 362.620 51.200,362.800 50.922,362.800 50.583 C 362.800 50.244,363.160 49.580,363.600 49.108 C 364.040 48.636,364.400 48.013,364.400 47.725 C 364.400 47.436,364.580 47.200,364.800 47.200 C 365.020 47.200,365.200 46.840,365.200 46.400 C 365.200 45.960,365.380 45.600,365.600 45.600 C 365.820 45.600,366.000 45.240,366.000 44.800 C 366.000 44.360,366.180 44.000,366.400 44.000 C 366.620 44.000,366.800 43.651,366.800 43.224 C 366.800 42.797,366.980 42.336,367.200 42.200 C 367.420 42.064,367.600 41.513,367.600 40.976 C 367.600 40.439,367.780 40.000,368.000 40.000 C 368.220 40.000,368.400 39.471,368.400 38.824 C 368.400 38.177,368.580 37.536,368.800 37.400 C 369.020 37.264,369.200 36.454,369.200 35.600 C 369.200 34.746,369.380 33.936,369.600 33.800 C 369.838 33.653,370.000 31.129,370.000 27.576 C 370.000 23.859,369.849 21.600,369.600 21.600 C 369.380 21.600,369.200 21.060,369.200 20.400 C 369.200 19.740,369.020 19.200,368.800 19.200 C 368.580 19.200,368.400 18.660,368.400 18.000 C 368.400 17.340,368.243 16.800,368.050 16.800 C 367.858 16.800,367.596 16.282,367.470 15.648 C 367.343 15.015,366.960 14.218,366.620 13.877 C 366.279 13.536,366.000 13.072,366.000 12.847 C 366.000 12.621,365.595 12.001,365.100 11.470 C 364.605 10.938,363.480 9.676,362.600 8.666 C 361.720 7.655,360.757 6.822,360.460 6.814 C 360.164 6.806,359.417 6.260,358.800 5.600 C 358.183 4.940,357.559 4.400,357.412 4.400 C 357.264 4.400,356.359 3.860,355.400 3.200 C 354.441 2.540,353.463 2.000,353.228 2.000 C 352.993 2.000,352.800 1.820,352.800 1.600 C 352.800 1.380,352.386 1.200,351.880 1.200 C 351.374 1.200,350.738 0.978,350.466 0.706 C 349.601 -0.159,341.647 -0.174,340.212 0.687 M366.033 60.544 C 366.125 60.623,366.740 60.808,367.400 60.956 C 368.276 61.152,368.438 61.115,368.000 60.818 C 367.460 60.453,365.632 60.198,366.033 60.544 M275.293 69.200 C 275.018 69.640,274.931 70.000,275.100 70.000 C 275.269 70.000,275.632 69.640,275.907 69.200 C 276.182 68.760,276.269 68.400,276.100 68.400 C 275.931 68.400,275.568 68.760,275.293 69.200 " stroke="none" fill="#649c34" fill-rule="evenodd"></path><path id="path3" d="M314.926 171.552 C 312.688 172.602,311.396 174.675,310.407 178.804 C 308.542 186.583,305.561 196.015,303.390 201.000 C 303.102 201.660,302.367 203.460,301.756 205.000 C 301.145 206.540,299.600 209.921,298.322 212.514 C 297.045 215.107,296.000 217.307,296.000 217.403 C 296.000 217.499,293.965 221.137,291.479 225.489 C 284.863 237.066,280.307 243.692,270.276 256.328 C 259.046 270.476,241.899 286.858,225.400 299.202 C 224.080 300.190,222.910 301.096,222.800 301.216 C 222.171 301.904,204.636 313.692,201.122 315.790 C 191.542 321.509,185.619 324.792,177.000 329.159 C 168.490 333.471,159.891 337.600,159.422 337.600 C 159.313 337.600,158.273 338.029,157.112 338.554 C 152.446 340.661,149.151 342.028,144.000 343.995 C 141.030 345.130,138.240 346.207,137.800 346.390 C 137.360 346.573,136.010 347.082,134.800 347.522 C 133.590 347.962,131.802 348.621,130.828 348.987 C 129.853 349.352,126.625 350.463,123.656 351.455 C 114.617 354.475,112.648 355.984,112.139 360.283 C 111.260 367.710,117.099 370.653,126.400 367.469 C 141.906 362.162,153.918 357.609,161.512 354.159 C 162.673 353.632,163.703 353.200,163.800 353.200 C 163.897 353.200,165.017 352.731,166.288 352.157 C 167.560 351.583,169.230 350.831,170.000 350.486 C 177.513 347.115,197.763 336.788,200.062 335.155 C 200.646 334.740,201.234 334.400,201.369 334.400 C 201.504 334.400,202.800 333.680,204.248 332.800 C 205.697 331.920,206.938 331.200,207.007 331.200 C 207.244 331.200,220.444 322.803,222.720 321.204 C 223.974 320.323,226.800 318.350,229.000 316.821 C 244.351 306.146,263.027 289.607,275.317 275.800 C 277.080 273.820,279.082 271.570,279.766 270.800 C 280.451 270.030,282.448 267.539,284.205 265.264 C 285.962 262.989,288.550 259.659,289.955 257.864 C 292.038 255.204,303.200 238.656,303.200 238.228 C 303.200 238.162,304.572 235.699,306.249 232.754 C 308.917 228.071,311.901 222.158,315.009 215.400 C 320.454 203.558,326.414 184.209,326.393 178.439 C 326.374 172.917,320.078 169.135,314.926 171.552 " stroke="none" fill="#f35b53" fill-rule="evenodd"></path><path id="path4" d="M308.336 96.359 C 306.436 98.287,303.147 100.281,299.200 101.899 C 297.990 102.394,296.640 102.960,296.200 103.155 C 295.760 103.349,294.590 103.735,293.600 104.012 C 292.610 104.289,290.990 104.773,290.000 105.087 C 289.010 105.401,287.300 105.845,286.200 106.073 C 285.100 106.301,283.390 106.657,282.400 106.865 C 278.204 107.745,271.681 108.738,267.000 109.209 C 262.102 109.703,260.913 109.976,260.313 110.744 C 259.876 111.303,259.889 111.335,260.400 110.961 C 260.730 110.720,262.890 110.306,265.200 110.042 C 272.381 109.219,279.255 108.155,283.600 107.193 C 284.590 106.973,286.030 106.687,286.800 106.557 C 287.570 106.426,289.190 106.002,290.400 105.613 C 291.610 105.225,293.410 104.669,294.400 104.379 C 299.681 102.829,306.651 99.022,309.463 96.150 L 310.727 94.861 311.878 96.130 C 319.546 104.584,323.325 119.514,320.753 131.200 C 319.345 137.603,319.337 137.767,320.449 137.444 C 320.972 137.293,322.030 137.071,322.800 136.951 C 323.570 136.831,324.650 136.587,325.200 136.408 C 325.750 136.229,327.280 135.771,328.600 135.391 C 331.143 134.659,331.665 134.452,336.400 132.292 C 340.148 130.582,345.249 126.812,347.662 123.967 C 351.807 119.081,353.957 113.346,353.986 107.100 C 354.004 103.174,353.752 103.137,357.839 107.670 C 367.722 118.634,373.298 136.747,371.218 151.134 C 370.720 154.576,370.878 154.889,372.730 154.137 C 375.588 152.977,380.237 150.638,383.200 148.869 C 384.850 147.883,386.515 147.094,386.900 147.114 C 387.285 147.134,387.600 146.981,387.600 146.775 C 387.600 145.968,386.193 146.495,382.216 148.791 C 377.754 151.366,372.000 154.047,371.541 153.764 C 371.386 153.668,371.426 153.008,371.629 152.297 C 372.114 150.608,372.109 138.104,371.623 135.906 C 371.415 134.968,371.036 133.210,370.779 132.000 C 369.486 125.897,365.023 115.970,361.697 111.800 C 361.522 111.580,360.939 110.770,360.402 110.000 C 359.866 109.230,359.240 108.402,359.013 108.161 C 358.786 107.919,357.720 106.696,356.643 105.442 C 354.134 102.519,353.407 102.580,353.551 105.699 C 353.959 114.487,348.019 125.389,340.732 129.229 C 340.219 129.499,339.710 129.838,339.600 129.983 C 338.348 131.631,320.000 137.911,320.000 136.691 C 320.000 136.611,320.247 135.658,320.548 134.573 C 323.318 124.610,322.372 114.257,317.802 104.529 C 315.420 99.457,311.790 94.344,310.636 94.434 C 310.396 94.453,309.361 95.319,308.336 96.359 " stroke="none" fill="#a48d4a" fill-rule="evenodd"></path></g></svg>