<svg id="Layer_1" enable-background="new 0 0 512 512" height="512" viewBox="0 0 512 512" width="512" xmlns="http://www.w3.org/2000/svg"><g><path d="m400.6 0h-289.2c-8.284 0-15 6.716-15 15v257.067c0 8.284 6.716 15 15 15h289.2c8.284 0 15-6.716 15-15v-257.067c0-8.284-6.716-15-15-15z" fill="#af6432"/><g fill="#823200"><path d="m415.6 272.067v-257.067c0-8.284-6.716-15-15-15h-144.6v287.067h144.6c8.284 0 15-6.716 15-15z"/><path d="m131.4 96.4h56.4c2.761 0 5-2.239 5-5v-56.4c0-2.761-2.239-5-5-5h-56.4c-2.761 0-5 2.239-5 5v56.4c0 2.761 2.239 5 5 5z"/><path d="m131.4 192.8h56.4c2.761 0 5-2.239 5-5v-56.4c0-2.761-2.239-5-5-5h-56.4c-2.761 0-5 2.239-5 5v56.4c0 2.761 2.239 5 5 5z"/><path d="m227.8 96.4h56.4c2.761 0 5-2.239 5-5v-56.4c0-2.761-2.239-5-5-5h-56.4c-2.761 0-5 2.239-5 5v56.4c0 2.761 2.238 5 5 5z"/><path d="m227.8 192.8h56.4c2.761 0 5-2.239 5-5v-56.4c0-2.761-2.239-5-5-5h-56.4c-2.761 0-5 2.239-5 5v56.4c0 2.761 2.238 5 5 5z"/></g><path d="m324.2 96.4h56.4c2.761 0 5-2.239 5-5v-56.4c0-2.761-2.239-5-5-5h-56.4c-2.761 0-5 2.239-5 5v56.4c0 2.761 2.239 5 5 5z" fill="#4b1e0a"/><path d="m324.2 192.8h56.4c2.761 0 5-2.239 5-5v-56.4c0-2.761-2.239-5-5-5h-56.4c-2.761 0-5 2.239-5 5v56.4c0 2.761 2.239 5 5 5z" fill="#4b1e0a"/><path d="m319.2 287.067h66.4v-59.267c0-2.761-2.239-5-5-5h-56.4c-2.761 0-5 2.239-5 5z" fill="#4b1e0a"/><path d="m222.8 287.067h66.4v-59.267c0-2.761-2.239-5-5-5h-56.4c-2.761 0-5 2.239-5 5z" fill="#823200"/><path d="m126.4 287.067h66.4v-59.267c0-2.761-2.239-5-5-5h-56.4c-2.761 0-5 2.239-5 5z" fill="#823200"/><path d="m289.2 91.4v-56.4c0-2.761-2.239-5-5-5h-28.2v66.4h28.2c2.762 0 5-2.239 5-5z" fill="#4b1e0a"/><path d="m289.2 187.8v-56.4c0-2.761-2.239-5-5-5h-28.2v66.4h28.2c2.762 0 5-2.239 5-5z" fill="#4b1e0a"/><path d="m289.2 227.8c0-2.761-2.239-5-5-5h-28.2v64.267h33.2z" fill="#4b1e0a"/><path d="m416.667 321.333h-321.334c-8.284 0-15 6.716-15 15v160.667c0 8.284 6.716 15 15 15h321.334c8.284 0 15-6.716 15-15v-160.667c0-8.284-6.716-15-15-15z" fill="#f05596"/><path d="m431.667 497v-160.667c0-8.284-6.716-15-15-15h-160.667v190.667h160.667c8.284 0 15-6.716 15-15z" fill="#e12364"/><path d="m256 417.881c-31.968 0-63.154-6.203-92.691-18.438-29.538-12.234-55.978-29.899-78.582-52.503l-32.133-32.134c-5.858-5.858-5.858-15.355 0-21.213l32.133-32.133c2.813-2.813 6.628-4.394 10.606-4.394h321.334c3.979 0 7.794 1.581 10.606 4.394l32.133 32.133c5.858 5.858 5.858 15.355 0 21.213l-32.133 32.133c-22.604 22.604-49.044 40.27-78.582 52.504-29.537 12.235-60.723 18.438-92.691 18.438z" fill="#fff5e6"/><path d="m427.273 346.94 32.133-32.133c5.858-5.858 5.858-15.355 0-21.213l-32.133-32.133c-2.813-2.813-6.628-4.394-10.606-4.394h-160.667v160.814c31.968 0 63.154-6.203 92.691-18.438 29.538-12.234 55.978-29.899 78.582-52.503z" fill="#fae6c8"/></g></svg>