<svg id="svg" version="1.1" xmlns="http://www.w3.org/2000/svg" xmlns:xlink="http://www.w3.org/1999/xlink" width="400" height="400" viewBox="0, 0, 400,400"><g id="svgg"><path id="path0" d="M342.200 72.000 C 342.064 72.220,341.254 72.400,340.400 72.400 C 339.546 72.400,338.736 72.580,338.600 72.800 C 338.464 73.020,337.913 73.200,337.376 73.200 C 336.839 73.200,336.400 73.380,336.400 73.600 C 336.400 73.820,335.961 74.000,335.424 74.000 C 334.887 74.000,334.336 74.180,334.200 74.400 C 334.064 74.620,333.513 74.800,332.976 74.800 C 332.439 74.800,332.000 75.010,332.000 75.267 C 332.000 75.523,331.886 75.620,331.747 75.481 C 331.608 75.342,331.113 75.439,330.647 75.696 C 330.181 75.953,329.507 76.119,329.149 76.065 C 328.791 76.011,328.397 76.230,328.274 76.551 C 328.151 76.873,327.723 77.086,327.325 77.025 C 326.926 76.964,326.497 77.072,326.371 77.266 C 326.244 77.460,325.761 77.692,325.297 77.781 C 324.832 77.871,324.077 78.145,323.618 78.391 C 323.159 78.636,322.579 78.711,322.330 78.557 C 322.068 78.395,321.986 78.454,322.135 78.696 C 322.279 78.928,321.958 79.224,321.415 79.361 C 320.876 79.496,319.932 79.815,319.318 80.070 C 318.703 80.324,318.110 80.551,318.000 80.572 C 317.357 80.700,312.937 82.581,312.620 82.862 C 312.411 83.048,311.837 83.200,311.344 83.200 C 310.851 83.200,310.336 83.380,310.200 83.600 C 310.064 83.820,309.691 84.000,309.372 84.000 C 309.053 84.000,307.938 84.378,306.896 84.840 C 305.853 85.302,304.550 85.863,304.000 86.087 C 303.450 86.310,302.687 86.652,302.305 86.847 C 301.923 87.041,301.248 87.200,300.805 87.200 C 300.362 87.200,300.000 87.380,300.000 87.600 C 300.000 87.820,299.550 88.000,299.000 88.000 C 298.450 88.000,298.000 88.180,298.000 88.400 C 298.000 88.620,297.550 88.800,297.000 88.800 C 296.450 88.800,296.000 88.980,296.000 89.200 C 296.000 89.420,295.651 89.600,295.224 89.600 C 294.797 89.600,294.336 89.780,294.200 90.000 C 294.064 90.220,293.513 90.400,292.976 90.400 C 292.439 90.400,292.000 90.580,292.000 90.800 C 292.000 91.020,291.550 91.200,291.000 91.200 C 290.450 91.200,290.000 91.380,290.000 91.600 C 290.000 91.820,289.550 92.000,289.000 92.000 C 288.450 92.000,288.000 92.199,288.000 92.443 C 288.000 92.686,287.721 92.778,287.379 92.647 C 287.038 92.516,286.325 92.693,285.797 93.039 C 285.268 93.385,284.663 93.562,284.452 93.432 C 284.241 93.302,284.008 93.331,283.934 93.498 C 283.781 93.843,278.251 96.117,275.700 96.884 C 274.765 97.165,274.000 97.531,274.000 97.697 C 274.000 97.864,273.550 98.000,273.000 98.000 C 272.450 98.000,272.000 98.180,272.000 98.400 C 272.000 98.620,271.651 98.800,271.224 98.800 C 270.797 98.800,270.336 98.980,270.200 99.200 C 270.064 99.420,269.524 99.600,269.000 99.600 C 268.476 99.600,267.936 99.780,267.800 100.000 C 267.664 100.220,267.113 100.400,266.576 100.400 C 266.039 100.400,265.600 100.580,265.600 100.800 C 265.600 101.020,265.240 101.200,264.800 101.200 C 264.360 101.200,264.000 101.380,264.000 101.600 C 264.000 101.820,263.638 102.000,263.195 102.000 C 262.752 102.000,262.077 102.159,261.695 102.353 C 260.960 102.727,259.201 103.476,257.700 104.054 C 255.951 104.727,254.592 105.297,253.905 105.647 C 253.523 105.841,252.859 106.000,252.429 106.000 C 251.999 106.000,251.536 106.180,251.400 106.400 C 251.264 106.620,250.803 106.800,250.376 106.800 C 249.949 106.800,249.600 106.980,249.600 107.200 C 249.600 107.420,249.150 107.600,248.600 107.600 C 248.050 107.600,247.600 107.780,247.600 108.000 C 247.600 108.220,247.251 108.400,246.824 108.400 C 246.397 108.400,245.930 108.590,245.787 108.821 C 245.644 109.053,245.318 109.167,245.063 109.074 C 244.809 108.982,244.150 109.130,243.600 109.404 C 242.456 109.974,241.727 110.272,237.692 111.819 C 236.093 112.432,234.518 112.933,234.192 112.933 C 233.867 112.933,233.600 113.064,233.600 113.223 C 233.600 113.383,233.105 113.637,232.500 113.787 C 231.406 114.060,229.233 114.933,227.905 115.634 C 227.523 115.835,227.020 116.000,226.786 116.000 C 226.552 116.000,225.616 116.360,224.706 116.800 C 223.795 117.240,222.724 117.600,222.325 117.600 C 221.926 117.600,221.600 117.780,221.600 118.000 C 221.600 118.220,221.060 118.400,220.400 118.400 C 219.740 118.400,219.200 118.580,219.200 118.800 C 219.200 119.020,218.928 119.200,218.595 119.200 C 218.262 119.200,217.677 119.365,217.295 119.567 C 215.593 120.467,212.756 121.600,212.204 121.600 C 211.872 121.600,211.600 121.780,211.600 122.000 C 211.600 122.220,211.161 122.400,210.624 122.400 C 210.087 122.400,209.536 122.580,209.400 122.800 C 209.264 123.020,208.803 123.200,208.376 123.200 C 207.949 123.200,207.600 123.380,207.600 123.600 C 207.600 123.820,207.238 124.000,206.795 124.000 C 206.352 124.000,205.677 124.167,205.295 124.371 C 204.629 124.726,203.522 125.122,202.896 125.229 C 202.733 125.256,202.240 125.478,201.800 125.721 C 201.360 125.965,200.713 126.120,200.361 126.067 C 200.010 126.014,199.502 126.236,199.232 126.561 C 198.962 126.887,198.508 127.063,198.222 126.953 C 197.937 126.844,197.599 127.026,197.472 127.358 C 197.337 127.709,196.897 127.896,196.420 127.804 C 195.969 127.717,195.600 127.812,195.600 128.015 C 195.600 128.321,194.958 128.589,193.200 129.018 C 192.655 129.151,190.518 130.048,189.905 130.400 C 189.523 130.620,188.859 130.800,188.429 130.800 C 187.999 130.800,187.536 130.980,187.400 131.200 C 187.264 131.420,186.803 131.600,186.376 131.600 C 185.949 131.600,185.600 131.736,185.600 131.903 C 185.600 132.234,182.776 133.200,181.806 133.200 C 181.473 133.200,181.200 133.380,181.200 133.600 C 181.200 133.820,180.876 134.000,180.480 134.000 C 180.084 134.000,179.581 134.179,179.362 134.398 C 179.144 134.616,178.491 134.835,177.911 134.883 C 177.332 134.930,176.945 135.112,177.052 135.285 C 177.160 135.458,176.787 135.600,176.224 135.600 C 175.661 135.600,175.200 135.780,175.200 136.000 C 175.200 136.220,174.851 136.400,174.424 136.400 C 173.997 136.400,173.536 136.580,173.400 136.800 C 173.264 137.020,172.713 137.200,172.176 137.200 C 171.639 137.200,171.200 137.380,171.200 137.600 C 171.200 137.820,170.750 138.000,170.200 138.000 C 169.650 138.000,169.200 138.180,169.200 138.400 C 169.200 138.620,168.838 138.800,168.395 138.800 C 167.952 138.800,167.232 138.980,166.795 139.200 C 166.358 139.420,165.642 139.780,165.205 140.000 C 164.768 140.220,164.048 140.400,163.605 140.400 C 163.162 140.400,162.800 140.580,162.800 140.800 C 162.800 141.020,162.451 141.200,162.024 141.200 C 161.597 141.200,161.136 141.380,161.000 141.600 C 160.864 141.820,160.403 142.000,159.976 142.000 C 159.549 142.000,159.200 142.192,159.200 142.427 C 159.200 142.672,158.859 142.746,158.400 142.600 C 157.960 142.460,157.600 142.510,157.600 142.710 C 157.600 142.910,156.835 143.300,155.900 143.577 C 154.965 143.854,153.229 144.522,152.043 145.061 C 150.856 145.600,149.632 145.944,149.322 145.825 C 149.012 145.706,148.852 145.760,148.966 145.945 C 149.151 146.245,146.397 147.303,145.749 147.181 C 145.606 147.154,145.369 147.326,145.222 147.564 C 145.075 147.802,144.470 148.036,143.878 148.085 C 143.285 148.134,142.800 148.296,142.800 148.444 C 142.800 148.592,142.305 148.837,141.700 148.987 C 141.095 149.138,139.970 149.536,139.200 149.872 C 138.430 150.207,137.350 150.664,136.800 150.887 C 136.250 151.111,135.487 151.452,135.105 151.647 C 134.723 151.841,134.048 152.000,133.605 152.000 C 133.162 152.000,132.800 152.180,132.800 152.400 C 132.800 152.620,132.476 152.800,132.080 152.800 C 131.684 152.800,131.181 152.979,130.962 153.198 C 130.744 153.416,130.091 153.635,129.511 153.683 C 128.932 153.730,128.545 153.912,128.652 154.085 C 128.760 154.258,128.564 154.400,128.218 154.400 C 127.872 154.400,127.277 154.559,126.895 154.753 C 125.063 155.685,124.113 156.041,123.293 156.103 C 122.802 156.140,122.400 156.312,122.400 156.485 C 122.400 156.658,122.040 156.800,121.600 156.800 C 121.160 156.800,120.800 156.980,120.800 157.200 C 120.800 157.420,120.350 157.600,119.800 157.600 C 119.250 157.600,118.800 157.780,118.800 158.000 C 118.800 158.220,118.249 158.400,117.576 158.400 C 116.744 158.400,116.445 158.550,116.642 158.868 C 116.835 159.181,116.715 159.253,116.277 159.085 C 115.917 158.947,115.393 159.051,115.112 159.317 C 114.830 159.583,114.240 159.862,113.800 159.938 C 113.360 160.014,112.820 160.206,112.600 160.366 C 112.380 160.525,111.390 160.907,110.400 161.215 C 109.410 161.522,108.150 162.004,107.600 162.285 C 107.050 162.565,106.195 162.796,105.700 162.798 C 105.205 162.799,104.800 162.980,104.800 163.200 C 104.800 163.420,104.528 163.600,104.195 163.600 C 103.862 163.600,103.187 163.808,102.695 164.062 C 100.892 164.994,100.402 165.200,99.986 165.200 C 99.752 165.200,98.869 165.535,98.022 165.944 C 97.176 166.352,95.655 166.932,94.642 167.231 C 93.629 167.530,92.800 167.915,92.800 168.087 C 92.800 168.259,92.361 168.400,91.824 168.400 C 91.287 168.400,90.736 168.580,90.600 168.800 C 90.464 169.020,90.091 169.200,89.772 169.200 C 89.453 169.200,88.338 169.578,87.296 170.040 C 86.253 170.502,85.040 171.018,84.600 171.186 C 82.199 172.107,79.602 173.190,78.705 173.647 C 78.323 173.841,77.659 174.000,77.229 174.000 C 76.799 174.000,76.351 174.155,76.234 174.345 C 76.117 174.535,75.206 174.918,74.210 175.197 C 73.215 175.476,72.400 175.871,72.400 176.076 C 72.400 176.280,72.219 176.335,71.998 176.199 C 71.582 175.942,68.760 176.782,68.392 177.273 C 68.225 177.495,66.654 178.242,65.600 178.601 C 65.490 178.638,65.040 178.805,64.600 178.972 C 64.160 179.139,63.260 179.456,62.600 179.678 C 61.940 179.899,60.950 180.267,60.400 180.494 C 59.850 180.721,59.040 181.045,58.600 181.214 C 58.160 181.382,56.947 181.898,55.904 182.360 C 54.862 182.822,53.647 183.200,53.204 183.200 C 52.762 183.200,52.400 183.380,52.400 183.600 C 52.400 183.820,52.051 184.000,51.624 184.000 C 51.197 184.000,50.736 184.180,50.600 184.400 C 50.464 184.620,49.913 184.800,49.376 184.800 C 48.839 184.800,48.400 184.980,48.400 185.200 C 48.400 185.420,48.051 185.600,47.624 185.600 C 47.197 185.600,46.736 185.780,46.600 186.000 C 46.464 186.220,45.913 186.400,45.376 186.400 C 44.839 186.400,44.400 186.547,44.400 186.728 C 44.400 186.908,43.500 187.300,42.400 187.600 C 41.300 187.900,40.400 188.292,40.400 188.472 C 40.400 188.653,40.068 188.800,39.661 188.800 C 39.255 188.800,38.310 189.115,37.561 189.500 L 36.200 190.200 37.800 190.304 C 44.914 190.767,51.091 195.250,54.785 202.632 C 55.767 204.595,56.615 206.268,56.670 206.351 C 56.724 206.434,58.261 205.922,60.085 205.213 C 61.908 204.504,63.760 203.785,64.200 203.615 C 64.640 203.446,65.450 203.120,66.000 202.891 C 69.095 201.602,77.445 198.397,77.704 198.399 C 77.872 198.399,78.772 198.057,79.704 197.638 C 80.637 197.219,83.830 195.945,86.800 194.808 C 89.770 193.671,92.767 192.484,93.460 192.170 C 94.154 191.857,94.828 191.600,94.958 191.600 C 95.203 191.600,111.159 185.438,114.400 184.092 C 114.950 183.863,116.930 183.099,118.800 182.393 C 120.670 181.687,122.963 180.770,123.896 180.355 C 124.828 179.940,125.717 179.600,125.870 179.600 C 126.023 179.600,130.030 178.079,134.774 176.221 C 139.518 174.362,147.180 171.377,151.800 169.588 C 156.420 167.798,163.350 165.106,167.200 163.605 C 171.050 162.104,178.250 159.314,183.200 157.405 C 198.629 151.455,204.540 149.139,206.296 148.356 C 207.228 147.940,208.138 147.600,208.318 147.600 C 208.498 147.600,210.255 146.947,212.222 146.150 C 214.190 145.352,216.880 144.299,218.200 143.809 C 220.911 142.804,234.174 137.715,235.400 137.209 C 235.840 137.028,237.053 136.502,238.096 136.040 C 239.138 135.578,240.176 135.200,240.401 135.200 C 240.626 135.200,241.123 135.034,241.505 134.830 C 241.887 134.627,244.180 133.710,246.600 132.793 C 249.020 131.875,251.450 130.938,252.000 130.709 C 253.785 129.966,264.353 125.873,278.000 120.639 C 281.850 119.162,285.313 117.784,285.695 117.577 C 286.077 117.370,286.574 117.200,286.799 117.200 C 287.024 117.200,287.972 116.857,288.904 116.438 C 289.837 116.019,293.030 114.748,296.000 113.615 C 298.970 112.482,301.760 111.400,302.200 111.212 C 302.640 111.023,307.050 109.308,312.000 107.401 C 328.801 100.929,331.399 99.926,332.300 99.563 C 332.795 99.363,333.605 99.037,334.100 98.837 C 334.595 98.637,337.880 97.362,341.400 96.004 C 344.920 94.645,348.880 93.109,350.200 92.590 C 351.520 92.071,355.073 90.691,358.097 89.523 C 362.707 87.742,364.901 86.400,363.200 86.400 C 362.980 86.400,362.800 86.040,362.800 85.600 C 362.800 85.160,362.620 84.800,362.400 84.800 C 362.180 84.800,362.000 84.440,362.000 84.000 C 362.000 83.560,361.820 83.200,361.600 83.200 C 361.380 83.200,361.200 83.022,361.200 82.805 C 361.200 82.077,356.836 77.310,354.595 75.590 C 352.804 74.215,348.396 72.400,346.849 72.400 C 345.968 72.400,345.136 72.220,345.000 72.000 C 344.864 71.780,344.234 71.600,343.600 71.600 C 342.966 71.600,342.336 71.780,342.200 72.000 M377.011 162.418 C 377.106 162.572,376.401 162.786,375.443 162.894 C 374.486 163.002,373.112 163.385,372.390 163.745 C 371.668 164.105,370.923 164.400,370.734 164.400 C 370.546 164.400,369.605 164.770,368.644 165.221 C 367.683 165.673,366.527 166.070,366.074 166.104 C 365.620 166.139,365.167 166.483,365.066 166.870 C 364.843 167.722,363.721 168.240,354.800 171.607 C 352.930 172.313,350.637 173.230,349.704 173.645 C 348.772 174.060,347.824 174.400,347.599 174.400 C 347.374 174.400,346.877 174.559,346.495 174.753 C 346.113 174.948,345.305 175.308,344.700 175.553 C 344.095 175.799,343.195 176.166,342.700 176.369 C 342.205 176.572,339.010 177.808,335.600 179.117 C 314.504 187.213,311.968 188.205,310.705 188.847 C 310.323 189.041,309.826 189.200,309.601 189.200 C 309.376 189.200,308.428 189.539,307.496 189.953 C 306.563 190.367,305.170 190.925,304.400 191.193 C 303.630 191.461,302.595 191.843,302.100 192.040 C 301.605 192.238,300.795 192.556,300.300 192.746 C 298.910 193.282,297.498 193.851,296.400 194.320 C 295.451 194.724,281.064 200.261,274.200 202.863 C 272.440 203.530,270.550 204.263,270.000 204.492 C 269.450 204.720,268.640 205.039,268.200 205.200 C 267.760 205.361,266.905 205.697,266.300 205.946 C 265.695 206.196,264.705 206.604,264.100 206.854 C 262.703 207.429,262.145 207.644,258.000 209.200 C 253.712 210.810,253.224 210.998,252.000 211.517 C 251.450 211.750,246.950 213.500,242.000 215.405 C 237.050 217.310,232.640 219.016,232.200 219.195 C 231.760 219.375,230.320 219.920,229.000 220.407 C 227.680 220.894,225.837 221.631,224.904 222.046 C 223.972 222.461,223.024 222.800,222.799 222.800 C 222.574 222.800,222.032 222.980,221.595 223.200 C 221.158 223.420,220.442 223.780,220.005 224.000 C 219.568 224.220,219.026 224.400,218.801 224.400 C 218.576 224.400,217.538 224.778,216.496 225.240 C 214.087 226.307,213.880 226.390,208.600 228.400 C 206.180 229.321,203.840 230.228,203.400 230.415 C 202.960 230.602,199.000 232.126,194.600 233.803 C 190.200 235.479,186.195 237.019,185.700 237.225 C 183.989 237.938,182.990 238.326,180.600 239.207 C 179.280 239.694,177.437 240.431,176.504 240.846 C 175.572 241.261,174.624 241.600,174.399 241.600 C 174.174 241.600,173.632 241.780,173.195 242.000 C 172.758 242.220,172.042 242.580,171.605 242.800 C 171.168 243.020,170.626 243.200,170.401 243.200 C 170.176 243.200,169.228 243.543,168.296 243.963 C 166.752 244.658,162.333 246.375,147.400 252.083 C 144.540 253.176,141.750 254.259,141.200 254.489 C 140.650 254.719,139.750 255.084,139.200 255.300 C 138.650 255.516,137.887 255.852,137.505 256.047 C 137.123 256.241,136.626 256.400,136.401 256.400 C 136.176 256.400,135.228 256.739,134.296 257.153 C 133.363 257.567,131.970 258.125,131.200 258.393 C 130.430 258.661,129.350 259.067,128.800 259.294 C 128.250 259.521,127.395 259.863,126.900 260.054 C 125.949 260.420,124.591 260.960,123.100 261.566 C 122.605 261.767,119.320 263.041,115.800 264.397 C 112.280 265.754,108.320 267.284,107.000 267.798 C 105.680 268.312,102.620 269.485,100.200 270.404 C 97.780 271.323,95.350 272.262,94.800 272.491 C 94.250 272.720,93.350 273.087,92.800 273.307 C 92.250 273.527,91.350 273.887,90.800 274.107 C 89.461 274.642,88.921 274.851,83.800 276.800 C 81.380 277.721,79.040 278.623,78.600 278.804 C 78.160 278.985,77.215 279.372,76.500 279.664 C 74.740 280.383,74.866 280.978,76.900 281.556 C 82.098 283.032,87.105 287.571,90.055 293.482 L 91.842 297.060 94.421 296.138 C 95.839 295.630,97.360 295.045,97.800 294.838 C 98.240 294.630,100.580 293.705,103.000 292.783 C 107.353 291.124,110.749 289.812,122.800 285.133 C 126.210 283.809,129.360 282.587,129.800 282.417 C 130.240 282.246,131.050 281.920,131.600 281.691 C 132.587 281.280,134.286 280.622,152.000 273.799 C 156.950 271.892,161.360 270.184,161.800 270.003 C 162.240 269.822,165.030 268.738,168.000 267.593 C 170.970 266.448,174.163 265.171,175.096 264.756 C 176.028 264.340,176.976 264.000,177.201 264.000 C 177.426 264.000,177.923 263.828,178.305 263.619 C 178.687 263.409,182.150 262.041,186.000 260.579 C 192.684 258.040,208.514 251.910,210.200 251.208 C 210.640 251.024,213.430 249.941,216.400 248.800 C 219.370 247.659,222.160 246.576,222.600 246.392 C 223.040 246.209,227.000 244.670,231.400 242.973 C 235.800 241.275,243.012 238.472,247.426 236.743 C 251.841 235.014,255.578 233.600,255.731 233.600 C 255.884 233.600,256.772 233.260,257.704 232.845 C 258.637 232.429,261.380 231.332,263.800 230.407 C 268.071 228.774,269.011 228.406,270.900 227.630 C 271.395 227.427,275.850 225.707,280.800 223.809 C 285.750 221.912,290.160 220.205,290.600 220.017 C 291.040 219.829,293.380 218.918,295.800 217.993 C 298.220 217.068,300.963 215.971,301.896 215.555 C 302.828 215.140,303.775 214.800,304.000 214.800 C 304.225 214.800,305.172 214.457,306.104 214.037 C 307.037 213.618,309.780 212.523,312.200 211.605 C 314.620 210.687,317.680 209.516,319.000 209.002 C 320.320 208.489,325.180 206.604,329.800 204.814 C 334.420 203.024,338.560 201.406,339.000 201.218 C 339.440 201.029,341.780 200.118,344.200 199.193 C 346.620 198.268,349.363 197.171,350.296 196.755 C 351.228 196.340,352.117 196.000,352.270 196.000 C 352.423 196.000,355.980 194.658,360.174 193.019 C 364.368 191.379,370.680 188.936,374.200 187.590 C 377.720 186.244,381.005 184.975,381.500 184.771 C 381.995 184.567,382.850 184.220,383.400 184.000 C 383.950 183.780,384.805 183.437,385.300 183.237 C 385.795 183.038,388.630 181.941,391.600 180.800 C 398.613 178.106,400.324 177.200,398.400 177.200 C 398.180 177.200,398.000 176.840,398.000 176.400 C 398.000 175.960,397.820 175.600,397.600 175.600 C 397.380 175.600,397.200 175.240,397.200 174.800 C 397.200 174.360,397.020 174.000,396.800 174.000 C 396.580 174.000,396.400 173.736,396.400 173.414 C 396.400 172.550,392.686 168.470,390.200 166.603 C 388.493 165.320,385.277 163.600,384.586 163.600 C 384.264 163.600,384.000 163.457,384.000 163.282 C 384.000 163.107,383.415 162.921,382.700 162.868 C 381.985 162.816,380.374 162.631,379.119 162.456 C 377.865 162.282,376.916 162.265,377.011 162.418 M305.337 228.306 C 305.083 228.468,307.001 228.600,309.599 228.600 C 312.197 228.600,314.239 228.465,314.138 228.300 C 313.899 227.913,305.947 227.919,305.337 228.306 M323.141 230.901 C 323.343 231.103,323.933 231.201,324.454 231.119 C 325.255 230.993,325.198 230.937,324.087 230.752 C 323.293 230.621,322.919 230.679,323.141 230.901 M286.500 234.446 C 285.137 235.319,284.695 235.906,285.900 235.243 C 286.818 234.739,288.256 233.627,288.000 233.619 C 287.890 233.616,287.215 233.988,286.500 234.446 M282.006 237.423 C 280.579 238.400,279.553 239.200,279.727 239.200 C 280.113 239.200,284.800 236.045,284.800 235.785 C 284.800 235.509,284.803 235.508,282.006 237.423 M258.000 249.600 C 257.196 249.857,257.157 249.923,257.800 249.932 C 258.240 249.938,258.960 249.789,259.400 249.600 C 260.419 249.162,259.368 249.162,258.000 249.600 M250.905 250.687 C 251.514 250.779,252.414 250.777,252.905 250.682 C 253.397 250.587,252.900 250.511,251.800 250.514 C 250.700 250.517,250.297 250.595,250.905 250.687 M243.300 251.487 C 243.905 251.578,244.895 251.578,245.500 251.487 C 246.105 251.395,245.610 251.320,244.400 251.320 C 243.190 251.320,242.695 251.395,243.300 251.487 M235.305 252.287 C 235.914 252.379,236.814 252.377,237.305 252.282 C 237.797 252.187,237.300 252.111,236.200 252.114 C 235.100 252.117,234.697 252.195,235.305 252.287 M228.700 253.082 C 229.195 253.178,230.005 253.178,230.500 253.082 C 230.995 252.987,230.590 252.909,229.600 252.909 C 228.610 252.909,228.205 252.987,228.700 253.082 M222.705 253.883 C 223.202 253.979,223.922 253.975,224.305 253.875 C 224.687 253.775,224.280 253.696,223.400 253.701 C 222.520 253.705,222.207 253.787,222.705 253.883 M216.400 254.806 C 215.978 255.082,216.215 255.123,217.200 254.942 C 218.925 254.625,219.251 254.398,217.967 254.406 C 217.435 254.409,216.730 254.589,216.400 254.806 M212.000 255.606 C 211.578 255.882,211.815 255.923,212.800 255.742 C 214.525 255.425,214.851 255.198,213.567 255.206 C 213.035 255.209,212.330 255.389,212.000 255.606 M208.800 256.418 C 208.362 256.715,208.524 256.752,209.400 256.556 C 210.871 256.227,211.190 255.998,210.167 256.006 C 209.745 256.009,209.130 256.195,208.800 256.418 M185.171 266.047 C 182.257 268.054,179.358 270.400,179.792 270.400 C 179.912 270.400,180.954 269.635,182.106 268.700 C 183.258 267.765,185.145 266.396,186.300 265.658 C 188.146 264.479,188.715 264.000,188.271 264.000 C 188.200 264.000,186.805 264.921,185.171 266.047 M173.729 276.500 C 173.284 276.995,172.776 277.670,172.601 278.000 C 172.263 278.637,172.355 278.550,173.976 276.700 C 174.506 276.095,174.849 275.600,174.739 275.600 C 174.629 275.600,174.175 276.005,173.729 276.500 M167.724 289.400 C 167.726 290.720,167.801 291.212,167.890 290.493 C 167.979 289.774,167.977 288.694,167.886 288.093 C 167.795 287.492,167.722 288.080,167.724 289.400 " stroke="none" fill="#db7c4c" fill-rule="evenodd"></path><path id="path1" d="M302.400 229.600 C 302.400 229.820,301.601 230.000,300.624 230.000 C 299.647 230.000,298.736 230.180,298.600 230.400 C 298.464 230.620,297.834 230.800,297.200 230.800 C 296.566 230.800,295.936 230.980,295.800 231.200 C 295.664 231.420,295.113 231.600,294.576 231.600 C 294.039 231.600,293.600 231.780,293.600 232.000 C 293.600 232.220,293.150 232.400,292.600 232.400 C 292.050 232.400,291.600 232.580,291.600 232.800 C 291.600 233.020,291.240 233.200,290.800 233.200 C 290.360 233.200,290.000 233.346,290.000 233.525 C 290.000 233.704,289.370 234.098,288.600 234.400 C 287.830 234.702,287.200 235.096,287.200 235.275 C 287.200 235.454,286.930 235.600,286.600 235.600 C 286.270 235.600,286.000 235.780,286.000 236.000 C 286.000 236.220,285.803 236.400,285.562 236.400 C 285.322 236.400,284.060 237.210,282.758 238.200 C 281.456 239.190,280.295 240.000,280.177 240.000 C 280.060 240.000,278.644 240.891,277.031 241.979 C 270.501 246.385,264.421 249.000,257.600 250.335 C 255.083 250.828,248.788 251.565,238.200 252.608 C 236.880 252.738,234.450 253.014,232.800 253.221 C 231.150 253.428,228.270 253.784,226.400 254.012 C 220.355 254.750,215.650 255.571,208.300 257.170 C 205.181 257.848,199.837 259.445,198.705 260.037 C 198.323 260.237,197.829 260.400,197.607 260.400 C 193.680 260.400,179.635 270.293,174.400 276.746 C 173.630 277.695,172.665 278.861,172.255 279.336 C 170.813 281.006,168.857 285.599,168.603 287.909 C 168.465 289.169,168.148 291.057,167.899 292.103 C 167.555 293.554,167.560 294.120,167.923 294.483 C 168.186 294.746,168.400 295.284,168.400 295.680 C 168.400 296.076,168.580 296.400,168.800 296.400 C 169.020 296.400,169.200 296.771,169.200 297.224 C 169.200 297.677,169.380 297.936,169.600 297.800 C 169.820 297.664,170.000 297.748,170.000 297.987 C 170.000 299.508,179.020 306.118,181.800 306.634 C 182.020 306.675,183.635 307.179,185.389 307.754 C 187.143 308.329,189.157 308.800,189.865 308.800 C 190.573 308.800,191.264 308.980,191.400 309.200 C 191.536 309.420,192.346 309.600,193.200 309.600 C 194.054 309.600,194.864 309.780,195.000 310.000 C 195.136 310.220,195.957 310.400,196.824 310.400 C 197.691 310.400,198.400 310.580,198.400 310.800 C 198.400 311.026,199.533 311.200,201.000 311.200 C 202.467 311.200,203.600 311.374,203.600 311.600 C 203.600 311.829,204.800 312.000,206.400 312.000 C 208.000 312.000,209.200 312.171,209.200 312.400 C 209.200 312.631,210.459 312.800,212.176 312.800 C 213.813 312.800,215.264 312.980,215.400 313.200 C 215.542 313.429,217.612 313.600,220.247 313.600 C 223.212 313.600,224.759 313.742,224.600 314.000 C 224.439 314.260,226.455 314.400,230.353 314.400 C 233.921 314.400,236.453 314.562,236.600 314.800 C 236.762 315.061,248.279 315.200,269.847 315.200 C 291.745 315.200,302.764 315.065,302.600 314.800 C 302.438 314.538,305.188 314.400,310.553 314.400 C 315.588 314.400,318.848 314.246,319.000 314.000 C 319.143 313.768,321.330 313.600,324.200 313.600 C 327.070 313.600,329.257 313.432,329.400 313.200 C 329.536 312.980,331.177 312.800,333.047 312.800 C 335.212 312.800,336.357 312.655,336.200 312.400 C 336.045 312.149,336.921 312.000,338.553 312.000 C 339.983 312.000,341.264 311.820,341.400 311.600 C 341.536 311.380,342.717 311.200,344.024 311.200 C 345.341 311.200,346.400 311.022,346.400 310.800 C 346.400 310.580,347.300 310.400,348.400 310.400 C 349.500 310.400,350.400 310.220,350.400 310.000 C 350.400 309.780,351.120 309.600,352.000 309.600 C 352.952 309.600,353.600 309.411,353.600 309.133 C 353.600 308.877,353.701 308.768,353.825 308.891 C 353.948 309.015,355.058 308.882,356.290 308.596 C 357.522 308.309,358.771 308.167,359.065 308.280 C 359.373 308.399,359.600 308.217,359.600 307.851 C 359.600 307.381,359.912 307.252,360.800 307.355 C 361.579 307.446,362.000 307.316,362.000 306.985 C 362.000 306.681,362.307 306.555,362.759 306.673 C 363.177 306.783,363.987 306.565,364.559 306.190 C 365.132 305.815,365.603 305.664,365.606 305.854 C 365.609 306.044,365.744 306.011,365.906 305.780 C 366.068 305.549,367.264 304.829,368.565 304.180 C 372.607 302.164,373.241 301.774,372.949 301.482 C 372.794 301.327,372.977 301.200,373.357 301.200 C 373.737 301.200,373.936 301.020,373.800 300.800 C 373.664 300.580,373.795 300.400,374.092 300.400 C 375.948 300.400,378.159 289.453,376.420 288.873 C 376.189 288.796,376.000 288.399,376.000 287.990 C 376.000 287.582,375.834 287.145,375.631 287.019 C 375.428 286.894,375.144 286.254,375.000 285.598 C 374.855 284.942,374.437 284.229,374.069 284.015 C 373.701 283.800,373.544 283.619,373.721 283.612 C 373.897 283.605,373.556 283.150,372.962 282.600 C 372.369 282.050,372.021 281.600,372.189 281.600 C 372.357 281.600,371.934 281.026,371.247 280.324 C 370.561 279.622,370.000 278.892,370.000 278.700 C 370.000 278.509,369.820 278.464,369.600 278.600 C 369.380 278.736,369.200 278.586,369.200 278.266 C 369.200 277.712,368.133 277.003,367.500 277.136 C 367.335 277.171,367.200 276.919,367.200 276.576 C 367.200 276.233,367.053 276.044,366.873 276.155 C 366.693 276.266,366.293 276.007,365.985 275.579 C 365.676 275.150,365.289 274.800,365.125 274.800 C 364.960 274.800,363.705 273.720,362.335 272.400 C 360.965 271.080,359.675 270.000,359.469 270.000 C 359.026 270.000,357.600 268.427,357.600 267.939 C 357.600 267.752,357.373 267.600,357.096 267.600 C 356.818 267.600,356.145 267.060,355.600 266.400 C 355.055 265.740,354.482 265.200,354.327 265.200 C 353.849 265.200,351.254 262.635,351.123 262.033 C 351.055 261.722,350.730 261.150,350.400 260.762 C 348.993 259.110,348.800 258.803,348.800 258.217 C 348.800 257.878,348.620 257.600,348.400 257.600 C 348.180 257.600,348.000 257.240,348.000 256.800 C 348.000 256.360,347.820 256.000,347.600 256.000 C 347.380 256.000,347.200 255.680,347.200 255.288 C 347.200 254.897,346.840 254.317,346.400 254.000 C 345.960 253.683,345.600 253.103,345.600 252.712 C 345.600 252.320,345.420 252.000,345.200 252.000 C 344.980 252.000,344.800 251.700,344.800 251.333 C 344.800 250.967,344.685 250.782,344.544 250.923 C 344.202 251.264,342.831 248.701,343.107 248.238 C 343.226 248.039,343.116 248.005,342.862 248.162 C 342.588 248.331,342.400 248.193,342.400 247.824 C 342.400 247.481,342.220 247.200,342.000 247.200 C 341.780 247.200,341.600 246.930,341.600 246.600 C 341.600 246.270,341.390 246.000,341.133 246.000 C 340.877 246.000,340.786 245.881,340.931 245.736 C 341.076 245.591,340.836 245.220,340.397 244.913 C 339.959 244.606,339.600 244.112,339.600 243.816 C 339.600 243.132,331.357 234.800,330.680 234.800 C 330.403 234.800,329.917 234.440,329.600 234.000 C 329.283 233.560,328.838 233.196,328.612 233.191 C 328.385 233.186,327.750 232.830,327.200 232.400 C 326.537 231.881,325.568 231.615,324.324 231.609 C 323.292 231.604,322.336 231.420,322.200 231.200 C 322.064 230.980,321.524 230.800,321.000 230.800 C 320.476 230.800,319.936 230.620,319.800 230.400 C 319.664 230.180,318.933 230.000,318.176 230.000 C 317.419 230.000,316.800 229.820,316.800 229.600 C 316.800 229.348,314.133 229.200,309.600 229.200 C 305.067 229.200,302.400 229.348,302.400 229.600 " stroke="none" fill="#fbce6e" fill-rule="evenodd"></path><path id="path2" d="M357.600 89.660 C 351.298 92.172,349.310 92.951,341.400 96.004 C 337.880 97.362,334.595 98.637,334.100 98.837 C 333.605 99.037,332.795 99.363,332.300 99.563 C 331.399 99.926,328.801 100.929,312.000 107.401 C 307.050 109.308,302.640 111.023,302.200 111.212 C 301.760 111.400,298.970 112.482,296.000 113.615 C 293.030 114.748,289.837 116.019,288.904 116.438 C 287.972 116.857,287.024 117.200,286.799 117.200 C 286.574 117.200,286.077 117.370,285.695 117.577 C 285.313 117.784,281.850 119.162,278.000 120.639 C 264.353 125.873,253.785 129.966,252.000 130.709 C 251.450 130.938,249.020 131.875,246.600 132.793 C 244.180 133.710,241.887 134.627,241.505 134.830 C 241.123 135.034,240.626 135.200,240.401 135.200 C 240.176 135.200,239.138 135.578,238.096 136.040 C 237.053 136.502,235.840 137.028,235.400 137.209 C 234.174 137.715,220.911 142.804,218.200 143.809 C 216.880 144.299,214.190 145.352,212.222 146.150 C 210.255 146.947,208.498 147.600,208.318 147.600 C 208.138 147.600,207.228 147.940,206.296 148.356 C 204.540 149.139,198.629 151.455,183.200 157.405 C 178.250 159.314,171.050 162.104,167.200 163.605 C 163.350 165.106,156.420 167.798,151.800 169.588 C 147.180 171.377,139.518 174.362,134.774 176.221 C 130.030 178.079,126.023 179.600,125.870 179.600 C 125.717 179.600,124.828 179.940,123.896 180.355 C 122.963 180.770,120.670 181.687,118.800 182.393 C 114.382 184.061,113.988 184.213,112.800 184.718 C 110.611 185.648,95.179 191.600,94.958 191.600 C 94.828 191.600,94.154 191.857,93.460 192.170 C 92.767 192.484,89.770 193.671,86.800 194.808 C 83.830 195.945,80.637 197.219,79.704 197.638 C 78.772 198.057,77.872 198.399,77.704 198.399 C 77.537 198.398,75.060 199.314,72.200 200.436 C 69.340 201.557,66.640 202.614,66.200 202.784 C 65.760 202.954,64.950 203.280,64.400 203.508 C 61.045 204.902,56.754 206.480,56.670 206.351 C 56.615 206.268,55.767 204.595,54.785 202.632 C 51.104 195.276,44.549 190.484,38.076 190.418 C 37.128 190.408,36.446 190.249,36.560 190.065 C 36.674 189.880,36.144 189.925,35.384 190.163 C 33.169 190.856,33.726 191.073,38.300 191.300 C 46.091 191.686,51.753 196.284,55.417 205.200 C 56.005 206.630,56.633 208.160,56.813 208.600 C 57.808 211.035,58.430 221.730,57.623 222.537 C 57.390 222.770,57.200 223.363,57.200 223.856 C 57.200 224.349,57.020 224.864,56.800 225.000 C 56.580 225.136,56.400 225.554,56.400 225.929 C 56.400 226.305,55.482 227.746,54.360 229.133 C 52.285 231.698,52.086 232.474,53.701 231.708 C 54.195 231.473,55.230 231.064,56.000 230.800 C 57.693 230.218,59.160 229.629,60.095 229.153 C 60.477 228.959,60.974 228.800,61.199 228.800 C 61.424 228.800,62.372 228.460,63.304 228.044 C 64.237 227.628,67.250 226.442,70.000 225.407 C 72.750 224.372,75.450 223.339,76.000 223.109 C 76.550 222.880,77.450 222.513,78.000 222.293 C 78.550 222.073,79.450 221.713,80.000 221.493 C 80.550 221.273,81.450 220.913,82.000 220.693 C 82.550 220.473,83.450 220.116,84.000 219.900 C 84.550 219.684,85.313 219.348,85.695 219.153 C 86.077 218.959,86.656 218.800,86.982 218.800 C 87.309 218.800,88.217 218.440,89.000 218.000 C 89.783 217.560,90.691 217.200,91.018 217.200 C 91.344 217.200,91.923 217.041,92.305 216.847 C 93.021 216.483,94.646 215.789,96.400 215.100 C 96.950 214.884,97.713 214.548,98.095 214.353 C 98.477 214.159,98.980 214.000,99.214 214.000 C 99.448 214.000,100.331 213.665,101.178 213.256 C 102.024 212.848,103.545 212.268,104.558 211.969 C 105.571 211.670,106.400 211.285,106.400 211.113 C 106.400 210.941,106.738 210.800,107.151 210.800 C 107.837 210.800,108.740 210.481,112.200 209.016 C 112.860 208.736,114.750 208.018,116.400 207.421 C 118.050 206.824,119.805 206.169,120.300 205.967 C 120.795 205.765,121.605 205.444,122.100 205.254 C 123.484 204.721,124.882 204.157,126.200 203.600 C 127.728 202.954,129.181 202.373,130.200 202.000 C 130.640 201.839,131.495 201.503,132.100 201.254 C 134.174 200.399,135.002 200.080,136.400 199.600 C 137.170 199.336,138.205 198.957,138.700 198.760 C 139.195 198.562,140.005 198.244,140.500 198.054 C 142.001 197.476,143.760 196.727,144.495 196.353 C 144.877 196.159,145.374 196.000,145.599 196.000 C 145.824 196.000,146.772 195.659,147.704 195.243 C 148.637 194.826,151.200 193.823,153.400 193.012 C 155.600 192.202,157.760 191.390,158.200 191.208 C 158.640 191.025,160.530 190.302,162.400 189.600 C 166.192 188.177,166.955 187.885,168.400 187.307 C 168.950 187.087,169.850 186.727,170.400 186.507 C 170.950 186.287,171.850 185.927,172.400 185.707 C 174.348 184.928,175.809 184.302,176.495 183.953 C 176.877 183.759,177.428 183.600,177.719 183.600 C 178.011 183.600,178.995 183.240,179.906 182.800 C 180.816 182.360,181.840 182.000,182.181 182.000 C 182.521 182.000,182.800 181.820,182.800 181.600 C 182.800 181.380,183.162 181.200,183.605 181.200 C 184.048 181.200,184.723 181.041,185.105 180.847 C 185.892 180.447,187.806 179.637,189.000 179.200 C 189.440 179.039,190.295 178.703,190.900 178.454 C 193.129 177.535,193.901 177.236,198.800 175.400 C 204.505 173.262,205.026 173.062,206.400 172.492 C 206.950 172.263,208.930 171.502,210.800 170.800 C 215.156 169.165,215.557 169.010,217.000 168.400 C 217.660 168.121,218.560 167.761,219.000 167.600 C 219.440 167.439,220.340 167.079,221.000 166.800 C 221.660 166.521,222.650 166.116,223.200 165.900 C 223.750 165.684,224.513 165.348,224.895 165.153 C 225.277 164.959,225.780 164.800,226.014 164.800 C 226.248 164.800,227.184 164.440,228.094 164.000 C 229.005 163.560,229.989 163.200,230.281 163.200 C 230.572 163.200,231.123 163.041,231.505 162.847 C 232.143 162.522,232.755 162.263,235.300 161.237 C 235.795 161.038,238.900 159.853,242.200 158.604 C 247.988 156.413,248.696 156.138,251.100 155.146 C 251.705 154.897,252.560 154.561,253.000 154.400 C 253.440 154.239,254.295 153.903,254.900 153.654 C 256.984 152.794,257.807 152.475,260.200 151.600 C 263.212 150.498,263.908 150.231,265.400 149.600 C 266.060 149.321,267.005 148.937,267.500 148.746 C 267.995 148.556,268.805 148.244,269.300 148.054 C 270.801 147.476,272.560 146.727,273.295 146.353 C 273.677 146.159,274.174 146.000,274.399 146.000 C 274.624 146.000,275.572 145.653,276.504 145.230 C 277.437 144.806,279.550 143.985,281.200 143.405 C 283.840 142.476,293.022 138.986,295.500 137.969 C 295.995 137.766,296.805 137.444,297.300 137.254 C 297.795 137.063,298.740 136.679,299.400 136.400 C 300.060 136.121,300.960 135.761,301.400 135.600 C 302.594 135.163,304.508 134.353,305.295 133.953 C 305.677 133.759,306.180 133.600,306.414 133.600 C 306.648 133.600,307.584 133.240,308.494 132.800 C 309.405 132.360,310.389 132.000,310.681 132.000 C 310.972 132.000,311.523 131.841,311.905 131.647 C 312.287 131.452,313.140 131.071,313.800 130.800 C 314.460 130.529,315.313 130.148,315.695 129.953 C 316.077 129.759,316.574 129.600,316.799 129.600 C 317.024 129.600,318.062 129.222,319.104 128.760 C 321.551 127.676,322.185 127.427,324.600 126.599 C 325.700 126.222,327.332 125.573,328.226 125.157 C 329.121 124.741,330.068 124.400,330.332 124.400 C 330.595 124.400,331.123 124.241,331.505 124.047 C 332.455 123.564,333.771 123.035,336.600 122.000 C 337.920 121.517,339.405 120.960,339.900 120.761 C 342.219 119.831,343.046 119.484,343.616 119.202 C 343.955 119.035,345.170 118.769,346.316 118.612 C 347.461 118.454,348.500 118.162,348.623 117.963 C 348.746 117.763,349.197 117.600,349.624 117.600 C 350.051 117.600,350.400 117.420,350.400 117.200 C 350.400 116.980,350.762 116.800,351.205 116.800 C 351.648 116.800,352.368 116.620,352.805 116.400 C 353.242 116.180,353.958 115.820,354.395 115.600 C 354.832 115.380,355.462 115.200,355.795 115.200 C 356.128 115.200,356.400 115.050,356.400 114.868 C 356.400 114.685,356.893 114.280,357.495 113.968 C 359.004 113.186,362.000 110.155,362.000 109.411 C 362.000 109.075,362.180 108.800,362.400 108.800 C 362.620 108.800,362.800 108.429,362.800 107.976 C 362.800 107.523,362.980 107.264,363.200 107.400 C 363.427 107.540,363.600 107.204,363.600 106.624 C 363.600 106.061,363.780 105.600,364.000 105.600 C 364.220 105.600,364.400 105.049,364.400 104.376 C 364.400 103.663,364.567 103.256,364.800 103.400 C 365.060 103.561,365.200 101.412,365.200 97.247 C 365.200 93.412,365.040 90.748,364.800 90.600 C 364.580 90.464,364.400 89.843,364.400 89.219 C 364.400 88.215,363.733 87.525,362.867 87.634 C 362.720 87.652,360.350 88.564,357.600 89.660 M364.000 167.368 C 363.450 167.663,359.400 169.287,355.000 170.977 C 350.600 172.668,346.640 174.203,346.200 174.388 C 345.760 174.574,344.590 175.027,343.600 175.396 C 342.610 175.764,341.260 176.300,340.600 176.586 C 339.940 176.872,338.770 177.325,338.000 177.593 C 336.084 178.260,334.620 178.825,331.900 179.946 C 331.295 180.196,330.395 180.567,329.900 180.770 C 329.405 180.974,327.020 181.886,324.600 182.797 C 322.180 183.709,319.633 184.712,318.940 185.027 C 318.246 185.342,317.572 185.600,317.442 185.600 C 317.243 185.600,302.477 191.283,299.700 192.429 C 297.840 193.196,296.910 193.557,293.600 194.800 C 291.730 195.502,289.750 196.263,289.200 196.492 C 288.650 196.720,287.795 197.063,287.300 197.254 C 286.805 197.444,285.905 197.804,285.300 198.054 C 284.695 198.303,283.795 198.663,283.300 198.854 C 282.805 199.044,281.995 199.365,281.500 199.566 C 281.005 199.768,277.900 200.958,274.600 202.211 C 263.976 206.245,256.243 209.258,254.504 210.038 C 253.572 210.457,252.624 210.800,252.399 210.800 C 252.174 210.800,251.677 210.959,251.295 211.153 C 250.032 211.795,250.979 211.425,228.200 220.188 C 223.800 221.881,219.750 223.455,219.200 223.686 C 217.962 224.207,217.441 224.408,213.200 226.000 C 209.256 227.480,208.065 227.959,207.105 228.447 C 206.723 228.641,206.226 228.800,206.001 228.800 C 205.776 228.800,204.738 229.178,203.696 229.640 C 200.913 230.873,200.314 231.107,181.800 238.190 C 177.400 239.873,173.440 241.395,173.000 241.572 C 172.560 241.748,171.750 242.073,171.200 242.293 C 170.650 242.513,169.660 242.921,169.000 243.200 C 167.508 243.831,166.812 244.098,163.800 245.200 C 160.850 246.279,160.076 246.576,158.800 247.117 C 157.909 247.495,150.564 250.335,134.600 256.475 C 131.740 257.574,128.950 258.662,128.400 258.891 C 127.184 259.397,125.706 259.989,124.500 260.454 C 123.642 260.784,122.690 261.162,120.700 261.962 C 120.205 262.161,118.270 262.898,116.400 263.600 C 114.530 264.302,112.550 265.063,112.000 265.292 C 111.450 265.520,110.640 265.848,110.200 266.019 C 97.785 270.864,91.693 273.200,91.470 273.200 C 91.317 273.200,90.428 273.540,89.496 273.955 C 88.563 274.370,86.270 275.287,84.400 275.993 C 80.662 277.404,80.443 277.490,76.106 279.261 C 73.451 280.346,73.873 281.202,77.667 282.421 C 92.209 287.097,98.341 311.141,87.661 321.607 C 86.197 323.041,85.171 324.076,85.380 323.907 C 85.589 323.738,86.129 323.601,86.580 323.602 C 87.457 323.604,91.267 322.365,91.600 321.969 C 91.710 321.838,92.655 321.482,93.700 321.178 C 94.745 320.874,95.600 320.517,95.600 320.385 C 95.600 320.253,96.500 319.900,97.600 319.600 C 98.700 319.300,99.600 318.908,99.600 318.728 C 99.600 318.547,100.039 318.400,100.576 318.400 C 101.113 318.400,101.664 318.220,101.800 318.000 C 101.936 317.780,102.487 317.600,103.024 317.600 C 103.561 317.600,104.000 317.420,104.000 317.200 C 104.000 316.980,104.272 316.800,104.605 316.800 C 104.938 316.800,105.568 316.620,106.005 316.400 C 106.442 316.180,107.158 315.820,107.595 315.600 C 108.032 315.380,108.662 315.200,108.995 315.200 C 109.328 315.200,109.600 315.020,109.600 314.800 C 109.600 314.580,110.140 314.400,110.800 314.400 C 111.460 314.400,112.000 314.220,112.000 314.000 C 112.000 313.780,112.439 313.600,112.976 313.600 C 113.513 313.600,114.064 313.420,114.200 313.200 C 114.336 312.980,114.797 312.800,115.224 312.800 C 115.651 312.800,116.000 312.620,116.000 312.400 C 116.000 312.180,116.585 311.997,117.300 311.994 C 118.286 311.989,118.455 311.894,118.000 311.600 C 117.545 311.306,117.714 311.211,118.700 311.206 C 119.415 311.203,120.000 311.020,120.000 310.800 C 120.000 310.580,120.355 310.400,120.788 310.400 C 121.221 310.400,122.210 310.044,122.985 309.608 C 123.760 309.173,124.889 308.727,125.492 308.618 C 126.713 308.396,128.166 307.876,130.696 306.753 C 131.628 306.339,132.576 306.000,132.801 306.000 C 133.026 306.000,133.523 305.831,133.905 305.624 C 134.287 305.417,135.725 304.833,137.100 304.326 C 138.475 303.819,139.600 303.268,139.600 303.102 C 139.600 302.936,139.873 302.800,140.206 302.800 C 141.176 302.800,144.000 301.834,144.000 301.503 C 144.000 301.336,144.439 301.200,144.976 301.200 C 145.513 301.200,146.064 301.020,146.200 300.800 C 146.336 300.580,146.797 300.400,147.224 300.400 C 147.651 300.400,148.000 300.220,148.000 300.000 C 148.000 299.780,148.362 299.600,148.805 299.600 C 149.248 299.600,149.923 299.441,150.305 299.247 C 150.687 299.052,151.540 298.671,152.200 298.400 C 152.860 298.129,153.713 297.748,154.095 297.553 C 154.477 297.359,155.152 297.200,155.595 297.200 C 156.038 297.200,156.400 297.020,156.400 296.800 C 156.400 296.580,156.850 296.400,157.400 296.400 C 157.950 296.400,158.400 296.220,158.400 296.000 C 158.400 295.780,158.850 295.600,159.400 295.600 C 159.950 295.600,160.400 295.420,160.400 295.200 C 160.400 294.980,160.861 294.800,161.424 294.800 C 162.004 294.800,162.340 294.627,162.200 294.400 C 162.054 294.164,162.497 293.997,163.276 293.994 C 164.278 293.989,164.454 293.893,164.000 293.600 C 163.555 293.312,163.794 293.211,164.929 293.206 C 167.030 293.198,167.600 292.490,167.600 289.888 C 167.600 286.662,169.542 281.638,171.794 279.038 C 172.347 278.399,172.800 277.743,172.800 277.582 C 172.800 277.420,174.783 275.298,177.206 272.865 C 182.874 267.176,188.786 263.227,196.000 260.311 C 196.550 260.089,197.313 259.748,197.695 259.553 C 198.077 259.359,198.741 259.200,199.171 259.200 C 199.601 259.200,200.064 259.020,200.200 258.800 C 200.336 258.580,200.876 258.400,201.400 258.400 C 201.924 258.400,202.464 258.220,202.600 258.000 C 202.736 257.780,203.366 257.600,204.000 257.600 C 204.634 257.600,205.252 257.439,205.374 257.242 C 205.495 257.045,206.271 256.790,207.097 256.675 C 207.924 256.560,209.410 256.258,210.400 256.005 C 212.938 255.355,218.436 254.403,224.200 253.613 C 230.381 252.767,233.822 252.364,244.400 251.247 C 246.490 251.026,250.077 250.645,252.370 250.401 C 259.675 249.622,264.222 248.324,270.200 245.311 C 271.300 244.757,272.604 244.100,273.097 243.852 C 273.590 243.603,273.995 243.265,273.997 243.100 C 273.999 242.935,274.236 242.800,274.525 242.800 C 274.813 242.800,275.398 242.480,275.825 242.089 C 276.251 241.698,277.230 240.942,278.000 240.408 C 278.770 239.875,279.490 239.325,279.600 239.186 C 280.833 237.626,292.178 231.200,293.699 231.200 C 294.084 231.200,294.400 231.020,294.400 230.800 C 294.400 230.580,294.839 230.400,295.376 230.400 C 295.913 230.400,296.464 230.220,296.600 230.000 C 296.736 229.780,297.521 229.600,298.344 229.600 C 299.167 229.600,300.011 229.436,300.220 229.235 C 301.027 228.460,313.451 227.691,314.133 228.373 C 314.368 228.608,315.413 228.800,316.456 228.800 C 317.499 228.800,318.464 228.980,318.600 229.200 C 318.736 229.420,319.341 229.600,319.944 229.600 C 320.547 229.600,321.239 229.799,321.483 230.043 C 322.118 230.678,327.019 231.017,327.369 230.450 C 327.522 230.203,327.997 230.000,328.424 230.000 C 328.851 230.000,329.200 229.820,329.200 229.600 C 329.200 229.380,329.740 229.200,330.400 229.200 C 331.060 229.200,331.600 229.020,331.600 228.800 C 331.600 228.580,331.960 228.400,332.400 228.400 C 332.840 228.400,333.200 228.220,333.200 228.000 C 333.200 227.780,333.751 227.600,334.424 227.600 C 335.137 227.600,335.544 227.433,335.400 227.200 C 335.260 226.974,335.588 226.800,336.153 226.800 C 336.703 226.800,337.264 226.620,337.400 226.400 C 337.536 226.180,338.087 226.000,338.624 226.000 C 339.161 226.000,339.600 225.820,339.600 225.600 C 339.600 225.380,340.050 225.200,340.600 225.200 C 341.150 225.200,341.600 225.050,341.600 224.867 C 341.600 224.683,341.825 224.522,342.100 224.509 C 342.781 224.476,347.287 222.974,349.114 222.171 C 349.931 221.812,350.960 221.381,351.400 221.213 C 351.840 221.045,352.740 220.679,353.400 220.400 C 354.060 220.121,355.050 219.716,355.600 219.500 C 356.150 219.284,356.913 218.948,357.295 218.753 C 357.677 218.559,358.352 218.400,358.795 218.400 C 359.238 218.400,359.600 218.253,359.600 218.072 C 359.600 217.892,360.500 217.500,361.600 217.200 C 362.700 216.900,363.600 216.508,363.600 216.328 C 363.600 216.147,364.039 216.000,364.576 216.000 C 365.113 216.000,365.664 215.820,365.800 215.600 C 365.936 215.380,366.397 215.200,366.824 215.200 C 367.251 215.200,367.600 215.020,367.600 214.800 C 367.600 214.580,368.050 214.400,368.600 214.400 C 369.150 214.400,369.600 214.220,369.600 214.000 C 369.600 213.780,370.050 213.600,370.600 213.600 C 371.150 213.600,371.600 213.420,371.600 213.200 C 371.600 212.980,371.962 212.800,372.405 212.800 C 372.848 212.800,373.568 212.620,374.005 212.400 C 374.442 212.180,375.158 211.820,375.595 211.600 C 376.032 211.380,376.662 211.200,376.995 211.200 C 377.328 211.200,377.600 211.020,377.600 210.800 C 377.600 210.580,378.140 210.400,378.800 210.400 C 379.460 210.400,380.000 210.220,380.000 210.000 C 380.000 209.780,380.360 209.600,380.800 209.600 C 381.240 209.600,381.600 209.437,381.600 209.238 C 381.600 209.038,382.500 208.751,383.600 208.600 C 384.700 208.449,385.600 208.201,385.600 208.050 C 385.600 207.899,386.185 207.555,386.900 207.285 C 387.615 207.015,388.200 206.817,388.200 206.844 C 388.200 206.872,388.875 206.612,389.700 206.268 C 390.525 205.923,391.203 205.767,391.206 205.920 C 391.209 206.074,391.344 206.011,391.506 205.781 C 391.668 205.550,392.430 204.926,393.200 204.394 C 394.921 203.206,397.178 200.776,397.191 200.100 C 397.196 199.825,397.380 199.600,397.600 199.600 C 397.820 199.600,398.000 199.240,398.000 198.800 C 398.000 198.360,398.180 198.000,398.400 198.000 C 398.620 198.000,398.800 197.539,398.800 196.976 C 398.800 196.413,398.965 196.055,399.168 196.180 C 400.328 196.897,400.258 179.800,399.096 178.639 C 398.613 178.156,398.235 178.079,397.716 178.357 C 397.322 178.567,394.570 179.670,391.600 180.807 C 388.630 181.944,385.795 183.038,385.300 183.237 C 384.805 183.437,383.950 183.780,383.400 184.000 C 382.850 184.220,381.995 184.567,381.500 184.771 C 381.005 184.975,377.720 186.244,374.200 187.590 C 370.680 188.936,364.368 191.379,360.174 193.019 C 355.980 194.658,352.423 196.000,352.270 196.000 C 352.117 196.000,351.228 196.340,350.296 196.755 C 349.363 197.171,346.620 198.268,344.200 199.193 C 341.780 200.118,339.440 201.029,339.000 201.218 C 338.560 201.406,334.420 203.024,329.800 204.814 C 325.180 206.604,320.320 208.489,319.000 209.002 C 317.680 209.516,314.620 210.687,312.200 211.605 C 309.780 212.523,307.037 213.618,306.104 214.037 C 305.172 214.457,304.225 214.800,304.000 214.800 C 303.775 214.800,302.828 215.140,301.896 215.555 C 300.963 215.971,298.220 217.068,295.800 217.993 C 293.380 218.918,291.040 219.829,290.600 220.017 C 290.160 220.205,285.750 221.912,280.800 223.809 C 275.850 225.707,271.395 227.427,270.900 227.630 C 269.011 228.406,268.071 228.774,263.800 230.407 C 261.380 231.332,258.637 232.429,257.704 232.845 C 256.772 233.260,255.884 233.600,255.731 233.600 C 255.578 233.600,251.841 235.014,247.426 236.743 C 243.012 238.472,235.800 241.275,231.400 242.973 C 227.000 244.670,223.040 246.209,222.600 246.392 C 222.160 246.576,219.370 247.659,216.400 248.800 C 213.430 249.941,210.640 251.024,210.200 251.208 C 208.514 251.910,192.684 258.040,186.000 260.579 C 182.150 262.041,178.687 263.409,178.305 263.619 C 177.923 263.828,177.426 264.000,177.201 264.000 C 176.976 264.000,176.028 264.340,175.096 264.756 C 174.163 265.171,170.970 266.448,168.000 267.593 C 165.030 268.738,162.240 269.822,161.800 270.003 C 161.360 270.184,156.950 271.892,152.000 273.799 C 135.199 280.271,132.601 281.274,131.700 281.637 C 131.205 281.837,130.395 282.163,129.900 282.363 C 129.041 282.710,121.925 285.477,112.000 289.324 C 109.470 290.304,105.420 291.861,103.000 292.783 C 100.580 293.705,98.240 294.630,97.800 294.838 C 97.360 295.045,95.839 295.630,94.421 296.138 L 91.842 297.060 90.055 293.482 C 87.105 287.571,82.098 283.032,76.900 281.556 C 74.866 280.978,74.740 280.383,76.500 279.664 C 77.215 279.372,78.160 278.985,78.600 278.804 C 79.040 278.623,81.380 277.721,83.800 276.800 C 86.220 275.879,88.605 274.962,89.100 274.762 C 89.595 274.563,90.450 274.220,91.000 274.000 C 91.550 273.780,92.495 273.396,93.100 273.146 C 94.454 272.588,94.740 272.478,100.200 270.404 C 102.620 269.485,105.680 268.312,107.000 267.798 C 108.320 267.284,112.280 265.754,115.800 264.397 C 119.320 263.041,122.605 261.767,123.100 261.566 C 123.595 261.364,124.450 261.020,125.000 260.800 C 125.550 260.580,126.450 260.220,127.000 260.000 C 127.550 259.780,128.405 259.438,128.900 259.240 C 129.395 259.043,130.430 258.661,131.200 258.393 C 131.970 258.125,133.363 257.567,134.296 257.153 C 135.228 256.739,136.176 256.400,136.401 256.400 C 136.626 256.400,137.123 256.241,137.505 256.047 C 137.887 255.852,138.650 255.516,139.200 255.300 C 139.750 255.084,140.650 254.719,141.200 254.489 C 141.750 254.259,144.540 253.176,147.400 252.083 C 162.333 246.375,166.752 244.658,168.296 243.963 C 169.228 243.543,170.176 243.200,170.401 243.200 C 170.626 243.200,171.168 243.020,171.605 242.800 C 172.042 242.580,172.758 242.220,173.195 242.000 C 173.632 241.780,174.174 241.600,174.399 241.600 C 174.624 241.600,175.572 241.261,176.504 240.846 C 177.437 240.431,179.280 239.694,180.600 239.207 C 181.920 238.720,183.450 238.135,184.000 237.907 C 185.835 237.147,186.557 236.867,194.600 233.803 C 199.000 232.126,202.960 230.602,203.400 230.415 C 203.840 230.228,206.180 229.321,208.600 228.400 C 213.880 226.390,214.087 226.307,216.496 225.240 C 217.538 224.778,218.576 224.400,218.801 224.400 C 219.026 224.400,219.568 224.220,220.005 224.000 C 220.442 223.780,221.158 223.420,221.595 223.200 C 222.032 222.980,222.574 222.800,222.799 222.800 C 223.024 222.800,223.972 222.461,224.904 222.046 C 225.837 221.631,227.680 220.894,229.000 220.407 C 230.320 219.920,231.760 219.375,232.200 219.195 C 232.640 219.016,237.050 217.310,242.000 215.405 C 246.950 213.500,251.450 211.750,252.000 211.517 C 253.224 210.998,253.712 210.810,258.000 209.200 C 259.870 208.498,261.850 207.737,262.400 207.508 C 262.950 207.280,263.805 206.937,264.300 206.746 C 264.795 206.556,265.650 206.220,266.200 206.000 C 266.750 205.780,267.605 205.444,268.100 205.254 C 268.595 205.063,269.450 204.720,270.000 204.492 C 270.550 204.263,272.440 203.530,274.200 202.863 C 281.064 200.261,295.451 194.724,296.400 194.320 C 296.950 194.085,297.760 193.761,298.200 193.600 C 298.640 193.439,299.495 193.103,300.100 192.854 C 302.135 192.015,302.993 191.683,304.400 191.193 C 305.170 190.925,306.563 190.367,307.496 189.953 C 308.428 189.539,309.376 189.200,309.601 189.200 C 309.826 189.200,310.323 189.041,310.705 188.847 C 311.968 188.205,314.504 187.213,335.600 179.117 C 339.010 177.808,342.250 176.547,342.800 176.315 C 343.350 176.083,344.250 175.716,344.800 175.500 C 345.350 175.284,346.113 174.948,346.495 174.753 C 346.877 174.559,347.374 174.400,347.599 174.400 C 347.824 174.400,348.772 174.060,349.704 173.645 C 350.637 173.230,352.930 172.313,354.800 171.607 C 356.670 170.901,358.650 170.137,359.200 169.908 C 360.247 169.473,360.955 169.198,363.087 168.397 C 363.794 168.131,364.581 167.663,364.836 167.357 C 365.399 166.678,365.284 166.680,364.000 167.368 M393.802 170.002 C 394.202 170.444,394.611 170.722,394.712 170.621 C 394.928 170.405,393.788 169.200,393.367 169.200 C 393.207 169.200,393.403 169.561,393.802 170.002 " stroke="none" fill="#cc6c34" fill-rule="evenodd"></path><path id="path3" d="M357.200 77.367 C 357.200 77.788,358.405 78.928,358.621 78.712 C 358.722 78.611,358.444 78.202,358.002 77.802 C 357.561 77.403,357.200 77.207,357.200 77.367 M345.600 118.671 C 344.627 118.829,344.307 118.941,341.800 120.000 C 340.308 120.631,339.612 120.898,336.600 122.000 C 333.771 123.035,332.455 123.564,331.505 124.047 C 331.123 124.241,330.595 124.400,330.332 124.400 C 330.068 124.400,329.121 124.741,328.226 125.157 C 327.332 125.573,325.700 126.222,324.600 126.599 C 322.185 127.427,321.551 127.676,319.104 128.760 C 318.062 129.222,317.024 129.600,316.799 129.600 C 316.574 129.600,316.077 129.759,315.695 129.953 C 315.313 130.148,314.460 130.529,313.800 130.800 C 313.140 131.071,312.287 131.452,311.905 131.647 C 311.523 131.841,310.972 132.000,310.681 132.000 C 310.389 132.000,309.405 132.360,308.494 132.800 C 307.584 133.240,306.648 133.600,306.414 133.600 C 306.180 133.600,305.677 133.759,305.295 133.953 C 304.609 134.302,303.148 134.928,301.200 135.707 C 300.650 135.927,299.750 136.287,299.200 136.507 C 298.650 136.727,297.840 137.039,297.400 137.200 C 296.960 137.361,296.150 137.683,295.600 137.916 C 293.551 138.782,284.096 142.386,281.200 143.405 C 279.550 143.985,277.437 144.806,276.504 145.230 C 275.572 145.653,274.624 146.000,274.399 146.000 C 274.174 146.000,273.677 146.159,273.295 146.353 C 272.609 146.702,271.148 147.328,269.200 148.107 C 268.650 148.327,267.750 148.687,267.200 148.907 C 266.650 149.127,265.795 149.463,265.300 149.654 C 264.805 149.844,263.995 150.162,263.500 150.361 C 263.005 150.560,261.520 151.117,260.200 151.600 C 258.880 152.083,257.395 152.640,256.900 152.839 C 256.405 153.038,255.550 153.380,255.000 153.600 C 254.450 153.820,253.505 154.204,252.900 154.454 C 252.295 154.703,251.395 155.063,250.900 155.254 C 250.405 155.444,249.595 155.765,249.100 155.966 C 248.605 156.168,245.500 157.354,242.200 158.604 C 238.900 159.853,235.750 161.062,235.200 161.291 C 234.650 161.520,233.750 161.884,233.200 162.100 C 232.650 162.316,231.887 162.652,231.505 162.847 C 231.123 163.041,230.572 163.200,230.281 163.200 C 229.989 163.200,229.005 163.560,228.094 164.000 C 227.184 164.440,226.248 164.800,226.014 164.800 C 225.780 164.800,225.277 164.959,224.895 165.153 C 224.513 165.348,223.705 165.708,223.100 165.953 C 222.495 166.199,221.505 166.604,220.900 166.854 C 220.295 167.103,219.440 167.439,219.000 167.600 C 218.103 167.929,216.693 168.488,215.200 169.108 C 214.650 169.337,212.670 170.098,210.800 170.800 C 208.930 171.502,206.995 172.239,206.500 172.438 C 206.005 172.637,205.195 172.963,204.700 173.163 C 204.205 173.363,201.550 174.369,198.800 175.400 C 196.050 176.431,193.395 177.437,192.900 177.637 C 192.405 177.837,191.550 178.180,191.000 178.400 C 190.450 178.620,189.505 179.004,188.900 179.254 C 188.295 179.503,187.350 179.884,186.800 180.100 C 186.250 180.316,185.487 180.652,185.105 180.847 C 184.723 181.041,184.048 181.200,183.605 181.200 C 183.162 181.200,182.800 181.380,182.800 181.600 C 182.800 181.820,182.521 182.000,182.181 182.000 C 181.840 182.000,180.816 182.360,179.906 182.800 C 178.995 183.240,178.011 183.600,177.719 183.600 C 177.428 183.600,176.877 183.759,176.495 183.953 C 176.113 184.148,175.350 184.484,174.800 184.700 C 174.250 184.916,173.260 185.321,172.600 185.600 C 171.940 185.879,170.995 186.263,170.500 186.454 C 169.642 186.784,168.690 187.162,166.700 187.962 C 166.205 188.161,164.270 188.898,162.400 189.600 C 160.530 190.302,158.640 191.025,158.200 191.208 C 157.760 191.390,155.600 192.202,153.400 193.012 C 151.200 193.823,148.637 194.826,147.704 195.243 C 146.772 195.659,145.824 196.000,145.599 196.000 C 145.374 196.000,144.877 196.159,144.495 196.353 C 143.708 196.753,141.794 197.563,140.600 198.000 C 140.160 198.161,139.350 198.479,138.800 198.706 C 138.250 198.933,137.170 199.336,136.400 199.600 C 135.630 199.864,134.550 200.267,134.000 200.494 C 133.450 200.721,132.550 201.087,132.000 201.307 C 131.651 201.446,128.349 202.768,128.000 202.907 C 127.450 203.127,126.550 203.487,126.000 203.707 C 125.450 203.927,124.595 204.263,124.100 204.454 C 123.605 204.644,122.795 204.956,122.300 205.146 C 121.805 205.337,120.950 205.682,120.400 205.914 C 119.850 206.145,118.050 206.824,116.400 207.421 C 114.750 208.018,112.860 208.736,112.200 209.016 C 108.740 210.481,107.837 210.800,107.151 210.800 C 106.738 210.800,106.400 210.941,106.400 211.113 C 106.400 211.285,105.571 211.670,104.558 211.969 C 103.545 212.268,102.024 212.848,101.178 213.256 C 100.331 213.665,99.448 214.000,99.214 214.000 C 98.980 214.000,98.477 214.159,98.095 214.353 C 97.713 214.548,96.905 214.908,96.300 215.153 C 95.695 215.399,94.705 215.801,94.100 216.047 C 93.495 216.292,92.687 216.652,92.305 216.847 C 91.923 217.041,91.344 217.200,91.018 217.200 C 90.691 217.200,89.783 217.560,89.000 218.000 C 88.217 218.440,87.309 218.800,86.982 218.800 C 86.656 218.800,86.077 218.959,85.695 219.153 C 85.045 219.484,84.247 219.821,81.800 220.800 C 81.250 221.020,80.350 221.380,79.800 221.600 C 79.250 221.820,78.350 222.180,77.800 222.400 C 77.250 222.620,76.395 222.963,75.900 223.163 C 75.405 223.363,72.750 224.372,70.000 225.407 C 67.250 226.442,64.237 227.628,63.304 228.044 C 62.372 228.460,61.424 228.800,61.199 228.800 C 60.974 228.800,60.477 228.959,60.095 229.153 C 59.160 229.629,57.693 230.218,56.000 230.800 C 55.230 231.064,54.195 231.473,53.701 231.708 C 52.086 232.474,52.285 231.698,54.360 229.133 C 55.482 227.746,56.400 226.305,56.400 225.929 C 56.400 225.554,56.580 225.136,56.800 225.000 C 57.020 224.864,57.200 224.349,57.200 223.856 C 57.200 223.363,57.390 222.770,57.623 222.537 C 58.430 221.730,57.808 211.035,56.813 208.600 C 56.633 208.160,56.005 206.630,55.417 205.200 C 51.775 196.337,46.095 191.699,38.400 191.302 C 36.014 191.179,34.073 190.894,33.906 190.643 C 33.701 190.334,33.610 190.352,33.606 190.700 C 33.603 190.975,33.150 191.200,32.600 191.200 C 32.050 191.200,31.600 191.380,31.600 191.600 C 31.600 191.820,31.264 192.000,30.854 192.000 C 30.007 192.000,24.271 194.763,24.067 195.269 C 23.993 195.451,23.628 195.600,23.255 195.600 C 22.882 195.600,22.317 195.960,22.000 196.400 C 21.683 196.840,21.215 197.200,20.960 197.200 C 20.705 197.200,19.755 197.920,18.848 198.800 C 17.941 199.680,17.054 200.400,16.878 200.400 C 16.376 200.400,13.869 202.851,12.787 204.400 C 12.249 205.170,11.310 206.323,10.701 206.963 C 10.091 207.603,9.683 208.217,9.794 208.327 C 9.904 208.438,9.636 208.780,9.197 209.087 C 8.759 209.394,8.400 209.955,8.400 210.334 C 8.400 210.713,8.040 211.283,7.600 211.600 C 7.160 211.917,6.800 212.497,6.800 212.888 C 6.800 213.280,6.620 213.600,6.400 213.600 C 6.180 213.600,6.000 213.960,6.000 214.400 C 6.000 214.840,5.820 215.200,5.600 215.200 C 5.380 215.200,5.200 215.560,5.200 216.000 C 5.200 216.440,5.020 216.800,4.800 216.800 C 4.580 216.800,4.400 217.160,4.400 217.600 C 4.400 218.040,4.220 218.400,4.000 218.400 C 3.780 218.400,3.600 218.940,3.600 219.600 C 3.600 220.260,3.420 220.800,3.200 220.800 C 2.980 220.800,2.800 221.340,2.800 222.000 C 2.800 222.660,2.620 223.200,2.400 223.200 C 2.180 223.200,2.000 223.740,2.000 224.400 C 2.000 225.060,1.820 225.600,1.600 225.600 C 1.380 225.600,1.200 226.305,1.200 227.167 C 1.200 228.064,0.987 228.805,0.700 228.900 C -0.029 229.143,-0.029 260.857,0.700 261.100 C 0.985 261.195,1.200 261.931,1.200 262.810 C 1.200 263.658,1.380 264.464,1.600 264.600 C 1.820 264.736,2.000 265.546,2.000 266.400 C 2.000 267.254,2.180 268.064,2.400 268.200 C 2.620 268.336,2.800 268.977,2.800 269.624 C 2.800 270.271,2.980 270.800,3.200 270.800 C 3.420 270.800,3.600 271.340,3.600 272.000 C 3.600 272.660,3.780 273.200,4.000 273.200 C 4.220 273.200,4.400 273.650,4.400 274.200 C 4.400 274.750,4.580 275.200,4.800 275.200 C 5.020 275.200,5.200 275.740,5.200 276.400 C 5.200 277.060,5.380 277.600,5.600 277.600 C 5.820 277.600,6.000 278.140,6.000 278.800 C 6.000 279.460,6.180 280.000,6.400 280.000 C 6.620 280.000,6.800 280.360,6.800 280.800 C 6.800 281.240,6.980 281.600,7.200 281.600 C 7.420 281.600,7.600 281.960,7.600 282.400 C 7.600 282.840,7.780 283.200,8.000 283.200 C 8.220 283.200,8.400 283.740,8.400 284.400 C 8.400 285.060,8.580 285.600,8.800 285.600 C 9.020 285.600,9.200 285.807,9.200 286.060 C 9.200 286.806,11.262 290.800,11.647 290.800 C 11.841 290.800,12.000 291.160,12.000 291.600 C 12.000 292.040,12.180 292.400,12.400 292.400 C 12.620 292.400,12.800 292.678,12.800 293.017 C 12.800 293.356,13.160 294.020,13.600 294.492 C 14.040 294.964,14.400 295.587,14.400 295.875 C 14.400 296.164,14.580 296.400,14.800 296.400 C 15.020 296.400,15.200 296.625,15.201 296.900 C 15.201 297.175,15.741 298.030,16.400 298.800 C 17.059 299.570,17.599 300.337,17.599 300.504 C 17.600 300.671,18.140 301.372,18.800 302.063 C 19.460 302.754,20.000 303.484,20.000 303.685 C 20.000 303.887,20.900 304.929,22.000 306.000 C 23.100 307.071,24.000 308.060,24.000 308.196 C 24.000 308.704,32.734 316.800,33.282 316.800 C 33.461 316.800,34.172 317.340,34.863 318.000 C 35.554 318.660,36.362 319.200,36.659 319.200 C 36.957 319.200,37.200 319.358,37.200 319.551 C 37.200 319.745,37.740 320.127,38.400 320.400 C 39.060 320.673,39.600 321.055,39.600 321.249 C 39.600 321.442,39.945 321.600,40.367 321.600 C 40.788 321.600,41.193 321.744,41.267 321.920 C 41.486 322.446,46.485 324.705,48.100 325.008 C 48.925 325.163,49.600 325.449,49.600 325.645 C 49.600 325.840,50.320 326.000,51.200 326.000 C 52.080 326.000,52.800 326.180,52.800 326.400 C 52.800 326.620,53.520 326.800,54.400 326.800 C 55.280 326.800,56.000 326.980,56.000 327.200 C 56.000 327.425,57.125 327.600,58.576 327.600 C 59.993 327.600,61.264 327.780,61.400 328.000 C 61.728 328.531,69.600 328.531,69.600 328.000 C 69.600 327.771,70.800 327.600,72.400 327.600 C 74.000 327.600,75.200 327.429,75.200 327.200 C 75.200 326.980,76.100 326.800,77.200 326.800 C 78.300 326.800,79.200 326.620,79.200 326.400 C 79.200 326.180,79.740 326.000,80.400 326.000 C 81.060 326.000,81.600 325.844,81.600 325.654 C 81.600 325.464,82.367 325.204,83.305 325.075 C 85.602 324.760,88.273 323.639,86.780 323.616 C 86.219 323.607,85.589 323.738,85.380 323.907 C 85.171 324.076,86.197 323.041,87.661 321.607 C 98.341 311.141,92.209 287.097,77.667 282.421 C 73.873 281.202,73.451 280.346,76.106 279.261 C 80.443 277.490,80.662 277.404,84.400 275.993 C 86.270 275.287,88.563 274.370,89.496 273.955 C 90.428 273.540,91.317 273.200,91.470 273.200 C 91.693 273.200,97.785 270.864,110.200 266.019 C 110.640 265.848,111.450 265.520,112.000 265.292 C 112.550 265.063,114.530 264.302,116.400 263.600 C 119.787 262.329,120.611 262.008,122.700 261.146 C 123.305 260.897,124.160 260.561,124.600 260.400 C 125.040 260.239,125.940 259.879,126.600 259.600 C 127.260 259.321,128.160 258.954,128.600 258.784 C 129.040 258.614,131.740 257.574,134.600 256.475 C 154.647 248.765,158.725 247.187,160.400 246.493 C 160.950 246.265,162.480 245.683,163.800 245.200 C 165.120 244.717,166.650 244.135,167.200 243.907 C 168.452 243.389,169.931 242.796,171.100 242.346 C 171.595 242.156,172.405 241.831,172.900 241.625 C 173.395 241.419,177.400 239.873,181.800 238.190 C 200.314 231.107,200.913 230.873,203.696 229.640 C 204.738 229.178,205.776 228.800,206.001 228.800 C 206.226 228.800,206.723 228.641,207.105 228.447 C 208.065 227.959,209.256 227.480,213.200 226.000 C 217.441 224.408,217.962 224.207,219.200 223.686 C 219.750 223.455,223.800 221.881,228.200 220.188 C 250.979 211.425,250.032 211.795,251.295 211.153 C 251.677 210.959,252.174 210.800,252.399 210.800 C 252.624 210.800,253.572 210.457,254.504 210.038 C 256.243 209.258,263.976 206.245,274.600 202.211 C 281.596 199.554,281.821 199.467,283.400 198.800 C 284.060 198.521,285.005 198.137,285.500 197.946 C 286.358 197.616,287.310 197.238,289.300 196.438 C 289.795 196.239,291.730 195.502,293.600 194.800 C 296.910 193.557,297.840 193.196,299.700 192.429 C 302.477 191.283,317.243 185.600,317.442 185.600 C 317.572 185.600,318.246 185.342,318.940 185.027 C 319.633 184.712,322.180 183.709,324.600 182.797 C 327.020 181.886,329.450 180.949,330.000 180.717 C 330.550 180.484,331.405 180.137,331.900 179.946 C 332.395 179.756,333.250 179.420,333.800 179.200 C 334.350 178.980,335.205 178.638,335.700 178.440 C 336.195 178.243,337.230 177.861,338.000 177.593 C 338.770 177.325,339.940 176.872,340.600 176.586 C 341.260 176.300,342.610 175.764,343.600 175.396 C 344.590 175.027,345.760 174.574,346.200 174.388 C 346.640 174.203,350.600 172.667,355.000 170.976 C 365.458 166.958,366.721 166.187,364.800 165.000 C 364.580 164.864,364.400 164.313,364.400 163.776 C 364.400 163.239,364.220 162.800,364.000 162.800 C 363.780 162.800,363.600 162.350,363.600 161.800 C 363.600 161.250,363.420 160.800,363.200 160.800 C 362.980 160.800,362.800 160.451,362.800 160.024 C 362.800 159.597,362.620 159.136,362.400 159.000 C 362.180 158.864,362.000 158.313,362.000 157.776 C 362.000 157.239,361.820 156.800,361.600 156.800 C 361.380 156.800,361.200 156.440,361.200 156.000 C 361.200 155.560,361.020 155.200,360.800 155.200 C 360.580 155.200,360.400 154.660,360.400 154.000 C 360.400 153.340,360.220 152.800,360.000 152.800 C 359.780 152.800,359.600 152.438,359.600 151.995 C 359.600 151.552,359.436 150.877,359.235 150.495 C 358.926 149.905,357.526 146.214,357.379 145.600 C 357.259 145.102,356.708 143.737,356.371 143.105 C 356.167 142.723,356.000 142.138,356.000 141.805 C 356.000 141.472,355.820 141.200,355.600 141.200 C 355.380 141.200,355.200 140.660,355.200 140.000 C 355.200 139.340,355.053 138.800,354.872 138.800 C 354.692 138.800,354.300 137.900,354.000 136.800 C 353.700 135.700,353.308 134.800,353.128 134.800 C 352.947 134.800,352.800 134.361,352.800 133.824 C 352.800 133.287,352.620 132.736,352.400 132.600 C 352.180 132.464,352.000 132.003,352.000 131.576 C 352.000 131.149,351.820 130.800,351.600 130.800 C 351.380 130.800,351.200 130.361,351.200 129.824 C 351.200 129.287,351.020 128.736,350.800 128.600 C 350.580 128.464,350.400 128.003,350.400 127.576 C 350.400 127.149,350.220 126.800,350.000 126.800 C 349.780 126.800,349.600 126.350,349.600 125.800 C 349.600 125.250,349.420 124.800,349.200 124.800 C 348.980 124.800,348.800 124.361,348.800 123.824 C 348.800 123.287,348.620 122.736,348.400 122.600 C 348.180 122.464,348.000 122.003,348.000 121.576 C 348.000 121.149,347.820 120.800,347.600 120.800 C 347.380 120.800,347.200 120.260,347.200 119.600 C 347.200 118.940,347.065 118.425,346.900 118.454 C 346.735 118.484,346.150 118.582,345.600 118.671 " stroke="none" fill="#ac5c2c" fill-rule="evenodd"></path><path id="path4" d="M303.800 228.797 C 298.619 229.515,297.574 229.719,297.367 230.053 C 297.249 230.244,296.801 230.400,296.371 230.400 C 295.941 230.400,295.277 230.559,294.895 230.753 C 294.513 230.948,293.750 231.285,293.200 231.503 C 289.296 233.049,282.947 236.919,277.583 241.022 C 273.947 243.805,268.200 246.864,264.076 248.213 C 262.917 248.592,262.054 248.988,262.159 249.092 C 262.864 249.798,271.724 245.561,277.031 241.979 C 278.644 240.891,280.060 240.000,280.177 240.000 C 280.295 240.000,281.456 239.190,282.758 238.200 C 284.060 237.210,285.322 236.400,285.562 236.400 C 285.803 236.400,286.000 236.220,286.000 236.000 C 286.000 235.780,286.270 235.600,286.600 235.600 C 286.930 235.600,287.200 235.454,287.200 235.275 C 287.200 235.096,287.830 234.702,288.600 234.400 C 289.370 234.098,290.000 233.704,290.000 233.525 C 290.000 233.346,290.360 233.200,290.800 233.200 C 291.240 233.200,291.600 233.020,291.600 232.800 C 291.600 232.580,292.050 232.400,292.600 232.400 C 293.150 232.400,293.600 232.220,293.600 232.000 C 293.600 231.780,294.039 231.600,294.576 231.600 C 295.113 231.600,295.664 231.420,295.800 231.200 C 295.936 230.980,296.566 230.800,297.200 230.800 C 297.834 230.800,298.464 230.620,298.600 230.400 C 298.736 230.180,299.647 230.000,300.624 230.000 C 301.601 230.000,302.400 229.820,302.400 229.600 C 302.400 229.348,305.067 229.200,309.600 229.200 C 314.133 229.200,316.800 229.348,316.800 229.600 C 316.800 229.820,317.419 230.000,318.176 230.000 C 318.933 230.000,319.664 230.180,319.800 230.400 C 319.936 230.620,320.476 230.800,321.000 230.800 C 321.524 230.800,322.064 230.980,322.200 231.200 C 322.336 231.420,323.112 231.575,323.924 231.546 C 325.029 231.505,325.149 231.445,324.400 231.307 C 323.850 231.206,323.220 230.993,323.000 230.834 C 322.780 230.674,321.790 230.313,320.800 230.030 C 319.810 229.748,318.577 229.351,318.061 229.149 C 316.760 228.640,306.722 228.392,303.800 228.797 M259.400 249.600 L 258.600 249.944 259.400 249.944 C 259.840 249.944,260.560 249.789,261.000 249.600 L 261.800 249.256 261.000 249.256 C 260.560 249.256,259.840 249.411,259.400 249.600 M254.600 250.400 C 253.453 250.692,253.471 250.706,255.000 250.725 C 255.880 250.735,256.960 250.589,257.400 250.400 C 258.453 249.947,256.379 249.947,254.600 250.400 M247.800 251.200 L 246.200 251.486 248.000 251.520 C 248.990 251.539,250.520 251.405,251.400 251.223 L 253.000 250.892 251.200 250.903 C 250.210 250.909,248.680 251.042,247.800 251.200 M239.800 252.000 L 237.800 252.274 240.000 252.308 C 241.210 252.326,243.010 252.197,244.000 252.020 L 245.800 251.700 243.800 251.713 C 242.700 251.720,240.900 251.849,239.800 252.000 M232.600 252.800 L 231.000 253.086 233.000 253.096 C 234.100 253.101,235.540 252.968,236.200 252.800 C 237.855 252.379,234.951 252.379,232.600 252.800 M226.200 253.600 L 224.600 253.886 226.600 253.896 C 227.700 253.901,229.140 253.768,229.800 253.600 C 231.455 253.179,228.551 253.179,226.200 253.600 M217.400 254.852 C 212.436 255.736,209.314 256.557,212.400 256.167 C 213.390 256.042,215.100 255.776,216.200 255.574 C 217.300 255.373,219.444 255.028,220.964 254.807 C 222.484 254.587,223.819 254.315,223.930 254.203 C 224.314 253.819,221.792 254.070,217.400 254.852 M208.400 256.682 C 198.757 258.349,186.652 264.360,179.055 271.254 C 174.463 275.421,168.039 284.172,168.923 285.056 C 169.024 285.157,169.643 284.106,170.299 282.720 C 170.955 281.334,171.832 279.811,172.246 279.336 C 172.661 278.861,173.630 277.695,174.400 276.746 C 179.635 270.293,193.680 260.400,197.607 260.400 C 197.829 260.400,198.323 260.238,198.705 260.041 C 199.087 259.844,200.750 259.284,202.400 258.797 C 204.050 258.311,205.813 257.752,206.319 257.556 C 206.824 257.360,207.724 257.197,208.319 257.194 C 208.913 257.191,209.670 257.013,210.000 256.800 C 210.674 256.364,210.367 256.342,208.400 256.682 M168.276 286.410 C 168.130 286.955,168.031 288.300,168.056 289.400 L 168.101 291.400 168.444 288.800 C 168.807 286.041,168.717 284.760,168.276 286.410 " stroke="none" fill="#e09c4f" fill-rule="evenodd"></path></g></svg>