<svg id="svg" version="1.1" xmlns="http://www.w3.org/2000/svg" xmlns:xlink="http://www.w3.org/1999/xlink" width="400" height="400" viewBox="0, 0, 400,400"><g id="svgg"><path id="path0" d="M299.000 18.800 C 298.864 19.020,297.784 19.200,296.600 19.200 C 295.416 19.200,294.336 19.380,294.200 19.600 C 294.064 19.820,293.153 20.000,292.176 20.000 C 291.199 20.000,290.400 20.180,290.400 20.400 C 290.400 20.620,289.601 20.800,288.624 20.800 C 287.647 20.800,286.736 20.980,286.600 21.200 C 286.464 21.420,285.823 21.600,285.176 21.600 C 284.529 21.600,284.000 21.780,284.000 22.000 C 284.000 22.220,283.460 22.400,282.800 22.400 C 282.140 22.400,281.600 22.580,281.600 22.800 C 281.600 23.020,281.060 23.200,280.400 23.200 C 279.740 23.200,279.200 23.380,279.200 23.600 C 279.200 23.820,278.559 24.000,277.776 24.000 C 276.929 24.000,276.453 24.162,276.600 24.400 C 276.740 24.627,276.404 24.800,275.824 24.800 C 275.261 24.800,274.800 24.999,274.800 25.243 C 274.800 25.486,274.519 25.578,274.175 25.446 C 273.831 25.314,273.044 25.467,272.425 25.787 C 271.807 26.107,271.189 26.255,271.051 26.117 C 270.913 25.979,270.800 26.060,270.800 26.296 C 270.800 26.533,269.900 26.957,268.800 27.239 C 267.700 27.521,266.800 27.897,266.800 28.076 C 266.800 28.254,266.528 28.400,266.195 28.400 C 265.862 28.400,265.277 28.561,264.895 28.758 C 264.513 28.955,262.940 29.719,261.400 30.456 C 259.860 31.193,258.540 31.932,258.467 32.098 C 258.393 32.264,257.988 32.400,257.567 32.400 C 257.145 32.400,256.800 32.580,256.800 32.800 C 256.800 33.020,256.440 33.200,256.000 33.200 C 255.560 33.200,255.200 33.380,255.200 33.600 C 255.200 33.820,254.840 34.000,254.400 34.000 C 253.960 34.000,253.600 34.180,253.600 34.400 C 253.600 34.620,253.240 34.800,252.800 34.800 C 252.360 34.800,252.000 34.980,252.000 35.200 C 252.000 35.420,251.722 35.600,251.383 35.600 C 251.044 35.600,250.380 35.960,249.908 36.400 C 249.436 36.840,248.813 37.200,248.525 37.200 C 248.236 37.200,248.000 37.380,248.000 37.600 C 248.000 37.820,247.640 38.000,247.200 38.000 C 246.760 38.000,246.400 38.180,246.400 38.400 C 246.400 38.620,246.164 38.800,245.875 38.800 C 245.587 38.800,244.964 39.160,244.492 39.600 C 244.020 40.040,243.356 40.400,243.017 40.400 C 242.678 40.400,242.400 40.580,242.400 40.800 C 242.400 41.020,242.130 41.200,241.800 41.200 C 241.470 41.200,241.200 41.380,241.200 41.600 C 241.200 41.820,240.938 42.000,240.618 42.000 C 240.089 42.000,237.721 43.383,236.515 44.396 C 236.248 44.620,235.573 45.012,235.015 45.266 C 234.457 45.520,234.000 45.880,234.000 46.064 C 234.000 46.249,233.764 46.400,233.475 46.400 C 233.187 46.400,232.564 46.760,232.092 47.200 C 231.620 47.640,231.080 48.000,230.892 48.000 C 230.704 48.000,230.202 48.315,229.775 48.700 C 229.349 49.085,228.501 49.657,227.892 49.972 C 227.077 50.393,226.905 50.657,227.242 50.972 C 227.569 51.278,227.752 51.257,227.883 50.900 C 227.984 50.625,228.372 50.400,228.745 50.400 C 229.118 50.400,229.683 50.040,230.000 49.600 C 230.317 49.160,230.882 48.800,231.255 48.800 C 231.628 48.800,231.993 48.647,232.067 48.461 C 232.140 48.274,233.370 47.552,234.800 46.856 C 236.230 46.160,238.300 45.057,239.400 44.404 C 247.513 39.590,261.965 33.414,271.200 30.814 C 272.190 30.535,273.450 30.167,274.000 29.996 C 274.550 29.825,275.990 29.492,277.200 29.256 C 278.410 29.020,279.940 28.717,280.600 28.583 C 288.711 26.937,300.691 26.843,305.600 28.386 C 306.150 28.559,307.590 28.926,308.800 29.202 C 310.010 29.478,311.180 29.830,311.400 29.986 C 311.620 30.142,312.880 30.686,314.200 31.196 C 324.228 35.070,333.122 46.359,335.824 58.643 C 337.555 66.509,338.210 78.655,337.212 84.376 C 336.999 85.599,336.631 87.950,336.395 89.600 C 335.392 96.602,333.680 103.464,330.007 115.200 C 329.426 117.057,327.782 121.258,327.153 122.495 C 326.959 122.877,326.800 123.374,326.800 123.599 C 326.800 123.990,326.228 125.348,324.191 129.800 C 323.687 130.900,322.885 132.700,322.409 133.800 C 321.524 135.840,315.642 147.587,314.374 149.847 C 313.989 150.532,312.937 152.306,312.037 153.788 C 311.137 155.269,310.400 156.643,310.400 156.841 C 310.400 157.038,310.241 157.200,310.047 157.200 C 309.852 157.200,309.590 157.515,309.464 157.900 C 308.428 161.066,295.928 178.953,286.644 190.556 C 273.399 207.108,253.385 227.181,239.599 237.739 C 238.395 238.661,235.388 241.012,234.801 241.490 C 232.561 243.314,216.995 254.000,216.579 254.000 C 216.438 254.000,215.846 254.339,215.262 254.753 C 214.678 255.167,213.570 255.864,212.800 256.302 C 208.244 258.892,208.253 258.880,209.529 260.738 C 209.930 261.322,210.547 262.430,210.900 263.200 C 214.223 270.451,216.266 275.201,217.437 278.400 C 218.203 280.490,219.003 282.513,219.215 282.895 C 219.427 283.277,219.600 283.864,219.600 284.200 C 219.600 284.536,219.762 285.123,219.961 285.505 C 220.160 285.887,220.546 287.010,220.819 288.000 C 221.092 288.990,221.584 290.610,221.913 291.600 C 222.241 292.590,222.665 294.165,222.855 295.100 C 223.045 296.035,223.387 297.655,223.616 298.700 C 225.214 305.993,225.711 310.374,225.806 318.000 L 225.892 325.000 234.246 325.105 C 243.991 325.227,256.931 324.380,257.780 323.565 C 257.989 323.364,259.204 323.200,260.480 323.200 C 261.760 323.200,262.800 323.021,262.800 322.800 C 262.800 322.580,263.599 322.400,264.576 322.400 C 265.553 322.400,266.464 322.220,266.600 322.000 C 266.736 321.780,267.546 321.600,268.400 321.600 C 269.254 321.600,270.064 321.420,270.200 321.200 C 270.336 320.980,271.056 320.800,271.800 320.800 C 272.544 320.800,273.264 320.620,273.400 320.400 C 273.536 320.180,274.177 320.000,274.824 320.000 C 275.471 320.000,276.000 319.820,276.000 319.600 C 276.000 319.380,276.720 319.200,277.600 319.200 C 278.480 319.200,279.200 319.020,279.200 318.800 C 279.200 318.580,279.740 318.400,280.400 318.400 C 281.060 318.400,281.600 318.220,281.600 318.000 C 281.600 317.780,282.140 317.600,282.800 317.600 C 283.460 317.600,284.000 317.420,284.000 317.200 C 284.000 316.980,284.540 316.800,285.200 316.800 C 285.860 316.800,286.400 316.620,286.400 316.400 C 286.400 316.180,286.940 316.000,287.600 316.000 C 288.260 316.000,288.800 315.820,288.800 315.600 C 288.800 315.380,289.162 315.200,289.605 315.200 C 290.383 315.200,290.769 315.058,292.695 314.062 C 293.187 313.808,293.862 313.600,294.195 313.600 C 294.528 313.600,294.800 313.420,294.800 313.200 C 294.800 312.980,295.340 312.800,296.000 312.800 C 296.660 312.800,297.200 312.620,297.200 312.400 C 297.200 312.180,297.560 312.000,298.000 312.000 C 298.440 312.000,298.800 311.820,298.800 311.600 C 298.800 311.380,299.160 311.200,299.600 311.200 C 300.040 311.200,300.400 311.020,300.400 310.800 C 300.400 310.580,300.760 310.400,301.200 310.400 C 301.640 310.400,302.000 310.220,302.000 310.000 C 302.000 309.780,302.450 309.600,303.000 309.600 C 303.550 309.600,304.000 309.420,304.000 309.200 C 304.000 308.980,304.320 308.800,304.712 308.800 C 305.533 308.800,312.534 305.261,312.733 304.745 C 312.807 304.555,313.212 304.400,313.633 304.400 C 314.055 304.400,314.400 304.220,314.400 304.000 C 314.400 303.780,314.760 303.600,315.200 303.600 C 315.640 303.600,316.000 303.420,316.000 303.200 C 316.000 302.980,316.236 302.800,316.525 302.800 C 316.813 302.800,317.436 302.440,317.908 302.000 C 318.380 301.560,319.044 301.200,319.383 301.200 C 319.722 301.200,320.000 301.020,320.000 300.800 C 320.000 300.580,320.236 300.400,320.525 300.400 C 320.813 300.400,321.398 300.085,321.825 299.700 C 322.251 299.315,323.095 298.745,323.700 298.432 C 324.305 298.120,324.800 297.715,324.800 297.532 C 324.800 297.350,325.030 297.200,325.312 297.200 C 325.593 297.200,326.083 296.840,326.400 296.400 C 326.717 295.960,327.257 295.600,327.600 295.600 C 327.943 295.600,328.483 295.240,328.800 294.800 C 329.117 294.360,329.625 294.000,329.928 294.000 C 330.231 294.000,330.983 293.460,331.600 292.800 C 332.217 292.140,332.966 291.600,333.265 291.600 C 333.564 291.600,334.256 291.190,334.804 290.689 C 335.352 290.187,336.428 289.335,337.196 288.793 C 338.956 287.552,340.224 286.435,343.429 283.300 C 344.835 281.925,346.130 280.800,346.308 280.800 C 346.746 280.800,353.241 274.381,356.200 271.024 C 357.520 269.526,359.185 267.699,359.900 266.964 C 360.615 266.228,361.200 265.442,361.200 265.215 C 361.200 264.989,362.100 263.885,363.200 262.761 C 364.300 261.638,365.200 260.539,365.200 260.320 C 365.200 260.101,365.740 259.417,366.400 258.800 C 367.060 258.183,367.600 257.481,367.600 257.240 C 367.600 256.998,367.741 256.800,367.914 256.800 C 368.086 256.800,368.521 256.305,368.879 255.700 C 369.237 255.095,369.996 254.060,370.565 253.400 C 371.134 252.740,371.599 251.975,371.600 251.700 C 371.600 251.425,371.758 251.200,371.951 251.200 C 372.145 251.200,372.527 250.660,372.800 250.000 C 373.073 249.340,373.428 248.800,373.588 248.800 C 373.748 248.800,374.203 248.080,374.600 247.200 C 374.997 246.320,375.474 245.600,375.661 245.600 C 375.847 245.600,376.000 245.240,376.000 244.800 C 376.000 244.360,376.180 244.000,376.400 244.000 C 376.620 244.000,376.800 243.640,376.800 243.200 C 376.800 242.760,376.980 242.400,377.200 242.400 C 377.420 242.400,377.600 242.212,377.600 241.983 C 377.600 241.754,377.960 241.180,378.400 240.708 C 378.840 240.236,379.200 239.613,379.200 239.325 C 379.200 239.036,379.380 238.800,379.600 238.800 C 379.820 238.800,380.000 238.440,380.000 238.000 C 380.000 237.560,380.180 237.200,380.400 237.200 C 380.620 237.200,380.800 236.840,380.800 236.400 C 380.800 235.960,380.980 235.600,381.200 235.600 C 381.420 235.600,381.600 235.240,381.600 234.800 C 381.600 234.360,381.780 234.000,382.000 234.000 C 382.220 234.000,382.404 233.775,382.409 233.500 C 382.414 233.225,382.770 232.550,383.200 232.000 C 383.630 231.450,383.986 230.595,383.991 230.100 C 383.996 229.605,384.180 229.200,384.400 229.200 C 384.620 229.200,384.800 228.840,384.800 228.400 C 384.800 227.960,384.980 227.600,385.200 227.600 C 385.420 227.600,385.600 227.240,385.600 226.800 C 385.600 226.360,385.780 226.000,386.000 226.000 C 386.220 226.000,386.400 225.640,386.400 225.200 C 386.400 224.760,386.580 224.400,386.800 224.400 C 387.020 224.400,387.200 224.128,387.200 223.795 C 387.200 223.462,387.365 222.877,387.567 222.495 C 388.452 220.821,389.600 217.960,389.600 217.428 C 389.600 217.109,389.780 216.736,390.000 216.600 C 390.220 216.464,390.400 215.913,390.400 215.376 C 390.400 214.839,390.563 214.400,390.762 214.400 C 390.962 214.400,391.249 213.500,391.400 212.400 C 391.551 211.300,391.838 210.400,392.038 210.400 C 392.237 210.400,392.400 209.860,392.400 209.200 C 392.400 208.540,392.580 208.000,392.800 208.000 C 393.020 208.000,393.200 207.370,393.200 206.600 C 393.200 205.830,393.380 205.200,393.600 205.200 C 393.820 205.200,394.000 204.660,394.000 204.000 C 394.000 203.340,394.180 202.800,394.400 202.800 C 394.620 202.800,394.800 202.080,394.800 201.200 C 394.800 200.320,394.980 199.600,395.200 199.600 C 395.420 199.600,395.600 198.880,395.600 198.000 C 395.600 197.120,395.780 196.400,396.000 196.400 C 396.220 196.400,396.400 195.680,396.400 194.800 C 396.400 193.920,396.580 193.200,396.800 193.200 C 397.020 193.200,397.200 192.401,397.200 191.424 C 397.200 190.447,397.380 189.536,397.600 189.400 C 397.820 189.264,398.000 188.274,398.000 187.200 C 398.000 186.126,398.180 185.136,398.400 185.000 C 398.620 184.864,398.800 183.719,398.800 182.456 C 398.800 181.153,399.016 179.944,399.300 179.660 C 399.688 179.272,399.800 174.275,399.800 157.400 C 399.800 140.526,399.688 135.528,399.300 135.140 C 398.998 134.838,398.800 133.563,398.800 131.920 C 398.800 130.373,398.627 129.200,398.400 129.200 C 398.180 129.200,398.000 128.210,398.000 127.000 C 398.000 125.790,397.820 124.800,397.600 124.800 C 397.380 124.800,397.200 124.080,397.200 123.200 C 397.200 122.320,397.020 121.600,396.800 121.600 C 396.580 121.600,396.400 120.700,396.400 119.600 C 396.400 118.500,396.220 117.600,396.000 117.600 C 395.780 117.600,395.600 116.880,395.600 116.000 C 395.600 115.120,395.420 114.400,395.200 114.400 C 394.980 114.400,394.800 113.590,394.800 112.600 C 394.800 111.610,394.620 110.800,394.400 110.800 C 394.180 110.800,394.000 110.260,394.000 109.600 C 394.000 108.940,393.820 108.400,393.600 108.400 C 393.380 108.400,393.200 107.860,393.200 107.200 C 393.200 106.540,393.020 106.000,392.800 106.000 C 392.580 106.000,392.400 105.460,392.400 104.800 C 392.400 104.140,392.220 103.600,392.000 103.600 C 391.780 103.600,391.600 103.156,391.600 102.614 C 391.600 101.674,390.792 98.825,389.980 96.900 C 389.771 96.405,389.399 95.505,389.153 94.900 C 388.908 94.295,388.548 93.487,388.353 93.105 C 388.159 92.723,388.000 92.138,388.000 91.805 C 388.000 91.472,387.820 91.200,387.600 91.200 C 387.380 91.200,387.200 90.851,387.200 90.424 C 387.200 89.997,387.020 89.536,386.800 89.400 C 386.580 89.264,386.400 88.713,386.400 88.176 C 386.400 87.639,386.220 87.200,386.000 87.200 C 385.780 87.200,385.600 86.840,385.600 86.400 C 385.600 85.960,385.420 85.600,385.200 85.600 C 384.980 85.600,384.800 85.240,384.800 84.800 C 384.800 84.360,384.620 84.000,384.400 84.000 C 384.180 84.000,384.000 83.640,384.000 83.200 C 384.000 82.760,383.820 82.400,383.600 82.400 C 383.380 82.400,383.200 82.040,383.200 81.600 C 383.200 81.160,383.020 80.800,382.800 80.800 C 382.580 80.800,382.400 80.440,382.400 80.000 C 382.400 79.560,382.220 79.200,382.000 79.200 C 381.780 79.200,381.600 78.840,381.600 78.400 C 381.600 77.960,381.420 77.600,381.200 77.600 C 380.980 77.600,380.800 77.330,380.800 77.000 C 380.800 76.670,380.620 76.400,380.400 76.400 C 380.180 76.400,380.000 76.040,380.000 75.600 C 380.000 75.160,379.820 74.800,379.600 74.800 C 379.380 74.800,379.200 74.480,379.200 74.088 C 379.200 73.697,378.840 73.117,378.400 72.800 C 377.960 72.483,377.600 71.903,377.600 71.512 C 377.600 71.120,377.420 70.800,377.200 70.800 C 376.980 70.800,376.800 70.564,376.800 70.275 C 376.800 69.987,376.469 69.396,376.065 68.962 C 375.661 68.528,375.207 67.684,375.057 67.087 C 374.907 66.489,374.608 66.000,374.392 66.000 C 374.177 66.000,374.000 65.764,374.000 65.475 C 374.000 65.187,373.685 64.602,373.300 64.175 C 372.915 63.749,372.345 62.905,372.032 62.300 C 371.720 61.695,371.315 61.200,371.132 61.200 C 370.950 61.200,370.800 61.009,370.800 60.777 C 370.800 60.313,368.616 57.385,367.500 56.353 C 367.115 55.997,366.800 55.502,366.800 55.254 C 366.800 55.005,366.080 54.059,365.200 53.152 C 364.320 52.245,363.600 51.331,363.600 51.120 C 363.600 50.910,362.880 50.046,362.000 49.200 C 361.120 48.354,360.400 47.469,360.400 47.231 C 360.400 46.994,360.220 46.800,360.000 46.800 C 359.780 46.800,359.600 46.519,359.600 46.176 C 359.600 45.833,359.420 45.664,359.200 45.800 C 358.980 45.936,358.800 45.828,358.800 45.561 C 358.800 44.973,343.938 30.205,342.685 29.547 C 342.198 29.292,341.655 28.838,341.478 28.538 C 340.979 27.692,336.908 24.800,336.217 24.800 C 335.878 24.800,335.600 24.620,335.600 24.400 C 335.600 24.180,335.240 24.000,334.800 24.000 C 334.360 24.000,334.000 23.820,334.000 23.600 C 334.000 23.380,333.640 23.200,333.200 23.200 C 332.760 23.200,332.400 23.020,332.400 22.800 C 332.400 22.580,332.040 22.400,331.600 22.400 C 331.160 22.400,330.800 22.220,330.800 22.000 C 330.800 21.780,330.451 21.600,330.024 21.600 C 329.597 21.600,329.136 21.420,329.000 21.200 C 328.864 20.980,328.313 20.800,327.776 20.800 C 327.239 20.800,326.800 20.620,326.800 20.400 C 326.800 20.180,326.001 20.000,325.024 20.000 C 324.047 20.000,323.136 19.820,323.000 19.600 C 322.864 19.380,321.953 19.200,320.976 19.200 C 319.999 19.200,319.200 19.020,319.200 18.800 C 319.200 18.544,315.608 18.400,309.224 18.400 C 303.004 18.400,299.154 18.551,299.000 18.800 M40.397 157.900 C 40.396 158.065,39.723 158.650,38.903 159.200 C 36.303 160.943,34.000 163.044,34.000 163.673 C 34.000 163.850,32.920 165.092,31.600 166.432 C 30.280 167.773,29.200 169.048,29.200 169.266 C 29.200 169.484,28.465 170.369,27.567 171.231 C 26.669 172.094,26.052 172.800,26.196 172.800 C 26.340 172.800,26.173 173.085,25.825 173.432 C 25.477 173.780,25.275 174.197,25.375 174.359 C 25.475 174.522,25.207 174.907,24.779 175.215 C 24.350 175.524,24.000 175.967,24.000 176.200 C 24.000 176.433,23.640 176.883,23.200 177.200 C 22.760 177.517,22.400 178.025,22.400 178.328 C 22.400 178.631,21.860 179.383,21.200 180.000 C 20.540 180.617,20.000 181.369,20.000 181.672 C 20.000 181.975,19.640 182.483,19.200 182.800 C 18.760 183.117,18.400 183.697,18.400 184.088 C 18.400 184.480,18.220 184.800,18.000 184.800 C 17.780 184.800,17.600 185.160,17.600 185.600 C 17.600 186.040,17.420 186.400,17.200 186.400 C 16.980 186.400,16.800 186.760,16.800 187.200 C 16.800 187.640,16.642 188.000,16.449 188.000 C 16.255 188.000,15.873 188.540,15.600 189.200 C 15.327 189.860,14.945 190.400,14.751 190.400 C 14.558 190.400,14.400 190.760,14.400 191.200 C 14.400 191.640,14.220 192.000,14.000 192.000 C 13.780 192.000,13.600 192.270,13.600 192.600 C 13.600 192.930,13.420 193.200,13.200 193.200 C 12.980 193.200,12.800 193.560,12.800 194.000 C 12.800 194.440,12.620 194.800,12.400 194.800 C 12.180 194.800,12.000 195.036,12.000 195.325 C 12.000 195.614,11.640 196.595,11.200 197.506 C 10.760 198.416,10.400 199.440,10.400 199.781 C 10.400 200.121,10.220 200.400,10.000 200.400 C 9.780 200.400,9.600 200.749,9.600 201.176 C 9.600 201.603,9.417 202.066,9.193 202.204 C 8.970 202.342,8.883 202.610,9.000 202.800 C 9.117 202.990,9.030 203.258,8.807 203.396 C 8.583 203.534,8.400 203.997,8.400 204.424 C 8.400 204.851,8.220 205.200,8.000 205.200 C 7.780 205.200,7.600 205.729,7.600 206.376 C 7.600 207.023,7.420 207.664,7.200 207.800 C 6.980 207.936,6.800 208.577,6.800 209.224 C 6.800 209.871,6.620 210.400,6.400 210.400 C 6.180 210.400,6.000 210.940,6.000 211.600 C 6.000 212.260,5.820 212.800,5.600 212.800 C 5.380 212.800,5.200 213.340,5.200 214.000 C 5.200 214.660,5.020 215.200,4.800 215.200 C 4.580 215.200,4.400 215.740,4.400 216.400 C 4.400 217.060,4.220 217.600,4.000 217.600 C 3.780 217.600,3.600 218.320,3.600 219.200 C 3.600 220.080,3.420 220.800,3.200 220.800 C 2.980 220.800,2.800 221.700,2.800 222.800 C 2.800 223.900,2.620 224.800,2.400 224.800 C 2.180 224.800,2.000 225.430,2.000 226.200 C 2.000 226.970,1.820 227.600,1.600 227.600 C 1.379 227.600,1.200 228.640,1.200 229.920 C 1.200 231.243,0.985 232.455,0.700 232.740 C -0.029 233.469,-0.029 272.057,0.700 272.300 C 1.018 272.406,1.200 273.256,1.200 274.633 C 1.200 275.825,1.380 276.800,1.600 276.800 C 1.820 276.800,2.000 277.779,2.000 278.976 C 2.000 280.173,2.180 281.264,2.400 281.400 C 2.620 281.536,2.800 282.177,2.800 282.824 C 2.800 283.471,2.980 284.000,3.200 284.000 C 3.420 284.000,3.600 284.720,3.600 285.600 C 3.600 286.480,3.780 287.200,4.000 287.200 C 4.220 287.200,4.400 287.819,4.400 288.576 C 4.400 289.333,4.580 290.064,4.800 290.200 C 5.020 290.336,5.200 290.887,5.200 291.424 C 5.200 291.961,5.380 292.400,5.600 292.400 C 5.820 292.400,6.000 292.940,6.000 293.600 C 6.000 294.260,6.180 294.800,6.400 294.800 C 6.620 294.800,6.800 295.340,6.800 296.000 C 6.800 296.660,6.980 297.200,7.200 297.200 C 7.420 297.200,7.600 297.560,7.600 298.000 C 7.600 298.440,7.760 298.800,7.956 298.800 C 8.152 298.800,8.402 299.385,8.512 300.100 C 8.621 300.815,8.804 301.773,8.919 302.228 C 9.231 303.471,12.111 309.380,12.479 309.533 C 12.656 309.607,12.800 310.012,12.800 310.433 C 12.800 310.855,12.980 311.200,13.200 311.200 C 13.420 311.200,13.600 311.560,13.600 312.000 C 13.600 312.440,13.780 312.800,14.000 312.800 C 14.220 312.800,14.400 313.160,14.400 313.600 C 14.400 314.040,14.580 314.400,14.800 314.400 C 15.020 314.400,15.200 314.760,15.200 315.200 C 15.200 315.640,15.380 316.000,15.600 316.000 C 15.820 316.000,16.000 316.320,16.000 316.712 C 16.000 317.103,16.360 317.683,16.800 318.000 C 17.240 318.317,17.600 318.897,17.600 319.288 C 17.600 319.680,17.780 320.000,18.000 320.000 C 18.220 320.000,18.400 320.236,18.400 320.525 C 18.400 320.813,18.760 321.436,19.200 321.908 C 19.640 322.380,20.000 322.952,20.000 323.179 C 20.000 323.565,20.746 324.600,21.900 325.816 C 22.175 326.106,22.400 326.550,22.400 326.803 C 22.400 327.056,23.075 327.928,23.900 328.741 C 24.725 329.553,25.459 330.483,25.532 330.805 C 25.605 331.128,25.875 331.526,26.132 331.690 C 26.389 331.854,26.425 331.991,26.211 331.994 C 25.997 331.997,26.222 332.280,26.711 332.623 C 27.200 332.965,27.600 333.470,27.600 333.744 C 27.600 334.568,42.654 350.400,43.437 350.400 C 43.555 350.400,44.529 351.300,45.600 352.400 C 46.671 353.500,47.705 354.400,47.896 354.400 C 48.087 354.400,48.931 355.030,49.772 355.800 C 50.613 356.570,51.430 357.200,51.589 357.200 C 51.748 357.200,52.293 357.560,52.800 358.000 C 53.307 358.440,54.015 358.800,54.373 358.800 C 54.731 358.800,55.283 359.160,55.600 359.600 C 55.917 360.040,56.457 360.400,56.800 360.400 C 57.143 360.400,57.683 360.760,58.000 361.200 C 58.317 361.640,58.767 362.000,59.000 362.000 C 59.233 362.000,59.683 362.360,60.000 362.800 C 60.317 363.240,60.897 363.600,61.288 363.600 C 61.680 363.600,62.000 363.780,62.000 364.000 C 62.000 364.220,62.320 364.400,62.712 364.400 C 63.103 364.400,63.683 364.760,64.000 365.200 C 64.317 365.640,64.897 366.000,65.288 366.000 C 65.680 366.000,66.000 366.180,66.000 366.400 C 66.000 366.620,66.360 366.800,66.800 366.800 C 67.240 366.800,67.600 366.980,67.600 367.200 C 67.600 367.420,67.960 367.600,68.400 367.600 C 68.840 367.600,69.200 367.780,69.200 368.000 C 69.200 368.220,69.560 368.400,70.000 368.400 C 70.440 368.400,70.800 368.580,70.800 368.800 C 70.800 369.020,71.160 369.200,71.600 369.200 C 72.040 369.200,72.400 369.380,72.400 369.600 C 72.400 369.820,72.760 370.000,73.200 370.000 C 73.640 370.000,74.000 370.180,74.000 370.400 C 74.000 370.620,74.360 370.800,74.800 370.800 C 75.240 370.800,75.600 370.980,75.600 371.200 C 75.600 371.420,75.949 371.600,76.376 371.600 C 76.803 371.600,77.264 371.780,77.400 372.000 C 77.536 372.220,77.997 372.400,78.424 372.400 C 78.851 372.400,79.200 372.580,79.200 372.800 C 79.200 373.020,79.549 373.200,79.976 373.200 C 80.403 373.200,80.864 373.380,81.000 373.600 C 81.136 373.820,81.687 374.000,82.224 374.000 C 82.761 374.000,83.200 374.163,83.200 374.362 C 83.200 374.562,84.100 374.849,85.200 375.000 C 86.300 375.151,87.200 375.438,87.200 375.638 C 87.200 375.837,87.740 376.000,88.400 376.000 C 89.060 376.000,89.600 376.180,89.600 376.400 C 89.600 376.620,90.230 376.800,91.000 376.800 C 91.770 376.800,92.400 376.980,92.400 377.200 C 92.400 377.420,92.940 377.600,93.600 377.600 C 94.260 377.600,94.800 377.780,94.800 378.000 C 94.800 378.220,95.509 378.400,96.376 378.400 C 97.243 378.400,98.064 378.580,98.200 378.800 C 98.336 379.020,99.247 379.200,100.224 379.200 C 101.201 379.200,102.000 379.380,102.000 379.600 C 102.000 379.820,102.900 380.000,104.000 380.000 C 105.100 380.000,106.000 380.180,106.000 380.400 C 106.000 380.620,106.979 380.800,108.176 380.800 C 109.373 380.800,110.464 380.980,110.600 381.200 C 110.736 381.420,112.176 381.600,113.800 381.600 C 115.424 381.600,116.864 381.780,117.000 382.000 C 117.156 382.252,121.737 382.400,129.424 382.400 C 137.275 382.400,141.600 382.258,141.600 382.000 C 141.600 381.772,142.792 381.600,144.376 381.600 C 145.903 381.600,147.264 381.420,147.400 381.200 C 147.536 380.980,148.706 380.800,150.000 380.800 C 151.294 380.800,152.464 380.620,152.600 380.400 C 152.736 380.180,153.827 380.000,155.024 380.000 C 156.221 380.000,157.200 379.820,157.200 379.600 C 157.200 379.380,157.729 379.200,158.376 379.200 C 159.023 379.200,159.664 379.020,159.800 378.800 C 159.936 378.580,160.667 378.400,161.424 378.400 C 162.181 378.400,162.800 378.220,162.800 378.000 C 162.800 377.780,163.520 377.600,164.400 377.600 C 165.280 377.600,166.000 377.420,166.000 377.200 C 166.000 376.980,166.720 376.800,167.600 376.800 C 168.480 376.800,169.200 376.620,169.200 376.400 C 169.200 376.180,169.650 376.000,170.200 376.000 C 170.750 376.000,171.200 375.840,171.200 375.645 C 171.200 375.450,172.006 375.170,172.991 375.022 C 173.976 374.875,174.864 374.620,174.965 374.456 C 175.067 374.292,176.061 373.910,177.175 373.607 C 178.289 373.304,179.200 372.908,179.200 372.728 C 179.200 372.547,179.555 372.400,179.988 372.400 C 180.421 372.400,181.417 372.040,182.200 371.600 C 182.983 371.160,183.889 370.800,184.212 370.800 C 184.535 370.800,184.800 370.620,184.800 370.400 C 184.800 370.180,185.160 370.000,185.600 370.000 C 186.040 370.000,186.400 369.820,186.400 369.600 C 186.400 369.380,186.760 369.200,187.200 369.200 C 187.640 369.200,188.001 369.065,188.001 368.900 C 188.002 368.735,188.992 368.150,190.200 367.600 C 191.408 367.050,192.398 366.465,192.399 366.300 C 192.399 366.135,192.720 366.000,193.112 366.000 C 193.503 366.000,194.083 365.640,194.400 365.200 C 194.717 364.760,195.214 364.400,195.505 364.400 C 195.796 364.400,196.420 364.040,196.892 363.600 C 197.364 363.160,197.987 362.800,198.275 362.800 C 198.564 362.800,198.800 362.620,198.800 362.400 C 198.800 362.180,199.120 362.000,199.512 362.000 C 199.903 362.000,200.483 361.640,200.800 361.200 C 201.117 360.760,201.657 360.400,202.000 360.400 C 202.343 360.400,202.883 360.040,203.200 359.600 C 203.517 359.160,204.028 358.800,204.335 358.800 C 204.643 358.800,205.473 358.305,206.180 357.700 C 206.886 357.095,207.979 356.199,208.608 355.709 C 209.237 355.219,209.617 354.684,209.454 354.521 C 209.290 354.357,209.031 354.420,208.878 354.661 C 208.725 354.902,207.976 355.235,207.213 355.401 C 206.450 355.566,205.550 355.838,205.213 356.004 C 199.593 358.777,192.780 359.691,183.000 358.986 C 181.020 358.843,179.229 358.563,179.020 358.363 C 178.811 358.163,177.787 358.000,176.744 358.000 C 175.701 358.000,174.736 357.820,174.600 357.600 C 174.464 357.380,173.744 357.200,173.000 357.200 C 172.256 357.200,171.536 357.020,171.400 356.800 C 171.264 356.580,170.711 356.400,170.171 356.400 C 169.631 356.400,168.877 356.241,168.495 356.046 C 168.113 355.851,166.540 355.301,165.000 354.823 C 159.771 353.200,156.653 351.907,149.400 348.353 C 144.816 346.107,142.435 344.835,142.000 344.400 C 141.800 344.200,138.990 342.669,137.303 341.840 C 136.810 341.598,136.405 341.265,136.403 341.100 C 136.401 340.935,136.208 340.800,135.973 340.800 C 135.285 340.800,121.417 331.281,119.363 329.400 C 119.123 329.180,118.334 328.550,117.610 328.000 C 116.886 327.450,115.912 326.665,115.447 326.255 C 114.981 325.845,113.972 325.035,113.206 324.455 C 112.439 323.875,111.233 322.860,110.527 322.200 C 109.821 321.540,109.004 320.820,108.711 320.600 C 105.090 317.882,90.405 303.271,84.590 296.600 C 83.056 294.840,81.572 293.159,81.294 292.865 C 81.016 292.571,80.298 291.671,79.698 290.865 C 79.099 290.059,78.335 289.130,78.000 288.800 C 77.665 288.470,76.901 287.541,76.302 286.735 C 75.702 285.929,74.980 285.029,74.697 284.735 C 74.414 284.441,72.586 282.040,70.634 279.400 C 68.683 276.760,66.572 273.936,65.943 273.123 C 65.314 272.311,64.800 271.542,64.800 271.413 C 64.800 271.284,63.180 268.758,61.200 265.800 C 59.220 262.842,57.600 260.236,57.600 260.011 C 57.600 259.785,57.441 259.600,57.247 259.600 C 57.052 259.600,56.793 259.285,56.671 258.900 C 56.454 258.215,55.196 255.996,54.800 255.600 C 54.690 255.490,54.309 254.860,53.952 254.200 C 53.596 253.540,52.764 252.010,52.103 250.800 C 49.410 245.867,46.000 238.854,46.000 238.247 C 46.000 237.891,45.820 237.600,45.600 237.600 C 45.380 237.600,45.200 237.240,45.200 236.800 C 45.200 236.360,45.020 236.000,44.800 236.000 C 44.580 236.000,44.400 235.651,44.400 235.224 C 44.400 234.797,44.220 234.336,44.000 234.200 C 43.780 234.064,43.600 233.603,43.600 233.176 C 43.600 232.749,43.420 232.400,43.200 232.400 C 42.980 232.400,42.800 232.051,42.800 231.624 C 42.800 231.197,42.620 230.736,42.400 230.600 C 42.180 230.464,42.000 229.913,42.000 229.376 C 42.000 228.839,41.820 228.400,41.600 228.400 C 41.380 228.400,41.200 228.038,41.200 227.595 C 41.200 227.152,41.041 226.477,40.847 226.095 C 40.652 225.713,40.271 224.860,40.000 224.200 C 39.729 223.540,39.348 222.687,39.153 222.305 C 38.959 221.923,38.800 221.259,38.800 220.829 C 38.800 220.399,38.620 219.936,38.400 219.800 C 38.180 219.664,38.000 219.111,38.000 218.571 C 38.000 218.031,37.838 217.277,37.641 216.895 C 37.116 215.878,35.729 210.968,35.186 208.200 C 34.926 206.880,34.559 205.350,34.369 204.800 C 33.213 201.451,32.381 182.130,33.207 177.800 C 34.199 172.606,34.551 171.270,35.853 167.775 C 36.596 165.782,37.699 163.352,38.304 162.375 C 38.909 161.399,39.659 160.105,39.970 159.500 C 40.281 158.895,40.685 158.400,40.868 158.400 C 41.050 158.400,41.200 158.220,41.200 158.000 C 41.200 157.780,41.020 157.600,40.800 157.600 C 40.580 157.600,40.399 157.735,40.397 157.900 M210.813 353.491 C 210.289 354.082,210.303 354.123,210.946 353.876 C 211.342 353.724,211.741 353.600,211.833 353.600 C 211.925 353.600,212.000 353.420,212.000 353.200 C 212.000 352.612,211.481 352.739,210.813 353.491 " stroke="none" fill="#946751" fill-rule="evenodd"></path><path id="path1" d="M289.600 27.995 C 288.610 28.185,286.921 28.354,285.846 28.370 C 284.772 28.387,283.242 28.572,282.446 28.782 C 281.651 28.992,279.560 29.433,277.800 29.762 C 267.834 31.621,250.272 38.579,239.800 44.817 C 238.700 45.472,236.720 46.571,235.400 47.260 C 234.080 47.948,231.698 49.390,230.107 50.464 C 226.199 53.100,223.444 54.533,223.273 54.018 C 223.076 53.427,222.400 53.497,222.400 54.109 C 222.400 54.389,221.725 54.972,220.900 55.404 C 220.075 55.836,219.109 56.506,218.753 56.894 C 218.397 57.283,217.973 57.600,217.811 57.600 C 217.648 57.600,216.833 58.140,216.000 58.800 C 215.167 59.460,214.329 60.000,214.138 60.000 C 213.948 60.000,213.307 60.450,212.713 61.000 C 212.120 61.550,211.468 62.000,211.264 62.000 C 211.060 62.000,210.243 62.720,209.448 63.600 C 208.653 64.479,207.781 65.244,207.511 65.300 C 207.240 65.355,206.353 66.075,205.541 66.900 C 204.728 67.725,203.904 68.400,203.709 68.400 C 203.515 68.400,202.235 69.480,200.865 70.800 C 199.495 72.120,198.207 73.200,198.002 73.200 C 196.886 73.200,170.800 99.371,170.800 100.490 C 170.800 100.685,169.720 101.904,168.400 103.200 C 167.080 104.496,166.000 105.760,166.000 106.009 C 166.000 106.259,165.280 107.154,164.400 108.000 C 163.520 108.846,162.800 109.665,162.800 109.822 C 162.800 109.978,162.470 110.397,162.066 110.753 C 161.662 111.109,160.663 112.356,159.845 113.525 C 159.028 114.694,157.828 116.206,157.179 116.884 C 156.531 117.563,156.000 118.274,156.000 118.463 C 156.000 118.652,155.460 119.372,154.800 120.063 C 154.140 120.754,153.600 121.522,153.600 121.771 C 153.600 122.020,153.240 122.483,152.800 122.800 C 152.360 123.117,152.000 123.657,152.000 124.000 C 152.000 124.343,151.640 124.883,151.200 125.200 C 150.760 125.517,150.400 125.967,150.400 126.200 C 150.400 126.433,150.040 126.883,149.600 127.200 C 149.160 127.517,148.800 127.932,148.800 128.123 C 148.800 128.578,146.396 132.019,145.500 132.847 C 145.115 133.203,144.800 133.748,144.800 134.059 C 144.800 134.369,144.450 134.876,144.021 135.185 C 143.593 135.493,143.319 135.870,143.413 136.021 C 143.507 136.173,143.227 136.708,142.792 137.210 C 142.356 137.712,142.000 138.455,142.000 138.861 C 142.000 139.268,141.820 139.600,141.600 139.600 C 141.380 139.600,141.200 139.920,141.200 140.312 C 141.200 140.703,140.840 141.283,140.400 141.600 C 139.960 141.917,139.600 142.407,139.600 142.688 C 139.600 142.970,139.420 143.200,139.200 143.200 C 138.980 143.200,138.800 143.436,138.800 143.725 C 138.800 144.013,138.440 144.636,138.000 145.108 C 137.560 145.580,137.200 146.244,137.200 146.583 C 137.200 146.922,137.020 147.200,136.800 147.200 C 136.580 147.200,136.400 147.481,136.400 147.824 C 136.400 148.209,136.209 148.337,135.900 148.159 C 135.625 148.001,135.530 148.016,135.689 148.192 C 135.935 148.464,135.032 150.570,134.399 151.200 C 134.289 151.310,133.929 151.940,133.600 152.600 C 133.271 153.260,132.901 153.890,132.778 154.000 C 132.655 154.110,132.318 154.785,132.029 155.500 C 131.740 156.215,131.345 156.800,131.151 156.800 C 130.958 156.800,130.800 157.095,130.800 157.456 C 130.800 157.816,130.292 158.941,129.672 159.956 C 129.051 160.970,128.119 162.745,127.601 163.900 C 126.739 165.817,126.000 166.603,126.000 165.600 C 126.000 165.380,125.764 165.200,125.475 165.200 C 125.187 165.200,124.602 164.885,124.175 164.500 C 123.749 164.115,122.860 163.530,122.200 163.201 C 121.540 162.871,120.910 162.511,120.800 162.401 C 120.690 162.290,120.170 161.958,119.645 161.662 C 119.120 161.367,118.102 160.794,117.384 160.391 C 116.665 159.987,115.998 159.735,115.903 159.831 C 115.807 159.927,115.402 159.644,115.002 159.202 C 114.603 158.761,113.944 158.400,113.538 158.400 C 113.132 158.400,112.800 158.220,112.800 158.000 C 112.800 157.780,112.440 157.600,112.000 157.600 C 111.560 157.600,111.200 157.420,111.200 157.200 C 111.200 156.980,110.840 156.800,110.400 156.800 C 109.960 156.800,109.600 156.620,109.600 156.400 C 109.600 156.180,109.240 156.000,108.800 156.000 C 108.360 156.000,108.000 155.820,108.000 155.600 C 108.000 155.380,107.735 155.200,107.412 155.200 C 107.089 155.200,106.183 154.840,105.400 154.400 C 104.617 153.960,103.711 153.600,103.388 153.600 C 103.065 153.600,102.800 153.420,102.800 153.200 C 102.800 152.980,102.451 152.800,102.024 152.800 C 101.597 152.800,101.136 152.620,101.000 152.400 C 100.864 152.180,100.313 152.000,99.776 152.000 C 99.239 152.000,98.800 151.820,98.800 151.600 C 98.800 151.380,98.451 151.200,98.024 151.200 C 97.597 151.200,97.136 151.020,97.000 150.800 C 96.864 150.580,96.401 150.400,95.971 150.400 C 95.541 150.400,94.877 150.238,94.495 150.039 C 94.113 149.840,92.990 149.460,92.000 149.193 C 91.010 148.927,89.840 148.574,89.400 148.410 C 87.205 147.589,85.626 147.200,84.495 147.200 C 83.809 147.200,83.136 147.020,83.000 146.800 C 82.864 146.580,81.953 146.400,80.976 146.400 C 79.999 146.400,79.200 146.214,79.200 145.987 C 79.200 145.715,76.144 145.588,70.200 145.615 C 64.943 145.639,61.200 145.810,61.200 146.028 C 61.200 146.233,60.491 146.400,59.624 146.400 C 58.757 146.400,57.936 146.580,57.800 146.800 C 57.664 147.020,57.023 147.200,56.376 147.200 C 55.729 147.200,55.200 147.380,55.200 147.600 C 55.200 147.820,54.761 148.000,54.224 148.000 C 53.687 148.000,53.136 148.180,53.000 148.400 C 52.864 148.620,52.403 148.800,51.976 148.800 C 51.549 148.800,51.200 148.980,51.200 149.200 C 51.200 149.420,50.840 149.600,50.400 149.600 C 49.960 149.600,49.600 149.780,49.600 150.000 C 49.600 150.220,49.328 150.400,48.996 150.400 C 48.664 150.400,47.828 150.940,47.137 151.600 C 46.446 152.260,45.627 152.800,45.317 152.800 C 45.007 152.800,44.864 152.980,45.000 153.200 C 45.136 153.420,44.947 153.600,44.581 153.600 C 44.149 153.600,43.997 153.814,44.147 154.207 C 44.375 154.800,44.153 155.156,41.900 157.810 C 41.295 158.523,40.800 159.229,40.800 159.381 C 40.800 159.532,40.285 160.408,39.655 161.328 C 37.461 164.530,35.520 169.204,34.723 173.200 C 33.267 180.498,32.757 190.118,33.576 194.833 C 33.783 196.025,34.158 198.350,34.410 200.000 C 35.131 204.733,36.312 210.353,37.226 213.400 C 37.688 214.940,38.210 216.740,38.386 217.400 C 39.091 220.051,40.361 223.553,41.247 225.295 C 41.441 225.677,41.600 226.264,41.600 226.600 C 41.600 226.936,41.759 227.523,41.953 227.905 C 42.148 228.287,42.485 229.050,42.703 229.600 C 43.090 230.578,43.396 231.269,45.985 237.000 C 47.978 241.414,53.940 253.205,54.378 253.600 C 54.500 253.710,54.825 254.205,55.100 254.700 C 55.375 255.195,55.825 256.005,56.100 256.500 C 56.375 256.995,56.690 257.490,56.800 257.600 C 57.196 257.996,58.454 260.215,58.671 260.900 C 58.793 261.285,59.052 261.600,59.247 261.600 C 59.441 261.600,59.600 261.785,59.600 262.012 C 59.600 262.579,66.639 273.086,69.105 276.200 C 69.279 276.420,69.858 277.230,70.392 278.000 C 70.925 278.770,71.469 279.490,71.600 279.600 C 71.731 279.710,72.277 280.430,72.814 281.200 C 73.849 282.686,74.187 283.120,76.400 285.800 C 77.170 286.732,78.070 287.837,78.400 288.254 C 79.505 289.651,82.592 293.395,82.998 293.831 C 83.219 294.069,84.652 295.689,86.181 297.431 C 89.322 301.009,102.233 314.008,105.637 317.021 C 106.867 318.109,108.488 319.540,109.238 320.200 C 110.411 321.232,113.094 323.464,115.728 325.600 C 116.134 325.930,116.857 326.535,117.334 326.945 C 117.810 327.355,118.830 328.164,119.600 328.743 C 120.370 329.322,121.090 329.893,121.200 330.011 C 121.916 330.784,137.926 341.550,139.200 342.116 C 139.530 342.262,140.700 342.919,141.800 343.576 C 145.589 345.840,158.327 352.000,159.217 352.000 C 159.434 352.000,159.923 352.159,160.305 352.353 C 161.536 352.979,162.962 353.536,164.600 354.029 C 165.480 354.294,166.560 354.651,167.000 354.822 C 167.440 354.993,168.250 355.250,168.800 355.394 C 169.350 355.537,170.430 355.835,171.200 356.057 C 171.970 356.279,173.410 356.635,174.400 356.849 C 175.390 357.062,177.100 357.430,178.200 357.666 C 181.023 358.271,196.395 358.565,196.937 358.023 C 197.169 357.791,197.806 357.600,198.352 357.600 C 200.161 357.600,205.922 355.472,209.887 353.338 C 211.255 352.602,212.563 352.000,212.794 352.000 C 213.452 352.000,219.200 346.084,219.200 345.406 C 219.200 345.073,219.350 344.800,219.532 344.800 C 219.715 344.800,220.120 344.305,220.432 343.700 C 220.744 343.095,221.091 342.510,221.204 342.400 C 221.316 342.290,221.831 341.210,222.347 340.000 C 222.863 338.790,223.607 337.068,224.002 336.174 C 224.396 335.279,224.848 333.164,225.006 331.474 C 225.164 329.783,225.453 328.400,225.647 328.400 C 226.247 328.400,226.040 325.518,225.406 325.044 C 224.909 324.672,224.880 324.169,225.230 321.950 C 225.644 319.319,224.978 309.314,224.009 303.600 C 221.905 291.194,217.209 277.497,209.952 262.600 C 208.227 259.058,208.061 258.105,209.100 257.707 C 209.485 257.560,211.208 256.575,212.929 255.520 C 214.651 254.464,216.137 253.600,216.233 253.600 C 216.329 253.600,217.981 252.552,219.904 251.271 C 221.827 249.989,224.120 248.462,225.000 247.876 C 225.880 247.290,226.780 246.672,227.000 246.502 C 227.220 246.333,227.870 245.893,228.444 245.524 C 229.018 245.156,229.738 244.609,230.044 244.309 C 230.350 244.008,231.500 243.152,232.600 242.406 C 235.838 240.210,246.770 231.296,251.738 226.800 C 258.196 220.956,268.922 210.274,273.829 204.801 C 274.913 203.592,276.072 202.332,276.405 202.001 C 276.737 201.671,277.996 200.230,279.202 198.800 C 280.408 197.370,281.491 196.110,281.607 196.000 C 282.320 195.328,288.888 186.961,292.721 181.840 C 295.207 178.518,297.457 175.530,297.721 175.199 C 298.574 174.129,307.600 160.394,307.600 160.165 C 307.600 160.044,308.140 159.159,308.800 158.200 C 309.460 157.241,310.000 156.336,310.000 156.190 C 310.000 156.043,310.339 155.446,310.753 154.862 C 312.567 152.305,319.550 138.977,321.998 133.400 C 322.480 132.300,323.327 130.410,323.880 129.200 C 324.432 127.990,325.045 126.595,325.242 126.100 C 325.637 125.108,326.206 123.683,326.761 122.300 C 326.960 121.805,327.514 120.320,327.993 119.000 C 328.472 117.680,329.030 116.287,329.232 115.905 C 329.434 115.523,329.600 114.936,329.600 114.600 C 329.600 114.264,329.762 113.677,329.961 113.295 C 330.160 112.913,330.544 111.790,330.815 110.800 C 331.086 109.810,331.638 108.010,332.043 106.800 C 339.254 85.254,338.317 57.888,329.952 45.730 C 329.318 44.809,328.800 43.955,328.800 43.833 C 328.800 42.861,322.160 36.344,319.259 34.470 C 311.844 29.677,297.335 26.510,289.600 27.995 " stroke="none" fill="#dce0eb" fill-rule="evenodd"></path><path id="path2" d="M181.700 358.687 C 182.305 358.778,183.295 358.778,183.900 358.687 C 184.505 358.595,184.010 358.520,182.800 358.520 C 181.590 358.520,181.095 358.595,181.700 358.687 M193.900 358.682 C 194.395 358.778,195.205 358.778,195.700 358.682 C 196.195 358.587,195.790 358.509,194.800 358.509 C 193.810 358.509,193.405 358.587,193.900 358.682 " stroke="none" fill="#b4a098" fill-rule="evenodd"></path><path id="path3" d="M289.300 27.876 C 289.685 27.976,290.315 27.976,290.700 27.876 C 291.085 27.775,290.770 27.693,290.000 27.693 C 289.230 27.693,288.915 27.775,289.300 27.876 M297.305 27.887 C 297.914 27.979,298.814 27.977,299.305 27.882 C 299.797 27.787,299.300 27.711,298.200 27.714 C 297.100 27.717,296.697 27.795,297.305 27.887 M285.107 28.290 C 285.826 28.379,286.906 28.377,287.507 28.286 C 288.108 28.195,287.520 28.122,286.200 28.124 C 284.880 28.126,284.388 28.201,285.107 28.290 M301.300 28.276 C 301.685 28.376,302.315 28.376,302.700 28.276 C 303.085 28.175,302.770 28.093,302.000 28.093 C 301.230 28.093,300.915 28.175,301.300 28.276 M315.233 32.149 C 315.645 32.517,318.000 33.600,318.000 33.421 C 318.000 33.190,315.782 32.000,315.353 32.000 C 315.196 32.000,315.142 32.067,315.233 32.149 M321.200 35.658 C 323.719 38.159,327.190 41.156,325.600 39.457 C 324.610 38.400,323.080 36.978,322.200 36.298 C 321.320 35.619,320.870 35.331,321.200 35.658 M236.711 46.160 C 234.616 47.405,234.284 47.863,236.200 46.865 C 238.205 45.820,239.119 45.203,238.600 45.244 C 238.380 45.261,237.530 45.674,236.711 46.160 M227.600 51.526 C 226.830 51.897,226.140 52.335,226.067 52.500 C 225.993 52.665,225.678 52.800,225.367 52.800 C 225.055 52.800,224.800 52.974,224.800 53.187 C 224.800 53.692,225.834 53.296,227.700 52.075 C 229.851 50.668,229.813 50.460,227.600 51.526 M336.501 64.600 C 336.505 65.480,336.587 65.793,336.683 65.295 C 336.779 64.798,336.775 64.078,336.675 63.695 C 336.575 63.313,336.496 63.720,336.501 64.600 M336.901 69.400 C 336.905 70.280,336.987 70.593,337.083 70.095 C 337.179 69.598,337.175 68.878,337.075 68.495 C 336.975 68.113,336.896 68.520,336.901 69.400 M337.328 74.000 C 337.328 75.430,337.401 76.015,337.489 75.300 C 337.578 74.585,337.578 73.415,337.489 72.700 C 337.401 71.985,337.328 72.570,337.328 74.000 M336.931 80.200 C 336.933 81.740,337.005 82.321,337.092 81.491 C 337.179 80.661,337.177 79.401,337.089 78.691 C 337.000 77.981,336.929 78.660,336.931 80.200 M336.460 84.850 C 336.427 85.428,336.311 86.508,336.201 87.250 L 336.003 88.600 336.424 87.257 C 336.655 86.519,336.772 85.439,336.682 84.857 L 336.520 83.800 336.460 84.850 M335.693 91.200 C 335.693 91.970,335.775 92.285,335.876 91.900 C 335.976 91.515,335.976 90.885,335.876 90.500 C 335.775 90.115,335.693 90.430,335.693 91.200 M334.629 96.229 C 334.481 96.815,334.438 97.372,334.532 97.466 C 334.627 97.560,334.824 97.158,334.971 96.571 C 335.119 95.985,335.162 95.428,335.068 95.334 C 334.973 95.240,334.776 95.642,334.629 96.229 M320.465 136.617 C 319.795 138.088,319.923 138.402,320.647 137.065 C 320.986 136.440,321.188 135.854,321.096 135.763 C 321.005 135.671,320.721 136.056,320.465 136.617 M43.200 155.000 C 43.200 155.330,43.009 155.600,42.776 155.600 C 42.543 155.600,42.472 155.794,42.619 156.030 C 42.789 156.306,43.156 156.168,43.642 155.647 C 44.557 154.665,44.590 154.400,43.800 154.400 C 43.470 154.400,43.200 154.670,43.200 155.000 M41.782 157.315 C 40.789 158.468,40.759 158.920,41.735 158.030 C 42.321 157.497,42.800 157.002,42.800 156.930 C 42.800 156.628,42.169 156.867,41.782 157.315 M304.257 165.400 C 303.013 167.270,302.080 168.800,302.185 168.800 C 302.290 168.800,303.249 167.495,304.317 165.900 C 306.621 162.458,306.899 162.000,306.684 162.000 C 306.594 162.000,305.502 163.530,304.257 165.400 M35.387 169.400 C 35.284 169.730,35.086 170.315,34.946 170.700 C 34.517 171.884,33.949 174.907,33.800 176.800 L 33.659 178.600 34.007 176.800 C 34.666 173.389,35.120 171.396,35.531 170.100 C 35.758 169.385,35.861 168.800,35.760 168.800 C 35.658 168.800,35.491 169.070,35.387 169.400 M301.353 169.700 C 299.976 172.036,299.886 172.235,300.587 171.400 C 301.400 170.432,302.100 169.200,301.838 169.200 C 301.733 169.200,301.515 169.425,301.353 169.700 M33.301 180.200 C 33.305 181.080,33.387 181.393,33.483 180.895 C 33.579 180.398,33.575 179.678,33.475 179.295 C 33.375 178.913,33.296 179.320,33.301 180.200 M292.000 182.800 C 291.530 183.460,291.236 184.000,291.346 184.000 C 291.456 184.000,291.930 183.460,292.400 182.800 C 292.870 182.140,293.164 181.600,293.054 181.600 C 292.944 181.600,292.470 182.140,292.000 182.800 M32.954 187.200 C 32.954 189.950,33.018 191.075,33.096 189.700 C 33.174 188.325,33.174 186.075,33.096 184.700 C 33.018 183.325,32.954 184.450,32.954 187.200 M290.344 185.100 C 289.193 186.489,288.706 187.200,288.904 187.200 C 289.014 187.200,289.586 186.570,290.173 185.800 C 291.263 184.371,291.395 183.832,290.344 185.100 M287.359 188.900 C 285.607 190.921,285.087 191.600,285.290 191.600 C 285.407 191.600,286.167 190.790,286.979 189.800 C 288.481 187.966,288.779 187.263,287.359 188.900 M33.640 197.233 C 33.662 198.205,33.825 199.450,34.002 200.000 C 34.195 200.600,34.237 199.960,34.106 198.400 C 33.851 195.362,33.582 194.689,33.640 197.233 M278.949 199.084 C 277.877 200.340,277.209 201.239,277.464 201.083 C 278.023 200.739,281.354 196.800,281.086 196.800 C 280.982 196.800,280.020 197.828,278.949 199.084 M34.406 202.633 C 34.409 203.495,34.588 204.470,34.803 204.800 C 35.070 205.210,35.114 204.765,34.941 203.400 C 34.625 200.905,34.398 200.581,34.406 202.633 M273.578 205.100 L 272.200 206.600 273.700 205.222 C 275.096 203.938,275.384 203.600,275.078 203.600 C 275.012 203.600,274.337 204.275,273.578 205.100 M35.206 206.633 C 35.209 207.275,35.396 208.070,35.621 208.400 C 35.914 208.830,35.954 208.546,35.762 207.400 C 35.430 205.416,35.198 205.096,35.206 206.633 M267.792 211.300 L 263.800 215.400 267.900 211.408 C 270.155 209.212,272.000 207.367,272.000 207.308 C 272.000 207.018,271.501 207.492,267.792 211.300 M36.028 210.676 C 36.013 211.158,36.180 211.664,36.400 211.800 C 36.873 212.092,36.873 211.701,36.400 210.600 C 36.069 209.829,36.055 209.831,36.028 210.676 M258.090 220.863 C 256.489 222.430,255.239 223.772,255.311 223.845 C 255.384 223.917,256.779 222.632,258.412 220.988 C 260.044 219.345,261.294 218.003,261.190 218.007 C 261.085 218.010,259.690 219.296,258.090 220.863 M252.306 226.211 C 251.484 226.975,250.954 227.600,251.127 227.600 C 251.301 227.600,252.054 226.970,252.800 226.200 C 254.541 224.403,254.243 224.410,252.306 226.211 M246.171 231.703 L 245.000 232.997 246.200 231.999 C 246.860 231.449,247.475 230.955,247.567 230.900 C 247.658 230.845,247.645 230.712,247.538 230.604 C 247.430 230.496,246.815 230.991,246.171 231.703 M43.491 232.300 C 43.986 233.602,44.795 235.003,44.798 234.561 C 44.800 234.063,43.624 231.600,43.383 231.600 C 43.296 231.600,43.345 231.915,43.491 232.300 M242.800 234.468 C 241.752 235.420,241.501 235.765,242.200 235.295 C 243.304 234.551,245.138 232.777,244.762 232.817 C 244.673 232.826,243.790 233.570,242.800 234.468 M46.021 237.877 C 46.726 239.770,50.884 248.005,51.249 248.230 C 51.438 248.347,50.425 246.138,48.997 243.321 C 47.570 240.505,46.402 237.986,46.401 237.724 C 46.401 237.462,46.221 237.136,46.001 237.001 C 45.746 236.843,45.753 237.158,46.021 237.877 M231.611 243.020 C 230.847 243.559,230.397 243.999,230.611 243.998 C 230.825 243.997,231.540 243.553,232.200 243.012 C 233.741 241.749,233.405 241.753,231.611 243.020 M224.669 248.037 C 223.642 248.718,222.691 249.453,222.556 249.671 C 222.422 249.889,223.321 249.396,224.556 248.577 C 226.557 247.248,227.090 246.800,226.669 246.800 C 226.596 246.800,225.697 247.357,224.669 248.037 M220.193 251.056 C 218.152 252.409,217.432 253.123,219.026 252.214 C 220.430 251.414,222.301 250.022,221.993 250.009 C 221.879 250.004,221.069 250.475,220.193 251.056 M214.800 254.436 C 214.136 254.979,214.069 255.115,214.600 254.840 C 215.905 254.166,216.628 253.612,216.200 253.615 C 215.980 253.617,215.350 253.986,214.800 254.436 M212.300 255.829 C 210.805 256.640,210.896 256.978,212.400 256.200 C 213.060 255.859,213.600 255.494,213.600 255.390 C 213.600 255.132,213.557 255.147,212.300 255.829 M62.212 266.800 C 62.996 268.227,66.422 273.167,66.784 273.390 C 67.002 273.525,66.166 272.142,64.927 270.317 C 62.766 267.136,61.486 265.478,62.212 266.800 M69.293 277.200 C 69.568 277.640,69.931 278.000,70.100 278.000 C 70.269 278.000,70.182 277.640,69.907 277.200 C 69.632 276.760,69.269 276.400,69.100 276.400 C 68.931 276.400,69.018 276.760,69.293 277.200 M71.991 280.788 C 73.228 282.524,73.825 282.734,72.732 281.048 C 72.219 280.257,71.653 279.608,71.473 279.605 C 71.293 279.602,71.526 280.135,71.991 280.788 M74.757 284.300 C 75.431 285.125,76.549 286.430,77.243 287.200 L 78.503 288.600 77.437 287.200 C 76.850 286.430,75.882 285.132,75.285 284.315 C 74.688 283.499,74.050 282.824,73.866 282.815 C 73.683 282.807,74.084 283.475,74.757 284.300 M80.287 291.139 C 81.339 292.425,82.263 293.427,82.340 293.365 C 82.549 293.198,79.051 288.848,78.687 288.822 C 78.515 288.810,79.235 289.852,80.287 291.139 M221.444 292.200 C 221.773 293.671,222.002 293.990,221.994 292.967 C 221.991 292.545,221.805 291.930,221.582 291.600 C 221.285 291.162,221.248 291.324,221.444 292.200 M82.800 293.843 C 82.800 293.967,83.925 295.353,85.300 296.924 C 88.647 300.748,88.813 300.920,88.996 300.737 C 89.083 300.650,88.490 299.862,87.677 298.985 C 86.865 298.108,85.435 296.542,84.500 295.505 C 83.565 294.467,82.800 293.719,82.800 293.843 M223.268 299.800 C 223.262 300.240,223.411 300.960,223.600 301.400 C 224.038 302.419,224.038 301.368,223.600 300.000 C 223.343 299.196,223.277 299.157,223.268 299.800 M95.800 308.000 C 99.535 311.740,102.681 314.800,102.791 314.800 C 102.901 314.800,99.935 311.740,96.200 308.000 C 92.465 304.260,89.319 301.200,89.209 301.200 C 89.099 301.200,92.065 304.260,95.800 308.000 M224.101 303.800 C 224.105 304.680,224.187 304.993,224.283 304.495 C 224.379 303.998,224.375 303.278,224.275 302.895 C 224.175 302.513,224.096 302.920,224.101 303.800 M224.901 310.200 C 224.905 311.080,224.987 311.393,225.083 310.895 C 225.179 310.398,225.175 309.678,225.075 309.295 C 224.975 308.913,224.896 309.320,224.901 310.200 M225.328 314.400 C 225.328 315.830,225.401 316.415,225.489 315.700 C 225.578 314.985,225.578 313.815,225.489 313.100 C 225.401 312.385,225.328 312.970,225.328 314.400 M103.200 314.940 C 103.200 315.349,106.952 318.781,107.166 318.567 C 107.258 318.475,107.255 318.355,107.159 318.300 C 107.063 318.245,106.133 317.398,105.093 316.417 C 104.052 315.436,103.200 314.771,103.200 314.940 M108.206 319.545 C 109.262 320.801,115.203 325.709,115.188 325.312 C 115.181 325.140,114.416 324.427,113.488 323.727 C 112.559 323.026,111.350 322.052,110.800 321.561 C 107.792 318.878,107.370 318.550,108.206 319.545 M225.293 322.000 C 225.293 322.770,225.375 323.085,225.476 322.700 C 225.576 322.315,225.576 321.685,225.476 321.300 C 225.375 320.915,225.293 321.230,225.293 322.000 M119.184 328.755 C 120.165 329.641,121.050 330.284,121.150 330.183 C 121.251 330.082,121.258 329.953,121.167 329.896 C 121.075 329.839,120.190 329.196,119.200 328.468 L 117.400 327.143 119.184 328.755 M124.334 332.505 C 124.628 332.868,127.688 335.029,131.134 337.308 C 138.276 342.030,138.400 342.109,138.400 341.875 C 138.400 341.780,136.105 340.202,133.300 338.369 C 130.495 336.536,127.210 334.319,126.000 333.441 C 124.790 332.564,124.040 332.143,124.334 332.505 M155.371 350.816 C 156.236 351.247,157.136 351.594,157.371 351.586 C 157.900 351.570,154.756 350.026,154.200 350.030 C 153.980 350.031,154.507 350.385,155.371 350.816 M158.203 352.005 C 158.337 352.222,158.709 352.400,159.029 352.400 C 159.349 352.400,159.923 352.559,160.305 352.753 C 162.523 353.882,168.413 355.813,172.000 356.588 C 173.578 356.929,171.791 356.191,169.600 355.597 C 168.610 355.328,167.440 354.974,167.000 354.810 C 166.560 354.645,165.480 354.294,164.600 354.029 C 163.032 353.557,162.417 353.331,160.400 352.490 C 158.602 351.740,157.950 351.596,158.203 352.005 M210.865 352.792 C 209.092 353.782,208.980 353.931,210.186 353.701 C 210.744 353.594,211.200 353.348,211.200 353.153 C 211.200 352.959,211.459 352.800,211.776 352.800 C 212.093 352.800,212.464 352.620,212.600 352.400 C 212.962 351.815,212.378 351.947,210.865 352.792 M173.233 356.947 C 173.325 357.028,174.120 357.214,175.000 357.362 C 176.146 357.554,176.430 357.514,176.000 357.221 C 175.460 356.853,172.832 356.593,173.233 356.947 M176.833 357.744 C 176.925 357.823,177.900 357.991,179.000 358.118 C 180.287 358.267,180.715 358.226,180.200 358.003 C 179.436 357.672,176.486 357.445,176.833 357.744 M196.990 358.016 C 196.821 358.289,197.123 358.338,197.866 358.160 C 199.399 357.792,199.544 357.600,198.290 357.600 C 197.717 357.600,197.132 357.787,196.990 358.016 M186.400 358.760 C 187.390 358.900,189.370 358.903,190.800 358.768 C 192.974 358.562,192.679 358.521,189.000 358.514 C 186.166 358.510,185.241 358.597,186.400 358.760 " stroke="none" fill="#bdaaa8" fill-rule="evenodd"></path><path id="path4" d="M289.500 27.482 C 289.995 27.578,290.805 27.578,291.300 27.482 C 291.795 27.387,291.390 27.309,290.400 27.309 C 289.410 27.309,289.005 27.387,289.500 27.482 M296.700 27.489 C 297.415 27.578,298.585 27.578,299.300 27.489 C 300.015 27.401,299.430 27.328,298.000 27.328 C 296.570 27.328,295.985 27.401,296.700 27.489 M286.500 27.876 C 286.885 27.976,287.515 27.976,287.900 27.876 C 288.285 27.775,287.970 27.693,287.200 27.693 C 286.430 27.693,286.115 27.775,286.500 27.876 M281.600 28.418 C 281.162 28.715,281.324 28.752,282.200 28.556 C 283.671 28.227,283.990 27.998,282.967 28.006 C 282.545 28.009,281.930 28.195,281.600 28.418 M324.600 38.400 C 325.906 39.720,327.065 40.800,327.175 40.800 C 327.285 40.800,326.306 39.720,325.000 38.400 C 323.694 37.080,322.535 36.000,322.425 36.000 C 322.315 36.000,323.294 37.080,324.600 38.400 M230.084 49.415 C 229.437 50.149,229.900 50.143,231.200 49.400 C 232.083 48.895,232.106 48.828,231.400 48.829 C 230.960 48.830,230.368 49.094,230.084 49.415 M226.396 51.404 C 225.994 51.889,226.019 52.000,226.527 52.000 C 227.274 52.000,227.762 51.348,227.252 51.032 C 227.053 50.909,226.668 51.077,226.396 51.404 M336.893 66.000 C 336.893 66.770,336.975 67.085,337.076 66.700 C 337.176 66.315,337.176 65.685,337.076 65.300 C 336.975 64.915,336.893 65.230,336.893 66.000 M337.309 69.200 C 337.309 70.190,337.387 70.595,337.482 70.100 C 337.578 69.605,337.578 68.795,337.482 68.300 C 337.387 67.805,337.309 68.210,337.309 69.200 M337.276 80.050 C 337.234 81.288,337.111 82.908,337.001 83.650 L 336.803 85.000 337.220 83.670 C 337.450 82.939,337.574 81.319,337.495 80.070 L 337.351 77.800 337.276 80.050 M334.629 97.429 C 334.481 98.015,334.438 98.572,334.532 98.666 C 334.627 98.760,334.824 98.358,334.971 97.771 C 335.119 97.185,335.162 96.628,335.068 96.534 C 334.973 96.440,334.776 96.842,334.629 97.429 M41.660 156.642 C 40.931 157.466,41.400 157.857,42.181 157.076 C 42.521 156.736,42.800 156.354,42.800 156.229 C 42.800 155.809,42.206 156.024,41.660 156.642 M32.893 180.000 C 32.893 180.770,32.975 181.085,33.076 180.700 C 33.176 180.315,33.176 179.685,33.076 179.300 C 32.975 178.915,32.893 179.230,32.893 180.000 M282.368 195.500 C 280.009 198.143,279.474 198.800,279.682 198.800 C 279.803 198.800,280.749 197.810,281.782 196.600 C 283.696 194.360,284.155 193.498,282.368 195.500 M277.381 201.300 L 275.800 203.000 277.500 201.419 C 279.081 199.948,279.384 199.600,279.081 199.600 C 279.016 199.600,278.251 200.365,277.381 201.300 M33.888 202.000 C 34.011 203.210,34.177 204.275,34.256 204.367 C 34.553 204.711,34.330 201.367,34.004 200.600 C 33.792 200.102,33.749 200.631,33.888 202.000 M274.378 204.700 L 273.000 206.200 274.500 204.822 C 275.896 203.538,276.184 203.200,275.878 203.200 C 275.812 203.200,275.137 203.875,274.378 204.700 M267.591 211.900 L 264.200 215.400 267.700 212.009 C 270.951 208.859,271.382 208.400,271.091 208.400 C 271.031 208.400,269.456 209.975,267.591 211.900 M35.652 210.000 C 35.630 210.550,35.887 211.720,36.222 212.600 C 36.849 214.244,36.796 213.650,36.024 210.400 C 35.757 209.276,35.684 209.197,35.652 210.000 M37.118 215.626 C 37.214 216.277,37.419 216.888,37.574 216.984 C 37.729 217.079,37.777 216.625,37.682 215.974 C 37.586 215.323,37.381 214.712,37.226 214.616 C 37.071 214.521,37.023 214.975,37.118 215.626 M38.000 218.576 C 38.000 219.113,38.147 219.644,38.328 219.755 C 38.508 219.867,38.577 219.427,38.482 218.779 C 38.272 217.349,38.000 217.235,38.000 218.576 M258.981 220.500 L 257.400 222.200 259.100 220.619 C 260.681 219.148,260.984 218.800,260.681 218.800 C 260.616 218.800,259.851 219.565,258.981 220.500 M249.178 229.500 L 247.800 231.000 249.300 229.622 C 250.696 228.338,250.984 228.000,250.678 228.000 C 250.612 228.000,249.937 228.675,249.178 229.500 M55.215 256.200 C 55.217 256.420,55.586 257.050,56.036 257.600 C 56.579 258.264,56.715 258.331,56.440 257.800 C 55.766 256.495,55.212 255.772,55.215 256.200 M64.800 271.538 C 64.800 271.724,65.188 272.219,65.662 272.638 L 66.524 273.400 65.816 272.300 C 65.086 271.166,64.800 270.951,64.800 271.538 M68.608 276.758 C 69.414 277.880,70.251 278.908,70.466 279.041 C 70.682 279.174,70.199 278.365,69.392 277.242 C 68.586 276.120,67.749 275.092,67.534 274.959 C 67.318 274.826,67.801 275.635,68.608 276.758 M83.421 295.175 C 86.709 299.012,87.599 299.978,87.592 299.701 C 87.587 299.536,86.372 298.129,84.892 296.575 C 83.411 295.021,82.750 294.391,83.421 295.175 M90.600 303.200 C 92.128 304.740,93.469 306.000,93.579 306.000 C 93.689 306.000,92.528 304.740,91.000 303.200 C 89.472 301.660,88.131 300.400,88.021 300.400 C 87.911 300.400,89.072 301.660,90.600 303.200 M224.893 306.800 C 224.893 307.570,224.975 307.885,225.076 307.500 C 225.176 307.115,225.176 306.485,225.076 306.100 C 224.975 305.715,224.893 306.030,224.893 306.800 M98.052 310.700 C 98.080 310.865,99.655 312.436,101.552 314.191 L 105.000 317.383 101.609 313.891 C 98.176 310.357,97.959 310.163,98.052 310.700 M225.759 317.600 C 225.759 320.790,225.821 322.095,225.897 320.500 C 225.973 318.905,225.973 316.295,225.897 314.700 C 225.821 313.105,225.759 314.410,225.759 317.600 M106.487 318.605 C 107.304 319.460,108.038 320.079,108.117 319.980 C 108.197 319.881,107.528 319.181,106.631 318.425 L 105.000 317.050 106.487 318.605 M119.633 329.716 C 119.725 329.780,120.520 330.333,121.400 330.945 L 123.000 332.058 121.615 330.829 C 120.853 330.153,120.058 329.600,119.848 329.600 C 119.638 329.600,119.542 329.652,119.633 329.716 M123.339 332.301 C 123.662 332.824,126.787 334.950,126.952 334.759 C 127.028 334.672,126.195 334.000,125.101 333.267 C 124.007 332.534,123.214 332.099,123.339 332.301 M134.400 339.964 C 134.950 340.414,135.580 340.783,135.800 340.785 C 136.228 340.788,135.505 340.234,134.200 339.560 C 133.669 339.285,133.736 339.421,134.400 339.964 M144.400 345.783 C 144.400 345.963,146.802 347.200,147.150 347.200 C 147.497 347.200,145.894 346.167,145.100 345.879 C 144.715 345.739,144.400 345.696,144.400 345.783 M149.200 348.183 C 149.200 348.363,151.602 349.600,151.950 349.600 C 152.297 349.600,150.694 348.567,149.900 348.279 C 149.515 348.139,149.200 348.096,149.200 348.183 M156.200 351.600 C 157.080 352.025,157.980 352.372,158.200 352.370 C 158.420 352.369,157.893 352.015,157.029 351.584 C 156.164 351.153,155.264 350.806,155.029 350.814 C 154.793 350.821,155.320 351.175,156.200 351.600 M186.308 359.269 C 187.196 359.621,189.909 359.603,191.200 359.236 C 191.788 359.069,190.845 358.960,188.908 358.973 C 187.097 358.985,185.927 359.118,186.308 359.269 " stroke="none" fill="#ac9494" fill-rule="evenodd"></path></g></svg>