<?xml version="1.0" encoding="utf-8"?>
<!-- Generator: Adobe Illustrator 24.3.0, SVG Export Plug-In . SVG Version: 6.00 Build 0)  -->
<svg version="1.1" id="Layer_1" xmlns="http://www.w3.org/2000/svg" xmlns:xlink="http://www.w3.org/1999/xlink" x="0px" y="0px"
	 viewBox="0 0 512 512" style="enable-background:new 0 0 512 512;" xml:space="preserve">
<style type="text/css">
	.st0{fill:#FFF7CC;}
	.st1{fill:#FFE6B3;}
	.st2{fill:#7DD5F4;}
	.st3{fill:#4793FF;}
	.st4{fill:#00429D;}
	.st5{fill-rule:evenodd;clip-rule:evenodd;fill:#FFE6B3;}
	.st6{fill-rule:evenodd;clip-rule:evenodd;fill:#FFCA80;}
	.st7{fill:#00347B;}
</style>
<g>
	<g>
		<path class="st0" d="M421.2,350H90.8c-38,0-68.9-30.9-68.9-68.9c0-26.4,15.4-50.8,39.2-62.2c2.2-1,3.2-3.3,2.5-5.7
			c-1.8-6.2-2.7-12.6-2.7-19.1c0-29.3,18.6-55.4,46.2-65.1c1.9-0.7,3-2,3.2-4c3.9-34.9,33.3-61.2,68.5-61.2c3.8,0,7.6,0.3,11.3,0.9
			c2.2,0.4,4-0.5,5-2.5c12-22.6,35.3-36.6,60.8-36.6c25.1,0,48.2,13.7,60.4,35.7c1,1.8,2.5,2.6,4.4,2.5c17.4-0.9,34.4,4.9,47.9,16.4
			c13.5,11.5,22,27.4,24,44.8c0.2,2,1.3,3.3,3.2,4c27.6,9.6,46.2,35.8,46.2,65c0,5.4-0.6,10.8-1.9,16c-0.6,2.5,0.7,4.8,3.1,5.7
			c28,9.5,46.8,35.7,46.8,65.3C490.1,319.1,459.2,350,421.2,350L421.2,350z"/>
	</g>
	<path class="st1" d="M443.3,215.8c-2.4-0.8-3.7-3.2-3.1-5.7c1.2-5.2,1.9-10.6,1.9-16c0-29.3-18.5-55.4-46.2-65c-1.9-0.7-3-2-3.2-4
		c-1.9-17.4-10.4-33.3-24-44.8c-13.5-11.4-30.5-17.2-47.9-16.4c-2,0.1-3.5-0.7-4.4-2.5c-12.1-22-35.3-35.7-60.4-35.7V350h165.2
		c38,0,68.9-30.9,68.9-68.9C490.1,251.5,471.3,225.3,443.3,215.8L443.3,215.8z"/>
	<g>
		<path class="st2" d="M292.9,474.2h-73.9c-51.3,0-100.1-19.8-137.3-55.6C44.7,382.9,23.1,335,21,283.9c-0.2-4.1,1.3-8.1,4.2-11
			s6.7-4.6,10.8-4.6h440c4.1,0,8,1.7,10.8,4.6s4.3,6.9,4.2,11c-2.1,51.1-23.7,99-60.8,134.7C393,454.5,344.3,474.2,292.9,474.2z"/>
	</g>
	<path class="st3" d="M486.8,272.9c-2.8-2.9-6.7-4.6-10.8-4.6H256v206h36.9c51.3,0,100.1-19.8,137.3-55.6
		c37.1-35.8,58.7-83.6,60.8-134.7C491.2,279.8,489.7,275.8,486.8,272.9z"/>
	<g>
		<path class="st4" d="M497,298.3H15c-8.3,0-15-6.7-15-15s6.7-15,15-15h482c8.3,0,15,6.7,15,15S505.3,298.3,497,298.3z"/>
	</g>
	<g>
		<circle class="st5" cx="226" cy="118.2" r="15"/>
	</g>
	<g>
		<ellipse class="st5" cx="157.1" cy="212.8" rx="15" ry="15"/>
	</g>
	<g>
		<g>
			<circle class="st6" cx="326" cy="136.2" r="15"/>
		</g>
	</g>
	<g>
	</g>
	<path class="st7" d="M497,268.3H256v30h241c8.3,0,15-6.7,15-15S505.3,268.3,497,268.3z"/>
</g>
</svg>
