<svg id="svg" version="1.1" xmlns="http://www.w3.org/2000/svg" xmlns:xlink="http://www.w3.org/1999/xlink" width="400" height="400" viewBox="0, 0, 400,400"><g id="svgg"><path id="path0" d="M36.400 1.648 C 35.443 2.633,34.800 3.679,34.800 4.248 C 34.800 4.772,34.620 5.200,34.400 5.200 C 34.180 5.200,34.000 5.560,34.000 6.000 C 34.000 6.440,33.820 6.800,33.600 6.800 C 33.380 6.800,33.200 7.160,33.200 7.600 C 33.200 8.040,33.020 8.400,32.800 8.400 C 32.580 8.400,32.400 8.929,32.400 9.576 C 32.400 10.223,32.220 10.864,32.000 11.000 C 31.780 11.136,31.600 11.676,31.600 12.200 C 31.600 12.724,31.420 13.264,31.200 13.400 C 30.980 13.536,30.800 14.321,30.800 15.144 C 30.800 15.967,30.636 16.811,30.435 17.020 C 29.606 17.884,28.784 36.000,29.574 36.000 C 29.831 36.000,30.000 37.021,30.000 38.576 C 30.000 39.993,30.180 41.264,30.400 41.400 C 30.620 41.536,30.800 42.537,30.800 43.624 C 30.800 44.711,30.980 45.600,31.200 45.600 C 31.420 45.600,31.600 46.489,31.600 47.576 C 31.600 48.663,31.780 49.664,32.000 49.800 C 32.220 49.936,32.400 50.667,32.400 51.424 C 32.400 52.181,32.580 52.800,32.800 52.800 C 33.020 52.800,33.200 53.239,33.200 53.776 C 33.200 54.313,33.380 54.864,33.600 55.000 C 33.820 55.136,34.000 55.766,34.000 56.400 C 34.000 57.034,34.180 57.664,34.400 57.800 C 34.620 57.936,34.800 58.476,34.800 59.000 C 34.800 59.524,34.980 60.064,35.200 60.200 C 35.420 60.336,35.600 60.797,35.600 61.224 C 35.600 61.651,35.780 62.000,36.000 62.000 C 36.220 62.000,36.400 62.540,36.400 63.200 C 36.400 63.860,36.580 64.400,36.800 64.400 C 37.020 64.400,37.200 64.760,37.200 65.200 C 37.200 65.640,37.380 66.000,37.600 66.000 C 37.820 66.000,38.000 66.335,38.000 66.745 C 38.000 67.154,38.715 68.880,39.589 70.579 L 41.179 73.669 39.904 74.735 C 37.997 76.327,35.251 79.255,34.495 80.500 C 34.128 81.105,33.686 81.600,33.514 81.600 C 33.341 81.600,33.200 81.836,33.200 82.125 C 33.200 82.413,32.876 82.998,32.480 83.425 C 32.084 83.851,31.319 85.010,30.780 86.000 C 30.241 86.990,29.665 87.860,29.500 87.933 C 29.335 88.007,29.200 88.412,29.200 88.833 C 29.200 89.255,29.020 89.600,28.800 89.600 C 28.580 89.600,28.400 89.853,28.400 90.162 C 28.400 90.471,28.057 91.416,27.637 92.262 C 26.249 95.062,25.647 96.612,25.167 98.617 C 24.906 99.708,24.562 100.960,24.402 101.400 C 23.556 103.725,23.200 105.184,23.200 106.328 C 23.200 107.028,23.020 107.600,22.800 107.600 C 22.580 107.600,22.400 108.500,22.400 109.600 C 22.400 110.700,22.220 111.600,22.000 111.600 C 21.775 111.600,21.600 112.725,21.600 114.176 C 21.600 115.593,21.420 116.864,21.200 117.000 C 20.949 117.155,20.800 121.471,20.800 128.624 C 20.800 135.941,20.943 140.000,21.200 140.000 C 21.425 140.000,21.600 141.125,21.600 142.576 C 21.600 143.993,21.780 145.264,22.000 145.400 C 22.220 145.536,22.400 146.537,22.400 147.624 C 22.400 148.711,22.580 149.600,22.800 149.600 C 23.020 149.600,23.200 150.219,23.200 150.976 C 23.200 151.733,23.380 152.464,23.600 152.600 C 23.820 152.736,24.000 153.289,24.000 153.829 C 24.000 154.369,24.158 155.123,24.350 155.505 C 24.543 155.887,25.215 157.820,25.845 159.800 C 26.474 161.780,27.127 163.460,27.295 163.533 C 27.463 163.607,27.600 164.012,27.600 164.433 C 27.600 164.855,27.780 165.200,28.000 165.200 C 28.220 165.200,28.400 165.560,28.400 166.000 C 28.400 166.440,28.535 166.803,28.700 166.806 C 28.865 166.810,29.440 167.710,29.979 168.806 C 30.517 169.903,31.102 170.800,31.279 170.800 C 31.455 170.800,31.600 171.070,31.600 171.400 C 31.600 171.730,31.741 172.000,31.914 172.000 C 32.086 172.000,32.544 172.536,32.931 173.191 C 33.318 173.846,34.482 175.274,35.517 176.363 C 36.553 177.452,37.785 178.761,38.255 179.271 C 39.683 180.821,42.393 183.200,42.732 183.200 C 42.907 183.200,43.568 183.740,44.200 184.400 C 44.832 185.060,45.586 185.600,45.875 185.600 C 46.164 185.600,46.400 185.780,46.400 186.000 C 46.400 186.220,46.760 186.400,47.200 186.400 C 47.640 186.400,48.000 186.580,48.000 186.800 C 48.000 187.020,48.360 187.200,48.800 187.200 C 49.240 187.200,49.600 187.336,49.600 187.503 C 49.600 188.046,52.736 188.800,54.994 188.800 C 56.207 188.800,57.200 188.620,57.200 188.400 C 57.200 188.180,57.470 188.000,57.800 188.000 C 58.142 188.000,58.400 187.640,58.400 187.162 C 58.400 186.701,58.730 185.846,59.133 185.262 C 59.536 184.678,60.085 182.850,60.352 181.200 C 60.620 179.550,61.010 177.331,61.219 176.269 C 61.429 175.208,61.600 173.870,61.600 173.298 C 61.600 172.725,61.770 171.704,61.978 171.028 C 62.186 170.353,62.556 168.450,62.800 166.800 C 63.044 165.150,63.403 162.900,63.597 161.800 C 63.791 160.700,64.154 158.270,64.404 156.400 C 64.654 154.530,65.016 152.100,65.208 151.000 C 65.580 148.871,65.905 146.759,67.255 137.700 C 67.722 134.565,68.251 132.000,68.431 132.000 C 68.611 132.000,74.249 137.445,80.961 144.100 C 101.260 164.228,112.502 174.498,114.637 174.868 C 115.955 175.096,115.424 168.856,113.200 158.000 C 112.997 157.010,112.630 155.120,112.384 153.800 C 111.804 150.692,111.295 148.067,110.813 145.700 C 110.600 144.655,110.248 142.900,110.031 141.800 C 109.814 140.700,109.440 138.900,109.200 137.800 C 108.960 136.700,108.600 134.990,108.400 134.000 C 108.200 133.010,107.856 131.390,107.636 130.400 C 107.415 129.410,107.031 127.610,106.782 126.400 C 106.220 123.666,105.714 121.307,105.217 119.100 C 104.863 117.524,104.625 116.401,103.633 111.600 C 103.168 109.355,103.557 108.904,105.277 109.696 C 106.954 110.468,109.562 111.590,110.600 111.987 C 111.040 112.155,111.895 112.497,112.500 112.746 C 113.105 112.996,114.005 113.362,114.500 113.559 C 114.995 113.757,116.030 114.189,116.800 114.520 C 117.570 114.851,122.070 116.687,126.800 118.600 C 131.530 120.513,136.030 122.349,136.800 122.680 C 138.741 123.514,140.060 124.055,141.000 124.403 C 141.440 124.566,142.700 125.104,143.800 125.600 C 144.900 126.096,146.205 126.659,146.700 126.851 C 147.195 127.043,148.005 127.356,148.500 127.546 C 151.053 128.529,154.383 129.970,156.112 130.839 C 158.150 131.864,159.600 131.848,159.600 130.800 C 159.600 130.360,159.780 130.000,160.000 130.000 C 160.220 130.000,160.400 129.561,160.400 129.024 C 160.400 128.487,160.220 127.936,160.000 127.800 C 159.780 127.664,159.600 126.393,159.600 124.976 C 159.600 123.559,159.447 122.400,159.260 122.400 C 159.074 122.400,158.807 120.667,158.668 118.550 C 158.529 116.432,158.254 114.497,158.058 114.250 C 157.723 113.828,157.481 112.847,156.937 109.700 C 156.814 108.985,156.552 108.400,156.356 108.400 C 156.160 108.400,156.000 107.858,156.000 107.195 C 156.000 106.532,155.820 105.632,155.600 105.195 C 155.380 104.758,155.020 104.042,154.800 103.605 C 154.580 103.168,154.400 102.448,154.400 102.005 C 154.400 101.562,154.220 101.200,154.000 101.200 C 153.780 101.200,153.600 100.761,153.600 100.224 C 153.600 99.687,153.420 99.136,153.200 99.000 C 152.980 98.864,152.800 98.403,152.800 97.976 C 152.800 97.549,152.620 97.200,152.400 97.200 C 152.180 97.200,152.000 96.928,152.000 96.595 C 152.000 96.008,151.240 94.406,150.768 94.000 C 150.640 93.890,150.281 93.215,149.970 92.500 C 149.659 91.785,149.269 91.200,149.102 91.200 C 148.936 91.200,148.800 90.840,148.800 90.400 C 148.800 89.960,148.620 89.600,148.400 89.600 C 148.180 89.600,148.000 89.240,148.000 88.800 C 148.000 88.360,147.850 88.000,147.668 88.000 C 147.485 88.000,147.081 87.505,146.770 86.900 C 146.460 86.295,145.889 85.509,145.503 85.153 C 145.116 84.797,144.800 84.329,144.800 84.112 C 144.800 83.896,144.260 83.154,143.600 82.463 C 142.940 81.772,142.400 80.997,142.400 80.741 C 142.400 80.172,131.379 69.200,130.807 69.200 C 130.584 69.200,129.659 68.480,128.752 67.600 C 127.845 66.720,126.921 66.000,126.699 66.000 C 126.476 66.000,126.003 65.684,125.647 65.297 C 125.291 64.911,124.460 64.326,123.800 63.998 C 123.140 63.670,122.510 63.298,122.400 63.171 C 122.290 63.044,121.390 62.504,120.400 61.970 C 119.410 61.437,118.510 60.889,118.400 60.753 C 118.001 60.260,114.645 58.807,113.339 58.562 C 112.602 58.424,112.000 58.151,112.000 57.955 C 112.000 57.760,111.460 57.600,110.800 57.600 C 110.140 57.600,109.600 57.420,109.600 57.200 C 109.600 56.980,109.060 56.800,108.400 56.800 C 107.740 56.800,107.200 56.620,107.200 56.400 C 107.200 56.180,106.570 56.000,105.800 56.000 C 105.030 56.000,104.400 55.820,104.400 55.600 C 104.400 55.380,103.511 55.200,102.424 55.200 C 101.337 55.200,100.336 55.020,100.200 54.800 C 100.064 54.580,98.343 54.400,96.376 54.400 C 94.096 54.400,92.800 54.244,92.800 53.971 C 92.800 53.680,91.673 53.617,89.300 53.777 C 87.375 53.907,84.045 54.112,81.900 54.233 C 79.755 54.354,78.000 54.621,78.000 54.827 C 78.000 55.032,77.100 55.200,76.000 55.200 C 74.900 55.200,74.000 55.380,74.000 55.600 C 74.000 55.820,73.280 56.000,72.400 56.000 C 71.520 56.000,70.800 56.180,70.800 56.400 C 70.800 56.620,70.260 56.800,69.600 56.800 C 68.940 56.800,68.400 56.980,68.400 57.200 C 68.400 57.420,67.669 57.600,66.776 57.600 C 65.883 57.600,65.250 57.758,65.369 57.950 C 65.488 58.143,64.914 58.413,64.093 58.551 C 63.272 58.690,61.385 59.421,59.900 60.177 C 58.415 60.933,57.197 61.427,57.194 61.276 C 57.191 61.124,57.056 61.193,56.894 61.430 C 56.732 61.666,55.790 62.296,54.800 62.830 C 53.810 63.363,52.879 63.968,52.730 64.174 C 52.388 64.650,51.200 63.700,51.200 62.951 C 51.200 62.648,51.020 62.400,50.800 62.400 C 50.580 62.400,50.400 62.051,50.400 61.624 C 50.400 61.197,50.220 60.736,50.000 60.600 C 49.780 60.464,49.600 59.913,49.600 59.376 C 49.600 58.839,49.420 58.400,49.200 58.400 C 48.980 58.400,48.800 57.961,48.800 57.424 C 48.800 56.887,48.620 56.336,48.400 56.200 C 48.180 56.064,48.000 55.603,48.000 55.176 C 48.000 54.749,47.820 54.400,47.600 54.400 C 47.380 54.400,47.200 53.871,47.200 53.224 C 47.200 52.577,47.020 51.936,46.800 51.800 C 46.580 51.664,46.400 50.933,46.400 50.176 C 46.400 49.419,46.220 48.800,46.000 48.800 C 45.780 48.800,45.600 48.271,45.600 47.624 C 45.600 46.977,45.420 46.336,45.200 46.200 C 44.980 46.064,44.800 45.243,44.800 44.376 C 44.800 43.509,44.620 42.800,44.400 42.800 C 44.180 42.800,44.000 41.900,44.000 40.800 C 44.000 39.700,43.820 38.800,43.600 38.800 C 43.369 38.800,43.200 37.533,43.200 35.800 C 43.200 34.067,43.031 32.800,42.800 32.800 C 42.565 32.800,42.400 31.400,42.400 29.400 C 42.400 27.400,42.565 26.000,42.800 26.000 C 43.031 26.000,43.200 24.741,43.200 23.024 C 43.200 21.387,43.380 19.936,43.600 19.800 C 43.820 19.664,44.000 18.933,44.000 18.176 C 44.000 17.419,44.180 16.800,44.400 16.800 C 44.620 16.800,44.800 16.260,44.800 15.600 C 44.800 14.940,44.980 14.400,45.200 14.400 C 45.420 14.400,45.600 14.051,45.600 13.624 C 45.600 13.197,45.780 12.736,46.000 12.600 C 46.220 12.464,46.400 11.913,46.400 11.376 C 46.400 10.839,46.580 10.400,46.800 10.400 C 47.020 10.400,47.200 10.040,47.200 9.600 C 47.200 9.160,47.380 8.800,47.600 8.800 C 48.176 8.800,48.095 4.156,47.500 3.105 C 46.067 0.573,44.934 -0.000,41.357 -0.000 L 37.999 0.000 36.400 1.648 " stroke="none" fill="#498e1c" fill-rule="evenodd"></path><path id="path1" d="M158.030 132.677 C 159.997 134.862,169.581 144.289,171.263 145.693 C 172.218 146.490,174.162 148.228,175.583 149.555 C 177.004 150.882,178.237 151.897,178.323 151.810 C 178.529 151.605,176.165 149.283,174.394 147.951 C 173.628 147.375,169.534 143.460,165.298 139.251 C 161.062 135.043,157.475 131.600,157.328 131.600 C 157.181 131.600,157.497 132.085,158.030 132.677 M68.275 134.602 C 68.132 135.701,67.828 137.770,67.600 139.200 C 67.372 140.630,66.995 143.150,66.762 144.800 C 66.529 146.450,66.185 148.790,65.999 150.000 C 65.812 151.210,65.453 153.550,65.200 155.200 C 64.947 156.850,64.587 159.190,64.400 160.400 C 64.213 161.610,63.869 163.860,63.637 165.400 C 63.404 166.940,63.020 169.190,62.782 170.400 C 62.545 171.610,62.168 173.860,61.945 175.400 C 60.746 183.692,60.671 184.017,59.604 185.600 C 58.672 186.983,58.347 188.000,58.836 188.000 C 59.062 188.000,59.140 188.174,59.008 188.387 C 58.876 188.600,59.136 189.534,59.584 190.462 C 60.033 191.391,60.400 192.386,60.400 192.675 C 60.400 192.964,60.580 193.200,60.800 193.200 C 61.020 193.200,61.200 193.472,61.200 193.805 C 61.200 194.138,61.373 194.723,61.585 195.105 C 62.454 196.671,63.600 199.384,63.600 199.875 C 63.600 200.164,63.780 200.400,64.000 200.400 C 64.220 200.400,64.400 200.760,64.400 201.200 C 64.400 201.640,64.580 202.000,64.800 202.000 C 65.020 202.000,65.200 202.450,65.200 203.000 C 65.200 203.550,65.380 204.000,65.600 204.000 C 65.820 204.000,66.000 204.253,66.000 204.562 C 66.000 205.228,67.668 208.541,68.100 208.733 C 68.265 208.807,68.400 209.212,68.400 209.633 C 68.400 210.055,68.580 210.400,68.800 210.400 C 69.020 210.400,69.200 210.760,69.200 211.200 C 69.200 211.640,69.380 212.000,69.600 212.000 C 69.820 212.000,70.000 212.360,70.000 212.800 C 70.000 213.240,70.180 213.600,70.400 213.600 C 70.620 213.600,70.800 213.960,70.800 214.400 C 70.800 214.840,70.980 215.200,71.200 215.200 C 71.420 215.200,71.600 215.560,71.600 216.000 C 71.600 216.440,71.780 216.800,72.000 216.800 C 72.220 216.800,72.400 217.160,72.400 217.600 C 72.400 218.040,72.580 218.400,72.800 218.400 C 73.020 218.400,73.200 218.645,73.200 218.944 C 73.200 219.243,73.726 220.548,74.368 221.844 C 75.010 223.140,76.037 225.280,76.649 226.600 C 77.261 227.920,77.862 229.090,77.984 229.200 C 78.105 229.310,78.759 230.492,79.436 231.827 C 81.144 235.194,82.557 237.763,82.832 238.000 C 82.960 238.110,83.319 238.785,83.630 239.500 C 83.941 240.215,84.331 240.800,84.498 240.800 C 84.664 240.800,84.800 241.160,84.800 241.600 C 84.800 242.040,84.959 242.400,85.153 242.400 C 85.348 242.400,85.607 242.715,85.729 243.100 C 86.025 244.036,87.324 246.166,87.700 246.333 C 87.865 246.407,88.000 246.812,88.000 247.233 C 88.000 247.655,88.180 248.000,88.400 248.000 C 88.620 248.000,88.800 248.278,88.800 248.617 C 88.800 248.956,89.160 249.620,89.600 250.092 C 90.040 250.564,90.400 251.187,90.400 251.475 C 90.400 251.764,90.580 252.000,90.800 252.000 C 91.020 252.000,91.200 252.236,91.200 252.525 C 91.200 252.813,91.515 253.405,91.900 253.840 C 92.285 254.275,92.654 254.877,92.721 255.177 C 92.787 255.478,93.642 256.961,94.621 258.474 C 95.599 259.987,96.400 261.399,96.400 261.612 C 96.400 261.826,96.580 262.000,96.800 262.000 C 97.020 262.000,97.200 262.236,97.200 262.525 C 97.200 262.813,97.560 263.436,98.000 263.908 C 98.440 264.380,98.800 265.044,98.800 265.383 C 98.800 265.722,98.980 266.000,99.200 266.000 C 99.420 266.000,99.600 266.236,99.600 266.525 C 99.600 266.813,99.915 267.398,100.300 267.825 C 100.685 268.251,101.255 269.095,101.568 269.700 C 101.880 270.305,102.285 270.800,102.468 270.800 C 102.650 270.800,102.800 271.036,102.800 271.325 C 102.800 271.613,103.160 272.236,103.600 272.708 C 104.040 273.180,104.400 273.753,104.400 273.980 C 104.400 274.207,104.760 274.618,105.200 274.893 C 105.640 275.168,106.000 275.669,106.000 276.008 C 106.000 276.346,106.360 276.883,106.800 277.200 C 107.240 277.517,107.600 278.097,107.600 278.488 C 107.600 278.880,107.758 279.200,107.951 279.200 C 108.145 279.200,108.527 279.740,108.800 280.400 C 109.073 281.060,109.410 281.604,109.549 281.608 C 109.687 281.612,110.332 282.512,110.983 283.608 C 111.633 284.704,112.308 285.600,112.483 285.600 C 112.657 285.600,112.800 285.778,112.800 285.997 C 112.800 286.344,114.529 288.820,116.226 290.905 C 116.542 291.292,116.800 291.715,116.800 291.844 C 116.800 291.973,117.340 292.583,118.000 293.200 C 118.660 293.817,119.200 294.537,119.200 294.800 C 119.200 295.063,119.740 295.783,120.400 296.400 C 121.060 297.017,121.600 297.737,121.600 298.000 C 121.600 298.263,122.140 298.983,122.800 299.600 C 123.460 300.217,124.000 300.885,124.000 301.085 C 124.000 301.285,124.318 301.798,124.706 302.225 C 125.094 302.651,126.128 303.900,127.004 305.000 C 127.880 306.100,129.182 307.603,129.898 308.340 C 130.614 309.077,131.200 309.837,131.200 310.029 C 131.200 310.222,131.967 311.149,132.905 312.089 C 133.843 313.030,135.056 314.430,135.601 315.200 C 136.145 315.970,137.493 317.519,138.595 318.642 C 139.698 319.765,141.210 321.440,141.956 322.364 C 144.518 325.539,164.762 345.600,165.405 345.600 C 165.536 345.600,166.669 346.639,167.922 347.910 C 169.175 349.180,170.830 350.662,171.600 351.203 C 172.370 351.744,173.569 352.730,174.265 353.393 C 174.961 354.057,176.728 355.500,178.191 356.600 C 179.655 357.700,181.506 359.185,182.304 359.900 C 183.103 360.615,183.951 361.200,184.190 361.200 C 184.428 361.200,184.883 361.560,185.200 362.000 C 185.517 362.440,186.009 362.800,186.292 362.800 C 186.575 362.800,187.372 363.340,188.063 364.000 C 188.754 364.660,189.496 365.200,189.712 365.200 C 189.929 365.200,190.397 365.517,190.753 365.905 C 191.109 366.293,192.074 367.058,192.897 367.605 C 193.721 368.152,194.396 368.735,194.397 368.900 C 194.399 369.065,194.588 369.200,194.818 369.200 C 195.048 369.200,196.570 370.100,198.200 371.200 C 199.830 372.300,201.352 373.200,201.582 373.200 C 201.812 373.200,202.000 373.353,202.000 373.539 C 202.000 373.726,202.720 374.203,203.600 374.600 C 204.480 374.997,205.200 375.474,205.200 375.661 C 205.200 375.847,205.478 376.000,205.817 376.000 C 206.156 376.000,206.820 376.360,207.292 376.800 C 207.764 377.240,208.387 377.600,208.675 377.600 C 208.964 377.600,209.200 377.736,209.200 377.902 C 209.200 378.069,209.785 378.459,210.500 378.770 C 211.215 379.081,211.890 379.440,212.000 379.568 C 212.333 379.954,214.553 381.234,215.300 381.471 C 215.685 381.593,216.000 381.852,216.000 382.047 C 216.000 382.241,216.345 382.400,216.767 382.400 C 217.188 382.400,217.593 382.535,217.667 382.700 C 217.859 383.132,221.172 384.800,221.838 384.800 C 222.147 384.800,222.400 384.980,222.400 385.200 C 222.400 385.420,222.760 385.600,223.200 385.600 C 223.640 385.600,224.000 385.780,224.000 386.000 C 224.000 386.220,224.345 386.400,224.767 386.400 C 225.188 386.400,225.593 386.543,225.667 386.718 C 225.900 387.275,234.349 391.242,235.804 391.478 C 236.572 391.603,237.200 391.861,237.200 392.052 C 237.200 392.244,237.560 392.400,238.000 392.400 C 238.440 392.400,238.800 392.580,238.800 392.800 C 238.800 393.020,239.340 393.200,240.000 393.200 C 240.660 393.200,241.200 393.380,241.200 393.600 C 241.200 393.820,241.560 394.000,242.000 394.000 C 242.440 394.000,242.800 394.180,242.800 394.400 C 242.800 394.620,243.149 394.800,243.576 394.800 C 244.003 394.800,244.464 394.980,244.600 395.200 C 244.736 395.420,245.366 395.600,246.000 395.600 C 246.634 395.600,247.264 395.780,247.400 396.000 C 247.536 396.220,248.346 396.400,249.200 396.400 C 250.054 396.400,250.864 396.580,251.000 396.800 C 251.136 397.020,252.137 397.200,253.224 397.200 C 254.311 397.200,255.200 397.380,255.200 397.600 C 255.200 397.820,256.179 398.000,257.376 398.000 C 258.573 398.000,259.664 398.180,259.800 398.400 C 259.936 398.620,261.351 398.800,262.944 398.800 C 264.727 398.800,266.032 398.992,266.340 399.300 C 266.726 399.686,271.205 399.800,285.999 399.800 C 300.794 399.800,305.273 399.686,305.660 399.300 C 305.935 399.025,306.934 398.800,307.880 398.800 C 308.826 398.800,309.600 398.620,309.600 398.400 C 309.600 398.180,310.500 398.000,311.600 398.000 C 312.700 398.000,313.600 397.820,313.600 397.600 C 313.600 397.380,314.140 397.200,314.800 397.200 C 315.460 397.200,316.000 397.020,316.000 396.800 C 316.000 396.580,316.439 396.400,316.976 396.400 C 317.513 396.400,318.064 396.220,318.200 396.000 C 318.336 395.780,318.977 395.600,319.624 395.600 C 320.271 395.600,320.800 395.420,320.800 395.200 C 320.800 394.980,321.239 394.800,321.776 394.800 C 322.313 394.800,322.864 394.620,323.000 394.400 C 323.136 394.180,323.597 394.000,324.024 394.000 C 324.451 394.000,324.801 393.865,324.803 393.700 C 324.807 393.294,326.786 392.400,327.680 392.400 C 328.076 392.400,328.400 392.220,328.400 392.000 C 328.400 391.780,328.715 391.599,329.100 391.598 C 329.485 391.597,330.700 391.124,331.800 390.547 C 332.900 389.970,334.204 389.296,334.697 389.049 C 335.190 388.802,335.595 388.465,335.597 388.300 C 335.599 388.135,335.793 388.000,336.028 388.000 C 336.263 388.000,337.241 387.460,338.200 386.800 C 339.159 386.140,340.097 385.600,340.284 385.600 C 340.471 385.600,340.883 385.240,341.200 384.800 C 341.517 384.360,341.985 384.000,342.240 384.000 C 342.495 384.000,343.445 383.280,344.352 382.400 C 345.259 381.520,346.152 380.800,346.337 380.800 C 347.355 380.800,360.380 367.700,360.395 366.660 C 360.398 366.474,360.895 365.839,361.500 365.250 C 363.914 362.898,363.680 361.481,361.167 363.237 C 357.083 366.091,348.166 370.557,342.532 372.570 C 324.294 379.086,304.150 379.693,275.589 374.585 C 264.260 372.559,243.332 362.980,226.000 351.886 C 223.910 350.548,221.210 348.825,220.000 348.058 C 215.815 345.402,202.014 335.287,200.800 333.986 C 200.690 333.868,199.160 332.614,197.400 331.199 C 187.166 322.972,170.946 307.200,160.995 295.800 C 157.922 292.280,155.312 289.310,155.194 289.200 C 153.763 287.858,139.704 269.667,134.765 262.765 C 129.990 256.093,120.936 242.152,117.900 236.800 C 117.464 236.030,116.792 234.950,116.409 234.400 C 115.112 232.542,110.915 225.427,108.504 221.000 C 107.186 218.580,104.771 214.167,103.136 211.193 C 100.583 206.548,89.200 183.873,89.200 183.433 C 89.200 183.349,88.471 181.687,87.581 179.740 C 83.036 169.804,82.355 168.234,78.953 159.855 C 75.957 152.477,73.032 144.803,71.995 141.600 C 71.817 141.050,71.125 139.115,70.458 137.300 C 69.127 133.680,69.175 133.477,70.978 135.099 C 72.062 136.074,72.046 136.031,70.837 134.715 C 70.087 133.899,69.337 133.315,69.171 133.418 C 69.004 133.521,68.793 133.380,68.701 133.104 C 68.610 132.829,68.418 133.503,68.275 134.602 M85.400 149.600 C 86.928 151.140,88.269 152.400,88.379 152.400 C 88.489 152.400,87.328 151.140,85.800 149.600 C 84.272 148.060,82.931 146.800,82.821 146.800 C 82.711 146.800,83.872 148.060,85.400 149.600 M180.800 153.825 C 180.800 154.125,181.873 155.200,182.171 155.200 C 182.680 155.200,182.351 154.562,181.600 154.093 C 181.160 153.818,180.800 153.698,180.800 153.825 M184.800 157.029 C 184.800 157.453,186.036 158.497,186.267 158.267 C 186.392 158.141,186.217 157.760,185.876 157.419 C 185.241 156.784,184.800 156.624,184.800 157.029 M189.029 160.312 C 191.048 162.100,192.549 163.200,192.968 163.200 C 193.185 163.200,192.951 162.885,192.449 162.500 C 191.946 162.115,190.813 161.215,189.930 160.500 C 187.989 158.929,187.306 158.786,189.029 160.312 M194.400 164.385 C 195.936 165.672,197.278 166.367,196.175 165.303 C 195.721 164.866,194.911 164.292,194.375 164.027 L 193.400 163.546 194.400 164.385 M103.200 166.600 C 104.395 167.810,105.463 168.800,105.573 168.800 C 105.683 168.800,104.795 167.810,103.600 166.600 C 102.405 165.390,101.337 164.400,101.227 164.400 C 101.117 164.400,102.005 165.390,103.200 166.600 M197.802 166.802 C 198.202 167.244,198.611 167.522,198.712 167.421 C 198.928 167.205,197.788 166.000,197.367 166.000 C 197.207 166.000,197.403 166.361,197.802 166.802 M199.994 168.382 C 200.541 168.802,201.057 169.076,201.142 168.992 C 201.404 168.729,200.086 167.600,199.529 167.609 C 199.238 167.614,199.447 167.961,199.994 168.382 M202.000 169.425 C 202.000 169.725,203.073 170.800,203.371 170.800 C 203.880 170.800,203.551 170.162,202.800 169.693 C 202.360 169.418,202.000 169.298,202.000 169.425 M206.599 172.798 C 207.007 173.458,208.400 174.089,208.400 173.614 C 208.400 173.386,208.130 173.200,207.800 173.200 C 207.470 173.200,207.200 173.020,207.200 172.800 C 207.200 172.580,207.009 172.400,206.776 172.400 C 206.543 172.400,206.463 172.579,206.599 172.798 M211.200 176.000 C 211.200 176.220,211.605 176.397,212.100 176.394 C 212.828 176.389,212.885 176.314,212.400 176.000 C 211.624 175.499,211.200 175.499,211.200 176.000 M212.833 176.941 C 213.601 177.593,216.800 179.203,216.800 178.937 C 216.800 178.580,213.660 176.797,213.033 176.799 C 212.832 176.800,212.742 176.864,212.833 176.941 M217.564 179.757 C 217.818 180.063,218.425 180.416,218.913 180.541 C 219.756 180.757,219.750 180.730,218.800 179.993 C 217.636 179.091,216.894 178.949,217.564 179.757 M222.000 182.362 C 223.080 183.248,223.600 183.406,223.600 182.847 C 223.600 182.652,223.285 182.382,222.900 182.246 C 222.515 182.111,221.930 181.896,221.600 181.770 C 221.270 181.644,221.450 181.910,222.000 182.362 M245.200 194.993 C 245.200 195.193,249.008 197.200,249.387 197.200 C 249.504 197.200,249.600 197.020,249.600 196.800 C 249.600 196.580,249.335 196.400,249.012 196.400 C 248.689 196.400,247.783 196.040,247.000 195.600 C 245.528 194.773,245.200 194.663,245.200 194.993 M274.200 208.800 C 274.336 209.020,274.717 209.200,275.047 209.200 C 275.377 209.200,275.536 209.020,275.400 208.800 C 275.264 208.580,274.883 208.400,274.553 208.400 C 274.223 208.400,274.064 208.580,274.200 208.800 M280.123 211.041 C 280.741 211.376,281.551 211.569,281.923 211.471 C 282.418 211.341,282.364 211.280,281.724 211.246 C 281.242 211.221,280.736 211.020,280.600 210.800 C 280.464 210.580,280.048 210.407,279.676 210.416 C 279.224 210.427,279.372 210.634,280.123 211.041 M283.200 212.400 C 283.530 212.613,284.070 212.788,284.400 212.788 C 284.933 212.788,284.933 212.745,284.400 212.400 C 284.070 212.187,283.530 212.012,283.200 212.012 C 282.667 212.012,282.667 212.055,283.200 212.400 M289.600 214.800 C 289.600 215.020,289.870 215.200,290.200 215.200 C 290.530 215.200,290.800 215.020,290.800 214.800 C 290.800 214.580,290.530 214.400,290.200 214.400 C 289.870 214.400,289.600 214.580,289.600 214.800 M294.200 216.400 C 294.336 216.620,294.717 216.800,295.047 216.800 C 295.377 216.800,295.536 216.620,295.400 216.400 C 295.264 216.180,294.883 216.000,294.553 216.000 C 294.223 216.000,294.064 216.180,294.200 216.400 M327.994 231.582 C 328.541 232.002,329.068 232.266,329.165 232.169 C 329.391 231.942,327.929 230.827,327.400 230.822 C 327.180 230.820,327.447 231.161,327.994 231.582 M331.776 233.813 C 332.204 234.136,332.733 234.400,332.953 234.400 C 333.173 234.400,333.004 234.136,332.576 233.813 C 332.149 233.490,331.620 233.225,331.400 233.225 C 331.180 233.225,331.349 233.490,331.776 233.813 M344.800 243.200 C 344.800 243.420,344.935 243.600,345.100 243.601 C 345.265 243.601,346.210 244.321,347.200 245.200 C 349.205 246.981,350.371 247.433,348.491 245.700 C 345.414 242.863,344.800 242.447,344.800 243.200 M353.200 250.592 C 355.070 252.563,356.645 254.256,356.700 254.355 C 356.755 254.453,356.800 254.338,356.800 254.098 C 356.800 253.654,355.225 252.003,351.751 248.804 C 350.678 247.816,351.330 248.621,353.200 250.592 M358.041 255.400 C 358.015 256.219,359.083 257.713,359.367 257.254 C 359.521 257.004,359.484 256.800,359.285 256.800 C 359.085 256.800,358.727 256.395,358.488 255.900 C 358.249 255.405,358.048 255.180,358.041 255.400 M359.600 257.829 C 359.600 258.253,360.836 259.297,361.067 259.067 C 361.192 258.941,361.017 258.560,360.676 258.219 C 360.041 257.584,359.600 257.424,359.600 257.829 M371.272 275.700 C 371.547 276.195,371.778 276.720,371.786 276.867 C 371.809 277.305,372.400 277.766,372.400 277.346 C 372.400 276.701,371.421 274.806,371.086 274.803 C 370.913 274.801,370.997 275.205,371.272 275.700 M372.608 278.850 C 372.769 279.372,373.153 280.295,373.461 280.900 C 373.769 281.505,373.881 282.003,373.710 282.006 C 373.540 282.009,373.591 282.144,373.825 282.306 C 374.058 282.468,374.457 283.230,374.710 284.000 L 375.171 285.400 374.939 284.000 C 374.811 283.230,374.367 281.891,373.953 281.025 C 373.539 280.159,373.200 279.224,373.200 278.948 C 373.200 278.673,373.001 278.324,372.757 278.174 C 372.453 277.986,372.406 278.198,372.608 278.850 M378.406 302.100 C 378.409 302.595,378.587 303.270,378.800 303.600 C 379.088 304.046,379.189 303.816,379.194 302.700 C 379.197 301.875,379.020 301.200,378.800 301.200 C 378.580 301.200,378.403 301.605,378.406 302.100 M378.400 322.424 C 378.400 322.877,378.580 323.136,378.800 323.000 C 379.020 322.864,379.200 322.493,379.200 322.176 C 379.200 321.859,379.020 321.600,378.800 321.600 C 378.580 321.600,378.400 321.971,378.400 322.424 M377.771 327.600 C 377.771 328.040,377.913 328.400,378.086 328.400 C 378.259 328.400,378.400 328.040,378.400 327.600 C 378.400 327.160,378.259 326.800,378.086 326.800 C 377.913 326.800,377.771 327.160,377.771 327.600 M377.012 331.317 C 376.841 331.712,376.813 332.147,376.951 332.284 C 377.357 332.690,377.684 332.120,377.497 331.331 C 377.332 330.633,377.310 330.632,377.012 331.317 M374.293 340.900 C 374.108 342.117,374.215 342.749,374.543 342.367 C 374.895 341.955,375.144 339.600,374.835 339.600 C 374.646 339.600,374.402 340.185,374.293 340.900 M373.277 344.138 C 373.015 344.864,372.809 345.714,372.819 346.028 C 372.830 346.343,373.112 345.818,373.447 344.861 C 373.782 343.905,373.988 343.055,373.905 342.971 C 373.822 342.888,373.539 343.413,373.277 344.138 M366.800 356.838 C 366.800 357.079,366.428 357.799,365.973 358.438 C 365.518 359.077,365.293 359.599,365.473 359.597 C 365.653 359.596,366.156 359.011,366.590 358.297 C 367.691 356.491,367.722 356.400,367.233 356.400 C 366.995 356.400,366.800 356.597,366.800 356.838 " stroke="none" fill="#6c2c93" fill-rule="evenodd"></path><path id="path2" d="M104.175 111.500 C 104.322 112.105,104.613 113.365,104.821 114.300 C 105.030 115.235,105.392 116.855,105.626 117.900 C 105.860 118.945,106.149 120.520,106.267 121.400 C 106.385 122.280,106.644 123.171,106.841 123.380 C 107.038 123.589,107.200 124.523,107.200 125.456 C 107.200 126.389,107.380 127.264,107.600 127.400 C 107.820 127.536,108.000 128.346,108.000 129.200 C 108.000 130.054,108.180 130.864,108.400 131.000 C 108.620 131.136,108.800 131.946,108.800 132.800 C 108.800 133.654,108.980 134.464,109.200 134.600 C 109.420 134.736,109.600 135.636,109.600 136.600 C 109.600 137.564,109.780 138.464,110.000 138.600 C 110.220 138.736,110.400 139.521,110.400 140.344 C 110.400 141.167,110.563 142.011,110.761 142.220 C 110.960 142.429,111.219 143.410,111.338 144.400 C 111.456 145.390,111.754 147.190,112.000 148.400 C 112.246 149.610,112.544 151.410,112.662 152.400 C 112.781 153.390,113.040 154.371,113.239 154.580 C 113.437 154.789,113.600 155.698,113.600 156.600 C 113.600 157.502,113.763 158.411,113.961 158.620 C 114.160 158.829,114.423 159.810,114.546 160.800 C 114.670 161.790,114.966 163.770,115.206 165.200 C 115.730 168.326,116.251 174.440,116.071 175.348 C 115.820 176.610,113.295 175.441,110.047 172.560 C 109.471 172.049,108.081 170.859,106.957 169.916 C 103.137 166.707,95.119 159.026,82.512 146.500 C 75.593 139.625,69.777 134.000,69.588 134.000 C 69.399 134.000,69.791 135.485,70.458 137.300 C 71.125 139.115,71.817 141.050,71.995 141.600 C 73.032 144.803,75.957 152.477,78.953 159.855 C 82.355 168.234,83.036 169.804,87.581 179.740 C 88.471 181.687,89.200 183.349,89.200 183.433 C 89.200 183.873,100.583 206.548,103.136 211.193 C 104.771 214.167,107.186 218.580,108.504 221.000 C 110.915 225.427,115.112 232.542,116.409 234.400 C 116.792 234.950,117.464 236.030,117.900 236.800 C 120.936 242.152,129.990 256.093,134.765 262.765 C 139.704 269.667,153.763 287.858,155.194 289.200 C 155.312 289.310,157.922 292.280,160.995 295.800 C 170.946 307.200,187.166 322.972,197.400 331.199 C 199.160 332.614,200.690 333.868,200.800 333.986 C 202.014 335.287,215.815 345.402,220.000 348.058 C 221.210 348.825,223.910 350.548,226.000 351.886 C 243.332 362.980,264.260 372.559,275.589 374.585 C 311.434 380.995,334.879 378.485,356.767 365.896 C 358.619 364.831,360.643 363.597,361.264 363.154 C 361.886 362.712,362.544 362.442,362.726 362.554 C 363.096 362.783,364.400 361.412,364.400 360.795 C 364.400 360.578,364.536 360.400,364.702 360.400 C 364.869 360.400,365.244 359.859,365.537 359.198 C 365.830 358.536,366.196 358.074,366.351 358.170 C 366.507 358.266,366.660 358.002,366.691 357.583 C 366.723 357.164,367.120 356.423,367.574 355.935 C 368.028 355.448,368.400 354.813,368.400 354.525 C 368.400 354.236,368.580 354.000,368.800 354.000 C 369.020 354.000,369.200 353.752,369.200 353.449 C 369.200 353.146,369.468 352.676,369.796 352.404 C 370.123 352.132,370.300 351.762,370.189 351.582 C 370.078 351.402,370.170 351.142,370.393 351.004 C 370.617 350.866,370.800 350.403,370.800 349.976 C 370.800 349.549,370.959 349.200,371.153 349.200 C 371.348 349.200,371.604 348.885,371.723 348.500 C 371.842 348.115,372.493 346.294,373.169 344.454 C 373.846 342.614,374.400 340.769,374.400 340.354 C 374.400 339.939,374.580 339.600,374.800 339.600 C 375.020 339.600,375.179 339.465,375.153 339.300 C 374.996 338.309,375.260 337.190,375.600 337.400 C 375.838 337.547,376.000 337.079,376.000 336.247 C 376.000 335.477,376.180 334.736,376.400 334.600 C 376.620 334.464,376.800 333.679,376.800 332.856 C 376.800 332.033,376.970 331.189,377.178 330.980 C 377.386 330.771,377.611 329.745,377.678 328.700 C 377.745 327.655,377.935 326.800,378.100 326.800 C 378.265 326.800,378.400 325.630,378.400 324.200 C 378.400 322.770,378.573 321.600,378.785 321.600 C 379.026 321.600,379.111 318.251,379.013 312.700 C 378.839 302.889,378.483 297.102,378.069 297.355 C 377.921 297.446,377.760 296.726,377.711 295.755 C 377.663 294.784,377.438 293.644,377.211 293.221 C 376.985 292.798,376.800 291.911,376.800 291.250 C 376.800 290.588,376.620 289.936,376.400 289.800 C 376.180 289.664,376.000 289.023,376.000 288.376 C 376.000 287.729,375.857 287.200,375.683 287.200 C 375.508 287.200,375.125 286.120,374.833 284.800 C 374.540 283.480,374.113 282.400,373.883 282.400 C 373.654 282.400,373.570 282.296,373.697 282.169 C 373.824 282.043,373.575 281.140,373.143 280.165 C 372.712 279.189,372.457 278.232,372.577 278.037 C 372.697 277.843,372.501 277.571,372.140 277.432 C 371.780 277.294,371.591 277.076,371.720 276.947 C 371.849 276.818,371.541 276.057,371.036 275.256 C 370.530 274.455,369.974 273.350,369.800 272.800 C 369.626 272.250,369.059 271.129,368.542 270.308 C 368.024 269.487,367.600 268.632,367.600 268.408 C 367.600 268.184,367.448 268.000,367.263 268.000 C 367.077 268.000,366.509 267.190,366.000 266.200 C 365.491 265.210,364.923 264.400,364.737 264.400 C 364.552 264.400,364.400 264.132,364.400 263.803 C 364.400 263.475,364.040 262.982,363.600 262.707 C 363.160 262.432,362.800 261.988,362.800 261.720 C 362.800 261.452,362.080 260.498,361.200 259.600 C 360.320 258.702,359.600 257.784,359.600 257.560 C 359.600 257.336,359.446 257.248,359.258 257.364 C 359.071 257.480,358.721 257.145,358.481 256.619 C 358.242 256.093,357.180 254.729,356.123 253.588 C 355.065 252.447,354.260 251.308,354.333 251.057 C 354.407 250.806,354.328 250.739,354.158 250.909 C 353.734 251.333,350.374 247.974,350.681 247.434 C 350.817 247.195,350.780 247.134,350.599 247.298 C 350.071 247.777,345.663 244.238,345.895 243.522 C 345.948 243.361,345.723 243.332,345.395 243.457 C 345.020 243.601,344.800 243.448,344.800 243.043 C 344.800 242.689,344.553 242.400,344.251 242.400 C 343.793 242.400,341.270 240.566,337.895 237.781 C 337.508 237.462,337.013 237.200,336.795 237.200 C 336.578 237.200,336.400 237.020,336.400 236.800 C 336.400 236.580,336.130 236.400,335.800 236.400 C 335.470 236.400,335.200 236.220,335.200 236.000 C 335.200 235.780,334.930 235.600,334.600 235.600 C 334.270 235.600,334.000 235.465,334.000 235.299 C 334.000 235.134,333.145 234.553,332.100 234.009 C 331.055 233.465,330.110 232.925,330.000 232.810 C 329.890 232.694,329.395 232.375,328.900 232.100 C 326.639 230.844,326.196 230.568,325.683 230.096 C 325.382 229.819,324.970 229.695,324.768 229.820 C 324.565 229.945,324.400 229.857,324.400 229.624 C 324.400 229.391,324.197 229.200,323.949 229.200 C 323.700 229.200,322.420 228.465,321.104 227.567 C 319.788 226.669,318.832 226.129,318.979 226.367 C 319.404 227.053,318.843 226.871,317.939 226.029 C 317.484 225.606,316.886 225.346,316.609 225.452 C 316.332 225.558,315.446 225.275,314.640 224.823 C 313.835 224.370,312.911 224.000,312.588 224.000 C 312.265 224.000,312.000 223.820,312.000 223.600 C 312.000 223.380,311.640 223.200,311.200 223.200 C 310.760 223.200,310.400 223.020,310.400 222.800 C 310.400 222.580,310.040 222.400,309.600 222.400 C 309.160 222.400,308.800 222.220,308.800 222.000 C 308.800 221.780,308.429 221.600,307.976 221.600 C 307.523 221.600,307.241 221.457,307.349 221.283 C 307.456 221.109,306.972 220.923,306.272 220.870 C 305.573 220.818,304.940 220.600,304.867 220.387 C 304.793 220.174,304.298 220.000,303.767 220.000 C 303.235 220.000,302.800 219.820,302.800 219.600 C 302.800 219.380,302.440 219.200,302.000 219.200 C 301.560 219.200,301.200 219.020,301.200 218.800 C 301.200 218.580,300.660 218.400,300.000 218.400 C 299.340 218.400,298.800 218.220,298.800 218.000 C 298.800 217.780,298.429 217.600,297.976 217.600 C 297.523 217.600,297.245 217.450,297.359 217.267 C 297.472 217.083,297.032 216.933,296.381 216.933 C 295.313 216.933,294.431 216.635,292.305 215.553 C 291.923 215.359,291.158 215.200,290.605 215.200 C 290.052 215.200,289.600 215.020,289.600 214.800 C 289.600 214.580,289.328 214.400,288.995 214.400 C 288.662 214.400,288.032 214.220,287.595 214.000 C 287.158 213.780,286.442 213.420,286.005 213.200 C 285.568 212.980,284.883 212.800,284.482 212.800 C 284.081 212.800,283.404 212.536,282.976 212.213 C 282.549 211.890,281.998 211.620,281.751 211.613 C 281.504 211.606,280.424 211.203,279.351 210.717 C 278.278 210.231,277.258 209.826,277.085 209.817 C 276.912 209.808,276.618 209.552,276.430 209.249 C 276.242 208.944,275.874 208.831,275.607 208.996 C 275.341 209.160,274.736 209.117,274.262 208.901 C 273.788 208.684,272.860 208.266,272.200 207.971 C 271.540 207.676,270.666 207.157,270.258 206.817 C 269.850 206.478,269.490 206.257,269.458 206.326 C 269.301 206.667,264.296 204.416,264.067 203.900 C 263.993 203.735,263.676 203.600,263.361 203.600 C 263.047 203.600,262.477 203.435,262.095 203.233 C 260.875 202.588,257.620 201.200,257.304 201.191 C 257.137 201.186,256.550 200.830,256.000 200.400 C 255.450 199.970,254.685 199.614,254.300 199.609 C 253.915 199.604,253.600 199.420,253.600 199.200 C 253.600 198.980,253.251 198.800,252.824 198.800 C 252.397 198.800,251.936 198.620,251.800 198.400 C 251.664 198.180,251.218 198.000,250.810 198.000 C 250.401 198.000,250.007 197.865,249.933 197.700 C 249.860 197.535,248.322 196.680,246.516 195.800 C 244.710 194.920,243.225 193.975,243.216 193.700 C 243.207 193.425,242.739 193.200,242.176 193.200 C 241.613 193.200,241.258 193.029,241.387 192.821 C 241.516 192.612,241.257 192.512,240.811 192.598 C 240.365 192.684,240.000 192.584,240.000 192.377 C 240.000 192.170,239.685 191.996,239.300 191.991 C 238.915 191.986,238.150 191.630,237.600 191.200 C 237.050 190.770,236.285 190.414,235.900 190.409 C 235.515 190.404,235.200 190.264,235.200 190.098 C 235.200 189.931,234.615 189.541,233.900 189.230 C 233.185 188.919,232.510 188.555,232.400 188.422 C 232.290 188.289,231.345 187.735,230.300 187.191 C 229.255 186.647,228.400 186.066,228.400 185.901 C 228.400 185.735,228.040 185.600,227.600 185.600 C 227.160 185.600,226.800 185.441,226.800 185.247 C 226.800 185.052,226.485 184.775,226.100 184.630 C 225.306 184.332,223.804 183.496,220.959 181.772 C 217.879 179.905,217.539 179.704,215.100 178.320 C 213.835 177.603,212.800 176.877,212.800 176.708 C 212.800 176.538,212.440 176.400,212.000 176.400 C 211.542 176.400,211.200 176.133,211.200 175.776 C 211.200 175.433,211.020 175.264,210.800 175.400 C 210.580 175.536,210.400 175.457,210.400 175.224 C 210.400 174.991,210.201 174.800,209.958 174.800 C 209.715 174.800,208.716 174.260,207.738 173.600 C 206.760 172.940,205.778 172.400,205.556 172.400 C 205.334 172.400,205.240 172.258,205.348 172.085 C 205.455 171.912,204.970 171.520,204.271 171.215 C 203.572 170.910,202.730 170.376,202.400 170.028 C 202.070 169.679,201.343 169.161,200.785 168.875 C 199.057 167.991,196.409 165.725,196.712 165.390 C 196.871 165.215,196.777 165.200,196.504 165.357 C 196.219 165.521,195.258 165.081,194.244 164.321 C 193.274 163.595,191.968 162.640,191.340 162.200 C 190.713 161.760,189.496 160.725,188.636 159.900 C 187.776 159.075,186.818 158.400,186.508 158.400 C 185.831 158.400,184.800 157.437,184.800 156.805 C 184.800 156.556,184.647 156.447,184.461 156.563 C 184.274 156.678,183.741 156.419,183.277 155.986 C 182.813 155.554,182.318 155.200,182.177 155.200 C 182.036 155.200,181.444 154.698,180.860 154.085 C 180.277 153.471,179.260 152.590,178.600 152.126 C 176.453 150.619,172.016 146.299,172.240 145.935 C 172.361 145.740,172.275 145.630,172.050 145.690 C 171.357 145.876,169.184 144.231,169.393 143.679 C 169.502 143.393,169.425 143.261,169.222 143.386 C 169.019 143.512,166.156 140.911,162.860 137.607 C 159.563 134.303,156.688 131.600,156.471 131.600 C 156.254 131.600,155.294 131.214,154.338 130.743 C 153.382 130.272,152.195 129.732,151.700 129.543 C 150.034 128.908,148.605 128.309,147.905 127.953 C 147.523 127.759,146.938 127.600,146.605 127.600 C 146.272 127.600,146.000 127.420,146.000 127.200 C 146.000 126.980,145.728 126.800,145.395 126.800 C 145.062 126.800,144.477 126.641,144.095 126.447 C 143.713 126.252,142.950 125.916,142.400 125.700 C 140.646 125.011,139.021 124.317,138.305 123.953 C 137.923 123.759,137.338 123.600,137.005 123.600 C 136.672 123.600,136.400 123.420,136.400 123.200 C 136.400 122.980,135.986 122.800,135.480 122.800 C 134.974 122.800,134.389 122.647,134.180 122.461 C 133.971 122.274,131.640 121.270,129.000 120.229 C 126.360 119.189,123.437 117.991,122.504 117.569 C 121.572 117.146,120.654 116.800,120.466 116.800 C 120.277 116.800,119.600 116.550,118.961 116.244 C 117.780 115.678,115.409 114.647,113.600 113.913 C 113.050 113.689,112.287 113.348,111.905 113.153 C 111.523 112.959,110.938 112.800,110.605 112.800 C 110.272 112.800,110.000 112.620,110.000 112.400 C 110.000 112.180,109.645 112.000,109.212 112.000 C 108.779 112.000,107.783 111.640,107.000 111.200 C 104.872 110.005,103.837 110.115,104.175 111.500 " stroke="none" fill="#8334ab" fill-rule="evenodd"></path><path id="path3" d="M103.467 109.500 C 103.367 109.665,103.426 110.520,103.597 111.400 L 103.908 113.000 103.954 111.313 C 103.992 109.913,104.113 109.669,104.666 109.881 C 105.113 110.052,105.236 109.983,105.042 109.668 C 104.718 109.144,103.744 109.040,103.467 109.500 M104.282 114.821 C 104.407 115.799,104.664 116.903,104.854 117.274 C 105.044 117.644,105.203 118.454,105.206 119.074 C 105.209 119.693,105.377 120.461,105.579 120.779 C 106.044 121.514,105.637 118.084,105.146 117.126 C 104.956 116.756,104.797 115.946,104.794 115.326 C 104.791 114.707,104.623 113.939,104.421 113.621 C 104.184 113.246,104.135 113.669,104.282 114.821 M131.200 120.616 C 131.200 120.728,131.605 120.977,132.100 121.169 C 132.595 121.361,133.945 121.894,135.100 122.353 C 136.255 122.813,137.200 123.096,137.200 122.984 C 137.200 122.872,136.795 122.623,136.300 122.431 C 135.805 122.239,134.455 121.706,133.300 121.247 C 132.145 120.787,131.200 120.504,131.200 120.616 M106.093 122.800 C 106.093 123.570,106.175 123.885,106.276 123.500 C 106.376 123.115,106.376 122.485,106.276 122.100 C 106.175 121.715,106.093 122.030,106.093 122.800 M106.806 126.633 C 106.809 127.275,106.984 128.070,107.195 128.400 C 107.455 128.809,107.499 128.490,107.332 127.400 C 107.029 125.423,106.798 125.086,106.806 126.633 M107.606 130.233 C 107.609 130.875,107.784 131.670,107.995 132.000 C 108.255 132.409,108.299 132.090,108.132 131.000 C 107.829 129.023,107.598 128.686,107.606 130.233 M108.406 134.233 C 108.409 134.875,108.584 135.670,108.795 136.000 C 109.055 136.409,109.099 136.090,108.932 135.000 C 108.629 133.023,108.398 132.686,108.406 134.233 M67.654 134.800 C 67.619 135.350,67.496 136.250,67.383 136.800 L 67.177 137.800 67.607 136.815 C 67.843 136.274,67.965 135.374,67.878 134.815 L 67.720 133.800 67.654 134.800 M109.206 138.033 C 109.209 138.565,109.389 139.270,109.606 139.600 C 109.882 140.022,109.923 139.785,109.742 138.800 C 109.425 137.075,109.198 136.749,109.206 138.033 M75.002 138.802 C 75.402 139.244,75.811 139.522,75.912 139.421 C 76.128 139.205,74.988 138.000,74.567 138.000 C 74.407 138.000,74.603 138.361,75.002 138.802 M66.655 141.055 C 66.513 142.086,66.474 143.008,66.569 143.102 C 66.663 143.196,66.865 142.439,67.018 141.418 C 67.171 140.398,67.210 139.476,67.104 139.371 C 66.998 139.265,66.796 140.023,66.655 141.055 M110.006 141.833 C 110.009 142.475,110.184 143.270,110.395 143.600 C 110.655 144.009,110.699 143.690,110.532 142.600 C 110.229 140.623,109.998 140.286,110.006 141.833 M65.850 146.450 C 65.517 148.117,65.840 148.440,66.200 146.800 C 66.352 146.109,66.393 145.459,66.291 145.358 C 66.189 145.256,65.991 145.747,65.850 146.450 M110.806 146.233 C 110.809 146.655,110.995 147.270,111.218 147.600 C 111.515 148.038,111.552 147.876,111.356 147.000 C 111.027 145.529,110.798 145.210,110.806 146.233 M84.400 147.718 C 84.400 148.119,89.617 153.316,89.818 153.115 C 89.906 153.028,88.722 151.711,87.189 150.189 C 85.655 148.667,84.400 147.555,84.400 147.718 M111.668 150.200 C 111.662 150.640,111.811 151.360,112.000 151.800 C 112.438 152.819,112.438 151.768,112.000 150.400 C 111.743 149.596,111.677 149.557,111.668 150.200 M65.050 151.650 C 64.717 153.317,65.040 153.640,65.400 152.000 C 65.552 151.309,65.593 150.659,65.491 150.558 C 65.389 150.456,65.191 150.947,65.050 151.650 M112.434 154.600 C 112.422 155.040,112.587 155.670,112.800 156.000 C 113.314 156.795,113.314 155.796,112.800 154.600 L 112.456 153.800 112.434 154.600 M64.240 156.840 C 64.093 157.757,64.052 158.585,64.147 158.680 C 64.242 158.776,64.446 158.110,64.600 157.200 C 64.754 156.290,64.796 155.462,64.693 155.360 C 64.590 155.257,64.387 155.923,64.240 156.840 M94.383 157.702 C 95.364 158.746,96.322 159.600,96.512 159.600 C 96.869 159.600,96.801 159.530,94.176 157.202 C 92.671 155.866,92.680 155.889,94.383 157.702 M113.212 158.800 C 113.212 159.130,113.387 159.670,113.600 160.000 C 113.945 160.533,113.988 160.533,113.988 160.000 C 113.988 159.670,113.813 159.130,113.600 158.800 C 113.255 158.267,113.212 158.267,113.212 158.800 M96.844 160.100 C 96.942 160.155,98.367 161.460,100.011 163.000 L 103.000 165.800 100.211 162.900 C 98.677 161.305,97.252 160.000,97.044 160.000 C 96.836 160.000,96.747 160.045,96.844 160.100 M63.400 162.400 C 63.248 163.091,63.207 163.741,63.309 163.842 C 63.411 163.944,63.609 163.453,63.750 162.750 C 64.083 161.083,63.760 160.760,63.400 162.400 M114.262 163.800 C 114.396 164.680,114.572 165.475,114.653 165.567 C 114.956 165.910,114.729 163.768,114.381 163.000 C 114.129 162.442,114.093 162.685,114.262 163.800 M103.200 165.768 C 103.200 166.114,103.313 166.223,107.400 169.820 C 109.160 171.369,111.320 173.139,112.200 173.752 C 113.988 174.999,113.112 174.161,109.747 171.405 C 108.676 170.528,106.765 168.836,105.500 167.644 C 104.235 166.453,103.200 165.608,103.200 165.768 M62.650 167.250 C 62.317 168.917,62.640 169.240,63.000 167.600 C 63.152 166.909,63.193 166.259,63.091 166.158 C 62.989 166.056,62.791 166.547,62.650 167.250 M114.875 167.800 C 114.886 168.240,115.032 169.140,115.200 169.800 L 115.505 171.000 115.525 169.800 C 115.535 169.140,115.389 168.240,115.200 167.800 L 114.856 167.000 114.875 167.800 M61.849 171.415 C 61.712 171.773,61.618 172.456,61.641 172.933 C 61.667 173.481,61.803 173.286,62.010 172.403 C 62.360 170.916,62.265 170.333,61.849 171.415 M61.000 176.800 C 60.846 177.710,60.804 178.538,60.907 178.640 C 61.010 178.743,61.213 178.077,61.360 177.160 C 61.507 176.243,61.548 175.415,61.453 175.320 C 61.358 175.224,61.154 175.890,61.000 176.800 M59.014 185.435 C 58.641 186.004,58.405 186.538,58.489 186.622 C 58.573 186.707,58.958 186.241,59.344 185.588 C 60.206 184.128,59.948 184.009,59.014 185.435 " stroke="none" fill="#646464" fill-rule="evenodd"></path><path id="path4" d="M68.067 134.100 L 68.134 135.800 68.290 134.321 C 68.414 133.148,68.586 132.887,69.123 133.059 C 69.701 133.244,69.712 133.212,69.200 132.844 C 68.191 132.118,67.997 132.333,68.067 134.100 M109.044 135.800 C 109.373 137.271,109.602 137.590,109.594 136.567 C 109.591 136.145,109.405 135.530,109.182 135.200 C 108.885 134.762,108.848 134.924,109.044 135.800 M67.456 137.284 C 67.321 137.788,67.231 138.830,67.255 139.600 C 67.289 140.669,67.375 140.480,67.618 138.802 C 67.953 136.492,67.872 135.733,67.456 137.284 M109.844 139.400 C 110.173 140.871,110.402 141.190,110.394 140.167 C 110.391 139.745,110.205 139.130,109.982 138.800 C 109.685 138.362,109.648 138.524,109.844 139.400 M110.668 143.800 C 110.971 145.777,111.202 146.114,111.194 144.567 C 111.191 143.925,111.016 143.130,110.805 142.800 C 110.545 142.391,110.501 142.710,110.668 143.800 M66.253 145.300 C 65.839 148.839,65.598 150.516,65.206 152.600 C 64.663 155.491,64.357 158.577,64.642 158.291 C 64.777 158.156,65.061 156.730,65.274 155.123 C 65.486 153.515,65.826 151.120,66.030 149.800 C 66.646 145.802,66.910 143.200,66.699 143.200 C 66.589 143.200,66.388 144.145,66.253 145.300 M111.468 147.800 C 111.771 149.777,112.002 150.114,111.994 148.567 C 111.991 147.925,111.816 147.130,111.605 146.800 C 111.345 146.391,111.301 146.710,111.468 147.800 M112.493 152.800 C 112.493 153.570,112.575 153.885,112.676 153.500 C 112.776 153.115,112.776 152.485,112.676 152.100 C 112.575 151.715,112.493 152.030,112.493 152.800 M93.400 157.200 C 94.259 158.080,95.052 158.800,95.162 158.800 C 95.272 158.800,94.659 158.080,93.800 157.200 C 92.941 156.320,92.148 155.600,92.038 155.600 C 91.928 155.600,92.541 156.320,93.400 157.200 M113.301 157.000 C 113.305 157.880,113.387 158.193,113.483 157.695 C 113.579 157.198,113.575 156.478,113.475 156.095 C 113.375 155.713,113.296 156.120,113.301 157.000 M64.064 160.200 C 64.023 161.080,63.896 162.250,63.783 162.800 L 63.577 163.800 64.008 162.814 C 64.244 162.272,64.371 161.102,64.289 160.214 L 64.140 158.600 64.064 160.200 M114.101 161.000 C 114.105 161.880,114.187 162.193,114.283 161.695 C 114.379 161.198,114.375 160.478,114.275 160.095 C 114.175 159.713,114.096 160.120,114.101 161.000 M99.000 162.400 C 100.083 163.500,101.060 164.400,101.170 164.400 C 101.280 164.400,100.483 163.500,99.400 162.400 C 98.317 161.300,97.340 160.400,97.230 160.400 C 97.120 160.400,97.917 161.300,99.000 162.400 M63.260 165.474 C 63.227 166.395,63.046 167.565,62.857 168.074 C 62.668 168.583,62.411 169.990,62.285 171.200 C 62.076 173.207,62.090 173.260,62.440 171.800 C 63.403 167.783,63.663 166.114,63.498 165.000 C 63.352 164.016,63.309 164.101,63.260 165.474 M114.901 165.800 C 114.905 166.680,114.987 166.993,115.083 166.495 C 115.179 165.998,115.175 165.278,115.075 164.895 C 114.975 164.513,114.896 164.920,114.901 165.800 M105.800 168.800 C 106.659 169.680,107.452 170.400,107.562 170.400 C 107.672 170.400,107.059 169.680,106.200 168.800 C 105.341 167.920,104.548 167.200,104.438 167.200 C 104.328 167.200,104.941 167.920,105.800 168.800 M115.679 172.543 C 115.608 175.354,115.526 175.657,114.900 175.419 C 114.339 175.205,114.299 175.252,114.700 175.656 C 115.628 176.591,116.043 175.448,115.898 172.361 L 115.759 169.400 115.679 172.543 M61.670 174.650 C 61.631 175.338,61.505 176.508,61.389 177.250 C 61.196 178.486,61.215 178.517,61.608 177.614 C 61.844 177.072,61.971 175.902,61.889 175.014 C 61.768 173.702,61.727 173.633,61.670 174.650 M60.870 179.650 C 60.831 180.228,60.698 181.308,60.573 182.050 C 60.389 183.151,60.430 183.270,60.796 182.695 C 61.043 182.307,61.177 181.227,61.093 180.295 C 61.009 179.363,60.908 179.072,60.870 179.650 M352.000 249.000 C 352.746 249.770,353.447 250.400,353.557 250.400 C 353.667 250.400,353.146 249.770,352.400 249.000 C 351.654 248.230,350.953 247.600,350.843 247.600 C 350.733 247.600,351.254 248.230,352.000 249.000 M351.775 376.100 L 350.600 377.400 351.900 376.225 C 352.615 375.579,353.200 374.994,353.200 374.925 C 353.200 374.616,352.870 374.888,351.775 376.100 " stroke="none" fill="#645468" fill-rule="evenodd"></path></g></svg>