<svg height="512" viewBox="0 0 512 512" width="512" xmlns="http://www.w3.org/2000/svg"><g id="Flat"><path d="m478.06006 41.93994a33.944 33.944 0 0 0 -48 0l-24.49 24.49a81.26777 81.26777 0 0 0 -19.64014 31.78l-3.85985 11.58006a80.72606 80.72606 0 0 1 -7.97009 17.04 81.3402 81.3402 0 0 1 -55.79993 37.45l-22.30005 3.72 64 64v-17.74a73.06242 73.06242 0 0 1 45.91992-67.83008l12.16016-4.85986a73.19509 73.19509 0 0 0 24.51992-16.17016l35.46008-35.46a33.944 33.944 0 0 0 0-48zm-22.06006 30.06006a8 8 0 1 1 8-8 7.9979 7.9979 0 0 1 -8 8z" fill="#c4d4e0"/><path d="m46.63779 397.40925 14.28431 16.30112a146.07553 146.07553 0 0 0 127.9819 48.67663l14.4075-1.80094a202.94418 202.94418 0 0 0 151.03276-100.68851l.00009-.00017a146.07536 146.07536 0 0 0 -6.696-155.57655v-.00008z" fill="#e44b4d"/><path d="m284.91992 379.78a.75985.75985 0 0 1 -.10986.07983 266.55491 266.55491 0 0 1 -36.55005 22.75 264.87679 264.87679 0 0 1 -44.84 18.26026c-73.97001 22.39991-144.85001 6.73977-170.16001-42.26023-30.41-58.87986 16.53-143.59986 104.85-189.21972 88.32-45.63013 184.57995-34.89014 215 24 25.88 50.08986-4.24 118.87986-68.19008 166.38986z" fill="#395166"/><path d="m284.91992 379.78a.75985.75985 0 0 1 -.10986.07983 266.55491 266.55491 0 0 1 -36.55005 22.75 264.87679 264.87679 0 0 1 -44.84 18.26026c-48.32 11.53979-92.34.93994-108.86-30.04-21.83001-40.93995 12.60999-101.93019 76.93999-136.24025 64.32-34.30981 134.16992-28.92993 156 12 17.53 32.86016-1.22 78.66016-42.58008 113.19016z" fill="#2f4054"/><g fill="#a6b2bc"><circle cx="296" cy="200" r="8"/><circle cx="328" cy="216" r="8"/></g></g></svg>