<svg height="512" viewBox="0 0 128 128" width="512" xmlns="http://www.w3.org/2000/svg"><g><path d="m20.616 56.878h52.051v64.622h-52.051z" fill="#4575bb"/><path d="m6.5 56.878h52.051v64.622h-52.051z" fill="#5590e6"/><path d="m23.965 57.414h17.121v34.051h-17.121z" fill="#eaeaf0" transform="matrix(0 1 -1 0 106.965 41.914)"/><path d="m6.5 56.878 7.058-15.545h52.051v15.545z" fill="#eaeaf0"/><path d="m72.667 56.878-7.058-15.545-7.058 15.545z" fill="#c1c1c5"/><path d="m13.558 33.5h52.051v7.833h-52.051z" fill="#5590e6"/><path d="m121.5 68.48v47.02a6 6 0 0 1 -6 6h-39.75a6 6 0 0 1 -6-6v-47.02a64.585 64.585 0 0 1 3.06-19.67c.11-.35.23-.71.35-1.06a65 65 0 0 1 8.56-16.75 21.809 21.809 0 0 0 4.03-12.63v-8.54h19.75v8.54a21.761 21.761 0 0 0 4.03 12.63 64.607 64.607 0 0 1 11.97 37.48z" fill="#5590e6"/><path d="m115.5 110.583a1.75 1.75 0 0 1 -1.75-1.75v-18.083a1.75 1.75 0 0 1 3.5 0v18.083a1.75 1.75 0 0 1 -1.75 1.75z" fill="#4575bb"/><path d="m121.5 68.48v9.65h-51.75v-9.65a64.585 64.585 0 0 1 3.06-19.67c.11-.35.23-.71.35-1.06h44.93a64.86 64.86 0 0 1 3.41 20.73z" fill="#eaeaf0"/><path d="m83.625 6.5h24v6h-24z" fill="#4575bb"/></g></svg>