<svg id="svg" version="1.1" xmlns="http://www.w3.org/2000/svg" xmlns:xlink="http://www.w3.org/1999/xlink" width="400" height="400" viewBox="0, 0, 400,400"><g id="svgg"><path id="path0" d="M243.000 41.819 C 242.780 41.905,240.620 42.164,238.200 42.394 C 234.010 42.793,232.665 42.991,227.600 43.955 C 226.390 44.185,224.770 44.477,224.000 44.603 C 223.230 44.730,221.970 44.994,221.200 45.191 C 220.430 45.388,218.900 45.752,217.800 45.999 C 205.513 48.757,188.434 55.662,176.200 62.815 C 173.995 64.105,163.046 71.269,162.800 71.583 C 162.690 71.724,161.970 72.271,161.200 72.800 C 160.430 73.329,159.710 73.860,159.600 73.981 C 159.490 74.101,158.590 74.825,157.600 75.588 C 154.945 77.636,149.745 82.394,144.035 88.000 C 139.918 92.042,128.756 106.014,127.143 109.146 C 126.844 109.726,126.321 110.511,125.979 110.890 C 125.638 111.270,124.991 112.260,124.541 113.090 C 124.091 113.921,123.335 115.275,122.862 116.100 C 120.672 119.913,120.207 120.765,118.987 123.200 C 117.157 126.855,114.400 132.743,114.400 132.996 C 114.400 133.113,114.061 133.972,113.647 134.904 C 113.233 135.837,112.675 137.230,112.407 138.000 C 111.806 139.726,111.218 141.181,110.753 142.095 C 110.559 142.477,110.400 143.141,110.400 143.571 C 110.400 144.001,110.220 144.464,110.000 144.600 C 109.780 144.736,109.600 145.366,109.600 146.000 C 109.600 146.634,109.420 147.264,109.200 147.400 C 108.980 147.536,108.800 148.616,108.800 149.800 C 108.800 150.984,108.980 152.064,109.200 152.200 C 109.420 152.336,109.600 152.708,109.600 153.027 C 109.600 154.424,112.437 156.551,116.300 158.051 C 118.134 158.763,119.419 159.303,120.095 159.647 C 120.477 159.841,121.141 160.000,121.571 160.000 C 122.001 160.000,122.464 160.180,122.600 160.400 C 122.736 160.620,123.276 160.800,123.800 160.800 C 124.324 160.800,124.864 160.980,125.000 161.200 C 125.136 161.420,125.676 161.600,126.200 161.600 C 126.724 161.600,127.252 161.760,127.373 161.956 C 127.494 162.151,128.179 162.405,128.896 162.519 C 129.613 162.632,130.920 162.934,131.800 163.189 C 136.232 164.474,142.348 165.730,148.278 166.574 C 150.520 166.893,153.040 167.339,153.878 167.565 C 158.378 168.777,172.573 169.094,181.600 168.183 C 185.545 167.785,186.030 167.688,183.400 167.825 C 171.245 168.454,167.425 168.484,161.438 167.995 L 155.000 167.470 159.000 166.776 C 169.351 164.980,183.406 160.813,191.600 157.112 C 192.590 156.665,193.760 156.155,194.200 155.979 C 230.000 141.668,261.909 106.957,265.792 78.100 C 266.121 75.659,266.225 75.693,262.598 77.036 C 261.059 77.606,259.350 78.219,258.800 78.398 C 257.458 78.834,253.001 80.524,248.600 82.265 C 246.620 83.049,244.640 83.831,244.200 84.004 C 242.943 84.498,240.800 85.423,238.288 86.557 C 237.017 87.131,235.909 87.600,235.826 87.600 C 235.222 87.600,217.885 96.177,213.662 98.565 C 212.265 99.354,211.064 100.000,210.991 100.000 C 210.918 100.000,209.392 100.900,207.600 102.000 C 205.808 103.100,204.262 104.000,204.166 104.000 C 203.919 104.000,199.124 107.092,192.957 111.227 C 187.394 114.957,185.885 115.523,183.333 114.836 C 179.351 113.764,177.859 109.110,180.288 105.336 C 180.800 104.542,191.597 96.800,192.194 96.800 C 192.338 96.800,193.208 96.283,194.128 95.651 C 200.328 91.391,219.689 81.046,229.600 76.699 C 230.370 76.361,231.810 75.724,232.800 75.284 C 237.917 73.007,250.587 67.923,254.000 66.776 C 261.345 64.308,265.212 62.888,265.709 62.476 C 267.181 61.254,262.911 47.645,259.503 42.700 L 258.746 41.600 251.073 41.632 C 246.853 41.649,243.220 41.733,243.000 41.819 M225.511 42.293 C 226.451 42.378,227.891 42.377,228.711 42.291 C 229.530 42.205,228.760 42.136,227.000 42.137 C 225.240 42.139,224.570 42.209,225.511 42.293 M312.846 65.067 C 312.821 65.324,312.684 65.864,312.541 66.267 C 312.340 66.836,312.394 66.897,312.779 66.542 C 313.052 66.291,313.189 65.751,313.084 65.342 C 312.979 64.934,312.872 64.810,312.846 65.067 M303.442 87.637 C 302.547 89.430,302.653 89.651,303.657 88.083 C 304.120 87.359,304.406 86.673,304.292 86.558 C 304.177 86.444,303.795 86.929,303.442 87.637 M300.970 92.300 C 300.145 93.785,298.156 97.025,296.548 99.500 C 294.941 101.975,293.755 103.998,293.913 103.995 C 294.224 103.990,295.116 102.679,298.039 97.929 C 300.582 93.796,302.914 89.600,302.669 89.600 C 302.559 89.600,301.794 90.815,300.970 92.300 M290.998 107.602 C 290.598 108.044,290.366 108.499,290.482 108.615 C 290.597 108.730,290.990 108.369,291.355 107.812 C 292.152 106.596,291.993 106.502,290.998 107.602 M288.393 110.954 C 287.798 111.913,285.572 114.619,282.608 117.990 C 281.614 119.120,281.445 119.425,282.158 118.800 C 282.786 118.250,284.493 116.360,285.952 114.600 C 289.598 110.201,289.746 110.000,289.342 110.000 C 289.146 110.000,288.719 110.429,288.393 110.954 M276.867 123.885 C 274.814 125.965,273.203 127.737,273.288 127.821 C 273.372 127.905,275.228 126.180,277.413 123.987 C 279.598 121.794,281.208 120.023,280.992 120.051 C 280.777 120.079,278.920 121.804,276.867 123.885 M271.394 129.210 C 271.254 129.435,269.162 131.235,266.744 133.210 C 264.327 135.184,262.495 136.794,262.674 136.787 C 263.452 136.757,272.638 128.833,271.924 128.809 C 271.772 128.804,271.533 128.984,271.394 129.210 M260.505 138.125 C 259.793 138.606,259.208 139.144,259.205 139.320 C 259.202 139.497,259.875 139.144,260.700 138.537 C 261.525 137.929,262.275 137.380,262.367 137.316 C 262.458 137.252,262.368 137.211,262.167 137.225 C 261.965 137.239,261.217 137.644,260.505 138.125 M244.261 148.646 C 243.194 149.201,242.402 149.735,242.500 149.833 C 242.687 150.021,246.400 148.052,246.400 147.766 C 246.400 147.532,246.410 147.528,244.261 148.646 M237.686 152.079 C 235.423 153.193,233.649 154.182,233.744 154.277 C 233.942 154.476,242.000 150.493,242.000 150.196 C 242.000 149.936,242.334 149.790,237.686 152.079 M218.000 160.400 C 217.467 160.745,217.467 160.788,218.000 160.788 C 218.330 160.788,218.870 160.613,219.200 160.400 C 219.733 160.055,219.733 160.012,219.200 160.012 C 218.870 160.012,218.330 160.187,218.000 160.400 M215.600 161.200 C 215.067 161.545,215.067 161.588,215.600 161.588 C 215.930 161.588,216.470 161.413,216.800 161.200 C 217.333 160.855,217.333 160.812,216.800 160.812 C 216.470 160.812,215.930 160.987,215.600 161.200 M210.200 162.800 L 209.400 163.144 210.200 163.166 C 210.640 163.178,211.270 163.013,211.600 162.800 C 212.395 162.286,211.396 162.286,210.200 162.800 M207.400 163.600 L 206.600 163.944 207.400 163.966 C 207.840 163.978,208.470 163.813,208.800 163.600 C 209.595 163.086,208.596 163.086,207.400 163.600 M202.000 164.800 C 200.350 165.197,199.402 165.540,199.894 165.561 C 200.853 165.603,204.085 164.907,205.400 164.377 C 206.735 163.838,205.202 164.029,202.000 164.800 M196.400 166.000 L 195.000 166.295 196.400 166.341 C 197.170 166.367,198.070 166.213,198.400 166.000 C 199.127 165.530,198.633 165.530,196.400 166.000 M190.459 166.831 C 186.955 167.285,186.419 167.632,189.660 167.348 C 192.609 167.090,195.727 166.475,194.000 166.492 C 193.450 166.497,191.857 166.650,190.459 166.831 " stroke="none" fill="#b3e39c" fill-rule="evenodd"></path><path id="path1" d="M110.905 80.149 C 110.193 80.617,109.608 81.140,109.605 81.312 C 109.602 81.484,110.185 81.214,110.900 80.713 C 111.615 80.212,112.275 79.757,112.367 79.701 C 112.458 79.646,112.458 79.532,112.367 79.449 C 112.275 79.366,111.617 79.681,110.905 80.149 M91.200 96.000 C 90.693 96.440,90.465 96.800,90.694 96.800 C 91.264 96.800,93.111 95.230,92.561 95.213 C 92.320 95.206,91.707 95.560,91.200 96.000 M68.877 119.226 C 68.309 120.135,68.612 120.245,69.432 119.426 C 69.748 119.110,69.861 118.761,69.683 118.651 C 69.505 118.542,69.143 118.800,68.877 119.226 M63.300 126.223 C 63.025 126.522,62.800 126.944,62.800 127.160 C 62.800 127.377,62.400 127.835,61.911 128.177 C 61.324 128.588,61.222 128.799,61.611 128.797 C 61.935 128.796,62.631 128.162,63.158 127.388 C 64.128 125.964,64.218 125.227,63.300 126.223 M58.880 132.080 C 58.316 132.644,58.253 133.200,58.753 133.200 C 58.948 133.200,59.201 132.840,59.316 132.400 C 59.560 131.466,59.522 131.438,58.880 132.080 M324.352 146.469 C 322.288 147.019,320.538 148.996,319.988 151.400 C 319.215 154.778,318.729 156.169,318.051 156.943 C 317.029 158.108,314.572 159.200,312.970 159.200 C 308.711 159.200,305.700 163.792,307.358 167.760 C 309.747 173.479,320.289 172.247,326.665 165.505 C 332.175 159.680,333.743 150.504,329.709 147.695 C 328.815 147.072,326.006 145.872,325.840 146.041 C 325.818 146.064,325.148 146.256,324.352 146.469 M376.800 166.000 C 376.800 166.440,376.636 166.800,376.435 166.800 C 376.234 166.800,375.951 167.565,375.804 168.500 C 374.504 176.808,371.698 188.054,368.587 197.428 C 366.188 204.653,365.704 205.934,363.038 212.100 C 362.729 212.815,362.152 214.210,361.757 215.200 C 356.508 228.349,340.638 253.626,331.495 263.400 C 330.878 264.060,329.794 265.358,329.086 266.285 C 325.146 271.447,308.214 287.210,299.800 293.548 C 298.260 294.709,296.693 295.906,296.317 296.211 C 289.208 301.963,267.977 313.942,257.000 318.394 C 256.560 318.572,255.515 319.020,254.679 319.388 C 249.996 321.449,236.406 326.056,231.600 327.210 C 230.830 327.395,229.480 327.742,228.600 327.981 C 210.787 332.809,186.434 335.155,167.800 333.837 C 156.813 333.060,154.049 332.747,144.600 331.211 C 133.701 329.439,120.670 325.884,108.400 321.335 C 104.427 319.863,103.608 319.529,100.000 317.908 C 98.790 317.365,96.630 316.404,95.200 315.773 C 90.132 313.537,78.651 307.391,75.328 305.135 C 74.408 304.511,73.547 304.000,73.415 304.000 C 73.133 304.000,65.252 298.755,63.200 297.202 C 62.430 296.619,60.270 294.992,58.400 293.585 C 46.496 284.631,33.837 272.428,24.391 260.800 C 21.159 256.822,20.800 256.762,20.800 260.200 C 20.800 262.010,20.952 262.802,21.300 262.806 C 21.632 262.810,21.599 262.940,21.200 263.194 C 20.705 263.509,20.688 263.717,21.100 264.382 C 21.390 264.851,21.600 266.522,21.600 268.371 C 21.600 270.121,21.780 271.664,22.000 271.800 C 22.220 271.936,22.400 273.117,22.400 274.424 C 22.400 275.741,22.578 276.800,22.800 276.800 C 23.022 276.800,23.200 277.867,23.200 279.200 C 23.200 280.533,23.378 281.600,23.600 281.600 C 23.820 281.600,24.000 282.309,24.000 283.176 C 24.000 284.043,24.180 284.864,24.400 285.000 C 24.620 285.136,24.800 286.036,24.800 287.000 C 24.800 287.964,24.969 288.857,25.175 288.985 C 25.382 289.112,25.482 289.573,25.398 290.008 C 25.296 290.538,25.470 290.810,25.923 290.832 C 26.334 290.851,26.405 290.942,26.103 291.064 C 25.789 291.191,25.725 291.510,25.930 291.932 C 26.107 292.300,26.235 292.870,26.213 293.200 C 26.191 293.530,26.339 293.916,26.542 294.058 C 26.745 294.200,26.931 294.874,26.955 295.557 C 26.980 296.240,27.114 296.799,27.253 296.799 C 27.393 296.800,27.618 297.115,27.754 297.500 C 27.889 297.885,28.104 298.470,28.231 298.800 C 28.435 299.333,28.414 299.333,28.037 298.800 C 27.670 298.282,27.611 298.296,27.606 298.900 C 27.603 299.285,27.780 299.600,28.000 299.600 C 28.220 299.600,28.400 300.039,28.400 300.576 C 28.400 301.113,28.580 301.664,28.800 301.800 C 29.020 301.936,29.200 302.476,29.200 303.000 C 29.200 303.524,29.380 304.064,29.600 304.200 C 29.820 304.336,30.000 304.797,30.000 305.224 C 30.000 305.651,30.180 306.000,30.400 306.000 C 30.620 306.000,30.800 306.439,30.800 306.976 C 30.800 307.513,30.980 308.064,31.200 308.200 C 31.420 308.336,31.600 308.897,31.600 309.447 C 31.600 310.012,31.774 310.340,32.000 310.200 C 32.220 310.064,32.400 310.334,32.400 310.800 C 32.400 311.266,32.542 311.560,32.715 311.452 C 32.888 311.345,33.070 311.740,33.119 312.329 C 33.167 312.918,33.385 313.460,33.603 313.533 C 33.822 313.607,34.000 314.001,34.000 314.410 C 34.000 314.818,34.180 315.264,34.400 315.400 C 34.620 315.536,34.800 316.087,34.800 316.624 C 34.800 317.161,34.980 317.600,35.200 317.600 C 35.420 317.600,35.600 317.960,35.600 318.400 C 35.600 318.840,35.780 319.200,36.000 319.200 C 36.220 319.200,36.400 319.740,36.400 320.400 C 36.400 321.060,36.580 321.600,36.800 321.600 C 37.350 321.600,37.324 328.276,36.773 328.617 C 36.538 328.762,36.433 329.110,36.541 329.391 C 36.649 329.671,36.481 330.393,36.168 330.996 C 35.856 331.598,35.600 332.519,35.600 333.042 C 35.600 333.565,35.240 334.218,34.800 334.493 C 34.314 334.796,34.000 335.426,34.000 336.096 C 34.000 336.703,33.820 337.200,33.600 337.200 C 33.380 337.200,33.200 337.832,33.200 338.605 C 33.200 339.378,33.020 340.368,32.800 340.805 C 32.580 341.242,32.220 341.958,32.000 342.395 C 31.780 342.832,31.600 343.811,31.600 344.571 C 31.600 345.331,31.420 346.064,31.200 346.200 C 30.656 346.536,30.656 363.600,31.200 363.600 C 31.420 363.600,31.600 364.219,31.600 364.976 C 31.600 365.733,31.780 366.464,32.000 366.600 C 32.220 366.736,32.400 367.377,32.400 368.024 C 32.400 368.671,32.580 369.200,32.800 369.200 C 33.020 369.200,33.200 369.543,33.200 369.962 C 33.200 370.920,34.770 373.988,35.700 374.847 C 36.085 375.203,36.400 375.748,36.400 376.059 C 36.400 376.369,36.760 376.883,37.200 377.200 C 37.640 377.517,38.000 377.989,38.000 378.248 C 38.000 378.918,41.755 382.668,42.738 382.980 C 43.190 383.124,43.670 383.592,43.806 384.020 C 43.943 384.449,44.362 384.800,44.739 384.800 C 45.115 384.800,45.683 385.160,46.000 385.600 C 46.317 386.040,46.897 386.400,47.288 386.400 C 47.680 386.400,48.000 386.580,48.000 386.800 C 48.000 387.020,48.360 387.200,48.800 387.200 C 49.240 387.200,49.600 387.341,49.600 387.513 C 49.600 387.685,50.085 387.866,50.678 387.915 C 51.270 387.964,51.855 388.146,51.978 388.319 C 52.293 388.765,55.164 389.623,56.661 389.719 C 57.355 389.764,57.839 389.935,57.737 390.100 C 57.636 390.265,58.655 390.400,60.003 390.400 C 61.350 390.400,62.824 390.599,63.277 390.841 C 63.910 391.180,64.181 391.157,64.445 390.741 C 64.633 390.444,64.791 390.380,64.794 390.600 C 64.802 391.149,72.732 390.748,74.400 390.115 C 74.730 389.989,75.810 389.809,76.800 389.714 C 77.790 389.619,78.771 389.374,78.980 389.170 C 79.189 388.967,79.943 388.800,80.656 388.800 C 81.369 388.800,82.064 388.620,82.200 388.400 C 82.336 388.180,82.797 388.000,83.224 388.000 C 83.651 388.000,84.000 387.809,84.000 387.576 C 84.000 387.343,84.151 387.246,84.336 387.360 C 84.521 387.475,85.311 387.225,86.092 386.807 C 86.873 386.388,87.601 386.134,87.709 386.242 C 87.817 386.351,88.563 386.070,89.365 385.620 C 90.168 385.169,91.179 384.800,91.612 384.800 C 92.045 384.800,92.400 384.620,92.400 384.400 C 92.400 384.167,93.725 384.000,95.576 384.000 C 97.323 384.000,98.864 384.180,99.000 384.400 C 99.136 384.620,99.867 384.800,100.624 384.800 C 101.381 384.800,102.000 384.980,102.000 385.200 C 102.000 385.420,102.458 385.600,103.017 385.600 C 103.576 385.600,104.420 385.960,104.892 386.400 C 105.364 386.840,106.167 387.200,106.675 387.200 C 107.184 387.200,107.600 387.336,107.600 387.502 C 107.600 387.669,108.185 388.040,108.900 388.329 C 109.615 388.617,110.513 389.021,110.895 389.226 C 111.277 389.432,111.952 389.600,112.395 389.600 C 112.838 389.600,113.200 389.744,113.200 389.920 C 113.200 390.338,115.360 391.099,117.500 391.435 C 118.435 391.582,119.200 391.859,119.200 392.051 C 119.200 392.243,119.740 392.400,120.400 392.400 C 121.060 392.400,121.600 392.580,121.600 392.800 C 121.600 393.020,122.140 393.200,122.800 393.200 C 123.460 393.200,124.000 393.380,124.000 393.600 C 124.000 393.820,124.720 394.000,125.600 394.000 C 126.480 394.000,127.200 394.180,127.200 394.400 C 127.200 394.620,127.650 394.800,128.200 394.800 C 128.750 394.800,129.200 394.943,129.200 395.118 C 129.200 395.293,129.875 395.481,130.700 395.536 C 131.525 395.590,132.260 395.807,132.333 396.018 C 132.407 396.228,133.352 396.400,134.433 396.400 C 135.515 396.400,136.400 396.580,136.400 396.800 C 136.400 397.020,137.120 397.200,138.000 397.200 C 138.880 397.200,139.600 397.380,139.600 397.600 C 139.600 397.820,140.590 398.000,141.800 398.000 C 143.010 398.000,144.000 398.180,144.000 398.400 C 144.000 398.622,145.067 398.800,146.400 398.800 C 147.720 398.800,148.800 398.966,148.800 399.168 C 148.800 400.005,196.021 400.137,196.300 399.300 C 196.412 398.964,197.376 398.800,199.233 398.800 C 200.811 398.800,202.000 398.628,202.000 398.400 C 202.000 398.180,202.979 398.000,204.176 398.000 C 205.373 398.000,206.464 397.820,206.600 397.600 C 206.736 397.380,207.647 397.200,208.624 397.200 C 209.601 397.200,210.400 397.020,210.400 396.800 C 210.400 396.580,211.199 396.400,212.176 396.400 C 213.153 396.400,214.064 396.220,214.200 396.000 C 214.336 395.780,215.157 395.600,216.024 395.600 C 216.891 395.600,217.600 395.420,217.600 395.200 C 217.600 394.980,218.320 394.800,219.200 394.800 C 220.080 394.800,220.800 394.620,220.800 394.400 C 220.800 394.180,221.329 394.000,221.976 394.000 C 222.623 394.000,223.264 393.820,223.400 393.600 C 223.536 393.380,224.177 393.200,224.824 393.200 C 225.471 393.200,226.000 393.020,226.000 392.800 C 226.000 392.580,226.540 392.400,227.200 392.400 C 227.860 392.400,228.400 392.243,228.400 392.052 C 228.400 391.860,229.475 391.582,230.788 391.433 C 232.101 391.285,233.282 390.991,233.411 390.782 C 233.541 390.572,234.072 390.400,234.590 390.400 C 235.109 390.400,235.593 390.265,235.667 390.100 C 235.799 389.802,241.384 387.708,243.100 387.314 C 243.595 387.200,244.000 386.948,244.000 386.753 C 244.000 386.559,244.439 386.400,244.976 386.400 C 245.513 386.400,246.064 386.220,246.200 386.000 C 246.336 385.780,246.797 385.600,247.224 385.600 C 247.651 385.600,248.000 385.420,248.000 385.200 C 248.000 384.980,248.360 384.800,248.800 384.800 C 249.240 384.800,249.600 384.620,249.600 384.400 C 249.600 384.180,249.949 384.000,250.376 384.000 C 250.803 384.000,251.264 383.820,251.400 383.600 C 251.536 383.380,252.087 383.200,252.624 383.200 C 253.161 383.200,253.600 383.020,253.600 382.800 C 253.600 382.580,253.960 382.400,254.400 382.400 C 254.840 382.400,255.200 382.220,255.200 382.000 C 255.200 381.780,255.571 381.600,256.024 381.600 C 256.477 381.600,256.736 381.420,256.600 381.200 C 256.460 380.973,256.796 380.800,257.376 380.800 C 257.939 380.800,258.400 380.620,258.400 380.400 C 258.400 380.180,258.670 380.000,259.000 380.000 C 259.330 380.000,259.600 379.820,259.600 379.600 C 259.600 379.380,259.960 379.200,260.400 379.200 C 260.840 379.200,261.200 379.020,261.200 378.800 C 261.200 378.580,261.560 378.400,262.000 378.400 C 262.440 378.400,262.800 378.220,262.800 378.000 C 262.800 377.780,263.160 377.600,263.600 377.600 C 264.040 377.600,264.400 377.420,264.400 377.200 C 264.400 376.980,264.760 376.800,265.200 376.800 C 265.640 376.800,266.000 376.620,266.000 376.400 C 266.000 376.180,266.360 376.000,266.800 376.000 C 267.240 376.000,267.600 375.834,267.600 375.632 C 267.600 375.429,268.140 375.145,268.800 375.000 C 269.460 374.855,270.000 374.571,270.000 374.368 C 270.000 374.166,270.248 374.000,270.551 374.000 C 270.854 374.000,271.324 373.732,271.596 373.404 C 271.868 373.077,272.216 372.886,272.370 372.981 C 272.523 373.076,273.268 372.624,274.024 371.978 C 275.338 370.855,275.793 370.634,276.530 370.763 C 276.711 370.794,276.745 370.635,276.606 370.410 C 276.467 370.184,276.633 370.000,276.976 370.000 C 277.319 370.000,277.600 369.820,277.600 369.600 C 277.600 369.380,277.960 369.200,278.400 369.200 C 278.840 369.200,279.200 369.050,279.200 368.868 C 279.200 368.685,279.695 368.280,280.300 367.968 C 280.905 367.655,281.749 367.085,282.175 366.700 C 282.602 366.315,283.147 366.000,283.387 366.000 C 283.627 366.000,284.083 365.640,284.400 365.200 C 284.717 364.760,285.252 364.398,285.588 364.396 C 285.925 364.394,286.625 363.854,287.145 363.196 C 287.665 362.538,288.312 362.000,288.583 362.000 C 288.854 362.000,289.402 361.640,289.800 361.200 C 290.198 360.760,290.726 360.400,290.974 360.400 C 291.221 360.400,291.683 360.040,292.000 359.600 C 292.317 359.160,292.897 358.800,293.288 358.800 C 293.680 358.800,294.000 358.590,294.000 358.333 C 294.000 358.077,294.104 357.971,294.231 358.097 C 294.358 358.224,294.962 357.804,295.574 357.164 C 296.186 356.524,296.906 356.000,297.175 356.000 C 297.443 356.000,298.354 355.280,299.200 354.400 C 300.046 353.520,301.032 352.800,301.392 352.800 C 301.752 352.800,301.936 352.620,301.800 352.400 C 301.664 352.180,301.758 352.000,302.008 352.000 C 302.258 352.000,303.154 351.280,304.000 350.400 C 304.846 349.520,305.742 348.800,305.992 348.800 C 306.242 348.800,306.336 348.620,306.200 348.400 C 306.064 348.180,306.142 348.000,306.373 348.000 C 307.019 348.000,308.800 346.324,308.800 345.715 C 308.800 345.418,309.108 345.057,309.485 344.912 C 310.324 344.590,311.998 343.020,319.308 335.698 C 326.767 328.225,327.600 327.321,327.600 326.700 C 327.600 326.412,327.988 325.912,328.462 325.588 C 329.681 324.756,331.600 322.751,331.600 322.309 C 331.600 322.105,332.320 321.246,333.200 320.400 C 334.080 319.554,334.800 318.669,334.800 318.432 C 334.800 318.195,335.520 317.237,336.400 316.303 C 337.280 315.369,338.000 314.460,338.000 314.284 C 338.000 314.108,338.450 313.514,339.000 312.964 C 339.550 312.414,340.000 311.730,340.000 311.444 C 340.000 311.158,340.356 310.602,340.791 310.209 C 341.225 309.815,341.484 309.336,341.365 309.144 C 341.246 308.952,341.431 308.686,341.775 308.554 C 342.119 308.422,342.400 308.053,342.400 307.734 C 342.400 307.414,342.580 307.264,342.800 307.400 C 343.020 307.536,343.200 307.277,343.200 306.824 C 343.200 306.371,343.338 306.000,343.506 306.000 C 343.674 306.000,344.256 305.280,344.800 304.400 C 345.344 303.520,345.926 302.800,346.094 302.800 C 346.262 302.800,346.400 302.480,346.400 302.088 C 346.400 301.697,346.760 301.117,347.200 300.800 C 347.640 300.483,348.000 299.943,348.000 299.600 C 348.000 299.257,348.360 298.717,348.800 298.400 C 349.240 298.083,349.600 297.503,349.600 297.112 C 349.600 296.720,349.780 296.400,350.000 296.400 C 350.220 296.400,350.400 296.080,350.400 295.688 C 350.400 295.297,350.760 294.717,351.200 294.400 C 351.640 294.083,352.000 293.503,352.000 293.112 C 352.000 292.720,352.180 292.400,352.400 292.400 C 352.620 292.400,352.800 292.029,352.800 291.576 C 352.800 291.123,352.980 290.864,353.200 291.000 C 353.420 291.136,353.600 290.959,353.600 290.607 C 353.600 290.255,353.960 289.580,354.400 289.108 C 354.840 288.636,355.200 287.923,355.200 287.525 C 355.200 287.126,355.338 286.800,355.507 286.800 C 355.676 286.800,356.242 285.810,356.764 284.600 C 357.287 283.390,357.852 282.400,358.022 282.400 C 358.191 282.400,358.451 281.680,358.600 280.800 C 358.749 279.920,359.034 279.200,359.235 279.200 C 359.436 279.200,359.600 278.840,359.600 278.400 C 359.600 277.960,359.780 277.600,360.000 277.600 C 360.220 277.600,360.400 277.240,360.400 276.800 C 360.400 276.360,360.580 276.000,360.800 276.000 C 361.020 276.000,361.200 275.747,361.200 275.438 C 361.200 275.129,361.546 274.184,361.970 273.338 C 362.393 272.492,362.977 271.215,363.267 270.500 C 363.558 269.785,363.931 269.200,364.098 269.200 C 364.264 269.200,364.400 268.761,364.400 268.224 C 364.400 267.687,364.580 267.136,364.800 267.000 C 365.020 266.864,365.200 266.403,365.200 265.976 C 365.200 265.549,365.380 265.200,365.600 265.200 C 365.820 265.200,366.000 264.559,366.000 263.776 C 366.000 262.929,366.162 262.453,366.400 262.600 C 366.620 262.736,366.800 262.487,366.800 262.047 C 366.800 261.607,366.980 261.136,367.200 261.000 C 367.420 260.864,367.600 260.313,367.600 259.776 C 367.600 259.239,367.780 258.800,368.000 258.800 C 368.220 258.800,368.400 258.350,368.400 257.800 C 368.400 257.250,368.580 256.800,368.800 256.800 C 369.020 256.800,369.200 256.260,369.200 255.600 C 369.200 254.940,369.380 254.400,369.600 254.400 C 369.820 254.400,370.000 253.860,370.000 253.200 C 370.000 252.540,370.191 252.000,370.425 252.000 C 370.659 252.000,370.818 251.685,370.779 251.300 C 370.638 249.918,370.807 249.157,371.200 249.400 C 371.443 249.550,371.602 248.969,371.606 247.924 C 371.611 246.663,371.716 246.361,372.000 246.800 C 372.277 247.228,372.391 246.770,372.400 245.200 C 372.409 243.570,372.519 243.156,372.823 243.600 C 373.129 244.048,373.205 243.804,373.121 242.632 C 373.051 241.653,373.195 241.002,373.504 240.899 C 373.777 240.808,374.000 240.118,374.000 239.367 C 374.000 238.615,374.180 238.000,374.400 238.000 C 374.620 238.000,374.771 237.865,374.735 237.700 C 374.578 236.983,375.330 231.600,375.587 231.600 C 375.743 231.600,375.902 230.754,375.941 229.720 C 375.981 228.686,376.145 227.741,376.307 227.620 C 376.469 227.499,376.660 226.410,376.733 225.200 C 376.805 223.990,377.030 222.940,377.232 222.867 C 377.435 222.793,377.600 221.578,377.600 220.167 C 377.600 218.722,377.775 217.600,378.000 217.600 C 378.237 217.600,378.400 216.133,378.400 214.000 C 378.400 211.964,378.567 210.400,378.784 210.400 C 379.024 210.400,379.177 204.209,379.191 194.000 C 379.206 183.142,379.076 177.600,378.807 177.600 C 378.563 177.600,378.400 176.237,378.400 174.200 C 378.400 172.200,378.235 170.800,378.000 170.800 C 377.771 170.800,377.600 169.600,377.600 168.000 C 377.600 166.400,377.429 165.200,377.200 165.200 C 376.980 165.200,376.800 165.560,376.800 166.000 M300.000 194.289 C 297.704 195.151,296.000 197.505,296.000 199.813 C 296.000 202.870,293.343 206.153,290.509 206.596 C 284.582 207.523,281.870 210.610,283.276 214.829 C 285.670 222.010,298.853 219.577,304.750 210.867 C 310.763 201.985,307.726 191.386,300.000 194.289 M28.016 194.981 C 27.751 195.300,27.594 195.859,27.667 196.222 C 27.756 196.663,27.955 196.470,28.265 195.641 C 28.782 194.262,28.729 194.121,28.016 194.981 M26.154 201.377 C 26.032 201.694,26.003 202.279,26.089 202.677 C 26.187 203.128,26.324 202.912,26.454 202.100 C 26.671 200.738,26.530 200.396,26.154 201.377 M335.589 206.500 C 333.888 207.652,332.866 209.411,332.829 211.251 C 332.752 215.109,330.246 217.684,325.849 218.425 C 319.540 219.490,317.528 226.465,322.622 229.614 C 329.884 234.102,343.165 224.921,344.803 214.282 C 345.841 207.538,340.597 203.109,335.589 206.500 M251.719 212.280 C 249.753 212.661,247.600 216.635,247.600 219.882 C 247.600 221.765,243.690 224.800,241.265 224.800 C 235.894 224.800,233.007 231.407,236.745 235.145 C 239.099 237.499,242.737 237.751,247.600 235.898 C 261.466 230.612,265.116 209.681,251.719 212.280 M21.606 225.700 C 21.611 226.428,21.686 226.485,22.000 226.000 C 22.501 225.224,22.501 224.800,22.000 224.800 C 21.780 224.800,21.603 225.205,21.606 225.700 M302.343 241.663 C 300.615 242.665,299.200 244.990,299.200 246.828 C 299.200 251.035,296.784 253.018,290.192 254.222 C 287.508 254.712,285.478 259.080,286.615 261.920 C 289.653 269.513,303.857 265.714,309.138 255.896 C 314.029 246.803,309.574 237.470,302.343 241.663 " stroke="none" fill="#fcd464" fill-rule="evenodd"></path><path id="path2" d="M221.950 42.583 C 221.850 42.683,218.805 42.960,215.184 43.197 C 204.908 43.871,196.289 45.104,187.400 47.170 C 186.520 47.374,184.630 47.808,183.200 48.134 C 175.824 49.815,161.961 54.213,158.355 56.016 C 158.000 56.193,156.965 56.239,156.055 56.117 C 154.959 55.970,154.400 56.048,154.400 56.347 C 154.400 56.596,153.961 56.800,153.424 56.800 C 152.887 56.800,152.336 56.980,152.200 57.200 C 152.064 57.420,151.593 57.600,151.153 57.600 C 150.713 57.600,150.464 57.780,150.600 58.000 C 150.739 58.225,150.422 58.400,149.878 58.400 C 149.344 58.400,148.479 58.733,147.954 59.140 C 147.429 59.547,146.802 59.811,146.560 59.727 C 146.318 59.642,145.891 59.849,145.611 60.187 C 145.331 60.524,144.764 60.800,144.351 60.800 C 143.938 60.800,143.600 60.980,143.600 61.200 C 143.600 61.420,143.240 61.600,142.800 61.600 C 142.360 61.600,142.000 61.777,142.000 61.992 C 142.000 62.208,141.505 62.508,140.900 62.658 C 140.295 62.809,139.215 63.262,138.500 63.666 C 137.785 64.070,136.565 64.760,135.788 65.200 C 135.011 65.640,134.194 66.000,133.971 66.000 C 133.749 66.000,133.211 66.331,132.777 66.736 C 131.960 67.497,131.127 67.954,128.900 68.864 C 128.185 69.156,127.600 69.531,127.600 69.698 C 127.600 69.864,127.358 70.000,127.062 70.000 C 126.766 70.000,126.198 70.360,125.800 70.800 C 125.402 71.240,124.834 71.600,124.538 71.600 C 124.242 71.600,124.000 71.780,124.000 72.000 C 124.000 72.220,123.764 72.400,123.475 72.400 C 123.187 72.400,122.602 72.719,122.175 73.108 C 121.749 73.498,120.365 74.353,119.101 75.008 C 117.836 75.664,116.801 76.419,116.801 76.687 C 116.800 76.956,116.531 77.072,116.200 76.945 C 115.870 76.818,115.600 76.914,115.600 77.157 C 115.600 77.401,115.412 77.600,115.183 77.600 C 114.785 77.600,114.405 77.860,112.844 79.200 C 111.781 80.112,109.659 81.600,109.421 81.600 C 109.208 81.600,107.963 82.570,106.984 83.500 C 106.694 83.775,106.324 84.000,106.162 84.000 C 105.856 84.000,104.994 84.749,103.514 86.300 C 103.042 86.795,102.418 87.200,102.128 87.200 C 101.838 87.200,101.600 87.380,101.600 87.600 C 101.600 87.820,101.319 88.000,100.976 88.000 C 100.633 88.000,100.464 88.180,100.600 88.400 C 100.736 88.620,100.606 88.800,100.312 88.800 C 100.017 88.800,99.517 89.160,99.200 89.600 C 98.883 90.040,98.383 90.400,98.088 90.400 C 97.794 90.400,97.656 90.567,97.782 90.771 C 97.908 90.975,97.654 91.256,97.216 91.395 C 96.779 91.534,96.056 92.111,95.610 92.678 C 95.165 93.244,94.800 93.587,94.800 93.439 C 94.800 93.290,94.022 93.941,93.070 94.885 C 92.119 95.828,90.740 97.048,90.007 97.595 C 88.805 98.493,83.391 103.870,79.229 108.300 C 78.351 109.235,77.415 110.000,77.149 110.000 C 76.884 110.000,76.773 110.107,76.903 110.237 C 77.137 110.470,76.172 111.612,72.163 115.843 C 71.043 117.026,70.218 118.085,70.330 118.197 C 70.442 118.309,70.293 118.400,70.000 118.400 C 69.707 118.400,69.569 118.503,69.695 118.628 C 69.897 118.830,68.881 120.129,66.700 122.454 C 66.315 122.864,66.000 123.380,66.000 123.600 C 66.000 123.820,65.865 124.000,65.700 124.001 C 65.535 124.001,64.680 125.081,63.800 126.400 C 62.920 127.719,61.945 128.799,61.633 128.799 C 61.322 128.800,61.183 128.916,61.324 129.058 C 61.466 129.199,61.046 129.925,60.391 130.671 C 59.736 131.417,59.200 132.292,59.200 132.614 C 59.200 132.936,59.050 133.200,58.868 133.200 C 58.685 133.200,58.281 133.695,57.970 134.300 C 57.660 134.905,57.133 135.670,56.800 136.000 C 56.467 136.330,55.940 137.095,55.630 137.700 C 55.319 138.305,54.915 138.800,54.732 138.800 C 54.550 138.800,54.400 139.081,54.400 139.424 C 54.400 139.793,54.212 139.931,53.938 139.762 C 53.664 139.593,53.585 139.651,53.742 139.906 C 53.888 140.142,53.736 140.607,53.404 140.939 C 53.072 141.271,52.800 141.714,52.800 141.922 C 52.800 142.131,52.543 142.515,52.229 142.776 C 51.915 143.037,51.172 144.184,50.577 145.325 C 49.983 146.466,49.383 147.490,49.243 147.600 C 49.103 147.710,48.558 148.655,48.032 149.700 C 47.505 150.745,46.923 151.600,46.737 151.600 C 46.552 151.600,46.431 151.735,46.470 151.900 C 46.592 152.427,45.487 154.400,45.069 154.400 C 44.848 154.400,44.781 154.514,44.920 154.654 C 45.060 154.793,44.822 155.354,44.392 155.901 C 43.963 156.447,43.709 157.053,43.829 157.247 C 43.949 157.441,43.876 157.600,43.666 157.600 C 43.457 157.600,43.178 157.879,43.047 158.221 C 42.891 158.629,42.978 158.756,43.305 158.591 C 43.577 158.453,43.451 158.624,43.024 158.970 C 42.596 159.317,42.416 159.603,42.624 159.606 C 42.838 159.610,42.828 159.739,42.600 159.906 C 41.948 160.385,41.200 161.929,41.200 162.795 C 41.200 163.238,41.065 163.601,40.900 163.603 C 40.535 163.607,39.600 165.549,39.600 166.303 C 39.600 166.602,39.420 166.736,39.200 166.600 C 38.973 166.460,38.800 166.796,38.800 167.376 C 38.800 167.939,38.620 168.400,38.400 168.400 C 38.180 168.400,38.000 168.760,38.000 169.200 C 38.000 169.640,37.820 170.000,37.600 170.000 C 37.380 170.000,37.200 170.461,37.200 171.024 C 37.200 171.604,37.027 171.940,36.800 171.800 C 36.566 171.655,36.400 172.070,36.400 172.800 C 36.400 173.530,36.234 173.945,36.000 173.800 C 35.774 173.660,35.600 173.988,35.600 174.553 C 35.600 175.103,35.420 175.664,35.200 175.800 C 34.980 175.936,34.800 176.397,34.800 176.824 C 34.800 177.251,34.620 177.600,34.400 177.600 C 34.180 177.600,34.000 177.932,34.000 178.339 C 34.000 178.745,33.692 179.690,33.315 180.439 C 32.937 181.187,32.573 182.152,32.504 182.583 C 32.436 183.013,32.249 183.463,32.090 183.583 C 31.930 183.702,31.737 184.250,31.661 184.800 C 31.585 185.350,31.384 185.980,31.216 186.200 C 31.048 186.420,30.782 187.140,30.624 187.800 C 30.467 188.460,30.099 189.540,29.807 190.200 C 29.295 191.354,28.689 193.365,28.600 194.200 C 28.558 194.597,27.746 197.249,27.314 198.400 C 27.190 198.730,27.046 199.270,26.994 199.600 C 26.942 199.930,26.709 201.000,26.475 201.978 C 26.241 202.957,26.130 203.886,26.227 204.044 C 26.325 204.202,26.233 204.392,26.022 204.466 C 25.811 204.540,25.571 205.275,25.487 206.099 C 25.404 206.923,25.215 207.718,25.068 207.866 C 24.920 208.013,24.800 208.913,24.800 209.867 C 24.800 210.820,24.620 211.600,24.400 211.600 C 24.180 211.600,24.000 212.399,24.000 213.376 C 24.000 214.353,23.820 215.264,23.600 215.400 C 23.380 215.536,23.200 216.627,23.200 217.824 C 23.200 219.021,23.020 220.000,22.800 220.000 C 22.574 220.000,22.400 221.142,22.400 222.626 C 22.400 224.071,22.230 225.570,22.022 225.958 C 21.815 226.346,21.609 228.134,21.566 229.932 C 21.523 231.729,21.342 233.200,21.165 233.200 C 20.988 233.200,20.829 238.657,20.812 245.327 L 20.780 257.454 21.690 257.951 C 22.191 258.225,23.230 259.281,24.000 260.298 C 31.265 269.896,46.480 284.619,58.400 293.585 C 60.270 294.992,62.430 296.619,63.200 297.202 C 65.252 298.755,73.133 304.000,73.415 304.000 C 73.547 304.000,74.408 304.511,75.328 305.135 C 78.651 307.391,90.132 313.537,95.200 315.773 C 96.630 316.404,98.790 317.365,100.000 317.908 C 103.608 319.529,104.427 319.863,108.400 321.335 C 120.670 325.884,133.701 329.439,144.600 331.211 C 154.049 332.747,156.813 333.060,167.800 333.837 C 186.434 335.155,210.787 332.809,228.600 327.981 C 229.480 327.742,230.830 327.395,231.600 327.210 C 236.406 326.056,249.996 321.449,254.679 319.388 C 255.515 319.020,256.560 318.572,257.000 318.394 C 267.977 313.942,289.208 301.963,296.317 296.211 C 296.693 295.906,298.260 294.709,299.800 293.548 C 308.214 287.210,325.146 271.447,329.086 266.285 C 329.794 265.358,330.878 264.060,331.495 263.400 C 340.638 253.626,356.508 228.349,361.757 215.200 C 362.152 214.210,362.729 212.815,363.038 212.100 C 365.704 205.934,366.188 204.653,368.587 197.428 C 371.698 188.054,374.504 176.808,375.804 168.500 C 375.951 167.565,376.234 166.800,376.435 166.800 C 376.933 166.800,376.900 162.109,376.400 161.800 C 376.180 161.664,376.000 160.789,376.000 159.856 C 376.000 158.923,375.838 157.989,375.641 157.780 C 375.444 157.571,375.186 156.680,375.069 155.800 C 374.738 153.325,374.513 152.297,374.027 151.045 C 373.780 150.409,373.666 149.800,373.775 149.692 C 373.883 149.584,373.760 149.113,373.500 148.647 C 373.241 148.181,373.008 147.710,372.983 147.600 C 372.958 147.490,372.806 146.680,372.645 145.800 C 372.483 144.920,372.021 143.390,371.616 142.400 C 371.212 141.410,370.644 139.790,370.354 138.800 C 370.063 137.810,369.604 136.563,369.333 136.029 C 369.063 135.494,368.950 134.882,369.082 134.667 C 369.216 134.450,369.118 134.404,368.862 134.562 C 368.559 134.749,368.400 134.495,368.400 133.824 C 368.400 133.261,368.253 132.800,368.072 132.800 C 367.892 132.800,367.500 131.900,367.200 130.800 C 366.900 129.700,366.508 128.800,366.328 128.800 C 366.147 128.800,366.000 128.440,366.000 128.000 C 366.000 127.560,365.820 127.200,365.600 127.200 C 365.380 127.200,365.200 126.951,365.200 126.646 C 365.200 126.341,364.939 125.589,364.620 124.974 C 364.302 124.360,364.132 123.709,364.244 123.529 C 364.356 123.348,364.300 123.200,364.121 123.200 C 363.028 123.200,362.265 114.252,363.200 112.395 C 363.420 111.958,363.780 111.242,364.000 110.805 C 364.220 110.368,364.400 109.738,364.400 109.405 C 364.400 109.072,364.547 108.800,364.728 108.800 C 364.908 108.800,365.300 107.900,365.600 106.800 C 365.900 105.700,366.292 104.800,366.472 104.800 C 366.653 104.800,366.800 104.260,366.800 103.600 C 366.800 102.940,366.980 102.400,367.200 102.400 C 367.420 102.400,367.579 102.265,367.553 102.100 C 367.372 100.958,367.665 99.193,368.000 99.400 C 368.248 99.553,368.400 98.804,368.400 97.424 C 368.400 96.201,368.566 95.200,368.768 95.200 C 368.979 95.200,369.144 91.784,369.156 87.184 C 369.168 82.110,369.033 79.256,368.787 79.408 C 368.562 79.547,368.400 78.978,368.400 78.047 C 368.400 77.167,368.220 76.336,368.000 76.200 C 367.780 76.064,367.594 75.558,367.587 75.076 C 367.581 74.594,367.041 73.125,366.387 71.810 C 365.734 70.496,365.200 69.191,365.200 68.910 C 365.200 68.630,365.020 68.400,364.800 68.400 C 364.580 68.400,364.400 68.213,364.400 67.984 C 364.400 67.462,362.960 65.430,361.451 63.824 C 360.819 63.151,360.034 62.195,359.705 61.700 C 359.377 61.205,358.848 60.800,358.530 60.800 C 358.213 60.800,358.055 60.635,358.179 60.434 C 358.303 60.233,357.774 59.678,357.002 59.202 C 356.231 58.725,355.600 58.159,355.600 57.944 C 355.600 57.729,355.440 57.651,355.245 57.772 C 355.050 57.893,354.668 57.723,354.396 57.396 C 354.124 57.068,353.654 56.800,353.351 56.800 C 353.048 56.800,352.800 56.620,352.800 56.400 C 352.800 56.180,352.440 56.000,352.000 56.000 C 351.560 56.000,351.200 55.820,351.200 55.600 C 351.200 55.380,350.840 55.200,350.400 55.200 C 349.960 55.200,349.600 55.020,349.600 54.800 C 349.600 54.580,349.251 54.400,348.824 54.400 C 348.397 54.400,347.936 54.220,347.800 54.000 C 347.664 53.780,347.023 53.600,346.376 53.600 C 345.729 53.600,345.200 53.420,345.200 53.200 C 345.200 52.980,344.581 52.800,343.824 52.800 C 343.067 52.800,342.336 52.620,342.200 52.400 C 342.064 52.180,340.358 52.000,338.410 52.000 C 335.950 52.000,334.805 51.847,334.664 51.500 C 334.517 51.138,334.370 51.124,334.130 51.448 C 333.932 51.718,332.207 51.928,329.808 51.974 C 327.612 52.016,325.722 52.198,325.608 52.379 C 325.494 52.560,324.590 52.810,323.600 52.935 C 320.304 53.352,318.795 53.685,318.573 54.044 C 318.452 54.240,318.074 54.400,317.734 54.400 C 317.394 54.400,316.761 54.850,316.329 55.400 C 315.896 55.950,315.280 56.400,314.960 56.400 C 314.484 56.400,314.425 56.864,314.638 58.941 C 314.933 61.817,314.196 64.602,310.815 73.400 C 307.673 81.574,301.942 92.568,296.234 101.370 C 294.675 103.774,293.214 105.934,292.987 106.170 C 292.760 106.407,292.132 107.230,291.593 108.000 C 291.053 108.770,290.394 109.670,290.129 110.000 C 289.864 110.330,288.493 112.040,287.084 113.800 C 280.616 121.875,270.400 131.741,262.164 137.865 C 261.524 138.341,260.143 139.376,259.097 140.165 C 258.050 140.954,257.015 141.600,256.797 141.600 C 256.578 141.600,256.400 141.750,256.400 141.932 C 256.400 142.115,255.905 142.520,255.300 142.832 C 254.695 143.145,254.020 143.539,253.800 143.708 C 250.412 146.318,235.278 154.437,229.400 156.799 C 228.960 156.976,227.747 157.498,226.704 157.960 C 225.662 158.422,224.624 158.800,224.399 158.800 C 224.174 158.800,223.677 158.959,223.295 159.153 C 221.492 160.071,216.098 161.932,211.600 163.190 C 210.610 163.466,209.350 163.842,208.800 164.025 C 208.250 164.207,205.370 164.898,202.400 165.559 C 197.434 166.665,195.371 167.012,187.400 168.081 C 182.845 168.691,160.660 168.947,157.000 168.432 C 141.106 166.193,133.721 164.578,122.820 160.960 C 106.811 155.645,105.899 153.804,111.656 138.400 C 120.859 113.775,138.216 89.979,158.318 74.431 C 163.729 70.245,168.309 66.919,169.200 66.528 C 169.530 66.384,170.520 65.782,171.400 65.190 C 176.345 61.868,189.202 55.164,195.200 52.782 C 200.145 50.817,207.105 48.339,209.800 47.582 C 210.460 47.397,211.720 47.043,212.600 46.796 C 213.480 46.549,214.830 46.191,215.600 46.000 C 216.370 45.809,217.720 45.462,218.600 45.229 C 221.602 44.432,225.798 43.601,226.820 43.600 C 227.381 43.600,228.011 43.433,228.220 43.229 C 228.429 43.024,229.230 42.783,230.000 42.693 C 230.770 42.602,229.315 42.499,226.767 42.464 C 224.218 42.429,222.051 42.482,221.950 42.583 M327.240 146.461 C 332.530 148.255,333.506 153.886,329.797 161.205 C 324.947 170.777,310.394 175.028,307.358 167.760 C 305.700 163.792,308.711 159.200,312.970 159.200 C 314.572 159.200,317.029 158.108,318.051 156.943 C 318.729 156.169,319.215 154.778,319.988 151.400 C 320.538 148.996,322.288 147.019,324.352 146.469 C 325.148 146.256,325.818 146.064,325.840 146.041 C 325.862 146.019,326.492 146.208,327.240 146.461 M304.799 194.600 C 309.187 196.868,309.164 204.346,304.750 210.867 C 298.853 219.577,285.670 222.010,283.276 214.829 C 281.870 210.610,284.582 207.523,290.509 206.596 C 293.343 206.153,296.000 202.870,296.000 199.813 C 296.000 195.579,300.983 192.626,304.799 194.600 M342.106 206.335 C 347.980 210.208,344.227 222.882,335.733 227.860 C 329.913 231.271,322.611 231.297,320.883 227.914 C 318.456 223.162,320.459 219.335,325.849 218.425 C 330.246 217.684,332.752 215.109,332.829 211.251 C 332.917 206.914,338.499 203.956,342.106 206.335 M256.792 212.701 C 263.027 215.833,259.890 228.248,251.418 233.967 C 246.053 237.589,239.699 238.099,236.745 235.145 C 233.007 231.407,235.894 224.800,241.265 224.800 C 243.690 224.800,247.600 221.765,247.600 219.882 C 247.600 216.635,249.753 212.661,251.719 212.280 C 253.710 211.894,255.478 212.040,256.792 212.701 M307.746 241.352 C 315.078 244.415,310.674 259.034,300.968 263.849 C 294.120 267.247,288.440 266.483,286.615 261.920 C 285.478 259.080,287.508 254.712,290.192 254.222 C 296.784 253.018,299.200 251.035,299.200 246.828 C 299.200 242.676,303.823 239.713,307.746 241.352 " stroke="none" fill="#fbe37c" fill-rule="evenodd"></path><path id="path3" d="M189.523 0.210 C 189.430 0.304,187.969 0.407,186.277 0.440 C 184.585 0.472,183.200 0.657,183.200 0.850 C 183.200 1.042,182.210 1.200,181.000 1.200 C 179.790 1.200,178.800 1.380,178.800 1.600 C 178.800 1.820,177.915 2.000,176.833 2.000 C 175.752 2.000,174.807 2.172,174.733 2.382 C 174.660 2.593,173.925 2.810,173.100 2.864 C 172.275 2.919,171.600 3.107,171.600 3.282 C 171.600 3.457,170.880 3.600,170.000 3.600 C 169.120 3.600,168.400 3.780,168.400 4.000 C 168.400 4.220,167.860 4.400,167.200 4.400 C 166.540 4.400,166.000 4.543,166.000 4.718 C 166.000 4.893,165.325 5.081,164.500 5.136 C 163.675 5.190,162.940 5.407,162.867 5.618 C 162.793 5.828,162.208 6.000,161.567 6.000 C 160.925 6.000,160.400 6.180,160.400 6.400 C 160.400 6.620,159.950 6.800,159.400 6.800 C 158.850 6.800,158.400 6.980,158.400 7.200 C 158.400 7.420,157.849 7.600,157.176 7.600 C 156.463 7.600,156.056 7.767,156.200 8.000 C 156.340 8.226,156.012 8.400,155.447 8.400 C 154.897 8.400,154.350 8.557,154.232 8.748 C 153.994 9.133,151.688 9.748,150.900 9.636 C 150.625 9.597,150.400 9.832,150.400 10.159 C 150.400 10.539,150.110 10.698,149.600 10.600 C 149.160 10.515,148.800 10.577,148.800 10.738 C 148.800 10.898,148.438 11.057,147.996 11.090 C 147.554 11.124,146.909 11.434,146.564 11.779 C 146.218 12.125,145.785 12.315,145.602 12.201 C 145.418 12.088,145.205 12.186,145.127 12.419 C 145.049 12.653,144.719 12.897,144.393 12.961 C 143.252 13.188,142.195 13.751,141.553 14.472 C 141.197 14.873,140.672 15.200,140.386 15.200 C 140.101 15.200,139.980 15.314,140.119 15.453 C 140.258 15.592,139.838 16.204,139.186 16.813 C 138.219 17.716,138.000 18.246,138.000 19.680 C 138.000 20.648,137.804 21.636,137.565 21.875 C 137.252 22.188,137.252 22.385,137.565 22.578 C 137.804 22.726,138.000 23.557,138.000 24.424 C 138.000 25.291,138.180 26.000,138.400 26.000 C 138.620 26.000,138.800 26.360,138.800 26.800 C 138.800 27.240,138.980 27.600,139.200 27.600 C 139.420 27.600,139.600 27.960,139.600 28.400 C 139.600 28.840,139.780 29.200,140.000 29.200 C 140.220 29.200,140.400 29.661,140.400 30.224 C 140.400 30.804,140.573 31.140,140.800 31.000 C 141.028 30.859,141.200 31.204,141.200 31.800 C 141.200 32.396,141.372 32.741,141.600 32.600 C 141.834 32.455,142.000 32.870,142.000 33.600 C 142.000 34.382,142.159 34.749,142.427 34.583 C 142.661 34.438,142.822 34.563,142.783 34.860 C 142.687 35.599,143.229 37.200,143.575 37.200 C 143.730 37.200,144.281 38.145,144.798 39.300 C 145.316 40.455,146.068 41.691,146.470 42.047 C 146.871 42.403,147.200 42.988,147.200 43.347 C 147.200 43.706,147.380 44.000,147.600 44.000 C 147.820 44.000,148.000 44.294,148.000 44.653 C 148.000 45.012,148.316 45.597,148.703 45.953 C 149.089 46.309,149.660 47.095,149.970 47.700 C 150.281 48.305,150.685 48.800,150.868 48.800 C 151.050 48.800,151.200 49.088,151.200 49.440 C 151.200 49.791,151.740 50.583,152.400 51.200 C 153.060 51.817,153.600 52.525,153.600 52.774 C 153.600 53.613,156.419 56.090,157.126 55.873 C 157.497 55.759,159.600 55.008,161.800 54.205 C 167.293 52.200,172.424 50.515,175.997 49.544 C 177.649 49.096,179.630 48.551,180.400 48.334 C 181.170 48.117,182.520 47.783,183.400 47.592 C 184.280 47.400,185.810 47.043,186.800 46.797 C 187.790 46.551,189.410 46.199,190.400 46.015 C 191.390 45.831,193.280 45.473,194.600 45.220 C 201.770 43.846,204.654 43.497,216.200 42.609 C 220.821 42.254,228.109 42.000,232.400 42.044 C 236.690 42.088,244.358 41.985,249.440 41.816 L 258.680 41.508 259.471 42.654 C 262.905 47.631,267.190 61.247,265.709 62.476 C 265.212 62.888,261.345 64.308,254.000 66.776 C 250.587 67.923,237.917 73.007,232.800 75.284 C 231.810 75.724,230.370 76.361,229.600 76.699 C 219.689 81.046,200.328 91.391,194.128 95.651 C 193.208 96.283,192.338 96.800,192.194 96.800 C 191.597 96.800,180.800 104.542,180.288 105.336 C 177.859 109.110,179.351 113.764,183.333 114.836 C 185.885 115.523,187.394 114.957,192.957 111.227 C 199.124 107.092,203.919 104.000,204.166 104.000 C 204.262 104.000,205.808 103.100,207.600 102.000 C 209.392 100.900,210.918 100.000,210.991 100.000 C 211.064 100.000,212.265 99.354,213.662 98.565 C 217.885 96.177,235.222 87.600,235.826 87.600 C 235.909 87.600,237.017 87.131,238.288 86.557 C 240.800 85.423,242.943 84.498,244.200 84.004 C 244.640 83.831,246.620 83.049,248.600 82.265 C 253.001 80.524,257.458 78.834,258.800 78.398 C 259.350 78.219,261.059 77.606,262.598 77.036 C 266.225 75.693,266.121 75.659,265.792 78.100 C 261.909 106.957,230.000 141.668,194.200 155.979 C 193.760 156.155,192.590 156.665,191.600 157.112 C 183.406 160.813,169.300 164.995,159.031 166.767 L 155.061 167.452 160.431 167.926 C 177.415 169.428,196.758 167.060,215.800 161.146 C 220.050 159.827,220.706 159.600,222.600 158.800 C 223.260 158.521,224.205 158.137,224.700 157.946 C 227.026 157.051,227.517 156.849,229.200 156.094 C 235.983 153.052,242.505 149.733,248.947 146.046 C 251.358 144.666,256.585 141.098,256.733 140.730 C 256.807 140.549,257.088 140.400,257.358 140.400 C 257.628 140.400,258.198 140.080,258.625 139.689 C 259.051 139.298,260.030 138.542,260.800 138.008 C 261.570 137.475,262.290 136.935,262.400 136.809 C 262.510 136.683,264.527 135.006,266.881 133.083 C 270.997 129.721,279.286 121.765,282.608 117.990 C 285.042 115.223,287.735 111.980,288.378 111.043 C 288.695 110.579,289.280 109.909,289.678 109.553 C 290.075 109.197,290.401 108.747,290.402 108.553 C 290.403 108.359,290.943 107.625,291.602 106.922 C 292.261 106.219,292.800 105.550,292.800 105.435 C 292.800 105.321,294.134 103.196,295.764 100.713 C 299.626 94.832,302.043 90.580,305.148 84.200 C 306.540 81.340,307.842 78.687,308.040 78.305 C 308.238 77.923,308.400 77.338,308.400 77.005 C 308.400 76.672,308.580 76.400,308.800 76.400 C 309.020 76.400,309.200 76.076,309.200 75.680 C 309.200 75.284,309.349 74.789,309.530 74.580 C 309.712 74.371,310.105 73.390,310.402 72.400 C 310.700 71.410,311.062 70.420,311.206 70.200 C 311.350 69.980,311.880 68.450,312.383 66.800 C 312.887 65.150,313.449 63.611,313.632 63.380 C 314.228 62.629,314.469 59.839,314.083 58.149 C 313.714 56.528,313.732 56.485,315.062 55.851 C 316.796 55.024,316.569 53.684,314.332 51.535 C 313.490 50.725,312.800 49.900,312.800 49.702 C 312.800 49.089,301.586 37.200,301.008 37.200 C 300.869 37.200,299.686 36.110,298.378 34.777 C 297.070 33.445,296.000 32.462,296.000 32.593 C 296.000 32.865,295.311 32.321,293.478 30.600 C 292.004 29.216,290.347 28.093,289.872 28.156 C 289.691 28.180,289.365 27.881,289.147 27.492 C 288.929 27.102,288.582 26.888,288.375 27.015 C 288.169 27.143,288.000 26.937,288.000 26.557 C 288.000 26.177,287.891 25.976,287.757 26.109 C 287.624 26.243,287.140 26.003,286.682 25.576 C 286.224 25.149,285.653 24.800,285.413 24.800 C 285.173 24.800,284.717 24.440,284.400 24.000 C 284.083 23.560,283.503 23.200,283.112 23.200 C 282.720 23.200,282.400 23.020,282.400 22.800 C 282.400 22.580,282.119 22.400,281.776 22.400 C 281.433 22.400,281.264 22.220,281.400 22.000 C 281.536 21.780,281.316 21.600,280.912 21.600 C 280.507 21.600,279.917 21.240,279.600 20.800 C 279.283 20.360,278.703 20.000,278.312 20.000 C 277.920 20.000,277.600 19.820,277.600 19.600 C 277.600 19.380,277.255 19.200,276.833 19.200 C 276.412 19.200,276.007 19.034,275.933 18.830 C 275.860 18.627,275.530 18.402,275.200 18.330 C 274.870 18.259,274.312 17.888,273.959 17.507 C 273.607 17.126,273.228 16.906,273.116 17.017 C 273.005 17.128,272.686 16.945,272.408 16.610 C 272.130 16.274,271.654 16.000,271.351 16.000 C 271.048 16.000,270.800 15.820,270.800 15.600 C 270.800 15.380,270.440 15.200,270.000 15.200 C 269.560 15.200,269.200 15.020,269.200 14.800 C 269.200 14.580,268.910 14.400,268.554 14.400 C 268.199 14.400,267.209 14.040,266.354 13.600 C 265.500 13.160,264.100 12.440,263.246 12.000 C 262.391 11.560,261.401 11.200,261.046 11.200 C 260.690 11.200,260.400 11.020,260.400 10.800 C 260.400 10.580,260.124 10.400,259.787 10.400 C 259.450 10.400,258.505 10.102,257.687 9.739 C 256.869 9.375,255.975 9.113,255.700 9.156 C 255.425 9.200,255.200 9.047,255.200 8.818 C 255.200 8.588,254.660 8.400,254.000 8.400 C 253.340 8.400,252.800 8.220,252.800 8.000 C 252.800 7.780,252.260 7.600,251.600 7.600 C 250.940 7.600,250.400 7.420,250.400 7.200 C 250.400 6.980,249.860 6.800,249.200 6.800 C 248.540 6.800,248.000 6.620,248.000 6.400 C 248.000 6.180,247.460 6.000,246.800 6.000 C 246.140 6.000,245.600 5.820,245.600 5.600 C 245.600 5.380,245.060 5.200,244.400 5.200 C 243.740 5.200,243.200 5.020,243.200 4.800 C 243.200 4.580,242.581 4.400,241.824 4.400 C 241.067 4.400,240.336 4.220,240.200 4.000 C 240.064 3.780,239.333 3.600,238.576 3.600 C 237.819 3.600,237.200 3.420,237.200 3.200 C 237.200 2.980,236.491 2.800,235.624 2.800 C 234.757 2.800,233.958 2.656,233.849 2.480 C 233.740 2.304,232.875 2.115,231.926 2.060 C 230.977 2.005,230.140 1.789,230.067 1.580 C 229.993 1.371,228.768 1.200,227.343 1.200 C 225.918 1.200,224.848 1.047,224.963 0.859 C 225.390 0.169,190.208 -0.475,189.523 0.210 " stroke="none" fill="#8bcea4" fill-rule="evenodd"></path><path id="path4" d="M213.400 42.800 L 210.600 43.059 214.000 43.086 C 215.870 43.101,218.480 42.979,219.800 42.815 L 222.200 42.518 219.200 42.529 C 217.550 42.536,214.940 42.658,213.400 42.800 M230.000 42.693 C 229.230 42.783,228.429 43.024,228.220 43.229 C 228.011 43.433,227.381 43.600,226.820 43.600 C 225.798 43.601,221.602 44.432,218.600 45.229 C 217.720 45.462,216.370 45.809,215.600 46.000 C 214.830 46.191,213.480 46.549,212.600 46.796 C 211.720 47.043,210.460 47.397,209.800 47.582 C 207.105 48.339,200.145 50.817,195.200 52.782 C 189.202 55.164,176.345 61.868,171.400 65.190 C 170.520 65.782,169.530 66.384,169.200 66.528 C 168.309 66.919,163.729 70.245,158.318 74.431 C 138.216 89.979,120.859 113.775,111.656 138.400 C 106.017 153.488,106.862 155.438,121.205 160.429 C 127.110 162.485,127.809 162.662,127.400 162.000 C 127.264 161.780,126.724 161.600,126.200 161.600 C 125.676 161.600,125.136 161.420,125.000 161.200 C 124.864 160.980,124.324 160.800,123.800 160.800 C 123.276 160.800,122.736 160.620,122.600 160.400 C 122.464 160.180,122.001 160.000,121.571 160.000 C 121.141 160.000,120.477 159.841,120.095 159.647 C 119.419 159.303,118.134 158.763,116.300 158.051 C 112.437 156.551,109.600 154.424,109.600 153.027 C 109.600 152.708,109.420 152.336,109.200 152.200 C 108.980 152.064,108.800 150.984,108.800 149.800 C 108.800 148.616,108.980 147.536,109.200 147.400 C 109.420 147.264,109.600 146.634,109.600 146.000 C 109.600 145.366,109.780 144.736,110.000 144.600 C 110.220 144.464,110.400 144.001,110.400 143.571 C 110.400 143.141,110.559 142.477,110.753 142.095 C 111.218 141.181,111.806 139.726,112.407 138.000 C 112.675 137.230,113.233 135.837,113.647 134.904 C 114.061 133.972,114.400 133.113,114.400 132.996 C 114.400 132.743,117.157 126.855,118.987 123.200 C 120.207 120.765,120.672 119.913,122.862 116.100 C 123.335 115.275,124.091 113.921,124.541 113.090 C 124.991 112.260,125.638 111.270,125.979 110.890 C 126.321 110.511,126.844 109.726,127.143 109.146 C 128.756 106.014,139.918 92.042,144.035 88.000 C 149.745 82.394,154.945 77.636,157.600 75.588 C 158.590 74.825,159.490 74.101,159.600 73.981 C 159.710 73.860,160.430 73.329,161.200 72.800 C 161.970 72.271,162.690 71.724,162.800 71.583 C 163.046 71.269,173.995 64.105,176.200 62.815 C 188.434 55.662,205.513 48.757,217.800 45.999 C 218.900 45.752,220.430 45.388,221.200 45.191 C 221.970 44.994,223.230 44.729,224.000 44.601 C 224.770 44.474,226.210 44.212,227.200 44.019 C 228.190 43.826,230.249 43.469,231.776 43.225 C 236.154 42.526,234.821 42.126,230.000 42.693 M206.400 43.461 C 199.069 44.158,188.497 46.270,176.270 49.481 C 175.868 49.587,175.622 49.755,175.723 49.856 C 175.824 49.957,177.772 49.566,180.053 48.988 C 188.366 46.880,190.247 46.470,197.300 45.231 C 198.455 45.028,200.491 44.668,201.824 44.431 C 203.157 44.194,205.047 43.979,206.024 43.953 C 207.001 43.927,208.340 43.768,209.000 43.600 L 210.200 43.295 209.000 43.311 C 208.340 43.321,207.170 43.388,206.400 43.461 M173.200 50.400 C 172.405 50.914,173.404 50.914,174.600 50.400 L 175.400 50.056 174.600 50.034 C 174.160 50.022,173.530 50.187,173.200 50.400 M170.800 51.200 C 170.267 51.545,170.267 51.588,170.800 51.588 C 171.130 51.588,171.670 51.413,172.000 51.200 C 172.533 50.855,172.533 50.812,172.000 50.812 C 171.670 50.812,171.130 50.987,170.800 51.200 M168.200 52.000 C 167.696 52.217,167.622 52.344,168.000 52.344 C 168.330 52.344,168.960 52.189,169.400 52.000 C 169.904 51.783,169.978 51.656,169.600 51.656 C 169.270 51.656,168.640 51.811,168.200 52.000 M163.600 53.600 C 163.067 53.945,163.067 53.988,163.600 53.988 C 163.930 53.988,164.470 53.813,164.800 53.600 C 165.333 53.255,165.333 53.212,164.800 53.212 C 164.470 53.212,163.930 53.387,163.600 53.600 M161.200 54.400 C 160.667 54.745,160.667 54.788,161.200 54.788 C 161.530 54.788,162.070 54.613,162.400 54.400 C 162.933 54.055,162.933 54.012,162.400 54.012 C 162.070 54.012,161.530 54.187,161.200 54.400 M315.100 55.829 C 313.957 56.449,313.734 57.473,314.410 59.000 C 314.651 59.542,314.690 59.253,314.531 58.100 C 314.346 56.749,314.422 56.400,314.900 56.400 C 315.231 56.400,315.726 56.130,316.000 55.800 C 316.609 55.066,316.500 55.069,315.100 55.829 M313.861 63.262 C 313.469 64.658,312.979 66.113,312.774 66.495 C 312.568 66.877,312.400 67.464,312.400 67.800 C 312.400 68.136,312.241 68.723,312.047 69.105 C 311.602 69.980,311.059 71.305,310.204 73.600 C 309.836 74.590,309.279 75.985,308.967 76.700 C 308.655 77.415,308.105 78.675,307.744 79.500 C 307.123 80.920,304.451 86.657,304.111 87.300 C 304.024 87.465,304.036 87.600,304.139 87.600 C 304.397 87.600,308.772 78.506,310.104 75.200 C 312.509 69.229,314.942 61.826,314.719 61.157 C 314.639 60.918,314.253 61.865,313.861 63.262 M302.777 89.661 C 302.294 90.618,301.442 92.210,300.883 93.200 C 300.325 94.190,300.068 94.820,300.311 94.600 C 300.946 94.027,304.042 88.309,303.832 88.099 C 303.735 88.002,303.260 88.705,302.777 89.661 M298.541 97.100 C 296.955 99.859,294.308 103.778,293.928 103.933 C 293.747 104.007,293.600 104.231,293.600 104.431 C 293.600 104.873,289.635 110.154,285.815 114.800 C 282.615 118.692,272.559 128.872,269.006 131.816 C 267.689 132.907,266.159 134.215,265.606 134.723 C 265.053 135.230,264.105 135.944,263.500 136.309 C 262.895 136.674,262.400 137.136,262.400 137.335 C 262.400 137.544,262.612 137.538,262.900 137.320 C 271.369 130.917,282.534 119.891,288.494 112.044 C 289.431 110.810,290.297 109.710,290.418 109.600 C 290.539 109.490,291.071 108.770,291.600 108.000 C 292.129 107.230,292.676 106.510,292.816 106.400 C 293.236 106.069,298.629 97.899,299.350 96.500 C 300.377 94.509,299.774 94.956,298.541 97.100 M255.200 142.250 C 251.570 144.732,248.487 146.771,248.348 146.781 C 248.020 146.806,243.571 149.485,243.248 149.853 C 242.674 150.506,252.102 145.016,253.800 143.708 C 254.020 143.539,254.695 143.145,255.300 142.832 C 255.905 142.520,256.400 142.115,256.400 141.932 C 256.400 141.750,256.578 141.600,256.797 141.600 C 257.015 141.600,258.012 140.975,259.014 140.210 C 260.015 139.446,261.140 138.649,261.514 138.440 C 261.888 138.231,262.105 137.987,261.997 137.898 C 261.889 137.809,258.830 139.767,255.200 142.250 M238.600 152.038 C 236.620 153.101,235.139 153.977,235.308 153.985 C 235.740 154.006,242.800 150.435,242.800 150.196 C 242.800 149.839,242.233 150.088,238.600 152.038 M231.400 155.432 C 229.640 156.206,227.437 157.191,226.504 157.620 C 225.572 158.049,224.624 158.400,224.399 158.400 C 224.174 158.400,223.677 158.566,223.295 158.768 C 222.437 159.222,218.752 160.576,216.600 161.227 C 215.720 161.493,214.640 161.845,214.200 162.010 C 213.760 162.174,212.590 162.528,211.600 162.796 C 210.610 163.064,209.387 163.445,208.881 163.642 C 208.376 163.839,207.566 164.003,207.081 164.006 C 206.597 164.009,205.930 164.200,205.600 164.430 C 204.942 164.889,206.934 164.635,208.800 164.021 C 209.350 163.841,210.610 163.466,211.600 163.190 C 216.098 161.932,221.492 160.071,223.295 159.153 C 223.677 158.959,224.174 158.800,224.399 158.800 C 224.624 158.800,225.662 158.422,226.704 157.960 C 227.747 157.498,228.960 156.977,229.400 156.802 C 231.182 156.093,234.800 154.330,234.800 154.171 C 234.800 153.928,234.909 153.887,231.400 155.432 M128.792 162.815 C 129.338 163.050,131.858 163.751,134.392 164.373 C 138.440 165.367,141.070 165.884,150.824 167.607 C 152.047 167.823,153.397 167.989,153.824 167.975 C 155.508 167.920,152.694 167.197,148.469 166.599 C 142.395 165.739,136.395 164.513,131.800 163.194 C 129.329 162.484,127.484 162.252,128.792 162.815 M202.200 165.200 L 201.400 165.544 202.200 165.532 C 202.640 165.526,203.450 165.376,204.000 165.200 L 205.000 164.880 204.000 164.868 C 203.450 164.862,202.640 165.011,202.200 165.200 M198.400 166.000 C 197.642 166.490,198.870 166.490,200.400 166.000 C 201.380 165.686,201.376 165.679,200.200 165.646 C 199.540 165.627,198.730 165.787,198.400 166.000 M193.800 166.800 C 192.034 167.249,194.045 167.269,196.200 166.823 L 197.800 166.492 196.400 166.493 C 195.630 166.494,194.460 166.632,193.800 166.800 M188.200 167.600 L 186.600 167.886 188.200 167.903 C 189.080 167.913,190.250 167.776,190.800 167.600 L 191.800 167.280 190.800 167.297 C 190.250 167.306,189.080 167.442,188.200 167.600 M157.000 168.389 C 158.192 168.703,163.886 168.933,163.567 168.654 C 163.475 168.574,161.690 168.411,159.600 168.291 C 157.441 168.167,156.318 168.209,157.000 168.389 M179.400 168.400 L 177.000 168.666 180.000 168.685 C 181.650 168.696,183.540 168.568,184.200 168.400 C 185.764 168.002,182.997 168.002,179.400 168.400 " stroke="none" fill="#c8df94" fill-rule="evenodd"></path></g></svg>