<svg id="svg" version="1.1" xmlns="http://www.w3.org/2000/svg" xmlns:xlink="http://www.w3.org/1999/xlink" width="400" height="400" viewBox="0, 0, 400,400"><g id="svgg"><path id="path0" d="M186.643 95.367 C 186.916 96.078,183.456 96.337,183.023 95.638 C 182.731 95.164,181.353 95.534,180.764 96.243 C 180.259 96.852,178.800 97.009,178.800 96.455 C 178.800 96.266,178.345 96.198,177.790 96.304 C 176.846 96.484,176.826 96.534,177.490 97.061 C 178.120 97.562,177.966 97.607,176.131 97.461 C 174.492 97.331,174.106 97.411,174.274 97.848 C 174.565 98.606,173.722 98.548,173.293 97.780 C 173.005 97.266,172.867 97.334,172.482 98.180 C 172.005 99.226,171.423 99.485,171.019 98.830 C 170.893 98.627,171.107 98.378,171.495 98.277 C 172.147 98.107,172.148 98.089,171.509 98.046 C 171.129 98.021,170.516 98.462,170.145 99.027 C 169.632 99.811,169.249 99.999,168.533 99.819 C 168.017 99.689,167.641 99.749,167.697 99.952 C 167.801 100.323,167.616 100.405,166.700 100.394 C 166.361 100.390,166.393 100.251,166.800 99.963 C 167.330 99.588,167.331 99.558,166.802 99.702 C 166.473 99.792,166.203 100.193,166.202 100.594 C 166.201 100.994,165.930 101.375,165.600 101.441 C 165.270 101.506,164.567 101.687,164.037 101.843 C 163.357 102.043,163.159 101.990,163.361 101.663 C 163.518 101.408,163.457 101.200,163.224 101.200 C 162.991 101.200,162.800 101.560,162.800 102.000 C 162.800 102.458,162.533 102.800,162.176 102.800 C 161.807 102.800,161.669 102.612,161.838 102.338 C 162.011 102.059,161.948 101.985,161.679 102.151 C 161.435 102.302,161.336 102.690,161.460 103.013 C 161.614 103.415,161.419 103.600,160.843 103.600 C 160.368 103.600,160.000 103.857,160.000 104.187 C 160.000 104.544,159.765 104.685,159.402 104.546 C 159.074 104.419,158.921 104.127,159.064 103.896 C 159.221 103.643,159.130 103.596,158.835 103.779 C 158.566 103.945,158.442 104.333,158.560 104.640 C 158.678 104.948,158.544 105.200,158.263 105.200 C 157.981 105.200,157.364 105.560,156.892 106.000 C 156.420 106.440,155.745 106.800,155.393 106.800 C 155.041 106.800,154.864 106.980,155.000 107.200 C 155.136 107.420,154.954 107.600,154.595 107.600 C 154.236 107.600,153.671 107.872,153.339 108.204 C 153.007 108.536,152.566 108.702,152.358 108.574 C 152.150 108.446,152.030 108.521,152.090 108.743 C 152.205 109.163,148.865 112.400,148.316 112.400 C 148.142 112.400,148.000 112.209,148.000 111.976 C 148.000 111.743,148.180 111.664,148.400 111.800 C 148.620 111.936,148.800 111.857,148.800 111.624 C 148.800 111.391,148.643 111.200,148.451 111.200 C 148.026 111.200,144.484 114.361,144.884 114.384 C 145.041 114.393,145.536 114.006,145.984 113.525 C 146.433 113.043,146.800 112.829,146.800 113.049 C 146.800 113.433,145.906 114.445,144.636 115.500 C 143.913 116.100,143.457 116.155,143.800 115.600 C 144.202 114.949,143.743 115.144,143.149 115.877 C 142.776 116.337,142.760 116.457,143.100 116.253 C 143.420 116.061,143.600 116.193,143.600 116.619 C 143.600 117.057,143.387 117.204,142.979 117.047 C 142.609 116.905,142.461 116.976,142.614 117.222 C 142.931 117.735,142.039 118.872,141.555 118.572 C 141.226 118.369,141.028 118.955,141.163 119.730 C 141.194 119.911,141.043 119.950,140.827 119.817 C 140.612 119.684,140.552 119.265,140.695 118.887 C 140.939 118.244,140.912 118.243,140.278 118.871 C 139.906 119.240,139.556 119.954,139.500 120.457 C 139.384 121.517,137.413 123.779,136.888 123.454 C 136.693 123.334,136.533 123.489,136.533 123.800 C 136.533 124.111,136.683 124.272,136.867 124.159 C 137.050 124.045,137.200 124.143,137.200 124.376 C 137.200 124.609,136.990 124.800,136.733 124.800 C 136.477 124.800,136.386 124.919,136.531 125.064 C 136.796 125.329,135.276 126.592,134.685 126.597 C 134.124 126.602,133.693 127.668,133.912 128.507 C 134.057 129.061,133.977 129.233,133.663 129.039 C 133.391 128.871,133.200 129.000,133.200 129.354 C 133.200 130.361,131.592 132.749,130.729 133.023 C 130.080 133.228,129.962 133.512,130.145 134.425 C 130.271 135.054,130.200 135.677,129.987 135.808 C 129.774 135.940,129.587 135.722,129.572 135.324 C 129.547 134.682,129.508 134.690,129.226 135.400 C 129.051 135.840,129.063 136.260,129.254 136.333 C 129.444 136.407,129.600 136.651,129.600 136.876 C 129.600 137.101,129.348 137.189,129.039 137.070 C 128.250 136.767,127.921 137.223,128.460 137.873 C 128.710 138.173,128.789 138.545,128.635 138.698 C 128.482 138.851,128.184 138.712,127.973 138.388 C 127.714 137.991,127.672 138.353,127.845 139.500 C 128.010 140.591,127.951 141.200,127.679 141.200 C 127.446 141.200,127.198 141.605,127.128 142.100 C 127.058 142.595,126.790 143.000,126.533 143.000 C 126.277 143.000,125.932 143.135,125.767 143.300 C 125.602 143.465,125.677 143.600,125.933 143.600 C 126.190 143.600,126.400 143.954,126.400 144.387 C 126.400 144.898,126.203 145.099,125.840 144.960 C 125.533 144.842,125.145 144.966,124.979 145.235 C 124.785 145.547,124.843 145.621,125.138 145.438 C 125.441 145.251,125.600 145.505,125.600 146.176 C 125.600 146.739,125.420 147.200,125.200 147.200 C 124.980 147.200,124.800 147.712,124.800 148.339 C 124.800 149.125,124.521 149.612,123.900 149.912 C 123.405 150.151,123.225 150.358,123.500 150.373 C 124.143 150.408,124.159 152.680,123.518 152.894 C 123.219 152.994,123.073 153.705,123.136 154.762 C 123.201 155.870,123.090 156.379,122.818 156.211 C 122.546 156.043,122.400 156.738,122.400 158.200 C 122.400 159.596,122.249 160.354,122.000 160.200 C 121.780 160.064,121.600 160.218,121.600 160.543 C 121.600 160.868,121.375 161.224,121.100 161.335 C 120.700 161.496,120.700 161.543,121.100 161.568 C 121.400 161.587,121.600 162.168,121.600 163.024 C 121.600 163.807,121.440 164.349,121.245 164.228 C 121.050 164.107,120.645 164.311,120.345 164.681 C 119.970 165.144,119.956 165.260,120.300 165.053 C 120.657 164.839,120.800 165.109,120.800 166.000 C 120.800 166.822,120.647 167.152,120.350 166.969 C 120.037 166.776,119.952 167.139,120.071 168.158 C 120.197 169.241,120.107 169.573,119.726 169.427 C 119.442 169.318,119.229 169.357,119.252 169.514 C 119.413 170.596,119.134 172.007,118.800 171.800 C 118.573 171.660,118.400 171.998,118.400 172.582 C 118.400 173.595,117.716 175.168,117.069 175.643 C 116.887 175.776,116.797 176.226,116.869 176.643 C 116.949 177.106,116.794 177.357,116.470 177.290 C 116.106 177.214,116.020 177.434,116.197 177.990 C 116.345 178.458,116.274 178.800,116.027 178.800 C 115.792 178.800,115.597 178.575,115.594 178.300 C 115.590 177.966,115.462 177.998,115.211 178.397 C 114.973 178.772,114.976 179.136,115.217 179.377 C 115.787 179.947,115.681 180.400,114.976 180.400 C 114.607 180.400,114.469 180.212,114.638 179.938 C 114.809 179.662,114.749 179.585,114.487 179.746 C 113.788 180.178,112.821 182.388,113.059 183.009 C 113.179 183.321,112.899 184.056,112.438 184.642 C 111.939 185.278,111.600 185.476,111.600 185.134 C 111.600 184.818,111.825 184.308,112.100 183.999 C 112.528 183.519,112.495 183.518,111.868 183.995 C 111.409 184.343,111.201 184.892,111.310 185.462 C 111.412 185.999,111.179 186.701,110.742 187.170 C 110.334 187.608,110.000 188.154,110.000 188.383 C 110.000 188.612,109.801 188.800,109.557 188.800 C 109.314 188.800,109.222 188.521,109.353 188.179 C 109.498 187.801,109.425 187.661,109.168 187.820 C 108.936 187.963,108.849 188.350,108.975 188.680 C 109.208 189.286,107.466 191.733,107.078 191.345 C 106.790 191.057,104.398 193.225,104.406 193.766 C 104.409 194.005,104.587 193.930,104.800 193.600 C 105.013 193.270,105.190 193.180,105.193 193.400 C 105.202 194.009,103.355 196.022,103.060 195.726 C 102.917 195.583,102.800 195.728,102.800 196.048 C 102.800 196.827,98.980 200.559,98.492 200.257 C 98.280 200.126,97.785 200.375,97.391 200.809 C 96.726 201.544,96.724 201.600,97.362 201.600 C 97.739 201.600,97.944 201.432,97.817 201.228 C 97.691 201.023,97.770 200.742,97.993 200.604 C 98.217 200.466,98.400 200.639,98.400 200.989 C 98.400 201.616,97.859 201.974,96.643 202.153 C 95.688 202.293,95.371 202.799,96.233 202.806 C 96.807 202.811,96.865 202.898,96.466 203.151 C 96.172 203.337,95.961 203.645,95.996 203.835 C 96.031 204.025,95.867 204.245,95.630 204.323 C 95.394 204.402,95.200 204.259,95.200 204.005 C 95.200 203.717,94.974 203.769,94.600 204.143 C 93.820 204.923,93.820 205.447,94.600 204.800 C 94.930 204.526,95.200 204.445,95.200 204.620 C 95.200 205.178,93.942 206.350,93.462 206.239 C 93.208 206.179,93.135 206.207,93.300 206.299 C 93.727 206.538,93.673 207.600,93.233 207.600 C 93.032 207.600,92.763 207.375,92.637 207.100 C 92.511 206.825,92.497 206.970,92.606 207.422 C 92.725 207.915,92.483 208.590,92.002 209.105 C 91.561 209.579,91.200 210.166,91.200 210.410 C 91.200 210.679,90.845 210.754,90.300 210.601 C 89.633 210.413,89.549 210.450,89.974 210.743 C 90.794 211.308,89.768 212.507,88.744 212.182 C 88.319 212.047,88.000 212.140,88.000 212.397 C 88.000 212.644,88.180 212.736,88.400 212.600 C 88.620 212.464,88.800 212.543,88.800 212.776 C 88.800 213.009,88.620 213.200,88.400 213.200 C 88.180 213.200,87.979 213.605,87.954 214.100 C 87.916 214.821,87.870 214.855,87.719 214.271 C 87.490 213.386,86.413 214.506,86.441 215.600 C 86.451 215.991,86.576 215.921,86.800 215.400 C 87.109 214.680,87.147 214.673,87.172 215.329 C 87.202 216.103,86.319 217.200,85.666 217.200 C 85.451 217.200,85.366 217.548,85.477 217.973 C 85.640 218.597,85.518 218.704,84.840 218.526 C 84.338 218.395,84.000 218.496,84.000 218.777 C 84.000 219.036,84.180 219.136,84.400 219.000 C 84.620 218.864,84.800 219.044,84.800 219.400 C 84.800 219.756,84.640 219.949,84.445 219.828 C 84.250 219.707,84.115 219.922,84.145 220.304 C 84.183 220.785,83.953 220.964,83.400 220.883 C 82.953 220.818,82.776 220.906,83.000 221.083 C 83.649 221.597,83.649 222.400,83.000 222.400 C 82.670 222.400,82.400 222.681,82.400 223.024 C 82.400 223.394,82.212 223.531,81.937 223.361 C 81.620 223.165,81.545 223.346,81.700 223.937 C 81.855 224.533,81.742 224.800,81.336 224.800 C 80.928 224.800,80.824 225.047,81.001 225.602 C 81.170 226.134,81.045 226.485,80.630 226.644 C 80.286 226.776,80.104 227.045,80.226 227.242 C 80.348 227.439,80.316 227.813,80.155 228.073 C 79.953 228.400,79.760 228.307,79.532 227.773 C 79.307 227.245,79.273 227.400,79.424 228.262 C 79.548 228.965,79.459 229.640,79.223 229.786 C 78.991 229.929,78.800 230.407,78.800 230.847 C 78.800 231.313,78.621 231.537,78.373 231.383 C 78.138 231.238,78.046 230.858,78.168 230.539 C 78.303 230.188,78.220 230.064,77.959 230.225 C 77.702 230.384,77.630 231.036,77.781 231.840 C 77.981 232.904,77.915 233.142,77.468 232.971 C 77.044 232.808,76.940 233.035,77.053 233.877 C 77.136 234.495,77.098 234.775,76.969 234.500 C 76.476 233.453,75.972 234.042,76.221 235.373 C 76.456 236.624,76.404 236.726,75.639 236.526 C 75.138 236.395,74.800 236.496,74.800 236.777 C 74.800 237.036,74.980 237.136,75.200 237.000 C 75.420 236.864,75.600 237.123,75.600 237.576 C 75.600 238.029,75.420 238.400,75.200 238.400 C 74.980 238.400,74.800 238.951,74.800 239.624 C 74.800 240.337,74.633 240.744,74.400 240.600 C 74.167 240.456,74.000 240.863,74.000 241.576 C 74.000 242.249,73.820 242.800,73.600 242.800 C 73.380 242.800,73.200 243.261,73.200 243.824 C 73.200 244.404,73.027 244.740,72.800 244.600 C 72.569 244.458,72.400 244.830,72.400 245.480 C 72.400 246.174,72.093 246.800,71.600 247.107 C 71.160 247.382,70.803 247.830,70.806 248.103 C 70.810 248.430,70.945 248.395,71.200 248.000 C 71.502 247.532,71.589 247.643,71.594 248.500 C 71.597 249.105,71.420 249.600,71.200 249.600 C 70.980 249.600,70.800 250.187,70.800 250.904 C 70.800 251.794,70.534 252.374,69.962 252.731 C 69.165 253.229,69.158 253.290,69.817 254.019 C 70.451 254.720,70.454 254.804,69.854 255.034 C 69.413 255.204,69.200 255.763,69.200 256.754 C 69.200 257.765,68.950 258.404,68.400 258.800 C 67.600 259.376,67.244 260.267,68.000 259.800 C 68.220 259.664,68.414 259.878,68.431 260.276 C 68.447 260.674,68.524 261.329,68.600 261.731 C 68.699 262.254,68.562 262.394,68.118 262.224 C 67.591 262.022,67.527 262.301,67.695 264.052 C 67.906 266.240,67.661 267.945,67.235 267.257 C 67.096 267.031,66.790 267.458,66.555 268.207 C 66.321 268.955,66.262 269.486,66.423 269.386 C 67.181 268.918,67.227 272.838,66.481 274.266 C 66.254 274.700,66.166 278.676,66.265 284.000 C 66.438 293.225,66.199 297.336,65.579 295.800 C 65.287 295.076,65.255 295.095,65.241 296.000 C 65.232 296.550,65.484 297.342,65.800 297.759 C 66.116 298.176,66.262 298.699,66.125 298.921 C 65.988 299.142,66.070 299.204,66.306 299.058 C 66.845 298.725,67.355 300.880,67.001 301.997 C 66.856 302.455,66.549 302.692,66.302 302.539 C 66.060 302.390,66.149 302.678,66.501 303.180 C 66.852 303.681,67.033 304.371,66.902 304.712 C 66.754 305.097,66.828 305.230,67.098 305.063 C 67.742 304.665,67.920 305.544,67.685 307.962 C 67.532 309.539,67.600 310.047,67.938 309.839 C 68.445 309.525,68.488 309.740,68.446 312.400 C 68.424 313.784,68.502 314.015,68.781 313.400 C 69.129 312.633,69.145 312.638,69.172 313.500 C 69.187 313.995,69.020 314.400,68.800 314.400 C 68.580 314.400,68.400 314.591,68.400 314.824 C 68.400 315.057,68.580 315.136,68.800 315.000 C 69.020 314.864,69.200 315.044,69.200 315.400 C 69.200 315.756,69.380 315.936,69.600 315.800 C 69.847 315.648,70.000 316.329,70.000 317.576 C 70.000 318.689,70.180 319.600,70.400 319.600 C 70.620 319.600,70.800 320.151,70.800 320.824 C 70.800 321.537,70.967 321.944,71.200 321.800 C 71.423 321.662,71.597 321.961,71.594 322.476 C 71.589 323.219,71.512 323.283,71.200 322.800 C 70.865 322.282,70.811 322.292,70.806 322.873 C 70.803 323.243,71.160 323.660,71.600 323.800 C 72.118 323.964,72.400 324.405,72.400 325.051 C 72.400 325.613,72.574 325.940,72.800 325.800 C 73.033 325.656,73.200 326.063,73.200 326.776 C 73.200 327.449,73.380 328.000,73.600 328.000 C 73.820 328.000,74.000 328.371,74.000 328.824 C 74.000 329.277,73.820 329.536,73.600 329.400 C 73.380 329.264,73.200 329.343,73.200 329.576 C 73.200 329.809,73.560 330.000,74.000 330.000 C 74.875 330.000,75.103 331.011,74.300 331.335 C 74.025 331.446,74.225 331.551,74.745 331.568 C 75.556 331.595,75.667 331.766,75.521 332.759 C 75.398 333.597,75.496 333.861,75.875 333.716 C 76.206 333.589,76.400 333.826,76.400 334.357 C 76.400 334.821,76.601 335.200,76.847 335.200 C 77.096 335.200,77.201 335.553,77.084 336.000 C 76.947 336.523,77.072 336.800,77.443 336.800 C 77.856 336.800,77.961 337.156,77.826 338.100 C 77.724 338.815,77.736 339.175,77.853 338.900 C 78.274 337.915,78.862 338.407,78.614 339.536 C 78.370 340.649,79.281 342.052,79.867 341.466 C 80.003 341.330,79.819 341.105,79.457 340.967 C 79.096 340.828,78.804 340.419,78.809 340.057 C 78.820 339.267,80.377 341.081,80.391 341.900 C 80.396 342.175,80.602 342.400,80.849 342.400 C 81.166 342.400,81.157 342.570,80.817 342.979 C 80.452 343.419,80.447 343.731,80.799 344.279 C 81.240 344.969,81.250 344.968,81.030 344.267 C 80.878 343.783,80.970 343.596,81.300 343.717 C 81.575 343.817,81.755 344.102,81.700 344.350 C 81.645 344.597,81.780 344.800,82.000 344.800 C 82.220 344.800,82.397 345.115,82.394 345.500 C 82.389 346.098,82.331 346.113,82.000 345.600 C 81.731 345.185,81.610 345.157,81.606 345.510 C 81.603 345.790,82.033 346.184,82.561 346.385 C 83.706 346.820,84.337 347.688,83.671 347.910 C 82.927 348.158,83.123 348.863,83.900 348.732 C 84.285 348.666,84.600 348.790,84.600 349.007 C 84.600 349.223,84.435 349.345,84.232 349.277 C 84.030 349.210,84.097 349.435,84.381 349.777 C 85.000 350.523,85.371 350.604,84.944 349.900 C 84.777 349.625,85.297 350.016,86.101 350.770 C 86.904 351.523,87.469 352.288,87.357 352.470 C 87.245 352.651,87.365 352.800,87.625 352.800 C 87.966 352.800,87.950 352.978,87.570 353.436 C 87.119 353.980,87.149 354.052,87.780 353.936 C 88.185 353.861,88.604 354.050,88.710 354.356 C 88.828 354.694,88.727 354.802,88.452 354.632 C 88.203 354.478,88.000 354.563,88.000 354.819 C 88.000 355.079,88.279 355.179,88.630 355.044 C 89.358 354.765,90.465 355.711,90.307 356.479 C 90.248 356.765,90.425 356.955,90.700 356.900 C 91.238 356.792,91.396 357.424,90.900 357.701 C 90.735 357.793,90.801 357.823,91.047 357.767 C 91.645 357.632,94.480 360.746,94.188 361.219 C 94.062 361.423,94.195 361.500,94.485 361.389 C 95.012 361.187,101.206 367.139,101.194 367.836 C 101.191 368.036,101.013 367.930,100.800 367.600 C 100.587 367.270,100.409 367.185,100.406 367.411 C 100.403 367.637,100.788 368.154,101.261 368.560 C 101.954 369.153,102.075 369.174,101.881 368.666 C 101.674 368.128,101.784 368.101,102.619 368.482 C 103.678 368.964,104.005 369.841,102.979 369.447 C 102.601 369.302,102.461 369.375,102.620 369.632 C 102.763 369.864,103.146 369.953,103.470 369.828 C 104.198 369.549,105.522 370.752,104.909 371.136 C 104.628 371.313,104.664 371.563,105.017 371.890 C 105.439 372.281,105.582 372.241,105.726 371.690 C 105.847 371.230,105.925 371.334,105.960 372.000 C 106.002 372.799,106.090 372.879,106.400 372.400 C 106.613 372.070,106.813 371.935,106.844 372.100 C 106.875 372.265,106.925 372.535,106.956 372.700 C 107.074 373.328,107.665 374.000,108.100 374.000 C 108.349 374.000,108.204 373.736,107.776 373.413 C 107.124 372.919,107.104 372.823,107.651 372.813 C 108.425 372.798,109.363 373.813,109.047 374.325 C 108.924 374.523,109.289 374.596,109.857 374.487 C 110.779 374.311,110.863 374.392,110.648 375.245 C 110.516 375.770,110.511 375.975,110.637 375.700 C 110.962 374.993,111.734 375.075,111.460 375.787 C 111.336 376.110,111.435 376.498,111.679 376.649 C 111.948 376.815,112.011 376.741,111.838 376.462 C 111.681 376.208,111.743 376.000,111.976 376.000 C 112.209 376.000,112.400 376.180,112.400 376.400 C 112.400 376.620,112.772 376.800,113.227 376.800 C 113.884 376.800,114.008 376.985,113.831 377.700 C 113.708 378.195,113.711 378.375,113.837 378.100 C 114.178 377.358,114.927 377.493,114.638 378.244 C 114.440 378.761,114.582 378.841,115.350 378.648 C 115.958 378.496,116.489 378.625,116.803 379.004 C 117.103 379.365,117.134 379.600,116.882 379.600 C 116.654 379.600,116.376 379.375,116.265 379.100 C 116.144 378.801,116.050 378.882,116.032 379.300 C 116.007 379.843,116.323 380.000,117.443 380.000 C 118.547 380.000,118.833 380.138,118.660 380.587 C 118.536 380.910,118.635 381.298,118.879 381.449 C 119.148 381.615,119.211 381.541,119.038 381.262 C 118.606 380.563,119.346 380.705,121.145 381.665 C 122.037 382.141,122.664 382.696,122.540 382.898 C 122.415 383.100,122.647 383.232,123.056 383.190 C 124.058 383.090,125.600 383.609,125.600 384.047 C 125.600 384.531,124.505 384.494,124.200 384.000 C 124.064 383.780,123.743 383.600,123.487 383.600 C 123.231 383.600,123.425 383.882,123.918 384.228 C 124.411 384.573,125.306 384.798,125.907 384.728 C 126.783 384.625,127.025 384.778,127.128 385.500 C 127.198 385.995,127.434 386.400,127.651 386.400 C 127.869 386.400,127.944 386.232,127.817 386.028 C 127.691 385.823,127.790 385.530,128.038 385.376 C 128.516 385.081,129.273 385.958,128.967 386.453 C 128.868 386.614,128.974 386.861,129.203 387.002 C 129.432 387.144,129.570 387.044,129.510 386.780 C 129.449 386.516,129.625 386.218,129.900 386.117 C 130.175 386.016,130.400 386.128,130.400 386.367 C 130.400 386.605,130.760 386.800,131.200 386.800 C 131.640 386.800,132.000 387.058,132.000 387.374 C 132.000 387.774,132.316 387.890,133.049 387.757 C 133.838 387.614,134.044 387.707,133.880 388.135 C 133.663 388.702,134.275 389.600,134.880 389.600 C 135.056 389.600,135.214 389.285,135.232 388.900 C 135.250 388.482,135.344 388.401,135.465 388.700 C 135.576 388.975,136.112 389.200,136.657 389.200 C 137.241 389.200,137.542 389.371,137.390 389.616 C 137.248 389.845,136.743 389.913,136.266 389.767 C 135.790 389.620,135.511 389.619,135.646 389.763 C 136.067 390.212,138.437 390.783,138.184 390.374 C 138.057 390.168,138.323 390.000,138.776 390.000 C 139.676 390.000,139.903 390.632,139.100 390.900 C 138.825 390.992,139.090 391.161,139.688 391.276 C 140.286 391.391,140.681 391.330,140.564 391.142 C 140.448 390.954,140.702 390.800,141.130 390.800 C 141.588 390.800,142.019 391.169,142.180 391.700 C 142.346 392.245,142.535 392.403,142.660 392.100 C 142.774 391.825,143.222 391.600,143.657 391.600 C 144.092 391.600,144.336 391.780,144.200 392.000 C 144.056 392.233,144.463 392.400,145.176 392.400 C 145.913 392.400,146.400 392.607,146.400 392.920 C 146.400 393.283,146.850 393.389,147.900 393.272 C 148.725 393.179,149.274 393.237,149.119 393.400 C 148.965 393.562,149.087 393.944,149.390 394.248 C 150.030 394.887,150.563 394.988,150.200 394.400 C 150.060 394.173,150.396 394.000,150.976 394.000 C 151.539 394.000,152.000 394.180,152.000 394.400 C 152.000 394.620,152.731 394.800,153.624 394.800 C 154.517 394.800,155.158 394.944,155.050 395.119 C 154.942 395.295,155.035 395.700,155.257 396.019 C 155.564 396.461,155.710 396.480,155.864 396.100 C 156.105 395.504,157.848 395.430,158.200 396.000 C 158.336 396.220,159.157 396.400,160.024 396.400 C 160.891 396.400,161.600 396.594,161.600 396.831 C 161.600 397.074,162.253 397.231,163.100 397.192 C 165.261 397.092,165.360 397.117,166.325 398.016 C 166.806 398.464,167.200 398.644,167.200 398.416 C 167.200 398.187,167.920 398.000,168.800 398.000 C 169.680 398.000,170.400 398.166,170.400 398.369 C 170.400 398.572,171.857 398.723,173.637 398.705 C 175.837 398.682,176.973 398.833,177.184 399.175 C 177.502 399.689,178.540 399.810,180.500 399.564 C 182.284 399.339,181.744 398.910,172.701 393.365 C 171.656 392.724,170.801 392.065,170.801 391.900 C 170.800 391.735,170.530 391.600,170.200 391.600 C 169.870 391.600,169.600 391.459,169.600 391.286 C 169.600 391.114,169.067 390.657,168.415 390.272 C 167.763 389.887,166.998 389.352,166.715 389.084 C 166.432 388.816,165.210 387.798,164.000 386.823 C 160.948 384.363,152.892 376.339,151.200 374.074 C 150.430 373.043,149.393 371.750,148.896 371.200 C 148.398 370.650,147.891 369.885,147.769 369.500 C 147.646 369.115,147.378 368.800,147.173 368.800 C 146.968 368.800,146.800 368.607,146.800 368.372 C 146.800 368.137,146.282 367.192,145.650 366.272 C 140.396 358.633,134.611 344.040,132.745 333.718 C 132.515 332.443,132.159 330.590,131.955 329.600 C 131.549 327.626,131.016 323.753,130.386 318.200 C 129.298 308.595,129.295 288.260,130.382 281.600 C 131.314 275.888,131.561 274.536,131.953 273.000 C 132.177 272.120,132.552 270.500,132.786 269.400 C 134.274 262.393,140.794 246.744,145.868 238.000 C 147.209 235.690,147.528 235.136,152.191 227.000 C 154.335 223.260,156.412 219.640,156.807 218.955 C 157.202 218.270,157.767 217.280,158.062 216.755 C 158.358 216.230,158.690 215.710,158.800 215.600 C 158.910 215.490,159.437 214.590,159.970 213.600 C 160.504 212.610,161.045 211.710,161.173 211.600 C 161.437 211.372,163.070 208.252,166.406 201.600 C 170.323 193.787,173.333 186.247,175.189 179.600 C 175.465 178.610,175.837 177.440,176.015 177.000 C 176.337 176.207,176.512 175.476,177.212 172.000 C 178.279 166.703,178.476 165.536,178.798 162.600 C 178.991 160.840,179.338 157.780,179.569 155.800 C 179.800 153.820,180.089 151.120,180.210 149.800 C 180.332 148.480,180.589 146.770,180.783 146.000 C 184.376 131.684,189.637 123.235,195.318 122.652 C 201.825 121.986,206.930 117.642,208.188 111.700 L 208.464 110.400 204.377 110.400 L 200.291 110.400 200.559 108.500 C 200.707 107.455,201.001 104.620,201.212 102.200 C 201.424 99.780,201.681 97.186,201.784 96.435 C 201.915 95.478,201.845 95.195,201.549 95.491 C 201.317 95.723,200.965 98.047,200.765 100.656 C 200.566 103.265,200.290 106.435,200.152 107.700 L 199.901 110.000 193.293 110.000 L 186.686 110.000 187.006 106.700 C 187.533 101.274,187.477 95.094,186.900 94.901 C 186.582 94.794,186.488 94.964,186.643 95.367 M132.020 130.162 C 131.715 130.732,131.586 131.319,131.733 131.466 C 131.880 131.613,132.000 131.448,132.000 131.100 C 132.000 130.752,132.207 130.398,132.460 130.313 C 132.713 130.229,132.842 129.927,132.748 129.643 C 132.641 129.322,132.364 129.520,132.020 130.162 M114.127 181.989 C 113.727 182.378,113.310 182.615,113.201 182.516 C 113.091 182.416,113.313 182.107,113.694 181.828 C 114.076 181.549,114.255 181.175,114.094 180.996 C 113.932 180.818,114.037 180.809,114.327 180.976 C 114.744 181.217,114.702 181.430,114.127 181.989 M99.672 198.239 C 99.161 198.784,98.801 199.368,98.872 199.537 C 98.942 199.706,99.513 199.250,100.139 198.522 C 101.454 196.997,101.060 196.758,99.672 198.239 M322.893 290.000 C 322.893 290.770,322.975 291.085,323.076 290.700 C 323.176 290.315,323.176 289.685,323.076 289.300 C 322.975 288.915,322.893 289.230,322.893 290.000 " stroke="none" fill="#94cc54" fill-rule="evenodd"></path><path id="path1" d="M257.900 0.270 C 256.855 0.366,256.000 0.614,256.000 0.822 C 256.000 1.030,255.280 1.200,254.400 1.200 C 253.520 1.200,252.800 1.380,252.800 1.600 C 252.800 1.820,252.451 2.000,252.024 2.000 C 251.597 2.000,251.136 2.180,251.000 2.400 C 250.864 2.620,250.313 2.800,249.776 2.800 C 249.239 2.800,248.800 2.980,248.800 3.200 C 248.800 3.420,248.535 3.600,248.212 3.600 C 247.889 3.600,246.983 3.960,246.200 4.400 C 245.417 4.840,244.511 5.200,244.188 5.200 C 243.865 5.200,243.600 5.380,243.600 5.600 C 243.600 5.820,243.330 6.000,243.000 6.000 C 242.670 6.000,242.400 6.180,242.400 6.400 C 242.400 6.620,242.130 6.800,241.800 6.800 C 241.470 6.800,241.200 6.980,241.200 7.200 C 241.200 7.420,240.922 7.600,240.583 7.600 C 240.244 7.600,239.749 7.783,239.483 8.007 C 237.647 9.556,237.038 10.000,236.752 10.000 C 236.207 10.000,227.841 18.529,227.232 19.704 C 226.920 20.307,226.543 20.800,226.393 20.800 C 226.244 20.800,225.797 21.520,225.400 22.400 C 225.003 23.280,224.526 24.000,224.339 24.000 C 224.153 24.000,224.000 24.360,224.000 24.800 C 224.000 25.240,223.820 25.600,223.600 25.600 C 223.380 25.600,223.200 25.870,223.200 26.200 C 223.200 26.530,223.020 26.800,222.800 26.800 C 222.580 26.800,222.400 27.160,222.400 27.600 C 222.400 28.040,222.220 28.400,222.000 28.400 C 221.780 28.400,221.600 28.850,221.600 29.400 C 221.600 29.950,221.420 30.400,221.200 30.400 C 220.980 30.400,220.800 30.850,220.800 31.400 C 220.800 31.950,220.620 32.400,220.400 32.400 C 220.180 32.400,220.000 32.760,220.000 33.200 C 220.000 33.640,219.820 34.000,219.600 34.000 C 219.380 34.000,219.200 34.540,219.200 35.200 C 219.200 35.860,219.020 36.400,218.800 36.400 C 218.580 36.400,218.400 37.300,218.400 38.400 C 218.400 39.500,218.220 40.400,218.000 40.400 C 217.341 40.400,217.524 43.196,218.200 43.455 C 218.533 43.583,218.800 44.177,218.800 44.790 C 218.800 45.397,219.352 47.571,220.028 49.620 C 220.703 51.668,221.166 53.686,221.057 54.102 C 220.948 54.519,221.161 55.227,221.530 55.676 C 224.409 59.183,230.655 65.600,231.189 65.600 C 231.395 65.600,231.977 66.005,232.482 66.500 C 232.987 66.995,233.895 67.655,234.500 67.968 C 235.105 68.280,235.600 68.685,235.600 68.868 C 235.600 69.050,235.960 69.200,236.400 69.200 C 236.840 69.200,237.200 69.353,237.200 69.540 C 237.200 70.047,245.457 74.000,246.516 74.000 C 246.804 74.000,247.224 74.184,247.448 74.408 C 247.673 74.633,249.065 74.930,250.541 75.067 C 252.018 75.205,253.321 75.472,253.436 75.659 C 253.552 75.847,254.897 76.000,256.424 76.000 C 258.008 76.000,259.200 76.172,259.200 76.400 C 259.200 76.644,261.067 76.800,264.000 76.800 C 266.933 76.800,268.800 76.644,268.800 76.400 C 268.800 76.175,269.925 76.000,271.376 76.000 C 272.793 76.000,274.049 75.844,274.167 75.653 C 274.286 75.462,275.509 75.178,276.887 75.022 C 278.265 74.866,279.574 74.599,279.796 74.427 C 280.018 74.256,281.055 73.871,282.100 73.571 C 283.145 73.271,284.000 72.885,284.000 72.713 C 284.000 72.541,284.253 72.400,284.562 72.400 C 285.080 72.400,288.340 70.861,288.800 70.399 C 288.910 70.289,289.540 69.929,290.200 69.599 C 290.860 69.270,291.638 68.775,291.929 68.500 C 292.219 68.225,292.602 68.000,292.778 68.000 C 292.955 68.000,293.787 67.370,294.628 66.600 C 295.469 65.830,296.310 65.200,296.498 65.200 C 297.055 65.200,310.400 51.596,310.400 51.028 C 310.400 50.930,313.640 47.562,317.600 43.545 C 321.560 39.527,324.800 36.098,324.800 35.924 C 324.800 35.750,327.050 33.358,329.800 30.608 C 334.741 25.667,335.801 24.000,334.000 24.000 C 333.560 24.000,333.200 23.820,333.200 23.600 C 333.200 23.380,332.840 23.200,332.400 23.200 C 331.960 23.200,331.600 23.020,331.600 22.800 C 331.600 22.580,331.240 22.400,330.800 22.400 C 330.360 22.400,330.000 22.220,330.000 22.000 C 330.000 21.780,329.640 21.600,329.200 21.600 C 328.760 21.600,328.400 21.420,328.400 21.200 C 328.400 20.980,328.128 20.800,327.795 20.800 C 327.462 20.800,326.877 20.632,326.495 20.426 C 326.113 20.221,325.215 19.817,324.500 19.529 C 323.785 19.240,323.200 18.869,323.200 18.702 C 323.200 18.536,322.840 18.400,322.400 18.400 C 321.960 18.400,321.600 18.220,321.600 18.000 C 321.600 17.780,321.251 17.600,320.824 17.600 C 320.397 17.600,319.936 17.420,319.800 17.200 C 319.664 16.980,319.203 16.800,318.776 16.800 C 318.349 16.800,318.000 16.620,318.000 16.400 C 318.000 16.180,317.550 16.000,317.000 16.000 C 316.450 16.000,316.000 15.820,316.000 15.600 C 316.000 15.380,315.640 15.200,315.200 15.200 C 314.760 15.200,314.400 15.020,314.400 14.800 C 314.400 14.580,314.040 14.400,313.600 14.400 C 313.160 14.400,312.800 14.220,312.800 14.000 C 312.800 13.780,312.440 13.600,312.000 13.600 C 311.560 13.600,311.200 13.420,311.200 13.200 C 311.200 12.980,310.928 12.800,310.595 12.800 C 310.262 12.800,309.677 12.634,309.295 12.432 C 306.614 11.013,301.452 8.750,300.423 8.545 C 299.741 8.408,299.086 8.140,298.968 7.948 C 298.850 7.757,298.403 7.600,297.976 7.600 C 297.549 7.600,297.200 7.420,297.200 7.200 C 297.200 6.980,296.840 6.800,296.400 6.800 C 295.960 6.800,295.600 6.620,295.600 6.400 C 295.600 6.180,295.240 6.000,294.800 6.000 C 294.360 6.000,294.000 5.820,294.000 5.600 C 294.000 5.380,293.640 5.200,293.200 5.200 C 292.760 5.200,292.400 5.020,292.400 4.800 C 292.400 4.580,291.950 4.400,291.400 4.400 C 290.850 4.400,290.400 4.220,290.400 4.000 C 290.400 3.780,290.128 3.600,289.795 3.600 C 289.462 3.600,288.787 3.392,288.295 3.138 C 286.374 2.144,285.984 2.000,285.229 2.000 C 284.799 2.000,284.336 1.820,284.200 1.600 C 284.064 1.380,283.438 1.200,282.810 1.200 C 282.181 1.200,281.595 0.984,281.507 0.720 C 281.345 0.236,262.250 -0.128,257.900 0.270 " stroke="none" fill="#2ccb6b" fill-rule="evenodd"></path><path id="path2" d="M171.064 16.160 C 169.775 17.378,169.200 18.242,169.200 18.960 C 169.200 19.532,169.020 20.000,168.800 20.000 C 168.580 20.000,168.400 20.810,168.400 21.800 C 168.400 22.790,168.580 23.600,168.800 23.600 C 169.020 23.600,169.200 23.960,169.200 24.400 C 169.200 24.840,169.380 25.200,169.600 25.200 C 169.820 25.200,170.000 25.488,170.000 25.840 C 170.000 26.191,170.540 26.983,171.200 27.600 C 171.860 28.217,172.400 28.892,172.400 29.101 C 172.400 29.310,172.928 30.034,173.574 30.709 C 174.219 31.385,175.054 32.536,175.429 33.269 C 175.805 34.001,176.224 34.690,176.361 34.800 C 176.498 34.910,177.058 35.900,177.605 37.000 C 178.152 38.100,178.735 39.060,178.900 39.133 C 179.065 39.207,179.200 39.612,179.200 40.033 C 179.200 40.455,179.380 40.800,179.600 40.800 C 179.820 40.800,180.000 41.160,180.000 41.600 C 180.000 42.040,180.180 42.400,180.400 42.400 C 180.620 42.400,180.800 42.749,180.800 43.176 C 180.800 43.603,180.980 44.064,181.200 44.200 C 181.420 44.336,181.600 44.876,181.600 45.400 C 181.600 45.924,181.780 46.464,182.000 46.600 C 182.220 46.736,182.400 47.276,182.400 47.800 C 182.400 48.324,182.580 48.864,182.800 49.000 C 183.020 49.136,183.200 49.766,183.200 50.400 C 183.200 51.034,183.380 51.664,183.600 51.800 C 183.820 51.936,184.000 52.656,184.000 53.400 C 184.000 54.144,184.180 54.864,184.400 55.000 C 184.620 55.136,184.800 55.856,184.800 56.600 C 184.800 57.344,184.980 58.064,185.200 58.200 C 185.420 58.336,185.600 59.416,185.600 60.600 C 185.600 61.784,185.780 62.864,186.000 63.000 C 186.220 63.136,186.400 64.911,186.400 66.944 C 186.400 68.977,186.560 70.811,186.756 71.020 C 187.211 71.505,187.424 102.316,187.003 106.700 L 186.686 110.000 193.293 110.000 L 199.901 110.000 200.152 107.700 C 200.290 106.435,200.566 103.265,200.765 100.656 C 200.965 98.047,201.324 95.716,201.564 95.476 C 202.144 94.896,202.180 66.800,201.600 66.800 C 201.369 66.800,201.200 65.541,201.200 63.824 C 201.200 62.187,201.020 60.736,200.800 60.600 C 200.580 60.464,200.400 59.373,200.400 58.176 C 200.400 56.979,200.220 56.000,200.000 56.000 C 199.780 56.000,199.600 55.100,199.600 54.000 C 199.600 52.900,199.780 52.000,200.000 52.000 C 200.220 52.000,200.400 52.180,200.400 52.400 C 200.400 52.620,201.120 52.800,202.000 52.800 C 202.880 52.800,203.600 52.980,203.600 53.200 C 203.600 53.420,204.219 53.600,204.976 53.600 C 205.733 53.600,206.464 53.780,206.600 54.000 C 206.736 54.220,208.446 54.400,210.400 54.400 C 212.354 54.400,214.064 54.580,214.200 54.800 C 214.336 55.020,215.146 55.200,216.000 55.200 C 216.854 55.200,217.664 55.020,217.800 54.800 C 217.936 54.580,218.656 54.400,219.400 54.400 C 221.279 54.400,221.310 54.182,219.984 50.372 C 219.339 48.517,218.808 46.347,218.805 45.549 C 218.798 43.565,218.315 43.294,214.398 43.073 C 210.281 42.842,205.539 42.084,205.020 41.573 C 204.811 41.368,204.226 41.200,203.720 41.200 C 203.214 41.200,202.800 41.020,202.800 40.800 C 202.800 40.580,202.440 40.400,202.000 40.400 C 201.560 40.400,201.200 40.220,201.200 40.000 C 201.200 39.780,200.840 39.600,200.400 39.600 C 199.960 39.600,199.600 39.420,199.600 39.200 C 199.600 38.980,199.240 38.800,198.800 38.800 C 198.360 38.800,198.000 38.620,198.000 38.400 C 198.000 38.180,197.759 38.000,197.464 38.000 C 196.688 38.000,193.200 34.596,193.200 33.840 C 193.200 33.488,193.020 33.200,192.800 33.200 C 192.580 33.200,192.400 32.840,192.400 32.400 C 192.400 31.960,192.243 31.600,192.050 31.600 C 191.858 31.600,191.591 31.055,191.458 30.390 C 191.223 29.217,188.190 24.336,187.528 24.067 C 187.347 23.993,187.200 23.679,187.200 23.369 C 187.200 23.058,186.300 21.885,185.200 20.761 C 184.100 19.638,183.200 18.536,183.200 18.313 C 183.200 17.746,180.356 15.200,179.722 15.200 C 179.435 15.200,179.200 15.020,179.200 14.800 C 179.200 14.567,177.888 14.400,176.064 14.400 L 172.927 14.400 171.064 16.160 " stroke="none" fill="#b3541c" fill-rule="evenodd"></path><path id="path3" d="M201.839 98.500 C 201.407 103.960,200.921 108.148,200.609 109.086 C 200.319 109.957,200.380 109.973,204.457 110.086 L 208.600 110.200 208.722 111.457 C 208.843 112.699,207.524 116.096,206.525 117.120 C 206.246 117.406,205.879 117.873,205.709 118.158 C 204.255 120.602,197.791 123.539,193.764 123.586 C 189.734 123.632,182.042 138.951,181.002 149.000 C 180.866 150.320,180.593 152.660,180.397 154.200 C 180.200 155.740,179.846 158.890,179.610 161.200 C 179.194 165.267,178.707 168.293,178.000 171.200 C 177.813 171.970,177.437 173.680,177.165 175.000 C 176.894 176.320,176.520 177.571,176.336 177.780 C 176.151 177.989,176.000 178.576,176.000 179.085 C 176.000 179.594,175.838 180.323,175.639 180.705 C 175.440 181.087,175.060 182.210,174.793 183.200 C 174.297 185.044,174.045 185.780,173.254 187.700 C 173.004 188.305,172.596 189.295,172.346 189.900 C 172.097 190.505,171.753 191.360,171.583 191.800 C 169.735 196.566,162.254 211.552,160.800 213.400 C 160.627 213.620,160.106 214.475,159.643 215.300 C 158.224 217.826,157.368 219.306,156.000 221.600 C 155.278 222.810,154.233 224.610,153.677 225.600 C 153.121 226.590,151.373 229.650,149.792 232.400 C 144.593 241.445,141.413 247.471,139.862 251.217 C 139.455 252.198,138.802 253.720,138.409 254.600 C 130.582 272.127,128.163 295.463,131.441 321.800 C 132.677 331.725,135.599 344.247,137.976 349.800 C 138.164 350.240,138.588 351.230,138.917 352.000 C 143.026 361.611,146.629 367.612,152.536 374.685 C 156.892 379.900,164.446 386.863,169.600 390.414 C 170.370 390.944,171.349 391.698,171.775 392.089 C 172.202 392.480,172.787 392.800,173.075 392.800 C 173.364 392.800,173.600 392.980,173.600 393.200 C 173.600 393.420,173.784 393.600,174.009 393.600 C 174.234 393.600,175.778 394.500,177.439 395.600 C 179.100 396.700,180.612 397.600,180.799 397.600 C 180.986 397.600,181.703 398.165,182.394 398.855 L 183.649 400.110 199.724 399.853 C 217.516 399.568,216.800 399.598,216.800 399.133 C 216.800 398.950,217.790 398.800,219.000 398.800 C 220.210 398.800,221.200 398.620,221.200 398.400 C 221.200 398.180,222.175 398.000,223.367 398.000 C 224.558 398.000,225.593 397.830,225.667 397.621 C 225.740 397.413,226.645 397.200,227.678 397.148 C 228.711 397.096,229.465 396.906,229.355 396.726 C 229.244 396.547,229.958 396.400,230.943 396.400 C 231.928 396.400,232.793 396.229,232.867 396.020 C 232.940 395.811,233.754 395.597,234.676 395.543 C 235.598 395.490,236.262 395.301,236.153 395.123 C 236.043 394.945,236.493 394.800,237.153 394.800 C 237.813 394.800,238.464 394.620,238.600 394.400 C 238.736 394.180,239.366 394.000,240.000 394.000 C 240.634 394.000,241.264 393.820,241.400 393.600 C 241.536 393.380,242.087 393.200,242.624 393.200 C 243.161 393.200,243.600 393.020,243.600 392.800 C 243.600 392.580,243.952 392.400,244.381 392.400 C 245.120 392.400,246.315 392.001,248.262 391.103 C 248.736 390.884,249.322 390.828,249.565 390.978 C 249.807 391.128,250.119 390.955,250.258 390.593 C 250.412 390.192,250.800 390.011,251.255 390.130 C 251.664 390.237,252.100 390.162,252.223 389.962 C 252.346 389.763,252.775 389.600,253.175 389.600 C 253.575 389.600,254.130 389.326,254.408 388.990 C 254.686 388.655,255.001 388.468,255.108 388.575 C 255.215 388.682,256.471 388.149,257.900 387.391 C 259.328 386.633,260.683 386.128,260.910 386.268 C 261.149 386.416,261.203 386.329,261.038 386.062 C 260.760 385.611,261.249 385.430,262.340 385.579 C 262.637 385.620,262.782 385.494,262.661 385.299 C 262.443 384.946,265.106 383.756,265.730 383.929 C 265.911 383.979,265.957 383.854,265.832 383.652 C 265.633 383.329,266.481 382.733,267.280 382.635 C 267.434 382.616,267.785 382.375,268.060 382.100 C 268.335 381.825,268.794 381.600,269.080 381.600 C 269.366 381.600,269.600 381.464,269.600 381.298 C 269.600 381.131,270.185 380.741,270.900 380.430 C 271.615 380.119,272.290 379.748,272.400 379.606 C 272.759 379.142,276.335 376.800,276.684 376.800 C 276.871 376.800,277.283 376.440,277.600 376.000 C 277.917 375.560,278.316 375.200,278.487 375.200 C 278.658 375.200,279.466 374.570,280.282 373.800 C 281.099 373.030,281.999 372.400,282.283 372.400 C 282.850 372.400,283.627 371.769,285.846 369.510 C 286.651 368.691,287.452 368.108,287.626 368.216 C 287.800 368.324,288.057 368.049,288.198 367.606 C 288.339 367.163,288.742 366.800,289.094 366.800 C 289.445 366.800,289.628 366.695,289.500 366.566 C 289.186 366.253,290.461 364.791,290.843 365.026 C 291.007 365.128,291.257 364.849,291.398 364.406 C 291.539 363.963,291.820 363.600,292.022 363.600 C 292.505 363.600,294.000 362.315,294.000 361.900 C 294.000 361.572,294.364 361.156,298.988 356.202 C 300.425 354.663,301.600 353.187,301.600 352.922 C 301.600 352.658,302.047 351.937,302.594 351.321 C 304.303 349.393,304.400 349.249,304.400 348.632 C 304.400 348.302,304.771 347.685,305.225 347.262 C 306.060 346.485,307.030 344.952,308.302 342.400 C 308.686 341.630,309.135 340.940,309.300 340.867 C 309.465 340.793,309.600 340.551,309.600 340.328 C 309.600 340.106,309.948 339.435,310.373 338.837 C 310.799 338.240,311.272 337.253,311.425 336.643 C 311.578 336.034,311.950 335.441,312.251 335.325 C 312.553 335.209,312.800 334.594,312.800 333.957 C 312.800 333.321,312.980 332.800,313.200 332.800 C 313.420 332.800,313.600 332.429,313.600 331.976 C 313.600 331.523,313.742 331.240,313.915 331.348 C 314.088 331.455,314.270 331.068,314.317 330.489 C 314.365 329.909,314.584 329.256,314.802 329.038 C 315.021 328.819,315.200 328.305,315.200 327.896 C 315.200 327.487,315.384 327.267,315.610 327.406 C 315.835 327.545,315.994 327.511,315.963 327.330 C 315.778 326.269,316.057 324.788,316.400 325.000 C 316.627 325.140,316.800 324.804,316.800 324.224 C 316.800 323.661,316.943 323.200,317.118 323.200 C 317.293 323.200,317.481 322.534,317.536 321.719 C 317.591 320.905,317.784 320.050,317.964 319.819 C 318.145 319.589,318.409 318.860,318.551 318.200 C 318.692 317.540,318.908 316.554,319.029 316.009 C 319.150 315.463,319.444 314.897,319.682 314.749 C 319.920 314.602,320.022 314.129,319.910 313.698 C 319.797 313.266,319.878 312.604,320.090 312.226 C 320.301 311.847,320.563 310.518,320.671 309.272 C 320.779 308.026,320.996 306.915,321.153 306.803 C 321.311 306.691,321.431 305.734,321.420 304.676 C 321.409 303.618,321.561 302.358,321.759 301.876 C 321.956 301.394,322.170 299.920,322.235 298.600 C 322.300 297.280,322.469 294.580,322.610 292.600 C 323.012 286.948,322.933 281.797,322.431 280.859 C 322.179 280.386,322.113 280.000,322.286 280.000 C 322.459 280.000,322.488 278.065,322.352 275.700 C 322.216 273.335,322.186 271.257,322.287 271.082 C 322.387 270.908,322.273 270.528,322.033 270.239 C 321.793 269.950,321.544 268.830,321.480 267.750 C 321.415 266.671,321.245 265.596,321.101 265.363 C 320.956 265.129,320.785 263.845,320.719 262.509 C 320.654 261.172,320.465 260.162,320.300 260.263 C 320.024 260.433,319.887 259.646,319.892 257.909 C 319.893 257.529,319.738 257.315,319.547 257.433 C 319.356 257.551,319.173 257.052,319.139 256.324 C 319.045 254.276,319.010 254.077,318.695 253.762 C 318.533 253.599,318.400 253.083,318.400 252.613 C 318.400 252.144,318.175 251.518,317.900 251.221 C 317.494 250.784,317.512 250.742,318.000 251.000 C 318.488 251.258,318.506 251.216,318.100 250.779 C 317.825 250.482,317.600 249.826,317.600 249.320 C 317.600 248.814,317.420 248.400,317.200 248.400 C 316.980 248.400,316.800 248.048,316.800 247.619 C 316.800 246.890,316.415 245.729,315.532 243.793 C 315.330 243.349,315.134 242.584,315.097 242.093 C 315.060 241.602,314.888 241.200,314.715 241.200 C 314.542 241.200,314.400 240.829,314.400 240.376 C 314.400 239.923,314.220 239.664,314.000 239.800 C 313.762 239.947,313.600 239.471,313.600 238.624 C 313.600 237.841,313.420 237.200,313.200 237.200 C 312.980 237.200,312.800 236.750,312.800 236.200 C 312.800 235.650,312.620 235.200,312.400 235.200 C 312.180 235.200,312.000 234.930,312.000 234.600 C 312.000 234.270,311.820 234.000,311.600 234.000 C 311.380 234.000,311.200 233.770,311.200 233.490 C 311.200 233.209,310.666 231.904,310.013 230.590 C 309.359 229.275,308.819 227.874,308.813 227.476 C 308.805 227.027,308.622 226.863,308.332 227.042 C 308.017 227.236,307.948 227.113,308.119 226.666 C 308.260 226.300,308.214 226.000,308.017 226.000 C 307.593 226.000,306.400 223.723,306.400 222.915 C 306.400 222.606,306.239 222.452,306.043 222.574 C 305.846 222.695,305.572 222.341,305.432 221.787 C 305.293 221.233,304.824 220.424,304.390 219.990 C 303.955 219.555,303.600 218.829,303.600 218.376 C 303.600 217.923,303.420 217.664,303.200 217.800 C 302.980 217.936,302.800 217.767,302.800 217.424 C 302.800 217.081,302.654 216.800,302.475 216.800 C 302.296 216.800,301.902 216.170,301.600 215.400 C 301.298 214.630,300.904 214.000,300.725 214.000 C 300.546 214.000,300.400 213.773,300.400 213.495 C 300.400 213.217,299.950 212.652,299.400 212.239 C 298.850 211.826,298.400 211.270,298.400 211.003 C 298.400 210.737,297.905 209.971,297.300 209.302 C 294.668 206.393,294.000 205.563,294.000 205.207 C 294.000 204.999,293.640 204.635,293.200 204.400 C 292.760 204.165,292.400 203.792,292.400 203.573 C 292.400 203.353,291.815 202.573,291.100 201.840 C 289.298 199.991,288.355 198.800,288.693 198.800 C 288.850 198.800,288.533 198.491,287.989 198.114 C 287.445 197.737,286.654 196.994,286.231 196.464 C 285.808 195.933,285.035 195.071,284.513 194.549 C 283.991 194.027,283.707 193.599,283.882 193.599 C 284.057 193.598,283.606 193.235,282.880 192.792 C 282.154 192.350,281.658 191.829,281.778 191.636 C 281.898 191.442,281.726 191.181,281.398 191.054 C 281.069 190.928,280.800 190.616,280.800 190.359 C 280.800 190.103,280.484 189.603,280.097 189.247 C 279.711 188.891,279.144 188.111,278.837 187.514 C 278.530 186.916,278.142 186.512,277.974 186.616 C 277.806 186.720,277.430 186.264,277.137 185.602 C 276.844 184.941,276.469 184.400,276.302 184.400 C 276.136 184.400,276.000 184.130,276.000 183.800 C 276.000 183.470,275.820 183.200,275.600 183.200 C 275.380 183.200,275.200 182.840,275.200 182.400 C 275.200 181.960,275.009 181.600,274.776 181.600 C 274.543 181.600,274.464 181.420,274.600 181.200 C 274.736 180.980,274.688 180.800,274.495 180.800 C 274.018 180.800,272.232 177.172,272.295 176.333 C 272.323 175.965,272.113 175.576,271.830 175.467 C 271.547 175.358,271.009 174.309,270.635 173.135 C 270.260 171.961,269.605 170.237,269.177 169.304 C 268.750 168.372,268.400 167.235,268.400 166.778 C 268.400 166.321,268.237 165.644,268.039 165.273 C 267.840 164.901,267.615 163.968,267.539 163.199 C 267.462 162.429,267.275 161.705,267.121 161.590 C 266.968 161.474,266.798 160.619,266.743 159.690 C 266.688 158.760,266.499 158.000,266.322 158.000 C 266.145 158.000,266.000 157.381,266.000 156.624 C 266.000 155.867,265.820 155.136,265.600 155.000 C 265.380 154.864,265.200 154.128,265.200 153.364 C 265.200 152.599,264.939 151.350,264.620 150.587 C 264.302 149.824,264.158 149.200,264.300 149.200 C 264.443 149.200,264.344 148.984,264.080 148.720 C 263.816 148.456,263.600 147.837,263.600 147.344 C 263.600 146.851,263.420 146.336,263.200 146.200 C 262.980 146.064,262.800 145.524,262.800 145.000 C 262.800 144.476,262.620 143.936,262.400 143.800 C 262.180 143.664,262.000 143.203,262.000 142.776 C 262.000 142.349,261.820 142.000,261.600 142.000 C 261.380 142.000,261.200 141.550,261.200 141.000 C 261.200 140.450,261.020 140.000,260.800 140.000 C 260.580 140.000,260.400 139.550,260.400 139.000 C 260.400 138.450,260.220 138.000,260.000 138.000 C 259.780 138.000,259.600 137.730,259.600 137.400 C 259.600 137.070,259.440 136.800,259.245 136.800 C 259.049 136.800,258.774 136.188,258.634 135.440 C 258.494 134.692,258.116 133.862,257.794 133.595 C 257.472 133.328,257.294 132.971,257.399 132.802 C 257.504 132.632,257.232 132.039,256.795 131.484 C 256.358 130.928,256.000 130.296,256.000 130.080 C 256.000 129.863,255.704 129.572,255.343 129.433 C 254.981 129.295,254.786 129.080,254.910 128.957 C 255.033 128.833,254.834 128.372,254.467 127.933 C 252.934 126.094,252.571 125.631,252.000 124.788 C 251.670 124.301,251.175 123.667,250.900 123.380 C 250.625 123.092,250.395 122.709,250.389 122.529 C 250.382 122.348,249.617 121.359,248.689 120.331 C 245.891 117.235,245.284 116.449,245.514 116.219 C 245.635 116.099,245.435 116.000,245.070 116.000 C 244.705 116.000,244.182 115.640,243.907 115.200 C 243.632 114.760,243.290 114.400,243.146 114.400 C 243.002 114.400,242.026 113.590,240.978 112.600 C 239.930 111.610,238.921 110.800,238.736 110.800 C 238.551 110.800,238.400 110.500,238.400 110.133 C 238.400 109.767,238.285 109.581,238.145 109.722 C 237.856 110.011,235.568 108.513,235.075 107.712 C 234.897 107.421,234.582 107.288,234.375 107.415 C 234.169 107.543,234.000 107.487,234.000 107.291 C 234.000 107.095,233.505 106.680,232.900 106.368 C 232.295 106.055,231.451 105.485,231.025 105.100 C 230.598 104.715,230.013 104.400,229.725 104.400 C 229.436 104.400,229.200 104.220,229.200 104.000 C 229.200 103.780,228.855 103.600,228.433 103.600 C 228.012 103.600,227.607 103.434,227.533 103.230 C 227.460 103.027,227.137 102.802,226.816 102.730 C 226.494 102.659,225.875 102.285,225.440 101.900 C 225.005 101.515,224.233 101.200,223.725 101.200 C 223.216 101.200,222.800 101.020,222.800 100.800 C 222.800 100.580,222.530 100.400,222.200 100.400 C 221.870 100.400,221.600 100.258,221.600 100.085 C 221.600 99.912,221.211 99.741,220.736 99.705 C 220.261 99.669,219.766 99.496,219.636 99.320 C 219.506 99.144,219.040 98.945,218.600 98.877 C 218.160 98.810,217.256 98.506,216.591 98.202 C 215.926 97.897,214.875 97.557,214.256 97.444 C 213.637 97.332,212.894 97.044,212.604 96.804 C 212.217 96.482,212.023 96.504,211.870 96.883 C 211.712 97.279,211.656 97.283,211.632 96.900 C 211.614 96.620,211.081 96.400,210.424 96.400 C 209.777 96.400,209.142 96.230,209.014 96.022 C 208.886 95.815,208.051 95.686,207.160 95.736 C 206.269 95.785,205.453 95.685,205.346 95.513 C 205.240 95.341,204.466 95.200,203.627 95.200 L 202.100 95.200 201.839 98.500 " stroke="none" fill="#a4e464" fill-rule="evenodd"></path><path id="path4" d="M182.817 95.421 C 183.105 95.768,184.013 96.000,185.082 96.000 C 187.604 96.000,187.091 95.170,184.457 94.988 C 182.642 94.863,182.406 94.925,182.817 95.421 M178.685 96.278 C 178.950 96.968,180.182 96.945,180.768 96.239 C 181.152 95.776,180.995 95.685,179.859 95.717 C 178.904 95.744,178.546 95.915,178.685 96.278 M201.670 97.600 C 201.626 98.590,201.504 100.120,201.397 101.000 L 201.203 102.600 201.621 101.268 C 201.851 100.535,201.974 99.005,201.894 97.868 L 201.748 95.800 201.670 97.600 M175.990 96.806 C 175.178 97.308,175.735 97.683,177.063 97.527 C 178.146 97.401,178.161 97.372,177.378 96.925 C 176.879 96.640,176.334 96.593,175.990 96.806 M172.246 97.826 C 172.113 98.170,171.672 98.395,171.264 98.326 C 170.856 98.257,170.270 98.410,169.961 98.666 C 169.653 98.922,169.225 99.134,169.010 99.136 C 168.796 99.138,168.556 99.334,168.477 99.570 C 168.213 100.360,169.566 100.012,170.014 99.174 C 170.383 98.485,170.558 98.433,171.071 98.859 C 171.674 99.359,172.800 98.489,172.800 97.524 C 172.800 96.993,172.503 97.155,172.246 97.826 M173.299 97.698 C 173.527 98.380,174.274 98.505,174.507 97.899 C 174.632 97.573,174.406 97.341,173.930 97.305 C 173.500 97.272,173.216 97.449,173.299 97.698 M166.208 99.941 C 166.322 100.056,165.675 100.489,164.770 100.903 C 163.061 101.687,162.841 102.311,164.470 101.756 C 164.981 101.582,165.542 101.430,165.715 101.420 C 165.888 101.409,166.174 101.165,166.351 100.879 C 166.528 100.592,166.864 100.412,167.097 100.479 C 167.329 100.545,167.493 100.428,167.460 100.218 C 167.427 100.009,167.085 99.814,166.700 99.785 C 166.315 99.757,166.094 99.827,166.208 99.941 M161.441 102.600 C 161.024 102.916,160.553 103.094,160.395 102.997 C 160.236 102.899,159.805 103.152,159.436 103.560 C 158.841 104.217,158.835 104.328,159.383 104.538 C 159.766 104.685,160.000 104.553,160.000 104.187 C 160.000 103.864,160.360 103.600,160.800 103.600 C 161.240 103.600,161.600 103.420,161.600 103.200 C 161.600 102.980,161.870 102.800,162.200 102.800 C 162.530 102.800,162.800 102.620,162.800 102.400 C 162.800 101.851,162.342 101.918,161.441 102.600 M157.600 104.800 C 157.600 105.020,157.358 105.200,157.062 105.200 C 156.766 105.200,156.198 105.560,155.800 106.000 C 155.362 106.484,155.265 106.800,155.555 106.800 C 155.818 106.800,156.420 106.440,156.892 106.000 C 157.364 105.560,157.998 105.200,158.299 105.200 C 158.601 105.200,158.736 105.020,158.600 104.800 C 158.464 104.580,158.183 104.400,157.976 104.400 C 157.769 104.400,157.600 104.580,157.600 104.800 M200.864 106.267 C 200.829 106.964,200.696 107.864,200.570 108.267 C 200.353 108.959,200.365 108.960,200.794 108.291 C 201.045 107.902,201.177 107.002,201.089 106.291 L 200.928 105.000 200.864 106.267 M153.373 107.693 C 152.756 108.178,151.975 108.615,151.637 108.665 C 151.299 108.715,150.819 109.033,150.571 109.371 C 150.324 109.710,149.975 109.855,149.796 109.694 C 149.618 109.532,149.602 109.626,149.761 109.903 C 149.930 110.197,149.791 110.505,149.425 110.646 C 149.081 110.778,148.800 111.147,148.800 111.466 C 148.800 111.786,148.620 111.936,148.400 111.800 C 148.180 111.664,148.000 111.743,148.000 111.976 C 148.000 112.699,148.588 112.451,150.073 111.100 C 153.275 108.188,153.940 107.670,154.654 107.529 C 155.132 107.434,155.237 107.279,154.947 107.096 C 154.698 106.939,153.989 107.208,153.373 107.693 M204.329 110.291 L 208.457 110.429 208.185 111.714 C 206.931 117.640,201.818 121.987,195.318 122.652 C 190.212 123.176,184.655 131.307,181.687 142.600 C 181.455 143.480,181.078 144.920,180.849 145.800 C 180.619 146.680,180.332 148.480,180.210 149.800 C 180.089 151.120,179.800 153.820,179.569 155.800 C 179.338 157.780,178.991 160.840,178.798 162.600 C 178.605 164.360,178.256 166.745,178.023 167.900 C 177.790 169.055,177.431 170.855,177.225 171.900 C 176.545 175.341,176.343 176.191,176.015 177.000 C 175.837 177.440,175.465 178.610,175.189 179.600 C 173.333 186.247,170.323 193.787,166.406 201.600 C 163.070 208.252,161.437 211.372,161.173 211.600 C 161.045 211.710,160.504 212.610,159.970 213.600 C 159.437 214.590,158.910 215.490,158.800 215.600 C 158.690 215.710,158.358 216.230,158.062 216.755 C 157.767 217.280,157.202 218.270,156.807 218.955 C 156.412 219.640,154.335 223.260,152.191 227.000 C 147.528 235.136,147.209 235.690,145.868 238.000 C 140.794 246.744,134.274 262.393,132.786 269.400 C 132.552 270.500,132.177 272.120,131.953 273.000 C 131.561 274.536,131.314 275.888,130.382 281.600 C 129.295 288.260,129.298 308.595,130.386 318.200 C 131.016 323.753,131.549 327.626,131.955 329.600 C 132.159 330.590,132.515 332.443,132.745 333.718 C 134.611 344.040,140.396 358.633,145.650 366.272 C 146.282 367.192,146.800 368.137,146.800 368.372 C 146.800 368.607,146.968 368.800,147.173 368.800 C 147.378 368.800,147.646 369.115,147.769 369.500 C 147.891 369.885,148.398 370.650,148.896 371.200 C 149.393 371.750,150.430 373.043,151.200 374.074 C 152.892 376.339,160.948 384.363,164.000 386.823 C 165.210 387.798,166.432 388.816,166.715 389.084 C 166.998 389.352,167.763 389.887,168.415 390.272 C 169.067 390.657,169.600 391.114,169.600 391.286 C 169.600 391.459,169.870 391.600,170.200 391.600 C 170.530 391.600,170.800 391.735,170.801 391.900 C 170.801 392.065,171.656 392.724,172.701 393.365 C 181.660 398.858,182.308 399.367,180.532 399.514 C 178.607 399.673,179.021 400.000,181.147 400.000 C 183.499 400.000,183.578 399.147,181.335 397.984 C 180.715 397.663,178.906 396.545,177.313 395.500 C 175.721 394.455,174.234 393.600,174.009 393.600 C 173.784 393.600,173.600 393.420,173.600 393.200 C 173.600 392.980,173.364 392.800,173.075 392.800 C 172.787 392.800,172.202 392.480,171.775 392.089 C 171.349 391.698,170.370 390.944,169.600 390.414 C 164.446 386.863,156.892 379.900,152.536 374.685 C 146.629 367.612,143.026 361.611,138.917 352.000 C 138.588 351.230,138.164 350.240,137.976 349.800 C 135.599 344.247,132.677 331.725,131.441 321.800 C 128.163 295.463,130.582 272.127,138.409 254.600 C 138.802 253.720,139.455 252.198,139.862 251.217 C 141.413 247.471,144.593 241.445,149.792 232.400 C 151.373 229.650,153.121 226.590,153.677 225.600 C 154.233 224.610,155.278 222.810,156.000 221.600 C 157.368 219.306,158.224 217.826,159.643 215.300 C 160.106 214.475,160.627 213.620,160.800 213.400 C 161.379 212.664,162.899 209.847,165.979 203.800 C 169.047 197.776,170.723 194.117,172.346 189.900 C 172.738 188.884,173.299 187.475,173.901 186.000 C 174.125 185.450,174.527 184.190,174.793 183.200 C 175.060 182.210,175.440 181.087,175.639 180.705 C 175.838 180.323,176.000 179.594,176.000 179.085 C 176.000 178.576,176.151 177.989,176.336 177.780 C 176.520 177.571,176.894 176.320,177.165 175.000 C 177.437 173.680,177.813 171.970,178.000 171.200 C 178.707 168.293,179.194 165.267,179.610 161.200 C 179.846 158.890,180.200 155.740,180.397 154.200 C 180.593 152.660,180.866 150.320,181.002 149.000 C 182.042 138.951,189.734 123.632,193.764 123.586 C 197.791 123.539,204.255 120.602,205.709 118.158 C 205.879 117.873,206.246 117.406,206.525 117.120 C 207.524 116.096,208.843 112.699,208.722 111.457 L 208.600 110.200 204.400 110.177 L 200.200 110.154 204.329 110.291 M240.355 111.911 C 240.622 112.412,241.023 112.709,241.247 112.571 C 241.470 112.433,241.596 112.287,241.527 112.247 C 241.457 112.207,241.056 111.910,240.635 111.587 C 239.913 111.034,239.897 111.052,240.355 111.911 M145.908 113.536 C 146.077 113.979,145.956 114.069,145.449 113.874 C 145.038 113.716,144.857 113.769,145.003 114.005 C 145.137 114.222,144.967 114.400,144.624 114.400 C 144.281 114.400,144.045 114.625,144.100 114.900 C 144.155 115.175,143.962 115.351,143.670 115.290 C 143.379 115.230,143.247 115.352,143.377 115.562 C 143.507 115.773,143.430 116.058,143.207 116.196 C 142.684 116.519,142.679 117.200,143.200 117.200 C 143.420 117.200,143.600 116.970,143.600 116.688 C 143.600 116.407,143.984 115.912,144.454 115.588 C 146.399 114.248,147.282 112.933,146.238 112.933 C 145.902 112.933,145.769 113.175,145.908 113.536 M141.653 117.467 C 141.304 117.850,141.245 118.205,141.490 118.450 C 141.735 118.695,142.064 118.605,142.400 118.200 C 143.096 117.361,142.386 116.663,141.653 117.467 M137.795 122.239 C 137.138 122.992,136.600 123.746,136.600 123.914 C 136.600 124.082,136.195 124.653,135.700 125.185 C 134.513 126.459,134.549 127.026,135.759 126.119 C 136.286 125.723,136.635 125.265,136.535 125.100 C 136.435 124.935,136.558 124.800,136.810 124.800 C 137.061 124.800,137.195 124.585,137.107 124.321 C 137.019 124.058,137.547 123.260,138.280 122.549 C 139.013 121.837,139.472 121.168,139.301 121.062 C 139.129 120.956,138.452 121.486,137.795 122.239 M132.832 129.700 C 132.814 130.085,132.620 130.400,132.400 130.400 C 132.180 130.400,132.000 130.651,132.000 130.957 C 132.000 131.264,131.730 131.618,131.400 131.745 C 130.752 131.993,130.569 132.800,131.160 132.800 C 131.680 132.800,133.267 129.983,133.048 129.449 C 132.946 129.202,132.849 129.315,132.832 129.700 M129.612 134.980 C 129.603 135.841,129.720 136.040,130.041 135.719 C 130.358 135.402,130.361 135.068,130.054 134.539 C 129.677 133.891,129.623 133.946,129.612 134.980 M128.578 136.035 C 128.244 136.576,129.073 137.468,129.493 137.019 C 129.662 136.838,129.574 136.610,129.298 136.511 C 129.021 136.412,128.897 136.167,129.021 135.966 C 129.145 135.765,129.157 135.600,129.047 135.600 C 128.937 135.600,128.726 135.796,128.578 136.035 M127.843 138.167 C 127.976 138.515,128.261 138.800,128.476 138.800 C 129.002 138.800,128.673 137.891,128.075 137.692 C 127.782 137.594,127.693 137.777,127.843 138.167 M127.251 139.734 C 126.949 140.100,126.819 140.400,126.961 140.400 C 127.104 140.400,126.953 140.917,126.626 141.549 C 126.299 142.181,126.140 142.807,126.272 142.938 C 126.668 143.335,127.200 142.803,127.200 142.010 C 127.200 141.601,127.398 141.201,127.639 141.120 C 127.881 141.040,128.016 140.545,127.939 140.021 C 127.812 139.153,127.751 139.127,127.251 139.734 M125.600 144.400 C 125.835 144.840,126.112 145.200,126.214 145.200 C 126.316 145.200,126.400 144.840,126.400 144.400 C 126.400 143.947,126.133 143.600,125.786 143.600 C 125.296 143.600,125.258 143.761,125.600 144.400 M124.881 145.929 C 124.833 146.518,124.615 147.060,124.397 147.133 C 124.178 147.207,124.000 147.792,124.000 148.433 C 124.000 149.075,123.790 149.600,123.533 149.600 C 123.277 149.600,123.161 149.694,123.276 149.809 C 123.821 150.355,124.800 149.422,124.800 148.357 C 124.800 147.721,124.980 147.200,125.200 147.200 C 125.671 147.200,125.745 145.337,125.285 145.052 C 125.112 144.945,124.930 145.340,124.881 145.929 M123.200 151.600 C 123.200 152.260,123.380 152.800,123.600 152.800 C 123.820 152.800,124.000 152.260,124.000 151.600 C 124.000 150.940,123.820 150.400,123.600 150.400 C 123.380 150.400,123.200 150.940,123.200 151.600 M122.400 154.753 C 122.400 155.413,122.580 156.064,122.800 156.200 C 123.033 156.344,123.200 155.945,123.200 155.247 C 123.200 154.587,123.020 153.936,122.800 153.800 C 122.567 153.656,122.400 154.055,122.400 154.753 M121.901 157.100 C 121.539 157.842,121.589 159.946,121.974 160.184 C 122.252 160.355,122.400 159.812,122.400 158.624 C 122.400 156.908,122.237 156.410,121.901 157.100 M120.800 162.776 C 120.800 163.423,120.980 164.064,121.200 164.200 C 121.438 164.347,121.600 163.871,121.600 163.024 C 121.600 162.241,121.420 161.600,121.200 161.600 C 120.980 161.600,120.800 162.129,120.800 162.776 M120.079 165.601 C 120.031 166.232,120.173 166.860,120.396 166.997 C 120.634 167.144,120.800 166.754,120.800 166.047 C 120.800 164.485,120.192 164.110,120.079 165.601 M119.579 168.000 C 119.524 168.330,119.456 168.780,119.429 169.000 C 119.401 169.220,119.209 169.670,119.001 170.000 C 118.472 170.839,118.407 171.557,118.836 171.822 C 119.036 171.946,119.200 171.596,119.200 171.043 C 119.200 170.491,119.438 169.896,119.729 169.720 C 120.080 169.508,120.160 169.064,119.969 168.400 C 119.805 167.835,119.636 167.661,119.579 168.000 M117.971 172.600 C 117.920 172.820,117.852 173.180,117.821 173.400 C 117.789 173.620,117.540 174.205,117.267 174.700 C 116.995 175.195,116.914 175.600,117.088 175.600 C 117.557 175.600,118.499 173.280,118.265 172.700 C 118.154 172.425,118.022 172.380,117.971 172.600 M116.273 176.554 C 116.142 176.895,116.195 177.273,116.390 177.394 C 116.900 177.709,117.204 177.054,116.829 176.447 C 116.581 176.046,116.459 176.069,116.273 176.554 M115.480 178.414 C 115.356 178.890,115.073 179.168,114.851 179.032 C 114.626 178.892,114.475 179.139,114.509 179.591 C 114.543 180.036,114.821 180.400,115.128 180.400 C 115.455 180.400,115.592 180.156,115.459 179.811 C 115.334 179.484,115.538 179.049,115.917 178.835 C 116.421 178.551,116.483 178.331,116.154 177.998 C 115.823 177.664,115.648 177.772,115.480 178.414 M114.162 181.138 C 114.319 181.392,114.271 181.600,114.056 181.600 C 113.841 181.600,113.275 182.231,112.798 183.002 C 112.322 183.774,111.784 184.314,111.603 184.202 C 111.422 184.090,111.368 184.357,111.483 184.795 C 111.705 185.643,113.200 184.299,113.200 183.252 C 113.200 183.021,113.574 182.483,114.030 182.058 C 114.642 181.488,114.731 181.204,114.368 180.980 C 114.053 180.785,113.979 180.842,114.162 181.138 M110.554 186.167 C 110.309 186.433,109.887 187.063,109.618 187.567 C 109.348 188.071,108.607 189.028,107.972 189.693 C 107.336 190.358,106.913 191.060,107.032 191.253 C 107.152 191.445,107.733 191.017,108.325 190.302 C 108.916 189.586,109.535 188.940,109.700 188.867 C 109.865 188.793,110.000 188.478,110.000 188.167 C 110.000 187.855,110.137 187.600,110.304 187.600 C 110.757 187.600,111.629 186.065,111.292 185.861 C 111.131 185.763,110.799 185.901,110.554 186.167 M105.381 192.369 C 105.503 192.567,105.047 193.240,104.368 193.865 C 103.689 194.489,102.158 196.135,100.966 197.523 C 99.775 198.910,98.800 199.911,98.800 199.746 C 98.800 199.582,98.546 199.795,98.235 200.219 C 97.925 200.644,97.773 201.157,97.898 201.359 C 98.024 201.562,97.740 201.625,97.263 201.500 C 96.703 201.354,96.400 201.459,96.400 201.800 C 96.400 202.493,97.992 202.086,98.287 201.317 C 98.408 201.002,99.473 199.831,100.654 198.714 C 101.834 197.597,102.800 196.410,102.800 196.075 C 102.800 195.741,102.917 195.583,103.060 195.726 C 103.332 195.999,105.199 194.036,105.200 193.476 C 105.200 193.298,105.361 193.252,105.558 193.374 C 105.755 193.496,106.014 193.341,106.133 193.031 C 106.252 192.720,106.082 192.363,105.754 192.238 C 105.426 192.112,105.259 192.171,105.381 192.369 M95.185 203.839 C 94.968 204.410,94.445 204.968,94.023 205.078 C 93.567 205.197,93.343 205.507,93.470 205.839 C 93.589 206.148,93.486 206.400,93.243 206.400 C 92.999 206.400,92.800 206.582,92.800 206.804 C 92.800 207.026,92.260 207.772,91.600 208.463 C 90.940 209.154,90.400 209.874,90.400 210.063 C 90.400 210.252,89.858 210.974,89.196 211.667 C 88.534 212.359,88.078 213.012,88.183 213.116 C 88.397 213.330,91.200 210.631,91.200 210.211 C 91.200 210.064,91.425 209.706,91.700 209.416 C 92.755 208.304,93.600 207.178,93.600 206.884 C 93.600 206.715,94.251 205.907,95.046 205.088 C 95.841 204.270,96.336 203.597,96.146 203.594 C 95.956 203.591,96.070 203.413,96.400 203.200 C 96.911 202.870,96.895 202.811,96.290 202.806 C 95.891 202.803,95.408 203.254,95.185 203.839 M86.655 214.998 C 86.802 215.382,86.600 215.858,86.151 216.187 C 85.739 216.488,85.527 216.861,85.682 217.015 C 86.057 217.390,87.200 216.214,87.200 215.452 C 87.200 215.119,87.022 214.737,86.805 214.603 C 86.575 214.461,86.512 214.627,86.655 214.998 M84.250 219.120 C 84.086 219.384,84.088 219.600,84.253 219.600 C 84.418 219.600,84.204 219.864,83.776 220.187 C 83.349 220.510,83.126 220.780,83.281 220.787 C 83.435 220.794,83.124 221.273,82.588 221.850 C 82.053 222.428,81.742 223.103,81.898 223.350 C 82.081 223.641,82.230 223.552,82.320 223.100 C 82.396 222.715,82.715 222.400,83.029 222.400 C 83.343 222.400,83.560 222.265,83.511 222.100 C 83.462 221.935,83.749 221.311,84.149 220.713 C 84.548 220.115,84.801 219.404,84.711 219.133 C 84.584 218.752,84.479 218.749,84.250 219.120 M307.040 224.760 C 307.380 225.442,307.870 225.986,308.129 225.968 C 308.459 225.946,308.450 225.877,308.100 225.735 C 307.825 225.624,307.600 225.300,307.600 225.016 C 307.600 224.731,307.335 224.278,307.011 224.009 C 306.511 223.594,306.516 223.709,307.040 224.760 M79.962 226.319 C 79.623 226.715,79.428 227.284,79.528 227.584 C 79.628 227.885,79.445 228.326,79.121 228.565 C 78.369 229.121,77.871 231.073,78.399 231.399 C 78.619 231.536,78.800 231.372,78.800 231.036 C 78.800 230.699,79.163 229.777,79.608 228.986 C 80.052 228.195,80.323 227.399,80.210 227.216 C 80.097 227.033,80.274 226.781,80.602 226.654 C 81.219 226.418,81.441 225.600,80.889 225.600 C 80.718 225.600,80.301 225.924,79.962 226.319 M77.067 232.169 C 76.948 232.480,77.109 232.833,77.425 232.954 C 77.757 233.082,78.000 232.937,78.000 232.611 C 78.000 231.813,77.326 231.494,77.067 232.169 M76.438 233.900 C 76.733 234.285,77.025 234.675,77.087 234.767 C 77.149 234.858,77.200 234.543,77.200 234.067 C 77.200 233.534,76.950 233.200,76.551 233.200 C 75.996 233.200,75.979 233.301,76.438 233.900 M75.440 235.135 C 75.322 235.326,75.484 235.824,75.800 236.241 C 76.356 236.975,76.375 236.971,76.387 236.124 C 76.401 235.188,75.797 234.557,75.440 235.135 M75.012 237.317 C 74.841 237.712,74.813 238.147,74.951 238.284 C 75.357 238.690,75.684 238.120,75.497 237.331 C 75.332 236.633,75.310 236.632,75.012 237.317 M74.000 239.576 C 74.000 240.003,74.180 240.464,74.400 240.600 C 74.627 240.740,74.800 240.404,74.800 239.824 C 74.800 239.261,74.620 238.800,74.400 238.800 C 74.180 238.800,74.000 239.149,74.000 239.576 M72.923 242.700 C 72.629 243.633,72.592 244.344,72.825 244.580 C 73.060 244.818,73.200 244.555,73.200 243.880 C 73.200 243.286,73.380 242.800,73.600 242.800 C 73.820 242.800,74.000 242.440,74.000 242.000 C 74.000 240.711,73.434 241.079,72.923 242.700 M71.867 245.067 C 71.452 245.482,71.553 246.800,72.000 246.800 C 72.220 246.800,72.400 246.350,72.400 245.800 C 72.400 244.753,72.308 244.626,71.867 245.067 M70.982 248.437 C 70.973 249.077,71.109 249.600,71.283 249.600 C 71.687 249.600,71.701 247.709,71.299 247.461 C 71.133 247.359,70.990 247.798,70.982 248.437 M70.000 251.400 C 70.000 251.950,70.180 252.400,70.400 252.400 C 70.620 252.400,70.800 251.950,70.800 251.400 C 70.800 250.850,70.620 250.400,70.400 250.400 C 70.180 250.400,70.000 250.850,70.000 251.400 M69.308 254.370 C 69.373 255.231,69.791 255.461,70.172 254.845 C 70.293 254.650,70.133 254.277,69.818 254.015 C 69.351 253.627,69.257 253.692,69.308 254.370 M68.400 257.200 C 68.400 257.860,68.580 258.400,68.800 258.400 C 69.020 258.400,69.200 257.860,69.200 257.200 C 69.200 256.540,69.020 256.000,68.800 256.000 C 68.580 256.000,68.400 256.540,68.400 257.200 M67.776 260.119 C 67.444 260.982,67.698 262.100,68.269 262.290 C 68.590 262.397,68.672 262.029,68.531 261.123 C 68.282 259.525,68.098 259.280,67.776 260.119 M66.961 265.371 C 67.018 267.444,67.398 268.057,67.753 266.646 C 67.971 265.775,67.481 263.600,67.066 263.600 C 66.982 263.600,66.934 264.397,66.961 265.371 M66.134 271.526 C 66.157 273.547,66.301 274.562,66.511 274.187 C 67.093 273.148,67.152 270.231,66.612 269.222 C 66.156 268.370,66.100 268.638,66.134 271.526 M65.584 277.600 C 65.310 280.442,65.306 295.016,65.578 295.749 C 66.344 297.814,66.726 280.195,65.971 277.600 L 65.680 276.600 65.584 277.600 M322.893 286.000 C 322.893 286.770,322.975 287.085,323.076 286.700 C 323.176 286.315,323.176 285.685,323.076 285.300 C 322.975 284.915,322.893 285.230,322.893 286.000 M66.052 300.385 C 65.960 302.409,66.551 303.413,67.001 301.997 C 67.283 301.109,66.919 298.921,66.440 298.625 C 66.276 298.523,66.101 299.315,66.052 300.385 M66.983 305.303 C 66.834 305.690,66.849 306.680,67.015 307.503 L 67.319 309.000 67.660 307.466 C 68.043 305.746,67.491 303.984,66.983 305.303 M67.873 309.861 C 67.482 310.251,67.536 311.513,67.955 311.772 C 68.408 312.052,68.792 310.634,68.424 310.038 C 68.271 309.791,68.023 309.711,67.873 309.861 M69.467 315.867 C 69.057 316.277,69.151 317.922,69.600 318.200 C 69.838 318.347,70.000 317.871,70.000 317.024 C 70.000 315.562,69.928 315.405,69.467 315.867 M70.000 320.400 C 70.000 320.840,70.180 321.200,70.400 321.200 C 70.620 321.200,70.800 320.840,70.800 320.400 C 70.800 319.960,70.620 319.600,70.400 319.600 C 70.180 319.600,70.000 319.960,70.000 320.400 M71.600 324.600 C 71.600 324.930,71.780 325.200,72.000 325.200 C 72.220 325.200,72.400 324.930,72.400 324.600 C 72.400 324.270,72.220 324.000,72.000 324.000 C 71.780 324.000,71.600 324.270,71.600 324.600 M72.667 325.867 C 72.252 326.282,72.353 327.600,72.800 327.600 C 73.020 327.600,73.200 327.150,73.200 326.600 C 73.200 325.553,73.108 325.426,72.667 325.867 M73.200 328.576 C 73.200 328.893,73.380 329.264,73.600 329.400 C 73.820 329.536,74.000 329.277,74.000 328.824 C 74.000 328.371,73.820 328.000,73.600 328.000 C 73.380 328.000,73.200 328.259,73.200 328.576 M74.000 330.600 C 74.000 330.930,74.180 331.200,74.400 331.200 C 74.620 331.200,74.800 330.930,74.800 330.600 C 74.800 330.270,74.620 330.000,74.400 330.000 C 74.180 330.000,74.000 330.270,74.000 330.600 M74.910 332.400 C 74.877 332.840,75.019 333.200,75.225 333.200 C 75.431 333.200,75.600 332.840,75.600 332.400 C 75.600 331.960,75.458 331.600,75.285 331.600 C 75.112 331.600,74.943 331.960,74.910 332.400 M75.400 334.000 C 75.264 334.220,75.324 334.400,75.533 334.400 C 75.742 334.400,76.026 334.850,76.164 335.400 C 76.436 336.483,77.200 336.778,77.200 335.800 C 77.200 335.470,77.020 335.200,76.800 335.200 C 76.580 335.200,76.400 334.840,76.400 334.400 C 76.400 333.556,75.818 333.324,75.400 334.000 M76.967 337.253 C 76.814 337.502,76.983 337.871,77.344 338.073 C 77.705 338.275,78.000 338.801,78.000 339.243 C 78.000 339.686,78.180 339.936,78.400 339.800 C 78.620 339.664,78.800 339.814,78.800 340.134 C 78.800 340.453,79.110 340.833,79.489 340.979 C 80.051 341.194,80.076 341.306,79.624 341.585 C 79.163 341.870,79.181 342.038,79.732 342.589 C 80.096 342.953,80.594 343.127,80.840 342.976 C 81.085 342.824,81.131 342.588,80.943 342.450 C 80.754 342.313,80.403 341.840,80.162 341.400 C 78.902 339.095,78.559 338.574,78.117 338.289 C 77.851 338.119,77.735 337.714,77.859 337.389 C 78.124 336.701,77.379 336.587,76.967 337.253 M81.330 344.549 C 81.717 345.139,81.908 345.825,81.755 346.073 C 81.585 346.348,81.656 346.412,81.938 346.238 C 82.505 345.888,82.551 344.800,82.000 344.800 C 81.780 344.800,81.645 344.598,81.700 344.350 C 81.755 344.103,81.536 343.804,81.213 343.688 C 80.749 343.520,80.774 343.700,81.330 344.549 M82.894 346.952 C 83.275 347.242,83.470 347.596,83.327 347.740 C 83.184 347.883,83.277 348.000,83.533 348.000 C 83.790 348.000,84.000 347.856,84.000 347.680 C 84.000 347.215,83.110 346.398,82.620 346.413 C 82.389 346.420,82.512 346.663,82.894 346.952 M84.255 348.678 C 84.114 348.820,84.314 349.284,84.699 349.710 C 85.085 350.135,85.344 350.564,85.277 350.663 C 85.209 350.761,85.695 351.458,86.358 352.213 C 87.020 352.967,87.671 353.408,87.805 353.192 C 87.938 352.977,87.846 352.800,87.600 352.800 C 87.354 352.800,87.245 352.651,87.357 352.470 C 87.469 352.288,86.939 351.552,86.178 350.835 C 85.418 350.118,84.889 349.379,85.004 349.193 C 85.263 348.775,84.608 348.325,84.255 348.678 M88.000 353.762 C 88.000 354.432,89.938 356.824,90.173 356.443 C 90.315 356.214,89.884 355.453,89.216 354.753 C 88.547 354.054,88.000 353.608,88.000 353.762 M298.401 356.598 C 297.886 357.148,297.539 357.664,297.632 357.746 C 297.724 357.828,298.219 357.378,298.730 356.747 C 299.876 355.335,299.674 355.244,298.401 356.598 M90.601 357.198 C 90.464 357.419,90.554 357.600,90.800 357.600 C 91.046 357.600,91.150 357.757,91.031 357.950 C 90.912 358.142,91.251 358.627,91.784 359.027 C 92.316 359.427,92.644 359.944,92.512 360.177 C 92.380 360.410,92.405 360.480,92.568 360.334 C 92.822 360.106,95.750 362.944,98.329 365.919 C 98.750 366.403,99.298 366.800,99.547 366.800 C 99.796 366.800,100.000 366.991,100.000 367.224 C 100.000 367.457,100.165 367.545,100.366 367.421 C 100.567 367.297,100.823 367.421,100.934 367.698 C 101.046 367.974,101.151 368.013,101.168 367.785 C 101.186 367.556,99.355 365.569,97.100 363.368 C 94.845 361.167,92.516 358.788,91.925 358.081 C 91.333 357.375,90.737 356.978,90.601 357.198 M101.362 368.461 C 101.205 368.715,101.239 368.825,101.438 368.704 C 101.908 368.418,102.837 369.420,102.476 369.822 C 102.324 369.990,102.430 369.996,102.711 369.834 C 103.021 369.655,103.519 369.905,103.977 370.469 C 104.392 370.981,104.856 371.276,105.008 371.124 C 105.327 370.806,103.739 369.116,102.494 368.450 C 101.861 368.112,101.577 368.114,101.362 368.461 M106.474 372.680 C 106.543 373.034,106.927 373.372,107.326 373.431 C 107.725 373.489,108.376 373.911,108.773 374.368 C 109.169 374.826,109.711 375.200,109.975 375.200 C 110.535 375.200,111.648 376.218,111.381 376.486 C 111.281 376.585,111.470 376.667,111.800 376.667 C 112.130 376.667,112.400 376.598,112.400 376.515 C 112.400 376.098,110.361 374.400,109.861 374.400 C 109.545 374.400,109.190 374.150,109.072 373.844 C 108.724 372.936,106.313 371.856,106.474 372.680 M112.800 377.200 C 112.800 377.420,113.055 377.600,113.367 377.600 C 113.678 377.600,114.014 377.825,114.112 378.100 C 114.210 378.375,114.427 378.474,114.593 378.319 C 114.941 377.995,113.868 376.800,113.229 376.800 C 112.993 376.800,112.800 376.980,112.800 377.200 M115.358 378.868 C 115.164 379.183,115.287 379.252,115.734 379.081 C 116.100 378.940,116.400 378.999,116.400 379.213 C 116.400 379.426,116.602 379.600,116.849 379.600 C 117.159 379.600,117.144 379.415,116.800 379.000 C 116.202 378.279,115.748 378.237,115.358 378.868 M118.200 380.620 C 118.640 380.947,119.282 381.452,119.628 381.742 C 119.973 382.031,120.558 382.224,120.928 382.169 C 121.297 382.115,121.600 382.325,121.600 382.635 C 121.600 383.256,122.229 383.400,122.565 382.857 C 122.681 382.668,121.927 382.083,120.888 381.557 C 119.850 381.031,118.940 380.465,118.867 380.300 C 118.793 380.135,118.433 380.006,118.067 380.013 C 117.502 380.024,117.522 380.116,118.200 380.620 M123.413 383.179 C 123.310 383.346,123.678 383.689,124.231 383.942 C 125.414 384.480,125.601 384.502,125.597 384.100 C 125.592 383.654,123.631 382.827,123.413 383.179 M126.097 384.740 C 125.777 384.938,125.877 385.180,126.416 385.517 C 127.059 385.919,127.200 385.903,127.200 385.427 C 127.200 384.686,126.694 384.371,126.097 384.740 M127.814 385.577 C 127.686 385.784,128.261 386.249,129.091 386.610 C 129.921 386.972,130.915 387.434,131.300 387.637 C 131.821 387.912,132.000 387.852,132.000 387.403 C 132.000 387.067,131.646 386.800,131.200 386.800 C 130.760 386.800,130.400 386.601,130.400 386.357 C 130.400 386.114,130.123 386.021,129.785 386.150 C 129.435 386.285,129.072 386.131,128.942 385.793 C 128.683 385.119,128.159 385.019,127.814 385.577 M132.400 388.233 C 132.400 388.488,132.805 388.674,133.300 388.648 C 133.853 388.618,134.158 388.804,134.090 389.130 C 134.030 389.421,134.161 389.548,134.382 389.411 C 134.997 389.031,133.973 387.652,133.123 387.716 C 132.725 387.746,132.400 387.978,132.400 388.233 M135.232 388.853 C 135.195 389.610,136.801 390.159,137.373 389.587 C 137.622 389.338,137.387 389.200,136.713 389.200 C 136.138 389.200,135.576 388.975,135.465 388.700 C 135.337 388.383,135.252 388.439,135.232 388.853 M138.200 390.400 C 138.336 390.620,138.707 390.800,139.024 390.800 C 139.341 390.800,139.600 390.620,139.600 390.400 C 139.600 390.180,139.229 390.000,138.776 390.000 C 138.323 390.000,138.064 390.180,138.200 390.400 M140.600 391.200 C 140.736 391.420,141.107 391.600,141.424 391.600 C 141.741 391.600,142.000 391.420,142.000 391.200 C 142.000 390.980,141.629 390.800,141.176 390.800 C 140.723 390.800,140.464 390.980,140.600 391.200 M142.800 391.920 C 142.800 392.254,145.112 393.200,145.928 393.200 C 146.188 393.200,146.400 393.020,146.400 392.800 C 146.400 392.580,145.849 392.400,145.176 392.400 C 144.463 392.400,144.056 392.233,144.200 392.000 C 144.336 391.780,144.077 391.600,143.624 391.600 C 143.171 391.600,142.800 391.744,142.800 391.920 M146.800 393.513 C 146.800 393.979,148.722 394.050,149.004 393.594 C 149.143 393.368,148.725 393.200,148.024 393.200 C 147.351 393.200,146.800 393.341,146.800 393.513 M150.200 394.400 C 150.336 394.620,150.797 394.800,151.224 394.800 C 151.651 394.800,152.000 394.620,152.000 394.400 C 152.000 394.180,151.539 394.000,150.976 394.000 C 150.396 394.000,150.060 394.173,150.200 394.400 M153.000 395.200 C 153.136 395.420,153.586 395.600,154.000 395.600 C 154.414 395.600,154.864 395.420,155.000 395.200 C 155.145 394.966,154.730 394.800,154.000 394.800 C 153.270 394.800,152.855 394.966,153.000 395.200 M156.000 396.047 C 156.000 396.307,156.416 396.414,156.997 396.303 C 157.565 396.194,158.190 396.346,158.446 396.656 C 158.965 397.281,161.600 397.401,161.600 396.800 C 161.600 396.580,160.891 396.400,160.024 396.400 C 159.157 396.400,158.336 396.220,158.200 396.000 C 157.862 395.453,156.000 395.492,156.000 396.047 M163.200 397.206 C 161.823 397.455,161.817 397.464,162.852 397.761 C 164.479 398.227,166.453 397.928,165.400 397.374 C 164.960 397.143,163.970 397.067,163.200 397.206 M167.200 398.400 C 167.200 398.620,167.920 398.800,168.800 398.800 C 169.680 398.800,170.400 398.620,170.400 398.400 C 170.400 398.180,169.680 398.000,168.800 398.000 C 167.920 398.000,167.200 398.180,167.200 398.400 M172.400 398.789 C 170.924 399.155,172.138 399.500,174.902 399.500 C 177.178 399.500,178.218 398.847,176.100 398.749 C 175.495 398.721,174.640 398.663,174.200 398.619 C 173.760 398.576,172.950 398.652,172.400 398.789 " stroke="none" fill="#9cd457" fill-rule="evenodd"></path></g></svg>