<svg id="svg" version="1.1" xmlns="http://www.w3.org/2000/svg" xmlns:xlink="http://www.w3.org/1999/xlink" width="400" height="400" viewBox="0, 0, 400,400"><g id="svgg"><path id="path0" d="M269.300 135.497 C 270.785 135.574,273.215 135.574,274.700 135.497 C 276.185 135.420,274.970 135.357,272.000 135.357 C 269.030 135.357,267.815 135.420,269.300 135.497 M324.743 145.100 C 324.030 146.145,323.301 147.060,323.123 147.133 C 322.683 147.315,322.711 150.298,323.156 150.573 C 323.351 150.694,323.614 151.379,323.740 152.096 C 323.865 152.813,324.194 154.660,324.471 156.200 C 324.748 157.740,324.975 161.790,324.975 165.200 C 324.975 168.610,324.748 172.660,324.471 174.200 C 324.194 175.740,323.865 177.587,323.740 178.304 C 323.614 179.021,323.351 179.706,323.156 179.827 C 322.960 179.948,322.800 180.489,322.800 181.029 C 322.800 181.569,322.633 182.323,322.430 182.705 C 322.226 183.087,321.584 184.647,321.003 186.171 C 316.205 198.755,302.068 212.771,290.738 216.175 C 286.785 217.363,283.219 215.047,282.890 211.078 C 282.583 207.373,283.463 206.297,289.283 203.270 C 298.755 198.343,305.906 190.677,309.497 181.600 C 309.715 181.050,310.077 180.150,310.301 179.600 C 310.525 179.050,310.922 177.790,311.182 176.800 C 311.441 175.810,311.814 174.460,312.009 173.800 C 312.531 172.035,312.885 162.903,312.517 160.700 L 312.200 158.801 310.826 159.975 C 303.306 166.406,294.940 164.116,290.320 154.364 C 289.421 152.467,288.400 151.503,288.400 152.551 C 288.400 152.840,288.152 153.600,287.849 154.239 C 287.546 154.877,286.339 157.560,285.167 160.200 C 283.057 164.951,277.006 177.112,275.215 180.200 C 274.705 181.080,273.840 182.610,273.293 183.600 C 272.103 185.757,268.231 192.185,266.714 194.525 C 266.116 195.446,265.267 196.856,264.827 197.658 C 264.386 198.460,263.795 199.360,263.512 199.658 C 263.229 199.956,262.022 201.640,260.830 203.400 C 254.561 212.654,244.541 225.272,242.751 226.164 C 241.402 226.838,237.758 227.039,237.533 226.453 C 237.007 225.084,235.648 225.676,233.311 228.293 C 231.982 229.782,229.550 232.401,227.907 234.113 C 226.264 235.826,225.062 237.314,225.235 237.421 C 226.654 238.299,227.178 241.918,226.177 243.925 C 225.530 245.224,219.073 251.415,213.200 256.370 C 211.330 257.947,209.347 259.635,208.793 260.119 C 208.239 260.604,206.979 261.625,205.993 262.390 C 205.007 263.154,204.110 263.887,204.000 264.019 C 203.890 264.151,202.364 265.325,200.608 266.629 C 198.852 267.933,197.142 269.213,196.808 269.474 C 194.249 271.469,192.336 272.800,192.030 272.800 C 191.830 272.800,191.607 272.951,191.533 273.136 C 191.272 273.797,170.117 287.600,169.366 287.600 C 169.233 287.600,168.646 287.939,168.062 288.353 C 166.931 289.155,165.044 290.254,161.800 292.000 C 160.700 292.592,159.080 293.488,158.200 293.992 C 153.826 296.495,138.985 303.688,132.100 306.642 C 131.385 306.949,130.125 307.491,129.300 307.847 C 127.009 308.836,125.095 309.644,124.100 310.041 C 123.605 310.238,122.795 310.562,122.300 310.760 C 121.805 310.958,120.547 311.498,119.504 311.960 C 118.462 312.422,117.488 312.800,117.341 312.800 C 117.193 312.800,114.716 313.692,111.836 314.782 C 104.929 317.398,88.616 322.800,87.627 322.800 C 87.198 322.800,86.749 322.959,86.629 323.154 C 86.508 323.349,85.913 323.604,85.305 323.721 C 84.284 323.918,83.110 324.233,79.700 325.223 C 76.846 326.051,75.337 326.469,74.000 326.800 C 73.230 326.991,71.880 327.351,71.000 327.600 C 70.120 327.849,68.770 328.209,68.000 328.400 C 67.230 328.591,65.880 328.941,65.000 329.179 C 64.120 329.417,62.680 329.768,61.800 329.959 C 60.920 330.150,57.760 330.860,54.778 331.537 C 51.795 332.213,46.035 333.424,41.978 334.228 C 32.347 336.135,31.983 336.470,34.674 340.948 C 43.308 355.315,55.220 367.183,68.741 374.892 C 71.026 376.194,77.452 379.271,79.400 379.995 C 79.840 380.159,80.650 380.494,81.200 380.739 C 84.225 382.089,93.723 384.838,98.074 385.624 C 117.972 389.217,135.589 388.578,158.800 383.422 C 161.330 382.860,164.120 382.209,165.000 381.974 C 165.880 381.739,167.230 381.391,168.000 381.200 C 168.770 381.009,170.030 380.673,170.800 380.454 C 171.570 380.234,172.650 379.937,173.200 379.794 C 173.750 379.650,174.560 379.390,175.000 379.214 C 175.440 379.039,177.150 378.492,178.800 378.000 C 180.450 377.508,182.160 376.964,182.600 376.793 C 183.040 376.621,184.030 376.264,184.800 376.000 C 185.570 375.736,186.560 375.376,187.000 375.200 C 187.440 375.024,188.430 374.664,189.200 374.400 C 190.509 373.951,190.975 373.773,193.300 372.838 C 193.795 372.639,195.730 371.888,197.600 371.170 C 203.428 368.931,211.304 365.495,218.279 362.149 C 220.743 360.967,222.948 360.000,223.179 360.000 C 223.411 360.000,223.600 359.820,223.600 359.600 C 223.600 359.380,223.789 359.200,224.019 359.200 C 224.250 359.200,225.105 358.866,225.919 358.458 C 229.633 356.596,235.493 353.441,236.400 352.816 C 236.950 352.436,238.390 351.603,239.600 350.963 C 241.700 349.853,255.983 340.561,256.400 340.033 C 256.510 339.894,257.874 338.845,259.431 337.703 C 268.868 330.781,277.938 322.355,289.400 309.863 C 294.359 304.458,309.200 283.880,309.200 282.409 C 309.200 282.184,309.359 282.000,309.553 282.000 C 309.748 282.000,310.010 281.685,310.136 281.300 C 310.262 280.915,310.912 279.700,311.580 278.600 C 312.976 276.303,320.443 261.436,322.135 257.584 C 323.433 254.628,323.962 253.376,324.454 252.100 C 325.469 249.463,326.454 247.077,326.847 246.305 C 327.041 245.923,327.200 245.336,327.200 245.000 C 327.200 244.664,327.359 244.077,327.553 243.695 C 328.150 242.521,328.686 241.081,329.224 239.200 C 329.507 238.210,329.888 237.229,330.070 237.020 C 330.251 236.811,330.400 236.314,330.400 235.915 C 330.400 235.516,330.559 234.877,330.753 234.495 C 331.912 232.215,336.815 212.757,338.413 204.100 C 339.676 197.253,339.828 196.358,340.440 192.200 C 342.210 180.160,343.099 170.363,343.435 159.190 L 343.670 151.380 340.735 150.447 C 336.998 149.259,331.651 146.719,328.722 144.739 C 325.936 142.857,326.295 142.824,324.743 145.100 M219.300 190.691 C 220.125 190.778,221.475 190.778,222.300 190.691 C 223.125 190.605,222.450 190.534,220.800 190.534 C 219.150 190.534,218.475 190.605,219.300 190.691 M272.744 209.900 C 273.990 211.035,274.489 211.862,274.795 213.300 C 275.018 214.345,275.380 216.013,275.600 217.006 C 276.130 219.399,276.112 230.177,275.574 232.869 C 275.340 234.041,274.961 235.990,274.732 237.200 C 274.503 238.410,274.180 239.760,274.014 240.200 C 273.847 240.640,273.494 241.720,273.229 242.600 C 270.673 251.088,263.406 261.674,256.200 267.408 C 255.100 268.284,254.110 269.104,254.000 269.230 C 251.835 271.720,238.823 277.782,234.000 278.547 C 228.214 279.466,224.380 272.452,228.478 268.445 C 229.681 267.269,230.309 266.961,233.400 266.029 C 235.039 265.535,236.465 264.979,237.695 264.353 C 238.077 264.159,238.575 264.000,238.802 264.000 C 239.029 264.000,240.400 263.280,241.848 262.400 C 243.297 261.520,244.551 260.800,244.636 260.800 C 244.803 260.800,244.977 260.664,248.603 257.698 C 252.897 254.185,256.964 248.877,259.558 243.400 C 260.287 241.860,261.045 240.287,261.242 239.905 C 261.439 239.523,261.600 238.859,261.600 238.429 C 261.600 237.999,261.761 237.548,261.958 237.426 C 262.155 237.305,262.417 236.529,262.542 235.703 C 262.667 234.876,262.946 233.120,263.163 231.800 C 264.200 225.478,264.119 221.857,262.805 215.869 C 261.539 210.097,268.422 205.963,272.744 209.900 M161.507 239.490 C 162.226 239.579,163.306 239.577,163.907 239.486 C 164.508 239.395,163.920 239.322,162.600 239.324 C 161.280 239.326,160.788 239.401,161.507 239.490 M186.600 249.600 C 187.683 250.700,188.660 251.600,188.770 251.600 C 188.880 251.600,188.083 250.700,187.000 249.600 C 185.917 248.500,184.940 247.600,184.830 247.600 C 184.720 247.600,185.517 248.500,186.600 249.600 M214.870 268.989 C 219.761 272.313,217.506 288.604,210.446 300.947 C 204.648 311.083,188.567 325.200,182.820 325.200 C 182.583 325.200,182.077 325.359,181.695 325.553 C 179.807 326.514,177.379 327.254,173.800 327.962 C 172.700 328.179,170.841 328.547,169.669 328.779 C 163.499 329.999,160.000 327.779,160.000 322.643 C 160.000 318.849,163.301 316.400,168.414 316.400 C 169.579 316.400,172.662 315.762,174.200 315.202 C 174.640 315.042,175.720 314.684,176.600 314.408 C 189.420 310.376,201.427 296.961,203.996 283.800 C 204.254 282.480,204.630 280.645,204.832 279.723 C 205.034 278.800,205.200 276.836,205.200 275.358 C 205.200 269.355,210.384 265.941,214.870 268.989 M80.626 284.700 C 79.762 285.805,79.693 285.990,80.363 285.404 C 81.165 284.704,82.223 283.200,81.914 283.200 C 81.851 283.200,81.272 283.875,80.626 284.700 M149.651 308.967 C 152.227 310.051,153.281 311.619,153.486 314.676 C 154.521 330.119,144.935 349.444,131.600 358.796 C 130.830 359.336,129.851 360.098,129.425 360.489 C 128.998 360.880,128.491 361.200,128.297 361.200 C 128.103 361.200,127.192 361.707,126.272 362.328 C 124.688 363.396,122.662 364.418,118.966 366.011 C 117.156 366.791,111.047 368.490,107.529 369.192 C 104.571 369.781,92.589 369.776,89.671 369.183 C 80.543 367.329,74.141 364.821,68.154 360.754 C 64.100 358.000,64.142 352.444,68.235 350.107 C 70.627 348.741,72.152 348.930,75.810 351.044 C 79.704 353.296,85.436 355.686,88.400 356.296 C 89.610 356.544,91.559 356.940,92.731 357.174 C 95.457 357.719,101.323 357.722,104.069 357.179 C 109.040 356.196,110.324 355.884,112.600 355.109 C 124.344 351.110,134.941 340.668,138.694 329.400 C 140.477 324.043,141.200 320.481,141.200 317.043 C 141.200 310.750,145.078 307.044,149.651 308.967 " stroke="none" fill="#a1de41" fill-rule="evenodd"></path><path id="path1" d="M307.953 12.552 C 304.694 13.717,302.373 15.805,300.563 19.200 C 299.893 20.458,299.789 22.024,299.543 34.600 C 299.392 42.300,299.140 49.365,298.982 50.300 C 298.666 52.172,298.640 52.158,301.200 51.560 C 309.494 49.624,318.397 49.574,324.700 51.428 C 325.829 51.761,325.840 51.374,324.791 48.227 C 323.896 45.541,323.527 44.297,322.806 41.543 L 322.320 39.687 316.577 39.538 L 310.834 39.390 309.406 38.006 C 306.878 35.556,306.571 32.084,308.664 29.597 C 310.722 27.151,310.142 27.200,336.837 27.200 C 360.865 27.200,361.195 27.189,362.680 26.355 C 368.577 23.043,367.942 14.556,361.640 12.454 C 359.567 11.762,309.910 11.853,307.953 12.552 M309.400 62.454 C 305.631 62.721,305.385 62.770,301.212 64.099 C 291.645 67.147,282.398 75.853,278.862 85.142 C 277.641 88.347,277.484 88.942,275.589 97.510 C 272.883 109.747,265.488 116.308,254.280 116.416 L 252.600 116.433 253.950 117.587 C 260.995 123.612,274.505 125.056,285.976 121.009 C 291.728 118.979,293.951 121.285,295.417 130.800 C 296.761 139.531,300.657 150.346,302.598 150.737 C 303.910 151.001,312.268 141.951,315.811 136.430 C 320.419 129.249,321.704 128.000,324.487 128.000 C 326.832 128.000,326.605 127.876,332.152 132.194 C 339.507 137.921,344.754 139.810,353.200 139.772 C 357.130 139.754,359.830 139.565,360.575 139.254 L 361.750 138.763 360.629 138.181 C 360.013 137.862,359.353 137.600,359.162 137.600 C 358.287 137.600,354.346 134.648,352.378 132.519 C 348.146 127.940,345.912 120.855,347.182 116.046 C 348.184 112.254,349.487 104.823,349.854 100.800 C 350.236 96.613,352.632 93.600,355.579 93.600 C 356.340 93.600,356.319 89.844,355.553 89.020 C 355.359 88.811,355.200 88.057,355.200 87.344 C 355.200 86.631,355.020 85.936,354.800 85.800 C 354.580 85.664,354.400 85.209,354.400 84.789 C 354.400 84.368,354.040 83.383,353.600 82.600 C 353.160 81.817,352.800 80.911,352.800 80.588 C 352.800 80.265,352.633 80.000,352.428 80.000 C 352.223 80.000,351.998 79.595,351.928 79.100 C 351.823 78.361,351.586 78.222,350.600 78.325 C 349.940 78.393,348.272 78.483,346.893 78.525 L 344.385 78.600 340.460 74.561 C 331.419 65.257,321.953 61.568,309.400 62.454 " stroke="none" fill="#199762" fill-rule="evenodd"></path><path id="path2" d="M254.000 134.655 C 248.723 137.590,246.843 139.089,243.373 143.128 C 241.157 145.706,237.600 151.892,237.600 153.166 C 237.600 153.411,237.438 153.923,237.239 154.305 C 233.630 161.249,236.287 181.008,241.075 182.828 C 243.477 183.742,250.269 188.275,251.796 189.984 C 253.618 192.023,253.796 191.935,256.598 187.603 C 258.029 185.391,259.200 183.405,259.200 183.190 C 259.200 182.976,259.359 182.800,259.553 182.800 C 259.748 182.800,260.007 182.485,260.129 182.100 C 260.346 181.413,261.605 179.194,262.001 178.800 C 262.111 178.690,262.469 178.060,262.796 177.400 C 263.124 176.740,263.912 175.300,264.548 174.200 C 266.639 170.585,274.800 154.026,274.800 153.400 C 274.800 153.301,275.308 152.091,275.930 150.710 C 276.551 149.330,277.289 147.570,277.570 146.800 C 277.851 146.030,278.225 145.040,278.402 144.600 C 278.579 144.160,279.296 142.270,279.996 140.400 C 280.696 138.530,281.440 136.572,281.649 136.048 C 282.180 134.723,282.022 134.673,278.854 135.164 C 272.953 136.080,264.878 135.525,259.400 133.828 C 256.788 133.019,257.000 132.987,254.000 134.655 M214.400 191.200 C 214.070 191.413,213.226 191.591,212.524 191.594 C 211.822 191.597,211.136 191.780,211.000 192.000 C 210.864 192.220,210.420 192.400,210.014 192.400 C 209.060 192.400,203.184 195.400,200.603 197.204 C 196.448 200.108,191.111 206.513,189.607 210.400 C 189.310 211.170,188.949 211.980,188.805 212.200 C 188.662 212.420,188.317 213.410,188.039 214.400 C 187.761 215.390,187.324 216.920,187.067 217.800 C 185.257 224.001,186.803 233.956,189.923 236.200 C 193.391 238.694,196.935 242.159,199.457 245.522 C 200.726 247.215,201.905 248.768,202.075 248.973 C 202.545 249.537,205.884 246.753,215.400 237.862 C 218.339 235.117,220.116 234.712,223.271 236.069 L 225.291 236.938 228.268 233.769 C 229.905 232.026,232.291 229.430,233.570 228.000 L 235.895 225.400 235.082 224.317 C 233.660 222.422,233.700 219.351,235.175 217.200 C 237.001 214.536,238.343 212.724,239.325 211.594 C 239.806 211.041,240.692 209.932,241.294 209.129 C 241.896 208.326,242.616 207.421,242.894 207.118 C 243.172 206.814,243.580 206.285,243.800 205.942 C 244.020 205.598,244.730 204.555,245.377 203.622 L 246.554 201.927 244.577 200.036 C 242.292 197.849,238.671 195.377,235.800 194.042 C 234.700 193.531,233.487 192.952,233.105 192.756 C 232.723 192.560,232.136 192.400,231.800 192.400 C 231.464 192.400,230.877 192.241,230.495 192.047 C 228.186 190.875,215.904 190.228,214.400 191.200 M157.400 240.024 C 154.550 240.383,152.925 240.727,151.700 241.230 C 151.205 241.434,150.395 241.757,149.900 241.949 C 148.020 242.679,144.995 244.212,144.867 244.500 C 144.793 244.665,144.540 244.800,144.303 244.800 C 143.923 244.800,140.723 247.067,138.684 248.780 C 132.252 254.188,126.906 267.628,127.863 275.983 C 128.101 278.064,128.268 278.324,131.466 281.583 C 133.310 283.462,135.489 286.025,136.309 287.278 C 138.473 290.584,138.624 290.550,150.600 284.099 C 158.054 280.084,160.612 278.679,161.000 278.387 C 161.220 278.221,162.030 277.728,162.800 277.292 C 167.928 274.388,184.234 263.654,186.800 261.494 C 187.130 261.216,188.030 260.544,188.800 260.000 C 192.473 257.406,192.554 257.176,190.753 254.472 C 189.231 252.185,182.564 245.600,181.772 245.600 C 181.458 245.600,181.200 245.463,181.200 245.296 C 181.200 245.010,176.874 242.711,174.900 241.948 C 174.405 241.757,173.595 241.434,173.100 241.230 C 169.823 239.883,162.802 239.344,157.400 240.024 M93.600 273.600 C 93.600 273.822,92.533 274.000,91.200 274.000 C 89.880 274.000,88.800 274.161,88.800 274.358 C 88.800 274.555,88.125 274.807,87.300 274.918 C 85.770 275.125,85.065 275.295,84.000 275.716 C 83.670 275.847,83.040 276.014,82.600 276.089 C 82.007 276.190,81.834 276.480,81.931 277.212 C 82.716 283.104,82.328 284.138,78.325 286.840 C 69.629 292.711,64.000 303.551,64.000 314.429 C 64.000 316.961,63.704 316.949,71.600 314.739 C 72.370 314.523,73.630 314.203,74.400 314.026 C 75.170 313.850,76.610 313.415,77.600 313.059 C 78.590 312.703,79.717 312.409,80.105 312.406 C 80.493 312.403,81.123 312.235,81.505 312.034 C 81.887 311.832,83.550 311.274,85.200 310.793 C 96.468 307.506,115.015 300.723,123.496 296.787 C 124.428 296.354,125.444 296.000,125.753 296.000 C 126.783 296.000,126.754 294.899,125.688 293.542 C 121.069 287.660,113.197 282.690,106.200 281.238 C 99.977 279.947,97.600 278.005,97.600 274.213 C 97.600 273.264,97.473 273.200,95.600 273.200 C 94.500 273.200,93.600 273.380,93.600 273.600 " stroke="none" fill="#e7f9d1" fill-rule="evenodd"></path><path id="path3" d="M304.100 0.282 C 303.385 0.375,302.800 0.619,302.800 0.825 C 302.800 1.031,302.457 1.200,302.038 1.200 C 301.131 1.200,298.000 2.808,298.000 3.274 C 298.000 3.453,297.746 3.600,297.435 3.600 C 296.600 3.600,291.200 9.128,291.200 9.983 C 291.200 10.212,291.020 10.400,290.800 10.400 C 290.580 10.400,290.400 10.760,290.400 11.200 C 290.400 11.640,290.220 12.000,290.000 12.000 C 289.780 12.000,289.600 12.360,289.600 12.800 C 289.600 13.240,289.420 13.600,289.200 13.600 C 288.980 13.600,288.800 13.960,288.800 14.400 C 288.800 14.840,288.620 15.200,288.400 15.200 C 288.180 15.200,288.000 15.729,288.000 16.376 C 288.000 17.023,287.820 17.664,287.600 17.800 C 287.346 17.957,287.200 22.871,287.200 31.224 C 287.200 39.741,287.059 44.400,286.800 44.400 C 286.569 44.400,286.400 45.667,286.400 47.400 C 286.400 49.133,286.231 50.400,286.000 50.400 C 285.780 50.400,285.600 51.120,285.600 52.000 C 285.600 52.880,285.420 53.600,285.200 53.600 C 284.980 53.600,284.800 54.219,284.800 54.976 C 284.800 55.733,284.620 56.464,284.400 56.600 C 284.180 56.736,284.000 57.284,284.000 57.819 C 284.000 58.516,283.551 59.073,282.406 59.796 C 281.530 60.349,279.685 61.967,278.306 63.391 C 274.616 67.204,274.000 67.924,274.000 68.425 C 274.000 68.675,273.460 69.383,272.800 70.000 C 272.140 70.617,271.600 71.409,271.600 71.760 C 271.600 72.112,271.420 72.400,271.200 72.400 C 270.980 72.400,270.800 72.720,270.800 73.112 C 270.800 73.503,270.440 74.083,270.000 74.400 C 269.560 74.717,269.200 75.297,269.200 75.688 C 269.200 76.080,269.020 76.400,268.800 76.400 C 268.580 76.400,268.400 76.760,268.400 77.200 C 268.400 77.640,268.220 78.000,268.000 78.000 C 267.780 78.000,267.600 78.450,267.600 79.000 C 267.600 79.550,267.420 80.000,267.200 80.000 C 266.980 80.000,266.800 80.349,266.800 80.776 C 266.800 81.203,266.620 81.664,266.400 81.800 C 266.180 81.936,266.000 82.487,266.000 83.024 C 266.000 83.561,265.820 84.000,265.600 84.000 C 265.380 84.000,265.200 84.720,265.200 85.600 C 265.200 86.480,265.038 87.200,264.840 87.200 C 264.642 87.200,264.378 87.965,264.253 88.900 C 263.648 93.416,263.492 94.227,263.159 94.580 C 262.962 94.789,262.800 95.644,262.800 96.480 C 262.800 97.316,262.620 98.000,262.400 98.000 C 262.180 98.000,262.000 98.269,262.000 98.597 C 262.000 99.592,259.042 102.800,258.125 102.800 C 257.836 102.800,257.600 102.980,257.600 103.200 C 257.600 103.448,255.467 103.600,252.000 103.600 C 248.533 103.600,246.400 103.752,246.400 104.000 C 246.400 104.220,246.040 104.400,245.600 104.400 C 245.160 104.400,244.800 104.580,244.800 104.800 C 244.800 105.020,244.550 105.200,244.244 105.200 C 243.587 105.200,240.400 108.758,240.400 109.492 C 240.400 109.771,240.220 110.000,240.000 110.000 C 239.780 110.000,239.600 110.450,239.600 111.000 C 239.600 111.550,239.420 112.000,239.200 112.000 C 238.963 112.000,238.800 113.467,238.800 115.600 C 238.800 117.733,238.963 119.200,239.200 119.200 C 239.420 119.200,239.600 119.740,239.600 120.400 C 239.600 121.060,239.780 121.600,240.000 121.600 C 240.220 121.600,240.400 121.778,240.400 121.995 C 240.400 122.424,241.330 123.642,242.600 124.875 C 243.319 125.574,243.335 125.689,242.752 126.017 C 242.396 126.217,241.522 126.925,240.810 127.591 C 240.098 128.256,239.393 128.800,239.242 128.800 C 238.781 128.800,235.023 132.518,233.987 134.000 C 233.449 134.770,232.512 135.922,231.904 136.559 C 231.297 137.197,230.800 137.962,230.800 138.259 C 230.800 138.557,230.632 138.800,230.427 138.800 C 230.222 138.800,229.940 139.159,229.801 139.598 C 229.662 140.036,229.328 140.621,229.060 140.898 C 227.734 142.265,224.800 149.507,224.800 151.415 C 224.800 152.177,224.620 152.800,224.400 152.800 C 224.180 152.800,224.000 153.520,224.000 154.400 C 224.000 155.280,223.820 156.000,223.600 156.000 C 223.362 156.000,223.200 157.525,223.200 159.776 C 223.200 161.863,223.021 163.663,222.800 163.800 C 222.580 163.936,222.400 164.577,222.400 165.224 C 222.400 165.871,222.580 166.400,222.800 166.400 C 223.038 166.400,223.200 167.925,223.200 170.176 C 223.200 172.263,223.379 174.063,223.600 174.200 C 223.820 174.336,224.000 175.146,224.000 176.001 L 224.000 177.554 219.100 177.746 C 213.418 177.968,210.357 178.328,209.820 178.839 C 209.611 179.037,208.846 179.200,208.120 179.200 C 207.394 179.200,206.800 179.380,206.800 179.600 C 206.800 179.820,206.260 180.000,205.600 180.000 C 204.940 180.000,204.400 180.180,204.400 180.400 C 204.400 180.620,204.128 180.800,203.795 180.800 C 203.207 180.800,202.782 180.967,200.905 181.938 C 200.413 182.192,199.738 182.400,199.405 182.400 C 199.072 182.400,198.800 182.580,198.800 182.800 C 198.800 183.020,198.564 183.200,198.275 183.200 C 197.987 183.200,197.364 183.560,196.892 184.000 C 196.420 184.440,195.796 184.800,195.505 184.800 C 195.214 184.800,194.717 185.160,194.400 185.600 C 194.083 186.040,193.681 186.400,193.508 186.400 C 193.335 186.400,192.628 186.940,191.937 187.600 C 191.246 188.260,190.519 188.800,190.321 188.800 C 189.613 188.800,182.938 195.977,182.032 197.712 C 181.720 198.311,181.315 198.800,181.132 198.800 C 180.950 198.800,180.800 199.120,180.800 199.512 C 180.800 199.903,180.440 200.483,180.000 200.800 C 179.560 201.117,179.200 201.697,179.200 202.088 C 179.200 202.480,179.020 202.800,178.800 202.800 C 178.580 202.800,178.400 203.160,178.400 203.600 C 178.400 204.040,178.220 204.400,178.000 204.400 C 177.780 204.400,177.600 204.749,177.600 205.176 C 177.600 205.603,177.420 206.064,177.200 206.200 C 176.980 206.336,176.800 206.887,176.800 207.424 C 176.800 207.961,176.640 208.400,176.445 208.400 C 176.250 208.400,175.995 208.895,175.878 209.500 C 175.761 210.105,175.475 211.320,175.242 212.200 C 175.010 213.080,174.815 214.475,174.810 215.300 C 174.804 216.125,174.620 216.800,174.400 216.800 C 174.153 216.800,174.000 218.867,174.000 222.200 L 174.000 227.600 172.424 227.600 C 171.557 227.600,170.736 227.420,170.600 227.200 C 170.449 226.955,167.263 226.800,162.376 226.800 C 157.325 226.800,154.400 226.947,154.400 227.200 C 154.400 227.420,153.500 227.600,152.400 227.600 C 151.300 227.600,150.400 227.780,150.400 228.000 C 150.400 228.220,149.858 228.400,149.195 228.400 C 148.532 228.400,147.677 228.559,147.295 228.753 C 146.622 229.096,146.050 229.341,143.300 230.464 C 142.585 230.756,142.000 231.131,142.000 231.298 C 142.000 231.464,141.640 231.600,141.200 231.600 C 140.760 231.600,140.400 231.780,140.400 232.000 C 140.400 232.220,140.040 232.400,139.600 232.400 C 139.160 232.400,138.800 232.580,138.800 232.800 C 138.800 233.020,138.480 233.200,138.088 233.200 C 137.697 233.200,137.117 233.560,136.800 234.000 C 136.483 234.440,135.943 234.800,135.600 234.800 C 135.257 234.800,134.717 235.160,134.400 235.600 C 134.083 236.040,133.604 236.400,133.336 236.400 C 132.788 236.400,125.600 243.404,125.600 243.938 C 125.600 244.127,125.060 244.846,124.400 245.537 C 123.740 246.228,123.200 247.025,123.200 247.308 C 123.200 247.591,122.840 248.083,122.400 248.400 C 121.960 248.717,121.600 249.297,121.600 249.688 C 121.600 250.080,121.420 250.400,121.200 250.400 C 120.980 250.400,120.800 250.760,120.800 251.200 C 120.800 251.640,120.620 252.000,120.400 252.000 C 120.180 252.000,120.000 252.360,120.000 252.800 C 120.000 253.240,119.820 253.600,119.600 253.600 C 119.380 253.600,119.200 253.960,119.200 254.400 C 119.200 254.840,119.020 255.200,118.800 255.200 C 118.580 255.200,118.400 255.639,118.400 256.176 C 118.400 256.713,118.220 257.264,118.000 257.400 C 117.780 257.536,117.600 258.087,117.600 258.624 C 117.600 259.161,117.420 259.600,117.200 259.600 C 116.980 259.600,116.800 260.129,116.800 260.776 C 116.800 261.423,116.620 262.064,116.400 262.200 C 116.180 262.336,116.000 263.247,116.000 264.224 C 116.000 265.201,115.820 266.000,115.600 266.000 C 115.380 266.000,115.200 266.900,115.200 268.000 C 115.200 269.956,115.173 270.000,114.000 270.000 C 113.340 270.000,112.800 269.820,112.800 269.600 C 112.800 269.380,112.260 269.200,111.600 269.200 C 110.940 269.200,110.400 269.020,110.400 268.800 C 110.400 268.580,109.500 268.400,108.400 268.400 C 107.300 268.400,106.400 268.220,106.400 268.000 C 106.400 267.780,105.410 267.600,104.200 267.600 C 102.990 267.600,102.000 267.780,102.000 268.000 C 102.000 268.220,101.766 268.400,101.480 268.400 C 99.366 268.400,96.378 272.269,97.689 273.307 C 98.031 273.578,98.428 274.470,98.571 275.288 C 99.054 278.046,102.313 280.400,105.647 280.400 C 110.918 280.400,122.408 287.622,126.446 293.472 C 128.189 295.998,128.853 295.432,120.000 298.967 C 117.470 299.977,115.040 300.977,114.600 301.190 C 113.613 301.667,108.830 303.452,106.400 304.249 C 105.410 304.574,104.240 304.993,103.800 305.180 C 103.360 305.366,102.370 305.736,101.600 306.000 C 100.830 306.264,99.840 306.633,99.400 306.820 C 98.960 307.006,97.340 307.549,95.800 308.026 C 94.260 308.502,92.687 309.051,92.305 309.246 C 91.923 309.441,91.336 309.600,91.000 309.600 C 90.664 309.600,90.077 309.762,89.695 309.959 C 89.313 310.156,87.650 310.718,86.000 311.207 C 84.350 311.696,82.550 312.236,82.000 312.407 C 78.742 313.417,69.382 315.991,65.859 316.845 C 63.024 317.532,62.684 316.527,63.653 310.307 C 65.234 300.153,70.235 291.812,78.110 286.200 C 80.930 284.191,82.182 282.123,81.823 280.073 C 81.680 279.263,81.527 278.001,81.482 277.268 C 81.395 275.864,80.379 274.800,79.124 274.800 C 78.726 274.800,78.400 274.620,78.400 274.400 C 78.400 274.180,77.410 274.000,76.200 274.000 C 74.990 274.000,74.000 274.180,74.000 274.400 C 74.000 274.620,73.662 274.800,73.249 274.800 C 72.836 274.800,72.274 275.070,72.000 275.400 C 71.726 275.730,71.289 276.000,71.029 276.000 C 70.769 276.000,69.869 276.630,69.028 277.400 C 68.187 278.170,67.387 278.800,67.250 278.800 C 66.798 278.800,63.785 281.770,62.787 283.200 C 62.249 283.970,61.312 285.122,60.704 285.759 C 60.097 286.397,59.600 287.162,59.600 287.459 C 59.600 287.757,59.423 288.000,59.208 288.000 C 58.992 288.000,58.693 288.495,58.544 289.100 C 58.394 289.705,57.941 290.491,57.536 290.847 C 57.131 291.203,56.800 291.788,56.800 292.147 C 56.800 292.506,56.620 292.800,56.400 292.800 C 56.180 292.800,56.000 293.160,56.000 293.600 C 56.000 294.040,55.820 294.400,55.600 294.400 C 55.380 294.400,55.200 294.850,55.200 295.400 C 55.200 295.950,55.020 296.400,54.800 296.400 C 54.580 296.400,54.400 296.749,54.400 297.176 C 54.400 297.603,54.220 298.064,54.000 298.200 C 53.780 298.336,53.600 298.876,53.600 299.400 C 53.600 299.924,53.420 300.464,53.200 300.600 C 52.980 300.736,52.800 301.467,52.800 302.224 C 52.800 302.981,52.620 303.600,52.400 303.600 C 52.178 303.600,52.000 304.667,52.000 306.000 C 52.000 307.333,51.822 308.400,51.600 308.400 C 51.353 308.400,51.200 310.467,51.200 313.800 C 51.200 318.879,51.154 319.200,50.424 319.200 C 49.997 319.200,49.536 319.380,49.400 319.600 C 49.264 319.820,48.353 320.000,47.376 320.000 C 46.399 320.000,45.600 320.180,45.600 320.400 C 45.600 320.620,44.790 320.800,43.800 320.800 C 42.810 320.800,42.000 320.980,42.000 321.200 C 42.000 321.420,41.100 321.600,40.000 321.600 C 38.900 321.600,38.000 321.780,38.000 322.000 C 38.000 322.220,37.100 322.400,36.000 322.400 C 34.900 322.400,34.000 322.580,34.000 322.800 C 34.000 323.020,33.201 323.200,32.224 323.200 C 31.247 323.200,30.336 323.380,30.200 323.600 C 30.064 323.820,29.603 324.000,29.176 324.000 C 28.749 324.000,28.400 324.180,28.400 324.400 C 28.400 324.620,28.084 324.800,27.698 324.800 C 26.565 324.800,22.400 329.048,22.400 330.205 C 22.400 330.532,22.220 330.800,22.000 330.800 C 21.780 330.800,21.600 331.160,21.600 331.600 C 21.600 332.040,21.420 332.400,21.200 332.400 C 20.955 332.400,20.800 334.325,20.800 337.376 C 20.800 340.263,20.968 342.457,21.200 342.600 C 21.420 342.736,21.600 343.287,21.600 343.824 C 21.600 344.361,21.780 344.800,22.000 344.800 C 22.220 344.800,22.400 345.120,22.400 345.512 C 22.400 345.903,22.760 346.483,23.200 346.800 C 23.640 347.117,24.000 347.697,24.000 348.088 C 24.000 348.480,24.180 348.800,24.400 348.800 C 24.620 348.800,24.800 349.138,24.800 349.551 C 24.800 349.964,25.070 350.526,25.400 350.800 C 25.730 351.074,26.000 351.512,26.000 351.774 C 26.000 352.035,26.315 352.598,26.700 353.025 C 27.085 353.451,27.655 354.295,27.968 354.900 C 28.280 355.505,28.685 356.000,28.868 356.000 C 29.050 356.000,29.200 356.206,29.200 356.457 C 29.200 356.708,29.740 357.429,30.400 358.060 C 31.060 358.691,31.600 359.367,31.600 359.563 C 31.600 359.759,32.457 360.795,33.505 361.865 C 34.553 362.935,35.855 364.438,36.397 365.205 C 37.550 366.836,41.815 371.110,44.575 373.400 C 45.636 374.280,47.146 375.585,47.930 376.300 C 48.715 377.015,49.503 377.600,49.682 377.600 C 49.861 377.600,50.572 378.140,51.263 378.800 C 51.954 379.460,52.722 380.000,52.971 380.000 C 53.220 380.000,53.683 380.360,54.000 380.800 C 54.317 381.240,54.857 381.600,55.200 381.600 C 55.543 381.600,56.083 381.960,56.400 382.400 C 56.717 382.840,57.231 383.200,57.541 383.200 C 57.852 383.200,58.397 383.516,58.753 383.903 C 59.109 384.289,59.940 384.874,60.600 385.202 C 61.260 385.530,61.890 385.889,62.000 385.999 C 62.427 386.428,64.729 387.667,67.600 389.016 C 69.250 389.791,70.893 390.587,71.251 390.785 C 71.609 390.983,72.554 391.268,73.351 391.417 C 74.148 391.567,74.800 391.849,74.800 392.045 C 74.800 392.240,75.250 392.400,75.800 392.400 C 76.350 392.400,76.800 392.580,76.800 392.800 C 76.800 393.020,77.250 393.200,77.800 393.200 C 78.350 393.200,78.800 393.380,78.800 393.600 C 78.800 393.820,79.250 394.000,79.800 394.000 C 80.350 394.000,80.800 394.180,80.800 394.400 C 80.800 394.620,81.340 394.800,82.000 394.800 C 82.660 394.800,83.200 394.980,83.200 395.200 C 83.200 395.420,83.920 395.600,84.800 395.600 C 85.680 395.600,86.400 395.780,86.400 396.000 C 86.400 396.220,86.940 396.400,87.600 396.400 C 88.260 396.400,88.800 396.580,88.800 396.800 C 88.800 397.020,89.599 397.200,90.576 397.200 C 91.553 397.200,92.464 397.380,92.600 397.600 C 92.736 397.820,93.456 398.000,94.200 398.000 C 94.944 398.000,95.664 398.180,95.800 398.400 C 95.936 398.620,97.012 398.800,98.190 398.800 C 99.549 398.800,100.394 398.983,100.500 399.300 C 100.744 400.031,143.656 400.031,143.900 399.300 C 144.012 398.964,144.976 398.800,146.833 398.800 C 148.411 398.800,149.600 398.628,149.600 398.400 C 149.600 398.180,150.579 398.000,151.776 398.000 C 152.973 398.000,154.064 397.820,154.200 397.600 C 154.336 397.380,155.247 397.200,156.224 397.200 C 157.201 397.200,158.000 397.020,158.000 396.800 C 158.000 396.580,158.799 396.400,159.776 396.400 C 160.753 396.400,161.664 396.220,161.800 396.000 C 161.936 395.780,162.757 395.600,163.624 395.600 C 164.491 395.600,165.200 395.420,165.200 395.200 C 165.200 394.980,165.920 394.800,166.800 394.800 C 167.680 394.800,168.400 394.620,168.400 394.400 C 168.400 394.180,169.030 394.000,169.800 394.000 C 170.570 394.000,171.200 393.820,171.200 393.600 C 171.200 393.380,171.830 393.200,172.600 393.200 C 173.370 393.200,174.000 393.020,174.000 392.800 C 174.000 392.580,174.630 392.400,175.400 392.400 C 176.170 392.400,176.800 392.241,176.800 392.046 C 176.800 391.851,177.787 391.569,178.994 391.418 C 180.200 391.267,181.291 390.977,181.417 390.772 C 181.544 390.567,182.177 390.400,182.824 390.400 C 183.471 390.400,184.000 390.220,184.000 390.000 C 184.000 389.780,184.529 389.600,185.176 389.600 C 185.823 389.600,186.464 389.420,186.600 389.200 C 186.736 388.980,187.287 388.800,187.824 388.800 C 188.361 388.800,188.800 388.620,188.800 388.400 C 188.800 388.180,189.239 388.000,189.776 388.000 C 190.313 388.000,190.864 387.820,191.000 387.600 C 191.136 387.380,191.687 387.200,192.224 387.200 C 192.761 387.200,193.200 387.020,193.200 386.800 C 193.200 386.580,193.740 386.400,194.400 386.400 C 195.060 386.400,195.600 386.220,195.600 386.000 C 195.600 385.780,195.949 385.600,196.376 385.600 C 196.803 385.600,197.264 385.420,197.400 385.200 C 197.536 384.980,198.087 384.800,198.624 384.800 C 199.161 384.800,199.600 384.620,199.600 384.400 C 199.600 384.180,200.039 384.000,200.576 384.000 C 201.113 384.000,201.664 383.820,201.800 383.600 C 201.936 383.380,202.397 383.200,202.824 383.200 C 203.251 383.200,203.600 383.020,203.600 382.800 C 203.600 382.580,204.050 382.400,204.600 382.400 C 205.150 382.400,205.600 382.220,205.600 382.000 C 205.600 381.780,205.865 381.600,206.188 381.600 C 206.511 381.600,207.417 381.240,208.200 380.800 C 208.983 380.360,209.979 380.000,210.412 380.000 C 210.845 380.000,211.200 379.820,211.200 379.600 C 211.200 379.380,211.560 379.200,212.000 379.200 C 212.440 379.200,212.800 379.020,212.800 378.800 C 212.800 378.580,213.160 378.400,213.600 378.400 C 214.040 378.400,214.400 378.220,214.400 378.000 C 214.400 377.780,214.940 377.600,215.600 377.600 C 216.260 377.600,216.800 377.420,216.800 377.200 C 216.800 376.980,217.160 376.800,217.600 376.800 C 218.040 376.800,218.400 376.620,218.400 376.400 C 218.400 376.180,218.760 376.000,219.200 376.000 C 219.640 376.000,220.000 375.820,220.000 375.600 C 220.000 375.380,220.287 375.200,220.638 375.200 C 221.758 375.200,235.600 368.499,235.600 367.957 C 235.600 367.761,235.960 367.600,236.400 367.600 C 236.840 367.600,237.200 367.420,237.200 367.200 C 237.200 366.980,237.560 366.800,238.000 366.800 C 238.440 366.800,238.800 366.620,238.800 366.400 C 238.800 366.180,239.160 366.000,239.600 366.000 C 240.040 366.000,240.400 365.820,240.400 365.600 C 240.400 365.380,240.670 365.200,241.000 365.200 C 241.330 365.200,241.600 365.020,241.600 364.800 C 241.600 364.580,241.920 364.400,242.312 364.400 C 242.703 364.400,243.283 364.040,243.600 363.600 C 243.917 363.160,244.497 362.800,244.888 362.800 C 245.280 362.800,245.600 362.620,245.600 362.400 C 245.600 362.180,245.960 362.000,246.400 362.000 C 246.840 362.000,247.200 361.820,247.200 361.600 C 247.200 361.380,247.520 361.200,247.912 361.200 C 248.303 361.200,248.883 360.840,249.200 360.400 C 249.517 359.960,250.097 359.600,250.488 359.600 C 250.880 359.600,251.200 359.432,251.200 359.227 C 251.200 359.022,251.585 358.732,252.055 358.583 C 253.137 358.239,259.984 353.670,260.847 352.716 C 261.203 352.322,261.748 352.000,262.059 352.000 C 262.369 352.000,262.883 351.640,263.200 351.200 C 263.517 350.760,263.980 350.400,264.229 350.400 C 264.478 350.400,265.246 349.860,265.937 349.200 C 266.628 348.540,267.337 348.000,267.512 348.000 C 267.688 348.000,268.628 347.280,269.600 346.400 C 270.572 345.520,271.524 344.800,271.715 344.800 C 271.906 344.800,272.754 344.080,273.600 343.200 C 274.446 342.320,275.303 341.600,275.506 341.600 C 275.709 341.600,276.861 340.645,278.066 339.478 C 279.271 338.311,280.874 336.919,281.629 336.384 C 284.154 334.595,299.814 318.295,301.999 315.181 C 302.533 314.422,303.471 313.323,304.085 312.740 C 304.698 312.156,305.200 311.526,305.201 311.340 C 305.201 311.153,305.750 310.370,306.420 309.600 C 307.090 308.830,307.939 307.705,308.306 307.100 C 308.672 306.495,309.114 306.000,309.286 306.000 C 309.459 306.000,309.600 305.730,309.600 305.400 C 309.600 305.070,309.780 304.800,310.000 304.800 C 310.220 304.800,310.400 304.570,310.400 304.288 C 310.400 304.007,310.760 303.517,311.200 303.200 C 311.640 302.883,312.000 302.391,312.000 302.108 C 312.000 301.825,312.540 301.028,313.200 300.337 C 313.860 299.646,314.400 298.838,314.400 298.541 C 314.400 298.243,314.558 298.000,314.751 298.000 C 314.945 298.000,315.327 297.460,315.600 296.800 C 315.873 296.140,316.255 295.600,316.449 295.600 C 316.642 295.600,316.800 295.280,316.800 294.888 C 316.800 294.497,317.160 293.917,317.600 293.600 C 318.040 293.283,318.400 292.769,318.400 292.459 C 318.400 292.148,318.716 291.603,319.103 291.247 C 319.489 290.891,320.074 290.060,320.402 289.400 C 320.730 288.740,321.102 288.110,321.229 288.000 C 321.356 287.890,321.896 286.990,322.430 286.000 C 322.963 285.010,323.490 284.110,323.600 284.000 C 324.117 283.483,325.200 281.208,325.200 280.638 C 325.200 280.287,325.380 280.000,325.600 280.000 C 325.820 280.000,326.000 279.640,326.000 279.200 C 326.000 278.760,326.180 278.400,326.400 278.400 C 326.620 278.400,326.800 278.040,326.800 277.600 C 326.800 277.160,326.980 276.800,327.200 276.800 C 327.420 276.800,327.600 276.440,327.600 276.000 C 327.600 275.560,327.746 275.200,327.925 275.200 C 328.104 275.200,328.498 274.570,328.800 273.800 C 329.102 273.030,329.496 272.400,329.675 272.400 C 329.854 272.400,330.000 272.040,330.000 271.600 C 330.000 271.160,330.180 270.800,330.400 270.800 C 330.620 270.800,330.800 270.440,330.800 270.000 C 330.800 269.560,330.980 269.200,331.200 269.200 C 331.420 269.200,331.600 268.840,331.600 268.400 C 331.600 267.960,331.780 267.600,332.000 267.600 C 332.220 267.600,332.400 267.251,332.400 266.824 C 332.400 266.397,332.580 265.936,332.800 265.800 C 333.020 265.664,333.200 265.113,333.200 264.576 C 333.200 264.039,333.380 263.600,333.600 263.600 C 333.820 263.600,334.000 263.240,334.000 262.800 C 334.000 262.360,334.180 262.000,334.400 262.000 C 334.620 262.000,334.800 261.640,334.800 261.200 C 334.800 260.760,334.980 260.400,335.200 260.400 C 335.420 260.400,335.600 259.961,335.600 259.424 C 335.600 258.887,335.780 258.336,336.000 258.200 C 336.220 258.064,336.400 257.603,336.400 257.176 C 336.400 256.749,336.580 256.400,336.800 256.400 C 337.020 256.400,337.200 255.950,337.200 255.400 C 337.200 254.850,337.380 254.400,337.600 254.400 C 337.820 254.400,338.000 254.051,338.000 253.624 C 338.000 253.197,338.180 252.736,338.400 252.600 C 338.620 252.464,338.800 251.924,338.800 251.400 C 338.800 250.876,338.980 250.336,339.200 250.200 C 339.420 250.064,339.600 249.513,339.600 248.976 C 339.600 248.439,339.740 248.000,339.911 248.000 C 340.288 248.000,341.600 243.713,341.600 242.480 C 341.600 241.996,341.780 241.600,342.000 241.600 C 342.220 241.600,342.400 241.060,342.400 240.400 C 342.400 239.740,342.580 239.200,342.800 239.200 C 343.020 239.200,343.200 238.570,343.200 237.800 C 343.200 237.030,343.380 236.400,343.600 236.400 C 343.820 236.400,344.000 235.860,344.000 235.200 C 344.000 234.540,344.180 234.000,344.400 234.000 C 344.620 234.000,344.800 233.460,344.800 232.800 C 344.800 232.140,344.980 231.600,345.200 231.600 C 345.420 231.600,345.600 230.880,345.600 230.000 C 345.600 229.120,345.780 228.400,346.000 228.400 C 346.220 228.400,346.400 227.680,346.400 226.800 C 346.400 225.920,346.580 225.200,346.800 225.200 C 347.020 225.200,347.200 224.570,347.200 223.800 C 347.200 223.030,347.380 222.400,347.600 222.400 C 347.820 222.400,348.000 221.781,348.000 221.024 C 348.000 220.267,348.180 219.536,348.400 219.400 C 348.620 219.264,348.800 218.443,348.800 217.576 C 348.800 216.709,348.962 216.000,349.160 216.000 C 349.358 216.000,349.622 215.235,349.747 214.300 C 350.352 209.784,350.508 208.973,350.841 208.620 C 351.038 208.411,351.200 207.376,351.200 206.320 C 351.200 205.264,351.380 204.400,351.600 204.400 C 351.820 204.400,352.000 203.421,352.000 202.224 C 352.000 201.027,352.180 199.936,352.400 199.800 C 352.620 199.664,352.800 198.483,352.800 197.176 C 352.800 195.859,352.978 194.800,353.200 194.800 C 353.425 194.800,353.600 193.675,353.600 192.224 C 353.600 190.807,353.780 189.536,354.000 189.400 C 354.220 189.264,354.400 187.849,354.400 186.256 C 354.400 184.663,354.568 183.189,354.773 182.980 C 355.157 182.590,355.458 178.666,355.831 169.200 C 355.948 166.230,356.214 163.629,356.422 163.420 C 356.630 163.211,356.800 160.736,356.800 157.920 L 356.800 152.800 358.200 152.800 C 358.970 152.800,359.600 152.620,359.600 152.400 C 359.600 152.180,360.500 152.000,361.600 152.000 C 362.700 152.000,363.600 151.820,363.600 151.600 C 363.600 151.380,364.320 151.200,365.200 151.200 C 366.080 151.200,366.800 151.020,366.800 150.800 C 366.800 150.580,367.250 150.400,367.800 150.400 C 368.350 150.400,368.800 150.264,368.800 150.098 C 368.800 149.931,369.385 149.539,370.100 149.227 C 371.514 148.608,374.000 146.140,374.000 145.355 C 374.000 145.086,374.225 144.792,374.500 144.700 C 375.510 144.363,375.434 134.699,374.406 132.701 C 373.396 130.739,371.283 128.400,370.522 128.400 C 370.235 128.400,370.000 128.220,370.000 128.000 C 370.000 127.780,369.640 127.600,369.200 127.600 C 368.760 127.600,368.400 127.420,368.400 127.200 C 368.400 126.980,367.984 126.800,367.475 126.800 C 365.279 126.800,360.400 123.640,360.400 122.218 C 360.400 121.878,360.220 121.600,360.000 121.600 C 359.771 121.600,359.600 120.400,359.600 118.800 C 359.600 117.200,359.771 116.000,360.000 116.000 C 360.220 116.000,360.400 115.201,360.400 114.224 C 360.400 113.247,360.580 112.336,360.800 112.200 C 361.020 112.064,361.200 111.164,361.200 110.200 C 361.200 109.236,361.380 108.336,361.600 108.200 C 361.820 108.064,362.000 106.444,362.000 104.600 C 362.000 102.756,362.180 101.136,362.400 101.000 C 362.620 100.864,362.800 100.313,362.800 99.776 C 362.800 99.239,362.620 98.800,362.400 98.800 C 362.180 98.800,362.000 98.348,362.000 97.795 C 362.000 96.143,360.548 94.000,359.429 94.000 C 359.083 94.000,358.800 93.840,358.800 93.645 C 358.800 93.450,358.260 93.212,357.600 93.115 C 356.940 93.018,356.400 93.059,356.400 93.206 C 356.400 93.353,355.688 93.687,354.818 93.947 C 351.396 94.973,350.221 96.913,349.824 102.200 C 349.600 105.180,349.336 106.711,348.170 111.800 C 345.393 123.923,350.137 133.960,360.600 138.095 L 362.200 138.727 361.042 139.176 C 356.405 140.971,347.893 140.520,342.000 138.166 C 339.048 136.987,332.884 133.446,332.000 132.421 C 330.077 130.191,326.412 128.000,324.606 128.000 C 322.370 128.000,318.800 130.553,318.800 132.153 C 318.800 133.636,310.072 144.769,306.100 148.353 C 302.456 151.641,302.094 151.589,300.204 147.502 C 297.542 141.748,296.086 136.612,294.827 128.530 C 294.024 123.376,293.528 122.424,291.005 121.202 C 289.021 120.242,289.395 120.211,283.600 121.827 C 271.911 125.086,261.275 123.592,253.700 117.624 C 251.888 116.197,251.950 116.151,256.100 115.870 C 266.894 115.141,272.984 109.193,275.597 96.830 C 277.437 88.122,277.736 87.119,279.906 82.400 C 284.091 73.296,293.633 65.827,305.000 62.756 C 307.672 62.035,317.917 62.033,320.600 62.754 C 329.527 65.152,334.639 68.160,340.630 74.537 C 344.470 78.625,345.977 79.292,349.022 78.254 C 350.552 77.733,351.046 77.703,351.539 78.103 C 351.956 78.440,352.063 78.450,351.873 78.132 C 351.719 77.875,351.819 77.418,352.096 77.117 C 353.216 75.899,353.600 74.696,353.600 72.405 C 353.600 71.068,353.422 70.000,353.200 70.000 C 352.980 70.000,352.800 69.731,352.800 69.402 C 352.800 69.073,351.900 67.858,350.800 66.702 C 349.700 65.546,348.665 64.458,348.500 64.284 C 348.335 64.110,347.075 62.912,345.700 61.623 C 344.325 60.333,343.200 59.080,343.200 58.839 C 343.200 58.598,343.020 58.400,342.800 58.400 C 342.580 58.400,342.400 58.040,342.400 57.600 C 342.400 57.160,342.236 56.800,342.035 56.800 C 341.834 56.800,341.549 56.080,341.400 55.200 C 341.251 54.320,340.998 53.600,340.837 53.600 C 340.676 53.600,340.300 52.700,340.000 51.600 C 339.700 50.500,339.347 49.600,339.215 49.600 C 339.083 49.600,338.725 48.745,338.420 47.700 C 337.888 45.876,337.684 45.362,336.800 43.605 C 336.580 43.168,336.400 42.273,336.400 41.616 L 336.400 40.422 348.900 40.256 C 361.343 40.090,365.056 39.849,365.780 39.161 C 365.989 38.963,366.484 38.800,366.880 38.800 C 367.276 38.800,367.600 38.620,367.600 38.400 C 367.600 38.180,367.960 38.000,368.400 38.000 C 368.840 38.000,369.200 37.820,369.200 37.600 C 369.200 37.380,369.520 37.200,369.912 37.200 C 370.303 37.200,370.883 36.840,371.200 36.400 C 371.517 35.960,371.972 35.600,372.210 35.600 C 372.848 35.600,375.200 33.059,375.200 32.369 C 375.200 32.043,375.560 31.517,376.000 31.200 C 376.440 30.883,376.800 30.303,376.800 29.912 C 376.800 29.520,376.980 29.200,377.200 29.200 C 377.420 29.200,377.600 28.840,377.600 28.400 C 377.600 27.960,377.780 27.600,378.000 27.600 C 378.220 27.600,378.400 27.060,378.400 26.400 C 378.400 25.740,378.580 25.200,378.800 25.200 C 379.048 25.200,379.200 23.000,379.200 19.400 C 379.200 15.800,379.048 13.600,378.800 13.600 C 378.580 13.600,378.400 13.060,378.400 12.400 C 378.400 11.740,378.220 11.200,378.000 11.200 C 377.780 11.200,377.600 10.840,377.600 10.400 C 377.600 9.960,377.420 9.600,377.200 9.600 C 376.980 9.600,376.800 9.370,376.800 9.088 C 376.800 8.807,376.440 8.317,376.000 8.000 C 375.560 7.683,375.200 7.187,375.200 6.898 C 375.200 6.331,372.635 3.600,372.102 3.600 C 371.923 3.600,371.517 3.240,371.200 2.800 C 370.883 2.360,370.303 2.000,369.912 2.000 C 369.520 2.000,369.200 1.820,369.200 1.600 C 369.200 1.380,368.855 1.200,368.433 1.200 C 368.012 1.200,367.592 0.975,367.500 0.700 C 367.339 0.217,307.646 -0.177,304.100 0.282 M362.677 12.736 C 367.245 15.070,368.403 20.588,365.151 24.532 C 362.797 27.388,364.075 27.255,337.200 27.455 C 323.890 27.554,312.454 27.718,311.787 27.819 C 307.811 28.423,306.088 34.028,308.893 37.237 C 310.440 39.007,311.234 39.200,316.958 39.200 L 322.369 39.200 322.806 40.900 C 323.289 42.780,325.469 49.994,325.870 51.039 C 326.085 51.599,325.913 51.669,324.762 51.489 C 313.853 49.783,308.756 49.813,301.800 51.625 C 298.487 52.488,298.133 52.282,298.746 49.849 C 299.035 48.700,299.202 43.574,299.205 35.723 C 299.212 17.890,300.567 14.558,308.800 12.142 C 312.281 11.121,360.557 11.653,362.677 12.736 M261.296 133.567 C 266.841 135.030,271.372 135.327,277.235 134.611 C 280.131 134.257,282.600 134.066,282.721 134.187 C 282.899 134.366,280.204 142.110,278.818 145.400 C 278.492 146.174,277.899 147.566,276.558 150.700 C 271.876 161.647,263.569 177.929,260.353 182.462 C 259.939 183.046,259.600 183.641,259.600 183.784 C 259.600 183.927,258.920 185.069,258.089 186.322 C 257.258 187.575,256.328 189.095,256.022 189.700 C 255.715 190.305,255.315 190.800,255.132 190.800 C 254.950 190.800,254.800 191.070,254.800 191.400 C 254.800 192.485,253.332 192.028,251.551 190.390 C 249.387 188.400,243.716 184.583,241.400 183.559 C 239.367 182.660,238.495 181.339,236.843 176.658 C 231.181 160.616,238.006 142.929,253.182 134.313 C 256.200 132.600,257.262 132.502,261.296 133.567 M329.200 144.396 C 331.538 145.944,338.021 149.200,338.766 149.200 C 339.011 149.200,339.523 149.356,339.905 149.547 C 340.287 149.738,341.410 150.145,342.400 150.451 L 344.200 151.008 344.098 157.204 C 343.867 171.193,341.555 192.270,338.812 205.400 C 338.628 206.280,338.272 207.990,338.019 209.200 C 337.449 211.937,336.856 214.574,336.400 216.400 C 336.208 217.170,335.842 218.700,335.587 219.800 C 335.332 220.900,334.982 222.250,334.808 222.800 C 334.635 223.350,334.298 224.520,334.059 225.400 C 331.733 233.989,326.986 247.900,324.300 254.000 C 323.864 254.990,323.277 256.340,322.996 257.000 C 307.769 292.741,282.424 323.411,250.494 344.735 C 244.499 348.740,238.612 352.400,238.169 352.400 C 238.034 352.400,237.446 352.736,236.862 353.146 C 233.319 355.636,206.218 368.800,204.634 368.800 C 204.373 368.800,203.989 368.953,203.780 369.140 C 203.571 369.327,202.590 369.792,201.600 370.173 C 200.610 370.554,199.170 371.139,198.400 371.474 C 196.485 372.305,195.762 372.590,193.100 373.561 C 191.835 374.022,189.765 374.778,188.500 375.239 C 187.235 375.700,185.840 376.233,185.400 376.421 C 182.863 377.511,166.960 382.182,161.600 383.411 C 144.892 387.246,136.986 388.201,122.000 388.198 C 109.376 388.195,99.274 387.054,91.800 384.788 C 91.140 384.588,89.340 384.048,87.800 383.589 C 66.019 377.094,46.846 362.109,34.769 342.144 C 32.099 337.731,32.223 335.707,35.200 335.101 C 35.750 334.989,38.540 334.430,41.400 333.858 C 47.552 332.629,50.100 332.090,52.000 331.620 C 52.770 331.429,54.390 331.069,55.600 330.820 C 56.810 330.570,58.430 330.200,59.200 329.997 C 60.973 329.530,68.549 327.634,70.400 327.195 C 71.706 326.886,76.664 325.572,79.400 324.811 C 87.443 322.574,104.027 317.222,109.800 315.000 C 111.340 314.408,113.590 313.563,114.800 313.123 C 117.412 312.172,118.751 311.633,119.695 311.153 C 120.077 310.959,120.574 310.800,120.799 310.800 C 121.024 310.800,122.017 310.440,123.004 310.000 C 123.992 309.560,125.608 308.840,126.596 308.400 C 127.583 307.960,128.482 307.600,128.593 307.600 C 128.773 307.600,131.404 306.437,139.000 303.001 C 145.368 300.119,157.612 293.865,162.321 291.087 C 163.708 290.269,164.917 289.600,165.007 289.600 C 165.470 289.600,178.099 281.812,184.200 277.763 C 201.868 266.040,224.718 246.922,225.941 242.838 C 227.720 236.900,220.214 233.666,215.593 238.381 C 214.686 239.307,209.979 243.630,208.386 245.000 C 207.619 245.660,206.028 247.055,204.852 248.100 C 202.154 250.497,202.565 250.628,199.346 246.352 C 195.796 241.636,194.649 240.461,190.607 237.400 C 187.397 234.969,186.956 234.342,186.385 231.394 C 185.138 224.958,186.100 216.890,188.827 210.904 C 189.252 209.972,189.600 209.109,189.600 208.986 C 189.600 205.215,204.933 192.000,209.309 192.000 C 209.601 192.000,210.011 191.849,210.220 191.664 C 210.740 191.205,214.380 190.449,218.000 190.047 C 224.691 189.305,233.694 191.425,238.924 194.974 C 239.755 195.538,240.574 196.000,240.743 196.000 C 241.267 196.000,247.200 201.639,247.196 202.133 C 247.193 202.390,246.464 203.500,245.575 204.600 C 244.686 205.700,243.395 207.410,242.706 208.400 C 242.017 209.390,241.344 210.290,241.212 210.400 C 240.595 210.913,236.009 216.765,235.253 218.005 C 232.456 222.594,237.523 228.173,242.317 225.782 C 243.381 225.251,244.558 224.023,247.600 220.272 C 247.930 219.866,248.536 219.143,248.947 218.666 C 250.078 217.355,257.190 207.751,259.215 204.800 C 260.197 203.370,261.112 202.110,261.249 202.000 C 261.386 201.890,262.237 200.630,263.141 199.200 C 264.044 197.770,264.967 196.383,265.192 196.117 C 265.416 195.851,265.600 195.526,265.600 195.395 C 265.600 195.264,266.293 194.131,267.141 192.878 C 267.988 191.625,269.861 188.530,271.303 186.000 C 272.746 183.470,274.393 180.590,274.963 179.600 C 276.862 176.306,284.678 160.265,286.615 155.687 C 288.813 150.494,288.855 150.481,290.862 154.367 C 295.986 164.288,302.422 165.591,311.841 158.614 C 312.776 157.921,312.998 158.794,313.135 163.706 C 313.632 181.517,304.571 196.355,288.289 204.392 C 282.801 207.102,281.515 211.022,285.005 214.404 C 287.479 216.803,290.602 216.302,297.398 212.417 C 318.315 200.459,328.955 175.260,322.974 151.842 L 322.044 148.200 323.073 146.600 C 325.066 143.502,326.048 142.383,326.526 142.662 C 326.787 142.815,327.990 143.595,329.200 144.396 M265.981 209.701 C 263.264 211.532,262.955 212.664,263.728 217.964 C 266.962 240.157,254.722 259.657,233.180 266.631 C 229.429 267.845,227.851 269.134,227.441 271.321 C 226.554 276.049,230.968 279.441,235.681 277.651 C 236.187 277.459,237.320 277.087,238.200 276.825 C 242.038 275.679,247.358 273.034,251.768 270.079 C 266.941 259.912,276.212 241.747,275.490 223.600 C 274.981 210.789,271.631 205.894,265.981 209.701 M167.167 239.215 C 170.028 239.667,172.430 240.259,174.000 240.899 C 174.550 241.123,175.360 241.448,175.800 241.620 C 178.438 242.652,179.200 243.028,179.200 243.298 C 179.200 243.464,179.390 243.600,179.622 243.600 C 181.509 243.600,191.600 252.998,191.600 254.756 C 191.600 255.000,191.735 255.201,191.900 255.203 C 193.032 255.215,193.185 257.435,192.114 258.305 C 186.254 263.066,159.215 280.800,157.815 280.800 C 157.720 280.800,156.598 281.408,155.321 282.151 C 150.513 284.950,138.748 290.755,138.263 290.569 C 137.985 290.462,137.451 289.855,137.075 289.220 C 135.918 287.260,132.755 283.526,129.913 280.763 L 127.200 278.125 127.200 274.268 C 127.200 272.147,127.398 269.554,127.641 268.506 C 128.510 264.746,128.884 263.389,129.239 262.705 C 129.438 262.323,129.600 261.826,129.600 261.601 C 129.600 259.742,134.058 252.833,137.471 249.403 C 141.114 245.742,148.121 241.200,150.126 241.200 C 150.471 241.200,150.851 241.041,150.971 240.846 C 151.092 240.651,151.687 240.391,152.295 240.268 C 152.903 240.144,154.660 239.788,156.200 239.476 C 159.684 238.769,163.732 238.673,167.167 239.215 M209.800 268.668 C 207.030 269.408,205.600 272.073,205.600 276.494 C 205.600 277.872,205.324 280.260,204.986 281.800 C 204.649 283.340,204.264 285.189,204.132 285.910 C 204.000 286.630,203.736 287.316,203.546 287.433 C 203.356 287.551,203.200 287.938,203.200 288.293 C 203.200 291.883,194.787 303.775,189.391 307.810 C 188.516 308.465,187.450 309.317,187.021 309.704 C 184.180 312.268,174.597 315.997,168.787 316.800 C 163.628 317.513,163.523 317.550,161.909 319.247 C 157.676 323.698,161.752 329.424,168.400 328.365 C 182.775 326.076,192.645 321.169,201.716 311.800 C 203.469 309.990,208.400 303.821,208.400 303.439 C 208.400 303.352,209.080 302.138,209.910 300.741 C 211.364 298.296,211.939 297.153,212.800 295.000 C 213.020 294.450,213.364 293.595,213.564 293.100 C 216.231 286.501,217.889 274.946,216.609 271.882 C 215.590 269.444,212.447 267.961,209.800 268.668 M144.814 309.937 C 142.715 311.062,141.987 312.897,141.578 318.088 C 140.324 334.011,131.131 347.236,116.574 354.057 C 114.764 354.906,113.004 355.600,112.665 355.600 C 112.325 355.600,111.948 355.760,111.827 355.956 C 111.706 356.151,111.021 356.412,110.304 356.534 C 109.587 356.656,108.100 356.960,107.000 357.210 C 97.089 359.464,86.005 357.452,75.560 351.503 C 67.178 346.730,61.261 355.576,69.296 360.867 C 93.443 376.769,127.301 369.656,143.882 345.198 C 146.269 341.677,147.242 339.813,149.621 334.200 C 151.434 329.922,153.181 321.148,153.193 316.254 C 153.207 310.598,149.206 307.581,144.814 309.937 " stroke="none" fill="#040504" fill-rule="evenodd"></path><path id="path4" d="M320.528 11.900 C 326.208 11.962,335.388 11.962,340.928 11.900 C 346.468 11.837,341.820 11.786,330.600 11.786 C 319.380 11.786,314.848 11.837,320.528 11.900 M366.893 19.600 C 366.893 20.370,366.975 20.685,367.076 20.300 C 367.176 19.915,367.176 19.285,367.076 18.900 C 366.975 18.515,366.893 18.830,366.893 19.600 M299.377 34.200 C 299.377 40.580,299.432 43.134,299.499 39.876 C 299.567 36.617,299.566 31.397,299.499 28.276 C 299.431 25.154,299.376 27.820,299.377 34.200 M321.472 27.500 C 326.792 27.563,335.612 27.563,341.072 27.500 C 346.533 27.437,342.180 27.385,331.400 27.385 C 320.620 27.385,316.153 27.437,321.472 27.500 M314.917 39.497 C 316.411 39.574,318.751 39.574,320.117 39.496 C 321.482 39.418,320.260 39.355,317.400 39.355 C 314.540 39.356,313.422 39.420,314.917 39.497 M309.505 50.283 C 310.002 50.379,310.722 50.375,311.105 50.275 C 311.487 50.175,311.080 50.096,310.200 50.101 C 309.320 50.105,309.007 50.187,309.505 50.283 M298.526 51.169 C 298.567 51.701,298.870 52.210,299.200 52.299 C 299.596 52.406,299.646 52.349,299.346 52.130 C 299.097 51.949,298.793 51.440,298.672 51.000 C 298.499 50.369,298.468 50.405,298.526 51.169 M310.300 62.282 C 310.795 62.378,311.605 62.378,312.100 62.282 C 312.595 62.187,312.190 62.109,311.200 62.109 C 310.210 62.109,309.805 62.187,310.300 62.282 M313.905 62.283 C 314.402 62.379,315.122 62.375,315.505 62.275 C 315.887 62.175,315.480 62.096,314.600 62.101 C 313.720 62.105,313.407 62.187,313.905 62.283 M252.400 116.376 C 252.400 116.583,252.608 116.881,252.862 117.038 C 253.140 117.210,253.215 117.148,253.051 116.883 C 252.870 116.590,253.483 116.393,254.890 116.295 L 257.000 116.148 254.700 116.074 C 253.435 116.033,252.400 116.169,252.400 116.376 M346.924 119.000 C 346.926 120.320,347.001 120.812,347.090 120.093 C 347.179 119.374,347.177 118.294,347.086 117.693 C 346.995 117.092,346.922 117.680,346.924 119.000 M268.705 123.483 C 269.202 123.579,269.922 123.575,270.305 123.475 C 270.687 123.375,270.280 123.296,269.400 123.301 C 268.520 123.305,268.207 123.387,268.705 123.483 M273.905 123.483 C 274.402 123.579,275.122 123.575,275.505 123.475 C 275.887 123.375,275.480 123.296,274.600 123.301 C 273.720 123.305,273.407 123.387,273.905 123.483 M253.182 134.313 C 243.225 139.966,234.971 152.166,235.243 160.826 C 235.274 161.786,235.443 161.357,235.807 159.400 C 237.947 147.876,246.427 137.014,256.159 133.330 C 257.040 132.997,257.168 132.856,256.600 132.844 C 256.160 132.835,254.622 133.496,253.182 134.313 M257.702 133.035 C 258.335 133.668,265.959 135.206,268.200 135.152 C 269.882 135.112,269.627 135.025,266.600 134.611 C 264.620 134.340,261.982 133.821,260.738 133.459 C 258.408 132.780,257.291 132.624,257.702 133.035 M277.400 134.623 L 273.800 135.141 277.000 135.002 C 278.760 134.926,280.605 134.738,281.100 134.585 C 282.038 134.295,282.443 135.712,281.682 136.620 C 281.507 136.829,281.135 137.720,280.855 138.600 C 280.333 140.243,280.078 140.921,279.200 143.000 C 278.639 144.328,278.053 145.780,277.587 147.000 C 275.305 152.972,268.540 167.156,264.661 174.100 C 264.078 175.145,263.175 176.765,262.657 177.700 C 261.442 179.890,257.824 185.895,255.789 189.100 C 254.006 191.910,253.737 192.025,252.370 190.565 C 250.831 188.924,246.479 185.840,243.020 183.941 C 239.791 182.168,238.451 180.546,237.442 177.187 C 236.586 174.335,236.290 173.157,235.786 170.600 L 235.235 167.800 235.429 170.500 C 235.828 176.078,238.704 182.366,241.400 183.559 C 243.716 184.583,249.387 188.400,251.551 190.390 C 253.332 192.028,254.800 192.485,254.800 191.400 C 254.800 191.070,254.950 190.800,255.132 190.800 C 255.315 190.800,255.715 190.305,256.022 189.700 C 256.328 189.095,257.258 187.575,258.089 186.322 C 258.920 185.069,259.600 183.927,259.600 183.784 C 259.600 183.641,259.939 183.046,260.353 182.462 C 263.569 177.929,271.876 161.647,276.558 150.700 C 278.008 147.311,278.498 146.161,278.816 145.400 C 279.788 143.076,282.800 134.769,282.800 134.413 C 282.800 133.919,282.110 133.946,277.400 134.623 M351.900 140.289 C 352.615 140.378,353.785 140.378,354.500 140.289 C 355.215 140.201,354.630 140.128,353.200 140.128 C 351.770 140.128,351.185 140.201,351.900 140.289 M325.077 143.693 C 324.541 144.412,323.640 145.720,323.073 146.600 L 322.044 148.200 322.974 151.842 C 328.955 175.260,318.315 200.459,297.398 212.417 C 292.921 214.977,290.738 215.801,288.500 215.779 C 281.468 215.708,281.322 207.832,288.289 204.392 C 304.571 196.355,313.632 181.517,313.135 163.706 C 312.998 158.794,312.776 157.921,311.841 158.614 C 302.422 165.591,295.986 164.288,290.862 154.367 C 288.855 150.481,288.813 150.494,286.615 155.687 C 284.678 160.265,276.862 176.306,274.963 179.600 C 274.393 180.590,272.746 183.470,271.303 186.000 C 269.861 188.530,267.988 191.625,267.141 192.878 C 266.293 194.131,265.600 195.264,265.600 195.395 C 265.600 195.526,265.416 195.851,265.192 196.117 C 264.967 196.383,264.044 197.770,263.141 199.200 C 262.237 200.630,261.386 201.890,261.249 202.000 C 261.112 202.110,260.197 203.370,259.215 204.800 C 257.190 207.751,250.078 217.355,248.947 218.666 C 248.536 219.143,247.930 219.866,247.600 220.272 C 243.360 225.500,242.219 226.401,239.839 226.399 C 238.217 226.397,236.191 225.133,235.198 223.504 C 234.761 222.787,234.402 222.453,234.401 222.762 C 234.399 223.591,236.348 226.000,237.020 226.000 C 237.339 226.000,237.600 226.180,237.600 226.400 C 237.600 227.035,241.349 226.864,242.751 226.164 C 244.541 225.272,254.561 212.654,260.830 203.400 C 262.022 201.640,263.229 199.956,263.512 199.658 C 263.795 199.360,264.386 198.460,264.827 197.658 C 265.267 196.856,266.116 195.446,266.714 194.525 C 268.231 192.185,272.103 185.757,273.293 183.600 C 273.840 182.610,274.705 181.080,275.215 180.200 C 277.006 177.112,283.057 164.951,285.167 160.200 C 286.339 157.560,287.546 154.877,287.849 154.239 C 288.152 153.600,288.400 152.840,288.400 152.551 C 288.400 151.503,289.421 152.467,290.320 154.364 C 294.940 164.116,303.306 166.406,310.826 159.975 L 312.200 158.801 312.517 160.700 C 312.885 162.903,312.531 172.035,312.009 173.800 C 311.814 174.460,311.441 175.810,311.182 176.800 C 310.463 179.535,309.746 181.323,307.891 185.000 C 304.022 192.672,297.672 198.906,289.283 203.270 C 283.463 206.297,282.583 207.373,282.890 211.078 C 284.109 225.783,313.133 206.816,321.003 186.171 C 321.584 184.647,322.226 183.087,322.430 182.705 C 322.633 182.323,322.800 181.569,322.800 181.029 C 322.800 180.489,322.960 179.948,323.156 179.827 C 323.351 179.706,323.614 179.021,323.740 178.304 C 323.865 177.587,324.194 175.740,324.471 174.200 C 324.748 172.660,324.975 168.610,324.975 165.200 C 324.975 161.790,324.748 157.740,324.471 156.200 C 324.194 154.660,323.865 152.813,323.740 152.096 C 323.614 151.379,323.351 150.694,323.156 150.573 C 322.711 150.298,322.683 147.315,323.123 147.133 C 323.301 147.060,324.030 146.145,324.743 145.100 C 326.295 142.824,325.936 142.857,328.722 144.739 C 331.651 146.719,336.998 149.259,340.735 150.447 L 343.670 151.380 343.435 159.190 C 342.987 174.082,341.443 187.927,338.437 204.000 C 336.750 213.020,331.914 232.210,330.753 234.495 C 330.559 234.877,330.400 235.516,330.400 235.915 C 330.400 236.314,330.251 236.811,330.070 237.020 C 329.888 237.229,329.507 238.210,329.224 239.200 C 328.686 241.081,328.150 242.521,327.553 243.695 C 327.359 244.077,327.200 244.664,327.200 245.000 C 327.200 245.336,327.041 245.923,326.847 246.305 C 326.473 247.040,325.724 248.799,325.146 250.300 C 324.783 251.244,324.249 252.587,323.635 254.100 C 321.718 258.823,313.716 275.087,311.580 278.600 C 310.912 279.700,310.262 280.915,310.136 281.300 C 310.010 281.685,309.748 282.000,309.553 282.000 C 309.359 282.000,309.200 282.184,309.200 282.409 C 309.200 283.880,294.359 304.458,289.400 309.863 C 277.938 322.355,268.868 330.781,259.431 337.703 C 257.874 338.845,256.510 339.894,256.400 340.033 C 255.983 340.561,241.700 349.853,239.600 350.963 C 238.390 351.603,236.950 352.436,236.400 352.816 C 235.493 353.441,229.633 356.596,225.919 358.458 C 225.105 358.866,224.250 359.200,224.019 359.200 C 223.789 359.200,223.600 359.380,223.600 359.600 C 223.600 359.820,223.411 360.000,223.179 360.000 C 222.948 360.000,220.743 360.967,218.279 362.149 C 211.304 365.495,203.428 368.931,197.600 371.170 C 192.609 373.087,192.684 373.058,191.600 373.506 C 191.050 373.733,189.970 374.136,189.200 374.400 C 188.430 374.664,187.440 375.024,187.000 375.200 C 186.560 375.376,185.570 375.736,184.800 376.000 C 184.030 376.264,183.040 376.621,182.600 376.793 C 182.160 376.964,180.450 377.508,178.800 378.000 C 177.150 378.492,175.440 379.039,175.000 379.214 C 174.560 379.390,173.750 379.650,173.200 379.794 C 172.650 379.937,171.570 380.234,170.800 380.454 C 170.030 380.673,168.770 381.009,168.000 381.200 C 167.230 381.391,165.880 381.739,165.000 381.974 C 160.947 383.055,151.841 384.969,147.600 385.630 C 141.479 386.584,139.452 386.832,133.200 387.392 C 121.388 388.450,110.768 387.916,98.074 385.624 C 93.832 384.858,84.375 382.134,81.300 380.793 C 80.805 380.577,79.995 380.242,79.500 380.049 C 77.210 379.156,70.997 376.178,68.741 374.892 C 55.220 367.183,43.308 355.315,34.674 340.948 C 31.983 336.470,32.347 336.135,41.978 334.228 C 46.035 333.424,51.795 332.213,54.778 331.537 C 57.760 330.860,60.920 330.150,61.800 329.959 C 62.680 329.768,64.120 329.417,65.000 329.179 C 65.880 328.941,67.230 328.591,68.000 328.400 C 68.770 328.209,70.120 327.849,71.000 327.600 C 71.880 327.351,73.230 326.991,74.000 326.800 C 74.770 326.609,76.030 326.271,76.800 326.049 C 77.570 325.827,78.875 325.455,79.700 325.223 C 80.525 324.990,81.875 324.605,82.700 324.367 C 83.525 324.129,84.697 323.838,85.305 323.721 C 85.913 323.604,86.508 323.349,86.629 323.154 C 86.749 322.959,87.198 322.800,87.627 322.800 C 88.616 322.800,104.929 317.398,111.836 314.782 C 114.716 313.692,117.193 312.800,117.341 312.800 C 117.488 312.800,118.462 312.422,119.504 311.960 C 120.547 311.498,121.760 310.982,122.200 310.814 C 123.513 310.311,126.032 309.258,129.300 307.847 C 130.125 307.491,131.385 306.949,132.100 306.642 C 138.985 303.688,153.826 296.495,158.200 293.992 C 159.080 293.488,160.700 292.592,161.800 292.000 C 165.044 290.254,166.931 289.155,168.062 288.353 C 168.646 287.939,169.233 287.600,169.366 287.600 C 170.117 287.600,191.272 273.797,191.533 273.136 C 191.607 272.951,191.830 272.800,192.030 272.800 C 192.336 272.800,194.249 271.469,196.808 269.474 C 197.142 269.213,198.852 267.933,200.608 266.629 C 202.364 265.325,203.890 264.151,204.000 264.019 C 204.110 263.887,205.007 263.154,205.993 262.390 C 206.979 261.625,208.239 260.604,208.793 260.119 C 209.347 259.635,211.330 257.947,213.200 256.370 C 227.644 244.185,229.723 240.340,223.940 236.513 C 220.607 234.307,218.652 234.969,212.941 240.235 C 210.774 242.235,208.192 244.575,207.205 245.435 C 206.218 246.296,204.868 247.494,204.205 248.098 C 202.518 249.636,202.375 249.572,199.775 246.100 C 197.017 242.419,193.626 239.006,190.275 236.539 C 186.817 233.994,185.444 227.325,186.788 219.600 C 187.036 218.170,187.341 216.413,187.464 215.696 C 187.587 214.979,187.849 214.294,188.044 214.173 C 188.240 214.052,188.400 213.691,188.400 213.372 C 188.400 212.255,190.824 207.629,193.098 204.405 C 196.618 199.414,204.631 193.653,210.200 192.109 C 211.080 191.866,212.610 191.426,213.600 191.133 C 220.952 188.958,233.421 191.530,240.941 196.775 C 243.896 198.836,246.933 201.953,246.521 202.502 C 246.316 202.776,245.148 204.350,243.926 206.000 C 242.705 207.650,240.243 210.800,238.455 213.000 C 234.774 217.529,233.979 218.950,234.050 220.860 C 234.098 222.141,234.112 222.127,234.370 220.552 C 234.519 219.645,234.976 218.385,235.386 217.752 C 236.116 216.626,240.735 210.796,241.212 210.400 C 241.344 210.290,242.017 209.390,242.706 208.400 C 243.395 207.410,244.686 205.700,245.575 204.600 C 246.464 203.500,247.193 202.390,247.196 202.133 C 247.200 201.639,241.267 196.000,240.743 196.000 C 240.574 196.000,239.755 195.538,238.924 194.974 C 233.694 191.425,224.691 189.305,218.000 190.047 C 214.380 190.449,210.740 191.205,210.220 191.664 C 210.011 191.849,209.601 192.000,209.309 192.000 C 204.933 192.000,189.600 205.215,189.600 208.986 C 189.600 209.109,189.252 209.972,188.827 210.904 C 186.100 216.890,185.138 224.958,186.385 231.394 C 186.956 234.342,187.397 234.969,190.607 237.400 C 194.649 240.461,195.796 241.636,199.346 246.352 C 202.565 250.628,202.154 250.497,204.852 248.100 C 206.028 247.055,207.619 245.660,208.386 245.000 C 209.979 243.630,214.686 239.307,215.593 238.381 C 220.214 233.666,227.720 236.900,225.941 242.838 C 224.718 246.922,201.868 266.040,184.200 277.763 C 178.099 281.812,165.470 289.600,165.007 289.600 C 164.917 289.600,163.708 290.269,162.321 291.087 C 157.612 293.865,145.368 300.119,139.000 303.001 C 131.404 306.437,128.773 307.600,128.593 307.600 C 128.482 307.600,127.583 307.960,126.596 308.400 C 125.608 308.840,123.992 309.560,123.004 310.000 C 122.017 310.440,121.024 310.800,120.799 310.800 C 120.574 310.800,120.077 310.959,119.695 311.153 C 118.751 311.633,117.412 312.172,114.800 313.123 C 113.590 313.563,111.340 314.408,109.800 315.000 C 104.027 317.222,87.443 322.574,79.400 324.811 C 76.664 325.572,71.706 326.886,70.400 327.195 C 68.549 327.634,60.973 329.530,59.200 329.997 C 58.430 330.200,56.810 330.570,55.600 330.820 C 54.390 331.069,52.770 331.429,52.000 331.620 C 50.100 332.090,47.552 332.629,41.400 333.858 C 38.540 334.430,35.750 334.989,35.200 335.101 C 32.223 335.707,32.099 337.731,34.769 342.144 C 46.846 362.109,66.019 377.094,87.800 383.589 C 89.340 384.048,91.140 384.588,91.800 384.788 C 99.274 387.054,109.376 388.195,122.000 388.198 C 136.986 388.201,144.892 387.246,161.600 383.411 C 166.960 382.182,182.863 377.511,185.400 376.421 C 185.840 376.233,187.235 375.700,188.500 375.239 C 189.765 374.778,191.835 374.022,193.100 373.561 C 195.762 372.590,196.485 372.305,198.400 371.474 C 199.170 371.139,200.610 370.554,201.600 370.173 C 202.590 369.792,203.571 369.327,203.780 369.140 C 203.989 368.953,204.373 368.800,204.634 368.800 C 206.218 368.800,233.319 355.636,236.862 353.146 C 237.446 352.736,238.034 352.400,238.169 352.400 C 238.612 352.400,244.499 348.740,250.494 344.735 C 282.424 323.411,307.769 292.741,322.996 257.000 C 323.277 256.340,323.864 254.990,324.300 254.000 C 326.986 247.900,331.733 233.989,334.059 225.400 C 334.298 224.520,334.635 223.350,334.808 222.800 C 334.982 222.250,335.332 220.900,335.587 219.800 C 335.842 218.700,336.208 217.170,336.400 216.400 C 336.856 214.574,337.449 211.937,338.019 209.200 C 338.272 207.990,338.628 206.280,338.812 205.400 C 341.555 192.270,343.867 171.193,344.098 157.204 L 344.200 151.008 342.400 150.451 C 341.410 150.145,340.287 149.738,339.905 149.547 C 339.523 149.356,339.011 149.200,338.766 149.200 C 338.021 149.200,331.538 145.944,329.200 144.396 C 327.990 143.595,326.787 142.815,326.526 142.662 C 326.246 142.499,325.653 142.921,325.077 143.693 M307.986 146.300 L 305.800 148.600 308.100 146.414 C 309.365 145.211,310.400 144.176,310.400 144.114 C 310.400 143.817,310.018 144.163,307.986 146.300 M234.928 165.200 C 234.928 166.630,235.001 167.215,235.089 166.500 C 235.178 165.785,235.178 164.615,235.089 163.900 C 235.001 163.185,234.928 163.770,234.928 165.200 M265.130 209.597 C 263.290 211.114,262.330 213.704,262.805 215.869 C 264.119 221.857,264.200 225.478,263.163 231.800 C 262.946 233.120,262.667 234.876,262.542 235.703 C 262.417 236.529,262.155 237.305,261.958 237.426 C 261.761 237.548,261.600 237.999,261.600 238.429 C 261.600 238.859,261.439 239.523,261.242 239.905 C 261.045 240.287,260.287 241.860,259.558 243.400 C 256.964 248.877,252.897 254.185,248.603 257.698 C 244.977 260.664,244.803 260.800,244.636 260.800 C 244.551 260.800,243.297 261.520,241.848 262.400 C 240.400 263.280,239.029 264.000,238.802 264.000 C 238.575 264.000,238.077 264.159,237.695 264.353 C 236.465 264.979,235.039 265.535,233.400 266.029 C 230.309 266.961,229.681 267.269,228.478 268.445 C 224.380 272.452,228.214 279.466,234.000 278.547 C 238.823 277.782,251.835 271.720,254.000 269.230 C 254.110 269.104,255.100 268.284,256.200 267.408 C 263.406 261.674,270.673 251.088,273.229 242.600 C 273.494 241.720,273.847 240.640,274.014 240.200 C 274.180 239.760,274.503 238.410,274.732 237.200 C 274.961 235.990,275.340 234.041,275.574 232.869 C 276.112 230.177,276.130 219.399,275.600 217.006 C 275.380 216.013,275.018 214.345,274.795 213.300 C 273.840 208.814,268.542 206.785,265.130 209.597 M271.801 209.700 C 273.522 210.814,274.259 212.306,274.840 215.849 C 276.264 224.528,275.531 233.837,272.775 242.073 C 267.456 257.974,256.555 269.474,240.600 276.019 C 240.160 276.199,239.080 276.562,238.200 276.825 C 237.320 277.087,236.187 277.459,235.681 277.651 C 230.968 279.441,226.554 276.049,227.441 271.321 C 227.851 269.134,229.429 267.845,233.180 266.631 C 254.722 259.657,266.962 240.157,263.728 217.964 C 262.647 210.548,266.701 206.398,271.801 209.700 M156.200 239.476 C 154.660 239.788,152.903 240.144,152.295 240.268 C 151.687 240.391,151.092 240.651,150.971 240.846 C 150.851 241.041,150.471 241.200,150.126 241.200 C 148.121 241.200,141.114 245.742,137.471 249.403 C 134.058 252.833,129.600 259.742,129.600 261.601 C 129.600 261.826,129.438 262.323,129.239 262.705 C 128.884 263.389,128.510 264.746,127.641 268.506 C 127.398 269.554,127.200 272.147,127.200 274.268 L 127.200 278.125 129.913 280.763 C 132.755 283.526,135.918 287.260,137.075 289.220 C 137.451 289.855,137.985 290.462,138.263 290.569 C 138.748 290.755,150.513 284.950,155.321 282.151 C 156.598 281.408,157.720 280.800,157.815 280.800 C 158.481 280.800,176.800 269.354,176.800 268.938 C 176.800 268.703,176.236 269.038,170.300 272.796 C 165.024 276.137,163.953 276.770,163.100 277.058 C 162.715 277.187,162.400 277.452,162.400 277.647 C 162.400 277.841,162.230 278.000,162.021 278.000 C 161.813 278.000,160.508 278.669,159.121 279.487 C 153.501 282.802,139.503 290.000,138.677 290.000 C 138.367 290.000,137.435 288.978,136.606 287.729 C 135.776 286.480,133.456 283.761,131.449 281.686 L 127.800 277.914 127.818 274.057 C 127.868 262.920,133.186 252.345,141.848 246.153 C 144.409 244.323,149.437 241.620,150.305 241.607 C 150.583 241.603,151.123 241.438,151.505 241.239 C 157.741 237.998,170.655 239.085,178.800 243.536 C 184.453 246.625,192.400 254.532,192.400 257.068 C 192.400 257.611,186.335 262.207,180.880 265.800 C 178.875 267.120,177.227 268.356,177.218 268.546 C 177.195 268.986,178.110 268.390,185.200 263.340 C 193.630 257.337,193.329 257.618,192.714 256.303 C 192.431 255.700,192.065 255.205,191.900 255.203 C 191.735 255.201,191.600 255.000,191.600 254.756 C 191.600 252.998,181.509 243.600,179.622 243.600 C 179.390 243.600,179.200 243.464,179.200 243.298 C 179.200 243.028,178.438 242.652,175.800 241.620 C 175.360 241.448,174.550 241.123,174.000 240.899 C 169.166 238.927,161.809 238.339,156.200 239.476 M208.483 268.667 C 206.401 269.693,205.200 272.141,205.200 275.358 C 205.200 276.836,205.034 278.800,204.832 279.723 C 204.630 280.645,204.254 282.480,203.996 283.800 C 201.427 296.961,189.420 310.376,176.600 314.408 C 175.720 314.684,174.640 315.042,174.200 315.202 C 172.662 315.762,169.579 316.400,168.414 316.400 C 163.301 316.400,160.000 318.849,160.000 322.643 C 160.000 327.779,163.499 329.999,169.669 328.779 C 170.841 328.547,172.700 328.179,173.800 327.962 C 177.379 327.254,179.807 326.514,181.695 325.553 C 182.077 325.359,182.583 325.200,182.820 325.200 C 183.057 325.200,184.454 324.626,185.925 323.924 C 198.681 317.841,210.172 305.012,214.566 291.945 C 220.107 275.467,217.207 264.368,208.483 268.667 M214.790 269.593 C 217.223 271.325,217.580 273.460,216.600 280.400 C 215.787 286.158,214.944 289.685,213.564 293.100 C 213.364 293.595,213.020 294.450,212.800 295.000 C 211.939 297.153,211.364 298.296,209.910 300.741 C 209.080 302.138,208.400 303.352,208.400 303.439 C 208.400 303.821,203.469 309.990,201.716 311.800 C 192.645 321.169,182.775 326.076,168.400 328.365 C 161.752 329.424,157.676 323.698,161.909 319.247 C 163.523 317.550,163.628 317.513,168.787 316.800 C 174.597 315.997,184.180 312.268,187.021 309.704 C 187.450 309.317,188.516 308.465,189.391 307.810 C 194.787 303.775,203.200 291.883,203.200 288.293 C 203.200 287.938,203.356 287.551,203.546 287.433 C 203.736 287.316,204.000 286.630,204.132 285.910 C 204.264 285.189,204.649 283.340,204.986 281.800 C 205.324 280.260,205.600 277.872,205.600 276.494 C 205.600 269.762,210.189 266.316,214.790 269.593 M97.799 274.450 C 98.642 278.440,100.106 279.711,105.085 280.775 C 112.292 282.315,118.997 285.891,123.123 290.393 C 126.942 294.560,127.692 296.000,126.047 296.000 C 125.669 296.000,125.189 296.152,124.980 296.339 C 124.771 296.525,123.070 297.273,121.200 298.000 C 117.925 299.274,115.851 300.434,118.000 299.790 C 119.133 299.451,127.311 296.005,127.567 295.759 C 128.288 295.068,123.203 289.367,119.266 286.451 C 115.421 283.603,108.212 280.400,105.647 280.400 C 102.249 280.400,99.002 278.004,98.547 275.160 C 98.408 274.292,98.119 273.474,97.905 273.341 C 97.660 273.190,97.621 273.604,97.799 274.450 M81.212 277.600 C 81.212 277.930,81.387 278.470,81.600 278.800 C 81.945 279.333,81.988 279.333,81.988 278.800 C 81.988 278.470,81.813 277.930,81.600 277.600 C 81.255 277.067,81.212 277.067,81.212 277.600 M81.080 283.290 C 80.688 284.010,79.354 285.320,78.116 286.200 C 70.246 291.794,65.234 300.148,63.653 310.307 C 62.684 316.527,63.024 317.532,65.859 316.845 C 69.382 315.991,78.742 313.417,82.000 312.407 C 82.550 312.236,84.350 311.696,86.000 311.207 C 87.650 310.718,89.313 310.156,89.695 309.959 C 90.077 309.762,90.664 309.600,91.000 309.600 C 91.336 309.600,91.923 309.438,92.305 309.241 C 92.687 309.044,94.350 308.471,96.000 307.969 C 98.584 307.183,100.333 306.400,99.508 306.400 C 99.369 306.400,97.038 307.138,94.328 308.041 C 89.431 309.671,85.479 310.910,82.800 311.656 C 82.030 311.870,80.815 312.215,80.100 312.423 C 79.385 312.630,78.170 312.980,77.400 313.200 C 76.630 313.420,75.415 313.770,74.700 313.977 C 68.739 315.708,64.635 316.712,64.300 316.523 C 63.804 316.242,63.961 311.072,64.562 307.935 C 66.110 299.844,70.951 292.168,77.716 287.076 C 80.609 284.899,82.180 283.140,81.922 282.365 C 81.851 282.153,81.472 282.569,81.080 283.290 M114.200 300.780 C 113.320 301.188,111.294 302.017,109.698 302.625 C 108.101 303.232,106.872 303.805,106.966 303.899 C 107.159 304.092,113.465 301.771,115.600 300.720 C 117.489 299.791,116.220 299.846,114.200 300.780 M104.800 304.400 C 104.267 304.745,104.267 304.788,104.800 304.788 C 105.130 304.788,105.670 304.613,106.000 304.400 C 106.533 304.055,106.533 304.012,106.000 304.012 C 105.670 304.012,105.130 304.187,104.800 304.400 M101.675 305.473 C 100.726 305.809,100.038 306.171,100.145 306.278 C 100.369 306.502,103.210 305.596,103.780 305.118 C 104.333 304.655,103.674 304.766,101.675 305.473 M145.276 308.988 C 142.285 310.638,141.200 312.782,141.200 317.043 C 141.200 320.481,140.477 324.043,138.694 329.400 C 134.941 340.668,124.344 351.110,112.600 355.109 C 110.324 355.884,109.040 356.196,104.069 357.179 C 101.323 357.722,95.457 357.719,92.731 357.174 C 91.559 356.940,89.610 356.544,88.400 356.296 C 85.436 355.686,79.704 353.296,75.810 351.044 C 69.085 347.157,62.688 351.669,65.780 358.118 C 67.506 361.718,84.326 369.622,88.291 368.697 C 88.697 368.602,88.316 368.406,87.400 368.237 C 82.305 367.300,73.818 363.845,69.296 360.867 C 61.261 355.576,67.178 346.730,75.560 351.503 C 86.005 357.452,97.089 359.464,107.000 357.210 C 108.100 356.960,109.587 356.656,110.304 356.534 C 111.021 356.412,111.706 356.151,111.827 355.956 C 111.948 355.760,112.325 355.600,112.665 355.600 C 113.004 355.600,114.764 354.906,116.574 354.057 C 131.131 347.236,140.324 334.011,141.578 318.088 C 142.088 311.618,143.708 309.200,147.533 309.200 C 151.097 309.200,152.874 311.377,153.249 316.200 L 153.497 319.400 153.430 315.707 C 153.329 310.118,149.278 306.781,145.276 308.988 M152.611 322.300 C 152.160 325.988,150.789 331.444,149.621 334.200 C 147.242 339.813,146.269 341.677,143.882 345.198 C 136.476 356.123,125.196 364.171,112.600 367.518 C 108.449 368.621,108.179 368.717,109.125 368.759 C 110.207 368.807,116.682 366.995,119.000 365.996 C 122.660 364.419,124.693 363.393,126.272 362.328 C 127.192 361.707,128.103 361.200,128.297 361.200 C 128.491 361.200,128.998 360.880,129.425 360.489 C 129.851 360.098,130.830 359.336,131.600 358.796 C 141.231 352.042,149.498 339.445,152.249 327.334 C 152.917 324.389,153.423 320.000,153.094 320.000 C 152.983 320.000,152.766 321.035,152.611 322.300 M90.000 369.180 C 90.963 369.508,97.907 369.756,97.567 369.450 C 97.475 369.368,95.510 369.197,93.200 369.070 C 90.693 368.933,89.403 368.977,90.000 369.180 M102.200 369.200 L 99.800 369.466 103.000 369.493 C 104.760 369.508,106.650 369.376,107.200 369.200 C 108.453 368.799,105.827 368.799,102.200 369.200 " stroke="none" fill="#637e39" fill-rule="evenodd"></path></g></svg>