<svg id="svg" version="1.1" xmlns="http://www.w3.org/2000/svg" xmlns:xlink="http://www.w3.org/1999/xlink" width="400" height="400" viewBox="0, 0, 400,400"><g id="svgg"><path id="path0" d="M168.500 1.487 C 168.103 2.338,168.000 28.062,168.000 125.880 L 168.000 249.200 246.550 249.200 C 322.371 249.200,327.600 249.144,327.600 248.326 C 327.600 248.121,327.420 248.064,327.200 248.200 C 326.980 248.336,326.800 248.167,326.800 247.824 C 326.800 247.481,326.980 247.200,327.200 247.200 C 327.420 247.200,327.600 246.559,327.600 245.776 C 327.600 244.929,327.762 244.453,328.000 244.600 C 328.238 244.747,328.400 244.271,328.400 243.424 C 328.400 242.641,328.537 242.000,328.704 242.000 C 328.871 242.000,329.244 241.621,329.533 241.158 C 329.822 240.695,329.866 240.436,329.630 240.582 C 329.377 240.738,329.200 240.509,329.200 240.024 C 329.200 239.571,329.380 239.200,329.600 239.200 C 329.820 239.200,330.000 238.570,330.000 237.800 C 330.000 237.030,330.151 236.400,330.336 236.400 C 330.520 236.400,330.882 235.939,331.139 235.375 C 331.409 234.781,331.436 234.454,331.203 234.598 C 330.972 234.741,330.800 234.409,330.800 233.824 C 330.800 233.261,330.980 232.800,331.200 232.800 C 331.420 232.800,331.600 232.530,331.600 232.200 C 331.600 231.870,331.780 231.600,332.000 231.600 C 332.220 231.600,332.400 231.409,332.400 231.176 C 332.400 230.943,332.220 230.864,332.000 231.000 C 331.773 231.140,331.600 230.804,331.600 230.224 C 331.600 229.661,331.780 229.200,332.000 229.200 C 332.220 229.200,332.400 228.855,332.400 228.433 C 332.400 228.012,332.625 227.562,332.900 227.433 C 333.300 227.247,333.300 227.153,332.900 226.967 C 332.308 226.691,332.219 224.400,332.800 224.400 C 333.020 224.400,333.200 224.040,333.200 223.600 C 333.200 223.160,333.380 222.800,333.600 222.800 C 333.820 222.800,333.997 222.485,333.994 222.100 C 333.989 221.502,333.931 221.487,333.600 222.000 C 333.316 222.439,333.211 222.137,333.206 220.876 C 333.202 219.828,333.357 219.250,333.600 219.400 C 333.841 219.549,334.000 219.012,334.000 218.047 C 334.000 217.167,334.180 216.336,334.400 216.200 C 334.620 216.064,334.797 215.648,334.794 215.276 C 334.789 214.693,334.734 214.683,334.400 215.200 C 334.133 215.613,334.019 214.805,334.034 212.600 C 334.049 210.445,334.168 209.661,334.400 210.200 C 334.608 210.684,334.755 207.786,334.772 202.876 C 334.790 197.527,334.663 194.838,334.398 195.001 C 334.137 195.163,334.008 193.668,334.031 190.736 C 334.054 187.820,333.914 186.171,333.634 186.078 C 333.395 185.998,333.213 185.093,333.228 184.067 C 333.249 182.656,333.340 182.395,333.600 183.000 C 333.880 183.652,333.949 183.675,333.972 183.124 C 333.987 182.752,333.820 182.336,333.600 182.200 C 333.380 182.064,333.197 181.468,333.194 180.876 C 333.189 180.034,333.103 179.931,332.800 180.400 C 332.512 180.845,332.411 180.607,332.406 179.476 C 332.402 178.372,332.538 178.031,332.900 178.235 C 333.300 178.461,333.300 178.410,332.900 177.979 C 332.625 177.682,332.400 177.116,332.400 176.720 C 332.400 176.324,332.220 176.000,332.000 176.000 C 331.780 176.000,331.600 175.539,331.600 174.976 C 331.600 174.413,331.763 174.054,331.963 174.177 C 332.162 174.300,332.117 173.952,331.863 173.404 C 331.608 172.855,331.265 172.405,331.100 172.403 C 330.935 172.401,330.800 171.939,330.800 171.376 C 330.800 170.796,330.973 170.460,331.200 170.600 C 331.420 170.736,331.600 170.657,331.600 170.424 C 331.600 170.191,331.420 170.000,331.200 170.000 C 330.980 170.000,330.800 169.730,330.800 169.400 C 330.800 169.070,330.620 168.800,330.400 168.800 C 330.180 168.800,330.000 168.429,330.000 167.976 C 330.000 167.523,330.180 167.264,330.400 167.400 C 331.156 167.867,330.800 166.976,330.000 166.400 C 329.208 165.829,328.829 164.124,329.600 164.600 C 330.356 165.067,330.000 164.176,329.200 163.600 C 328.326 162.970,328.060 161.380,328.900 161.807 C 329.175 161.947,328.995 161.703,328.500 161.266 C 328.003 160.827,327.600 160.008,327.600 159.436 C 327.600 158.866,327.420 158.400,327.200 158.400 C 326.980 158.400,326.800 157.849,326.800 157.176 C 326.800 156.463,326.633 156.056,326.400 156.200 C 326.167 156.344,326.000 155.937,326.000 155.224 C 326.000 154.551,325.820 154.000,325.600 154.000 C 325.013 154.000,325.111 152.805,325.700 152.773 C 325.975 152.758,325.795 152.551,325.300 152.312 C 324.805 152.073,324.400 151.535,324.400 151.115 C 324.400 150.641,324.574 150.461,324.862 150.638 C 325.116 150.795,325.242 150.761,325.143 150.562 C 324.753 149.781,324.056 148.136,323.563 146.831 C 323.279 146.078,322.975 145.674,322.889 145.934 C 322.802 146.193,322.558 146.298,322.346 146.167 C 322.109 146.020,322.103 145.751,322.331 145.464 C 322.535 145.209,322.556 144.640,322.379 144.200 C 322.201 143.760,322.044 143.625,322.028 143.900 C 322.013 144.175,321.825 144.400,321.610 144.400 C 321.396 144.400,321.307 143.815,321.414 143.100 C 321.521 142.385,321.501 142.025,321.371 142.300 C 320.988 143.106,320.456 142.874,320.684 142.000 C 320.801 141.553,320.696 141.200,320.447 141.200 C 320.201 141.200,320.000 141.009,320.000 140.776 C 320.000 140.543,320.163 140.454,320.363 140.577 C 320.562 140.700,320.519 140.364,320.267 139.831 C 319.961 139.182,319.711 139.016,319.511 139.330 C 319.346 139.590,319.207 139.173,319.200 138.400 C 319.191 137.348,319.091 137.149,318.800 137.600 C 318.509 138.051,318.409 137.852,318.400 136.800 C 318.391 135.748,318.291 135.549,318.000 136.000 C 317.706 136.455,317.611 136.286,317.606 135.300 C 317.601 134.269,317.435 134.000,316.800 134.000 C 316.267 134.000,316.000 133.733,316.000 133.200 C 316.000 132.760,315.775 132.397,315.500 132.394 C 315.167 132.390,315.200 132.258,315.600 132.000 C 316.000 131.742,316.033 131.610,315.700 131.606 C 315.425 131.603,315.186 131.285,315.168 130.900 C 315.150 130.488,315.054 130.404,314.936 130.696 C 314.782 131.077,314.604 131.061,314.168 130.625 C 313.523 129.980,313.392 129.024,314.000 129.400 C 314.220 129.536,314.400 129.457,314.400 129.224 C 314.400 128.991,314.021 128.800,313.557 128.800 C 312.963 128.800,312.784 128.618,312.950 128.185 C 313.088 127.827,312.924 127.469,312.560 127.329 C 312.054 127.135,312.036 127.023,312.466 126.750 C 312.849 126.508,312.746 126.411,312.100 126.406 C 311.368 126.401,311.200 126.176,311.200 125.200 C 311.200 124.267,311.022 124.000,310.400 124.000 C 309.960 124.000,309.600 123.745,309.600 123.433 C 309.600 123.122,309.375 122.775,309.100 122.664 C 308.724 122.511,308.748 122.356,309.200 122.037 C 309.714 121.673,309.696 121.611,309.071 121.606 C 308.393 121.600,307.200 120.730,307.200 120.241 C 307.200 120.122,307.515 120.138,307.900 120.275 C 308.423 120.461,308.374 120.321,307.707 119.722 C 307.216 119.280,306.931 118.802,307.074 118.659 C 307.217 118.517,306.960 118.400,306.504 118.400 C 305.861 118.400,305.712 118.198,305.842 117.500 C 305.934 117.005,305.902 116.825,305.771 117.100 C 305.384 117.914,304.857 117.669,305.089 116.783 C 305.234 116.225,305.127 116.003,304.751 116.083 C 304.448 116.147,304.241 115.930,304.292 115.600 C 304.399 114.907,301.036 111.097,300.655 111.479 C 300.515 111.619,300.400 111.428,300.400 111.054 C 300.400 110.681,300.095 110.258,299.723 110.115 C 299.030 109.849,290.800 101.794,290.800 101.381 C 290.800 101.256,291.025 101.280,291.300 101.436 C 291.575 101.592,291.180 101.063,290.422 100.260 C 289.066 98.824,288.513 98.412,289.000 99.200 C 289.458 99.941,288.771 99.608,287.764 98.600 C 287.214 98.050,286.889 97.600,287.043 97.600 C 287.196 97.600,286.449 96.809,285.381 95.843 C 284.314 94.877,283.230 94.167,282.972 94.266 C 282.714 94.365,282.391 94.154,282.254 93.798 C 282.118 93.441,281.826 93.260,281.606 93.396 C 281.097 93.711,279.200 91.837,279.200 91.018 C 279.200 90.609,278.824 90.400,278.088 90.400 C 277.435 90.400,276.739 90.070,276.400 89.600 C 276.083 89.160,275.580 88.800,275.283 88.800 C 274.614 88.800,273.851 88.053,273.456 87.011 C 273.205 86.350,273.097 86.317,272.785 86.811 C 272.490 87.277,272.411 87.211,272.406 86.500 C 272.403 86.005,272.209 85.600,271.976 85.600 C 271.743 85.600,271.664 85.780,271.800 86.000 C 271.936 86.220,271.869 86.400,271.651 86.400 C 271.432 86.400,271.132 86.016,270.983 85.547 C 270.771 84.877,270.637 84.813,270.362 85.247 C 270.082 85.690,270.011 85.665,270.006 85.124 C 270.003 84.752,269.792 84.319,269.538 84.162 C 269.252 83.985,269.185 84.052,269.362 84.338 C 269.519 84.592,269.457 84.800,269.224 84.800 C 268.991 84.800,268.800 84.620,268.800 84.400 C 268.800 84.180,268.446 84.000,268.013 84.000 C 267.499 84.000,267.300 83.804,267.441 83.436 C 267.572 83.097,267.327 82.767,266.829 82.609 C 266.373 82.464,266.000 82.178,266.000 81.973 C 266.000 81.768,265.479 81.600,264.843 81.600 C 264.206 81.600,263.592 81.356,263.478 81.059 C 263.207 80.353,258.400 77.850,258.400 78.415 C 258.400 78.653,258.217 78.734,257.993 78.596 C 257.770 78.458,257.679 78.196,257.791 78.014 C 257.904 77.833,257.717 77.577,257.377 77.446 C 257.023 77.311,256.863 77.378,257.003 77.605 C 257.501 78.410,256.474 77.968,255.830 77.100 C 255.463 76.605,255.272 76.425,255.405 76.700 C 255.560 77.021,255.336 77.200,254.781 77.200 C 254.197 77.200,253.985 77.015,254.132 76.633 C 254.252 76.321,254.082 75.963,253.754 75.838 C 253.418 75.709,253.265 75.781,253.403 76.005 C 253.537 76.222,253.347 76.400,252.981 76.400 C 252.587 76.400,252.399 76.180,252.521 75.862 C 252.665 75.486,252.461 75.376,251.839 75.495 C 251.205 75.616,250.823 75.398,250.503 74.732 C 250.256 74.219,250.042 74.025,250.027 74.300 C 249.981 75.158,248.906 74.846,248.647 73.900 C 248.438 73.138,248.334 73.092,247.970 73.600 C 247.645 74.052,247.489 74.076,247.336 73.700 C 247.225 73.425,246.628 73.200,246.009 73.200 C 245.391 73.200,244.787 72.944,244.667 72.631 C 244.527 72.267,244.130 72.145,243.562 72.294 C 243.074 72.422,242.774 72.363,242.895 72.163 C 243.017 71.963,242.865 71.568,242.558 71.284 C 242.236 70.987,242.000 70.944,242.000 71.184 C 242.000 71.882,241.136 71.649,240.347 70.739 C 239.936 70.265,239.600 70.085,239.600 70.339 C 239.600 70.592,239.330 70.800,239.000 70.800 C 238.670 70.800,238.400 70.620,238.400 70.400 C 238.400 70.180,237.759 70.000,236.976 70.000 C 236.193 70.000,235.642 69.856,235.751 69.680 C 235.859 69.504,235.600 69.143,235.174 68.877 C 234.707 68.585,234.400 68.553,234.400 68.797 C 234.400 69.018,234.119 69.200,233.776 69.200 C 233.433 69.200,233.264 69.020,233.400 68.800 C 233.536 68.580,233.367 68.400,233.024 68.400 C 232.681 68.400,232.400 68.220,232.400 68.000 C 232.400 67.780,232.085 67.603,231.700 67.606 C 231.102 67.611,231.087 67.669,231.600 68.000 C 232.085 68.314,232.028 68.389,231.300 68.394 C 230.805 68.397,230.400 68.220,230.400 68.000 C 230.400 67.780,230.130 67.600,229.800 67.600 C 229.470 67.600,229.200 67.420,229.200 67.200 C 229.200 66.980,229.009 66.800,228.776 66.800 C 228.543 66.800,228.464 66.980,228.600 67.200 C 228.736 67.420,228.466 67.600,228.000 67.600 C 227.534 67.600,227.264 67.420,227.400 67.200 C 227.536 66.980,227.287 66.800,226.847 66.800 C 226.407 66.800,225.936 66.620,225.800 66.400 C 225.664 66.180,225.338 66.003,225.076 66.006 C 224.790 66.010,224.839 66.167,225.200 66.400 C 225.668 66.702,225.557 66.789,224.700 66.794 C 224.095 66.797,223.600 66.620,223.600 66.400 C 223.600 66.180,222.599 66.000,221.376 66.000 C 219.996 66.000,219.247 65.848,219.400 65.600 C 219.555 65.349,218.671 65.200,217.024 65.200 C 215.541 65.200,214.400 65.026,214.400 64.800 C 214.400 64.580,213.781 64.400,213.024 64.400 C 212.267 64.400,211.536 64.220,211.400 64.000 C 211.264 63.780,210.848 63.613,210.476 63.628 C 209.919 63.651,209.937 63.710,210.579 63.961 C 211.350 64.263,211.350 64.267,210.579 64.453 C 209.434 64.728,207.283 64.257,207.901 63.867 C 208.196 63.682,208.306 63.166,208.169 62.619 C 208.040 62.107,208.130 61.567,208.368 61.420 C 208.605 61.273,208.800 60.623,208.800 59.976 C 208.800 59.329,208.980 58.800,209.200 58.800 C 209.420 58.800,209.600 58.260,209.600 57.600 C 209.600 56.940,209.780 56.400,210.000 56.400 C 210.220 56.400,210.400 55.888,210.400 55.261 C 210.400 54.475,210.679 53.988,211.300 53.688 C 211.795 53.449,211.975 53.242,211.700 53.227 C 210.897 53.184,211.124 51.996,212.100 51.134 C 212.595 50.697,212.775 50.453,212.500 50.593 C 211.632 51.034,211.946 49.576,212.900 48.734 C 213.395 48.297,213.575 48.053,213.300 48.193 C 212.963 48.365,212.800 48.107,212.800 47.400 C 212.800 46.804,212.972 46.459,213.200 46.600 C 213.590 46.841,213.763 46.315,213.628 45.291 C 213.591 45.011,213.817 44.526,214.129 44.214 C 214.462 43.881,214.623 43.179,214.518 42.523 C 214.410 41.853,214.473 41.590,214.673 41.870 C 214.907 42.196,215.149 42.044,215.467 41.369 C 215.719 40.836,215.762 40.500,215.563 40.623 C 215.363 40.746,215.200 40.447,215.200 39.957 C 215.200 39.467,215.311 39.178,215.448 39.314 C 215.584 39.450,215.944 39.313,216.248 39.010 C 216.887 38.370,216.988 37.837,216.400 38.200 C 216.180 38.336,216.000 38.167,216.000 37.824 C 216.000 37.481,216.137 37.200,216.304 37.200 C 216.471 37.200,216.844 36.821,217.133 36.358 C 217.422 35.895,217.466 35.636,217.230 35.782 C 216.975 35.939,216.800 35.702,216.800 35.200 C 216.800 34.734,216.944 34.442,217.120 34.551 C 217.296 34.659,217.669 34.381,217.949 33.932 C 218.231 33.482,218.267 33.235,218.030 33.382 C 217.784 33.534,217.600 33.336,217.600 32.920 C 217.600 32.520,217.960 31.968,218.400 31.693 C 218.840 31.418,219.197 30.970,219.194 30.697 C 219.190 30.370,219.055 30.405,218.800 30.800 C 218.488 31.283,218.411 31.219,218.406 30.476 C 218.402 29.889,218.565 29.655,218.854 29.833 C 219.169 30.028,219.250 29.724,219.120 28.839 C 219.018 28.138,219.083 27.472,219.267 27.359 C 219.450 27.245,219.618 27.568,219.641 28.076 C 219.670 28.735,219.776 28.602,220.009 27.610 C 220.189 26.845,220.251 26.083,220.148 25.915 C 220.044 25.747,220.328 25.214,220.780 24.730 C 221.231 24.245,221.600 23.379,221.600 22.805 C 221.600 22.230,221.795 21.565,222.034 21.326 C 222.567 20.793,222.367 19.118,221.746 18.913 C 221.497 18.831,221.015 19.042,220.675 19.382 C 219.995 20.062,219.008 20.234,219.397 19.605 C 219.537 19.378,219.377 19.311,219.021 19.447 C 218.679 19.578,218.400 19.936,218.400 20.243 C 218.400 20.570,217.988 20.800,217.400 20.800 C 216.850 20.800,216.400 21.001,216.400 21.247 C 216.400 21.511,215.979 21.613,215.368 21.496 C 214.713 21.371,214.260 21.500,214.126 21.849 C 214.009 22.152,213.653 22.400,213.334 22.400 C 213.014 22.400,212.863 22.222,212.997 22.005 C 213.137 21.778,212.977 21.711,212.621 21.847 C 212.279 21.978,212.000 22.336,212.000 22.643 C 212.000 22.970,211.588 23.200,211.000 23.200 C 210.450 23.200,210.000 23.380,210.000 23.600 C 210.000 23.820,209.460 24.000,208.800 24.000 C 208.140 24.000,207.600 24.180,207.600 24.400 C 207.600 24.987,206.405 24.889,206.373 24.300 C 206.358 24.025,206.147 24.213,205.904 24.717 C 205.546 25.461,205.250 25.587,204.332 25.385 C 203.410 25.183,203.246 25.254,203.443 25.768 C 203.602 26.182,203.464 26.400,203.043 26.400 C 202.689 26.400,202.400 26.192,202.400 25.939 C 202.400 25.685,202.064 25.865,201.653 26.339 C 200.877 27.234,200.000 27.485,200.000 26.813 C 200.000 26.599,199.741 26.524,199.425 26.646 C 199.100 26.771,198.954 27.136,199.089 27.488 C 199.250 27.908,199.145 28.043,198.764 27.905 C 198.454 27.792,198.258 27.453,198.329 27.150 C 198.432 26.709,198.356 26.699,197.949 27.100 C 197.669 27.375,197.071 27.621,196.620 27.646 C 195.945 27.685,195.924 27.725,196.500 27.876 C 197.919 28.247,197.149 28.803,195.500 28.598 C 194.199 28.436,193.988 28.481,194.600 28.787 C 195.296 29.135,195.243 29.175,194.200 29.098 C 193.423 29.040,193.035 29.183,193.100 29.504 C 193.155 29.777,192.919 30.000,192.576 30.000 C 192.233 30.000,192.045 29.851,192.157 29.669 C 192.270 29.487,191.210 29.712,189.801 30.169 C 187.741 30.837,187.412 31.051,188.120 31.260 C 188.851 31.476,188.786 31.527,187.733 31.560 C 187.037 31.582,186.391 31.825,186.299 32.100 C 186.081 32.749,184.000 31.712,184.000 30.955 C 184.000 30.675,183.632 30.188,183.183 29.873 C 182.734 29.559,182.419 29.053,182.483 28.751 C 182.547 28.448,182.375 28.245,182.100 28.300 C 181.804 28.359,181.600 27.982,181.600 27.376 C 181.600 26.796,181.427 26.460,181.200 26.600 C 180.973 26.740,180.800 26.404,180.800 25.824 C 180.800 25.261,180.620 24.800,180.400 24.800 C 180.180 24.800,180.000 24.530,180.000 24.200 C 180.000 23.870,179.820 23.600,179.600 23.600 C 179.380 23.600,179.200 23.240,179.200 22.800 C 179.200 22.360,179.020 22.000,178.800 22.000 C 178.580 22.000,178.400 21.640,178.400 21.200 C 178.400 20.760,178.220 20.400,178.000 20.400 C 177.780 20.400,177.600 20.040,177.600 19.600 C 177.600 19.160,177.420 18.800,177.200 18.800 C 176.980 18.800,176.800 18.440,176.800 18.000 C 176.800 17.560,176.665 17.199,176.500 17.197 C 176.149 17.193,175.200 15.263,175.200 14.554 C 175.200 14.286,174.975 13.975,174.700 13.864 C 174.337 13.716,174.323 13.570,174.650 13.330 C 175.303 12.850,174.572 11.170,173.599 10.916 C 173.160 10.801,172.800 10.553,172.800 10.366 C 172.800 10.178,173.060 10.125,173.379 10.247 C 173.863 10.433,173.880 10.305,173.484 9.465 C 173.168 8.796,172.910 8.618,172.711 8.930 C 172.537 9.204,172.410 8.946,172.406 8.313 C 172.402 7.572,172.230 7.290,171.867 7.430 C 171.471 7.582,171.375 7.295,171.495 6.317 C 171.619 5.309,171.558 5.141,171.234 5.600 C 170.885 6.096,170.811 6.044,170.806 5.300 C 170.803 4.805,170.620 4.400,170.400 4.400 C 170.180 4.400,169.987 3.815,169.972 3.100 C 169.949 2.028,169.886 1.940,169.616 2.600 C 169.347 3.256,169.262 3.131,169.144 1.907 L 169.000 0.414 168.500 1.487 M221.987 20.524 C 221.975 21.371,221.956 21.375,221.400 20.641 C 221.084 20.224,220.922 19.726,221.040 19.535 C 221.397 18.957,222.001 19.588,221.987 20.524 M284.400 95.400 C 284.917 95.950,285.246 96.400,285.131 96.400 C 284.813 96.400,283.200 94.941,283.200 94.653 C 283.200 94.223,283.427 94.364,284.400 95.400 M290.612 101.121 C 290.343 101.390,289.200 100.392,289.200 99.889 C 289.200 99.662,289.561 99.803,290.002 100.202 C 290.444 100.602,290.718 101.015,290.612 101.121 M303.801 115.132 C 303.535 115.398,302.000 113.979,302.000 113.468 C 302.000 113.244,302.449 113.483,302.998 113.999 C 303.548 114.514,303.909 115.025,303.801 115.132 M270.400 290.377 L 270.400 307.555 269.511 308.177 C 269.022 308.520,268.229 308.800,267.749 308.800 C 265.618 308.800,261.227 312.129,260.053 314.633 C 259.753 315.275,259.348 316.113,259.153 316.495 C 258.651 317.482,258.716 321.355,259.256 322.681 C 260.458 325.629,260.855 326.307,262.211 327.738 C 263.756 329.367,266.479 330.789,268.800 331.178 L 270.200 331.413 270.303 353.907 L 270.407 376.400 273.903 376.403 C 288.370 376.414,309.787 370.325,322.822 362.495 C 323.825 361.893,325.535 360.869,326.622 360.219 C 327.710 359.570,328.690 358.940,328.800 358.819 C 328.910 358.699,330.170 357.799,331.600 356.821 C 340.477 350.746,350.925 340.221,357.232 331.000 C 357.984 329.900,358.735 328.940,358.900 328.867 C 359.065 328.793,359.200 328.556,359.200 328.339 C 359.200 328.122,359.722 327.186,360.359 326.259 C 366.154 317.837,371.366 304.735,374.387 291.000 C 375.205 287.278,376.406 277.928,376.403 275.300 L 376.400 273.200 323.400 273.200 L 270.400 273.200 270.400 290.377 M325.445 297.180 C 331.248 300.509,333.457 308.040,330.161 313.262 C 323.895 323.188,309.439 319.512,308.495 307.751 C 307.824 299.388,318.110 292.973,325.445 297.180 M275.225 309.427 C 285.385 314.496,282.607 331.200,271.604 331.200 L 270.000 331.200 270.000 320.080 C 270.000 306.745,269.970 306.805,275.225 309.427 M307.110 324.354 C 312.358 327.031,315.094 334.308,312.801 339.491 C 307.920 350.526,291.772 347.580,290.518 335.425 C 289.664 327.152,299.600 320.523,307.110 324.354 " stroke="none" fill="#e3145b" fill-rule="evenodd"></path><path id="path1" d="M163.175 7.003 C 161.335 10.663,159.688 13.746,159.515 13.853 C 159.342 13.960,159.200 14.397,159.200 14.824 C 159.200 15.251,159.020 15.600,158.800 15.600 C 158.580 15.600,158.400 15.887,158.400 16.238 C 158.400 16.589,158.068 17.354,157.663 17.938 C 157.257 18.522,156.673 19.585,156.365 20.300 C 156.057 21.015,155.669 21.600,155.502 21.600 C 155.336 21.600,155.200 21.960,155.200 22.400 C 155.200 22.840,155.020 23.200,154.800 23.200 C 154.580 23.200,154.400 23.560,154.400 24.000 C 154.400 24.440,154.220 24.800,154.000 24.800 C 153.780 24.800,153.600 25.145,153.600 25.567 C 153.600 25.988,153.464 26.393,153.298 26.467 C 153.132 26.540,152.381 27.824,151.629 29.319 C 150.022 32.512,149.857 32.652,148.462 31.994 C 146.966 31.288,146.036 30.928,144.200 30.343 C 143.320 30.063,142.420 29.716,142.200 29.572 C 141.980 29.428,141.260 29.165,140.600 28.988 C 139.109 28.587,139.226 28.626,137.874 28.066 C 137.255 27.810,136.580 27.600,136.374 27.600 C 136.168 27.600,136.000 27.409,136.000 27.176 C 136.000 26.943,135.852 26.844,135.671 26.956 C 135.491 27.068,134.816 26.886,134.171 26.551 C 133.527 26.217,132.910 25.959,132.800 25.978 C 132.391 26.047,128.186 24.662,127.820 24.337 C 127.611 24.152,127.114 24.000,126.715 24.000 C 126.316 24.000,125.632 23.820,125.195 23.600 C 124.758 23.380,124.042 23.020,123.605 22.800 C 123.168 22.580,122.448 22.400,122.005 22.400 C 121.562 22.400,121.200 22.220,121.200 22.000 C 121.200 21.780,120.928 21.600,120.595 21.600 C 120.262 21.600,119.632 21.420,119.195 21.200 C 118.758 20.980,118.042 20.620,117.605 20.400 C 117.168 20.180,116.459 20.000,116.029 20.000 C 115.599 20.000,115.136 19.820,115.000 19.600 C 114.686 19.091,112.524 19.076,112.213 19.580 C 112.083 19.789,112.343 21.044,112.790 22.370 C 113.237 23.696,113.665 25.100,113.741 25.491 C 113.919 26.400,114.358 27.612,114.829 28.495 C 115.033 28.877,115.200 29.612,115.200 30.128 C 115.200 30.644,115.323 31.190,115.474 31.341 C 115.873 31.739,116.787 34.482,116.794 35.300 C 116.797 35.685,116.980 36.000,117.200 36.000 C 117.420 36.000,117.600 36.529,117.600 37.176 C 117.600 37.823,117.780 38.464,118.000 38.600 C 118.220 38.736,118.400 39.276,118.400 39.800 C 118.400 40.324,118.580 40.864,118.800 41.000 C 119.020 41.136,119.200 41.676,119.200 42.200 C 119.200 42.724,119.380 43.264,119.600 43.400 C 119.820 43.536,120.000 44.177,120.000 44.824 C 120.000 45.471,120.180 46.000,120.400 46.000 C 120.620 46.000,120.800 46.540,120.800 47.200 C 120.800 47.860,120.980 48.400,121.200 48.400 C 121.420 48.400,121.600 48.940,121.600 49.600 C 121.600 50.260,121.780 50.800,122.000 50.800 C 122.220 50.800,122.400 51.340,122.400 52.000 C 122.400 52.660,122.580 53.200,122.800 53.200 C 123.020 53.200,123.200 53.729,123.200 54.376 C 123.200 55.023,123.380 55.664,123.600 55.800 C 123.820 55.936,124.000 56.487,124.000 57.024 C 124.000 57.561,124.180 58.000,124.400 58.000 C 124.620 58.000,124.800 58.525,124.800 59.167 C 124.800 59.808,124.952 60.393,125.138 60.467 C 125.716 60.695,126.012 63.620,125.478 63.825 C 125.215 63.926,123.380 64.187,121.400 64.406 C 118.085 64.772,116.077 65.062,111.800 65.791 C 110.920 65.941,109.840 66.218,109.400 66.407 C 108.960 66.596,107.970 66.835,107.200 66.938 C 106.430 67.041,105.080 67.339,104.200 67.600 C 103.320 67.861,102.013 68.168,101.296 68.281 C 100.579 68.395,99.894 68.649,99.773 68.844 C 99.652 69.040,99.034 69.200,98.400 69.200 C 97.766 69.200,97.136 69.380,97.000 69.600 C 96.864 69.820,96.324 70.000,95.800 70.000 C 95.276 70.000,94.758 70.144,94.649 70.321 C 94.540 70.497,93.539 70.890,92.425 71.193 C 91.311 71.496,90.400 71.892,90.400 72.072 C 90.400 72.253,89.860 72.400,89.200 72.400 C 88.540 72.400,88.000 72.580,88.000 72.800 C 88.000 73.020,87.640 73.200,87.200 73.200 C 86.760 73.200,86.400 73.380,86.400 73.600 C 86.400 73.820,86.045 74.000,85.612 74.000 C 85.179 74.000,84.183 74.360,83.400 74.800 C 82.617 75.240,81.756 75.601,81.488 75.602 C 81.220 75.604,80.550 75.842,80.000 76.132 C 79.450 76.423,76.930 77.754,74.400 79.090 C 71.870 80.427,68.990 81.944,68.000 82.460 C 67.010 82.977,66.140 83.535,66.067 83.700 C 65.993 83.865,65.693 84.000,65.400 84.000 C 65.107 84.000,64.807 84.145,64.733 84.323 C 64.541 84.789,60.936 87.200,60.431 87.200 C 60.198 87.200,59.782 87.560,59.507 88.000 C 59.232 88.440,58.826 88.800,58.604 88.801 C 58.382 88.801,57.570 89.341,56.800 90.000 C 56.030 90.659,55.190 91.199,54.933 91.199 C 54.677 91.200,54.407 91.342,54.333 91.515 C 54.260 91.688,53.400 92.453,52.422 93.215 C 51.444 93.977,50.094 95.117,49.422 95.748 C 48.750 96.380,47.570 97.370,46.800 97.948 C 44.872 99.397,34.159 110.276,32.208 112.767 C 31.332 113.885,30.477 114.800,30.308 114.800 C 30.139 114.800,29.997 115.025,29.992 115.300 C 29.988 115.575,29.358 116.518,28.592 117.396 C 27.827 118.273,27.200 119.130,27.200 119.299 C 27.200 119.469,26.660 120.172,26.000 120.863 C 25.340 121.554,24.800 122.322,24.800 122.571 C 24.800 122.820,24.440 123.283,24.000 123.600 C 23.560 123.917,23.200 124.497,23.200 124.888 C 23.200 125.280,23.050 125.600,22.868 125.600 C 22.685 125.600,22.280 126.095,21.968 126.700 C 21.655 127.305,21.085 128.149,20.700 128.575 C 20.315 129.002,20.000 129.587,20.000 129.875 C 20.000 130.164,19.820 130.400,19.600 130.400 C 19.380 130.400,19.200 130.655,19.200 130.967 C 19.200 131.278,19.040 131.593,18.844 131.667 C 18.649 131.740,17.601 133.510,16.515 135.600 C 15.429 137.690,14.344 139.760,14.104 140.200 C 13.863 140.640,13.450 141.585,13.185 142.300 C 12.920 143.015,12.575 143.600,12.418 143.600 C 12.261 143.600,12.132 143.825,12.131 144.100 C 12.129 144.375,11.560 145.743,10.865 147.139 C 10.170 148.536,9.702 149.841,9.824 150.039 C 9.947 150.238,9.873 150.400,9.661 150.400 C 9.448 150.400,9.043 151.300,8.761 152.400 C 8.479 153.500,8.103 154.400,7.924 154.400 C 7.746 154.400,7.600 154.940,7.600 155.600 C 7.600 156.260,7.420 156.800,7.200 156.800 C 6.980 156.800,6.800 157.340,6.800 158.000 C 6.800 158.660,6.620 159.200,6.400 159.200 C 6.180 159.200,6.000 159.729,6.000 160.376 C 6.000 161.023,5.820 161.664,5.600 161.800 C 5.380 161.936,5.200 162.487,5.200 163.024 C 5.200 163.561,5.020 164.000,4.800 164.000 C 4.580 164.000,4.400 164.709,4.400 165.576 C 4.400 166.443,4.220 167.264,4.000 167.400 C 3.780 167.536,3.600 168.177,3.600 168.824 C 3.600 169.471,3.420 170.000,3.200 170.000 C 2.980 170.000,2.800 170.799,2.800 171.776 C 2.800 172.753,2.620 173.664,2.400 173.800 C 2.180 173.936,2.000 174.836,2.000 175.800 C 2.000 176.764,1.820 177.664,1.600 177.800 C 1.380 177.936,1.200 178.901,1.200 179.944 C 1.200 180.987,0.982 182.058,0.716 182.324 C -0.500 183.540,-0.111 218.083,1.201 225.400 C 1.438 226.720,1.724 228.520,1.838 229.400 C 1.952 230.280,2.203 231.360,2.395 231.800 C 2.744 232.596,3.046 234.039,3.465 236.900 C 3.585 237.725,3.845 238.400,4.042 238.400 C 4.239 238.400,4.400 238.929,4.400 239.576 C 4.400 240.223,4.580 240.864,4.800 241.000 C 5.020 241.136,5.200 241.766,5.200 242.400 C 5.200 243.034,5.380 243.664,5.600 243.800 C 5.820 243.936,6.000 244.476,6.000 245.000 C 6.000 245.524,6.180 246.064,6.400 246.200 C 6.620 246.336,6.800 246.887,6.800 247.424 C 6.800 247.961,6.980 248.400,7.200 248.400 C 7.420 248.400,7.600 248.940,7.600 249.600 C 7.600 250.260,7.780 250.800,8.000 250.800 C 8.220 250.800,8.400 251.250,8.400 251.800 C 8.400 252.350,8.560 252.800,8.755 252.800 C 9.071 252.800,9.717 255.183,9.583 255.852 C 9.555 255.994,9.682 256.221,9.866 256.356 C 10.292 256.668,11.600 259.145,11.600 259.640 C 11.600 260.176,15.383 267.824,16.823 270.200 C 17.490 271.300,18.138 272.515,18.264 272.900 C 18.390 273.285,18.652 273.600,18.847 273.600 C 19.041 273.600,19.200 273.920,19.200 274.312 C 19.200 274.703,19.560 275.283,20.000 275.600 C 20.440 275.917,20.800 276.414,20.800 276.705 C 20.800 276.996,21.160 277.620,21.600 278.092 C 22.040 278.564,22.400 279.187,22.400 279.475 C 22.400 279.764,22.538 280.000,22.706 280.000 C 22.874 280.000,23.456 280.720,24.000 281.600 C 24.544 282.480,25.126 283.200,25.294 283.200 C 25.462 283.200,25.600 283.453,25.600 283.762 C 25.600 284.071,26.185 285.027,26.900 285.886 C 27.615 286.745,28.740 288.141,29.400 288.987 C 30.060 289.834,30.960 290.927,31.400 291.416 C 31.840 291.906,32.920 293.175,33.800 294.236 C 36.071 296.976,39.108 300.245,41.160 302.159 C 42.128 303.061,43.298 304.165,43.760 304.611 C 44.222 305.057,45.800 306.437,47.266 307.678 C 48.733 308.919,49.828 310.039,49.700 310.167 C 49.572 310.295,49.740 310.400,50.074 310.400 C 50.408 310.400,51.246 310.940,51.937 311.600 C 52.628 312.260,53.359 312.800,53.563 312.800 C 53.767 312.800,53.993 312.942,54.067 313.116 C 54.140 313.290,55.098 314.055,56.195 314.816 C 57.292 315.577,58.423 316.419,58.709 316.686 C 58.995 316.953,59.763 317.487,60.415 317.872 C 61.067 318.257,61.600 318.714,61.600 318.886 C 61.600 319.059,61.772 319.200,61.982 319.200 C 62.350 319.200,64.884 320.755,65.883 321.594 C 66.149 321.817,66.558 322.000,66.792 322.000 C 67.291 322.000,70.538 324.061,70.734 324.502 C 70.808 324.669,71.033 324.703,71.234 324.579 C 71.435 324.455,71.600 324.543,71.600 324.776 C 71.600 325.009,71.960 325.200,72.400 325.200 C 72.840 325.200,73.200 325.380,73.200 325.600 C 73.200 325.820,73.560 326.000,74.000 326.000 C 74.440 326.000,74.800 326.180,74.800 326.400 C 74.800 326.620,75.160 326.800,75.600 326.800 C 76.040 326.800,76.400 326.980,76.400 327.200 C 76.400 327.420,76.760 327.600,77.200 327.600 C 77.640 327.600,78.000 327.780,78.000 328.000 C 78.000 328.220,78.360 328.400,78.800 328.400 C 79.240 328.400,79.600 328.580,79.600 328.800 C 79.600 329.020,79.865 329.200,80.188 329.200 C 80.511 329.200,81.417 329.560,82.200 330.000 C 82.983 330.440,83.889 330.800,84.212 330.800 C 84.535 330.800,84.800 330.980,84.800 331.200 C 84.800 331.420,85.162 331.600,85.605 331.600 C 86.048 331.600,86.723 331.759,87.105 331.953 C 87.755 332.284,88.553 332.621,91.000 333.600 C 93.392 334.557,93.957 334.751,96.800 335.600 C 98.450 336.092,100.160 336.640,100.600 336.818 C 101.424 337.149,102.900 337.496,105.000 337.851 C 105.660 337.963,106.560 338.205,107.000 338.388 C 107.794 338.719,114.974 340.074,116.569 340.193 C 117.026 340.227,118.022 340.400,118.782 340.577 C 122.471 341.437,161.201 342.118,161.200 341.323 C 161.200 341.061,160.512 339.711,159.670 338.323 C 156.465 333.038,155.713 331.680,153.727 327.600 C 150.580 321.134,150.000 319.876,150.000 319.521 C 150.000 319.339,149.654 318.428,149.232 317.496 C 146.113 310.614,142.707 297.204,141.232 286.000 C 140.045 276.976,139.513 250.885,140.500 250.101 C 140.829 249.840,163.124 249.774,205.562 249.908 L 270.124 250.113 269.862 258.521 C 269.718 263.145,269.600 268.410,269.600 270.219 L 269.600 273.509 266.887 277.055 C 263.864 281.004,259.672 286.458,256.629 290.400 C 255.525 291.830,250.468 298.400,245.391 305.000 C 240.314 311.600,233.662 320.240,230.609 324.200 C 227.557 328.160,223.615 333.290,221.851 335.600 C 220.086 337.910,217.913 340.721,217.021 341.846 C 212.599 347.427,206.800 355.168,206.800 355.490 C 206.800 356.866,227.674 368.800,230.081 368.800 C 230.389 368.800,230.811 368.965,231.020 369.167 C 231.551 369.679,239.445 372.287,243.965 373.444 C 249.743 374.922,256.221 375.943,263.178 376.472 L 269.502 376.953 269.797 388.537 L 270.091 400.122 279.896 399.890 C 286.038 399.745,289.862 399.498,290.131 399.229 C 290.367 398.993,291.334 398.800,292.280 398.800 C 293.386 398.800,294.002 398.622,294.006 398.300 C 294.010 397.967,294.142 398.000,294.400 398.400 C 294.658 398.800,294.790 398.833,294.794 398.500 C 294.798 398.176,295.425 398.000,296.576 398.000 C 297.553 398.000,298.464 397.820,298.600 397.600 C 298.736 397.380,299.557 397.200,300.424 397.200 C 301.291 397.200,302.000 397.020,302.000 396.800 C 302.000 396.580,302.619 396.400,303.376 396.400 C 304.133 396.400,304.864 396.220,305.000 396.000 C 305.136 395.780,305.766 395.600,306.400 395.600 C 307.034 395.600,307.664 395.420,307.800 395.200 C 307.936 394.980,308.577 394.800,309.224 394.800 C 309.871 394.800,310.400 394.620,310.400 394.400 C 310.400 394.180,310.940 394.000,311.600 394.000 C 312.260 394.000,312.800 393.820,312.800 393.600 C 312.800 393.380,313.239 393.200,313.776 393.200 C 314.313 393.200,314.864 393.020,315.000 392.800 C 315.136 392.580,315.597 392.400,316.024 392.400 C 316.451 392.400,316.800 392.220,316.800 392.000 C 316.800 391.780,317.239 391.600,317.776 391.600 C 318.313 391.600,318.850 391.443,318.968 391.252 C 319.086 391.060,319.686 390.803,320.300 390.680 C 321.936 390.353,327.248 387.781,326.934 387.468 C 326.787 387.320,327.012 387.201,327.433 387.203 C 328.377 387.207,334.800 384.015,334.800 383.542 C 334.800 383.354,335.160 383.200,335.600 383.200 C 336.040 383.200,336.400 383.020,336.400 382.800 C 336.400 382.580,336.636 382.400,336.925 382.400 C 337.213 382.400,337.836 382.040,338.308 381.600 C 338.780 381.160,339.354 380.800,339.583 380.800 C 339.812 380.800,340.000 380.620,340.000 380.400 C 340.000 380.180,340.236 380.000,340.525 380.000 C 340.813 380.000,341.436 379.640,341.908 379.200 C 342.380 378.760,342.956 378.400,343.187 378.400 C 343.418 378.400,344.172 377.860,344.863 377.200 C 345.554 376.540,346.362 376.000,346.659 376.000 C 346.957 376.000,347.200 375.853,347.200 375.674 C 347.200 375.494,347.875 374.963,348.700 374.493 C 349.525 374.023,350.650 373.225,351.200 372.719 C 351.750 372.214,353.051 371.170,354.090 370.400 C 355.130 369.630,356.081 368.730,356.203 368.400 C 356.326 368.070,357.235 367.206,358.224 366.479 C 359.254 365.722,359.905 364.970,359.749 364.717 C 359.592 364.464,359.658 364.389,359.904 364.541 C 360.289 364.779,361.699 363.432,367.796 357.000 C 368.839 355.900,370.166 354.370,370.746 353.600 C 371.326 352.830,372.214 351.750,372.719 351.200 C 373.225 350.650,374.023 349.525,374.493 348.700 C 374.963 347.875,375.494 347.200,375.674 347.200 C 375.853 347.200,376.000 346.957,376.000 346.659 C 376.000 346.362,376.540 345.554,377.200 344.863 C 377.860 344.172,378.400 343.418,378.400 343.187 C 378.400 342.956,378.760 342.380,379.200 341.908 C 379.640 341.436,380.000 340.813,380.000 340.525 C 380.000 340.236,380.180 340.000,380.400 340.000 C 380.620 340.000,380.800 339.812,380.800 339.583 C 380.800 339.354,381.160 338.780,381.600 338.308 C 382.040 337.836,382.400 337.213,382.400 336.925 C 382.400 336.636,382.580 336.400,382.800 336.400 C 383.020 336.400,383.200 336.040,383.200 335.600 C 383.200 335.160,383.353 334.800,383.540 334.800 C 383.727 334.800,384.491 333.585,385.238 332.100 C 385.985 330.615,386.732 329.340,386.898 329.267 C 387.064 329.193,387.200 328.578,387.200 327.900 C 387.200 327.222,387.322 326.789,387.471 326.938 C 387.620 327.087,388.269 326.082,388.913 324.704 C 390.894 320.466,391.110 319.903,391.448 318.100 C 391.581 317.385,391.850 316.800,392.045 316.800 C 392.240 316.800,392.400 316.451,392.400 316.024 C 392.400 315.597,392.580 315.136,392.800 315.000 C 393.020 314.864,393.200 314.313,393.200 313.776 C 393.200 313.239,393.380 312.800,393.600 312.800 C 393.820 312.800,394.000 312.260,394.000 311.600 C 394.000 310.940,394.180 310.400,394.400 310.400 C 394.620 310.400,394.800 309.770,394.800 309.000 C 394.800 308.230,394.980 307.600,395.200 307.600 C 395.420 307.600,395.600 307.071,395.600 306.424 C 395.600 305.777,395.780 305.136,396.000 305.000 C 396.220 304.864,396.400 304.133,396.400 303.376 C 396.400 302.619,396.580 302.000,396.800 302.000 C 397.020 302.000,397.200 301.291,397.200 300.424 C 397.200 299.557,397.380 298.736,397.600 298.600 C 397.820 298.464,398.000 297.553,398.000 296.576 C 398.000 295.599,398.180 294.800,398.400 294.800 C 398.620 294.800,398.800 293.846,398.800 292.680 C 398.800 291.514,399.025 290.335,399.300 290.060 C 399.683 289.677,399.833 284.794,399.942 269.176 L 400.083 248.792 363.142 248.998 C 298.405 249.360,169.033 249.628,168.100 249.402 L 167.200 249.185 167.194 125.292 C 167.191 57.152,167.038 1.163,166.854 0.874 C 166.628 0.517,165.438 2.499,163.175 7.003 M376.580 276.600 C 376.544 283.965,374.592 294.651,371.683 303.400 C 367.704 315.370,360.295 328.848,352.800 337.749 C 346.808 344.866,340.921 350.529,334.393 355.455 C 328.362 360.007,316.852 366.647,311.400 368.719 C 306.677 370.514,305.489 370.944,303.000 371.761 C 299.050 373.057,295.209 374.087,291.800 374.764 C 283.904 376.333,281.886 376.557,275.400 376.580 L 269.800 376.600 269.697 354.100 C 269.596 332.078,269.577 331.600,268.812 331.600 C 266.064 331.600,261.521 328.521,259.959 325.600 C 256.046 318.284,259.596 310.419,267.800 308.227 L 269.400 307.800 269.600 290.485 C 269.771 275.679,269.887 273.115,270.400 272.790 C 270.773 272.554,290.985 272.446,323.800 272.505 L 376.600 272.600 376.580 276.600 M163.788 273.220 C 163.050 274.413,164.479 286.169,166.410 294.800 C 169.653 309.300,177.292 324.716,187.567 337.500 C 189.272 339.621,189.478 339.609,191.200 337.289 C 191.970 336.252,194.130 333.443,196.000 331.046 C 197.870 328.650,200.660 325.036,202.200 323.014 C 203.740 320.992,205.763 318.362,206.696 317.169 C 208.191 315.257,217.949 302.663,220.000 300.000 C 220.423 299.450,222.856 296.300,225.405 293.000 C 227.955 289.700,230.872 285.920,231.888 284.600 C 235.819 279.491,236.206 278.994,236.412 278.800 C 237.057 278.193,240.400 273.465,240.400 273.160 C 240.400 272.626,164.118 272.685,163.788 273.220 " stroke="none" fill="#fc445c" fill-rule="evenodd"></path><path id="path2" d="M167.103 124.478 C 167.184 223.197,167.308 249.021,167.703 249.272 C 168.330 249.671,325.636 249.692,326.262 249.294 C 326.516 249.132,291.011 249.046,247.362 249.103 L 168.000 249.206 168.000 125.683 C 168.000 34.215,168.118 2.042,168.453 1.707 C 169.067 1.093,168.593 0.000,167.713 -0.000 C 167.030 -0.000,167.004 5.320,167.103 124.478 M175.200 14.720 C 175.200 15.300,176.194 17.194,176.500 17.197 C 176.911 17.201,176.890 17.103,176.171 15.661 C 175.554 14.426,175.200 14.082,175.200 14.720 M221.040 19.535 C 220.922 19.726,221.084 20.224,221.400 20.641 C 221.956 21.375,221.975 21.371,221.987 20.524 C 222.001 19.588,221.397 18.957,221.040 19.535 M217.200 20.400 C 216.715 20.714,216.772 20.789,217.500 20.794 C 217.995 20.797,218.400 20.620,218.400 20.400 C 218.400 19.899,217.976 19.899,217.200 20.400 M178.400 21.400 C 178.400 21.730,178.580 22.000,178.800 22.000 C 179.020 22.000,179.200 21.730,179.200 21.400 C 179.200 21.070,179.020 20.800,178.800 20.800 C 178.580 20.800,178.400 21.070,178.400 21.400 M214.800 21.200 C 214.800 21.420,215.160 21.600,215.600 21.600 C 216.040 21.600,216.400 21.420,216.400 21.200 C 216.400 20.980,216.040 20.800,215.600 20.800 C 215.160 20.800,214.800 20.980,214.800 21.200 M208.600 23.600 C 208.464 23.820,208.723 24.000,209.176 24.000 C 209.629 24.000,210.000 23.820,210.000 23.600 C 210.000 23.380,209.741 23.200,209.424 23.200 C 209.107 23.200,208.736 23.380,208.600 23.600 M206.400 24.400 C 206.400 24.620,206.670 24.800,207.000 24.800 C 207.330 24.800,207.600 24.620,207.600 24.400 C 207.600 24.180,207.330 24.000,207.000 24.000 C 206.670 24.000,206.400 24.180,206.400 24.400 M204.400 25.200 C 204.400 25.420,204.670 25.600,205.000 25.600 C 205.330 25.600,205.600 25.420,205.600 25.200 C 205.600 24.980,205.330 24.800,205.000 24.800 C 204.670 24.800,204.400 24.980,204.400 25.200 M202.400 26.000 C 202.400 26.220,202.670 26.400,203.000 26.400 C 203.330 26.400,203.600 26.220,203.600 26.000 C 203.600 25.780,203.330 25.600,203.000 25.600 C 202.670 25.600,202.400 25.780,202.400 26.000 M200.500 26.265 C 199.889 26.511,199.836 27.200,200.429 27.200 C 200.664 27.200,201.127 26.930,201.457 26.600 C 202.079 25.978,201.614 25.815,200.500 26.265 M198.239 27.138 C 198.100 27.361,198.182 27.665,198.420 27.812 C 199.035 28.193,199.432 27.672,198.918 27.158 C 198.631 26.871,198.407 26.864,198.239 27.138 M219.074 27.500 C 218.978 27.665,219.045 28.160,219.222 28.600 C 219.503 29.298,219.547 29.260,219.572 28.300 C 219.600 27.215,219.412 26.914,219.074 27.500 M196.000 28.400 C 196.000 28.620,196.270 28.800,196.600 28.800 C 196.930 28.800,197.200 28.620,197.200 28.400 C 197.200 28.180,196.930 28.000,196.600 28.000 C 196.270 28.000,196.000 28.180,196.000 28.400 M217.600 32.824 C 217.600 33.277,217.780 33.536,218.000 33.400 C 218.220 33.264,218.400 32.893,218.400 32.576 C 218.400 32.259,218.220 32.000,218.000 32.000 C 217.780 32.000,217.600 32.371,217.600 32.824 M216.800 35.200 C 216.800 35.947,216.907 36.053,217.280 35.680 C 217.653 35.307,217.653 35.093,217.280 34.720 C 216.907 34.347,216.800 34.453,216.800 35.200 M215.200 40.000 C 215.200 40.747,215.307 40.853,215.680 40.480 C 216.053 40.107,216.053 39.893,215.680 39.520 C 215.307 39.147,215.200 39.253,215.200 40.000 M214.406 42.300 C 214.403 42.795,214.580 43.200,214.800 43.200 C 215.301 43.200,215.301 42.776,214.800 42.000 C 214.486 41.515,214.411 41.572,214.406 42.300 M213.600 45.000 C 213.600 45.330,213.780 45.600,214.000 45.600 C 214.220 45.600,214.400 45.330,214.400 45.000 C 214.400 44.670,214.220 44.400,214.000 44.400 C 213.780 44.400,213.600 44.670,213.600 45.000 M212.800 47.400 C 212.800 47.996,212.972 48.341,213.200 48.200 C 213.420 48.064,213.600 47.704,213.600 47.400 C 213.600 47.096,213.420 46.736,213.200 46.600 C 212.972 46.459,212.800 46.804,212.800 47.400 M212.000 50.024 C 212.000 50.477,212.180 50.736,212.400 50.600 C 212.620 50.464,212.800 50.093,212.800 49.776 C 212.800 49.459,212.620 49.200,212.400 49.200 C 212.180 49.200,212.000 49.571,212.000 50.024 M211.200 52.400 C 211.200 52.840,211.380 53.200,211.600 53.200 C 211.820 53.200,212.000 52.840,212.000 52.400 C 212.000 51.960,211.820 51.600,211.600 51.600 C 211.380 51.600,211.200 51.960,211.200 52.400 M210.400 54.824 C 210.400 55.277,210.580 55.536,210.800 55.400 C 211.020 55.264,211.200 54.893,211.200 54.576 C 211.200 54.259,211.020 54.000,210.800 54.000 C 210.580 54.000,210.400 54.371,210.400 54.824 M209.600 57.224 C 209.600 57.677,209.780 57.936,210.000 57.800 C 210.220 57.664,210.400 57.293,210.400 56.976 C 210.400 56.659,210.220 56.400,210.000 56.400 C 209.780 56.400,209.600 56.771,209.600 57.224 M208.800 59.600 C 208.800 60.040,208.980 60.400,209.200 60.400 C 209.420 60.400,209.600 60.040,209.600 59.600 C 209.600 59.160,209.420 58.800,209.200 58.800 C 208.980 58.800,208.800 59.160,208.800 59.600 M208.212 61.717 C 208.041 62.112,208.013 62.547,208.151 62.684 C 208.557 63.090,208.884 62.520,208.697 61.731 C 208.532 61.033,208.510 61.032,208.212 61.717 M207.812 63.980 C 207.534 64.431,209.718 64.717,210.649 64.351 C 211.202 64.134,211.242 64.037,210.800 63.983 C 210.470 63.942,209.709 63.850,209.108 63.779 C 208.508 63.708,207.925 63.798,207.812 63.980 M214.400 64.844 C 214.400 65.040,215.150 65.200,216.067 65.200 C 216.983 65.200,217.636 65.103,217.518 64.984 C 217.133 64.599,214.400 64.476,214.400 64.844 M219.400 65.600 C 219.252 65.840,219.761 65.998,220.676 65.994 C 221.807 65.989,222.045 65.888,221.600 65.600 C 220.818 65.094,219.712 65.094,219.400 65.600 M223.600 66.400 C 223.600 66.620,224.095 66.797,224.700 66.794 C 225.557 66.789,225.668 66.702,225.200 66.400 C 224.417 65.894,223.600 65.894,223.600 66.400 M227.400 67.200 C 227.264 67.420,227.534 67.600,228.000 67.600 C 228.466 67.600,228.736 67.420,228.600 67.200 C 228.464 66.980,228.194 66.800,228.000 66.800 C 227.806 66.800,227.536 66.980,227.400 67.200 M230.400 68.000 C 230.400 68.220,230.805 68.397,231.300 68.394 C 232.028 68.389,232.085 68.314,231.600 68.000 C 230.824 67.499,230.400 67.499,230.400 68.000 M235.800 69.600 C 235.657 69.831,236.028 69.997,236.676 69.994 C 237.549 69.989,237.666 69.901,237.200 69.600 C 236.431 69.103,236.107 69.103,235.800 69.600 M238.400 70.400 C 238.400 70.620,238.670 70.800,239.000 70.800 C 239.330 70.800,239.600 70.620,239.600 70.400 C 239.600 70.180,239.330 70.000,239.000 70.000 C 238.670 70.000,238.400 70.180,238.400 70.400 M240.800 71.200 C 240.800 71.420,241.070 71.600,241.400 71.600 C 241.730 71.600,242.000 71.420,242.000 71.200 C 242.000 70.980,241.730 70.800,241.400 70.800 C 241.070 70.800,240.800 70.980,240.800 71.200 M244.800 72.800 C 244.800 73.020,245.171 73.200,245.624 73.200 C 246.077 73.200,246.336 73.020,246.200 72.800 C 246.064 72.580,245.693 72.400,245.376 72.400 C 245.059 72.400,244.800 72.580,244.800 72.800 M248.800 74.400 C 248.800 74.620,249.070 74.800,249.400 74.800 C 249.730 74.800,250.000 74.620,250.000 74.400 C 250.000 74.180,249.730 74.000,249.400 74.000 C 249.070 74.000,248.800 74.180,248.800 74.400 M254.000 76.800 C 254.000 77.020,254.371 77.200,254.824 77.200 C 255.277 77.200,255.536 77.020,255.400 76.800 C 255.264 76.580,254.893 76.400,254.576 76.400 C 254.259 76.400,254.000 76.580,254.000 76.800 M273.600 87.425 C 273.600 87.725,274.673 88.800,274.971 88.800 C 275.480 88.800,275.151 88.162,274.400 87.693 C 273.960 87.418,273.600 87.298,273.600 87.425 M276.000 89.029 C 276.000 89.453,277.236 90.497,277.467 90.267 C 277.592 90.141,277.417 89.760,277.076 89.419 C 276.441 88.784,276.000 88.624,276.000 89.029 M279.200 91.348 C 279.200 91.839,281.234 93.699,281.491 93.442 C 281.624 93.309,281.658 93.155,281.567 93.100 C 281.475 93.045,280.905 92.564,280.300 92.030 C 279.695 91.497,279.200 91.190,279.200 91.348 M282.400 93.840 C 282.400 94.118,284.790 96.400,285.082 96.400 C 285.190 96.400,284.766 95.783,284.139 95.029 C 283.073 93.745,282.400 93.285,282.400 93.840 M292.954 103.774 C 296.426 107.235,299.340 109.994,299.429 109.904 C 299.639 109.694,287.758 97.853,287.125 97.642 C 286.859 97.553,289.483 100.313,292.954 103.774 M302.000 113.468 C 302.000 113.979,303.535 115.398,303.801 115.132 C 303.909 115.025,303.548 114.514,302.998 113.999 C 302.449 113.483,302.000 113.244,302.000 113.468 M307.200 120.214 C 307.200 120.522,308.267 121.600,308.571 121.600 C 309.116 121.600,308.731 120.791,308.000 120.400 C 307.560 120.165,307.200 120.081,307.200 120.214 M313.600 129.580 C 313.600 129.842,313.870 130.327,314.200 130.657 C 314.715 131.172,314.800 131.175,314.800 130.678 C 314.800 130.359,314.530 129.874,314.200 129.600 C 313.746 129.224,313.600 129.219,313.600 129.580 M316.000 133.400 C 316.000 133.730,316.180 134.000,316.400 134.000 C 316.620 134.000,316.800 133.730,316.800 133.400 C 316.800 133.070,316.620 132.800,316.400 132.800 C 316.180 132.800,316.000 133.070,316.000 133.400 M324.400 151.176 C 324.400 151.629,324.580 152.000,324.800 152.000 C 325.020 152.000,325.200 151.741,325.200 151.424 C 325.200 151.107,325.020 150.736,324.800 150.600 C 324.580 150.464,324.400 150.723,324.400 151.176 M325.200 153.400 C 325.200 153.730,325.380 154.000,325.600 154.000 C 325.820 154.000,326.000 153.730,326.000 153.400 C 326.000 153.070,325.820 152.800,325.600 152.800 C 325.380 152.800,325.200 153.070,325.200 153.400 M326.000 155.400 C 326.000 155.996,326.172 156.341,326.400 156.200 C 326.620 156.064,326.800 155.704,326.800 155.400 C 326.800 155.096,326.620 154.736,326.400 154.600 C 326.172 154.459,326.000 154.804,326.000 155.400 M326.800 157.576 C 326.800 158.029,326.980 158.400,327.200 158.400 C 327.420 158.400,327.600 158.141,327.600 157.824 C 327.600 157.507,327.420 157.136,327.200 157.000 C 326.980 156.864,326.800 157.123,326.800 157.576 M327.600 160.000 C 327.600 160.440,327.780 160.800,328.000 160.800 C 328.220 160.800,328.400 160.440,328.400 160.000 C 328.400 159.560,328.220 159.200,328.000 159.200 C 327.780 159.200,327.600 159.560,327.600 160.000 M328.400 162.376 C 328.400 162.829,328.580 163.200,328.800 163.200 C 329.020 163.200,329.200 162.941,329.200 162.624 C 329.200 162.307,329.020 161.936,328.800 161.800 C 328.580 161.664,328.400 161.923,328.400 162.376 M329.200 165.176 C 329.200 165.629,329.380 166.000,329.600 166.000 C 329.820 166.000,330.000 165.741,330.000 165.424 C 330.000 165.107,329.820 164.736,329.600 164.600 C 329.380 164.464,329.200 164.723,329.200 165.176 M330.000 167.976 C 330.000 168.429,330.180 168.800,330.400 168.800 C 330.620 168.800,330.800 168.541,330.800 168.224 C 330.800 167.907,330.620 167.536,330.400 167.400 C 330.180 167.264,330.000 167.523,330.000 167.976 M330.800 171.376 C 330.800 171.939,330.980 172.400,331.200 172.400 C 331.420 172.400,331.600 172.051,331.600 171.624 C 331.600 171.197,331.420 170.736,331.200 170.600 C 330.973 170.460,330.800 170.796,330.800 171.376 M331.600 174.976 C 331.600 175.539,331.742 176.000,331.915 176.000 C 332.369 176.000,332.419 174.459,331.975 174.184 C 331.769 174.057,331.600 174.413,331.600 174.976 M332.406 179.476 C 332.411 180.607,332.512 180.845,332.800 180.400 C 333.306 179.618,333.306 178.512,332.800 178.200 C 332.560 178.052,332.402 178.561,332.406 179.476 M333.200 184.133 C 333.200 185.160,333.367 186.000,333.570 186.000 C 333.973 186.000,333.872 182.938,333.455 182.522 C 333.315 182.382,333.200 183.107,333.200 184.133 M334.000 192.157 C 334.000 194.268,334.137 195.163,334.432 194.980 C 334.888 194.698,334.742 189.808,334.263 189.330 C 334.118 189.185,334.000 190.457,334.000 192.157 M334.031 212.600 C 334.019 214.648,334.142 215.595,334.373 215.230 C 334.829 214.509,334.842 211.357,334.392 210.245 C 334.160 209.670,334.045 210.424,334.031 212.600 M333.206 220.876 C 333.211 222.137,333.316 222.439,333.600 222.000 C 334.107 221.215,334.107 219.714,333.600 219.400 C 333.357 219.250,333.202 219.828,333.206 220.876 M332.400 225.600 C 332.400 226.260,332.580 226.800,332.800 226.800 C 333.020 226.800,333.200 226.260,333.200 225.600 C 333.200 224.940,333.020 224.400,332.800 224.400 C 332.580 224.400,332.400 224.940,332.400 225.600 M331.600 230.224 C 331.600 230.804,331.773 231.140,332.000 231.000 C 332.220 230.864,332.400 230.403,332.400 229.976 C 332.400 229.549,332.220 229.200,332.000 229.200 C 331.780 229.200,331.600 229.661,331.600 230.224 M330.800 233.824 C 330.800 234.404,330.973 234.740,331.200 234.600 C 331.420 234.464,331.600 234.003,331.600 233.576 C 331.600 233.149,331.420 232.800,331.200 232.800 C 330.980 232.800,330.800 233.261,330.800 233.824 M330.006 237.500 C 330.011 238.357,330.098 238.468,330.400 238.000 C 330.906 237.217,330.906 236.400,330.400 236.400 C 330.180 236.400,330.003 236.895,330.006 237.500 M329.200 240.024 C 329.200 240.477,329.380 240.736,329.600 240.600 C 329.820 240.464,330.000 240.093,330.000 239.776 C 330.000 239.459,329.820 239.200,329.600 239.200 C 329.380 239.200,329.200 239.571,329.200 240.024 M328.400 243.024 C 328.400 243.604,328.573 243.940,328.800 243.800 C 329.020 243.664,329.200 243.203,329.200 242.776 C 329.200 242.349,329.020 242.000,328.800 242.000 C 328.580 242.000,328.400 242.461,328.400 243.024 M327.612 245.420 C 327.623 246.454,327.677 246.509,328.054 245.861 C 328.361 245.332,328.358 244.998,328.041 244.681 C 327.720 244.360,327.603 244.559,327.612 245.420 M270.400 272.790 C 269.887 273.115,269.771 275.679,269.600 290.485 L 269.400 307.800 267.800 308.227 C 259.596 310.419,256.046 318.284,259.959 325.600 C 261.521 328.521,266.064 331.600,268.812 331.600 C 269.577 331.600,269.596 332.078,269.697 354.100 L 269.800 376.600 275.400 376.580 C 281.886 376.557,283.904 376.333,291.800 374.764 C 295.209 374.087,299.050 373.057,303.000 371.761 C 305.489 370.944,306.677 370.514,311.400 368.719 C 316.852 366.647,328.362 360.007,334.393 355.455 C 340.921 350.529,346.808 344.866,352.800 337.749 C 360.295 328.848,367.704 315.370,371.683 303.400 C 374.592 294.651,376.544 283.965,376.580 276.600 L 376.600 272.600 323.800 272.505 C 290.985 272.446,270.773 272.554,270.400 272.790 M376.403 275.300 C 376.405 277.296,376.068 280.337,375.149 286.600 C 373.207 299.846,366.904 316.746,360.359 326.259 C 359.722 327.186,359.200 328.122,359.200 328.339 C 359.200 328.556,359.065 328.793,358.900 328.867 C 358.735 328.940,357.984 329.900,357.232 331.000 C 350.925 340.221,340.477 350.746,331.600 356.821 C 330.170 357.799,328.910 358.699,328.800 358.819 C 328.690 358.940,327.710 359.570,326.622 360.219 C 325.535 360.869,323.825 361.893,322.822 362.495 C 309.787 370.325,288.370 376.414,273.903 376.403 L 270.407 376.400 270.303 353.907 L 270.200 331.413 268.800 331.178 C 266.479 330.789,263.756 329.367,262.211 327.738 C 260.855 326.307,260.458 325.629,259.256 322.681 C 258.716 321.355,258.651 317.482,259.153 316.495 C 259.348 316.113,259.753 315.275,260.053 314.633 C 261.227 312.129,265.618 308.800,267.749 308.800 C 268.229 308.800,269.022 308.520,269.511 308.177 L 270.400 307.555 270.400 290.377 L 270.400 273.200 323.400 273.200 L 376.400 273.200 376.403 275.300 M120.900 341.076 C 121.285 341.176,121.915 341.176,122.300 341.076 C 122.685 340.975,122.370 340.893,121.600 340.893 C 120.830 340.893,120.515 340.975,120.900 341.076 " stroke="none" fill="#ec295c" fill-rule="evenodd"></path><path id="path3" d="M140.419 250.141 C 139.514 251.046,140.114 277.505,141.232 286.000 C 142.707 297.204,146.113 310.614,149.232 317.496 C 149.654 318.428,150.000 319.339,150.000 319.521 C 150.000 319.876,150.580 321.134,153.727 327.600 C 155.713 331.680,156.465 333.038,159.670 338.323 C 160.512 339.711,161.200 341.136,161.200 341.490 C 161.200 342.210,164.431 347.195,164.900 347.198 C 165.065 347.199,165.201 347.425,165.202 347.700 C 165.203 347.975,165.743 348.775,166.402 349.478 C 167.061 350.181,167.600 350.864,167.600 350.996 C 167.600 351.127,168.275 351.964,169.100 352.856 C 169.925 353.747,170.960 354.945,171.400 355.519 C 173.227 357.899,183.605 368.390,184.140 368.396 C 184.326 368.398,184.956 368.896,185.540 369.501 C 186.707 370.714,189.401 372.800,189.799 372.800 C 189.938 372.800,190.506 373.340,191.061 374.000 C 191.617 374.660,192.375 375.200,192.747 375.200 C 193.119 375.200,193.683 375.560,194.000 376.000 C 194.317 376.440,194.792 376.800,195.055 376.800 C 195.318 376.800,195.593 376.949,195.667 377.130 C 195.854 377.594,201.873 381.600,202.382 381.600 C 202.612 381.600,202.803 381.735,202.806 381.900 C 202.810 382.065,203.710 382.640,204.806 383.179 C 205.903 383.717,206.800 384.302,206.800 384.479 C 206.800 384.655,207.160 384.800,207.600 384.800 C 208.040 384.800,208.400 384.980,208.400 385.200 C 208.400 385.420,208.745 385.600,209.167 385.600 C 209.588 385.600,209.993 385.741,210.067 385.914 C 210.292 386.445,218.308 390.206,221.400 391.232 C 222.280 391.524,223.171 391.907,223.380 392.082 C 223.589 392.257,224.174 392.400,224.680 392.400 C 225.186 392.400,225.600 392.580,225.600 392.800 C 225.600 393.020,226.140 393.200,226.800 393.200 C 227.460 393.200,228.000 393.380,228.000 393.600 C 228.000 393.820,228.540 394.000,229.200 394.000 C 229.860 394.000,230.400 394.180,230.400 394.400 C 230.400 394.620,230.940 394.800,231.600 394.800 C 232.260 394.800,232.800 394.980,232.800 395.200 C 232.800 395.420,233.329 395.600,233.976 395.600 C 234.623 395.600,235.264 395.780,235.400 396.000 C 235.536 396.220,236.256 396.400,237.000 396.400 C 237.744 396.400,238.464 396.580,238.600 396.800 C 238.736 397.020,239.456 397.200,240.200 397.200 C 240.944 397.200,241.664 397.380,241.800 397.600 C 241.936 397.820,242.937 398.000,244.024 398.000 C 245.111 398.000,246.000 398.180,246.000 398.400 C 246.000 398.620,246.864 398.800,247.920 398.800 C 248.976 398.800,250.032 398.992,250.267 399.227 C 250.532 399.492,254.379 399.743,260.412 399.890 L 270.131 400.128 269.866 391.599 C 269.720 386.909,269.600 381.696,269.600 380.016 L 269.600 376.960 263.226 376.476 C 256.224 375.943,249.754 374.925,243.965 373.444 C 239.445 372.287,231.551 369.679,231.020 369.167 C 230.811 368.965,230.389 368.800,230.081 368.800 C 227.674 368.800,206.800 356.866,206.800 355.490 C 206.800 355.168,212.599 347.427,217.021 341.846 C 217.913 340.721,220.086 337.910,221.851 335.600 C 223.615 333.290,227.557 328.160,230.609 324.200 C 233.662 320.240,240.314 311.600,245.391 305.000 C 250.468 298.400,255.525 291.830,256.629 290.400 C 259.650 286.486,263.856 281.014,266.832 277.126 L 269.491 273.651 269.786 262.000 C 269.949 255.591,270.018 250.292,269.941 250.223 C 269.517 249.846,140.795 249.765,140.419 250.141 M240.400 273.160 C 240.400 273.465,237.057 278.193,236.412 278.800 C 236.206 278.994,235.819 279.491,231.888 284.600 C 230.872 285.920,227.955 289.700,225.405 293.000 C 222.856 296.300,220.423 299.450,220.000 300.000 C 217.949 302.663,208.191 315.257,206.696 317.169 C 205.763 318.362,203.740 320.992,202.200 323.014 C 200.660 325.036,197.870 328.650,196.000 331.046 C 194.130 333.443,191.970 336.252,191.200 337.289 C 189.478 339.609,189.272 339.621,187.567 337.500 C 177.292 324.716,169.653 309.300,166.410 294.800 C 164.479 286.169,163.050 274.413,163.788 273.220 C 164.118 272.685,240.400 272.626,240.400 273.160 " stroke="none" fill="#fc6b7b" fill-rule="evenodd"></path><path id="path4" d="M286.856 97.166 C 287.375 97.587,287.877 97.855,287.971 97.761 C 288.176 97.557,286.744 96.431,286.256 96.413 C 286.066 96.406,286.336 96.745,286.856 97.166 M314.886 297.180 C 307.802 301.085,306.310 309.462,311.671 315.231 C 320.723 324.974,336.416 314.193,330.386 302.373 C 327.374 296.469,320.409 294.135,314.886 297.180 M270.458 308.502 C 270.136 308.824,270.000 312.256,270.000 320.080 L 270.000 331.200 271.604 331.200 C 279.000 331.200,284.131 321.702,280.531 314.676 C 278.584 310.878,272.074 306.886,270.458 308.502 M298.753 323.726 C 291.711 326.369,288.713 332.957,291.588 339.470 C 297.420 352.685,317.336 345.240,313.003 331.465 C 311.128 325.503,304.136 321.706,298.753 323.726 " stroke="none" fill="#a4043c" fill-rule="evenodd"></path></g></svg>