<svg height="512" viewBox="0 0 512 512" width="512" xmlns="http://www.w3.org/2000/svg"><g id="Flat"><path d="m80 168h352a0 0 0 0 1 0 0v200a80 80 0 0 1 -80 80h-192a80 80 0 0 1 -80-80v-200a0 0 0 0 1 0 0z" fill="#e44b4d"/><path d="m52.67993 204.67993a15.98856 15.98856 0 0 0 -4.67942 11.4488 16.2679 16.2679 0 0 0 16.40923 15.87127h27.59026a12 12 0 0 1 12 12 12 12 0 0 1 -12 12h-27.25135c-21.84656 0-40.22664-17.20547-40.73748-39.04606a40.03888 40.03888 0 0 1 39.98883-40.95394h16v24h-16a15.988 15.988 0 0 0 -11.32007 4.67993z" fill="#2f4054"/><path d="m487.98883 216.95394c-.51083 21.84059-18.89092 39.04606-40.73748 39.04606h-27.25135a12 12 0 0 1 -12-12 12 12 0 0 1 12-12h28a15.97906 15.97906 0 0 0 15.99949-16.12874 16.26789 16.26789 0 0 0 -16.40922-15.87126h-15.59027v-24h16a40.03888 40.03888 0 0 1 39.98883 40.95394z" fill="#2f4054"/><ellipse cx="256" cy="168" fill="#8acce7" rx="176" ry="48"/><path d="m312 136c0 13.25-25.06982 24-56 24-30.92993 0-56-10.75-56-24 0-9.59009 13.12988-17.87012 32.10986-21.71a125.7583 125.7583 0 0 1 47.78028 0c18.97998 3.83988 32.10986 12.11991 32.10986 21.71z" fill="#2f4054"/><path d="m279.89014 114.29a23.99961 23.99961 0 0 1 -47.78028 0 125.7583 125.7583 0 0 1 47.78028 0z" fill="#262d43"/><path d="m272 80v32a16 16 0 0 1 -16 16 16 16 0 0 1 -16-16v-32z" fill="#2f4054"/><path d="m272 80v22.14014a69.75231 69.75231 0 0 1 -32 0v-22.14014z" fill="#262d43"/><ellipse cx="256" cy="80" fill="#2f4054" rx="32" ry="16"/></g></svg>