<svg id="svg" version="1.1" xmlns="http://www.w3.org/2000/svg" xmlns:xlink="http://www.w3.org/1999/xlink" width="400" height="400" viewBox="0, 0, 400,400"><g id="svgg"><path id="path0" d="M60.757 153.376 C 60.660 153.473,58.838 153.731,56.709 153.949 C 52.858 154.343,50.794 155.011,49.354 156.331 C 48.939 156.711,47.970 157.464,47.200 158.004 C 43.969 160.269,34.539 169.693,32.393 172.800 C 31.861 173.570,31.202 174.432,30.927 174.715 C 30.653 174.998,30.113 175.763,29.728 176.415 C 29.343 177.067,28.886 177.600,28.714 177.600 C 28.541 177.600,28.400 177.790,28.400 178.022 C 28.400 178.254,27.706 179.469,26.857 180.722 C 22.983 186.442,18.428 197.005,16.733 204.200 C 14.051 215.585,13.461 223.042,14.375 234.000 C 14.604 236.750,14.982 239.900,15.214 241.000 C 15.447 242.100,15.793 243.810,15.985 244.800 C 17.508 252.670,22.794 265.549,26.847 271.262 C 27.261 271.846,27.600 272.521,27.600 272.762 C 27.600 273.003,27.759 273.200,27.953 273.200 C 28.148 273.200,28.407 273.515,28.529 273.900 C 28.790 274.726,30.077 276.908,30.482 277.213 C 31.690 278.122,36.756 290.003,37.641 294.000 C 37.860 294.990,38.223 296.520,38.447 297.400 C 40.290 304.619,40.603 314.509,39.352 325.936 C 39.127 327.991,39.149 328.056,39.933 327.636 C 40.381 327.396,41.533 327.200,42.494 327.200 C 43.454 327.200,44.431 327.009,44.665 326.775 C 44.948 326.492,47.600 326.414,52.645 326.542 C 59.699 326.721,62.396 326.977,67.400 327.946 C 70.419 328.531,76.004 330.162,77.295 330.837 C 77.677 331.037,78.153 331.200,78.353 331.200 C 79.436 331.200,88.893 336.125,92.272 338.450 C 93.192 339.082,94.137 339.600,94.372 339.600 C 94.607 339.600,94.800 339.759,94.800 339.953 C 94.800 340.148,95.115 340.407,95.500 340.529 C 96.187 340.746,98.406 342.005,98.800 342.401 C 98.910 342.511,99.450 342.815,100.000 343.077 C 106.491 346.165,108.515 347.009,112.808 348.419 C 115.554 349.321,118.700 350.245,119.800 350.473 C 120.900 350.701,122.610 351.055,123.600 351.259 C 137.594 354.151,154.773 352.691,169.000 347.402 C 172.723 346.018,179.545 342.929,180.000 342.422 C 180.110 342.299,180.740 341.929,181.400 341.599 C 186.473 339.066,194.342 323.072,197.538 308.800 C 198.353 305.161,198.672 303.308,199.588 296.923 C 200.087 293.439,200.138 281.333,199.655 281.034 C 199.464 280.916,198.565 281.528,197.655 282.394 C 195.455 284.487,193.459 285.081,190.920 284.400 C 188.968 283.877,153.937 249.426,149.635 243.800 C 146.292 239.428,148.007 233.798,153.100 232.427 C 156.662 231.468,158.078 232.356,166.360 240.748 C 191.084 265.798,198.440 273.200,198.613 273.200 C 199.482 273.200,196.512 261.498,193.688 253.795 C 191.507 247.845,191.426 247.747,175.442 231.652 C 157.712 213.798,159.200 215.322,159.200 215.012 C 159.200 214.877,158.840 214.380,158.400 213.908 C 157.523 212.966,157.245 208.611,157.975 207.247 C 158.400 206.453,129.720 177.485,124.000 172.930 C 107.742 159.982,88.234 153.200,67.250 153.200 C 63.776 153.200,60.854 153.279,60.757 153.376 M53.954 185.483 C 55.344 186.366,92.291 223.567,94.100 225.905 C 94.485 226.402,94.800 227.069,94.800 227.386 C 94.800 227.703,95.015 228.434,95.278 229.011 C 95.648 229.823,95.648 230.231,95.278 230.824 C 95.015 231.245,94.800 231.952,94.800 232.395 C 94.800 232.838,94.620 233.200,94.400 233.200 C 94.180 233.200,94.000 233.461,94.000 233.780 C 94.000 235.958,87.952 237.623,85.202 236.201 C 83.753 235.452,46.028 197.615,44.526 195.405 C 42.185 191.960,44.227 185.772,47.974 184.954 C 48.538 184.831,49.180 184.666,49.400 184.588 C 50.156 184.318,53.001 184.878,53.954 185.483 M43.003 213.863 C 45.098 214.577,43.874 213.396,72.272 242.093 C 78.691 248.581,84.316 254.498,84.770 255.244 C 87.968 260.489,82.630 267.246,76.646 265.527 C 74.877 265.019,37.185 227.702,34.907 224.202 C 32.509 220.520,34.077 215.597,38.146 214.032 C 40.687 213.054,40.635 213.056,43.003 213.863 " stroke="none" fill="#eb1c63" fill-rule="evenodd"></path><path id="path1" d="M215.534 62.255 C 214.665 64.217,214.247 65.590,213.570 68.700 C 213.366 69.635,213.012 71.255,212.782 72.300 C 212.552 73.345,212.275 74.740,212.166 75.400 C 211.648 78.527,210.093 82.605,208.885 84.000 C 204.042 89.593,198.137 91.341,190.138 89.551 C 188.031 89.080,183.332 89.552,181.611 90.408 C 181.275 90.576,180.100 91.132,179.000 91.645 C 176.242 92.931,171.985 97.259,170.410 100.379 C 168.716 103.736,168.149 106.489,166.781 118.000 C 166.585 119.650,166.232 122.440,165.997 124.200 C 165.572 127.380,165.199 130.288,164.381 136.800 C 164.146 138.670,163.786 141.460,163.580 143.000 C 163.375 144.540,163.094 146.833,162.956 148.095 L 162.705 150.390 170.629 158.244 C 178.262 165.809,178.576 166.068,179.177 165.297 C 179.520 164.856,180.916 162.898,182.280 160.945 C 183.644 158.991,185.084 157.033,185.480 156.592 C 185.876 156.151,186.886 154.893,187.725 153.795 C 191.603 148.723,202.453 137.595,208.396 132.594 C 210.484 130.837,212.391 129.220,212.633 129.000 C 212.875 128.780,213.670 128.150,214.400 127.600 C 215.130 127.050,215.928 126.420,216.173 126.200 C 217.096 125.374,219.869 123.304,221.800 122.002 C 222.900 121.260,223.890 120.529,224.000 120.378 C 224.284 119.988,234.356 113.519,235.800 112.799 C 236.460 112.470,237.090 112.111,237.200 112.001 C 237.451 111.749,238.927 110.906,241.000 109.830 C 241.880 109.374,242.690 108.901,242.800 108.780 C 242.988 108.573,257.274 101.524,259.000 100.787 C 269.557 96.275,272.598 96.164,275.066 100.200 C 277.145 103.600,276.351 108.402,273.470 109.845 C 272.992 110.085,271.790 110.693,270.800 111.197 C 269.810 111.701,268.640 112.245,268.200 112.406 C 264.630 113.712,245.674 123.108,244.800 124.005 C 244.690 124.118,243.745 124.642,242.700 125.168 C 241.655 125.695,240.800 126.277,240.800 126.463 C 240.800 126.648,240.614 126.800,240.387 126.800 C 239.728 126.800,229.260 134.059,223.957 138.194 C 221.049 140.461,219.611 141.682,217.825 143.400 C 217.139 144.060,214.873 146.130,212.789 148.000 C 210.705 149.870,208.910 151.516,208.800 151.657 C 208.690 151.799,206.849 153.796,204.709 156.095 C 200.146 160.999,194.175 168.334,192.800 170.723 C 192.470 171.297,191.885 172.123,191.500 172.558 C 191.115 172.994,190.800 173.504,190.800 173.692 C 190.800 173.880,190.433 174.427,189.984 174.909 C 188.689 176.299,188.983 176.715,197.092 184.970 C 204.967 192.986,206.696 194.186,207.800 192.400 C 207.936 192.180,209.016 192.000,210.200 192.000 C 211.384 192.000,212.464 191.820,212.600 191.600 C 212.736 191.380,213.726 191.200,214.800 191.200 C 215.874 191.200,216.864 191.020,217.000 190.800 C 217.136 190.580,218.101 190.400,219.144 190.400 C 220.187 190.400,221.211 190.237,221.420 190.037 C 221.629 189.837,222.700 189.572,223.800 189.448 C 224.900 189.323,226.700 189.117,227.800 188.990 C 228.900 188.862,230.160 188.597,230.600 188.400 C 231.353 188.063,232.029 187.956,237.000 187.387 C 238.100 187.261,239.360 186.997,239.800 186.800 C 240.240 186.603,241.410 186.348,242.400 186.234 C 249.610 185.400,249.801 185.300,249.363 182.608 C 248.431 176.881,249.663 171.930,252.913 168.335 C 254.862 166.179,258.151 164.000,259.455 164.000 C 259.949 164.000,260.464 163.820,260.600 163.600 C 261.435 162.249,269.459 163.488,273.621 165.611 C 277.358 167.517,280.499 168.400,283.544 168.400 L 286.491 168.400 286.209 166.500 C 285.777 163.590,283.499 159.320,280.608 156.000 C 276.298 151.052,275.600 149.812,275.600 147.109 C 275.600 141.840,277.483 139.982,285.860 136.988 C 290.625 135.286,290.647 135.265,289.624 133.443 C 289.171 132.636,288.800 131.567,288.800 131.068 C 288.800 130.569,288.604 129.964,288.364 129.724 C 287.920 129.280,288.050 125.330,288.586 123.000 C 289.675 118.263,293.773 113.936,299.000 112.003 C 300.224 111.550,302.121 110.747,302.895 110.353 C 303.277 110.159,303.941 110.000,304.371 110.000 C 304.801 110.000,305.264 109.820,305.400 109.600 C 305.536 109.380,306.087 109.200,306.624 109.200 C 307.161 109.200,307.600 109.020,307.600 108.800 C 307.600 108.580,307.962 108.400,308.405 108.400 C 308.848 108.400,309.568 108.220,310.005 108.000 C 310.442 107.780,311.158 107.420,311.595 107.200 C 312.032 106.980,312.634 106.800,312.934 106.800 C 313.234 106.800,314.805 106.122,316.425 105.292 C 319.934 103.496,320.137 102.989,319.588 97.400 C 317.963 80.872,305.457 68.706,288.682 67.334 C 282.057 66.792,276.903 68.285,264.000 74.487 C 247.904 82.224,247.224 82.468,244.087 81.623 C 241.126 80.826,237.619 76.629,237.604 73.866 C 237.572 67.879,228.485 60.759,220.498 60.462 L 216.395 60.309 215.534 62.255 " stroke="none" fill="#8cc34c" fill-rule="evenodd"></path><path id="path2" d="M233.507 47.384 C 222.523 49.789,215.239 57.542,212.824 69.400 C 212.555 70.720,212.179 72.520,211.988 73.400 C 211.797 74.280,211.429 75.990,211.170 77.200 C 209.762 83.775,205.092 88.559,199.110 89.555 L 197.000 89.906 198.743 89.953 C 201.774 90.035,205.609 87.784,208.885 84.000 C 210.093 82.605,211.648 78.527,212.166 75.400 C 212.275 74.740,212.552 73.345,212.782 72.300 C 213.012 71.255,213.366 69.635,213.570 68.700 C 214.247 65.590,214.665 64.217,215.534 62.255 L 216.395 60.309 220.498 60.462 C 228.485 60.759,237.572 67.879,237.604 73.866 C 237.619 76.629,241.126 80.826,244.087 81.623 C 247.224 82.468,247.904 82.224,264.000 74.487 C 276.903 68.285,282.057 66.792,288.682 67.334 C 305.457 68.706,317.963 80.872,319.588 97.400 C 320.137 102.989,319.934 103.496,316.425 105.292 C 314.805 106.122,313.234 106.800,312.934 106.800 C 312.634 106.800,312.032 106.980,311.595 107.200 C 311.158 107.420,310.442 107.780,310.005 108.000 C 309.568 108.220,308.848 108.400,308.405 108.400 C 307.962 108.400,307.600 108.580,307.600 108.800 C 307.600 109.020,307.161 109.200,306.624 109.200 C 306.087 109.200,305.536 109.380,305.400 109.600 C 305.264 109.820,304.801 110.000,304.371 110.000 C 303.941 110.000,303.277 110.159,302.895 110.353 C 302.017 110.800,300.426 111.454,299.443 111.773 C 299.026 111.908,298.772 112.105,298.878 112.211 C 299.091 112.425,310.479 108.424,312.095 107.568 C 312.477 107.366,312.989 107.200,313.234 107.200 C 314.217 107.200,320.326 103.910,322.200 102.371 C 325.628 99.556,326.165 99.046,327.431 97.400 C 332.458 90.863,334.544 79.882,332.027 73.206 C 331.572 71.999,331.200 70.804,331.200 70.551 C 331.200 67.180,322.034 57.937,316.800 56.029 C 316.030 55.749,315.040 55.368,314.600 55.183 C 311.887 54.045,305.084 53.645,301.600 54.420 C 298.218 55.172,296.722 55.811,282.111 62.750 C 269.403 68.785,267.564 69.343,263.538 68.394 C 257.353 66.936,253.751 63.555,251.610 57.200 C 250.239 53.131,249.713 52.176,247.772 50.235 C 244.724 47.188,239.330 46.109,233.507 47.384 M188.400 89.229 C 189.390 89.437,191.550 89.688,193.200 89.786 C 195.603 89.930,195.842 89.899,194.400 89.632 C 191.596 89.112,186.089 88.742,188.400 89.229 M181.578 89.931 C 172.464 93.278,168.317 99.756,166.809 113.000 C 166.559 115.200,166.194 118.170,165.998 119.600 C 165.665 122.038,165.495 123.356,164.404 132.000 C 164.168 133.870,163.793 136.750,163.570 138.400 C 162.755 144.447,162.423 147.038,162.251 148.707 L 162.074 150.415 170.218 158.643 C 174.697 163.168,178.526 166.769,178.726 166.646 C 178.927 166.522,179.970 165.114,181.045 163.518 C 185.847 156.387,196.328 144.313,203.435 137.722 C 214.881 127.109,225.156 119.569,239.200 111.478 C 244.388 108.488,257.862 101.600,258.522 101.600 C 258.664 101.600,259.956 101.061,261.393 100.403 C 269.147 96.852,272.573 96.933,274.826 100.723 C 277.488 105.200,275.345 108.866,268.388 111.738 C 267.405 112.145,265.837 112.820,264.904 113.238 C 263.972 113.657,263.103 114.000,262.973 114.000 C 262.328 114.000,249.472 120.713,244.200 123.802 C 230.381 131.900,219.805 140.131,207.992 151.979 C 203.139 156.848,200.735 159.464,198.784 162.000 C 198.023 162.990,197.310 163.890,197.200 164.000 C 195.418 165.782,188.284 176.259,188.475 176.814 C 188.544 177.015,192.200 180.801,196.600 185.228 L 204.600 193.276 206.600 193.047 C 207.700 192.920,209.590 192.635,210.800 192.412 C 212.010 192.190,214.080 191.824,215.400 191.600 C 216.720 191.376,218.700 191.029,219.800 190.830 C 222.048 190.424,225.341 189.845,229.200 189.180 C 230.630 188.933,232.700 188.569,233.800 188.370 C 234.900 188.171,236.880 187.824,238.200 187.600 C 239.520 187.376,241.500 187.028,242.600 186.826 C 243.700 186.625,245.410 186.343,246.400 186.199 C 250.048 185.671,250.748 184.402,249.599 180.398 C 248.218 175.582,252.660 167.518,258.085 164.992 C 259.331 164.413,259.862 164.006,259.378 164.004 C 258.146 163.998,254.820 166.226,252.913 168.335 C 249.663 171.930,248.431 176.881,249.363 182.608 C 249.801 185.300,249.610 185.400,242.400 186.234 C 241.410 186.348,240.240 186.603,239.800 186.800 C 239.360 186.997,238.100 187.261,237.000 187.387 C 232.029 187.956,231.353 188.063,230.600 188.400 C 230.160 188.597,228.900 188.862,227.800 188.990 C 226.700 189.117,224.900 189.323,223.800 189.448 C 222.700 189.572,221.629 189.837,221.420 190.037 C 221.211 190.237,220.187 190.400,219.144 190.400 C 218.101 190.400,217.136 190.580,217.000 190.800 C 216.864 191.020,215.874 191.200,214.800 191.200 C 213.726 191.200,212.736 191.380,212.600 191.600 C 212.464 191.820,211.384 192.000,210.200 192.000 C 209.016 192.000,207.936 192.180,207.800 192.400 C 206.696 194.186,204.967 192.986,197.092 184.970 C 188.983 176.715,188.689 176.299,189.984 174.909 C 190.433 174.427,190.800 173.880,190.800 173.692 C 190.800 173.504,191.115 172.994,191.500 172.558 C 191.885 172.123,192.470 171.297,192.800 170.723 C 194.175 168.334,200.146 160.999,204.709 156.095 C 206.849 153.796,208.690 151.799,208.800 151.657 C 208.910 151.516,210.705 149.870,212.789 148.000 C 214.873 146.130,217.139 144.060,217.825 143.400 C 219.611 141.682,221.049 140.461,223.957 138.194 C 229.260 134.059,239.728 126.800,240.387 126.800 C 240.614 126.800,240.800 126.648,240.800 126.463 C 240.800 126.277,241.655 125.695,242.700 125.168 C 243.745 124.642,244.690 124.118,244.800 124.005 C 245.674 123.108,264.630 113.712,268.200 112.406 C 268.640 112.245,269.810 111.701,270.800 111.197 C 271.790 110.693,272.992 110.085,273.470 109.845 C 276.351 108.402,277.145 103.600,275.066 100.200 C 272.598 96.164,269.557 96.275,259.000 100.787 C 257.274 101.524,242.988 108.573,242.800 108.780 C 242.690 108.901,241.880 109.374,241.000 109.830 C 238.927 110.906,237.451 111.749,237.200 112.001 C 237.090 112.111,236.460 112.470,235.800 112.799 C 234.356 113.519,224.284 119.988,224.000 120.378 C 223.890 120.529,222.900 121.260,221.800 122.002 C 219.869 123.304,217.096 125.374,216.173 126.200 C 215.928 126.420,215.130 127.050,214.400 127.600 C 213.670 128.150,212.875 128.780,212.633 129.000 C 212.391 129.220,210.484 130.837,208.396 132.594 C 202.453 137.595,191.603 148.723,187.725 153.795 C 186.886 154.893,185.876 156.151,185.480 156.592 C 185.084 157.033,183.644 158.991,182.280 160.945 C 180.916 162.898,179.520 164.856,179.177 165.297 C 178.576 166.068,178.262 165.809,170.629 158.244 L 162.705 150.390 162.956 148.095 C 163.094 146.833,163.375 144.540,163.580 143.000 C 163.786 141.460,164.146 138.670,164.381 136.800 C 165.199 130.288,165.572 127.380,165.997 124.200 C 166.232 122.440,166.585 119.650,166.781 118.000 C 168.149 106.489,168.716 103.736,170.410 100.379 C 171.983 97.265,176.236 92.937,179.000 91.638 C 181.990 90.233,182.441 90.069,184.400 89.661 C 186.109 89.305,186.129 89.285,184.800 89.274 C 184.030 89.267,182.580 89.563,181.578 89.931 M295.901 113.305 C 292.808 115.027,289.372 119.580,288.586 123.000 C 288.050 125.330,287.920 129.280,288.364 129.724 C 288.604 129.964,288.800 130.569,288.800 131.068 C 288.800 131.567,289.171 132.636,289.624 133.443 C 290.647 135.265,290.625 135.286,285.860 136.988 C 273.550 141.388,272.185 146.329,280.608 156.000 C 283.499 159.320,285.777 163.590,286.209 166.500 L 286.491 168.400 283.544 168.400 C 280.499 168.400,277.358 167.517,273.621 165.611 C 269.564 163.541,261.440 162.241,260.642 163.533 C 260.528 163.716,261.846 163.784,263.569 163.684 C 267.093 163.480,268.873 163.937,274.200 166.412 C 275.960 167.229,277.903 168.101,278.519 168.349 C 279.904 168.907,287.061 168.948,287.400 168.400 C 287.536 168.180,287.966 168.000,288.356 168.000 C 290.966 168.000,296.540 163.286,298.265 159.619 C 298.839 158.398,299.464 157.087,299.654 156.705 C 300.157 155.695,300.078 148.631,299.549 147.319 C 298.191 143.945,297.141 142.300,294.539 139.466 C 286.029 130.199,286.901 119.246,296.600 113.577 C 298.855 112.258,298.222 112.013,295.901 113.305 M321.400 118.591 C 320.300 119.121,319.121 119.564,318.780 119.577 C 318.439 119.590,317.989 119.749,317.780 119.930 C 317.571 120.112,316.590 120.505,315.600 120.802 C 314.610 121.100,313.620 121.459,313.400 121.600 C 313.180 121.741,312.190 122.101,311.200 122.400 C 310.210 122.699,309.220 123.059,309.000 123.200 C 308.780 123.341,307.790 123.705,306.800 124.010 C 301.667 125.589,301.382 126.581,304.948 130.433 C 311.632 137.652,314.697 146.807,313.374 155.600 C 312.911 158.676,312.651 159.832,311.777 162.712 C 309.950 168.733,303.393 175.880,296.615 179.238 C 290.677 182.181,282.036 183.161,276.400 181.532 C 275.630 181.310,274.370 180.945,273.600 180.722 C 272.830 180.499,270.531 179.515,268.490 178.535 C 263.199 175.993,262.408 176.467,263.159 181.730 C 264.472 190.936,258.872 197.741,248.600 199.420 C 247.720 199.564,246.100 199.827,245.000 200.004 C 243.900 200.181,241.920 200.513,240.600 200.742 C 234.710 201.762,228.422 202.868,226.400 203.237 C 223.157 203.831,219.628 204.414,217.700 204.674 C 215.458 204.977,215.510 205.245,218.689 209.825 C 221.341 213.644,221.712 213.958,225.100 215.255 C 225.595 215.445,226.405 215.763,226.900 215.962 C 227.395 216.161,229.330 216.898,231.200 217.600 C 235.463 219.200,235.969 219.395,237.200 219.915 C 238.214 220.344,247.415 223.897,254.463 226.582 C 259.129 228.360,259.551 228.223,260.863 224.507 C 263.075 218.241,269.639 213.988,276.156 214.601 C 281.685 215.120,284.677 217.218,288.973 223.589 C 294.118 231.220,299.901 234.330,306.747 233.149 C 317.604 231.276,323.288 221.737,320.394 210.249 C 316.747 195.776,326.155 187.433,342.400 190.735 C 351.972 192.681,354.618 193.170,355.200 193.102 C 355.530 193.063,356.791 193.175,358.002 193.350 C 363.669 194.168,372.065 191.214,377.239 186.581 C 393.019 172.449,386.897 145.419,366.800 140.491 C 365.810 140.248,364.550 139.937,364.000 139.799 C 363.450 139.662,361.110 139.385,358.800 139.184 C 356.490 138.983,352.620 138.629,350.200 138.398 C 347.780 138.166,343.820 137.813,341.400 137.612 C 329.363 136.612,323.600 131.123,324.078 121.115 C 324.268 117.154,324.308 117.192,321.400 118.591 " stroke="none" fill="#4fa149" fill-rule="evenodd"></path><path id="path3" d="M234.000 32.800 C 234.000 33.020,233.100 33.200,232.000 33.200 C 230.900 33.200,230.000 33.380,230.000 33.600 C 230.000 33.820,229.190 34.000,228.200 34.000 C 227.210 34.000,226.400 34.180,226.400 34.400 C 226.400 34.620,226.040 34.800,225.600 34.800 C 225.160 34.800,224.800 34.980,224.800 35.200 C 224.800 35.420,224.260 35.600,223.600 35.600 C 222.940 35.600,222.400 35.780,222.400 36.000 C 222.400 36.220,222.040 36.400,221.600 36.400 C 221.160 36.400,220.800 36.580,220.800 36.800 C 220.800 37.020,220.440 37.200,220.000 37.200 C 219.560 37.200,219.200 37.380,219.200 37.600 C 219.200 37.820,218.880 38.000,218.488 38.000 C 218.097 38.000,217.517 38.360,217.200 38.800 C 216.883 39.240,216.369 39.600,216.059 39.600 C 215.748 39.600,215.203 39.924,214.847 40.319 C 214.491 40.714,213.570 41.463,212.800 41.982 C 210.795 43.333,208.400 45.674,208.400 46.281 C 208.400 46.567,208.220 46.800,208.000 46.800 C 207.780 46.800,207.600 46.998,207.600 47.240 C 207.600 47.481,207.060 48.183,206.400 48.800 C 205.740 49.417,205.200 50.209,205.200 50.560 C 205.200 50.912,205.020 51.200,204.800 51.200 C 204.580 51.200,204.400 51.560,204.400 52.000 C 204.400 52.440,204.220 52.800,204.000 52.800 C 203.780 52.800,203.600 53.160,203.600 53.600 C 203.600 54.040,203.420 54.400,203.200 54.400 C 202.980 54.400,202.796 54.625,202.791 54.900 C 202.786 55.175,202.430 55.850,202.000 56.400 C 201.570 56.950,201.214 57.884,201.209 58.476 C 201.204 59.068,201.020 59.664,200.800 59.800 C 200.580 59.936,200.400 60.476,200.400 61.000 C 200.400 61.524,200.220 62.064,200.000 62.200 C 199.780 62.336,199.600 63.067,199.600 63.824 C 199.600 64.581,199.420 65.200,199.200 65.200 C 198.980 65.200,198.800 66.100,198.800 67.200 C 198.800 68.300,198.620 69.200,198.400 69.200 C 198.180 69.200,198.000 70.100,198.000 71.200 C 198.000 72.300,197.820 73.200,197.600 73.200 C 197.380 73.200,197.200 73.631,197.200 74.157 C 197.200 75.465,196.710 75.569,192.546 75.152 C 187.890 74.685,177.936 75.533,177.373 76.444 C 177.252 76.640,176.623 76.800,175.976 76.800 C 175.329 76.800,174.800 76.980,174.800 77.200 C 174.800 77.420,174.440 77.600,174.000 77.600 C 173.560 77.600,173.200 77.780,173.200 78.000 C 173.200 78.220,172.840 78.400,172.400 78.400 C 171.960 78.400,171.600 78.559,171.600 78.753 C 171.600 78.948,171.285 79.207,170.900 79.329 C 169.638 79.729,167.850 80.973,166.343 82.500 C 165.529 83.325,164.714 84.000,164.531 84.000 C 163.994 84.001,162.000 85.852,162.000 86.350 C 162.000 86.602,161.492 87.339,160.871 87.989 C 160.250 88.638,159.395 89.852,158.971 90.685 C 158.547 91.518,158.065 92.260,157.900 92.333 C 157.735 92.407,157.600 92.812,157.600 93.233 C 157.600 93.655,157.420 94.000,157.200 94.000 C 156.980 94.000,156.800 94.360,156.800 94.800 C 156.800 95.240,156.620 95.600,156.400 95.600 C 156.180 95.600,156.000 95.960,156.000 96.400 C 156.000 96.840,155.820 97.200,155.600 97.200 C 155.380 97.200,155.200 97.920,155.200 98.800 C 155.200 99.680,155.020 100.400,154.800 100.400 C 154.580 100.400,154.400 101.120,154.400 102.000 C 154.400 102.880,154.220 103.600,154.000 103.600 C 153.771 103.600,153.600 104.800,153.600 106.400 C 153.600 108.000,153.429 109.200,153.200 109.200 C 152.969 109.200,152.800 110.467,152.800 112.200 C 152.800 113.933,152.631 115.200,152.400 115.200 C 152.172 115.200,152.000 116.392,152.000 117.976 C 152.000 119.503,151.820 120.864,151.600 121.000 C 151.380 121.136,151.200 122.587,151.200 124.224 C 151.200 125.941,151.031 127.200,150.800 127.200 C 150.569 127.200,150.400 128.459,150.400 130.176 C 150.400 131.813,150.220 133.264,150.000 133.400 C 149.780 133.536,149.600 134.987,149.600 136.624 C 149.600 139.333,149.528 139.600,148.800 139.600 C 148.360 139.600,148.000 139.420,148.000 139.200 C 148.000 138.980,147.640 138.800,147.200 138.800 C 146.760 138.800,146.400 138.620,146.400 138.400 C 146.400 138.180,146.040 138.000,145.600 138.000 C 145.160 138.000,144.800 137.820,144.800 137.600 C 144.800 137.380,144.440 137.200,144.000 137.200 C 143.560 137.200,143.200 137.020,143.200 136.800 C 143.200 136.580,142.840 136.400,142.400 136.400 C 141.960 136.400,141.600 136.220,141.600 136.000 C 141.600 135.780,141.330 135.600,141.000 135.600 C 140.670 135.600,140.400 135.420,140.400 135.200 C 140.400 134.980,140.040 134.800,139.600 134.800 C 139.160 134.800,138.800 134.620,138.800 134.400 C 138.800 134.180,138.440 134.000,138.000 134.000 C 137.560 134.000,137.200 133.820,137.200 133.600 C 137.200 133.380,136.761 133.200,136.224 133.200 C 135.687 133.200,135.136 133.020,135.000 132.800 C 134.864 132.580,134.403 132.400,133.976 132.400 C 133.549 132.400,133.200 132.220,133.200 132.000 C 133.200 131.780,132.660 131.600,132.000 131.600 C 131.340 131.600,130.800 131.420,130.800 131.200 C 130.800 130.980,130.260 130.800,129.600 130.800 C 128.940 130.800,128.400 130.620,128.400 130.400 C 128.400 130.180,127.860 130.000,127.200 130.000 C 126.540 130.000,126.000 129.820,126.000 129.600 C 126.000 129.380,125.381 129.200,124.624 129.200 C 123.867 129.200,123.136 129.020,123.000 128.800 C 122.864 128.580,122.133 128.400,121.376 128.400 C 120.619 128.400,120.000 128.220,120.000 128.000 C 120.000 127.780,119.111 127.600,118.024 127.600 C 116.937 127.600,115.936 127.420,115.800 127.200 C 115.664 126.980,114.609 126.800,113.456 126.800 C 112.303 126.800,111.155 126.595,110.905 126.345 C 110.295 125.735,86.473 125.767,85.861 126.379 C 85.630 126.610,84.407 126.800,83.144 126.800 C 81.881 126.800,80.736 126.980,80.600 127.200 C 80.464 127.420,79.564 127.600,78.600 127.600 C 77.636 127.600,76.736 127.780,76.600 128.000 C 76.464 128.220,75.643 128.400,74.776 128.400 C 73.909 128.400,73.200 128.580,73.200 128.800 C 73.200 129.020,72.660 129.200,72.000 129.200 C 71.340 129.200,70.800 129.380,70.800 129.600 C 70.800 129.820,70.181 130.000,69.424 130.000 C 68.667 130.000,67.936 130.180,67.800 130.400 C 67.664 130.620,67.124 130.800,66.600 130.800 C 66.076 130.800,65.536 130.980,65.400 131.200 C 65.264 131.420,64.803 131.600,64.376 131.600 C 63.949 131.600,63.600 131.780,63.600 132.000 C 63.600 132.220,63.161 132.400,62.624 132.400 C 62.087 132.400,61.536 132.580,61.400 132.800 C 61.264 133.020,60.803 133.200,60.376 133.200 C 59.949 133.200,59.600 133.380,59.600 133.600 C 59.600 133.820,59.150 134.000,58.600 134.000 C 58.050 134.000,57.600 134.180,57.600 134.400 C 57.600 134.620,57.240 134.800,56.800 134.800 C 56.360 134.800,56.000 134.980,56.000 135.200 C 56.000 135.420,55.640 135.600,55.200 135.600 C 54.760 135.600,54.400 135.780,54.400 136.000 C 54.400 136.220,54.040 136.400,53.600 136.400 C 53.160 136.400,52.800 136.580,52.800 136.800 C 52.800 137.020,52.440 137.200,52.000 137.200 C 51.560 137.200,51.200 137.380,51.200 137.600 C 51.200 137.820,50.880 138.000,50.488 138.000 C 50.097 138.000,49.517 138.360,49.200 138.800 C 48.883 139.240,48.343 139.600,48.000 139.600 C 47.657 139.600,47.117 139.960,46.800 140.400 C 46.483 140.840,45.903 141.200,45.512 141.200 C 45.120 141.200,44.800 141.380,44.800 141.600 C 44.800 141.820,44.544 142.000,44.231 142.000 C 43.918 142.000,43.127 142.450,42.473 143.000 C 41.819 143.550,41.158 144.000,41.003 144.000 C 40.848 144.000,40.217 144.540,39.600 145.200 C 38.983 145.860,38.299 146.400,38.080 146.400 C 37.861 146.400,36.805 147.257,35.735 148.305 C 34.665 149.353,33.162 150.653,32.395 151.194 C 30.781 152.333,27.930 155.179,26.200 157.380 C 25.540 158.220,24.055 159.897,22.900 161.107 C 21.745 162.317,20.800 163.481,20.800 163.693 C 20.800 163.905,20.260 164.583,19.600 165.200 C 18.940 165.817,18.400 166.520,18.400 166.764 C 18.400 167.008,17.860 167.772,17.200 168.463 C 16.540 169.154,16.000 169.962,16.000 170.259 C 16.000 170.557,15.820 170.800,15.600 170.800 C 15.380 170.800,15.200 171.120,15.200 171.512 C 15.200 171.903,14.840 172.483,14.400 172.800 C 13.960 173.117,13.600 173.697,13.600 174.088 C 13.600 174.480,13.450 174.800,13.268 174.800 C 13.085 174.800,12.680 175.295,12.368 175.900 C 12.056 176.505,11.700 177.090,11.577 177.200 C 11.128 177.600,8.400 183.607,8.400 184.195 C 8.400 184.528,8.220 184.800,8.000 184.800 C 7.780 184.800,7.600 185.340,7.600 186.000 C 7.600 186.660,7.420 187.200,7.200 187.200 C 6.980 187.200,6.800 187.560,6.800 188.000 C 6.800 188.440,6.620 188.800,6.400 188.800 C 6.180 188.800,6.000 189.340,6.000 190.000 C 6.000 190.660,5.820 191.200,5.600 191.200 C 5.380 191.200,5.200 191.650,5.200 192.200 C 5.200 192.750,5.020 193.200,4.800 193.200 C 4.580 193.200,4.400 193.740,4.400 194.400 C 4.400 195.060,4.220 195.600,4.000 195.600 C 3.780 195.600,3.600 196.140,3.600 196.800 C 3.600 197.460,3.420 198.000,3.200 198.000 C 2.980 198.000,2.800 198.720,2.800 199.600 C 2.800 200.480,2.620 201.200,2.400 201.200 C 2.180 201.200,2.000 201.920,2.000 202.800 C 2.000 203.680,1.820 204.400,1.600 204.400 C 1.380 204.400,1.200 205.285,1.200 206.367 C 1.200 207.584,1.010 208.397,0.700 208.500 C 0.012 208.729,-0.031 242.791,0.655 243.639 C 1.078 244.160,1.253 245.019,1.853 249.500 C 1.978 250.435,2.242 251.200,2.440 251.200 C 2.638 251.200,2.800 251.729,2.800 252.376 C 2.800 253.023,2.980 253.664,3.200 253.800 C 3.420 253.936,3.600 254.566,3.600 255.200 C 3.600 255.834,3.780 256.464,4.000 256.600 C 4.220 256.736,4.400 257.287,4.400 257.824 C 4.400 258.361,4.580 258.800,4.800 258.800 C 5.020 258.800,5.200 259.340,5.200 260.000 C 5.200 260.660,5.380 261.200,5.600 261.200 C 5.820 261.200,6.000 261.560,6.000 262.000 C 6.000 262.440,6.180 262.800,6.400 262.800 C 6.620 262.800,6.800 263.340,6.800 264.000 C 6.800 264.660,6.980 265.200,7.200 265.200 C 7.420 265.200,7.600 265.560,7.600 266.000 C 7.600 266.440,7.780 266.800,8.000 266.800 C 8.220 266.800,8.400 267.104,8.400 267.476 C 8.400 268.253,12.014 275.732,12.487 275.933 C 12.659 276.007,12.800 276.372,12.800 276.745 C 12.800 277.118,13.160 277.683,13.600 278.000 C 14.040 278.317,14.400 278.897,14.400 279.288 C 14.400 279.680,14.580 280.000,14.800 280.000 C 15.020 280.000,15.200 280.236,15.200 280.525 C 15.200 280.813,15.560 281.436,16.000 281.908 C 16.440 282.380,16.800 283.044,16.800 283.383 C 16.800 283.722,16.980 284.000,17.200 284.000 C 17.420 284.000,17.600 284.270,17.600 284.600 C 17.600 284.930,17.780 285.200,18.000 285.200 C 18.220 285.200,18.400 285.470,18.400 285.800 C 18.400 286.130,18.580 286.400,18.800 286.400 C 19.020 286.400,19.200 286.760,19.200 287.200 C 19.200 287.640,19.380 288.000,19.600 288.000 C 19.820 288.000,20.000 288.360,20.000 288.800 C 20.000 289.240,20.180 289.600,20.400 289.600 C 20.620 289.600,20.800 289.960,20.800 290.400 C 20.800 290.840,20.980 291.200,21.200 291.200 C 21.420 291.200,21.600 291.650,21.600 292.200 C 21.600 292.750,21.780 293.200,22.000 293.200 C 22.220 293.200,22.400 293.740,22.400 294.400 C 22.400 295.060,22.580 295.600,22.800 295.600 C 23.020 295.600,23.200 296.140,23.200 296.800 C 23.200 297.460,23.380 298.000,23.600 298.000 C 23.820 298.000,24.000 298.720,24.000 299.600 C 24.000 300.480,24.144 301.200,24.319 301.200 C 26.019 301.200,26.061 324.109,24.363 324.733 C 24.163 324.807,24.000 325.392,24.000 326.033 C 24.000 326.675,23.820 327.200,23.600 327.200 C 23.380 327.200,23.200 327.650,23.200 328.200 C 23.200 328.750,23.020 329.200,22.800 329.200 C 22.580 329.200,22.400 329.560,22.400 330.000 C 22.400 330.440,22.220 330.800,22.000 330.800 C 21.780 330.800,21.600 331.160,21.600 331.600 C 21.600 332.040,21.420 332.400,21.200 332.400 C 20.980 332.400,20.800 332.720,20.800 333.112 C 20.800 333.503,20.440 334.083,20.000 334.400 C 19.560 334.717,19.200 335.215,19.200 335.506 C 19.200 335.798,18.750 336.486,18.200 337.036 C 17.650 337.586,17.200 338.200,17.200 338.400 C 17.200 338.600,16.750 339.214,16.200 339.764 C 15.650 340.314,15.200 341.042,15.200 341.382 C 15.200 341.722,15.020 342.000,14.800 342.000 C 14.580 342.000,14.400 342.349,14.400 342.776 C 14.400 343.203,14.220 343.664,14.000 343.800 C 13.780 343.936,13.600 344.757,13.600 345.624 C 13.600 346.491,13.780 347.200,14.000 347.200 C 14.220 347.200,14.400 347.656,14.400 348.213 C 14.400 349.234,16.178 351.298,17.920 352.300 C 18.923 352.877,24.400 352.985,24.400 352.427 C 24.400 352.222,24.769 351.937,25.220 351.794 C 25.671 351.651,26.655 350.918,27.407 350.167 C 28.158 349.415,28.933 348.800,29.127 348.800 C 29.322 348.800,30.046 348.260,30.737 347.600 C 31.428 346.940,32.182 346.400,32.413 346.400 C 32.644 346.400,33.220 346.040,33.692 345.600 C 34.164 345.160,34.877 344.800,35.275 344.800 C 35.674 344.800,36.000 344.620,36.000 344.400 C 36.000 344.180,36.349 344.000,36.776 344.000 C 37.203 344.000,37.664 343.820,37.800 343.600 C 37.936 343.380,38.397 343.200,38.824 343.200 C 39.251 343.200,39.600 343.020,39.600 342.800 C 39.600 342.580,40.035 342.400,40.567 342.400 C 41.098 342.400,41.593 342.240,41.667 342.044 C 42.230 340.537,64.400 340.550,64.400 342.057 C 64.400 342.246,65.120 342.400,66.000 342.400 C 66.880 342.400,67.600 342.580,67.600 342.800 C 67.600 343.020,68.140 343.200,68.800 343.200 C 69.460 343.200,70.000 343.380,70.000 343.600 C 70.000 343.820,70.540 344.000,71.200 344.000 C 71.860 344.000,72.400 344.180,72.400 344.400 C 72.400 344.620,72.760 344.800,73.200 344.800 C 73.640 344.800,74.000 344.980,74.000 345.200 C 74.000 345.420,74.360 345.600,74.800 345.600 C 75.240 345.600,75.600 345.780,75.600 346.000 C 75.600 346.220,76.050 346.400,76.600 346.400 C 77.150 346.400,77.600 346.580,77.600 346.800 C 77.600 347.020,77.920 347.200,78.312 347.200 C 78.703 347.200,79.283 347.560,79.600 348.000 C 79.917 348.440,80.497 348.800,80.888 348.800 C 81.280 348.800,81.600 348.980,81.600 349.200 C 81.600 349.420,81.920 349.600,82.312 349.600 C 82.703 349.600,83.283 349.960,83.600 350.400 C 83.917 350.840,84.497 351.200,84.888 351.200 C 85.280 351.200,85.600 351.358,85.600 351.551 C 85.600 351.745,86.140 352.127,86.800 352.400 C 87.460 352.673,88.000 353.055,88.000 353.249 C 88.000 353.442,88.360 353.600,88.800 353.600 C 89.240 353.600,89.600 353.747,89.600 353.926 C 89.600 354.539,97.861 358.782,99.076 358.793 C 99.558 358.797,100.064 358.980,100.200 359.200 C 100.336 359.420,100.797 359.600,101.224 359.600 C 101.651 359.600,102.000 359.780,102.000 360.000 C 102.000 360.220,102.360 360.400,102.800 360.400 C 103.240 360.400,103.600 360.580,103.600 360.800 C 103.600 361.020,104.140 361.200,104.800 361.200 C 105.460 361.200,106.000 361.380,106.000 361.600 C 106.000 361.820,106.540 362.000,107.200 362.000 C 107.860 362.000,108.400 362.180,108.400 362.400 C 108.400 362.620,108.839 362.800,109.376 362.800 C 109.913 362.800,110.464 362.980,110.600 363.200 C 110.736 363.420,111.467 363.600,112.224 363.600 C 112.981 363.600,113.600 363.780,113.600 364.000 C 113.600 364.220,114.320 364.400,115.200 364.400 C 116.080 364.400,116.800 364.580,116.800 364.800 C 116.800 365.020,117.599 365.200,118.576 365.200 C 119.553 365.200,120.464 365.380,120.600 365.600 C 120.736 365.820,121.737 366.000,122.824 366.000 C 123.911 366.000,124.800 366.180,124.800 366.400 C 124.800 366.637,126.259 366.800,128.376 366.800 C 130.343 366.800,132.064 366.980,132.200 367.200 C 132.346 367.437,134.796 367.600,138.200 367.600 C 141.604 367.600,144.054 367.437,144.200 367.200 C 144.340 366.973,146.330 366.800,148.800 366.800 C 151.270 366.800,153.260 366.627,153.400 366.400 C 153.536 366.180,154.616 366.000,155.800 366.000 C 156.984 366.000,158.064 365.820,158.200 365.600 C 158.336 365.380,159.247 365.200,160.224 365.200 C 161.201 365.200,162.000 365.020,162.000 364.800 C 162.000 364.580,162.720 364.400,163.600 364.400 C 164.480 364.400,165.200 364.220,165.200 364.000 C 165.200 363.780,165.819 363.600,166.576 363.600 C 167.333 363.600,168.064 363.420,168.200 363.200 C 168.336 362.980,168.977 362.800,169.624 362.800 C 170.271 362.800,170.800 362.620,170.800 362.400 C 170.800 362.180,171.250 362.000,171.800 362.000 C 172.350 362.000,172.800 361.820,172.800 361.600 C 172.800 361.380,173.250 361.200,173.800 361.200 C 174.350 361.200,174.800 361.020,174.800 360.800 C 174.800 360.580,175.250 360.400,175.800 360.400 C 176.350 360.400,176.800 360.220,176.800 360.000 C 176.800 359.780,177.340 359.600,178.000 359.600 C 178.660 359.600,179.200 359.420,179.200 359.200 C 179.200 358.980,179.460 358.800,179.779 358.800 C 180.583 358.800,186.247 356.080,188.272 354.722 C 189.192 354.105,190.054 353.600,190.189 353.600 C 190.323 353.600,190.820 353.240,191.292 352.800 C 191.764 352.360,192.387 352.000,192.675 352.000 C 192.964 352.000,193.200 351.820,193.200 351.600 C 193.200 351.380,193.478 351.200,193.818 351.200 C 194.158 351.200,194.886 350.750,195.436 350.200 C 195.986 349.650,196.586 349.200,196.768 349.200 C 196.950 349.200,197.787 348.570,198.628 347.800 C 199.469 347.030,200.307 346.400,200.492 346.400 C 200.676 346.400,201.426 345.815,202.158 345.100 C 202.890 344.385,204.272 343.170,205.228 342.400 C 207.766 340.357,212.000 336.121,212.000 335.626 C 212.000 335.392,212.180 335.200,212.400 335.200 C 212.620 335.200,212.800 335.008,212.800 334.774 C 212.800 334.540,213.700 333.471,214.800 332.400 C 215.900 331.329,216.800 330.210,216.800 329.914 C 216.800 329.619,217.160 329.117,217.600 328.800 C 218.040 328.483,218.400 327.969,218.400 327.659 C 218.400 327.348,218.728 326.803,219.128 326.447 C 219.893 325.768,223.200 321.019,223.200 320.601 C 223.200 320.467,223.650 319.695,224.200 318.886 C 224.750 318.077,225.200 317.096,225.200 316.707 C 225.200 316.318,225.380 316.000,225.600 316.000 C 225.820 316.000,226.000 315.640,226.000 315.200 C 226.000 314.760,226.180 314.400,226.400 314.400 C 226.620 314.400,226.800 314.040,226.800 313.600 C 226.800 313.160,226.980 312.800,227.200 312.800 C 227.420 312.800,227.600 312.440,227.600 312.000 C 227.600 311.560,227.780 311.200,228.000 311.200 C 228.220 311.200,228.400 310.840,228.400 310.400 C 228.400 309.960,228.580 309.600,228.800 309.600 C 229.020 309.600,229.200 309.150,229.200 308.600 C 229.200 308.050,229.380 307.600,229.600 307.600 C 229.820 307.600,230.000 307.240,230.000 306.800 C 230.000 306.360,230.180 306.000,230.400 306.000 C 230.620 306.000,230.800 305.651,230.800 305.224 C 230.800 304.797,230.980 304.336,231.200 304.200 C 231.420 304.064,231.600 303.524,231.600 303.000 C 231.600 302.476,231.780 301.936,232.000 301.800 C 232.220 301.664,232.400 301.124,232.400 300.600 C 232.400 300.076,232.580 299.536,232.800 299.400 C 233.020 299.264,233.200 298.724,233.200 298.200 C 233.200 297.676,233.380 297.136,233.600 297.000 C 233.820 296.864,234.000 296.133,234.000 295.376 C 234.000 294.619,234.180 294.000,234.400 294.000 C 234.620 294.000,234.800 293.291,234.800 292.424 C 234.800 291.557,234.980 290.736,235.200 290.600 C 235.420 290.464,235.600 289.643,235.600 288.776 C 235.600 287.909,235.780 287.200,236.000 287.200 C 236.224 287.200,236.400 286.093,236.400 284.680 C 236.400 283.294,236.568 281.989,236.773 281.780 C 237.493 281.046,238.282 262.522,237.621 261.861 C 237.384 261.624,237.200 259.732,237.200 257.520 C 237.200 255.173,237.039 253.600,236.800 253.600 C 236.575 253.600,236.400 252.475,236.400 251.024 C 236.400 249.607,236.220 248.336,236.000 248.200 C 235.780 248.064,235.600 247.243,235.600 246.376 C 235.600 245.509,235.420 244.800,235.200 244.800 C 234.980 244.800,234.800 244.181,234.800 243.424 C 234.800 242.667,234.620 241.936,234.400 241.800 C 234.180 241.664,234.000 240.944,234.000 240.200 C 234.000 239.456,233.820 238.736,233.600 238.600 C 233.380 238.464,233.200 237.834,233.200 237.200 C 233.200 236.566,233.020 235.936,232.800 235.800 C 232.580 235.664,232.400 235.203,232.400 234.776 C 232.400 234.349,232.220 234.000,232.000 234.000 C 231.780 234.000,231.600 233.820,231.600 233.600 C 231.600 233.380,231.960 233.200,232.400 233.200 C 232.840 233.200,233.200 233.380,233.200 233.600 C 233.200 233.820,233.549 234.000,233.976 234.000 C 234.403 234.000,234.864 234.180,235.000 234.400 C 235.136 234.620,235.687 234.800,236.224 234.800 C 236.761 234.800,237.200 234.980,237.200 235.200 C 237.200 235.420,237.639 235.600,238.176 235.600 C 238.713 235.600,239.264 235.780,239.400 236.000 C 239.536 236.220,239.997 236.400,240.424 236.400 C 240.851 236.400,241.200 236.580,241.200 236.800 C 241.200 237.020,241.562 237.200,242.005 237.200 C 242.448 237.200,243.123 237.359,243.505 237.553 C 243.887 237.748,244.740 238.129,245.400 238.400 C 246.060 238.671,246.913 239.052,247.295 239.247 C 247.677 239.441,248.352 239.600,248.795 239.600 C 249.238 239.600,249.600 239.741,249.600 239.913 C 249.600 242.710,265.467 241.704,268.047 238.743 C 268.403 238.334,268.903 238.000,269.159 238.000 C 269.416 238.000,269.742 237.685,269.885 237.300 C 270.028 236.915,270.452 236.326,270.827 235.992 C 271.794 235.131,273.200 232.522,273.200 231.588 C 273.200 231.155,273.380 230.800,273.600 230.800 C 273.820 230.800,274.000 230.462,274.000 230.049 C 274.000 229.636,274.246 229.094,274.547 228.844 C 275.154 228.340,275.425 228.585,276.384 230.500 C 276.687 231.105,277.085 231.600,277.268 231.600 C 277.450 231.600,277.600 231.920,277.600 232.312 C 277.600 232.703,277.960 233.283,278.400 233.600 C 278.840 233.917,279.200 234.393,279.200 234.658 C 279.200 235.619,286.385 242.400,287.403 242.400 C 287.731 242.400,288.000 242.580,288.000 242.800 C 288.000 243.020,288.360 243.200,288.800 243.200 C 289.240 243.200,289.600 243.380,289.600 243.600 C 289.600 243.820,289.960 244.000,290.400 244.000 C 290.840 244.000,291.201 244.135,291.203 244.300 C 291.207 244.706,293.186 245.600,294.080 245.600 C 294.476 245.600,294.800 245.780,294.800 246.000 C 294.800 246.220,295.329 246.400,295.976 246.400 C 296.623 246.400,297.264 246.580,297.400 246.800 C 297.548 247.039,300.196 247.200,304.000 247.200 C 307.804 247.200,310.452 247.039,310.600 246.800 C 310.736 246.580,311.467 246.400,312.224 246.400 C 312.981 246.400,313.600 246.220,313.600 246.000 C 313.600 245.780,314.140 245.600,314.800 245.600 C 315.460 245.600,316.000 245.420,316.000 245.200 C 316.000 244.980,316.360 244.800,316.800 244.800 C 317.240 244.800,317.600 244.620,317.600 244.400 C 317.600 244.180,317.960 244.000,318.400 244.000 C 318.840 244.000,319.200 243.820,319.200 243.600 C 319.200 243.380,319.520 243.200,319.912 243.200 C 320.303 243.200,320.883 242.840,321.200 242.400 C 321.517 241.960,322.065 241.600,322.417 241.600 C 322.770 241.600,323.897 240.700,324.923 239.600 C 325.948 238.500,326.970 237.600,327.194 237.600 C 327.417 237.600,327.600 237.418,327.600 237.196 C 327.600 236.974,328.140 236.228,328.800 235.537 C 329.460 234.846,330.000 234.078,330.000 233.829 C 330.000 233.580,330.360 233.117,330.800 232.800 C 331.240 232.483,331.600 231.991,331.600 231.706 C 331.600 231.422,331.780 230.832,332.000 230.395 C 332.220 229.958,332.580 229.242,332.800 228.805 C 333.020 228.368,333.200 227.738,333.200 227.405 C 333.200 227.072,333.380 226.800,333.600 226.800 C 333.820 226.800,334.000 226.170,334.000 225.400 C 334.000 224.630,334.180 224.000,334.400 224.000 C 334.620 224.000,334.800 223.111,334.800 222.024 C 334.800 220.937,334.980 219.936,335.200 219.800 C 335.420 219.664,335.600 218.044,335.600 216.200 C 335.600 214.356,335.420 212.736,335.200 212.600 C 334.980 212.464,334.800 211.283,334.800 209.976 C 334.800 208.659,334.622 207.600,334.400 207.600 C 334.180 207.600,334.000 206.700,334.000 205.600 C 334.000 203.631,335.015 202.729,335.800 204.000 C 335.936 204.220,336.836 204.400,337.800 204.400 C 338.764 204.400,339.664 204.580,339.800 204.800 C 339.936 205.020,340.811 205.200,341.744 205.200 C 342.677 205.200,343.611 205.363,343.820 205.561 C 344.029 205.760,345.010 206.021,346.000 206.142 C 346.990 206.263,348.880 206.576,350.200 206.838 C 354.693 207.728,370.001 207.369,370.626 206.358 C 370.748 206.161,371.276 206.000,371.800 206.000 C 372.324 206.000,372.864 205.820,373.000 205.600 C 373.136 205.380,373.687 205.200,374.224 205.200 C 374.761 205.200,375.200 205.020,375.200 204.800 C 375.200 204.580,375.560 204.400,376.000 204.400 C 376.440 204.400,376.800 204.220,376.800 204.000 C 376.800 203.780,377.160 203.600,377.600 203.600 C 378.040 203.600,378.400 203.420,378.400 203.200 C 378.400 202.980,378.760 202.800,379.200 202.800 C 379.640 202.800,380.000 202.620,380.000 202.400 C 380.000 202.180,380.320 202.000,380.712 202.000 C 381.103 202.000,381.683 201.640,382.000 201.200 C 382.317 200.760,382.821 200.400,383.120 200.400 C 383.418 200.400,384.354 199.680,385.200 198.800 C 386.046 197.920,386.869 197.200,387.031 197.200 C 387.411 197.200,390.022 194.449,390.800 193.230 C 391.130 192.713,391.805 191.873,392.300 191.363 C 392.795 190.853,393.200 190.331,393.200 190.201 C 393.200 190.072,393.560 189.580,394.000 189.108 C 394.440 188.636,394.800 188.013,394.800 187.725 C 394.800 187.436,394.980 187.200,395.200 187.200 C 395.420 187.200,395.600 186.840,395.600 186.400 C 395.600 185.960,395.780 185.600,396.000 185.600 C 396.220 185.600,396.400 185.240,396.400 184.800 C 396.400 184.360,396.580 184.000,396.800 184.000 C 397.020 184.000,397.200 183.640,397.200 183.200 C 397.200 182.760,397.380 182.400,397.600 182.400 C 397.820 182.400,398.000 181.860,398.000 181.200 C 398.000 180.540,398.180 180.000,398.400 180.000 C 398.620 180.000,398.800 179.475,398.800 178.833 C 398.800 178.192,399.016 177.595,399.281 177.506 C 399.962 177.279,400.234 161.160,399.620 157.400 C 398.790 152.318,398.715 152.000,398.356 152.000 C 398.160 152.000,398.000 151.640,398.000 151.200 C 398.000 150.760,397.820 150.400,397.600 150.400 C 397.380 150.400,397.200 149.860,397.200 149.200 C 397.200 148.540,397.020 148.000,396.800 148.000 C 396.580 148.000,396.400 147.722,396.400 147.383 C 396.400 147.044,396.040 146.380,395.600 145.908 C 395.160 145.436,394.800 144.813,394.800 144.525 C 394.800 144.236,394.620 144.000,394.400 144.000 C 394.180 144.000,394.000 143.770,394.000 143.488 C 394.000 143.207,393.640 142.717,393.200 142.400 C 392.760 142.083,392.400 141.594,392.400 141.315 C 392.400 140.370,385.559 133.200,384.658 133.200 C 384.393 133.200,383.917 132.840,383.600 132.400 C 383.283 131.960,382.786 131.600,382.495 131.600 C 382.204 131.600,381.580 131.240,381.108 130.800 C 380.636 130.360,380.013 130.000,379.725 130.000 C 379.436 130.000,379.200 129.820,379.200 129.600 C 379.200 129.380,378.840 129.200,378.400 129.200 C 377.960 129.200,377.600 129.020,377.600 128.800 C 377.600 128.580,377.328 128.400,376.996 128.400 C 376.663 128.400,375.628 128.057,374.696 127.637 C 373.763 127.217,372.460 126.758,371.800 126.615 C 371.140 126.473,369.790 126.181,368.800 125.966 C 366.026 125.363,360.589 124.860,356.500 124.828 C 354.319 124.812,352.800 124.636,352.800 124.400 C 352.800 124.158,351.067 124.000,348.400 124.000 C 345.733 124.000,344.000 123.842,344.000 123.600 C 344.000 123.377,342.924 123.200,341.571 123.200 C 338.980 123.200,337.545 122.446,338.313 121.489 C 339.244 120.328,340.018 109.458,339.226 108.666 C 338.436 107.876,338.792 106.363,340.200 104.518 C 340.970 103.510,341.600 102.351,341.600 101.942 C 341.600 101.534,341.780 101.200,342.000 101.200 C 342.220 101.200,342.400 100.840,342.400 100.400 C 342.400 99.960,342.580 99.600,342.800 99.600 C 343.020 99.600,343.200 99.240,343.200 98.800 C 343.200 98.360,343.380 98.000,343.600 98.000 C 343.820 98.000,344.000 97.640,344.000 97.200 C 344.000 96.760,344.180 96.400,344.400 96.400 C 344.620 96.400,344.800 95.680,344.800 94.800 C 344.800 93.920,344.980 93.200,345.200 93.200 C 345.420 93.200,345.600 92.761,345.600 92.224 C 345.600 91.687,345.780 91.136,346.000 91.000 C 346.220 90.864,346.400 89.773,346.400 88.576 C 346.400 87.379,346.580 86.400,346.800 86.400 C 347.049 86.400,347.200 84.067,347.200 80.200 C 347.200 76.333,347.049 74.000,346.800 74.000 C 346.580 74.000,346.400 73.100,346.400 72.000 C 346.400 70.900,346.220 70.000,346.000 70.000 C 345.780 70.000,345.600 69.370,345.600 68.600 C 345.600 67.830,345.420 67.200,345.200 67.200 C 344.980 67.200,344.800 66.750,344.800 66.200 C 344.800 65.650,344.620 65.200,344.400 65.200 C 344.180 65.200,344.000 64.857,344.000 64.438 C 344.000 63.766,342.541 60.534,341.996 60.000 C 341.884 59.890,341.438 59.125,341.005 58.300 C 340.572 57.475,340.079 56.800,339.909 56.800 C 339.739 56.800,339.600 56.541,339.600 56.225 C 339.600 55.590,332.636 48.400,332.021 48.400 C 331.809 48.400,331.186 47.950,330.636 47.400 C 330.086 46.850,329.398 46.400,329.106 46.400 C 328.815 46.400,328.317 46.040,328.000 45.600 C 327.683 45.160,327.103 44.800,326.712 44.800 C 326.320 44.800,326.000 44.620,326.000 44.400 C 326.000 44.180,325.764 44.000,325.475 44.000 C 325.186 44.000,324.151 43.612,323.175 43.139 C 321.078 42.121,319.232 41.585,316.900 41.316 C 315.965 41.208,315.200 40.958,315.200 40.760 C 315.200 40.562,313.580 40.400,311.600 40.400 C 309.467 40.400,308.000 40.237,308.000 40.000 C 308.000 39.774,306.867 39.600,305.400 39.600 C 303.933 39.600,302.800 39.774,302.800 40.000 C 302.800 40.229,301.600 40.400,300.000 40.400 C 298.400 40.400,297.200 40.571,297.200 40.800 C 297.200 41.020,296.739 41.200,296.175 41.200 C 295.013 41.200,291.196 42.339,290.620 42.858 C 290.411 43.046,289.916 43.200,289.520 43.200 C 289.124 43.200,288.800 43.380,288.800 43.600 C 288.800 43.820,288.564 44.000,288.275 44.000 C 287.753 44.000,285.596 44.930,282.662 46.419 C 281.816 46.849,280.871 47.200,280.562 47.200 C 280.253 47.200,280.000 47.380,280.000 47.600 C 280.000 47.820,279.640 48.000,279.200 48.000 C 278.760 48.000,278.400 48.146,278.400 48.325 C 278.400 48.504,277.770 48.898,277.000 49.200 C 276.230 49.502,275.600 49.896,275.600 50.075 C 275.600 50.254,275.240 50.400,274.800 50.400 C 274.360 50.400,274.000 50.580,274.000 50.800 C 274.000 51.020,273.640 51.200,273.200 51.200 C 272.760 51.200,272.400 51.380,272.400 51.600 C 272.400 51.820,272.128 52.000,271.795 52.000 C 271.462 52.000,270.832 52.180,270.395 52.400 C 269.958 52.620,269.242 52.980,268.805 53.200 C 268.368 53.420,267.753 53.600,267.439 53.600 C 267.124 53.600,266.792 53.823,266.701 54.096 C 266.484 54.747,265.200 53.511,265.200 52.652 C 265.200 52.319,265.020 51.936,264.800 51.800 C 264.580 51.664,264.400 50.933,264.400 50.176 C 264.400 49.419,264.220 48.800,264.000 48.800 C 263.780 48.800,263.600 48.440,263.600 48.000 C 263.600 47.560,263.420 47.200,263.200 47.200 C 262.980 47.200,262.800 46.840,262.800 46.400 C 262.800 45.960,262.620 45.600,262.400 45.600 C 262.180 45.600,262.000 45.364,262.000 45.075 C 262.000 44.787,261.640 44.164,261.200 43.692 C 260.760 43.220,260.400 42.724,260.400 42.591 C 260.400 42.192,256.153 38.000,255.749 38.000 C 255.544 38.000,255.117 37.640,254.800 37.200 C 254.483 36.760,253.903 36.400,253.512 36.400 C 253.120 36.400,252.800 36.220,252.800 36.000 C 252.800 35.780,252.440 35.600,252.000 35.600 C 251.560 35.600,251.200 35.420,251.200 35.200 C 251.200 34.980,250.840 34.800,250.400 34.800 C 249.960 34.800,249.600 34.620,249.600 34.400 C 249.600 34.180,249.060 34.000,248.400 34.000 C 247.740 34.000,247.200 33.820,247.200 33.600 C 247.200 33.378,246.141 33.200,244.824 33.200 C 243.517 33.200,242.336 33.020,242.200 32.800 C 242.062 32.577,240.196 32.400,237.976 32.400 C 235.592 32.400,234.000 32.560,234.000 32.800 M243.236 47.611 C 247.559 48.898,249.601 51.236,251.610 57.200 C 253.751 63.555,257.353 66.936,263.538 68.394 C 267.564 69.343,269.403 68.785,282.111 62.750 C 296.722 55.811,298.218 55.172,301.600 54.420 C 305.084 53.645,311.887 54.045,314.600 55.183 C 315.040 55.368,316.030 55.749,316.800 56.029 C 322.034 57.937,331.200 67.180,331.200 70.551 C 331.200 70.804,331.572 71.999,332.027 73.206 C 334.544 79.882,332.458 90.863,327.431 97.400 C 326.165 99.046,325.628 99.556,322.200 102.371 C 320.326 103.910,314.217 107.200,313.234 107.200 C 312.989 107.200,312.477 107.366,312.095 107.568 C 311.362 107.956,309.866 108.516,302.400 111.195 C 295.780 113.571,293.652 114.958,291.342 118.400 C 286.896 125.027,288.008 132.355,294.539 139.466 C 297.141 142.300,298.191 143.945,299.549 147.319 C 300.078 148.631,300.157 155.695,299.654 156.705 C 299.464 157.087,298.839 158.398,298.265 159.619 C 296.540 163.286,290.966 168.000,288.356 168.000 C 287.966 168.000,287.536 168.180,287.400 168.400 C 287.061 168.948,279.904 168.907,278.519 168.349 C 277.903 168.101,275.960 167.229,274.200 166.412 C 265.177 162.220,259.157 162.706,253.957 168.044 C 250.709 171.379,248.670 177.158,249.599 180.398 C 250.748 184.402,250.048 185.671,246.400 186.199 C 245.410 186.343,243.700 186.625,242.600 186.826 C 241.500 187.028,239.520 187.376,238.200 187.600 C 236.880 187.824,234.900 188.171,233.800 188.370 C 232.700 188.569,230.675 188.927,229.300 189.166 C 227.925 189.405,225.675 189.795,224.300 190.034 C 222.925 190.273,220.900 190.631,219.800 190.830 C 218.700 191.029,216.720 191.376,215.400 191.600 C 214.080 191.824,212.010 192.190,210.800 192.412 C 209.590 192.635,207.700 192.920,206.600 193.047 L 204.600 193.276 196.600 185.228 C 192.200 180.801,188.544 177.015,188.475 176.814 C 188.284 176.259,195.418 165.782,197.200 164.000 C 197.310 163.890,198.023 162.990,198.784 162.000 C 208.238 149.708,227.184 133.773,244.200 123.802 C 249.472 120.713,262.328 114.000,262.973 114.000 C 263.103 114.000,263.972 113.657,264.904 113.238 C 265.837 112.820,267.405 112.145,268.388 111.738 C 275.345 108.866,277.488 105.200,274.826 100.723 C 272.573 96.933,269.147 96.852,261.393 100.403 C 259.956 101.061,258.664 101.600,258.522 101.600 C 257.862 101.600,244.388 108.488,239.200 111.478 C 230.376 116.562,226.758 118.931,218.453 125.063 C 205.247 134.814,189.415 151.089,181.045 163.518 C 179.970 165.114,178.927 166.522,178.726 166.646 C 178.526 166.769,174.697 163.168,170.218 158.643 L 162.074 150.415 162.251 148.707 C 162.348 147.768,162.601 145.695,162.814 144.100 C 163.026 142.505,163.374 139.895,163.587 138.300 C 163.800 136.705,164.168 133.870,164.404 132.000 C 165.495 123.356,165.665 122.038,165.998 119.600 C 166.194 118.170,166.559 115.200,166.809 113.000 C 168.848 95.087,177.349 87.310,192.661 89.350 C 202.623 90.678,209.209 86.354,211.170 77.200 C 211.429 75.990,211.797 74.280,211.988 73.400 C 212.179 72.520,212.555 70.720,212.824 69.400 C 215.994 53.837,230.131 43.708,243.236 47.611 M324.078 121.115 C 323.600 131.123,329.363 136.612,341.400 137.612 C 343.820 137.813,347.780 138.166,350.200 138.398 C 352.620 138.629,356.490 138.983,358.800 139.184 C 361.110 139.385,363.450 139.662,364.000 139.799 C 364.550 139.937,365.810 140.248,366.800 140.491 C 386.897 145.419,393.019 172.449,377.239 186.581 C 372.065 191.214,363.669 194.168,358.002 193.350 C 356.791 193.175,355.530 193.063,355.200 193.102 C 354.618 193.170,351.972 192.681,342.400 190.735 C 326.155 187.433,316.747 195.776,320.394 210.249 C 323.288 221.737,317.604 231.276,306.747 233.149 C 299.901 234.330,294.118 231.220,288.973 223.589 C 284.677 217.218,281.685 215.120,276.156 214.601 C 269.639 213.988,263.075 218.241,260.863 224.507 C 259.551 228.223,259.129 228.360,254.463 226.582 C 247.415 223.897,238.214 220.344,237.200 219.915 C 235.969 219.395,235.463 219.200,231.200 217.600 C 229.330 216.898,227.395 216.161,226.900 215.962 C 226.405 215.763,225.595 215.445,225.100 215.255 C 221.712 213.958,221.341 213.644,218.689 209.825 C 215.510 205.245,215.458 204.977,217.700 204.674 C 219.628 204.414,223.157 203.831,226.400 203.237 C 228.422 202.868,234.710 201.762,240.600 200.742 C 241.920 200.513,243.900 200.181,245.000 200.004 C 246.100 199.827,247.720 199.564,248.600 199.420 C 258.872 197.741,264.472 190.936,263.159 181.730 C 262.408 176.467,263.199 175.993,268.490 178.535 C 270.531 179.515,272.830 180.499,273.600 180.722 C 274.370 180.945,275.630 181.310,276.400 181.532 C 282.036 183.161,290.677 182.181,296.615 179.238 C 303.393 175.880,309.950 168.733,311.777 162.712 C 314.443 153.928,314.328 148.629,311.288 140.200 C 310.034 136.722,308.306 134.060,304.948 130.433 C 301.382 126.581,301.667 125.589,306.800 124.010 C 307.790 123.705,308.780 123.341,309.000 123.200 C 309.220 123.059,310.210 122.699,311.200 122.400 C 312.190 122.101,313.180 121.741,313.400 121.600 C 313.620 121.459,314.610 121.100,315.600 120.802 C 316.590 120.505,317.571 120.112,317.780 119.930 C 317.989 119.749,318.439 119.590,318.780 119.577 C 319.121 119.564,320.300 119.121,321.400 118.591 C 324.308 117.192,324.268 117.154,324.078 121.115 M112.800 141.140 C 135.924 145.490,142.938 150.185,176.017 183.461 C 204.315 211.928,210.103 218.790,215.269 230.000 C 217.172 234.131,217.971 236.047,218.770 238.400 C 219.255 239.830,219.811 241.360,220.005 241.800 C 220.633 243.229,222.698 252.500,223.256 256.400 C 225.081 269.153,222.707 289.203,218.213 299.000 C 217.910 299.660,217.307 301.104,216.873 302.208 C 211.571 315.701,199.335 330.471,186.252 339.172 C 184.740 340.178,183.300 341.136,183.052 341.302 C 178.351 344.446,166.190 349.500,160.200 350.799 C 150.446 352.913,147.987 353.200,139.600 353.200 C 131.516 353.200,126.933 352.714,120.000 351.122 C 112.027 349.290,101.140 344.653,93.471 339.823 C 91.529 338.600,89.883 337.600,89.811 337.600 C 89.740 337.600,88.538 336.914,87.141 336.076 C 85.743 335.237,83.970 334.266,83.200 333.918 C 82.430 333.570,80.939 332.898,79.886 332.426 C 69.059 327.569,53.027 325.638,41.867 327.846 C 37.981 328.615,38.132 328.824,39.000 323.905 C 41.625 309.019,37.914 290.539,29.563 276.915 C 19.051 259.766,15.830 251.139,13.613 234.200 C 12.727 227.425,13.493 214.741,15.196 208.000 C 15.390 207.230,15.764 205.700,16.027 204.600 C 18.261 195.244,25.972 179.111,30.492 174.337 C 30.771 174.041,31.775 172.780,32.722 171.534 C 45.136 155.203,65.749 143.685,88.400 140.423 C 92.825 139.786,107.968 140.230,112.800 141.140 M46.919 186.125 C 43.968 188.141,43.120 192.180,45.046 195.044 C 45.622 195.900,51.994 202.540,59.207 209.800 C 66.419 217.060,74.814 225.537,77.860 228.639 C 84.469 235.366,85.400 236.060,87.918 236.140 C 93.160 236.306,96.445 230.922,93.762 226.562 C 92.713 224.858,55.758 187.425,53.909 186.193 C 51.937 184.880,48.786 184.850,46.919 186.125 M160.916 204.786 C 158.255 206.409,157.179 210.848,158.802 213.510 C 159.241 214.231,165.775 221.071,173.321 228.710 C 180.867 236.350,189.732 245.331,193.021 248.668 C 198.690 254.422,199.098 254.750,200.895 255.013 C 206.494 255.830,210.529 250.765,208.196 245.847 C 207.863 245.147,198.548 235.437,187.496 224.271 L 167.400 203.969 164.800 203.986 C 162.946 203.998,161.831 204.228,160.916 204.786 M37.769 214.808 C 34.603 216.375,33.355 220.905,35.302 223.770 C 36.698 225.824,74.045 263.590,75.400 264.317 C 80.977 267.310,87.178 261.464,84.345 255.884 C 83.638 254.491,68.772 239.214,46.200 216.682 C 43.434 213.921,40.762 213.327,37.769 214.808 M151.569 233.710 C 148.423 235.830,147.474 239.491,149.302 242.457 C 150.656 244.655,188.355 282.683,189.773 283.282 C 195.479 285.692,201.271 280.013,198.546 274.680 C 198.186 273.976,189.924 265.390,180.186 255.600 C 170.448 245.810,162.009 237.229,161.432 236.532 C 158.508 232.998,154.378 231.816,151.569 233.710 " stroke="none" fill="#040404" fill-rule="evenodd"></path><path id="path4" d="M88.400 140.423 C 65.749 143.685,45.136 155.203,32.722 171.534 C 31.775 172.780,30.771 174.041,30.492 174.337 C 25.972 179.111,18.261 195.244,16.027 204.600 C 15.764 205.700,15.390 207.230,15.196 208.000 C 13.493 214.741,12.727 227.425,13.613 234.200 C 15.830 251.139,19.051 259.766,29.563 276.915 C 37.914 290.539,41.625 309.019,39.000 323.905 C 38.139 328.786,38.029 328.609,41.463 327.871 C 44.052 327.315,44.106 327.281,42.474 327.242 C 41.524 327.219,40.381 327.396,39.933 327.636 C 39.149 328.056,39.127 327.991,39.352 325.936 C 40.603 314.509,40.290 304.619,38.447 297.400 C 38.223 296.520,37.860 294.990,37.641 294.000 C 36.756 290.003,31.690 278.122,30.482 277.213 C 30.077 276.908,28.790 274.726,28.529 273.900 C 28.407 273.515,28.148 273.200,27.953 273.200 C 27.759 273.200,27.600 273.003,27.600 272.762 C 27.600 272.521,27.261 271.846,26.847 271.262 C 22.794 265.549,17.508 252.670,15.985 244.800 C 15.793 243.810,15.447 242.100,15.214 241.000 C 14.075 235.609,13.667 225.578,14.312 218.800 C 14.889 212.741,15.287 210.338,16.733 204.200 C 18.428 197.005,22.983 186.442,26.857 180.722 C 27.706 179.469,28.400 178.254,28.400 178.022 C 28.400 177.790,28.541 177.600,28.714 177.600 C 28.886 177.600,29.343 177.067,29.728 176.415 C 30.113 175.763,30.653 174.998,30.927 174.715 C 31.202 174.432,31.861 173.570,32.393 172.800 C 34.539 169.693,43.969 160.269,47.200 158.004 C 47.970 157.464,48.939 156.711,49.354 156.331 C 51.513 154.352,55.206 153.676,65.800 153.320 C 86.523 152.622,107.283 159.617,124.000 172.930 C 129.720 177.485,158.400 206.453,157.975 207.247 C 157.245 208.611,157.523 212.966,158.400 213.908 C 158.840 214.380,159.200 214.877,159.200 215.012 C 159.200 215.322,157.712 213.798,175.442 231.652 C 191.426 247.747,191.507 247.845,193.688 253.795 C 196.512 261.498,199.482 273.200,198.613 273.200 C 198.440 273.200,191.084 265.798,166.360 240.748 C 158.078 232.356,156.662 231.468,153.100 232.427 C 148.007 233.798,146.292 239.428,149.635 243.800 C 153.937 249.426,188.968 283.877,190.920 284.400 C 193.459 285.081,195.455 284.487,197.655 282.394 C 199.927 280.232,200.000 280.396,200.000 287.647 C 200.000 293.578,199.860 295.272,198.782 302.400 C 196.348 318.491,187.438 338.584,181.400 341.599 C 180.740 341.929,180.110 342.299,180.000 342.422 C 179.545 342.929,172.723 346.018,169.000 347.402 C 154.773 352.691,137.594 354.151,123.600 351.259 C 122.610 351.055,120.900 350.701,119.800 350.473 C 118.700 350.245,115.554 349.321,112.808 348.419 C 108.515 347.009,106.491 346.165,100.000 343.077 C 99.450 342.815,98.910 342.511,98.800 342.401 C 98.406 342.005,96.187 340.746,95.500 340.529 C 95.115 340.407,94.800 340.148,94.800 339.953 C 94.800 339.759,94.607 339.600,94.372 339.600 C 94.137 339.600,93.192 339.082,92.272 338.450 C 88.893 336.125,79.436 331.200,78.353 331.200 C 78.153 331.200,77.677 331.037,77.295 330.837 C 76.625 330.487,73.714 329.540,70.800 328.725 C 68.403 328.054,65.490 327.548,63.200 327.404 C 61.990 327.328,61.450 327.347,62.000 327.446 C 69.072 328.716,75.777 330.583,79.886 332.426 C 80.939 332.898,82.430 333.570,83.200 333.918 C 83.970 334.266,85.743 335.237,87.141 336.076 C 88.538 336.914,89.740 337.600,89.811 337.600 C 89.883 337.600,91.529 338.600,93.471 339.823 C 101.140 344.653,112.027 349.290,120.000 351.122 C 126.933 352.714,131.516 353.200,139.600 353.200 C 147.987 353.200,150.446 352.913,160.200 350.799 C 166.190 349.500,178.351 344.446,183.052 341.302 C 183.300 341.136,184.740 340.178,186.252 339.172 C 199.335 330.471,211.571 315.701,216.873 302.208 C 217.307 301.104,217.910 299.660,218.213 299.000 C 222.707 289.203,225.081 269.153,223.256 256.400 C 222.698 252.500,220.633 243.229,220.005 241.800 C 219.811 241.360,219.255 239.830,218.770 238.400 C 217.971 236.047,217.172 234.131,215.269 230.000 C 210.103 218.790,204.315 211.928,176.017 183.461 C 149.038 156.321,145.712 153.514,133.866 147.878 C 120.733 141.631,101.693 138.509,88.400 140.423 M49.400 184.588 C 49.180 184.666,48.538 184.831,47.974 184.954 C 44.227 185.772,42.185 191.960,44.526 195.405 C 46.028 197.615,83.753 235.452,85.202 236.201 C 87.952 237.623,94.000 235.958,94.000 233.780 C 94.000 233.461,94.180 233.200,94.400 233.200 C 94.620 233.200,94.800 232.838,94.800 232.395 C 94.800 231.952,95.015 231.245,95.278 230.824 C 95.648 230.231,95.648 229.823,95.278 229.011 C 95.015 228.434,94.800 227.703,94.800 227.386 C 94.800 226.319,91.489 222.848,66.954 198.193 C 53.257 184.431,52.182 183.597,49.400 184.588 M53.909 186.193 C 55.758 187.425,92.713 224.858,93.762 226.562 C 96.445 230.922,93.160 236.306,87.918 236.140 C 85.400 236.060,84.469 235.366,77.860 228.639 C 74.814 225.537,66.419 217.060,59.207 209.800 C 51.994 202.540,45.622 195.900,45.046 195.044 C 41.245 189.391,48.232 182.413,53.909 186.193 M187.496 224.271 C 198.548 235.437,207.863 245.147,208.196 245.847 C 210.529 250.765,206.494 255.830,200.895 255.013 C 199.098 254.750,198.690 254.422,193.021 248.668 C 189.732 245.331,180.867 236.350,173.321 228.710 C 158.575 213.782,158.004 213.103,158.001 210.484 C 157.998 206.441,160.537 204.014,164.800 203.986 L 167.400 203.969 187.496 224.271 M38.146 214.032 C 34.077 215.597,32.509 220.520,34.907 224.202 C 37.185 227.702,74.877 265.019,76.646 265.527 C 82.630 267.246,87.968 260.489,84.770 255.244 C 84.027 254.025,77.634 247.465,52.774 222.412 C 43.318 212.883,42.441 212.380,38.146 214.032 M43.313 214.542 C 44.021 214.841,45.320 215.803,46.200 216.682 C 68.772 239.214,83.638 254.491,84.345 255.884 C 87.178 261.464,80.977 267.310,75.400 264.317 C 74.045 263.590,36.698 225.824,35.302 223.770 C 31.910 218.777,37.656 212.159,43.313 214.542 M158.523 234.032 C 159.546 234.710,160.855 235.835,161.432 236.532 C 162.009 237.229,170.448 245.810,180.186 255.600 C 189.924 265.390,198.186 273.976,198.546 274.680 C 201.271 280.013,195.479 285.692,189.773 283.282 C 188.355 282.683,150.656 244.655,149.302 242.457 C 145.700 236.611,152.725 230.192,158.523 234.032 M44.662 326.700 C 44.560 326.865,48.183 327.014,52.714 327.032 C 57.244 327.049,60.602 326.927,60.175 326.760 C 59.163 326.364,44.904 326.309,44.662 326.700 " stroke="none" fill="#ab1453" fill-rule="evenodd"></path></g></svg>