<svg id="Layer_1" enable-background="new 0 0 497 497" height="512" viewBox="0 0 497 497" width="512" xmlns="http://www.w3.org/2000/svg"><g><g><g><path d="m497 47.958c0-26.487-57.473-47.958-137.957-47.958h-49.297c0 8.989 1.006 261.496 1.006 261.496h168.902c9.294 0 16.563-8.04 15.658-17.321l-16.732-171.628c11.693-7.19 18.42-15.6 18.42-24.589z" fill="#f0a346"/><path d="m456.257 47.958c0-26.487-58.346-47.958-130.318-47.958s-130.319 21.471-130.319 47.958c0 8.989 6.727 17.399 18.42 24.59l-16.731 171.627c-.905 9.28 6.364 17.321 15.658 17.321h225.943c9.294 0 16.563-8.04 15.658-17.321l-16.731-171.628c11.693-7.19 18.42-15.6 18.42-24.589z" fill="#fff4db"/><path d="m437.837 72.547c11.693-7.19 18.42-15.6 18.42-24.59 0-26.486-58.346-47.957-130.319-47.957-6.801 0-13.48.192-20 .562 62.478 3.541 110.318 23.412 110.318 47.396 0 8.989-6.727 17.399-18.42 24.59l16.731 171.628c.905 9.28-6.364 17.321-15.658 17.321h40c9.294 0 16.563-8.04 15.658-17.321z" fill="#ffecbf"/></g><g><path d="m399.19 165.71c0-26.486-57.473-47.958-137.957-47.958h-49.297c0 8.989 1.006 261.496 1.006 261.496h168.902c9.294 0 16.563-8.04 15.658-17.321l-16.732-171.628c11.693-7.19 18.42-15.6 18.42-24.589z" fill="#f0a346"/><path d="m358.447 165.71c0-26.486-58.345-47.958-130.318-47.958s-130.319 21.472-130.319 47.958c0 8.989 6.727 17.399 18.42 24.59l-16.731 171.627c-.905 9.28 6.364 17.321 15.658 17.321h225.943c9.294 0 16.563-8.04 15.658-17.321l-16.731-171.627c11.693-7.191 18.42-15.601 18.42-24.59z" fill="#ffe7b0"/><path d="m340.027 190.299c11.693-7.19 18.42-15.601 18.42-24.59 0-26.486-58.345-47.958-130.318-47.958-6.801 0-13.48.192-20 .562 62.478 3.541 110.318 23.412 110.318 47.396 0 8.989-6.727 17.399-18.42 24.59l16.731 171.627c.905 9.28-6.364 17.321-15.658 17.321h40c9.294 0 16.563-8.04 15.658-17.321z" fill="#ffdb87"/></g><g><path d="m301.38 283.462c0-26.486-57.473-47.958-137.957-47.958h-49.297c0 8.989 1.006 261.496 1.006 261.496h168.902c9.294 0 16.563-8.04 15.658-17.321l-16.732-171.627c11.693-7.191 18.42-15.601 18.42-24.59z" fill="#f0a346"/><path d="m260.636 283.462c0-26.486-58.345-47.958-130.318-47.958s-130.318 21.472-130.318 47.958c0 8.989 6.727 17.399 18.42 24.59l-16.731 171.627c-.905 9.281 6.363 17.321 15.657 17.321h225.944c9.294 0 16.563-8.04 15.658-17.321l-16.731-171.628c11.692-7.19 18.419-15.6 18.419-24.589z" fill="#fff4db"/><path d="m242.217 308.052c11.693-7.19 18.42-15.601 18.42-24.59 0-26.486-58.345-47.958-130.318-47.958-6.801 0-13.48.192-20 .562 62.478 3.541 110.318 23.412 110.318 47.396 0 8.989-6.727 17.399-18.42 24.59l16.731 171.628c.905 9.28-6.364 17.321-15.658 17.321h40c9.294 0 16.563-8.04 15.658-17.321z" fill="#ffecbf"/></g></g><g><path d="m60.5 298c9.652 0 9.668-15 0-15-9.652 0-9.668 15 0 15z" fill="#edcb7e"/></g><g><path d="m179.5 339c9.652 0 9.668-15 0-15-9.652 0-9.668 15 0 15z" fill="#edcb7e"/></g><g><path d="m111.5 384c9.652 0 9.668-15 0-15-9.652 0-9.668 15 0 15z" fill="#edcb7e"/></g><g><path d="m189.5 446c9.652 0 9.668-15 0-15-9.652 0-9.668 15 0 15z" fill="#edcb7e"/></g><g><path d="m63.5 458c9.652 0 9.668-15 0-15-9.652 0-9.668 15 0 15z" fill="#edcb7e"/></g><g><path d="m168.5 201c9.652 0 9.668-15 0-15-9.652 0-9.668 15 0 15z" fill="#edcb7e"/></g><g><path d="m236.5 165c9.652 0 9.668-15 0-15-9.652 0-9.668 15 0 15z" fill="#edcb7e"/></g><g><path d="m288.5 226c9.652 0 9.668-15 0-15-9.652 0-9.668 15 0 15z" fill="#edcb7e"/></g><g><path d="m261.5 58c9.652 0 9.668-15 0-15-9.652 0-9.668 15 0 15z" fill="#edcb7e"/></g><g><path d="m328.5 91c9.652 0 9.668-15 0-15-9.652 0-9.668 15 0 15z" fill="#edcb7e"/></g><g><path d="m387.5 64c9.652 0 9.668-15 0-15-9.652 0-9.668 15 0 15z" fill="#edcb7e"/></g><g><path d="m420.5 231c9.652 0 9.668-15 0-15-9.652 0-9.668 15 0 15z" fill="#edcb7e"/></g></g></svg>