<svg height="512" viewBox="0 0 64 64" width="512" xmlns="http://www.w3.org/2000/svg"><path d="m33 22h20v20h-20z" fill="#f2f2f2"/><path d="m3 20h20v20h-20z" fill="#e5e5e5"/><path d="m3 20 10-4h20l-10 4z" fill="#ccc"/><path d="m23 20 10-4v19l-10 5z" fill="#b3b3b3"/><path d="m12 28h20v20h-20z" fill="#f2f2f2"/><path d="m12 28 8-4h20l-8 4z" fill="#ccc"/><path d="m32 28 8-4v19.826l-8 4.174z" fill="#e6e6e6"/><path d="m33 22 8-4h20l-8 4z" fill="#ccc"/><g fill="#e6e6e6"><path d="m53 22 8-4v20l-8 4z"/><path d="m26 43h2v2h-2z"/><path d="m16 33h2v2h-2z"/><path d="m14 31h2v2h-2z"/></g><path d="m5 26h2v2h-2z" fill="#ccc"/><path d="m7 22h2v2h-2z" fill="#ccc"/><path d="m28 41h2v2h-2z" fill="#e6e6e6"/><path d="m48 38h2v2h-2z" fill="#e6e6e6"/><path d="m43 34h2v2h-2z" fill="#e6e6e6"/><path d="m48 31h2v2h-2z" fill="#e6e6e6"/></svg>