<svg id="Layer_1" enable-background="new 0 0 256 256" height="512" viewBox="0 0 256 256" width="512" xmlns="http://www.w3.org/2000/svg"><g><g><path d="m80.467 5.537-1.454-1.537-1.454 1.537c-5.191 5.485-8.083 12.749-8.083 20.301h19.076c-.001-7.552-2.894-14.817-8.085-20.301z" fill="#fcc24c"/></g><g><path d="m186.525 4-19.076 10.078v11.76h19.076z" fill="#fcc24c"/></g><g><path d="m186.525 27.837h-19.076c-1.104 0-2-.896-2-2v-11.76c0-.741.41-1.422 1.066-1.768l19.076-10.078c.62-.326 1.367-.306 1.966.056.601.362.968 1.012.968 1.713v21.837c0 1.105-.896 2-2 2zm-17.076-4h15.076v-16.519l-15.076 7.965z" fill="#690589"/></g><g><path d="m88.551 27.837h-19.076c-1.104 0-2-.896-2-2 0-8.097 3.065-15.794 8.631-21.675l1.454-1.537c.754-.799 2.148-.799 2.905 0l1.455 1.537c5.566 5.881 8.631 13.579 8.631 21.675 0 1.105-.896 2-2 2zm-17.004-4h14.932c-.455-6.33-3.065-12.277-7.464-16.926l-.002-.001-.002.001c-4.399 4.649-7.009 10.597-7.464 16.926z" fill="#690589"/></g><g><g><path d="m63.849 86.199 2.676-44.41h24.976l2.676 44.41c.204 3.379 2.097 6.427 5.036 8.107l13.655 7.804c3.126 1.787 5.054 5.111 5.054 8.711v129.439c0 6.483-5.255 11.738-11.738 11.738h-54.342c-6.483 0-11.738-5.255-11.738-11.738v-129.438c0-3.6 1.929-6.924 5.055-8.711l13.654-7.804c2.938-1.68 4.832-4.729 5.036-8.108z" fill="#f4efed"/></g><g><path d="m112.868 102.111-13.655-7.804c-2.939-1.68-4.833-4.728-5.036-8.107l-2.676-44.41h-7.023l2.676 47.42c.204 3.379 2.097 6.428 5.036 8.107l13.655 7.804c3.126 1.787 5.054 5.111 5.054 8.711v126.429c0 6.483-5.255 11.738-11.738 11.738h7.023c6.483 0 11.738-5.255 11.738-11.738v-129.439c0-3.6-1.929-6.924-5.054-8.711z" fill="#d6d1cf"/></g><g><path d="m45.158 102.111 13.655-7.804c2.939-1.68 4.833-4.728 5.036-8.107l2.676-44.41h7.024l-2.676 47.42c-.204 3.379-2.097 6.428-5.036 8.107l-13.654 7.804c-3.126 1.787-5.055 5.111-5.055 8.711v126.429c0 6.483 5.255 11.738 11.738 11.738h-7.023c-6.483 0-11.738-5.255-11.738-11.738v-129.439c-.002-3.6 1.927-6.924 5.053-8.711z" fill="#fff"/></g><g><path d="m40.103 118.339v121.922c0 6.483 5.256 11.738 11.738 11.738h54.342c6.483 0 11.738-5.255 11.738-11.738v-121.922z" fill="#fcc24c"/></g><g><path d="m117.922 240.262v-121.923h-7.023v121.922c0 6.483-5.255 11.738-11.738 11.738h7.023c6.483.001 11.738-5.254 11.738-11.737z" fill="#dea42e"/></g><g><path d="m40.103 240.262v-121.923h7.023v121.922c0 6.483 5.255 11.738 11.739 11.738h-7.024c-6.482.001-11.738-5.254-11.738-11.737z" fill="#fce06a"/></g><g><path d="m90.469 41.789h-22.913c-4.405 0-7.976-3.571-7.976-7.976 0-4.405 3.571-7.976 7.976-7.976h22.913c4.405 0 7.976 3.571 7.976 7.976 0 4.405-3.571 7.976-7.976 7.976z" fill="#f4efed"/></g><g><path d="m106.184 254h-54.342c-7.575 0-13.738-6.163-13.738-13.738v-129.44c0-4.307 2.323-8.31 6.063-10.447l13.653-7.805c2.361-1.35 3.869-3.776 4.033-6.491l2.676-44.41c.064-1.056.938-1.88 1.997-1.88h24.974c1.058 0 1.933.824 1.997 1.88l2.676 44.41c.164 2.715 1.671 5.142 4.032 6.491l13.655 7.805c3.739 2.138 6.062 6.141 6.062 10.447v129.439c0 7.576-6.163 13.739-13.738 13.739zm-37.776-210.211-2.563 42.53v.001c-.246 4.067-2.504 7.702-6.041 9.723l-13.654 7.805c-2.497 1.427-4.047 4.099-4.047 6.975v129.439c0 5.37 4.369 9.738 9.738 9.738h54.342c5.37 0 9.739-4.369 9.739-9.738v-129.44c0-2.875-1.551-5.547-4.047-6.975l-13.655-7.804c-3.537-2.022-5.795-5.657-6.04-9.724l-2.563-42.53zm-4.559 42.41h.01z" fill="#690589"/></g><g><path d="m48.11 152.495c-1.104 0-2-.895-2-2v-12c0-1.104.896-2 2-2s2 .896 2 2v12c0 1.104-.896 2-2 2z" fill="#690589"/></g><g><path d="m90.469 25.838h-7.023c4.405 0 7.976 3.571 7.976 7.976s-3.571 7.976-7.976 7.976h7.023c4.405 0 7.976-3.571 7.976-7.976s-3.571-7.976-7.976-7.976z" fill="#d6d1cf"/></g><g><path d="m67.556 41.789h7.023c-4.405 0-7.976-3.571-7.976-7.976s3.571-7.976 7.976-7.976h-7.023c-4.405 0-7.976 3.571-7.976 7.976.001 4.405 3.572 7.976 7.976 7.976z" fill="#fff"/></g><g><path d="m90.469 43.789h-22.912c-5.501 0-9.976-4.475-9.976-9.976s4.475-9.976 9.976-9.976h22.913c5.5 0 9.976 4.475 9.976 9.976s-4.476 9.976-9.977 9.976zm-22.912-15.951c-3.295 0-5.976 2.681-5.976 5.976s2.681 5.976 5.976 5.976h22.913c3.295 0 5.976-2.681 5.976-5.976s-2.681-5.976-5.976-5.976z" fill="#690589"/></g><g><path d="m117.922 120.339h-77.819c-1.104 0-2-.896-2-2s.896-2 2-2h77.819c1.104 0 2 .896 2 2 0 1.105-.895 2-2 2z" fill="#690589"/></g></g><g><path d="m161.823 86.199 2.676-44.41h24.976l2.676 44.41c.204 3.379 2.097 6.427 5.036 8.107l13.655 7.804c3.126 1.787 5.054 5.111 5.054 8.711v129.439c0 6.483-5.255 11.738-11.738 11.738h-54.342c-6.483 0-11.738-5.255-11.738-11.738v-129.438c0-3.6 1.929-6.924 5.055-8.711l13.654-7.804c2.939-1.68 4.832-4.729 5.036-8.108z" fill="#f4efed"/></g><g><path d="m210.842 102.111-13.655-7.804c-2.939-1.68-4.833-4.728-5.036-8.107l-2.676-44.41h-7.023l2.676 47.42c.204 3.379 2.097 6.428 5.036 8.107l13.655 7.804c3.126 1.787 5.055 5.111 5.055 8.711v126.429c0 6.483-5.256 11.738-11.739 11.738h7.024c6.483 0 11.738-5.255 11.738-11.738v-129.439c-.001-3.6-1.929-6.924-5.055-8.711z" fill="#d6d1cf"/></g><g><path d="m143.132 102.111 13.655-7.804c2.939-1.68 4.833-4.728 5.036-8.107l2.676-44.41h7.023l-2.676 47.42c-.204 3.379-2.097 6.428-5.036 8.107l-13.655 7.804c-3.126 1.787-5.054 5.111-5.054 8.711v126.429c0 6.483 5.255 11.738 11.738 11.738h-7.023c-6.483 0-11.738-5.255-11.738-11.738v-129.439c0-3.6 1.929-6.924 5.054-8.711z" fill="#fff"/></g><g><path d="m138.078 118.339v121.922c0 6.483 5.255 11.738 11.738 11.738h54.342c6.483 0 11.738-5.255 11.738-11.738v-121.922z" fill="#7bac51"/></g><g><path d="m215.896 240.262v-121.923h-7.023v121.922c0 6.483-5.255 11.738-11.739 11.738h7.024c6.483.001 11.738-5.254 11.738-11.737z" fill="#5d8e33"/></g><g><path d="m138.078 240.262v-121.923h7.023v121.922c0 6.483 5.255 11.738 11.738 11.738h-7.023c-6.483.001-11.738-5.254-11.738-11.737z" fill="#99ca6f"/></g><g><path d="m188.443 41.789h-22.913c-4.405 0-7.976-3.571-7.976-7.976 0-4.405 3.571-7.976 7.976-7.976h22.913c4.405 0 7.976 3.571 7.976 7.976 0 4.405-3.571 7.976-7.976 7.976z" fill="#f4efed"/></g><g><path d="m204.158 254h-54.342c-7.576 0-13.739-6.163-13.739-13.738v-129.44c0-4.307 2.323-8.31 6.063-10.447l13.654-7.805c2.362-1.35 3.869-3.776 4.033-6.491l2.676-44.41c.064-1.056.939-1.88 1.997-1.88h24.976c1.058 0 1.933.824 1.997 1.88l2.676 44.41c.164 2.715 1.671 5.142 4.032 6.491l13.655 7.805c3.739 2.137 6.062 6.14 6.062 10.447v129.439c-.002 7.576-6.165 13.739-13.74 13.739zm-37.776-210.211-2.563 42.53c-.245 4.067-2.503 7.702-6.041 9.724l-13.654 7.805c-2.497 1.427-4.047 4.099-4.047 6.975v129.439c0 5.37 4.369 9.738 9.739 9.738h54.342c5.37 0 9.738-4.369 9.738-9.738v-129.44c0-2.876-1.551-5.548-4.047-6.975l-13.655-7.805c-3.537-2.021-5.795-5.657-6.04-9.724l-2.563-42.53h-21.209zm-4.559 42.41h.01z" fill="#690589"/></g><g><path d="m188.443 25.838h-7.023c4.405 0 7.976 3.571 7.976 7.976s-3.571 7.976-7.976 7.976h7.023c4.405 0 7.976-3.571 7.976-7.976s-3.571-7.976-7.976-7.976z" fill="#d6d1cf"/></g><g><path d="m165.531 41.789h7.023c-4.405 0-7.976-3.571-7.976-7.976s3.571-7.976 7.976-7.976h-7.023c-4.405 0-7.976 3.571-7.976 7.976s3.571 7.976 7.976 7.976z" fill="#fff"/></g><g><path d="m188.443 43.789h-22.913c-5.501 0-9.976-4.475-9.976-9.976s4.475-9.976 9.976-9.976h22.913c5.5 0 9.975 4.475 9.975 9.976s-4.474 9.976-9.975 9.976zm-22.912-15.951c-3.295 0-5.976 2.681-5.976 5.976s2.681 5.976 5.976 5.976h22.913c3.295 0 5.975-2.681 5.975-5.976s-2.681-5.976-5.975-5.976z" fill="#690589"/></g><g><path d="m215.896 120.339h-77.819c-1.105 0-2-.896-2-2s.895-2 2-2h77.819c1.105 0 2 .896 2 2 0 1.105-.895 2-2 2z" fill="#690589"/></g><g><ellipse cx="88.601" cy="188.529" fill="#7bac51" rx="13.101" ry="15.766"/></g><g><path d="m88.601 206.294c-8.327 0-15.101-7.97-15.101-17.766s6.774-17.766 15.101-17.766 15.102 7.97 15.102 17.766c-.001 9.797-6.775 17.766-15.102 17.766zm0-31.531c-6.121 0-11.101 6.175-11.101 13.766 0 7.59 4.98 13.766 11.101 13.766 6.122 0 11.102-6.175 11.102-13.766-.001-7.591-4.981-13.766-11.102-13.766z" fill="#690589"/></g><g><path d="m70.946 174.833c-.213 0-.429-.034-.642-.106-1.045-.354-1.606-1.487-1.253-2.533.174-.514 4.392-12.733 16.496-25.164.675-.694 1.751-.804 2.552-.263.802.542 1.101 1.58.711 2.465-4.412 9.999 1.531 22.537 1.592 22.662.48.995.063 2.19-.932 2.67-.997.48-2.191.063-2.67-.932-.216-.449-4.16-8.775-3.561-17.923-7.526 9.5-10.365 17.668-10.398 17.767-.284.832-1.062 1.357-1.895 1.357z" fill="#690589"/></g><g><ellipse cx="69.453" cy="188.529" fill="#7bac51" rx="15.766" ry="13.101" transform="matrix(.095 -.996 .996 .095 -124.809 239.806)"/></g><g><path d="m68.998 206.273c-.407 0-.817-.019-1.229-.058-4.086-.389-7.726-2.64-10.248-6.339-2.444-3.583-3.545-8.122-3.103-12.778.928-9.753 8.427-17.043 16.717-16.255 8.289.789 14.278 9.365 13.351 19.117-.882 9.267-7.699 16.313-15.488 16.313zm.901-31.489c-5.748 0-10.813 5.493-11.498 12.693-.355 3.729.506 7.332 2.425 10.146 1.84 2.699 4.44 4.336 7.322 4.61 6.096.586 11.637-5.096 12.356-12.652.719-7.557-3.653-14.176-9.747-14.756-.287-.028-.573-.041-.858-.041zm12.596 14.986h.01z" fill="#690589"/></g><g><path d="m174.219 197.761c-.145 0-.291-.016-.438-.048-1.078-.241-1.756-1.31-1.516-2.388.07-.314 6.879-31.618-4.607-47.591-.645-.896-.441-2.146.456-2.791.895-.645 2.146-.441 2.791.456 5.304 7.375 7.794 18.195 7.402 32.161-.288 10.26-2.063 18.3-2.139 18.638-.207.93-1.033 1.563-1.949 1.563z" fill="#690589"/></g><g><circle cx="166.619" cy="172.155" fill="#fcc24c" r="9.727"/></g><g><ellipse cx="186.073" cy="174.17" fill="#fcc24c" rx="9.727" ry="9.727" transform="matrix(.16 -.987 .987 .16 -15.577 330.041)"/></g><g><ellipse cx="174.217" cy="195.761" fill="#fcc24c" rx="9.727" ry="9.727" transform="matrix(.707 -.707 .707 .707 -87.397 180.527)"/></g><g><path d="m166.619 183.882c-6.466 0-11.727-5.261-11.727-11.727s5.261-11.727 11.727-11.727 11.727 5.261 11.727 11.727-5.261 11.727-11.727 11.727zm0-19.454c-4.261 0-7.727 3.466-7.727 7.727s3.466 7.727 7.727 7.727 7.727-3.466 7.727-7.727-3.466-7.727-7.727-7.727z" fill="#690589"/></g><g><path d="m186.073 185.898c-6.466 0-11.727-5.261-11.727-11.727s5.261-11.727 11.727-11.727 11.727 5.261 11.727 11.727-5.26 11.727-11.727 11.727zm0-19.455c-4.261 0-7.727 3.466-7.727 7.727s3.466 7.727 7.727 7.727 7.727-3.466 7.727-7.727c0-4.26-3.466-7.727-7.727-7.727z" fill="#690589"/></g><g><path d="m174.217 207.488c-6.466 0-11.727-5.261-11.727-11.727s5.261-11.727 11.727-11.727 11.727 5.261 11.727 11.727-5.26 11.727-11.727 11.727zm0-19.454c-4.261 0-7.727 3.466-7.727 7.727s3.466 7.727 7.727 7.727 7.727-3.466 7.727-7.727c0-4.26-3.466-7.727-7.727-7.727z" fill="#690589"/></g></g></svg>