<?xml version="1.0" encoding="iso-8859-1"?>
<!-- Generator: Adobe Illustrator 19.0.0, SVG Export Plug-In . SVG Version: 6.00 Build 0)  -->
<svg version="1.1" id="Capa_1" xmlns="http://www.w3.org/2000/svg" xmlns:xlink="http://www.w3.org/1999/xlink" x="0px" y="0px"
	 viewBox="0 0 512 512" style="enable-background:new 0 0 512 512;" xml:space="preserve">
<path style="fill:#F9EADE;" d="M324.345,202.99V102.305h-66.646h-3.405h-66.646V202.99c0,9.488-3.107,18.715-8.847,26.269
	l-18.096,23.819c-9.249,12.174-14.256,27.041-14.256,42.33v199.448c0,9.467,7.675,17.141,17.141,17.141h90.703h3.405h90.703
	c9.467,0,17.141-7.675,17.141-17.141V295.408c0-15.289-5.007-30.156-14.256-42.33L333.19,229.26
	C327.453,221.706,324.345,212.479,324.345,202.99z"/>
<path style="fill:#F4DDCE;" d="M365.544,295.411v199.445c0,9.463-7.67,17.144-17.144,17.144h-53.093
	c9.464,0,17.134-7.681,17.134-17.144V295.411c0-15.289-5-30.155-14.248-42.331l-18.103-23.825
	c-5.732-7.547-8.845-16.774-8.845-26.268V102.307h53.104v100.681c0,9.495,3.103,18.722,8.845,26.268l18.093,23.825
	C360.535,265.256,365.544,280.122,365.544,295.411z"/>
<rect x="146.454" y="305.166" style="fill:#38B9D6;" width="219.098" height="137.118"/>
<rect x="312.438" y="305.166" style="fill:#1C9AAF;" width="53.104" height="137.118"/>
<path style="fill:#FFD04F;" d="M324.051,75.471H187.944V18.309c0-10.11,8.196-18.306,18.306-18.306h99.496
	c10.11,0,18.306,8.196,18.306,18.306V75.471z"/>
<path style="fill:#F9BD16;" d="M324.046,18.835v56.64h-52.691v-56.64C271.355,8.433,262.922,0,252.52,0h52.701
	C315.624,0,324.046,8.433,324.046,18.835z"/>
<rect x="187.945" y="75.467" style="fill:#38B9D6;" width="136.106" height="26.833"/>
<rect x="271.357" y="75.467" style="fill:#1C9AAF;" width="52.694" height="26.833"/>
<g>
	<path style="fill:#E8A80A;" d="M215.398,57.14c-4.151,0-7.515-3.365-7.515-7.515V25.85c0-4.15,3.364-7.515,7.515-7.515
		c4.151,0,7.515,3.365,7.515,7.515v23.774C222.913,53.775,219.549,57.14,215.398,57.14z"/>
	<path style="fill:#E8A80A;" d="M243.378,57.14c-4.151,0-7.515-3.365-7.515-7.515V25.85c0-4.15,3.364-7.515,7.515-7.515
		c4.151,0,7.515,3.365,7.515,7.515v23.774C250.893,53.775,247.529,57.14,243.378,57.14z"/>
	<path style="fill:#E8A80A;" d="M271.357,57.14c-4.151,0-7.515-3.365-7.515-7.515V25.85c0-4.15,3.364-7.515,7.515-7.515
		s7.515,3.365,7.515,7.515v23.774C278.872,53.775,275.508,57.14,271.357,57.14z"/>
	<path style="fill:#E8A80A;" d="M299.338,57.14c-4.151,0-7.515-3.365-7.515-7.515V25.85c0-4.15,3.364-7.515,7.515-7.515
		c4.151,0,7.515,3.365,7.515,7.515v23.774C306.853,53.775,303.488,57.14,299.338,57.14z"/>
</g>
<g>
	<path style="fill:#E2E8ED;" d="M313.211,370.912H198.784c-4.151,0-7.515-3.365-7.515-7.515c0-4.15,3.364-7.515,7.515-7.515h114.427
		c4.151,0,7.515,3.365,7.515,7.515C320.726,367.548,317.362,370.912,313.211,370.912z"/>
	<path style="fill:#E2E8ED;" d="M293.498,396.825h-75c-4.151,0-7.515-3.365-7.515-7.515c0-4.15,3.364-7.515,7.515-7.515h75
		c4.151,0,7.515,3.365,7.515,7.515C301.012,393.46,297.649,396.825,293.498,396.825z"/>
</g>
<g>
</g>
<g>
</g>
<g>
</g>
<g>
</g>
<g>
</g>
<g>
</g>
<g>
</g>
<g>
</g>
<g>
</g>
<g>
</g>
<g>
</g>
<g>
</g>
<g>
</g>
<g>
</g>
<g>
</g>
</svg>
