<svg width="10" height="10" viewBox="0 0 10 10" fill="none" xmlns="http://www.w3.org/2000/svg">
<path fill-rule="evenodd" clip-rule="evenodd" d="M4.99999 8.75C2.93208 8.75 1.24999 7.0675 1.24999 5C1.24999 2.9325 2.93208 1.25 4.99999 1.25C7.06791 1.25 8.74999 2.9325 8.74999 5C8.74999 7.0675 7.06791 8.75 4.99999 8.75ZM4.99998 2.08342C3.39207 2.08342 2.08332 3.39175 2.08332 5.00009C2.08332 6.60842 3.39207 7.91675 4.99998 7.91675C6.6079 7.91675 7.91665 6.60842 7.91665 5.00009C7.91665 3.39175 6.6079 2.08342 4.99998 2.08342ZM4.58333 5.20833L6.41666 6.58333L6.91666 5.91666L5.41666 4.79166V2.91666H4.58333V5.20833Z" fill="black" fill-opacity="0.65"/>
<mask id="mask0" mask-type="alpha" maskUnits="userSpaceOnUse" x="1" y="1" width="8" height="8">
<path fill-rule="evenodd" clip-rule="evenodd" d="M4.99999 8.75C2.93208 8.75 1.24999 7.0675 1.24999 5C1.24999 2.9325 2.93208 1.25 4.99999 1.25C7.06791 1.25 8.74999 2.9325 8.74999 5C8.74999 7.0675 7.06791 8.75 4.99999 8.75ZM4.99998 2.08342C3.39207 2.08342 2.08332 3.39175 2.08332 5.00009C2.08332 6.60842 3.39207 7.91675 4.99998 7.91675C6.6079 7.91675 7.91665 6.60842 7.91665 5.00009C7.91665 3.39175 6.6079 2.08342 4.99998 2.08342ZM4.58333 5.20833L6.41666 6.58333L6.91666 5.91666L5.41666 4.79166V2.91666H4.58333V5.20833Z" fill="white"/>
</mask>
<g mask="url(#mask0)">
</g>
</svg>
