<svg width="21" height="21" viewBox="0 0 21 21" fill="none" xmlns="http://www.w3.org/2000/svg">
<path fill-rule="evenodd" clip-rule="evenodd" d="M10.3845 18.1731C6.08963 18.1731 2.59607 14.6787 2.59607 10.3847C2.59607 6.09061 6.08963 2.59619 10.3845 2.59619C14.6794 2.59619 18.173 6.09061 18.173 10.3847C18.173 14.6787 14.6794 18.1731 10.3845 18.1731ZM10.3846 4.32691C7.04509 4.32691 4.32691 7.04422 4.32691 10.3846C4.32691 13.725 7.04509 16.4423 10.3846 16.4423C13.7241 16.4423 16.4423 13.725 16.4423 10.3846C16.4423 7.04422 13.7241 4.32691 10.3846 4.32691ZM9.51895 10.8173L13.3266 13.6731L14.3651 12.2884L11.2497 9.9519V6.05767H9.51895V10.8173Z" fill="#FFCA44"/>
<mask id="mask0" mask-type="alpha" maskUnits="userSpaceOnUse" x="2" y="2" width="17" height="17">
<path fill-rule="evenodd" clip-rule="evenodd" d="M10.3845 18.1731C6.08963 18.1731 2.59607 14.6787 2.59607 10.3847C2.59607 6.09061 6.08963 2.59619 10.3845 2.59619C14.6794 2.59619 18.173 6.09061 18.173 10.3847C18.173 14.6787 14.6794 18.1731 10.3845 18.1731ZM10.3846 4.32691C7.04509 4.32691 4.32691 7.04422 4.32691 10.3846C4.32691 13.725 7.04509 16.4423 10.3846 16.4423C13.7241 16.4423 16.4423 13.725 16.4423 10.3846C16.4423 7.04422 13.7241 4.32691 10.3846 4.32691ZM9.51895 10.8173L13.3266 13.6731L14.3651 12.2884L11.2497 9.9519V6.05767H9.51895V10.8173Z" fill="white"/>
</mask>
<g mask="url(#mask0)">
</g>
</svg>
