<svg width="12" height="15" viewBox="0 0 12 15" fill="none" xmlns="http://www.w3.org/2000/svg">
<path d="M11.0252 5.43544C10.5787 4.49015 9.95495 3.56813 9.17139 2.69502C9.00721 2.51199 8.72384 2.5009 8.54506 2.66542L6.48342 4.56219V0.589968C6.48342 0.257452 6.0767 0.00900823 5.77212 0.190627C4.09772 1.18901 2.06382 3.19165 1.02221 5.33004C0.430458 6.54485 0.130435 7.80388 0.130435 9.07219C0.130406 12.2695 2.76283 14.8707 5.99851 14.8707C10.064 14.8707 13.5251 10.7273 11.0252 5.43544ZM4.64472 12.6671C4.64472 11.5499 5.55724 10.7298 5.99921 10.3982C6.43923 10.7505 7.35227 11.609 7.35227 12.6671C7.35227 13.4047 6.74497 14.0048 5.99848 14.0048C5.25198 14.0048 4.64472 13.4047 4.64472 12.6671ZM8.02811 13.5783C8.69796 12.1273 7.58952 10.3736 6.24984 9.50274C6.10953 9.41158 5.92891 9.40761 5.78459 9.49266C4.38877 10.3156 3.29768 12.1244 3.96888 13.5783C2.22502 12.8084 1.00664 11.0783 1.00664 9.07221C1.00664 5.93285 3.0807 3.19876 5.60718 1.35226V5.55686C5.60718 5.93415 6.06405 6.13108 6.34386 5.87371L8.80799 3.60662C10.2565 5.33827 10.9903 7.1751 10.9903 9.07224C10.9903 11.0783 9.77197 12.8084 8.02811 13.5783Z" fill="#FFCA44"/>
<path fill-rule="evenodd" clip-rule="evenodd" d="M6.24984 9.50274C7.53595 10.3388 8.60895 11.9885 8.10003 13.4029C8.07883 13.4618 8.05489 13.5203 8.02811 13.5783C8.08742 13.5521 8.14613 13.5248 8.2042 13.4964C9.85344 12.6904 10.9903 11.0101 10.9903 9.07224C10.9903 7.21163 10.2845 5.40903 8.89087 3.70677C8.86351 3.67335 8.83588 3.63997 8.80799 3.60662C8.80799 3.60662 8.80799 3.60662 8.80799 3.60662L6.34386 5.87371C6.06405 6.13108 5.60718 5.93415 5.60718 5.55686V1.35226C5.56356 1.38413 5.52008 1.41627 5.47675 1.44867C3.0097 3.29327 1.00664 5.98705 1.00664 9.07221C1.00664 11.0101 2.14354 12.6904 3.79278 13.4964C3.85085 13.5248 3.90956 13.5521 3.96888 13.5783C3.94213 13.5204 3.91818 13.4619 3.89693 13.4029C3.38514 11.9818 4.4444 10.2828 5.78459 9.49266C5.92891 9.40761 6.10953 9.41158 6.24984 9.50274ZM3.73292 13.321C3.52896 12.6342 3.65927 11.9014 3.98442 11.2421C4.35917 10.4822 4.99869 9.80556 5.71792 9.38151C5.90509 9.27121 6.13934 9.27634 6.32133 9.39457C7.00903 9.84161 7.63766 10.5148 8.00964 11.266C8.3323 11.9176 8.46621 12.6382 8.26396 13.3211C9.80685 12.5147 10.8599 10.9124 10.8599 9.07224C10.8599 7.24891 10.1698 5.47652 8.79506 3.79493L6.43259 5.96849C6.06987 6.30211 5.47675 6.04778 5.47675 5.55685V1.61104C3.06334 3.44074 1.13708 6.07628 1.13708 9.07221C1.13708 10.9123 2.19009 12.5146 3.73292 13.321ZM9.26886 2.60908C10.0598 3.49041 10.6909 4.42275 11.1434 5.38059C12.4097 8.06125 12.1716 10.4668 11.0848 12.2056C9.99982 13.9413 8.07608 15 5.99851 15C2.69119 15 -2.98695e-05 12.3413 2.48633e-10 9.07218C2.48633e-10 7.78317 0.305016 6.505 0.904754 5.2738C1.95861 3.11027 4.01126 1.08965 5.70489 0.0798072C5.90522 -0.0396461 6.13466 -0.0144721 6.3078 0.0858479C6.47983 0.185525 6.61385 0.369507 6.61385 0.58996V4.26576L8.45632 2.57064C8.68819 2.35727 9.05563 2.37136 9.26886 2.60908ZM9.17139 2.69502C9.95495 3.56813 10.5787 4.49015 11.0252 5.43544C13.5251 10.7273 10.064 14.8707 5.99851 14.8707C2.76283 14.8707 0.130406 12.2695 0.130435 9.07219C0.130435 7.80388 0.430458 6.54485 1.02221 5.33004C2.06382 3.19165 4.09772 1.18901 5.77212 0.190627C6.0767 0.00900823 6.48342 0.257452 6.48342 0.589968V4.56219L8.54506 2.66542C8.72384 2.5009 9.00721 2.51199 9.17139 2.69502ZM5.2617 11.3141C4.98857 11.6863 4.77516 12.1444 4.77516 12.6671C4.77516 13.3329 5.32362 13.8755 5.99848 13.8755C6.67334 13.8755 7.22183 13.3329 7.22183 12.6671C7.22183 12.1751 7.00923 11.7221 6.73481 11.3434C6.49275 11.0093 6.20801 10.7406 5.9967 10.5638C5.7856 10.7304 5.50241 10.9861 5.2617 11.3141ZM5.99921 10.3982C5.55724 10.7298 4.64472 11.5499 4.64472 12.6671C4.64472 13.4047 5.25198 14.0048 5.99848 14.0048C6.74497 14.0048 7.35227 13.4047 7.35227 12.6671C7.35227 11.609 6.43923 10.7505 5.99921 10.3982Z" fill="#FFCA44"/>
</svg>
