<svg width="20" height="25" xmlns="http://www.w3.org/2000/svg">
<path d="M7.35016 3.62363C7.05246 2.99344 6.63663 2.37875 6.11426 1.79668C6.00481 1.67466 5.81589 1.66727 5.69671 1.77695L4.32228 3.04146V0.393312C4.32228 0.171635 4.05113 0.00600549 3.84808 0.127084C2.73181 0.792672 1.37588 2.12776 0.681474 3.55336C0.286972 4.36323 0.0869566 5.20259 0.0869566 6.04812C0.0869371 8.17967 1.84188 9.9138 3.99901 9.9138C6.70936 9.9138 9.01671 7.1515 7.35016 3.62363ZM3.09648 8.44475C3.09648 7.69991 3.70482 7.15321 3.99947 6.93213C4.29282 7.16697 4.90151 7.73933 4.90151 8.44475C4.90151 8.93649 4.49665 9.33656 3.99899 9.33656C3.50132 9.33656 3.09648 8.93649 3.09648 8.44475ZM5.35207 9.05222C5.79864 8.08487 5.05968 6.91573 4.16656 6.33516C4.07302 6.27439 3.9526 6.27174 3.85639 6.32844C2.92585 6.87708 2.19846 8.08295 2.64592 9.05222C1.48335 8.53892 0.671095 7.38556 0.671095 6.04814C0.671095 3.95523 2.0538 2.13251 3.73812 0.901505V3.70457C3.73812 3.9561 4.0427 4.08739 4.22924 3.91581L5.87199 2.40441C6.83768 3.55885 7.3269 4.7834 7.3269 6.04816C7.3269 7.38556 6.51464 8.53892 5.35207 9.05222Z" fill="#FFCA44" fill-opacity="1"/>
<path fill-rule="evenodd" clip-rule="evenodd" d="M4.16656 6.33516C5.02397 6.89252 5.7393 7.99231 5.40002 8.93526C5.38589 8.97453 5.36993 9.01354 5.35207 9.05222C5.39161 9.03476 5.43075 9.01655 5.46947 8.99763C6.56896 8.46024 7.3269 7.34007 7.3269 6.04816C7.3269 4.80775 6.85634 3.60602 5.92725 2.47118C5.90901 2.4489 5.89059 2.42664 5.87199 2.40441C5.87199 2.40441 5.87199 2.40442 5.87199 2.40441L4.22924 3.91581C4.0427 4.08739 3.73812 3.9561 3.73812 3.70457V0.901505C3.70904 0.922757 3.68006 0.944179 3.65116 0.965782C2.00647 2.19551 0.671095 3.99136 0.671095 6.04814C0.671095 7.34006 1.42903 8.46023 2.52852 8.99763C2.56723 9.01655 2.60637 9.03476 2.64592 9.05222C2.62809 9.01359 2.61212 8.97457 2.59796 8.93525C2.25676 7.98787 2.96294 6.85521 3.85639 6.32844C3.9526 6.27174 4.07302 6.27439 4.16656 6.33516ZM2.48862 8.88069C2.35264 8.42279 2.43952 7.93429 2.65628 7.49472C2.90611 6.98811 3.33246 6.53704 3.81194 6.25434C3.93672 6.1808 4.09289 6.18423 4.21422 6.26305C4.67269 6.56108 5.09177 7.00988 5.33976 7.51065C5.55487 7.94503 5.64414 8.42544 5.5093 8.88073C6.5379 8.34314 7.23994 7.27491 7.23994 6.04816C7.23994 4.8326 6.77985 3.65101 5.86337 2.52995L4.28839 3.97899C4.04658 4.20141 3.65116 4.03186 3.65116 3.70457V1.07403C2.04223 2.29383 0.758052 4.05085 0.758052 6.04814C0.758052 7.27488 1.46006 8.34309 2.48862 8.88069ZM6.17924 1.73939C6.70653 2.32694 7.12725 2.9485 7.42891 3.58706C8.27313 5.37416 8.11442 6.97788 7.38984 8.13707C6.66655 9.29419 5.38405 10 3.99901 10C1.79413 10 -1.9913e-05 8.22754 1.65756e-10 6.04812C1.65756e-10 5.18878 0.203344 4.33667 0.603169 3.51587C1.30574 2.07352 2.67418 0.726435 3.80326 0.0532048C3.93681 -0.0264307 4.08977 -0.00964805 4.2052 0.0572319C4.31989 0.123683 4.40924 0.246338 4.40924 0.393307V2.84384L5.63755 1.71376C5.79213 1.57152 6.03709 1.58091 6.17924 1.73939ZM6.11426 1.79668C6.63663 2.37875 7.05246 2.99344 7.35016 3.62363C9.01671 7.1515 6.70936 9.9138 3.99901 9.9138C1.84188 9.9138 0.0869371 8.17967 0.0869566 6.04812C0.0869566 5.20259 0.286972 4.36323 0.681474 3.55336C1.37588 2.12776 2.73181 0.792672 3.84808 0.127084C4.05113 0.00600549 4.32228 0.171635 4.32228 0.393312V3.04146L5.69671 1.77695C5.81589 1.66727 6.00481 1.67466 6.11426 1.79668ZM3.5078 7.54274C3.32572 7.79084 3.18344 8.09627 3.18344 8.44474C3.18344 8.88861 3.54908 9.25035 3.99899 9.25035C4.44889 9.25035 4.81455 8.88861 4.81455 8.44474C4.81455 8.11672 4.67282 7.81475 4.48987 7.56226C4.3285 7.33955 4.13867 7.16038 3.9978 7.04254C3.85706 7.1536 3.66827 7.32408 3.5078 7.54274ZM3.99947 6.93213C3.70482 7.15321 3.09648 7.69991 3.09648 8.44475C3.09648 8.93649 3.50132 9.33656 3.99899 9.33656C4.49665 9.33656 4.90151 8.93649 4.90151 8.44475C4.90151 7.73933 4.29282 7.16697 3.99947 6.93213Z" fill="#FFCA44" fill-opacity="1"/>
</svg>
